<?xml version="1.0" encoding="UTF-8" standalone="no"?>
<!DOCTYPE svg PUBLIC "-//W3C//DTD SVG 1.1//EN" "http://www.w3.org/Graphics/SVG/1.1/DTD/svg11.dtd">
<svg width="100%" height="100%" viewBox="0 0 771 351" version="1.1" xmlns="http://www.w3.org/2000/svg" xmlns:xlink="http://www.w3.org/1999/xlink" xml:space="preserve" xmlns:serif="http://www.serif.com/" style="fill-rule:evenodd;clip-rule:evenodd;stroke-linecap:round;stroke-linejoin:round;stroke-miterlimit:1.5;">
    <g transform="matrix(1,0,0,1,-47,-106)">
        <g id="a">
            <g>
                <g transform="matrix(1,0,0,1,-467.367,0)">
                    <g transform="matrix(1.18366,0,0,12.7731,-148.798,-599.114)">
                        <rect x="562.693" y="55.38" width="646.74" height="27.104" style="fill:rgb(76,219,246);stroke:black;stroke-width:0.44px;"/>
                    </g>
                    <g transform="matrix(1.18366,0,0,0.829554,-148.798,62.3195)">
                        <rect x="562.693" y="55.38" width="646.74" height="27.104" style="fill:rgb(76,219,246);stroke:black;stroke-width:3.91px;"/>
                    </g>
                </g>
                <g transform="matrix(0.465443,0,0,0.465443,21.043,36.0844)">
                    <g transform="matrix(0.399393,0,0,0.888751,115.418,25.3524)">
                        <path d="M1379.62,287.326C1379.62,278.955 1372.22,270.927 1359.04,265.008C1345.87,259.089 1328.01,255.763 1309.38,255.763C1125.61,255.763 632.105,255.763 448.33,255.763C429.702,255.763 411.838,259.089 398.666,265.008C385.495,270.927 378.095,278.955 378.095,287.326C378.095,400.614 378.095,786.018 378.095,899.306C378.095,907.677 385.495,915.705 398.666,921.624C411.838,927.543 429.702,930.868 448.33,930.868C632.105,930.868 1125.61,930.868 1309.38,930.868C1328.01,930.868 1345.87,927.543 1359.04,921.624C1372.22,915.705 1379.62,907.677 1379.62,899.306C1379.62,786.018 1379.62,400.614 1379.62,287.326Z" style="fill:rgb(54,180,50);stroke:black;stroke-width:12.47px;"/>
                    </g>
                    <g transform="matrix(0.798785,0,0,0.888751,400.151,25.3524)">
                        <path d="M1379.62,287.326C1379.62,278.955 1375.92,270.927 1369.33,265.008C1362.74,259.089 1353.81,255.763 1344.5,255.763C1189.58,255.763 568.129,255.763 413.212,255.763C403.899,255.763 394.966,259.089 388.38,265.008C381.795,270.927 378.095,278.955 378.095,287.326C378.095,400.614 378.095,786.018 378.095,899.306C378.095,907.677 381.795,915.705 388.38,921.624C394.966,927.543 403.899,930.868 413.212,930.868C568.129,930.868 1189.58,930.868 1344.5,930.868C1353.81,930.868 1362.74,927.543 1369.33,921.624C1375.92,915.705 1379.62,907.677 1379.62,899.306C1379.62,786.018 1379.62,400.614 1379.62,287.326Z" style="fill:rgb(254,244,202);stroke:black;stroke-width:10.17px;"/>
                    </g>
                    <g transform="matrix(5.63587,0,0,5.63587,-4601.3,-1830.57)">
                        <g transform="matrix(12,0,0,12,991.036,383.645)">
                            <path d="M0.476,-0.367C0.54,-0.397 0.575,-0.449 0.575,-0.518C0.575,-0.635 0.473,-0.708 0.321,-0.708C0.17,-0.708 0.069,-0.635 0.069,-0.518C0.069,-0.449 0.103,-0.397 0.167,-0.367C0.088,-0.337 0.044,-0.278 0.044,-0.198C0.044,-0.071 0.151,0.008 0.321,0.008C0.492,0.008 0.6,-0.071 0.6,-0.198C0.6,-0.278 0.556,-0.336 0.476,-0.367ZM0.321,-0.627C0.415,-0.627 0.477,-0.584 0.477,-0.514C0.477,-0.445 0.418,-0.402 0.321,-0.402C0.225,-0.402 0.168,-0.445 0.168,-0.514C0.168,-0.584 0.227,-0.627 0.321,-0.627ZM0.321,-0.073C0.21,-0.073 0.144,-0.122 0.144,-0.201C0.144,-0.278 0.21,-0.326 0.321,-0.326C0.432,-0.326 0.5,-0.278 0.5,-0.201C0.5,-0.122 0.432,-0.073 0.321,-0.073Z" style="fill-rule:nonzero;"/>
                        </g>
                        <g transform="matrix(12,0,0,12,998.764,383.645)">
                            <path d="M0.334,0.008C0.497,0.008 0.619,-0.122 0.619,-0.35C0.619,-0.578 0.497,-0.708 0.334,-0.708C0.17,-0.708 0.048,-0.578 0.048,-0.35C0.048,-0.122 0.17,0.008 0.334,0.008ZM0.334,-0.081C0.224,-0.081 0.148,-0.171 0.148,-0.35C0.148,-0.529 0.224,-0.619 0.334,-0.619C0.443,-0.619 0.519,-0.529 0.519,-0.35C0.519,-0.171 0.443,-0.081 0.334,-0.081Z" style="fill-rule:nonzero;"/>
                        </g>
                        <g transform="matrix(12,0,0,12,1006.77,383.645)">
                            <path d="M0.334,0.008C0.497,0.008 0.619,-0.122 0.619,-0.35C0.619,-0.578 0.497,-0.708 0.334,-0.708C0.17,-0.708 0.048,-0.578 0.048,-0.35C0.048,-0.122 0.17,0.008 0.334,0.008ZM0.334,-0.081C0.224,-0.081 0.148,-0.171 0.148,-0.35C0.148,-0.529 0.224,-0.619 0.334,-0.619C0.443,-0.619 0.519,-0.529 0.519,-0.35C0.519,-0.171 0.443,-0.081 0.334,-0.081Z" style="fill-rule:nonzero;"/>
                        </g>
                        <g transform="matrix(12,0,0,12,1018,383.645)">
                            <path d="M0.372,-0.535C0.294,-0.535 0.226,-0.505 0.183,-0.446L0.183,-0.53L0.091,-0.53L0.091,0.194L0.187,0.194L0.187,-0.08C0.231,-0.023 0.297,0.006 0.372,0.006C0.527,0.006 0.64,-0.102 0.64,-0.265C0.64,-0.427 0.527,-0.535 0.372,-0.535ZM0.364,-0.078C0.263,-0.078 0.186,-0.152 0.186,-0.265C0.186,-0.377 0.263,-0.451 0.364,-0.451C0.466,-0.451 0.543,-0.377 0.543,-0.265C0.543,-0.152 0.466,-0.078 0.364,-0.078Z" style="fill-rule:nonzero;"/>
                        </g>
                        <g transform="matrix(12,0,0,12,1025.97,383.645)">
                            <path d="M0.538,-0L0.327,-0.271L0.527,-0.53L0.422,-0.53L0.277,-0.339L0.131,-0.53L0.024,-0.53L0.223,-0.271L0.014,-0L0.121,-0L0.276,-0.203L0.429,-0L0.538,-0Z" style="fill-rule:nonzero;"/>
                        </g>
                    </g>
                    <g transform="matrix(3.45097e-16,-5.63587,5.63587,3.45097e-16,-702.252,6255.35)">
                        <g transform="matrix(12,0,0,12,991.036,383.645)">
                            <path d="M0.35,-0.425C0.263,-0.425 0.189,-0.393 0.149,-0.333C0.148,-0.342 0.148,-0.35 0.148,-0.358C0.148,-0.533 0.239,-0.622 0.381,-0.622C0.431,-0.622 0.479,-0.613 0.515,-0.589L0.553,-0.667C0.508,-0.695 0.445,-0.708 0.379,-0.708C0.183,-0.708 0.048,-0.58 0.048,-0.341C0.048,-0.118 0.154,0.008 0.342,0.008C0.481,0.008 0.59,-0.078 0.59,-0.213C0.59,-0.342 0.489,-0.425 0.35,-0.425ZM0.338,-0.073C0.23,-0.073 0.172,-0.136 0.172,-0.208C0.172,-0.285 0.238,-0.344 0.333,-0.344C0.431,-0.344 0.493,-0.291 0.493,-0.209C0.493,-0.126 0.429,-0.073 0.338,-0.073Z" style="fill-rule:nonzero;"/>
                        </g>
                        <g transform="matrix(12,0,0,12,998.44,383.645)">
                            <path d="M0.334,0.008C0.497,0.008 0.619,-0.122 0.619,-0.35C0.619,-0.578 0.497,-0.708 0.334,-0.708C0.17,-0.708 0.048,-0.578 0.048,-0.35C0.048,-0.122 0.17,0.008 0.334,0.008ZM0.334,-0.081C0.224,-0.081 0.148,-0.171 0.148,-0.35C0.148,-0.529 0.224,-0.619 0.334,-0.619C0.443,-0.619 0.519,-0.529 0.519,-0.35C0.519,-0.171 0.443,-0.081 0.334,-0.081Z" style="fill-rule:nonzero;"/>
                        </g>
                        <g transform="matrix(12,0,0,12,1006.44,383.645)">
                            <path d="M0.334,0.008C0.497,0.008 0.619,-0.122 0.619,-0.35C0.619,-0.578 0.497,-0.708 0.334,-0.708C0.17,-0.708 0.048,-0.578 0.048,-0.35C0.048,-0.122 0.17,0.008 0.334,0.008ZM0.334,-0.081C0.224,-0.081 0.148,-0.171 0.148,-0.35C0.148,-0.529 0.224,-0.619 0.334,-0.619C0.443,-0.619 0.519,-0.529 0.519,-0.35C0.519,-0.171 0.443,-0.081 0.334,-0.081Z" style="fill-rule:nonzero;"/>
                        </g>
                        <g transform="matrix(12,0,0,12,1017.68,383.645)">
                            <path d="M0.372,-0.535C0.294,-0.535 0.226,-0.505 0.183,-0.446L0.183,-0.53L0.091,-0.53L0.091,0.194L0.187,0.194L0.187,-0.08C0.231,-0.023 0.297,0.006 0.372,0.006C0.527,0.006 0.64,-0.102 0.64,-0.265C0.64,-0.427 0.527,-0.535 0.372,-0.535ZM0.364,-0.078C0.263,-0.078 0.186,-0.152 0.186,-0.265C0.186,-0.377 0.263,-0.451 0.364,-0.451C0.466,-0.451 0.543,-0.377 0.543,-0.265C0.543,-0.152 0.466,-0.078 0.364,-0.078Z" style="fill-rule:nonzero;"/>
                        </g>
                        <g transform="matrix(12,0,0,12,1025.64,383.645)">
                            <path d="M0.538,-0L0.327,-0.271L0.527,-0.53L0.422,-0.53L0.277,-0.339L0.131,-0.53L0.024,-0.53L0.223,-0.271L0.014,-0L0.121,-0L0.276,-0.203L0.429,-0L0.538,-0Z" style="fill-rule:nonzero;"/>
                        </g>
                    </g>
                </g>
            </g>
            <g transform="matrix(2.51922,0,0,2.51922,-397.617,-471.269)">
                <g transform="matrix(12,0,0,12,232.904,267.857)">
                    <path d="M0.657,-0.258L0.524,-0.258L0.524,-0.41L0.43,-0.41L0.43,-0.258L0.161,-0.258L0.504,-0.7L0.396,-0.7L0.038,-0.242L0.038,-0.172L0.427,-0.172L0.427,-0L0.524,-0L0.524,-0.172L0.657,-0.172L0.657,-0.258Z" style="fill-rule:nonzero;"/>
                </g>
                <g transform="matrix(12,0,0,12,240.932,267.857)">
                    <path d="M0.334,0.008C0.497,0.008 0.619,-0.122 0.619,-0.35C0.619,-0.578 0.497,-0.708 0.334,-0.708C0.17,-0.708 0.048,-0.578 0.048,-0.35C0.048,-0.122 0.17,0.008 0.334,0.008ZM0.334,-0.081C0.224,-0.081 0.148,-0.171 0.148,-0.35C0.148,-0.529 0.224,-0.619 0.334,-0.619C0.443,-0.619 0.519,-0.529 0.519,-0.35C0.519,-0.171 0.443,-0.081 0.334,-0.081Z" style="fill-rule:nonzero;"/>
                </g>
                <g transform="matrix(12,0,0,12,248.936,267.857)">
                    <path d="M0.334,0.008C0.497,0.008 0.619,-0.122 0.619,-0.35C0.619,-0.578 0.497,-0.708 0.334,-0.708C0.17,-0.708 0.048,-0.578 0.048,-0.35C0.048,-0.122 0.17,0.008 0.334,0.008ZM0.334,-0.081C0.224,-0.081 0.148,-0.171 0.148,-0.35C0.148,-0.529 0.224,-0.619 0.334,-0.619C0.443,-0.619 0.519,-0.529 0.519,-0.35C0.519,-0.171 0.443,-0.081 0.334,-0.081Z" style="fill-rule:nonzero;"/>
                </g>
                <g transform="matrix(12,0,0,12,256.94,267.857)">
                    <path d="M0.372,-0.535C0.294,-0.535 0.226,-0.505 0.183,-0.446L0.183,-0.53L0.091,-0.53L0.091,0.194L0.187,0.194L0.187,-0.08C0.231,-0.023 0.297,0.006 0.372,0.006C0.527,0.006 0.64,-0.102 0.64,-0.265C0.64,-0.427 0.527,-0.535 0.372,-0.535ZM0.364,-0.078C0.263,-0.078 0.186,-0.152 0.186,-0.265C0.186,-0.377 0.263,-0.451 0.364,-0.451C0.466,-0.451 0.543,-0.377 0.543,-0.265C0.543,-0.152 0.466,-0.078 0.364,-0.078Z" style="fill-rule:nonzero;"/>
                </g>
                <g transform="matrix(12,0,0,12,264.908,267.857)">
                    <path d="M0.538,-0L0.327,-0.271L0.527,-0.53L0.422,-0.53L0.277,-0.339L0.131,-0.53L0.024,-0.53L0.223,-0.271L0.014,-0L0.121,-0L0.276,-0.203L0.429,-0L0.538,-0Z" style="fill-rule:nonzero;"/>
                </g>
            </g>
        </g>
    </g>
</svg>
