<svg clip-rule="evenodd" fill-rule="evenodd" stroke-linejoin="round" stroke-miterlimit="2" viewBox="0 0 46 46" xmlns="http://www.w3.org/2000/svg"><g fill-rule="nonzero"><path d="m44.408 23.899c0 11.56-9.371 20.93-20.93 20.93-11.56 0-20.93-9.37-20.93-20.93s9.37-20.93 20.93-20.93c11.559 0 20.93 9.37 20.93 20.93" class="fill1" fill="#009ee2"/><path d="m23.478 3.469c-11.265 0-20.43 9.165-20.43 20.43s9.165 20.43 20.43 20.43 20.43-9.165 20.43-20.43-9.165-20.43-20.43-20.43m0 41.86c-11.816 0-21.43-9.613-21.43-21.43 0-11.816 9.614-21.43 21.43-21.43s21.43 9.614 21.43 21.43c0 11.817-9.614 21.43-21.43 21.43" fill="#231f20"/><path d="m42.548 21.481c0 11.559-9.371 20.93-20.93 20.93-11.56 0-20.93-9.371-20.93-20.93 0-11.56 9.37-20.93 20.93-20.93 11.559 0 20.93 9.37 20.93 20.93" fill="#00b7f1"/><path d="m21.618 1.051c-11.265 0-20.43 9.165-20.43 20.43s9.165 20.43 20.43 20.43 20.43-9.165 20.43-20.43-9.165-20.43-20.43-20.43m0 41.86c-11.816 0-21.43-9.613-21.43-21.43 0-11.816 9.614-21.43 21.43-21.43s21.43 9.614 21.43 21.43c0 11.817-9.614 21.43-21.43 21.43" fill="#231f20"/><path d="m36.408 21.481c0 8.168-6.622 14.791-14.791 14.791-8.168 0-14.791-6.623-14.791-14.791 0-8.169 6.623-14.791 14.791-14.791 8.169 0 14.791 6.622 14.791 14.791" fill="#00b7f1"/><path d="m21.618 7.19c-7.88 0-14.291 6.411-14.291 14.291 0 7.879 6.411 14.29 14.291 14.29s14.291-6.411 14.291-14.29c0-7.88-6.411-14.291-14.291-14.291m0 29.581c-8.432 0-15.291-6.859-15.291-15.29 0-8.432 6.859-15.291 15.291-15.291 8.431 0 15.291 6.859 15.291 15.291 0 8.431-6.86 15.29-15.291 15.29" fill="#231f20"/><path d="m2.722 21.947c-.417-3.977.671-8.167 2.973-11.599 2.281-3.471 5.832-6.068 9.787-7.382 1.981-.65 4.086-.961 6.159-.945 2.081.057 4.112.339 6.096.937 2.014.588 3.867 1.707 5.346 3.115 1.477 1.422 2.673 3.04 3.732 4.73-1.411-1.409-2.799-2.835-4.369-3.966-1.548-1.156-3.281-1.952-5.113-2.356-3.746-.787-7.665-.835-11.228.382-1.793.57-3.495 1.427-5.04 2.509-1.565 1.061-2.931 2.391-4.112 3.882-2.345 3.006-3.816 6.729-4.231 10.693" fill="#fff" opacity=".59"/></g></svg>