<?xml version="1.0" encoding="utf-8"?>
<!-- Generator: Adobe Illustrator 23.0.1, SVG Export Plug-In . SVG Version: 6.00 Build 0)  -->
<svg version="1.1" xmlns="http://www.w3.org/2000/svg" xmlns:xlink="http://www.w3.org/1999/xlink" x="0px" y="0px"
	 viewBox="0 0 157.7 186.4" style="enable-background:new 0 0 157.7 186.4;" xml:space="preserve">
<style type="text/css">
	.st0{fill:#524632;}
	.st1{fill:#E7B3FF;}
	.st2{fill:#7F96FF;}
	.st3{fill:#FFF017;}
	.st4{fill:#FFFFFF;}
	.st5{fill:#BEDA00;}
	.st6{fill:#72A700;}
	.st7{fill:#D6AB79;}
	.st8{fill:#AE92FF;}
	.st9{fill:#CE9663;}
	.st10{fill:#9F2429;}
	.st11{fill:#FFB6C7;}
	.st12{filter:url(#Adobe_OpacityMaskFilter);}
	.st13{clip-path:url(#SVGID_2_);fill:url(#SVGID_4_);}
	.st14{clip-path:url(#SVGID_2_);mask:url(#SVGID_3_);fill:url(#SVGID_5_);}
	.st15{filter:url(#Adobe_OpacityMaskFilter_1_);}
	.st16{clip-path:url(#SVGID_7_);fill:url(#SVGID_9_);}
	.st17{clip-path:url(#SVGID_7_);mask:url(#SVGID_8_);fill:url(#SVGID_10_);}
	.st18{fill:#2D2B11;}
	.st19{fill:#494028;}
</style>
<g id="PiernaDer_1_">
	<path id="Linea_3_" class="st0" d="M70.5,167.9c-0.2-0.4-0.5-0.8-0.9-1.1c-0.3-0.2-0.4-0.5-0.3-0.8c0.4-2.9,0.7-5.9,1-8.8
		c0.1-0.7,0.3-1.9,0.3-2.2c-1.8-0.1-3.6-0.2-5.4-0.4c-1.8-0.2-3.5-0.4-5.3-0.8c-0.2,0.3-0.6,1.2-0.7,1.7c-0.1,0.8-0.3,1.6-0.4,2.5
		c-0.3,2.8-0.5,5.6-0.8,8.5c0,0.5-0.3,0.7-0.7,0.7c-1.3,0.1-2.4,0.5-3.5,1.1c-1.2,0.6-2.4,1.4-3.7,2.1c-0.4,0.2-0.9,0.4-1.3,0.7
		c-1.4,1.1-2.6,2.4-3.4,4c-0.8,1.7-1.5,3.4-1.4,5.3c0.1,1.5,0.7,2.7,1.9,3.4c2.1,1.4,4.5,2.2,7,2.5c2.6,0.3,5.2,0.2,7.8,0.3
		c1.4,0,2.7-0.2,4-0.5c2-0.6,3.9-1.3,5.7-2.5c0.6-0.4,1.2-0.9,1.6-1.4c1.2-1.8,1.5-4,1.2-6C72.9,173.1,71.8,170.4,70.5,167.9z
		 M60.4,155c2.7,0.3,5.4,0.6,8.1,0.9c0.2,0,0.4,0,0.6,0.1c0.2,0.1,0.4,0.3,0.4,0.5c-0.1,1.6,0,1.6-1.4,1.5c-1.9-0.2-3.9-0.1-5.8-0.7
		c-0.3-0.1-0.7-0.2-1-0.3C59.8,156.5,59.8,156.3,60.4,155z M59.6,158.7c0.1-0.4,0.2-0.8,0.3-1.2c0.9,0.3,1.6,0.6,2.4,0.8
		c1.3,0.2,2.7,0.4,4,0.5c0.8,0.1,1.5,0.2,2.3,0.2c0.4,0,0.6,0.2,0.5,0.6c-0.1,0.7-0.2,1.3-0.2,2c0,0.3-0.3,0.5-0.6,0.5
		c-1.1,0-2.2,0-3.3-0.2c-1.2-0.2-2.3-0.5-3.5-0.8c-0.2-0.1-0.5-0.1-0.7-0.2C59.7,160.3,59.4,159.9,59.6,158.7z M59.1,163.2
		c0.1-0.7,0.2-1.3,0.3-2c2.6,1.1,5.3,1.7,8,1.8c0.2,0,0.5,0,0.7,0c0.4,0,0.5,0.2,0.4,0.5c-0.1,0.5-0.1,1-0.2,1.4
		c0,0.2-0.2,0.3-0.4,0.4c-0.2,0.1-0.4,0.2-0.7,0.2c-2.4,0.2-4.9,0.3-7.2-0.7C59.1,164.5,59,164.3,59.1,163.2z M59.2,165.4
		c2.8,1.5,5.8,1.4,8.9,1c0.2,0.8-0.1,1.4-0.8,1.7c-0.3,0.1-0.7,0.3-1,0.4c-2.3,0.2-4.5-0.1-6.5-1.1
		C58.8,166.9,58.8,166.6,59.2,165.4z M56.7,168.3c0.5-0.2,1,0,1.3,0.4c0.8,1,1.5,2,2.2,3c0.1,0.2,0.2,0.4,0.2,0.6
		c-0.1,0.3-0.2,0.7-0.4,0.9c-0.3,0.3-0.7,0.1-0.9-0.2c-0.3-0.3-0.6-0.7-0.9-0.9c-1.1-1-2.2-1.9-3.4-3
		C55.4,168.7,56.1,168.5,56.7,168.3z M70.2,182c-1.1,0.7-2.2,1.4-3.4,1.8c-2.4,1-4.9,1.5-7.6,1.4c-2.1-0.1-4.2-0.1-6.3-0.3
		c-2.2-0.2-4.3-1-6.1-2.2c-1.1-0.7-1.7-1.8-1.6-3c0.4-2.9,1.5-5.4,3.8-7.4c0.5-0.4,1-0.6,1.8-0.4c1.6,0.4,3,1.2,4.2,2.2
		c0.8,0.6,1.5,1.4,2.1,2.1c0.4,0.5,0.8,1.1,1.1,1.7c0.4,0.8,0.8,1.7,1.2,2.5c0.8,1.4,1.9,2.2,3.6,2.2c3.1,0,5.8-1,8.1-3.1
		c0.2-0.2,0.4-0.4,0.7-0.7C71.7,180.2,71.3,181.3,70.2,182z M71.6,176.9c-1.7,2.5-4.2,3.7-7,4.4c-0.7,0.2-1.6,0.1-2.4,0
		c-0.8-0.1-1.4-0.7-1.8-1.4c-0.4-0.8-0.8-1.6-1.2-2.4c-0.4-1-1.1-1.9-1.8-2.6c-1.3-1.3-2.6-2.5-4.2-3.3c-0.6-0.3-1.2-0.5-1.9-0.8
		c0.7-0.4,1.4-0.7,2-1.1c0.5-0.3,0.8,0,1.1,0.3c1.3,1.1,2.5,2.3,3.8,3.5c0.4,0.4,0.8,0.7,1.4,0.7c0.9,0,1.4-0.4,1.7-1.2
		c0.2-0.7,0.1-1.3-0.3-2c-0.2-0.4-0.5-0.8-0.8-1.2c-0.2-0.4-0.5-0.7-0.7-1.1c2.1,0.8,4.2,1,6.3,0.9c1.2-0.1,2.2-0.5,3.1-1.4
		c0.1,0.1,0.2,0.2,0.3,0.3c1.3,2.3,2,4.7,2.6,7.2C72.1,176.1,71.9,176.5,71.6,176.9z"/>
	<path class="st1" d="M68.1,166.5c0.2,0.8-0.1,1.4-0.8,1.7c-0.3,0.1-0.7,0.3-1,0.4c-2.3,0.2-4.5-0.1-6.5-1.1c-0.9-0.5-1-0.7-0.6-1.9
		C62,166.9,65,166.8,68.1,166.5"/>
	<path class="st2" d="M59.4,161.2c2.6,1.1,5.3,1.7,8,1.8c0.2,0,0.5,0,0.7,0c0.4,0,0.5,0.2,0.4,0.5c-0.1,0.5-0.1,1-0.2,1.4
		c0,0.2-0.2,0.3-0.4,0.4c-0.2,0.1-0.4,0.2-0.7,0.2c-2.4,0.2-4.9,0.3-7.2-0.7c-1-0.4-1.1-0.6-1-1.7C59.2,162.5,59.3,161.9,59.4,161.2
		"/>
	<path class="st1" d="M59.9,157.5c0.9,0.3,1.6,0.6,2.4,0.8c1.3,0.2,2.7,0.4,4,0.5c0.8,0.1,1.5,0.2,2.3,0.2c0.4,0,0.6,0.2,0.6,0.6
		c-0.1,0.7-0.2,1.3-0.2,2c0,0.3-0.3,0.5-0.6,0.5c-1.1,0-2.2,0-3.3-0.2c-1.2-0.2-2.3-0.5-3.5-0.8c-0.2-0.1-0.5-0.1-0.7-0.2
		c-1.1-0.5-1.3-0.9-1.2-2.1C59.7,158.3,59.8,157.9,59.9,157.5"/>
	<path class="st2" d="M60.4,155c2.7,0.3,5.4,0.6,8.1,0.9c0.2,0,0.4,0,0.6,0.1c0.2,0.1,0.4,0.3,0.4,0.5c-0.1,1.6,0,1.6-1.4,1.5
		c-1.9-0.2-3.9-0.1-5.8-0.7c-0.3-0.1-0.7-0.2-1-0.3C59.8,156.5,59.8,156.3,60.4,155"/>
	<path class="st3" d="M59.6,168.7c2.1,0.8,4.2,1,6.3,0.9c1.2-0.1,2.2-0.5,3.1-1.4c0.1,0.1,0.2,0.2,0.3,0.3c1.3,2.3,2,4.7,2.6,7.2
		c0.1,0.5-0.1,0.9-0.4,1.3c-1.7,2.5-4.2,3.7-7,4.4c-0.7,0.2-1.6,0.1-2.4,0c-0.8-0.1-1.4-0.7-1.8-1.4c-0.4-0.8-0.8-1.6-1.2-2.4
		c-0.4-1-1.1-1.9-1.8-2.6c-1.3-1.3-2.6-2.5-4.2-3.3c-0.6-0.3-1.2-0.5-1.9-0.8c0.7-0.4,1.4-0.7,2-1.1c0.5-0.3,0.8,0,1.1,0.3
		c1.3,1.1,2.5,2.3,3.8,3.5c0.4,0.4,0.8,0.7,1.4,0.7c0.9,0,1.4-0.4,1.7-1.2c0.2-0.7,0.1-1.3-0.3-2c-0.2-0.4-0.5-0.8-0.8-1.2
		C60.1,169.4,59.9,169.1,59.6,168.7"/>
	<path class="st4" d="M71.8,178.8c-0.1,1.4-0.5,2.5-1.6,3.2c-1.1,0.7-2.2,1.4-3.4,1.8c-2.4,1-4.9,1.5-7.6,1.4
		c-2.1-0.1-4.2-0.1-6.3-0.3c-2.2-0.2-4.3-1-6.1-2.2c-1.1-0.7-1.7-1.8-1.6-3c0.4-2.9,1.5-5.4,3.8-7.4c0.5-0.4,1-0.6,1.8-0.4
		c1.6,0.4,3,1.2,4.2,2.2c0.8,0.6,1.5,1.4,2.1,2.1c0.4,0.5,0.8,1.1,1.1,1.7c0.4,0.8,0.8,1.7,1.2,2.5c0.8,1.4,1.9,2.2,3.6,2.2
		c3.1,0,5.8-1,8.1-3.1C71.3,179.3,71.5,179.1,71.8,178.8"/>
	<path class="st4" d="M54.7,168.9c0.8-0.2,1.4-0.4,2.1-0.6c0.5-0.2,1,0,1.3,0.4c0.8,1,1.5,2,2.2,3c0.1,0.2,0.2,0.4,0.2,0.6
		c-0.1,0.3-0.2,0.7-0.4,0.9c-0.3,0.3-0.7,0.1-0.9-0.2c-0.3-0.3-0.6-0.7-0.9-0.9C57,171,55.9,170,54.7,168.9"/>
</g>
<g id="PiernaIzq">
	<path id="Linea_2_" class="st0" d="M77.2,175.9c-0.3,2,0,4.2,1.2,6c0.4,0.6,1,1,1.6,1.4c1.7,1.2,3.7,1.9,5.7,2.5
		c1.3,0.4,2.7,0.6,4,0.5c2.6,0,5.2,0.1,7.8-0.3c2.5-0.3,4.9-1.2,7-2.5c1.2-0.8,1.8-2,1.9-3.4c0.1-1.9-0.6-3.6-1.4-5.3
		c-0.8-1.6-2-2.9-3.4-4c-0.4-0.3-0.8-0.4-1.3-0.7c-1.2-0.7-2.4-1.4-3.7-2.1c-1.1-0.6-2.3-1-3.5-1.1c-0.5,0-0.7-0.1-0.7-0.7
		c-0.2-2.8-0.5-5.6-0.8-8.5c-0.1-0.8-0.3-1.7-0.4-2.5c-0.1-0.4-0.5-1.3-0.7-1.7c-1.7,0.4-3.5,0.7-5.3,0.8c-1.8,0.2-3.6,0.3-5.4,0.4
		c0,0.4,0.2,1.5,0.3,2.2c0.3,2.9,0.7,5.9,1,8.8c0,0.4,0,0.6-0.3,0.8c-0.4,0.3-0.7,0.7-0.9,1.1C78.7,170.4,77.6,173.1,77.2,175.9z
		 M89.4,157c-0.3,0.1-0.7,0.2-1,0.3c-1.9,0.6-3.9,0.5-5.8,0.7c-1.4,0.1-1.3,0.2-1.4-1.5c0-0.2,0.2-0.4,0.4-0.5
		c0.2-0.1,0.4-0.1,0.6-0.1c2.7-0.3,5.4-0.6,8.1-0.9C90.7,156.3,90.7,156.5,89.4,157z M89.7,160.8c-0.2,0.1-0.4,0.2-0.7,0.2
		c-1.2,0.3-2.3,0.6-3.5,0.8c-1.1,0.2-2.2,0.1-3.3,0.2c-0.3,0-0.5-0.1-0.6-0.5c-0.1-0.7-0.2-1.3-0.2-2c0-0.4,0.2-0.6,0.5-0.6
		c0.8,0,1.5-0.1,2.3-0.2c1.3-0.2,2.7-0.3,4-0.5c0.8-0.1,1.5-0.5,2.4-0.8c0.1,0.5,0.2,0.9,0.3,1.2C91.1,159.9,90.9,160.3,89.7,160.8z
		 M90.4,164.9c-2.3,1-4.7,0.9-7.2,0.7c-0.2,0-0.5-0.1-0.7-0.2c-0.2-0.1-0.3-0.3-0.4-0.4c-0.1-0.5-0.2-0.9-0.2-1.4
		c0-0.3,0.1-0.5,0.4-0.5c0.2,0,0.5,0,0.7,0c2.8,0,5.4-0.7,8-1.8c0.1,0.7,0.2,1.3,0.3,2C91.5,164.3,91.4,164.5,90.4,164.9z
		 M90.7,167.4c-2,1.1-4.2,1.3-6.5,1.1c-0.3,0-0.7-0.2-1-0.4c-0.7-0.3-1-0.8-0.8-1.7c3.1,0.4,6.1,0.4,8.9-1
		C91.7,166.6,91.7,166.9,90.7,167.4z M95.9,168.9c-1.3,1.1-2.4,2.1-3.4,3c-0.3,0.3-0.6,0.6-0.9,0.9c-0.3,0.3-0.6,0.5-0.9,0.2
		c-0.2-0.2-0.3-0.6-0.4-0.9c0-0.2,0.1-0.4,0.2-0.6c0.7-1,1.4-2,2.2-3c0.3-0.4,0.8-0.5,1.3-0.4C94.4,168.5,95.1,168.7,95.9,168.9z
		 M78.7,178.8c0.3,0.3,0.5,0.5,0.7,0.7c2.3,2.1,5,3.1,8.1,3.1c1.7,0,2.8-0.8,3.6-2.2c0.4-0.8,0.8-1.7,1.2-2.5
		c0.3-0.6,0.6-1.2,1.1-1.7c0.6-0.8,1.3-1.5,2.1-2.1c1.3-1,2.6-1.8,4.2-2.2c0.7-0.2,1.2,0,1.8,0.4c2.3,1.9,3.4,4.5,3.8,7.4
		c0.2,1.3-0.5,2.4-1.6,3c-1.9,1.2-3.9,2-6.1,2.2c-2.1,0.1-4.2,0.1-6.3,0.3c-2.7,0.2-5.2-0.4-7.6-1.4c-1.2-0.5-2.3-1.1-3.4-1.8
		C79.2,181.3,78.8,180.2,78.7,178.8z M78.6,175.6c0.6-2.5,1.4-4.9,2.6-7.2c0.1-0.1,0.2-0.2,0.3-0.3c0.9,0.9,1.9,1.4,3.1,1.4
		c2.1,0.1,4.2-0.1,6.3-0.9c-0.2,0.4-0.5,0.7-0.7,1.1c-0.3,0.4-0.5,0.8-0.8,1.2c-0.4,0.6-0.5,1.3-0.3,2c0.3,0.9,0.8,1.2,1.7,1.2
		c0.6,0,1-0.3,1.4-0.7c1.2-1.2,2.5-2.3,3.8-3.5c0.3-0.3,0.6-0.5,1.1-0.3c0.6,0.4,1.3,0.7,2,1.1c-0.7,0.3-1.3,0.6-1.9,0.8
		c-1.7,0.7-3,2-4.2,3.3c-0.8,0.8-1.4,1.6-1.8,2.6c-0.4,0.8-0.8,1.6-1.2,2.4c-0.4,0.7-1,1.3-1.8,1.4c-0.8,0.1-1.6,0.2-2.4,0
		c-2.8-0.7-5.3-1.9-7-4.4C78.7,176.5,78.4,176.1,78.6,175.6z"/>
	<path class="st1" d="M82.3,166.5c3.1,0.3,6.1,0.4,8.9-1c0.4,1.1,0.4,1.4-0.6,1.9c-2,1-4.2,1.3-6.4,1.1c-0.3,0-0.7-0.2-1-0.3
		C82.5,167.9,82.1,167.4,82.3,166.5"/>
	<path class="st2" d="M91.1,161.2c0.1,0.8,0.2,1.6,0.3,2.4c0.1,0.6-0.2,1-0.7,1.2c-1.1,0.6-2.3,0.8-3.6,0.9c-1.1,0.1-2.2,0.1-3.3,0
		c-1.5-0.1-1.8-0.5-1.9-2c0-0.7,0-0.7,0.6-0.7c0.6,0,1.1,0,1.7-0.1C86.5,162.7,88.8,162.2,91.1,161.2"/>
	<path class="st1" d="M90.6,157.4c0.1,0.7,0.2,1.4,0.3,2.1c0,0.2-0.1,0.6-0.3,0.7c-0.4,0.3-0.8,0.6-1.3,0.8
		c-2.2,0.5-4.3,1.2-6.6,1.1c-0.2,0-0.4,0-0.6,0c-0.2-0.1-0.5-0.2-0.5-0.4c-0.1-0.7-0.2-1.4-0.3-2.1c0-0.4,0.2-0.5,0.5-0.5
		c1.6-0.1,3.2-0.2,4.7-0.4c1.1-0.2,2.2-0.5,3.2-0.8C90.1,157.6,90.3,157.5,90.6,157.4"/>
	<path class="st2" d="M90.1,155c0.1,0.2,0.2,0.4,0.2,0.7c0.2,0.7,0.1,0.8-0.6,1.1c-1.3,0.5-2.7,0.9-4.2,1c-1,0-2.1,0.2-3.1,0.2
		c-0.3,0-0.6,0-0.8,0c-0.3,0-0.5-0.2-0.5-0.5c-0.1-0.4-0.1-0.9-0.2-1.4C84,155.7,87,155.4,90.1,155"/>
	<path class="st3" d="M90.9,168.6c-0.5,0.8-1,1.6-1.5,2.3c-0.3,0.5-0.4,1.1-0.3,1.7c0.1,0.6,0.4,1.2,1,1.4c0.7,0.2,1.4,0.2,1.9-0.3
		c0.6-0.6,1.1-1.2,1.7-1.7c0.8-0.7,1.6-1.4,2.3-2.1c0.4-0.4,0.9-0.5,1.4-0.1c0.5,0.3,1.1,0.6,1.7,0.9c-1.1,0.6-2.2,1-3.2,1.7
		c-2,1.4-3.8,3-4.8,5.4c-0.3,0.8-0.8,1.5-1.2,2.2c-0.4,0.8-1.1,1.2-2,1.3c-1,0.1-1.9,0.1-2.8-0.2c-1.3-0.5-2.7-0.9-3.8-1.7
		c-1.1-0.8-1.8-1.8-2.6-2.8c-0.2-0.2-0.2-0.7-0.2-1c0.6-2.5,1.4-5,2.6-7.3c0-0.1,0.1-0.1,0.2-0.2c1,1.1,2.2,1.5,3.7,1.5
		c1.9,0,3.7-0.3,5.4-0.9C90.6,168.6,90.7,168.6,90.9,168.6"/>
	<path class="st4" d="M78.7,178.7c1.7,2.1,4.1,3,6.5,3.6c1.1,0.3,2.3,0.2,3.4,0c1-0.1,1.7-0.8,2.2-1.7c0.5-0.9,1-1.8,1.4-2.7
		c0.4-0.9,0.9-1.7,1.6-2.4c1.2-1.2,2.5-2.4,4-3.1c2.2-1.1,3.2-0.9,4.8,0.9c1.5,1.8,2.4,3.9,2.6,6.2c0.2,1.3-0.5,2.4-1.6,3.1
		c-2.4,1.5-5,2.3-7.8,2.3c-2.5,0.1-4.9,0-7.4,0c-0.1,0-0.2,0-0.4,0c-2.9-0.5-5.6-1.4-7.9-3.2C79.2,181.2,78.9,180.4,78.7,178.7"/>
	<path class="st4" d="M95.8,168.9c-1.1,1-2.1,1.8-3,2.6c-0.4,0.4-0.8,0.8-1.3,1.3c-0.3,0.3-0.6,0.5-1.1,0.3c-0.4-0.2-0.5-0.6-0.4-1
		c0-0.1,0.1-0.2,0.1-0.3c0.7-1,1.5-2.1,2.2-3.1c0.3-0.4,0.8-0.5,1.3-0.4C94.4,168.5,95,168.7,95.8,168.9"/>
</g>
<g id="Short">
	<path id="Linea_4_" class="st0" d="M78.8,156.1c0.3,0,0.6,0,0.8,0c0.2,0,1.5-0.1,2.1-0.1c0.2,0,0.4,0,0.5,0c2.3-0.3,4.6-0.6,7-0.8
		c0.4-0.1,1.8-0.3,1.8-0.5c0.5-0.1,0.8-0.2,1.1-0.3c0.5-0.2,1.7-0.4,1.9-0.6c0-0.1,0.1-0.1,0.2-0.2c0.5-0.3,0.9-0.6,1.4-1
		c0.9-0.7,0.4-1.6,0.3-2.4c-0.1-0.7-0.3-1.4-1.2-1.4c-0.5,0-0.6-0.3-0.6-0.7c-0.5-3.4-1.3-6.7-2.3-10c0-0.2-0.1-0.3,0-0.4
		c-0.3-0.4-0.5-0.8-0.6-1.2c-0.6,0.3-1.1,0.5-1.7,0.7c-2.1,0.5-4.1,0.8-6.3,1c-1.6,0.1-3.1,0.2-4.7,0.4c-1.1,0.1-2.2,0.2-3.6,0.3
		c-1.8-0.2-3.9-0.4-6.1-0.5c-1.7-0.2-3.3-0.3-5-0.5c-0.9-0.1-1.9-0.4-2.8-0.6c-0.2,0-0.5-0.1-0.7-0.2c-0.4-0.2-0.8-0.3-1-0.4
		c-0.2,0.4-0.4,0.7-0.6,1c0,0.1,0,0.3-0.1,0.5c-1,3.1-1.7,6.2-2.2,9.4c0,0.2-0.1,0.4-0.1,0.6c-0.1,0.3-0.2,0.6-0.6,0.6
		c-0.7,0-1,0.5-1.1,1.1c-0.2,0.7-0.3,1.4-0.4,2.2c-0.1-0.1,1.7,1.5,1.9,1.6c0.9,0.3,1.7,0.6,2.6,0.9c0.5,0.2,1.4,0.6,1.7,0.6
		c0,0,0,0,0,0c2.7,0.3,5.4,0.6,8.1,0.9c0.1,0,0.3,0,0.4,0.1c0.2,0,0.4,0,0.7,0c0.5,0,0.9,0.1,1.3,0.2c0.2,0,0.4,0,0.7,0
		c0.2,0,0.4,0,0.6,0c1,0.1,1.8-0.4,2.4-1.1c0.2-0.2,0.4-0.5,0.6-0.8C76.1,155.6,77.2,156.2,78.8,156.1z M90.9,138
		c0.1,0.3,0.2,0.7,0.3,1c0.3,1.1,0.6,2.2,0.8,3.3c0.1,0.6,0,0.8-0.6,0.9c-0.5,0-1,0.1-1.4-0.1c-2-0.7-3.9-1.8-5.1-3.6
		c0-0.1-0.1-0.1-0.1-0.3C86.9,138.8,88.8,138.4,90.9,138z M58.4,142.3c0.3-1.5,0.7-2.9,1.1-4.4c2.2,0.4,4.1,0.8,6.1,1.2
		c-0.6,1.1-1.5,1.9-2.5,2.6c-0.7,0.4-1.5,0.8-2.2,1.1c-0.6,0.2-1.2,0.2-1.9,0.2C58.4,143.1,58.3,142.9,58.4,142.3z M72,155.1
		c-2.3-0.1-4.5-0.3-6.8-0.4c-2.2-0.2-4.4-0.5-6.6-1.2c-0.9-0.3-1.8-0.8-2.7-1.2c-0.3-0.2-0.8-0.4-0.7-0.9c0.1-0.5,0.2-1.1,0.4-1.6
		c0-0.1,0.4-0.2,0.5-0.1c0.2,0,0.4,0.2,0.6,0.3c0.7,0.4,1.5,0.8,2.3,1.1c3.7,1.5,7.6,1.8,11.5,1.7c1.1,0,2.2-0.3,3.3-0.5
		c0.1,0,0.3,0,0.4-0.1C74.6,153.9,73.7,155.1,72,155.1z M75.5,151.2c-0.1,0.1-0.3,0.1-0.4,0c-0.5-0.3-0.4-0.7-0.4-1.2
		c0.2-1,0.3-1.9,0.5-3.1c0.2,1.1,0.4,2,0.5,3C75.8,150.4,75.9,150.9,75.5,151.2z M73.6,146c-0.1,0-0.3,0.2-0.3,0.3
		c0,0.1,0.1,0.3,0.3,0.3c0.6,0.2,0.6,0.5,0.5,1c-0.2,0.9-0.3,1.8-0.4,2.7c-0.1,0.5-0.3,0.7-0.8,0.8c-3.2,0.7-6.4,0.4-9.5-0.1
		c-1.7-0.3-3.3-0.9-4.9-1.5c-1.3-0.5-1.3-0.6-1.1-2c0.2-1.1,0.4-2.2,0.6-3.3c0.1-0.4,0.2-0.7,0.7-0.5c1,0.3,2,0.1,2.9-0.3
		c2.2-0.9,4-2.1,5.2-4.2c0.2-0.3,0.3-0.4,0.7-0.4c0.4,0.1,0.8,0.1,1.2,0.1c3.3,0.4,6.5,0.6,9.8,0.3c1.5-0.1,3-0.2,4.5-0.4
		c0.4,0,0.6,0.1,0.8,0.4c1.4,2.3,3.5,3.6,5.9,4.4c0.7,0.2,1.4,0.2,2.1,0.1c0.6-0.1,0.7,0.1,0.8,0.5c0.2,1.3,0.5,2.6,0.7,3.9
		c0.1,0.4,0,0.7-0.4,0.9c-0.2,0.1-0.3,0.2-0.5,0.3c-1.6,0.6-3.1,1.3-4.8,1.5c-2,0.2-4,0.5-5.9,0.7c-1.4-0.2-2.8-0.4-4.1-0.6
		c-0.5-0.1-0.7-0.3-0.8-0.8c-0.1-0.9-0.3-1.9-0.5-2.8c-0.1-0.4-0.1-0.8,0.4-1c0.1,0,0.3-0.3,0.3-0.4c0-0.1-0.2-0.2-0.3-0.3
		C75.7,145.7,74.7,145.7,73.6,146z M76.2,152.1c4.2,1.1,8.4,0.7,12.5-0.2c1.7-0.4,3.5-1,5-2c0.1-0.1,0.3-0.2,0.4-0.2
		c0.5-0.2,0.7-0.1,0.9,0.4c0.1,0.2,0.1,0.5,0.2,0.7c0.2,0.6,0,1.1-0.6,1.4c-0.9,0.4-1.8,0.9-2.7,1.2c-3.2,1-6.5,1.3-9.8,1.5
		c-1.2,0.1-2.4,0.2-3.6,0.2C76.8,155.1,75.9,153.9,76.2,152.1z"/>
	<path class="st5" d="M81.7,151.8c-1.4-0.2-2.8-0.4-4.1-0.6c-0.5-0.1-0.7-0.3-0.8-0.8c-0.1-0.9-0.3-1.9-0.5-2.8
		c-0.1-0.4-0.1-0.8,0.4-1c0.1,0,0.3-0.3,0.3-0.4c0-0.1-0.2-0.2-0.3-0.3c-1.1-0.3-2.1-0.3-3.2,0c-0.1,0-0.3,0.2-0.3,0.3
		c0,0.1,0.1,0.3,0.3,0.3c0.6,0.2,0.6,0.6,0.5,1c-0.2,0.9-0.3,1.8-0.4,2.7c-0.1,0.5-0.3,0.7-0.8,0.8c-3.2,0.7-6.4,0.4-9.5-0.1
		c-1.7-0.3-3.3-0.9-4.9-1.5c-1.3-0.5-1.3-0.6-1.1-2c0.2-1.1,0.4-2.2,0.6-3.3c0.1-0.4,0.2-0.7,0.7-0.5c1,0.3,2,0.1,2.9-0.3
		c2.2-0.9,4-2.1,5.2-4.2c0.2-0.3,0.3-0.4,0.7-0.4c0.4,0.1,0.8,0.1,1.2,0.1c3.3,0.4,6.5,0.6,9.8,0.3c1.5-0.1,3-0.2,4.5-0.4
		c0.4,0,0.6,0.1,0.8,0.4c1.4,2.3,3.5,3.6,5.9,4.4c0.7,0.2,1.4,0.2,2.1,0.1c0.6-0.1,0.7,0.1,0.8,0.5c0.2,1.3,0.5,2.6,0.7,3.9
		c0.1,0.4,0,0.7-0.4,0.9c-0.2,0.1-0.3,0.2-0.5,0.3c-1.6,0.6-3.1,1.3-4.8,1.5C85.6,151.3,83.7,151.6,81.7,151.8"/>
	<path id="Der" class="st6" d="M74.3,152.1c0.4,1.8-0.5,3-2.3,3c-2.3-0.1-4.5-0.3-6.8-0.4c-2.2-0.2-4.4-0.5-6.6-1.2
		c-0.9-0.3-1.8-0.8-2.7-1.2c-0.3-0.2-0.8-0.4-0.7-0.9c0.1-0.5,0.2-1.1,0.4-1.6c0-0.1,0.4-0.2,0.5-0.1c0.2,0,0.4,0.2,0.6,0.3
		c0.8,0.4,1.5,0.8,2.3,1.1c3.7,1.5,7.6,1.8,11.5,1.7c1.1,0,2.2-0.3,3.3-0.5C74,152.1,74.1,152.1,74.3,152.1"/>
	<path id="Izq" class="st6" d="M76.2,152.1c4.2,1.1,8.4,0.7,12.5-0.2c1.7-0.4,3.5-1,5-2c0.1-0.1,0.3-0.2,0.4-0.2
		c0.5-0.2,0.7-0.1,0.9,0.4c0.1,0.2,0.1,0.5,0.2,0.7c0.2,0.6,0,1.1-0.6,1.4c-0.9,0.4-1.8,0.9-2.7,1.2c-3.2,1-6.5,1.3-9.8,1.5
		c-1.2,0.1-2.4,0.2-3.6,0.2C76.8,155.1,75.9,153.9,76.2,152.1"/>
	<path id="BolsaDer" class="st6" d="M59.5,137.9c2.2,0.4,4.1,0.8,6.1,1.2c-0.6,1.1-1.5,1.9-2.5,2.6c-0.7,0.4-1.5,0.8-2.2,1.1
		c-0.6,0.2-1.2,0.2-1.9,0.2c-0.6,0-0.7-0.2-0.6-0.8C58.7,140.9,59.1,139.4,59.5,137.9"/>
	<path id="BolsaIzq" class="st6" d="M84.9,139.2c2-0.4,4-0.8,6.1-1.2c0.1,0.3,0.2,0.7,0.3,1c0.3,1.1,0.6,2.2,0.8,3.3
		c0.1,0.6,0,0.8-0.6,0.9c-0.5,0-1,0.1-1.4-0.1c-2-0.7-3.9-1.8-5.1-3.6C84.9,139.3,84.9,139.3,84.9,139.2"/>
</g>
<g id="BrazoDer">
	<path id="Linea" class="st0" d="M59.9,127.4c-0.1,0-0.3,0-0.4,0.1c-0.3,0.2-0.3,0.7-0.8,0.6c-0.7-0.2-1.5-0.2-2.1-0.9
		c-0.4-0.6-0.3-1.4,0.4-1.7c0.3-0.2,0.6-0.2,0.9-0.4c0.4-0.2,0.4-0.8-0.1-1c-0.3-0.1-0.6-0.1-0.9-0.2c-0.7-0.2-1.6-0.3-2.3-0.6
		c-0.5,0.2-0.8,0.5-1.3,0.6c-0.5,0.3-0.9,0.5-1.4,0.7c-2.6,1.4-5.3,2.8-7.9,4.3c-0.1,0-0.1,0.1-0.2,0.1c-1.7,1.4-3.8,1.6-5.8,1.8
		c-1.9,0.2-3.8,0.5-5.7,0.8c-1.2,0.2-2,0.9-2.4,2c-0.2,0.5,0,1.1,0,1.7c-0.3,0.2-0.7,0.5-1.1,0.9c-1,0.9-1.2,2.4,0,3.3
		c0.4,0.3,0.4,0.6,0.4,1c-0.3,2,1.6,3,3.1,2.6c0.4-0.1,0.6,0,0.9,0.3c1.1,1.1,2.3,1.2,3.5,0.3c0.7-0.5,1.3-1.2,1.9-1.9
		c0.7-0.8,1.3-1.6,2-2.3c0.5-0.5,0.8-0.4,0.9,0.3c0.1,0.6,0.2,1.3,0.2,1.9c0,2,2.1,3.5,4.3,2.8c0.9-0.3,1.5-1.1,1.5-2.1
		c0-0.6,0-1.3-0.2-1.9c-0.4-1-0.4-2.1-0.5-3.2c-0.1-0.4,0.1-0.7,0.5-1c2.2-1.1,4.5-2.3,6.7-3.4c0.7-0.4,1.4-0.7,2.2-1
		c0.6-0.3,1.3-0.6,2-1c0,0,1.4-0.9,1.5-1.1c0.3-0.7,0.3-1.5,0.3-2.2C60.1,127.7,60,127.5,59.9,127.4z M57.6,130.2
		c-2.5,1.3-5,2.5-7.4,3.8c-1.4,0.7-2.7,1.6-3.9,2.5c-0.2,0.1-0.3,0.5-0.3,0.7c0.2,1.3,0.1,2.5,0.6,3.8c0.2,0.5,0.2,1.1,0.2,1.6
		c0,0.7-0.5,1.2-1.3,1.2c-0.7,0.1-1.4,0.1-2-0.5c-0.5-0.4-0.7-0.8-0.7-1.4c0-0.7-0.1-1.3-0.2-2c0-0.2-0.1-0.4-0.1-0.6
		c-0.4-1.3-1-1.5-2.1-0.7c-0.4,0.3-0.8,0.7-1.2,1.2c-0.7,0.8-1.4,1.7-2.1,2.5c-0.3,0.4-0.8,0.7-1.2,0.9c-0.3,0.2-0.8,0.2-1.1,0.1
		c-0.7-0.2-0.8-0.5-0.5-1.2c0.4-1,1-1.8,1.8-2.5c0.4-0.4,0.8-0.8,1.2-1.1c-0.1-0.1-0.1-0.2-0.2-0.3c-1.1,0.3-2,1-2.7,1.9
		c-0.3,0.5-0.6,1-0.9,1.5c-0.4,0.6-1,0.9-1.6,0.7c-0.6-0.2-1.1-0.4-1.2-1c-0.2-0.6,0.1-1.2,0.6-1.6c0.9-0.6,1.8-1.2,2.6-1.9
		c0.6-0.4,1.3-0.8,2.1-1.4c-0.5,0-0.7-0.1-0.9,0c-0.9,0.4-1.8,0.9-2.7,1.3c-0.6,0.3-1.2,0.7-1.7,1.1c-0.3,0.2-0.5,0.3-0.8,0
		c-0.3-0.3-0.6-0.6-0.4-1.1c0.3-0.7,0.8-1.1,1.4-1.4c1-0.5,2-0.9,2.9-1.3c0.5-0.2,1.1-0.5,1.6-0.7c-0.1-0.5-0.4-0.4-0.7-0.4
		c-0.9,0.2-1.8,0.5-2.6,0.8c-0.3,0.1-0.6,0.2-0.7-0.1c-0.1-0.2,0-0.6,0.1-0.8c0.3-0.5,0.8-0.9,1.4-1c2.6-0.4,5.1-0.9,7.7-1.2
		c1-0.1,1.8-0.5,2.6-0.9c3.5-1.9,7.1-3.7,10.6-5.7c0.7-0.4,1.3-0.5,2.1,0c-0.1,0.2-0.2,0.5-0.2,0.7c-0.4,1.3,0,2.3,1.2,2.9
		c0.6,0.3,1.3,0.5,2.1,0.7C58.5,129.8,58,130,57.6,130.2z"/>
	<path class="st7" d="M36.8,138.1c-1.1,0.3-2,1-2.7,1.9c-0.4,0.5-0.6,1-0.9,1.5c-0.4,0.6-1,0.9-1.6,0.7c-0.6-0.2-1.1-0.4-1.2-1
		c-0.2-0.6,0.1-1.2,0.6-1.6c0.9-0.6,1.8-1.2,2.6-1.9c0.6-0.4,1.3-0.8,2.1-1.4c-0.5,0-0.7-0.1-0.9,0c-0.9,0.4-1.8,0.9-2.7,1.3
		c-0.6,0.3-1.2,0.7-1.7,1.1c-0.3,0.2-0.5,0.3-0.8,0c-0.3-0.3-0.6-0.6-0.4-1.1c0.3-0.7,0.8-1.1,1.4-1.4c1-0.5,2-0.9,2.9-1.3
		c0.5-0.2,1.1-0.5,1.6-0.7c-0.1-0.5-0.4-0.4-0.6-0.4c-0.9,0.2-1.8,0.5-2.6,0.8c-0.3,0.1-0.6,0.2-0.7-0.1c-0.1-0.2,0-0.6,0.1-0.8
		c0.3-0.5,0.8-0.9,1.4-1c2.6-0.4,5.1-0.9,7.7-1.2c1-0.1,1.8-0.5,2.6-0.9c3.5-1.9,7.1-3.7,10.6-5.7c0.7-0.4,1.3-0.5,2.1,0
		c-0.1,0.2-0.2,0.5-0.2,0.7c-0.4,1.3,0,2.3,1.2,2.9c0.6,0.3,1.3,0.5,2.1,0.7c-0.2,0.5-0.7,0.6-1.1,0.8c-2.5,1.3-5,2.5-7.4,3.8
		c-1.4,0.7-2.6,1.6-3.9,2.5c-0.2,0.1-0.3,0.5-0.3,0.7c0.2,1.3,0.1,2.5,0.6,3.8c0.2,0.5,0.2,1.1,0.2,1.6c0,0.7-0.5,1.2-1.3,1.2
		c-0.7,0.1-1.4,0.1-2-0.5c-0.5-0.4-0.7-0.8-0.7-1.4c0-0.7-0.1-1.3-0.2-2c0-0.2-0.1-0.4-0.1-0.6c-0.4-1.3-1-1.5-2.1-0.7
		c-0.4,0.3-0.8,0.7-1.2,1.2c-0.7,0.8-1.4,1.7-2.1,2.5c-0.3,0.4-0.8,0.7-1.2,0.9c-0.3,0.1-0.8,0.2-1.1,0.1c-0.7-0.2-0.8-0.5-0.5-1.2
		c0.4-1,1-1.8,1.8-2.5c0.4-0.4,0.8-0.8,1.2-1.1C37,138.3,36.9,138.2,36.8,138.1"/>
</g>
<g id="BrazoIzq">
	<path id="Linea_1_" class="st0" d="M90.4,127.8c0.1,0.7,0.1,1.5,0.3,2.2c0.1,0.2,1.5,1.1,1.5,1.1c0.8,0.4,1.4,0.7,2,1
		c0.7,0.3,1.4,0.7,2.2,1c2.2,1.1,4.5,2.3,6.7,3.4c0.4,0.2,0.6,0.5,0.5,1c-0.2,1.1-0.1,2.1-0.5,3.2c-0.2,0.6-0.2,1.3-0.2,1.9
		c0,1,0.6,1.8,1.5,2.1c2.2,0.7,4.4-0.8,4.3-2.8c0-0.6,0.1-1.3,0.2-1.9c0.1-0.8,0.4-0.9,0.9-0.3c0.7,0.7,1.3,1.6,2,2.3
		c0.6,0.6,1.2,1.3,1.9,1.9c1.2,0.9,2.5,0.8,3.5-0.3c0.3-0.3,0.5-0.4,0.9-0.3c1.5,0.4,3.3-0.6,3.1-2.6c-0.1-0.4,0-0.7,0.4-1
		c1.2-1,1-2.4,0-3.3c-0.4-0.4-0.8-0.7-1.1-0.9c0-0.7,0.2-1.3,0-1.7c-0.4-1-1.2-1.8-2.4-2c-1.9-0.3-3.8-0.6-5.7-0.8
		c-2.1-0.2-4.1-0.4-5.8-1.8c-0.1,0-0.1-0.1-0.2-0.1c-2.6-1.4-5.3-2.8-7.9-4.3c-0.4-0.2-0.9-0.5-1.4-0.7c-0.6-0.2-0.8-0.4-1.3-0.6
		c-0.7,0.3-1.6,0.4-2.3,0.6c-0.3,0.1-0.6,0.1-0.9,0.2c-0.4,0.2-0.4,0.7-0.1,1c0.3,0.2,0.6,0.2,0.9,0.4c0.7,0.4,0.8,1.2,0.4,1.7
		c-0.5,0.6-1.3,0.7-2.1,0.9c-0.5,0.1-0.5-0.4-0.8-0.6c-0.1-0.1-0.3-0.2-0.4-0.1C90.5,127.5,90.4,127.7,90.4,127.8z M91.9,129.4
		c0.7-0.2,1.4-0.4,2.1-0.7c1.2-0.6,1.6-1.6,1.2-2.9c-0.1-0.3-0.2-0.5-0.2-0.7c0.7-0.5,1.3-0.4,2.1,0c3.5,1.9,7,3.8,10.6,5.7
		c0.8,0.4,1.6,0.8,2.6,0.9c2.6,0.2,5.1,0.8,7.7,1.2c0.6,0.1,1.1,0.4,1.4,1c0.1,0.2,0.2,0.5,0.1,0.8c-0.1,0.3-0.5,0.2-0.7,0.1
		c-0.9-0.3-1.8-0.5-2.6-0.8c-0.3-0.1-0.6-0.1-0.7,0.4c0.5,0.2,1.1,0.5,1.6,0.7c1,0.4,2,0.9,2.9,1.3c0.6,0.3,1.2,0.7,1.4,1.4
		c0.2,0.5-0.1,0.8-0.4,1.1c-0.3,0.3-0.6,0.2-0.8,0c-0.6-0.4-1.1-0.8-1.7-1.1c-0.9-0.5-1.8-0.9-2.7-1.3c-0.2-0.1-0.4,0-0.9,0
		c0.9,0.6,1.5,1,2.1,1.4c0.9,0.6,1.8,1.2,2.6,1.9c0.5,0.4,0.8,0.9,0.6,1.6c-0.2,0.6-0.6,0.9-1.2,1c-0.6,0.2-1.2-0.2-1.6-0.7
		c-0.3-0.5-0.6-1-0.9-1.5c-0.7-1-1.6-1.6-2.7-1.9c-0.1,0.1-0.1,0.2-0.2,0.3c0.4,0.4,0.8,0.8,1.2,1.1c0.8,0.7,1.4,1.6,1.8,2.5
		c0.3,0.6,0.1,1-0.5,1.2c-0.4,0.1-0.8,0.1-1.1-0.1c-0.5-0.2-0.9-0.6-1.2-0.9c-0.7-0.8-1.4-1.7-2.1-2.5c-0.4-0.4-0.8-0.8-1.2-1.2
		c-1.1-0.8-1.7-0.6-2.1,0.7c-0.1,0.2-0.1,0.4-0.1,0.6c-0.1,0.7-0.2,1.3-0.2,2c0,0.6-0.3,1-0.7,1.4c-0.6,0.5-1.3,0.5-2,0.5
		c-0.7-0.1-1.2-0.5-1.3-1.2c0-0.5,0-1.1,0.2-1.6c0.5-1.2,0.5-2.5,0.6-3.8c0-0.2-0.1-0.6-0.3-0.7c-1.3-0.9-2.6-1.7-3.9-2.5
		c-2.5-1.3-5-2.6-7.4-3.8C92.6,130,92.1,129.8,91.9,129.4z"/>
	<path class="st7" d="M115.2,134.2c0.6,0.3,1.2,0.5,1.7,0.8c1,0.5,2.1,0.9,3,1.4c0.5,0.3,0.8,0.7,1.2,1.1c0.3,0.3,0.2,0.7-0.1,1
		c-0.4,0.5-0.6,0.6-1.2,0.2c-1.1-0.7-2.3-1.4-3.4-2c-0.4-0.2-0.9-0.5-1.6-0.3c0.5,0.6,1.1,0.9,1.6,1.2c1,0.7,1.9,1.3,2.9,2
		c0.5,0.4,0.8,0.9,0.7,1.5c-0.2,0.7-0.7,1-1.3,1.1c-0.5,0.1-1.2-0.2-1.5-0.7c-0.3-0.5-0.5-1-0.9-1.4c-0.7-1-1.6-1.8-3-2.1
		c0.1,0.6,0.5,0.9,0.8,1.2c0.9,0.7,1.5,1.5,2,2.5c0.2,0.4,0.4,0.8,0,1.2c-0.4,0.4-0.9,0.6-1.4,0.3c-0.5-0.3-1-0.6-1.3-1
		c-0.8-0.9-1.5-1.8-2.3-2.7c-0.4-0.4-0.9-0.8-1.4-1.2c-0.7-0.5-1-0.4-1.4,0.4c-0.3,0.5-0.4,1.1-0.5,1.7c-0.1,0.4-0.1,0.9-0.1,1.3
		c0.1,1.4-1.5,2.6-3.2,2c-0.5-0.2-0.9-0.6-0.8-1.2c0-0.7,0.1-1.4,0.3-2c0.5-1.2,0.3-2.4,0.5-3.5c0-0.2-0.2-0.4-0.3-0.6
		c-2.4-1.6-4.8-3.1-7.5-4.2c-1.6-0.7-3-1.6-4.5-2.4c-0.2-0.1-0.3-0.2-0.5-0.4c0.6-0.2,1.1-0.3,1.6-0.4c1.6-0.6,2.2-1.6,1.7-3.3
		c0-0.2-0.1-0.4-0.2-0.6c0.7-0.5,1.2-0.5,2-0.1c3.8,2.1,7.7,4.2,11.6,6.3c0.2,0.1,0.5,0.3,0.8,0.3c2.9,0.2,5.7,0.7,8.5,1.2
		c0.8,0.1,1.3,0.6,1.7,1.2c0.1,0.1,0,0.4,0,0.5c-0.1,0.1-0.4,0.2-0.5,0.1c-0.9-0.2-1.8-0.5-2.6-0.8
		C115.8,133.8,115.5,133.7,115.2,134.2"/>
</g>
<g id="Torso">
	<path id="Torso_x5F_linea" class="st0" d="M92.2,131.7c0-0.1-0.3-2.2-0.5-2.3c0.6-0.2,1.1-0.3,1.6-0.4c1.6-0.6,2.2-1.6,1.7-3.3
		c0-0.2-0.1-0.4-0.2-0.6c0.7-0.5,1.8-0.7,2.3-1.1c0.2-0.4,0.4-0.7,0.6-1.1c0.7-1.8-0.2-3.2-2.1-3.4c-0.1,0-0.3,0-0.6-0.1
		c0.3-0.3,0.6-0.5,0.8-0.7c0.9-0.9,1.6-1.9,1.5-3.3c0-0.1,0-0.3,0-0.3c-0.1-0.2-0.2-0.4-0.3-0.6c-0.1-0.1-0.2-0.2-0.3-0.2
		c-0.3-0.2-0.5-0.4-0.8-0.6c-0.2,0-0.3,0.1-0.5,0.1c-0.4,0.1-0.9,0.2-1.3,0.3c-3,1.3-6.2,1.7-9.4,2.2c-2.9,0.5-5.9,0.8-8.8,0.8
		c-2.1,0-4.1-0.1-6.2-0.3c-3.8-0.3-7.5-0.9-11.2-1.8c-0.7-0.2-1.4-0.4-2-0.7c-0.6-0.2-1.2-0.4-1.8-0.5c-0.4-0.1-0.7-0.1-1.1-0.2
		c-0.1,0.1-0.2,0.2-0.4,0.3c-0.1,0.3-0.3,0.7-0.4,1c0.1,0.1,0.2,0.2,0.2,0.5c-0.1,1.5,0.7,2.7,1.8,3.6c0.1,0.1,0.2,0.2,0.4,0.3
		c0,0,0,0.1,0.1,0.2c-0.2,0-0.3,0-0.4,0c-1.9,0.1-2.9,1.7-2.1,3.4c0.1,0.3,0.3,0.6,0.6,1c0.6,0.3,1.5,0.6,2.3,1.1
		c-0.1,0.2-0.2,0.5-0.2,0.7c-0.4,1.3,0,2.3,1.2,2.9c0.6,0.3,1.3,0.5,2.1,0.7c-0.2,0.5-0.8,4.2-1,5.4c0,0.3-0.1,0.6-0.1,0.8
		c-0.1,0.6,0,1.2,0.7,1.5c0.2,0.1,0.4,0.3,0.7,0.4c0.6,0.2,1.2,0.4,1.7,0.7c1.9,0.4,3,0.6,4.8,1c0,0,1.6,0,1.9,0
		c0.4,0.1,0.8,0.1,1.2,0.1c3.3,0.4,6.5,0.6,9.8,0.3c1.5-0.1,3-0.2,4.5-0.4c0.2,0,1.3,0,1.7,0c0.1,0,0.1,0,0.2,0c0,0,0,0,0,0
		c2-0.4,4-0.8,6.1-1.2c0,0,0.9-0.7,1.2-0.8c0.8-0.4,0.9-1,0.8-1.8C92.6,134.1,92.4,132.9,92.2,131.7z M72.5,118.5
		c0.9,0,1.8,0.1,2.7,0.1c0.9,0,1.7-0.1,2.6-0.1c0.9-0.1,1.8-0.1,2.8-0.2c-0.3,1-1,1.4-1.7,1.8c-2.5,1.1-4.9,1.1-7.4,0
		c-0.7-0.3-1.4-0.8-1.8-1.7C70.7,118.2,71.6,118.5,72.5,118.5z M91.4,136.3c-0.7,0.3-1.3,0.6-2,0.8c-2.1,0.5-4.1,0.8-6.3,1
		c-1.6,0.1-3.1,0.2-4.7,0.4c-1.1,0.1-2.2,0.2-3.6,0.3c-1.8-0.2-3.9-0.4-6.1-0.5c-1.7-0.2-3.3-0.3-5-0.5c-0.9-0.1-1.9-0.4-2.8-0.6
		c-0.2,0-0.5-0.1-0.7-0.2c-1.8-0.7-1.8-0.7-1.5-2.5c0.2-1.5,0.4-2.9,1-4.3c0.3-0.7,0.3-1.5,0.3-2.2c0-0.1-0.1-0.3-0.2-0.4
		c-0.1,0-0.3,0-0.4,0.1c-0.3,0.2-0.3,0.7-0.8,0.6c-0.7-0.2-1.5-0.2-2.1-0.9c-0.4-0.6-0.3-1.4,0.4-1.7c0.3-0.2,0.6-0.2,0.9-0.4
		c0.4-0.2,0.4-0.8-0.1-1c-0.3-0.1-0.6-0.1-0.9-0.2c-0.8-0.2-1.6-0.5-2.4-0.7c-0.5-0.2-0.7-0.6-0.8-1.1c-0.2-1,0.2-1.4,1.2-1.5
		c0.7,0,1.4,0,2.2,0c0.2,0,0.4,0,0.6,0c0.4,0,1,0,1-0.6c0.1-0.6-0.5-0.6-0.9-0.7c-1.6-0.3-2.8-1.1-3.5-2.6c-0.1-0.2-0.2-0.4-0.2-0.6
		c-0.2-0.8,0-1,0.8-0.8c2,0.6,3.9,1.2,5.9,1.6c2.1,0.4,4.3,0.7,6.5,1c0.8,0.1,1.4,0.3,1.9,1.2c0.4,1,1.3,1.6,2.3,1.9
		c1.1,0.3,2.2,0.7,3.2,0.8c1.9,0,3.8-0.3,5.4-1.6c0.5-0.4,0.9-0.9,1.2-1.5c0.2-0.4,0.5-0.6,1-0.7c1.9-0.3,3.7-0.5,5.6-0.8
		c2.2-0.4,4.5-0.8,6.6-1.6c0.4-0.1,0.8-0.3,1.3-0.4c0.4-0.1,0.6,0.1,0.5,0.5c-0.3,1.7-1.4,2.8-3,3.3c-0.3,0.1-0.7,0.2-1.1,0.2
		c-0.3,0.1-0.7,0.2-0.7,0.6c0,0.5,0.4,0.6,0.7,0.6c0.3,0,0.6,0,1,0c0.6,0,1.3,0,1.9,0c0.6,0,1.2,0,1.4,0.7c0.2,0.7,0,1.4-0.6,1.8
		c-0.7,0.5-1.6,0.8-2.5,0.9c-0.3,0-0.6,0-0.8,0.1c-0.2,0.1-0.4,0.3-0.5,0.6c0,0.1,0.2,0.4,0.4,0.5c0.2,0.2,0.5,0.2,0.8,0.3
		c0.8,0.5,0.9,1.6,0,2c-0.5,0.3-1.1,0.4-1.7,0.5c-0.4,0.1-0.5-0.3-0.7-0.5c-0.1-0.1-0.3-0.1-0.5-0.2c-0.1,0.2-0.2,0.4-0.2,0.5
		c0.3,0.9,0.3,1.9,0.6,2.9c0.5,1.5,0.6,3,0.9,4.6C92,135.8,91.8,136.1,91.4,136.3z"/>
	<path id="Cuello" class="st7" d="M80.7,118.3c-0.3,1-1,1.4-1.7,1.8c-2.5,1.1-4.9,1.1-7.4,0c-0.7-0.3-1.4-0.8-1.8-1.7
		c1-0.2,1.9,0.1,2.7,0.1c0.9,0,1.8,0.1,2.7,0.1c0.9,0,1.7-0.1,2.6-0.1C78.8,118.4,79.7,118.4,80.7,118.3"/>
	<path class="st8" d="M74.9,138.7c-1.8-0.2-3.9-0.4-6.1-0.5c-1.7-0.2-3.3-0.3-5-0.5c-0.9-0.1-1.9-0.4-2.8-0.6
		c-0.2,0-0.5-0.1-0.7-0.2c-1.8-0.7-1.8-0.7-1.5-2.6c0.2-1.5,0.4-2.9,1-4.3c0.3-0.7,0.3-1.5,0.3-2.2c0-0.1-0.1-0.3-0.2-0.4
		c-0.1,0-0.3,0-0.4,0.1c-0.3,0.2-0.3,0.7-0.8,0.6c-0.7-0.2-1.5-0.2-2.1-0.9c-0.4-0.6-0.3-1.4,0.4-1.7c0.3-0.2,0.6-0.2,0.9-0.4
		c0.4-0.2,0.4-0.8-0.1-1c-0.3-0.1-0.6-0.1-0.9-0.2c-0.8-0.2-1.6-0.5-2.4-0.7c-0.5-0.2-0.7-0.6-0.8-1.1c-0.2-1,0.2-1.4,1.2-1.5
		c0.7,0,1.4,0,2.2,0c0.2,0,0.4,0,0.6,0c0.4,0,1,0,1-0.6c0.1-0.6-0.5-0.6-0.9-0.7c-1.6-0.3-2.8-1.1-3.5-2.6c-0.1-0.2-0.2-0.4-0.2-0.6
		c-0.2-0.8,0-1,0.9-0.8c2,0.6,3.9,1.2,5.9,1.6c2.1,0.4,4.3,0.7,6.5,1c0.8,0.1,1.4,0.3,1.9,1.2c0.4,1,1.3,1.6,2.3,1.9
		c1.1,0.3,2.2,0.7,3.2,0.8c1.9,0,3.8-0.3,5.4-1.6c0.5-0.4,0.8-0.9,1.2-1.5c0.2-0.4,0.5-0.6,1-0.7c1.9-0.3,3.7-0.5,5.6-0.8
		c2.2-0.4,4.5-0.8,6.6-1.6c0.4-0.1,0.8-0.3,1.3-0.4c0.4-0.1,0.6,0.1,0.5,0.6c-0.4,1.7-1.4,2.8-3,3.3c-0.3,0.1-0.7,0.2-1.1,0.2
		c-0.3,0.1-0.7,0.2-0.7,0.6c0,0.5,0.4,0.6,0.7,0.6c0.3,0,0.6,0,1,0c0.6,0,1.3,0,1.9,0c0.6,0,1.2,0,1.4,0.7c0.2,0.7,0,1.4-0.6,1.8
		c-0.7,0.5-1.6,0.8-2.5,0.9c-0.3,0-0.6,0-0.8,0.1c-0.2,0.1-0.4,0.4-0.5,0.6c0,0.1,0.2,0.4,0.4,0.5c0.2,0.1,0.5,0.2,0.8,0.3
		c0.8,0.5,0.9,1.6,0,2c-0.5,0.3-1.1,0.4-1.7,0.5c-0.4,0.1-0.5-0.3-0.7-0.5c-0.1-0.1-0.3-0.1-0.5-0.2c-0.1,0.2-0.2,0.4-0.2,0.5
		c0.3,0.9,0.3,1.9,0.6,2.9c0.5,1.5,0.6,3,0.9,4.6c0.1,0.4-0.1,0.7-0.5,0.9c-0.7,0.3-1.3,0.6-2,0.8c-2.1,0.5-4.1,0.8-6.3,1
		c-1.6,0.1-3.1,0.2-4.7,0.4C77.4,138.5,76.3,138.6,74.9,138.7"/>
</g>
<g id="Cabeza">
	<path id="Cabello_x5F_linea" class="st0" d="M157.5,104.3c-0.2-0.5-0.4-1-0.7-1.4c-1.4-1.8-3.2-3.1-5.6-3.2c-0.2,0-0.4-0.1-0.8-0.1
		c0.3-0.8,0.7-1.5,1-2.3c0.5-1.1,0.5-2.2,0.3-3.3c-0.3-1.6-1.3-2.6-3.1-2.8c0.3-0.6,0.5-1.1,0.8-1.5c1-1.7,1.5-3.6,1.2-5.6
		c-0.4-2.6-1.1-5-3.8-6.1c1.2-2.7,1.3-3.1,1-5.3c-0.1-1.1-0.5-2-1.3-2.8c-0.6-0.7-1.4-0.9-2.3-0.9c-0.2,0-0.5-0.3-0.5-0.4
		c0.1-1.1-0.5-1.9-1-2.6c0.2-0.7,0.5-1.3,0.5-1.9c0-1-0.2-2-0.6-2.9c-1-2.3-2.6-4-4.7-5.3c-0.3-0.2-0.6-0.4-0.9-0.6
		c1.1-1,1.2-2.2,0.8-3.5c-0.9-3.3-2.8-5.8-6.4-6.6c-0.8-0.2-0.8-0.2-0.9-1.1c-0.2-2-0.9-3.9-2-5.6c-1.7-2.6-4.1-4.1-7.3-4
		c-1.3,0-2.5,0.1-3.8,0.5c-0.1-0.4-0.2-0.8-0.2-1.1c-0.2-2.5-2.2-4.4-5-4.6c-3.7-0.3-7.3,0.2-10.5,2.1c-0.2,0.1-0.3,0.2-0.5,0.3
		c-0.6-1-1.2-1.9-2.2-2.4c-1.2-0.7-2.5-1.5-3.8-1.9c-1.7-0.6-3.4-0.5-4.9,0.6c-0.9,0.7-1.7,1.6-2.5,2.3c-0.2,0.2-0.5,0.5-0.7,0.8
		c-0.3-0.4-0.6-0.7-0.9-1c-1.5-1.5-3.1-2.6-5.3-2.1c-0.9,0.2-1.8,0.5-2.6,0.9c-1.7,0.9-3.1,2.2-4.4,3.7c-0.3,0.3-0.5,0.5-0.9,0.2
		c-1.5-1-3.2-1-4.9-0.8c-1.8,0.2-3.3,1-4.2,2.6c-0.5,0.9-0.5,1.8-0.5,2.8c0,0.5,0.2,1.2,0,1.4c-0.3,0.3-0.9,0.2-1.4,0.2
		c-1.4,0.1-2.6,0.5-3.3,1.9c0,0-0.1,0.1-0.2,0.1c-0.2-0.2-0.3-0.3-0.5-0.5c-1.8-1.8-4.1-2.2-6.4-1.1c-0.7,0.3-1.3,0.7-1.9,1.2
		c-1,0.9-2,1.9-3,2.8c0,0-0.2-0.1-0.2-0.2c-1.5-1.5-3.2-1.6-5.1-0.7c-0.7,0.3-1.3,0.6-1.9,1c-1.3,0.9-2.5,1.8-3.8,2.7
		c-0.9-0.7-2-0.8-3.1-0.8c-1.2,0-2.3,0.3-3.3,0.9c-2.3,1.2-4.2,2.8-5.7,4.8c-1.5,1.9-1.9,4-0.6,6.2c-0.1,0.1-0.1,0.2-0.2,0.2
		c-2,1.2-3.2,3.1-4,5.2c-0.8,2.1-1.1,4.2,0,6.3c0,0.1-0.1,0.1-0.1,0.1c-0.2,0.1-0.4,0.1-0.6,0.1c-1.2,0.1-2.2,0.6-3.2,1.3
		c-1.2,0.8-2.2,1.8-2.9,3c-1.5,2.2-2.7,4.5-2.5,7.3c0,1,0.4,1.9,1,2.6c0.5,0.5,1.1,1,1.6,1.4c0.3,0.2,0.7,0.4,1.1,0.7
		c-0.5,0.3-1,0.6-1.5,0.9c-2.3,1.7-3.5,4-4,6.7c-0.3,1.9,0,3,1.8,4c0.8,0.4,0.7,0.5,0.3,1.2c-0.1,0.1-0.2,0.3-0.3,0.4
		c-1.1,1.5-1.8,3.1-2.2,4.9c-0.2,1-0.5,1.9-0.2,3c0.2,0.8,0,1-0.7,1.2c-0.5,0.1-1.1,0.1-1.7,0.2c-1.2,0.1-2.3,0.4-3,1.4
		c-0.8,1-1.1,2.1-1.2,3.3c-0.2,2.5,0.4,3.6,2.7,4.8c0.2,0.1,0.3,0.2,0.5,0.4c-1.9,0.7-2.9,1.9-3.3,3.7c-0.1,0.7-0.2,1.5-0.2,2.3
		c-0.2,2.1,1.3,4.2,3.9,4.6c0.3,0,0.5,0.1,0.8,0.2c-0.9,2.2-1,2.7-1,5c0,3,1.4,4.8,4.3,5.3c1.4,0.3,2.8,0.2,4.2,0.3
		c0.5,0,1.1-0.2,1.4,0.1c0.3,0.2,0.2,0.9,0.2,1.3c0.2,2.2,1.8,3.9,3.9,4c1.3,0.1,2.5-0.1,3.7-0.8c0.5-0.3,0.9-0.6,1.5-0.9
		c0.1,0.2,0.1,0.4,0.2,0.6c0.5,1.9,1.6,3.3,3.4,4.1c1.2,0.5,2.4,0.9,3.6,1.2c1.5,0.4,2.9,0.3,4.4-0.1c0.8-0.2,0.8-0.2,1,0.6
		c0.1,0.4,0.3,0.8,0.4,1.3c0.4,1.1,1.2,1.7,2.3,2c1.5,0.4,2.9,0.2,4.2-0.5c0.3-0.2,0.7-0.4,1.1-0.6c0.3,0.5,0.5,1,0.7,1.4
		c0.6,1.1,1.5,1.8,2.9,1.9c2,0.2,3.8,0,5.5-1.1c0.4-0.3,0.8-0.4,1.3-0.2c0.5,0.2,1,0.2,1.5,0c0.1-0.1,0.3,0,0.5,0
		c0-0.1,0.1-0.2,0.1-0.3c-0.1-0.2-0.1-0.3-0.2-0.5c-0.6-0.2-1.2-0.4-1.7-0.8c0,0,0,0,0,0c-0.6-0.7-1.2-0.4-1.8,0.1
		c-1.3,1-2.8,1.5-4.5,1.4c-1.6-0.1-2.2-0.3-2.9-2.2c-0.1-0.3-0.1-0.5-0.2-0.8c-0.2-0.8-0.7-1.1-1.4-0.7c-0.6,0.3-1.3,0.7-1.9,1.1
		c-0.7,0.4-1.5,0.5-2.3,0.5c-1.3-0.1-1.9-0.5-2.3-1.8c-0.2-0.5-0.2-1.1-0.3-1.6c-0.2-1-0.5-1.2-1.5-0.9c-1.3,0.4-2.6,0.7-4,0.5
		c-1.5-0.2-2.9-0.6-4.2-1.2c-1.7-0.8-2.7-2.2-2.5-4.2c0-0.5,0.2-1-0.4-1.3c-0.6-0.3-1,0.2-1.4,0.5c-0.6,0.5-1.2,1-1.9,1.4
		c-0.7,0.3-1.4,0.6-2.1,0.7c-2,0.1-3.1-0.8-3.4-3c-0.1-0.7,0-1.4,0-2c0-0.8-0.3-1.1-1-0.8c-2.2,0.8-4.3,0.5-6.5-0.1
		c-1.6-0.4-2.5-1.5-2.6-3.1c-0.1-1.1,0-2.2,0.1-3.3c0.2-1.2,0.7-2.2,1.9-2.7c0.3-0.1,0.6-0.4,0.4-0.7c-0.1-0.4-0.5-0.5-0.9-0.4
		c-0.9,0.3-1.9,0.3-2.8,0c-1.6-0.4-2.6-1.5-2.6-3.2c0-0.9,0.1-1.8,0.3-2.7c0.3-1.2,1.1-2,2.3-2.5c0.4-0.2,0.8-0.4,1.1-0.6
		c0.4-0.3,0.3-0.7-0.1-1c-0.4-0.2-0.8-0.4-1.2-0.6c-1.8-0.8-2.3-1.8-2.1-3.7c0.1-0.9,0.3-1.7,0.7-2.5c0.5-0.9,1.2-1.3,2.2-1.4
		c0.3,0,0.6,0,1,0c0.8-0.1,1.6-0.3,2.2-1c0.3-0.3,0.8-0.5,0.9-0.8c0.1-0.3-0.3-0.7-0.3-1.1c0-0.6,0-1.2,0.1-1.8c0.3-1.7,1-3.3,2-4.7
		c0.3-0.4,0.6-0.8,0.9-1.3c0.4-0.8,0.3-1.4-0.4-1.9c-0.3-0.2-0.7-0.4-1-0.6c-0.7-0.5-1-1.1-0.9-1.9c0.4-3.1,1.7-5.5,4.5-7.1
		c0.4-0.2,0.7-0.4,1-0.7c0.4-0.4,0.4-0.8,0-1.3c-0.2-0.2-0.4-0.4-0.7-0.5c-0.4-0.3-0.8-0.5-1.2-0.8c-1.6-1.1-2.2-2.6-1.8-4.5
		c0.7-2.8,2-5.3,4.3-7.2c1.2-1,2.7-1.6,4.3-1.7c0.1,0,0.2,0,0.4,0c1-0.1,1.3-0.6,0.6-1.3C19,67.6,19,66,19.3,64.5
		c0.4-2,1.4-3.8,2.8-5.3c0.6-0.7,1.3-1.2,2.3-0.8c0.2,0.1,0.4,0,0.6,0c0.3-0.1,0.5-0.5,0.2-0.8c-0.1-0.2-0.3-0.3-0.5-0.4
		c-1.6-1.1-2-2.6-1.2-4.3c0.3-0.7,0.8-1.3,1.2-1.9c1.3-1.5,2.8-2.8,4.5-3.8c1.2-0.7,2.5-1,3.9-0.9c0.7,0.1,1.4,0.2,1.8,1
		c0.3,0.6,0.7,0.6,1.2,0c1.4-1.6,3.1-2.6,4.9-3.6c0.4-0.2,0.9-0.4,1.3-0.6c1.4-0.4,2.6,0.1,3.4,1.3c0.2,0.4,0.3,1,0.9,1
		c0.6,0,0.6-0.6,0.9-1c1.2-2.1,2.9-3.6,5.2-4.5c2-0.8,4.1,0.3,5,2.4c0.2,0.5,0.3,1,0.5,1.5c0.4,1,0.8,2,1.3,3.2
		c-0.2,0.1-0.4,0.2-0.7,0.3c-0.5,0.2-1,0.3-1.5,0.5c-1.2,0.6-1.9,1.5-1.9,2.9c0,1.6,0.1,3.1,0.9,4.5c0.2,0.4,0.5,0.8,0.8,1.2
		c0.2,0.2,0.6,0.3,0.8,0.3c0.2,0,0.3-0.4,0.4-0.7c0.1-0.2,0-0.4,0-0.6c0.3-2.4,1.4-4.3,3.4-5.6c0.7-0.5,1.5-0.7,2.4-0.7
		c0.7,0,1.3,0.2,1.6,0.9c0.1,0.1,0.1,0.3,0.2,0.4c0.3,0.4,0.9,0.3,1.1-0.1c0.1-0.4,0.1-0.8,0.2-1.2c0.1-1.4,0.1-2.7,0.3-4
		c0.2-1.1,0.7-2.1,1.3-3.1c1.2-1.9,3.8-2.4,5.6-1.7c1.4,0.6,2.7,1.4,3.8,2.4c0.3,0.2,0.5,0.5,0.8,0.8c0.3,0.3,0.6,0.5,1,0.3
		c0.2-0.1,0.4-0.5,0.5-0.8c0.2-1.8,1.1-3.3,2.2-4.7c1.3-1.6,3.1-2.2,5-2.6c1.7-0.3,3.3-0.5,5-0.1c3,0.6,4.8,2.8,5,5.9
		c0,0.6,0,1.1,0,1.7c0,0.3,0,0.6,0.1,0.9c0.2,0.4,0.7,0.5,1,0.2c0.2-0.2,0.3-0.5,0.5-0.8c0.5-0.8,1-1.7,1.6-2.3c2.2-2.3,6.1-2,8,0.5
		c0.4,0.5,0.6,1,0.9,1.6c0.2,0.4,0.3,0.8,0,1.3c-0.2,0.4-0.2,0.8,0.2,1.1c0.4,0.3,0.8,0.2,1.1,0c1-0.7,2.1-0.7,3.2-0.6
		c1.8,0.2,3.2,1.5,3.5,3.3c0,0.1,0,0.3,0,0.4c0.1,0.2,0.3,0.6,0.4,0.6c0.4,0,0.7-0.2,0.8-0.6c0.1-0.8,0.1-1.6-0.4-2.3
		c-1-1.7-2.5-2.7-4.6-2.8c-0.7,0-1.4,0-2,0c-0.4,0-0.6-0.1-0.8-0.5c-0.4-1.1-1-2.2-1.9-3c-1.1-1.2-2.5-1.8-4.2-1.8
		c-2.3,0-4.3,0.6-5.9,2.4c-0.1,0.1-0.2,0.1-0.3,0.2c-0.1-0.3-0.1-0.6-0.2-0.9c-0.8-3.1-3-5.2-6.2-5.6c-2.4-0.3-4.9-0.1-7.2,0.7
		c-2.8,0.9-4.6,3-5.7,5.6c-0.2,0.4-0.3,0.7-0.5,1.1c-0.7-0.5-1.3-1-2-1.4c-1.4-0.9-2.9-1.5-4.6-1.5c-2.3,0.1-4,1.1-5.2,3.1
		c-1,1.8-1.6,3.7-1.6,5.7c0,0.2,0,0.4,0,0.6c0,0,0,0.1-0.1,0.2c-0.2,0-0.4-0.1-0.6-0.1c-1.7-0.3-3.2,0.2-4.6,1.3
		c-1.4,1.2-2.3,2.7-2.8,4.5c-0.1,0.2-0.1,0.4-0.1,0.6c0,0,0,0.1-0.2,0.2c-0.1-0.2-0.2-0.4-0.3-0.6c-0.2-1-0.5-2-0.5-3
		c-0.1-1.2,0.5-2,1.6-2.3c0.6-0.2,1.3-0.4,2-0.6c0.3-0.1,0.6-0.1,0.8-0.2c0.5-0.2,0.6-0.6,0.3-1.1c-0.2-0.4-0.6-0.8-0.9-1.1
		c-0.8-1.1-1.1-2.4-1-3.7c0.1-1.1,0.6-1.7,1.7-1.8c0.7-0.1,1.4-0.1,2.1,0c1.2,0.1,1.5-0.3,1.3-1.5c-0.1-0.7-0.2-1.4-0.2-2.1
		c0-1.5,0.9-2.8,2.4-3.2c2.1-0.6,4.1-0.6,5.9,0.9c0.7,0.5,1,0.5,1.5-0.2c1.1-1.7,2.5-2.9,4.1-3.9c2.8-1.7,4.8-1.4,7,1.3
		c0.2,0.2,0.4,0.5,0.5,0.8c0.7,0.9,1.1,0.9,1.8,0c0.7-0.9,1.4-1.7,2.2-2.5c1-1,2.2-1.6,3.6-1.3c2.3,0.4,4.2,1.4,5.8,3.2
		c0.3,0.3,0.4,0.8,0.5,1.2c0.1,0.2,0,0.4,0.1,0.6c0.2,0.5,0.5,0.6,1,0.4c0.1-0.1,0.2-0.1,0.3-0.2c1.9-1.6,4.2-2.3,6.6-2.7
		c1.5-0.2,3-0.4,4.5-0.1c2.3,0.4,3.5,1.7,3.6,4.1c0,0.6,0,1.2,0,1.8c0,0.4,0.1,0.7,0.5,0.9c0.4,0.1,0.7,0,0.9-0.4
		c0.3-0.5,0.7-0.8,1.2-0.9c2.8-0.8,6-0.5,8.1,2.1c1.3,1.5,2,3.2,2.4,5.2c0.1,0.6,0,1.2-0.4,1.7c-0.5,0.7-0.3,1.1,0.5,1.3
		c0.3,0.1,0.7,0.1,1.1,0.2c3.1,0.3,5.6,2.8,6.1,5.9c0.1,0.8-0.1,1.4-0.9,1.9c-1.1,0.7-1,1.5,0.2,2.2c0.6,0.3,1.2,0.6,1.8,1
		c2.1,1.3,3.4,3.1,4,5.5c0,0.2,0.1,0.4,0.1,0.6c0.1,1-0.1,1.2-1.1,1.2c-0.3,0-0.6,0-0.8,0.1c-0.2,0-0.3,0.2-0.4,0.3
		c0.1,0.1,0.2,0.3,0.4,0.4c0.1,0.1,0.3,0.1,0.5,0.1c1.1,0.2,2.3,1.4,2.4,2.5c0,0.4-0.1,0.8-0.3,1.1c-0.1,0.3-0.4,0.4-0.5,0.7
		c-0.1,0.2-0.1,0.6,0.1,0.8c0.1,0.2,0.5,0.2,0.7,0.1c0.2,0,0.4-0.2,0.6-0.3c1.4-0.7,2.4-0.3,3,1.2c0.8,2.2,0.5,4.2-1,6
		c-0.3,0.3-0.6,0.6-0.9,1c-0.1,0.2-0.2,0.5-0.1,0.8c0.1,0.3,0.5,0.4,0.8,0.4c0.3-0.1,0.5-0.2,0.8-0.2c0.8-0.3,1.4,0,1.9,0.6
		c0.3,0.5,0.6,1,0.8,1.5c1,2.3,1.1,4.6-0.1,6.8c-0.6,1-1.1,2-1.7,3.1c-0.1,0.2-0.3,0.5-0.3,0.8c-0.1,0.5,0.3,0.9,0.9,0.8
		c0.2,0,0.4-0.2,0.5-0.2c1.2-0.4,2.2,0.1,2.4,1.4c0.2,0.8,0.2,1.7-0.2,2.5c-0.2,0.6-0.5,1.1-0.7,1.6c-0.4,0.8-0.9,1.6-1.9,1.8
		c-0.4,0.1-0.8,0.4-1,0.8c-0.3,0.4-0.3,0.9-0.1,1.3c0.2,0.4,0.8,0.5,1.3,0.3c0.4-0.2,0.8-0.4,1.1-0.7c0.5-0.5,1-0.6,1.7-0.7
		c2.1-0.1,3.8,0.8,5.1,2.4c0.3,0.3,0.5,0.7,0.6,1.1c0.3,0.7,0.2,1.5-0.4,2c-0.6,0.5-1.3,1-2,1.5c-1.3,1-2.7,1.9-4,2.9
		c-0.2,0.1-0.4,0.3-0.5,0.5c-0.4,0.5-0.2,1,0.4,1.2c0.1,0,0.2,0.1,0.4,0.1c0.8-0.1,1.2,0.4,1.5,1c0.7,1.3,0.8,2.7,0.8,4.1
		c0,1-0.6,1.9-1.2,2.5c-1,0.9-1.2,1.9-0.7,3.1c0,0.1,0,0.1-0.1,0.3c-0.3,0-0.7-0.1-1-0.1c-0.3,0-0.6,0.1-0.9,0.3
		c-0.4,0.2-0.4,0.7,0,1c0.1,0.1,0.3,0.2,0.4,0.2c1,0.1,1.4,0.7,1.6,1.5c0.3,1.2,0.6,2.5,0.8,3.7c0.2,1.5-0.3,2.3-1.6,2.8
		c-1.1,0.5-2.3,0.6-3.5,0.4c-0.3-0.1-0.6-0.2-0.9-0.2c-0.4,0-0.8,0.1-0.9,0.6c-0.1,0.4,0.1,0.7,0.4,0.9c0.3,0.2,0.6,0.2,0.9,0.4
		c0.5,0.2,0.6,0.6,0.5,1.1c-0.1,0.2-0.1,0.5-0.2,0.7c-0.6,1.4-1.4,2.7-2.5,3.8c-0.4,0.4-0.9,0.8-1.5,1c-1.4,0.6-2.8,0.9-4.3,1
		c-0.6,0-1.2,0-1.8-0.4c-0.6-0.4-1.1-0.1-1.2,0.6c-0.1,0.6-0.1,1.2-0.2,1.8c-0.2,1-0.8,1.7-1.7,2.1c-1.7,0.7-3.3,1.3-5.2,0.9
		c-0.2,0-0.4-0.1-0.6-0.1c-0.5,0-0.8,0.4-0.7,0.9c0,0.2,0.1,0.4,0.2,0.6c0.3,1.1,0.1,1.7-1,2.1c-0.4,0.2-0.9,0.3-1.4,0.3
		c-2.1,0.2-4.2,0-6.3-0.5c-0.6-0.1-1.1-0.4-1-1.2c0-0.4-0.2-0.8-0.7-0.9c-0.4-0.1-0.8,0.3-0.9,0.8c-0.1,0.4,0,0.8,0,1.2
		c0.1,1.4-0.6,2.3-2,2.4c-1.3,0.1-2.5-0.1-3.6-0.6c-0.9-0.4-1.6-0.9-1.8-1.9c0-0.1,0-0.2-0.1-0.2c-0.1-0.3-0.3-0.6-0.7-0.6
		c-0.4,0-0.6,0.2-0.7,0.6c-0.1,0.3-0.1,0.7-0.3,1c-0.9,1.3-2.1,2-3.8,2c-0.7,0-0.9-0.2-1-0.9c0-0.3,0-0.6-0.1-0.8
		c-0.1-0.6-0.6-0.7-1.1-0.3c-0.2,0.2-0.4,0.4-0.6,0.6c-0.9,0.9-1.9,1.7-3,2.3c-0.9,0.4-1.4,0.3-2-0.2c-0.1-0.2-0.2-0.3-0.2-0.4
		c-0.3,0.1-0.6,0.2-1,0.3c0,0.1,0,0.1-0.1,0.2c0.2,0.1,0.4,0.2,0.5,0.5c0.7,0.9,1.7,1.1,2.8,0.7c0.4-0.2,0.9-0.4,1.3-0.7
		c0.7-0.5,1.4-1,2-1.5c1,1.5,2,1.9,3.7,1.4c0.2-0.1,0.5-0.1,0.7-0.3c0.7-0.4,1.4-0.9,2.1-1.4c0.3-0.2,0.5-0.4,0.8-0.1
		c1.5,1.5,3.5,1.7,5.4,1.8c1.6,0.1,2.9-0.6,3.6-2c0.2-0.4,0.4-0.5,0.8-0.4c2.3,0.7,4.6,0.7,6.9,0.6c1,0,2-0.3,2.8-0.9
		c0.7-0.5,1.1-1,1.2-1.9c0.1-0.8,0.1-0.8,1-0.8c1.2,0,2.3-0.3,3.4-0.7c2-0.7,3.4-1.8,3.7-4c0.1-0.4,0.3-0.5,0.7-0.5
		c0.9,0,1.8-0.1,2.7-0.2c1.5-0.2,3-0.6,4.2-1.6c2.1-1.8,3.7-3.8,4-6.7c0-0.4,0.2-0.5,0.6-0.6c0.7-0.1,1.3-0.3,2-0.5
		c1.8-0.7,2.6-1.9,2.6-3.9c0-1.5-0.3-2.9-0.8-4.3c-0.2-0.7-0.3-1.3-0.2-2c0.1-0.4,0.1-1-0.1-1.4c-0.2-0.7,0-1.1,0.4-1.6
		c0.3-0.3,0.5-0.7,0.8-1.1c0.6-1,1-2,0.9-3.2c-0.1-2.1-0.5-4.1-2.2-5.7c0.8-0.8,1.8-1.4,2.8-2c0.9-0.6,1.7-1.1,2.5-1.8
		C157.7,106.8,157.9,105.6,157.5,104.3z"/>
	<path id="Cara_x5F_linea" class="st0" d="M123.7,87.5c-0.5-1.6-1.5-2.9-2.9-3.9c-1-0.6-2-1.1-3.1-1.1c-0.9,0-1.8,0-2.8,0
		c-1.1,0-1.9,0.4-2.6,1.2c-0.3,0.4-0.8,0.7-1.2,0.9c-0.9,0.5-1.7,0-1.7-1c0-0.2,0-0.4,0-0.6c0-0.3,0-0.7-0.4-0.8
		c-0.3,0-0.6,0-0.9,0.2c-0.3,0.2-0.6,0.6-0.9,0.8c-0.3,0.3-0.7,0.6-1,0.8c-0.7,0.4-1.4,0.3-1.9-0.4c-0.6-0.7-1-1.6-1.1-2.5
		c-0.1-1.3-0.2-2.6,0.3-3.8c0.1-0.2,0.2-0.3,0.1-0.5c0-0.3-0.1-0.7-0.3-0.8c-0.3-0.3-0.6-0.1-0.8,0.1c-1.1,0.9-2.4,0.8-3.7,0.6
		c-0.8-0.1-1.3-0.8-1.4-1.7c-0.1-1.7,0.2-3.3,0.7-4.8c0.2-0.5,0.5-0.7,1.1-0.8c2.1-0.5,3.8-1.6,5.3-3.2c0.4-0.4,0.6-0.8,0.9-1.3
		c0.1-0.2,0.2-0.5,0.2-0.8c0-0.5-0.5-0.8-0.9-0.5c-0.2,0.1-0.3,0.3-0.5,0.5c-0.9,1.4-2.3,2.4-3.7,3.1c-1.8,1-3.7,0.9-5.6,0.5
		c-1.1-0.2-2.2-0.6-3.1-1.2c-1-0.7-1.2-1-0.8-2.2c0.1-0.2,0.1-0.4,0.2-0.6c0.2-0.6,0-1.1-0.4-1.2c-0.4-0.1-0.7,0.1-1,0.6
		c-0.1,0.2-0.2,0.4-0.3,0.7c-0.1,0.3-0.2,0.7-0.4,1c-1,2.3-2.9,3.4-5.4,3.1c-1.3-0.1-2.6-0.6-3.7-1.3c-1-0.7-1.6-1.5-1.5-2.8
		c0-0.3,0-0.6,0-1c0-0.4-0.2-0.8-0.6-0.8c-0.2,0-0.6,0.3-0.7,0.5c-0.2,0.2-0.2,0.6-0.4,0.9c-0.4,0.7-0.8,1.5-1.3,2.1
		c-2.2,2.3-5.7,1.2-7-0.2C67.6,65,67.6,64,67.8,63c0.1-0.5,0.4-0.9,0.4-1.4c0-0.2-0.1-0.6-0.2-0.7c-0.3-0.2-0.6-0.1-0.8,0.1
		c-0.2,0.2-0.3,0.5-0.5,0.8c-1.2,1.6-2.7,2.6-4.8,2.4C60,64,59,63,58.8,61.1c0-0.5,0-1,0-1.4c0-0.3-0.1-0.6-0.2-0.8
		c0-0.1-0.3-0.3-0.3-0.3c-0.2,0.1-0.4,0.2-0.4,0.4c-0.1,1.1-0.2,2.1-0.2,3.2c0,0.8,0.1,1.5,0.1,2.3c0,0.4-0.1,0.7-0.2,1.1
		c-0.5,1.7-2.1,2.3-3.6,1.3c-0.2-0.2-0.4-0.4-0.7-0.5c-0.5-0.3-0.9-0.1-1,0.5c0,0.3,0,0.6,0,0.8c0.1,1.7,0.2,3.3,0.2,5
		c0,1-0.3,1.8-1.1,2.4c-0.5,0.3-1.1,0.5-1.6,0.7c-0.5,0.1-1,0-1.4-0.4c-0.2-0.2-0.4-0.3-0.6-0.4c-0.5-0.2-0.9-0.1-1,0.5
		c0,0.5,0.1,0.9,0.2,1.4c0.1,0.5,0.4,1,0.6,1.4c0.3,0.7,0.1,1.4-0.3,2c-0.3,0.4-0.6,0.7-1,1.1c-1.3,1.2-2.4,1.1-3.7-0.1
		c-0.5-0.5-1-1-1.4-1.4c-0.2-0.2-0.4-0.4-0.6-0.6c-0.3-0.2-0.7-0.5-1.1-0.3C39,79.2,39,79.6,39,80.1c0,0.2,0,0.3,0.1,0.5
		c0.2,1.2,0,2.2-1.1,3c-1.8-1.4-4-1-6-0.9c-0.6,0-1.3,0.4-1.9,0.7c-2.9,1.7-4.1,4.7-3.6,8c0.2,1.2,0.9,2.3,1.7,3.2
		c0.5,0.6,1.1,1.1,1.8,1.7c-0.1,0.1-0.1,0.2-0.2,0.4c-1.2,1.9-0.2,3.2,1.2,4c1.3,0.7,3.4,0,3.4-1.8c0-0.3,0-0.6,0.5-0.7
		c0.8,0,1.1,0,1.3,0.6c0.5,2,1.7,3.6,2.7,5.3c1.5,2.5,3.4,4.7,5.8,6.5c2.4,1.7,4.9,3.1,7.7,4.1c0.2,0.1,0.4,0.1,0.5,0.3
		c0.4,0,0.8,0.1,1.1,0.2c0.2,0,0.3,0.1,0.5,0.2c0.1,0,0.3,0,0.5,0.1c2,0.6,3.9,1.2,5.9,1.6c2.1,0.4,4.3,0.7,6.5,1
		c0.4,0.1,0.8,0.2,1.1,0.3c0.1,0,0.3,0,0.4,0c0.5-0.1,1-0.1,1.6,0c0.7,0,1.4,0.2,2,0.2c0.9,0,1.8,0.1,2.7,0.1c0.9,0,1.7-0.1,2.6-0.1
		c0.9-0.1,1.8-0.1,2.8-0.2c0,0.1,0,0.1-0.1,0.2c0.4-0.1,0.8-0.2,1.3-0.2c0.1-0.1,0.3-0.1,0.5-0.2c1.9-0.3,3.7-0.5,5.6-0.8
		c2.2-0.4,4.5-0.8,6.6-1.6c0.4-0.1,0.8-0.3,1.3-0.4c0.1,0,0.1,0,0.2,0c0.5-0.2,1-0.3,1.5-0.3c0.1-0.1,0.3-0.2,0.6-0.3
		c1-0.4,2.1-0.8,3.1-1.3c2.5-1,4.5-2.7,6.6-4.4c1.6-1.3,2.8-3,3.8-4.8c1-1.8,2.2-3.4,2.8-5.4c0.1-0.5,1.2-0.8,1.5-0.4
		c0.1,0.1,0.1,0.4,0.2,0.5c0.1,1,0.6,1.7,1.6,1.9c1,0.2,1.9,0.1,2.6-0.7c1.2-1.3,1.3-2,0.3-3.8c0.2-0.2,0.4-0.4,0.7-0.6
		c0.8-0.8,1.6-1.6,2.1-2.6C124.4,91.4,124.3,89.5,123.7,87.5z M33.2,99.2c-0.2,0.5-0.7,0.6-1.2,0.7c-1,0.1-2-1.3-1.6-2.3
		c0.2-0.5,0.4-0.6,1.1-0.6c0.5,0,1.1,0.3,1.5,0.8C33.3,98.3,33.5,98.7,33.2,99.2z M36.2,87.3c-0.9-1-2.1-1.1-3.3-0.9
		c-0.1,0-0.3,0.1-0.4,0.2c-0.3,0.2-0.3,0.7,0.1,0.8c0.4,0.1,0.8,0.1,1.2,0.2c1.7,0.1,2.7,1.3,2.4,3c-0.4,2-0.4,4-0.4,6
		c0,0.8,0,0.8-0.8,0.8c-0.5,0-0.9-0.2-1.3-0.5c-0.5-0.4-1.1-0.8-1.7-1c-2-0.9-3.4-2.3-4-4.3c-1.1-3.5,1.7-7.8,5.4-7.6
		c0.8,0,1.6,0,2.4,0c0.9,0,1.7,0.5,2.3,1.2c0.3,0.3,0.3,0.5,0.1,0.8c-0.4,0.7-0.8,1.3-1.3,2.2C36.5,87.7,36.3,87.5,36.2,87.3z
		 M112.4,100.2c-1.1,2.1-2.3,4.3-3.9,6.1c-0.8,0.9-1.7,1.7-2.6,2.5c-2,1.6-4.1,3-6.6,3.9c-1.2,0.5-2.5,0.8-3.8,1.1
		c-0.4,0.1-0.9,0.2-1.3,0.3c-3,1.3-6.2,1.7-9.4,2.2c-2.9,0.5-5.9,0.8-8.8,0.8c-2.1,0-4.1-0.1-6.2-0.3c-3.8-0.3-7.5-0.9-11.2-1.8
		c-0.7-0.2-1.4-0.4-2-0.7c-0.6-0.2-1.2-0.4-1.8-0.5c-3-0.6-5.7-1.8-8.2-3.5c-0.2-0.1-0.3-0.2-0.5-0.4c-3-1.9-5.2-4.6-6.9-7.7
		c-0.8-1.5-1.7-2.9-2.1-4.6c-0.3-1.3-0.4-2.5-0.3-3.8c0.2-1.3,0.2-2.6,0.4-3.8c0.3-1.6,0.7-3.2,1.7-4.6c-0.1-1.1,0.8-1.8,1.2-2.8
		c0.2-0.5,0.2-1.2,0.4-1.8c0.2,0.2,0.4,0.3,0.6,0.5c0.4,0.4,0.8,0.8,1.2,1.2c1.1,1,2.3,1,3.6,0.5c1.2-0.5,2.1-1.4,2.7-2.6
		c0.3-0.5,0.3-1.2,0.3-1.8c0-0.5-0.2-1-0.3-1.6c0.4,0,0.8,0,1.2,0c2.3-0.1,4-1.8,4-4.1c0-1-0.1-2.1-0.2-3.1c0-0.6,0-1.1,0-1.8
		c1.3,0.4,2.6,0.6,3.8-0.2c1.2-0.8,1.4-2.1,1.6-3.6c2.6,1.7,5.1,1.6,7.5-0.2c0.6,2.9,2.5,4.4,5.4,4.5c2.5,0.1,3.4-0.3,5.5-2.6
		c1.3,2.4,3.4,3.4,5.9,3.8c2.6,0.4,4.8-0.3,6.5-2.5c2.2,2,4.9,2.6,7.8,2.8c-0.1,0.4-0.2,0.7-0.4,0.9c-0.6,1.5-0.8,3.1-0.6,4.7
		c0.1,1.4,1.2,2.5,2.8,2.7c0.9,0.1,1.7,0,2.7,0c0,0.1,0,0.4,0,0.6c0,0.8,0,1.5,0,2.3c0,1.4,0.6,2.6,1.5,3.7c0.9,1,2.4,1.2,3.5,0.5
		c0.3-0.2,0.6-0.4,0.9-0.6c0.1,0,0.2,0,0.2,0.1c0.7,1.3,1.8,1.7,3.1,1.6c0.7,0,0.9,0.2,1.1,0.8c0.6,1.6,1,3.3,1.1,5
		c0.1,1.2,0.1,2.3,0.1,3.5C113.6,97.3,113.2,98.8,112.4,100.2z M118.2,99.9c-1-0.1-1.4-1.1-0.9-1.9c0.3-0.5,0.9-0.8,1.5-0.9
		c0.8-0.1,1.3,0.3,1.3,1.1C120.2,99,119,100,118.2,99.9z M120.8,94.2c-0.7,0.7-1.4,1.2-2.4,1.6c-0.6,0.2-1.1,0.6-1.6,1
		c-0.2,0.1-0.4,0.4-0.7,0.4c-1.1,0.3-1.3,0.1-1.3-1c0-2-0.1-4-0.5-6c-0.3-1.3,0.9-2.7,2.2-2.8c0.5,0,1-0.1,1.4-0.1
		c0.1,0,0.3-0.3,0.3-0.4c0-0.1-0.1-0.3-0.2-0.4c-0.2-0.1-0.5-0.2-0.8-0.2c-1.3-0.1-2.5,0.2-3.2,1.4c-0.1,0.1-0.2,0.1-0.3,0.2
		c-0.4-0.7-0.8-1.4-1.2-2.1c-0.2-0.4-0.1-0.7,0.1-1c0.6-0.6,1.2-1,2.1-1c1,0,2.1-0.1,3.1,0c1.8,0.1,3.1,1.1,4,2.6
		C123.5,89.2,123.1,92,120.8,94.2z"/>
	<g id="Cara">
		<path class="st7" d="M36.7,88c-0.2-0.3-0.4-0.5-0.5-0.7c-0.9-1-2.1-1.1-3.3-0.9c-0.1,0-0.3,0.1-0.4,0.2c-0.3,0.2-0.3,0.7,0.1,0.8
			c0.4,0.1,0.8,0.1,1.2,0.2c1.7,0.1,2.7,1.3,2.4,3c-0.4,2-0.4,4-0.4,6c0,0.8,0,0.8-0.8,0.8c-0.5,0-0.9-0.2-1.3-0.5
			c-0.5-0.4-1.1-0.8-1.7-1c-2-0.9-3.4-2.3-4-4.3c-1.1-3.5,1.7-7.8,5.4-7.6c0.8,0,1.6,0,2.4,0c0.9,0,1.7,0.5,2.3,1.2
			c0.3,0.3,0.3,0.5,0.1,0.8C37.6,86.5,37.2,87.2,36.7,88"/>
		<path class="st7" d="M113.7,87.9c-0.4-0.7-0.8-1.4-1.2-2.1c-0.2-0.4-0.1-0.7,0.1-1c0.6-0.6,1.2-1,2.1-1c1,0,2.1-0.1,3.1,0
			c1.8,0.1,3.1,1.1,4,2.6c1.7,2.8,1.3,5.5-1,7.8c-0.7,0.7-1.4,1.2-2.4,1.6c-0.6,0.2-1.1,0.6-1.6,1c-0.2,0.1-0.4,0.4-0.7,0.4
			c-1.1,0.3-1.3,0.1-1.3-1c0-2-0.1-4-0.5-6c-0.3-1.3,0.9-2.7,2.2-2.8c0.5,0,1-0.1,1.4-0.1c0.1,0,0.3-0.3,0.3-0.4
			c0-0.1-0.1-0.3-0.2-0.4c-0.2-0.1-0.5-0.2-0.8-0.2c-1.3-0.1-2.5,0.2-3.2,1.4C113.9,87.8,113.8,87.9,113.7,87.9"/>
		<path class="st7" d="M58.9,64.2c2.6,1.7,5.1,1.6,7.5-0.2c0.6,2.9,2.5,4.4,5.4,4.5c2.5,0.1,3.4-0.3,5.5-2.6
			c1.3,2.4,3.4,3.4,5.9,3.8c2.6,0.4,4.8-0.3,6.5-2.5c2.2,2,4.9,2.6,7.8,2.8c-0.1,0.4-0.2,0.7-0.4,0.9c-0.6,1.5-0.8,3.1-0.6,4.7
			c0.1,1.4,1.2,2.5,2.8,2.7c0.9,0.1,1.7,0,2.7,0c0,0.1,0,0.4,0,0.6c0,0.8,0,1.5,0,2.3c0,1.4,0.6,2.6,1.5,3.7c0.9,1,2.4,1.2,3.5,0.5
			c0.3-0.2,0.6-0.4,0.9-0.6c0.1,0,0.2,0,0.2,0.1c0.7,1.3,1.8,1.6,3.1,1.6c0.7,0,0.9,0.2,1.1,0.8c0.6,1.6,1,3.3,1.1,5
			c0.1,1.2,0.1,2.3,0.1,3.5c0,1.6-0.4,3.1-1.1,4.5c-1.1,2.1-2.3,4.3-3.9,6.1c-0.8,0.9-1.7,1.7-2.6,2.5c-2,1.6-4.1,3-6.6,3.9
			c-1.2,0.5-2.5,0.8-3.8,1.1c-0.4,0.1-0.9,0.2-1.3,0.3c-3,1.3-6.2,1.7-9.4,2.2c-2.9,0.5-5.9,0.8-8.8,0.8c-2.1,0-4.1-0.1-6.2-0.3
			c-3.8-0.3-7.5-0.9-11.2-1.8c-0.7-0.2-1.4-0.4-2-0.7c-0.6-0.2-1.2-0.4-1.8-0.5c-3-0.6-5.7-1.8-8.2-3.5c-0.2-0.1-0.3-0.2-0.5-0.4
			c-3-1.9-5.2-4.6-6.9-7.7c-0.8-1.5-1.7-2.9-2.1-4.6c-0.3-1.3-0.4-2.5-0.3-3.8c0.2-1.3,0.2-2.6,0.4-3.8c0.3-1.6,0.7-3.2,1.7-4.6
			c-0.1-1.1,0.8-1.8,1.2-2.8c0.2-0.5,0.2-1.2,0.4-1.8c0.2,0.2,0.4,0.3,0.6,0.5c0.4,0.4,0.8,0.8,1.2,1.2c1.1,1,2.3,1,3.6,0.5
			c1.2-0.5,2.1-1.4,2.7-2.6c0.3-0.5,0.3-1.2,0.3-1.8c0-0.5-0.2-1-0.3-1.6c0.4,0,0.8,0,1.2,0c2.3-0.1,4-1.8,4-4.1
			c0-1-0.1-2.1-0.2-3.1c0-0.6,0-1.1,0-1.8c1.3,0.4,2.6,0.6,3.8-0.2C58.6,67,58.8,65.7,58.9,64.2 M92.5,92.7
			c-0.5,0.2-0.9,0.4-1.3,0.6c-1.9,0.9-3.9,1.7-6,2c-2.3,0.3-4.7,0.6-7,0.7c-3.6,0.1-7.1,0-10.6-0.4c-1.4-0.2-2.8-0.4-4.1-0.7
			c-0.8-0.2-1.6-0.4-2.4-0.6c-1-0.2-1.9-0.4-2.8-0.9c0.2-0.2,0.4-0.4,0.5-0.6c0.1-0.1,0.1-0.4,0-0.5c-0.1-0.1-0.4-0.2-0.5-0.1
			c-0.2,0-0.4,0.2-0.5,0.3c-0.9,0.5-1.7,1-2.6,1.5c-0.2,0.1-0.3,0.3-0.5,0.4c0.7,0.6,1.3,0.1,2,0.1c0,0.1,0.1,0.1,0.1,0.1
			c0,0.1,0,0.2,0,0.4c0,4.2,1.3,7.9,4.6,10.8c0.2,0.1,0.3,0.3,0.4,0.4c2.7,2.8,6.2,4,10,4.4c2.6,0.3,5.3,0.2,7.9-0.1
			c3.3-0.4,6.1-1.8,8.4-4.1c1.3-1.4,2.4-3,3.5-4.5c1.2-1.5,1.9-3.3,2.4-5.2c0.2-0.7,0.4-1.5,0.5-2.3c0.4,0.2,0.7,0.5,1.1,0.7
			c0.5,0.3,0.9,0.2,1-0.1c0.2-0.5-0.2-0.6-0.5-0.8c-0.7-0.5-1.5-0.9-2.2-1.5c-0.5-0.4-0.8-0.9-1.2-1.3c-0.1-0.1-0.3-0.1-0.5-0.2
			c-0.1,0.2-0.2,0.4-0.2,0.6C92.1,92,92.3,92.4,92.5,92.7 M64.7,83.3c0,0-0.1,0-0.1,0c0-0.4-0.1-0.9-0.1-1.3c0-0.2-0.1-0.3-0.2-0.4
			c-0.4-0.9-1.3-1.1-2-0.3c-0.8,1-1.2,3.6-0.6,4.7c0.3,0.5,0.6,0.7,1.2,0.7c0.6,0,1-0.3,1.2-0.9C64.4,84.9,64.5,84.1,64.7,83.3
			 M88.9,84.2c0-0.5,0-0.8-0.1-1.2c-0.2-0.6-0.4-1.2-0.7-1.7c-0.6-0.9-1.5-0.7-2,0.2c-0.1,0.2-0.2,0.5-0.2,0.8c0,0.8,0,1.5,0,2.3
			c0.1,0.5,0.3,0.9,0.5,1.3c0.3,0.6,0.8,0.8,1.4,0.6c0.6-0.1,0.9-0.6,0.9-1.1C88.9,85,88.9,84.6,88.9,84.2 M80.3,87.2
			c-0.2-0.3-0.4-0.6-0.6-0.9c-2.8-2.7-7.1-2-9.1,0.3c-0.2,0.2-0.3,0.4-0.4,0.6c-0.1,0.2,0,0.4,0.1,0.7c0.2,0,0.4,0,0.5-0.1
			c0.4-0.3,0.8-0.7,1.2-1c1.9-1.3,4.3-1.4,6.2,0c0.4,0.3,0.7,0.6,1.1,0.9c0.1,0.1,0.4,0.2,0.5,0.1C80,87.7,80.1,87.5,80.3,87.2
			 M85.7,74.1c-0.1,0.1-0.4,0.2-0.5,0.4c-0.1,0.4,0.2,0.6,0.5,0.7c0.3,0.1,0.6,0.1,0.8,0.1c1.6,0.2,3.1,0.7,4.2,2
			c0.1,0.1,0.4,0.3,0.6,0.2c0.3-0.1,0.4-0.4,0.2-0.7c-0.3-0.4-0.5-0.8-0.9-1.1C89.3,74.6,87.7,74.2,85.7,74.1 M65.3,74.5
			c-0.3-0.2-0.5-0.4-0.7-0.4c-0.5,0-1,0.1-1.5,0.2c-1.2,0.2-2.3,0.6-3.3,1.4c-0.4,0.3-0.7,0.8-1,1.3c-0.1,0.1,0.1,0.4,0.3,0.6
			c0.1,0.1,0.4,0,0.5-0.1c1.1-1.5,2.7-2,4.5-2.2c0.3,0,0.6-0.1,0.9-0.2C65.1,74.9,65.2,74.7,65.3,74.5"/>
		<path class="st9" d="M47.3,97.6c0.9-4.6,3-8.8,6.1-12.4c3.4-4,7.7-7,12.4-9.3c5.1-2.5,10.9-3.8,16.6-4c4.8-0.1,9.7,0.6,14.1,2.5
			c0-1.2,0.2-2.4,0.7-3.5c0.1-0.3,0.2-0.6,0.4-0.9c-2.9-0.2-5.5-0.8-7.8-2.8c-1.7,2.3-3.9,2.9-6.5,2.5c-2.5-0.4-4.6-1.4-5.9-3.8
			c-2.1,2.3-3,2.7-5.5,2.6c-2.9-0.1-4.8-1.7-5.4-4.5c-2.4,1.8-4.9,1.9-7.5,0.2c-0.1,1.4-0.3,2.8-1.6,3.6c-1.2,0.8-2.5,0.6-3.8,0.2
			c0,0.7,0,1.2,0,1.8c0.1,1,0.2,2.1,0.2,3.1c0,2.3-1.7,4-4,4.1c-0.4,0-0.8,0-1.2,0c0.1,0.6,0.3,1.1,0.3,1.6c0,0.6-0.1,1.3-0.3,1.8
			c-0.6,1.2-1.5,2.1-2.7,2.6c-1.3,0.6-2.5,0.5-3.6-0.5c-0.4-0.4-0.8-0.8-1.2-1.2c-0.2-0.2-0.4-0.3-0.6-0.5c-0.1,0.7-0.1,1.3-0.4,1.8
			c-0.4,0.9-1.3,1.6-1.2,2.8c-1,1.4-1.3,3-1.7,4.6c-0.3,1.2-0.2,2.5-0.4,3.8c-0.2,1.3,0,2.5,0.3,3.8c0.3,1.7,1.2,3.1,2.1,4.6
			c1.7,3.1,3.9,5.8,6.9,7.7c0.2,0.1,0.3,0.2,0.5,0.4c0.3,0.2,0.6,0.4,1,0.6C46.6,106.6,46.4,102,47.3,97.6 M58.8,76.9
			c0.3-0.5,0.6-1,1-1.3c1-0.7,2.1-1.2,3.3-1.4c0.5-0.1,1-0.2,1.5-0.2c0.2,0,0.4,0.2,0.7,0.4c-0.2,0.2-0.3,0.4-0.4,0.4
			c-0.3,0.1-0.6,0.2-0.9,0.2c-1.7,0.2-3.4,0.6-4.5,2.2c-0.1,0.1-0.4,0.2-0.5,0.1C59,77.4,58.8,77,58.8,76.9"/>
		<path id="Dientes" class="st4" d="M86.2,96.4c0,0.7-0.3,1.1-0.7,1.5c-1.4,1.5-3.1,2.4-5.1,3c-0.2,0.1-0.4,0.1-0.6,0.1
			c-2.2,0-4.4,0-6.6-0.1c-1.5-0.1-3.1-0.4-4.6-0.6c-2.1-0.3-4.3-1.6-4.9-4.3C71.1,97.5,78.6,97.4,86.2,96.4"/>
		<path id="Boca" class="st10" d="M57.4,94.3c1.6,0.4,3,0.8,4.4,1.2c0.5,0.1,0.8,0.3,0.8,0.9c0,0.2,0.1,0.5,0.2,0.7
			c0.7,2.5,2.5,3.9,4.9,4.4c3.6,0.7,7.3,1.1,11.1,1c2-0.1,3.8-0.8,5.5-1.9c0.4-0.3,0.8-0.5,1.2-0.8c0.9-0.7,1.6-1.5,1.9-2.7
			c0.2-0.8,0.6-1.2,1.4-1.4c1.1-0.4,2.2-0.9,3.3-1.4c0.2-0.1,0.5-0.1,0.8-0.1c0,0.2,0.1,0.5,0,0.7c-0.5,2-1,3.9-2.3,5.6
			c-1,1.4-2,2.9-3.1,4.2c-0.6,0.7-1.3,1.3-2,1.9c-0.4,0.4-0.8,0.3-1.2,0.1c-0.6-0.4-1.2-0.8-1.9-1.1c-2.9-1.3-5.9-1.7-9.1-1.5
			c-2.5,0.2-4.9,0.9-7.2,1.8c-0.4,0.1-0.7,0.3-1.1,0.5c-0.9,0.5-1,0.5-1.8-0.2c-0.9-0.8-1.7-1.6-2.5-2.4c-2-2-2.8-4.5-3.2-7.2
			C57.5,95.8,57.5,95.1,57.4,94.3"/>
		<path id="Lengua" class="st11" d="M65.3,107.4c1.9-1,3.6-1.3,5.3-1.7c1.9-0.4,3.9-0.6,5.8-0.4c2.2,0.2,4.3,0.7,6.2,1.7
			c0.2,0.1,0.4,0.3,0.6,0.4c0.1,0.1,0.2,0.2,0.5,0.4c-0.4,0.2-0.8,0.4-1.1,0.5c-1.8,0.7-3.7,1-5.6,1c-1.7,0-3.4,0.1-5.2,0
			C69.6,109.2,67.5,108.4,65.3,107.4"/>
		<g>
			<defs>
				<path id="SVGID_1_" d="M95.1,94.4c0,3.9,3.2,7.1,7.1,7.1c3.9,0,7.1-3.2,7.1-7.1c0-3.9-3.2-7.1-7.1-7.1
					C98.3,87.3,95.1,90.5,95.1,94.4"/>
			</defs>
			<clipPath id="SVGID_2_">
				<use xlink:href="#SVGID_1_"  style="overflow:visible;"/>
			</clipPath>
			<defs>
				<filter id="Adobe_OpacityMaskFilter" filterUnits="userSpaceOnUse" x="95.1" y="87.3" width="14.2" height="14.2">
					<feColorMatrix  type="matrix" values="1 0 0 0 0  0 1 0 0 0  0 0 1 0 0  0 0 0 1 0"/>
				</filter>
			</defs>
			<mask maskUnits="userSpaceOnUse" x="95.1" y="87.3" width="14.2" height="14.2" id="SVGID_3_">
				<g class="st12">
					
						<radialGradient id="SVGID_4_" cx="5.051971e-05" cy="186.386" r="1" gradientTransform="matrix(7.0979 0 0 -7.0979 102.1846 1417.3564)" gradientUnits="userSpaceOnUse">
						<stop  offset="0" style="stop-color:#FFFFFF"/>
						<stop  offset="0.133" style="stop-color:#FBFBFB"/>
						<stop  offset="0.2596" style="stop-color:#F0F0F0"/>
						<stop  offset="0.3835" style="stop-color:#DDDDDD"/>
						<stop  offset="0.5059" style="stop-color:#C2C2C2"/>
						<stop  offset="0.6273" style="stop-color:#9F9F9F"/>
						<stop  offset="0.7478" style="stop-color:#747474"/>
						<stop  offset="0.8676" style="stop-color:#414141"/>
						<stop  offset="0.9841" style="stop-color:#080808"/>
						<stop  offset="1" style="stop-color:#000000"/>
					</radialGradient>
					<rect x="95.1" y="87.3" class="st13" width="14.2" height="14.2"/>
				</g>
			</mask>
			
				<radialGradient id="SVGID_5_" cx="5.051971e-05" cy="186.386" r="1" gradientTransform="matrix(7.0979 0 0 -7.0979 102.1846 1417.3564)" gradientUnits="userSpaceOnUse">
				<stop  offset="0" style="stop-color:#D68B73"/>
				<stop  offset="0.3594" style="stop-color:#D68F74"/>
				<stop  offset="0.7004" style="stop-color:#D69A76"/>
				<stop  offset="1" style="stop-color:#D6AB79"/>
			</radialGradient>
			<rect x="95.1" y="87.3" class="st14" width="14.2" height="14.2"/>
		</g>
		<g>
			<defs>
				<path id="SVGID_6_" d="M40.6,95.2c0,3.9,3.2,7.1,7.1,7.1s7.1-3.2,7.1-7.1c0-3.9-3.2-7.1-7.1-7.1S40.6,91.3,40.6,95.2"/>
			</defs>
			<clipPath id="SVGID_7_">
				<use xlink:href="#SVGID_6_"  style="overflow:visible;"/>
			</clipPath>
			<defs>
				<filter id="Adobe_OpacityMaskFilter_1_" filterUnits="userSpaceOnUse" x="40.6" y="88.1" width="14.2" height="14.2">
					<feColorMatrix  type="matrix" values="1 0 0 0 0  0 1 0 0 0  0 0 1 0 0  0 0 0 1 0"/>
				</filter>
			</defs>
			<mask maskUnits="userSpaceOnUse" x="40.6" y="88.1" width="14.2" height="14.2" id="SVGID_8_">
				<g class="st15">
					
						<radialGradient id="SVGID_9_" cx="3.950211e-05" cy="186.386" r="1" gradientTransform="matrix(7.0979 0 0 -7.0979 47.6977 1418.1688)" gradientUnits="userSpaceOnUse">
						<stop  offset="0" style="stop-color:#FFFFFF"/>
						<stop  offset="0.133" style="stop-color:#FBFBFB"/>
						<stop  offset="0.2596" style="stop-color:#F0F0F0"/>
						<stop  offset="0.3835" style="stop-color:#DDDDDD"/>
						<stop  offset="0.5059" style="stop-color:#C2C2C2"/>
						<stop  offset="0.6273" style="stop-color:#9F9F9F"/>
						<stop  offset="0.7478" style="stop-color:#747474"/>
						<stop  offset="0.8676" style="stop-color:#414141"/>
						<stop  offset="0.9841" style="stop-color:#080808"/>
						<stop  offset="1" style="stop-color:#000000"/>
					</radialGradient>
					<rect x="40.6" y="88.1" class="st16" width="14.2" height="14.2"/>
				</g>
			</mask>
			
				<radialGradient id="SVGID_10_" cx="3.950211e-05" cy="186.386" r="1" gradientTransform="matrix(7.0979 0 0 -7.0979 47.6977 1418.1688)" gradientUnits="userSpaceOnUse">
				<stop  offset="0" style="stop-color:#D68B73"/>
				<stop  offset="0.3594" style="stop-color:#D68F74"/>
				<stop  offset="0.7004" style="stop-color:#D69A76"/>
				<stop  offset="1" style="stop-color:#D6AB79"/>
			</radialGradient>
			<rect x="40.6" y="88.1" class="st17" width="14.2" height="14.2"/>
		</g>
		<path class="st0" d="M92.5,92.7c-0.2-0.4-0.4-0.7-0.4-1c0-0.2,0.1-0.4,0.2-0.6c0.2,0.1,0.4,0.1,0.5,0.2c0.4,0.4,0.8,0.9,1.2,1.3
			c0.7,0.5,1.5,1,2.2,1.5c0.3,0.2,0.7,0.3,0.5,0.8c-0.1,0.3-0.5,0.4-1,0.1c-0.4-0.2-0.7-0.4-1.1-0.7c-0.2,0.8-0.3,1.5-0.5,2.3
			c-0.5,1.9-1.2,3.6-2.4,5.2c-1.2,1.5-2.2,3.1-3.5,4.5c-2.3,2.4-5.1,3.7-8.4,4.1c-2.6,0.3-5.3,0.4-7.9,0.1c-3.7-0.4-7.3-1.6-10-4.4
			c-0.1-0.1-0.3-0.3-0.4-0.4c-3.3-2.9-4.6-6.5-4.6-10.8c0-0.1,0-0.2,0-0.4c0,0,0-0.1-0.1-0.1c-0.6,0-1.3,0.5-2-0.1
			c0.2-0.1,0.3-0.3,0.5-0.4c0.8-0.5,1.7-1,2.6-1.5c0.2-0.1,0.3-0.2,0.5-0.3c0.2,0,0.4,0,0.5,0.1c0.1,0.1,0.1,0.4,0,0.5
			c-0.1,0.2-0.3,0.4-0.5,0.6c0.9,0.4,1.9,0.7,2.8,0.9c0.8,0.2,1.6,0.5,2.4,0.6c1.4,0.3,2.7,0.6,4.1,0.7C71,96,74.6,96.2,78.1,96
			c2.3-0.1,4.7-0.4,7-0.7c2.1-0.3,4.1-1.1,6-2C91.6,93.2,92,93,92.5,92.7 M57.4,94.3c0.1,0.8,0.1,1.6,0.2,2.3
			c0.5,2.7,1.3,5.2,3.2,7.2c0.8,0.8,1.7,1.6,2.5,2.4c0.8,0.8,0.8,0.7,1.8,0.2c0.4-0.2,0.7-0.4,1.1-0.5c2.3-0.9,4.7-1.6,7.2-1.8
			c3.2-0.2,6.2,0.2,9.1,1.5c0.7,0.3,1.3,0.7,1.9,1.1c0.4,0.3,0.8,0.3,1.2-0.1c0.7-0.6,1.4-1.2,2-1.9c1.1-1.4,2.1-2.8,3.1-4.2
			c1.2-1.7,1.8-3.6,2.3-5.6c0-0.2,0-0.5,0-0.7c-0.3,0-0.5,0-0.8,0.1c-1.1,0.4-2.2,1-3.3,1.4c-0.8,0.2-1.2,0.7-1.4,1.4
			c-0.3,1.1-1,2-1.9,2.7c-0.4,0.3-0.8,0.6-1.2,0.8c-1.7,1.1-3.4,1.8-5.5,1.9c-3.7,0.1-7.4-0.2-11.1-1c-2.4-0.5-4.2-1.9-4.9-4.4
			c-0.1-0.2-0.2-0.5-0.2-0.7c-0.1-0.5-0.4-0.7-0.8-0.9C60.4,95.1,59,94.7,57.4,94.3 M86.2,96.4c-7.6,1-15,1.1-22.5-0.3
			c0.6,2.6,2.8,4,4.9,4.3c1.5,0.2,3.1,0.5,4.6,0.6c2.2,0.1,4.4,0.1,6.6,0.1c0.2,0,0.4-0.1,0.6-0.1c1.9-0.6,3.7-1.6,5.1-3
			C85.8,97.5,86.1,97.1,86.2,96.4 M65.3,107.4c2.3,1,4.3,1.8,6.5,1.9c1.7,0.1,3.4,0,5.2,0c1.9,0,3.8-0.3,5.6-1
			c0.4-0.1,0.7-0.3,1.1-0.5c-0.2-0.2-0.3-0.3-0.5-0.4c-0.2-0.1-0.4-0.3-0.6-0.4c-2-1-4.1-1.5-6.2-1.7c-2-0.2-3.9,0-5.8,0.4
			C68.8,106.1,67.1,106.5,65.3,107.4"/>
		<path class="st0" d="M64.7,83.3c-0.2,0.8-0.4,1.6-0.6,2.4c-0.2,0.5-0.6,0.8-1.2,0.9c-0.5,0-0.9-0.2-1.2-0.7
			c-0.6-1.1-0.3-3.7,0.6-4.7c0.7-0.8,1.6-0.6,2,0.3c0.1,0.1,0.1,0.3,0.2,0.4c0,0.4,0.1,0.9,0.1,1.3C64.7,83.3,64.7,83.3,64.7,83.3"
			/>
		<path class="st0" d="M88.9,84.2c0,0.3,0,0.8-0.1,1.2c-0.1,0.5-0.4,1-0.9,1.1c-0.6,0.1-1.1-0.1-1.4-0.6C86.2,85.5,86,85,86,84.6
			c-0.1-0.7-0.1-1.5,0-2.3c0-0.3,0.1-0.6,0.2-0.8c0.5-0.9,1.4-1.1,2-0.2c0.3,0.5,0.5,1.1,0.7,1.7C88.9,83.4,88.9,83.8,88.9,84.2"/>
		<path class="st0" d="M80.3,87.2c-0.2,0.3-0.3,0.5-0.5,0.6c-0.1,0.1-0.4,0-0.5-0.1c-0.4-0.3-0.7-0.7-1.1-0.9
			c-1.9-1.3-4.3-1.3-6.2,0c-0.4,0.3-0.8,0.7-1.2,1c-0.1,0.1-0.4,0.1-0.5,0.1c0-0.2-0.1-0.5-0.1-0.7c0.1-0.2,0.2-0.4,0.4-0.6
			c2-2.3,6.3-3.1,9.1-0.3C79.9,86.6,80.1,86.9,80.3,87.2"/>
		<path class="st0" d="M85.7,74.1c1.9,0.1,3.6,0.6,5,1.6c0.4,0.3,0.6,0.7,0.9,1.1c0.2,0.3,0.1,0.6-0.2,0.7c-0.2,0-0.5-0.1-0.6-0.2
			c-1.1-1.4-2.6-1.8-4.2-2c-0.3,0-0.6,0-0.8-0.1c-0.3-0.1-0.7-0.3-0.5-0.7C85.3,74.3,85.7,74.1,85.7,74.1"/>
		<path class="st0" d="M65.3,74.5c-0.2,0.2-0.3,0.4-0.4,0.4c-0.3,0.1-0.6,0.2-0.9,0.2c-1.7,0.2-3.4,0.6-4.5,2.2
			c-0.1,0.1-0.4,0.2-0.5,0.1c-0.1-0.1-0.3-0.5-0.3-0.6c0.3-0.5,0.6-1,1-1.3c1-0.7,2.1-1.2,3.3-1.4c0.5-0.1,1-0.2,1.5-0.2
			C64.9,74.1,65.1,74.3,65.3,74.5"/>
		<path id="AreteIzq" class="st4" d="M120.1,98.2c0,0.8-1.1,1.8-1.9,1.7c-1-0.1-1.4-1.1-0.9-1.9c0.3-0.5,0.9-0.8,1.5-0.9
			C119.6,96.9,120.1,97.4,120.1,98.2"/>
		<path id="AreteDer" class="st4" d="M31.5,97.1c0.5,0.1,1.1,0.3,1.5,0.8c0.3,0.4,0.5,0.8,0.2,1.3c-0.2,0.5-0.7,0.6-1.2,0.7
			c-1,0.1-2-1.3-1.6-2.3C30.7,97.2,30.8,97.1,31.5,97.1"/>
	</g>
	<g id="Cabello">
		<path class="st18" d="M92.2,131.2c0.2,0,0.3,0.1,0.4,0.1c3.4,1.7,6.9,3.4,10.3,5.2c0.8,0.4,0.7,0.4,0.7,1.3
			c-0.1,1-0.1,2.1-0.5,3.1c-0.2,0.4-0.2,0.9-0.2,1.3c-0.1,1.5,0.9,2.6,2.4,2.7c0.6,0,1.3,0,1.9-0.3c1-0.6,1.6-1.4,1.7-2.6
			c0-0.5,0-1,0.1-1.6c0.1-0.3,0.2-0.7,0.4-1c0.3,0.2,0.7,0.4,1,0.6c0.2,0.2,0.4,0.4,0.5,0.6c0.6,0.7,1.2,1.5,1.8,2.2
			c0.3,0.4,0.7,0.7,1.1,1c1.4,1.1,2.8,0.6,3.6-0.3c0.3-0.4,0.6-0.4,1-0.3c0.7,0.2,1.3,0,2-0.3c0.8-0.5,1.1-1.2,1-2.1
			c0-0.4-0.1-0.8,0.3-1.2c1.4-1.2,0.9-2.5-0.1-3.5c-0.3-0.3-0.7-0.5-1.1-0.8c0.3-0.6,0.5-1.3,0.1-1.9c-0.6-0.8-1.2-1.6-2.2-1.7
			c-1.9-0.3-3.8-0.5-5.7-0.8c-1.2-0.2-2.5-0.3-3.7-0.5c-0.2,0-0.4-0.2-0.6-0.3c-3.1-1.7-6.3-3.5-9.4-5.2c-0.5-0.3-1-0.6-1.6-0.9
			c0.2-0.4,0.4-0.7,0.6-1.1c0.7-1.8-0.2-3.2-2.1-3.4c-0.1,0-0.3,0-0.6-0.1c0.3-0.3,0.6-0.5,0.8-0.7c0.9-0.9,1.6-1.9,1.5-3.3
			c0-0.6,0.3-0.7,0.7-0.9c1-0.4,2.1-0.8,3.1-1.3c2.5-1,4.5-2.7,6.6-4.4c1.6-1.3,2.7-3,3.8-4.8c1-1.8,2.2-3.4,2.8-5.4
			c0.1-0.5,1.2-0.8,1.5-0.4c0.1,0.1,0.1,0.4,0.2,0.5c0.1,1,0.6,1.7,1.6,1.9c1,0.2,1.9,0.1,2.6-0.7c1.2-1.3,1.3-2,0.3-3.8
			c0.2-0.2,0.4-0.4,0.7-0.6c0.8-0.8,1.6-1.6,2.1-2.6c1.1-1.8,1.1-3.7,0.4-5.7c-0.5-1.6-1.5-2.9-2.9-3.9c-1-0.6-2-1.1-3.1-1.1
			c-0.9,0-1.8,0-2.8,0c-1.1,0-1.9,0.4-2.6,1.2c-0.3,0.4-0.8,0.7-1.2,0.9c-0.9,0.5-1.7,0-1.7-1c0-0.2,0-0.4,0-0.6
			c0-0.3,0-0.7-0.4-0.8c-0.3,0-0.6,0-0.9,0.2c-0.3,0.2-0.6,0.6-0.9,0.8c-0.3,0.3-0.7,0.6-1,0.8c-0.7,0.4-1.4,0.3-1.9-0.4
			c-0.6-0.7-1-1.6-1.1-2.5c-0.1-1.3-0.2-2.6,0.3-3.8c0.1-0.2,0.2-0.3,0.1-0.5c0-0.3-0.1-0.7-0.3-0.8c-0.3-0.3-0.6-0.1-0.8,0.1
			c-1.1,0.9-2.4,0.8-3.7,0.6c-0.8-0.1-1.3-0.8-1.4-1.7c-0.1-1.7,0.2-3.3,0.7-4.8c0.2-0.5,0.5-0.7,1.1-0.8c2.1-0.5,3.8-1.6,5.3-3.2
			c0.4-0.4,0.6-0.8,0.9-1.3c0.1-0.2,0.2-0.5,0.2-0.8c0-0.5-0.5-0.8-0.9-0.5c-0.2,0.1-0.3,0.3-0.5,0.5c-0.9,1.4-2.3,2.4-3.7,3.1
			c-1.8,1-3.7,0.9-5.6,0.5c-1.1-0.2-2.2-0.6-3.1-1.2c-1-0.7-1.2-1-0.8-2.2c0.1-0.2,0.1-0.4,0.2-0.6c0.2-0.6,0-1.1-0.4-1.2
			c-0.4-0.1-0.7,0.1-1,0.6c-0.1,0.2-0.2,0.4-0.3,0.7c-0.1,0.3-0.2,0.7-0.4,1c-1,2.3-2.9,3.4-5.4,3.1c-1.3-0.1-2.6-0.6-3.7-1.3
			c-1-0.7-1.6-1.5-1.5-2.8c0-0.3,0-0.6,0-1c0-0.4-0.2-0.8-0.6-0.8c-0.2,0-0.6,0.3-0.7,0.5c-0.2,0.2-0.2,0.6-0.4,0.9
			c-0.4,0.7-0.8,1.5-1.3,2.1c-2.2,2.3-5.7,1.2-7-0.2C67.6,65,67.6,64,67.8,63c0.1-0.5,0.3-0.9,0.4-1.4c0-0.2-0.1-0.6-0.2-0.7
			c-0.3-0.2-0.6-0.1-0.8,0.1c-0.2,0.2-0.3,0.5-0.5,0.8c-1.2,1.6-2.7,2.6-4.8,2.4C60,64,59,63,58.8,61.1c0-0.5,0-1,0-1.4
			c0-0.3-0.1-0.6-0.2-0.8c0-0.1-0.3-0.3-0.3-0.3c-0.2,0.1-0.4,0.2-0.4,0.4c-0.1,1.1-0.2,2.1-0.2,3.2c0,0.8,0.1,1.5,0.1,2.3
			c0,0.4-0.1,0.7-0.2,1.1c-0.5,1.7-2.1,2.3-3.6,1.3c-0.2-0.2-0.4-0.4-0.7-0.5c-0.5-0.3-0.9-0.1-1,0.5c0,0.3,0,0.6,0,0.8
			c0.1,1.7,0.2,3.3,0.2,5c0,1-0.3,1.8-1.1,2.4c-0.5,0.3-1.1,0.5-1.6,0.7c-0.5,0.1-1,0-1.4-0.4c-0.2-0.2-0.4-0.3-0.6-0.4
			c-0.5-0.2-0.9-0.1-1,0.5c0,0.5,0.1,0.9,0.2,1.4c0.1,0.5,0.4,1,0.6,1.4c0.3,0.7,0.1,1.4-0.3,2c-0.3,0.4-0.6,0.7-1,1.1
			c-1.3,1.2-2.4,1.1-3.7-0.1c-0.5-0.5-1-1-1.4-1.4c-0.2-0.2-0.4-0.4-0.6-0.6c-0.3-0.2-0.7-0.5-1.1-0.3C39,79.2,39,79.6,39,80.1
			c0,0.2,0.1,0.3,0.1,0.5c0.2,1.2,0,2.2-1.1,3c-1.8-1.4-4-1-6-0.9c-0.6,0-1.3,0.4-1.9,0.7c-2.9,1.7-4.1,4.7-3.6,8
			c0.2,1.2,0.9,2.3,1.7,3.2c0.5,0.6,1.1,1.1,1.8,1.7c-0.1,0.1-0.1,0.2-0.2,0.4c-1.2,1.9-0.2,3.2,1.2,4c1.3,0.7,3.4,0,3.4-1.8
			c0-0.3,0-0.6,0.5-0.7c0.8,0,1.1,0,1.3,0.6c0.5,2,1.7,3.6,2.7,5.3c1.5,2.5,3.4,4.7,5.8,6.5c2.4,1.7,4.9,3.1,7.7,4.1
			c0.4,0.1,0.7,0.2,0.7,0.8c-0.1,1.5,0.7,2.7,1.8,3.6c0.1,0.1,0.2,0.2,0.4,0.3c0,0,0,0.1,0.1,0.2c-0.2,0-0.3,0-0.4,0
			c-1.9,0.1-2.9,1.7-2.1,3.4c0.1,0.3,0.3,0.6,0.6,1c-0.5,0.3-0.9,0.5-1.4,0.7c-2.6,1.4-5.3,2.8-7.9,4.3c-0.1,0-0.1,0.1-0.2,0.1
			c-1.7,1.4-3.8,1.6-5.8,1.8c-1.9,0.2-3.8,0.5-5.7,0.8c-1.2,0.2-1.9,0.9-2.4,2c-0.2,0.5,0,1.1,0,1.7c-0.3,0.2-0.7,0.5-1.1,0.9
			c-1,0.9-1.2,2.4,0,3.3c0.4,0.3,0.4,0.6,0.4,1c-0.3,2,1.6,3,3.1,2.6c0.4-0.1,0.6,0,0.9,0.3c1.1,1.1,2.3,1.2,3.5,0.3
			c0.7-0.5,1.3-1.2,1.9-1.9c0.7-0.8,1.3-1.6,2-2.3c0.5-0.5,0.8-0.4,0.9,0.3c0.1,0.6,0.2,1.3,0.2,1.9c0,2,2.1,3.5,4.3,2.8
			c0.9-0.3,1.5-1.1,1.5-2.1c0-0.6,0-1.3-0.2-1.9c-0.4-1-0.4-2.1-0.5-3.2c-0.1-0.4,0.1-0.7,0.5-1c2.2-1.1,4.5-2.3,6.7-3.4
			c0.7-0.4,1.4-0.7,2.2-1c0.6-0.3,1.3-0.6,2-1c-0.2,1.3-0.4,2.5-0.6,3.6c0,0.3-0.1,0.6-0.1,0.8c-0.1,0.6,0,1.2,0.7,1.5
			c0.4,0.2,0.5,0.5,0.3,1c-1,3.1-1.7,6.2-2.2,9.4c0,0.2-0.1,0.4-0.1,0.6c-0.1,0.3-0.2,0.6-0.6,0.6c-0.7,0-1,0.5-1.1,1.1
			c-0.2,0.7-0.3,1.4-0.4,2.2c-0.6-0.7-1.2-0.4-1.8,0.1c-1.3,1-2.8,1.5-4.5,1.4c-1.6-0.1-2.2-0.3-2.9-2.2c-0.1-0.3-0.1-0.5-0.2-0.8
			c-0.2-0.8-0.7-1.1-1.4-0.7c-0.6,0.3-1.3,0.7-1.9,1.1c-0.7,0.4-1.5,0.5-2.3,0.5c-1.3-0.1-1.9-0.5-2.3-1.8c-0.2-0.5-0.2-1.1-0.3-1.6
			c-0.2-1-0.5-1.2-1.5-0.9c-1.3,0.4-2.6,0.7-4,0.5c-1.5-0.2-2.9-0.6-4.2-1.2c-1.7-0.8-2.7-2.2-2.6-4.2c0-0.5,0.2-1-0.4-1.3
			c-0.6-0.3-1,0.2-1.4,0.5c-0.6,0.5-1.2,1-1.9,1.4c-0.7,0.3-1.4,0.6-2.1,0.7c-2,0.1-3.1-0.8-3.4-3c-0.1-0.7,0-1.4,0-2
			c0-0.8-0.3-1.1-1-0.8c-2.2,0.8-4.3,0.5-6.5-0.1c-1.6-0.4-2.5-1.5-2.6-3.1c-0.1-1.1,0-2.2,0.1-3.3c0.2-1.2,0.7-2.2,1.9-2.7
			c0.3-0.1,0.6-0.4,0.4-0.7c-0.1-0.4-0.5-0.5-0.9-0.4c-0.9,0.3-1.9,0.3-2.8,0c-1.6-0.4-2.6-1.5-2.6-3.2c0-0.9,0.1-1.8,0.3-2.7
			c0.3-1.2,1.1-2,2.3-2.5c0.4-0.2,0.8-0.4,1.1-0.6c0.4-0.3,0.3-0.7-0.1-1c-0.4-0.2-0.8-0.4-1.2-0.6c-1.8-0.8-2.3-1.8-2.1-3.7
			c0.1-0.9,0.3-1.7,0.7-2.5c0.5-0.9,1.2-1.3,2.2-1.4c0.3,0,0.6,0,1,0c0.8-0.1,1.6-0.3,2.2-1c0.3-0.3,0.8-0.5,0.9-0.8
			c0.1-0.3-0.3-0.7-0.3-1.1c0-0.6,0-1.2,0.1-1.8c0.3-1.7,1-3.3,2-4.7c0.3-0.4,0.6-0.8,0.9-1.3c0.4-0.8,0.3-1.4-0.4-1.9
			c-0.3-0.2-0.7-0.4-1-0.6c-0.7-0.5-1-1.1-0.9-1.9c0.4-3.1,1.7-5.5,4.5-7.1c0.3-0.2,0.7-0.4,1-0.7c0.4-0.4,0.4-0.8,0-1.3
			c-0.2-0.2-0.4-0.4-0.7-0.5c-0.4-0.3-0.8-0.5-1.2-0.8c-1.6-1.1-2.2-2.6-1.8-4.5c0.7-2.8,2-5.3,4.3-7.2c1.2-1,2.7-1.6,4.3-1.7
			c0.1,0,0.2,0,0.4,0c1-0.1,1.3-0.6,0.6-1.3C19,67.6,19,66,19.3,64.5c0.4-2,1.4-3.8,2.8-5.3c0.6-0.7,1.3-1.2,2.3-0.8
			c0.2,0.1,0.4,0,0.6,0c0.3-0.1,0.5-0.5,0.2-0.8c-0.1-0.2-0.3-0.3-0.5-0.4c-1.6-1.1-2-2.6-1.2-4.3c0.3-0.7,0.8-1.3,1.2-1.9
			c1.3-1.5,2.8-2.8,4.5-3.8c1.2-0.7,2.5-1,3.9-0.9c0.7,0.1,1.4,0.2,1.8,1c0.3,0.6,0.7,0.6,1.2,0c1.4-1.6,3.1-2.6,4.9-3.6
			c0.4-0.2,0.9-0.4,1.3-0.6c1.4-0.4,2.6,0.1,3.4,1.3c0.2,0.4,0.3,1,0.9,1c0.6,0,0.6-0.6,0.9-1c1.2-2.1,2.9-3.6,5.2-4.5
			c2-0.8,4.1,0.3,5,2.4c0.2,0.5,0.3,1,0.5,1.5c0.4,1,0.8,2,1.3,3.2c-0.2,0.1-0.4,0.2-0.7,0.3c-0.5,0.2-1,0.3-1.5,0.5
			c-1.2,0.6-1.9,1.5-1.9,2.9c0,1.6,0.1,3.1,0.9,4.5c0.2,0.4,0.5,0.8,0.8,1.2c0.2,0.2,0.6,0.3,0.8,0.3c0.2,0,0.3-0.4,0.4-0.7
			c0.1-0.2,0-0.4,0-0.6c0.3-2.4,1.4-4.3,3.4-5.6c0.7-0.5,1.5-0.7,2.4-0.7c0.7,0,1.3,0.2,1.6,0.9c0.1,0.1,0.1,0.3,0.2,0.4
			c0.3,0.4,0.9,0.3,1.1-0.1c0.1-0.4,0.1-0.8,0.2-1.2c0.1-1.3,0.1-2.7,0.3-4c0.2-1.1,0.7-2.1,1.3-3.1c1.2-1.9,3.8-2.4,5.6-1.7
			c1.4,0.6,2.7,1.4,3.8,2.4c0.3,0.2,0.5,0.5,0.8,0.8c0.3,0.3,0.6,0.5,1,0.3c0.2-0.1,0.4-0.5,0.5-0.8c0.2-1.8,1.1-3.3,2.2-4.7
			c1.3-1.6,3.1-2.2,5-2.6c1.7-0.3,3.3-0.5,5-0.1c3,0.6,4.8,2.8,5,5.9c0,0.6,0,1.1,0,1.7c0,0.3,0,0.6,0.1,0.9c0.2,0.4,0.7,0.5,1,0.2
			c0.2-0.2,0.3-0.5,0.5-0.8c0.5-0.8,1-1.7,1.6-2.3c2.2-2.3,6.1-2,8,0.5c0.4,0.5,0.6,1,0.9,1.6c0.2,0.4,0.3,0.8,0,1.3
			c-0.2,0.4-0.2,0.8,0.2,1.1c0.4,0.3,0.8,0.2,1.1,0c1-0.7,2.1-0.7,3.2-0.6c1.8,0.2,3.2,1.5,3.5,3.3c0,0.1,0,0.3,0.1,0.4
			c0.1,0.2,0.3,0.6,0.4,0.6c0.4,0,0.7-0.2,0.8-0.6c0.1-0.8,0.1-1.6-0.4-2.3c-1-1.7-2.5-2.7-4.6-2.8c-0.7,0-1.4,0-2,0
			c-0.4,0-0.6-0.1-0.8-0.5c-0.4-1.1-1.1-2.2-1.9-3c-1.1-1.2-2.5-1.8-4.2-1.8c-2.3,0-4.3,0.6-5.9,2.4c-0.1,0.1-0.2,0.1-0.3,0.2
			c-0.1-0.3-0.1-0.6-0.2-0.9c-0.8-3.1-3-5.2-6.2-5.6c-2.4-0.3-4.9-0.1-7.2,0.7c-2.8,0.9-4.6,3-5.7,5.6c-0.2,0.4-0.3,0.7-0.5,1.1
			c-0.7-0.5-1.3-1-2-1.4c-1.4-0.9-2.9-1.5-4.6-1.5c-2.3,0.1-4,1.1-5.2,3.1c-1,1.8-1.6,3.7-1.6,5.7c0,0.2,0,0.4,0,0.6
			c0,0,0,0.1-0.1,0.2c-0.2,0-0.4-0.1-0.6-0.1c-1.7-0.3-3.2,0.2-4.6,1.3c-1.4,1.2-2.3,2.7-2.8,4.5c-0.1,0.2-0.1,0.4-0.1,0.6
			c0,0,0,0.1-0.2,0.2c-0.1-0.2-0.2-0.4-0.3-0.6c-0.2-1-0.5-2-0.5-3c-0.1-1.2,0.5-2,1.6-2.3c0.6-0.2,1.3-0.4,2-0.6
			c0.3-0.1,0.6-0.1,0.8-0.2c0.5-0.2,0.6-0.6,0.3-1.1c-0.2-0.4-0.6-0.8-0.9-1.1c-0.8-1.1-1.1-2.4-1-3.7c0.1-1.1,0.6-1.7,1.7-1.8
			c0.7-0.1,1.4-0.1,2.1,0c1.2,0.1,1.5-0.3,1.3-1.5c-0.1-0.7-0.2-1.4-0.2-2.1c0-1.5,0.9-2.8,2.4-3.2c2.1-0.6,4.1-0.6,5.9,0.9
			c0.7,0.6,1,0.5,1.5-0.2c1.1-1.7,2.5-2.9,4.1-3.9c2.8-1.7,4.8-1.4,7,1.3c0.2,0.2,0.4,0.5,0.5,0.8c0.7,0.9,1.1,0.9,1.8,0
			c0.7-0.9,1.4-1.7,2.2-2.5c1-1,2.2-1.6,3.6-1.3c2.3,0.4,4.2,1.4,5.8,3.2c0.3,0.3,0.4,0.8,0.5,1.2c0.1,0.2,0,0.4,0.1,0.6
			c0.2,0.5,0.5,0.6,1,0.4c0.1-0.1,0.2-0.1,0.3-0.2c1.9-1.6,4.2-2.3,6.6-2.7c1.5-0.2,3-0.4,4.5-0.1c2.3,0.4,3.5,1.7,3.6,4.1
			c0,0.6,0,1.2,0,1.8c0,0.4,0.1,0.7,0.5,0.9c0.4,0.1,0.7,0,0.9-0.4c0.3-0.5,0.7-0.8,1.2-0.9c2.8-0.8,6-0.5,8.1,2.1
			c1.3,1.5,2,3.3,2.4,5.2c0.1,0.6,0,1.2-0.4,1.7c-0.5,0.7-0.3,1.1,0.5,1.3c0.3,0.1,0.7,0.1,1.1,0.2c3.1,0.3,5.6,2.8,6.1,5.9
			c0.1,0.8-0.1,1.4-0.9,1.9c-1.1,0.7-1,1.5,0.2,2.2c0.6,0.3,1.2,0.6,1.8,1c2.1,1.3,3.4,3.1,4,5.5c0,0.2,0.1,0.4,0.1,0.6
			c0.1,1-0.1,1.2-1.1,1.2c-0.3,0-0.6,0-0.8,0.1c-0.2,0-0.3,0.2-0.4,0.4c0.1,0.1,0.2,0.3,0.4,0.4c0.1,0.1,0.3,0.1,0.5,0.1
			c1.1,0.2,2.3,1.4,2.4,2.5c0,0.4-0.1,0.8-0.3,1.1c-0.1,0.3-0.4,0.4-0.5,0.7c-0.1,0.2-0.1,0.6,0.1,0.8c0.1,0.2,0.5,0.2,0.7,0.1
			c0.2,0,0.4-0.2,0.6-0.3c1.4-0.7,2.4-0.3,3,1.2c0.8,2.2,0.5,4.2-1,6c-0.3,0.3-0.6,0.6-0.9,1c-0.1,0.2-0.2,0.5-0.1,0.8
			c0.1,0.3,0.5,0.4,0.8,0.4c0.3-0.1,0.5-0.2,0.8-0.2c0.8-0.3,1.4,0,1.9,0.6c0.3,0.5,0.6,1,0.8,1.5c1,2.3,1.1,4.6-0.1,6.8
			c-0.6,1-1.1,2-1.7,3.1c-0.1,0.2-0.3,0.5-0.3,0.8c-0.1,0.5,0.3,0.9,0.9,0.8c0.2,0,0.4-0.2,0.5-0.2c1.2-0.4,2.2,0.1,2.4,1.4
			c0.2,0.8,0.2,1.7-0.2,2.5c-0.2,0.6-0.5,1.1-0.7,1.6c-0.4,0.8-0.9,1.6-1.9,1.8c-0.4,0.1-0.8,0.4-1,0.8c-0.3,0.4-0.3,0.9-0.1,1.3
			c0.2,0.4,0.8,0.5,1.3,0.3c0.4-0.2,0.8-0.4,1.1-0.7c0.5-0.5,1-0.6,1.7-0.7c2.1-0.1,3.8,0.8,5.1,2.4c0.3,0.3,0.5,0.7,0.6,1.1
			c0.3,0.7,0.2,1.5-0.4,2c-0.6,0.5-1.3,1-2,1.5c-1.3,1-2.7,1.9-4,2.9c-0.2,0.1-0.4,0.3-0.5,0.5c-0.4,0.5-0.2,1,0.4,1.2
			c0.1,0,0.2,0.1,0.4,0.1c0.8-0.1,1.2,0.4,1.5,1c0.7,1.3,0.8,2.7,0.8,4.1c0,1-0.6,1.9-1.2,2.5c-1,0.9-1.2,1.9-0.7,3.1
			c0,0.1,0,0.1-0.1,0.3c-0.3,0-0.7-0.1-1-0.1c-0.3,0-0.6,0.1-0.9,0.3c-0.4,0.2-0.4,0.7,0,1c0.1,0.1,0.3,0.2,0.4,0.2
			c1,0.1,1.4,0.7,1.6,1.5c0.3,1.2,0.6,2.5,0.8,3.7c0.2,1.5-0.3,2.3-1.6,2.8c-1.1,0.5-2.3,0.6-3.5,0.4c-0.3-0.1-0.6-0.2-0.9-0.2
			c-0.4,0-0.8,0.1-0.9,0.6c-0.1,0.4,0.1,0.7,0.4,0.9c0.3,0.2,0.6,0.2,0.9,0.4c0.5,0.2,0.6,0.6,0.5,1.1c-0.1,0.2-0.1,0.5-0.2,0.7
			c-0.6,1.4-1.4,2.7-2.5,3.8c-0.4,0.4-0.9,0.8-1.5,1c-1.4,0.6-2.8,0.9-4.3,1c-0.6,0-1.2,0-1.8-0.4c-0.6-0.4-1.1-0.1-1.2,0.6
			c-0.1,0.6-0.1,1.2-0.2,1.8c-0.2,1-0.8,1.7-1.7,2.1c-1.7,0.7-3.3,1.3-5.2,0.9c-0.2,0-0.4-0.1-0.6-0.1c-0.5,0-0.8,0.4-0.7,0.9
			c0,0.2,0.1,0.4,0.2,0.6c0.3,1.1,0.1,1.7-1,2.1c-0.4,0.2-0.9,0.3-1.4,0.3c-2.1,0.2-4.2,0-6.3-0.5c-0.6-0.1-1.1-0.4-1-1.2
			c0-0.4-0.2-0.8-0.7-0.9c-0.4-0.1-0.8,0.3-0.9,0.8c-0.1,0.4,0,0.8,0,1.2c0.1,1.4-0.6,2.3-2,2.4c-1.3,0.1-2.5-0.1-3.6-0.6
			c-0.9-0.4-1.6-0.9-1.8-1.9c0-0.1,0-0.2-0.1-0.2c-0.1-0.3-0.3-0.6-0.7-0.6c-0.4,0-0.6,0.2-0.7,0.6c-0.1,0.3-0.1,0.7-0.3,1
			c-0.9,1.3-2.1,2-3.8,2c-0.7,0-0.9-0.2-1-0.9c0-0.3,0-0.6-0.1-0.8c-0.1-0.6-0.6-0.7-1.1-0.3c-0.2,0.2-0.4,0.4-0.6,0.6
			c-0.9,0.9-1.9,1.7-3,2.3c-0.9,0.4-1.4,0.3-2-0.2c-0.3-0.3-0.3-0.5,0.1-0.8c0.5-0.3,0.9-0.6,1.4-1c0.9-0.7,0.4-1.6,0.3-2.4
			c-0.1-0.7-0.3-1.4-1.2-1.4c-0.5,0-0.6-0.3-0.6-0.7c-0.5-3.4-1.3-6.7-2.3-10c-0.1-0.4-0.1-0.6,0.3-0.8c0.8-0.4,0.9-1,0.8-1.8
			c-0.2-1.2-0.4-2.4-0.6-3.7C92.2,131.6,92.2,131.4,92.2,131.2 M34.5,69.1c-0.4,0.5-0.8,0.6-1.4,0.6c-0.4,0-0.9,0-1.3,0
			c-2.8,0-4.9,1.4-6.5,3.4c-0.4,0.4-0.6,0.6-1.2,0.6c-1.8-0.2-4.7,1.9-5.1,4.2c-0.2,1.1-0.1,2.2,0,3.3c0,0.5,0,0.7-0.3,1
			c-1.1,1-1.7,2.3-1.9,3.8c-0.1,0.9,0,1.8,0.6,2.6c0.5,0.6,0.5,0.6,0.1,1.3c-0.3,0.4-0.6,0.9-0.8,1.4c-0.4,0.8-0.6,1.7-0.5,2.7
			c0,0.6,0.3,1.1,0.9,1.3c0.3,0.1,0.6-0.1,0.5-0.4c-0.1-0.4-0.2-0.9-0.2-1.3c0-1.3,0.6-2.5,1.5-3.4c0.7-0.7,0.7-1.2-0.1-1.8
			c-0.8-0.6-1-1.3-0.8-2.2c0.1-0.7,0.4-1.3,0.7-1.9c0.3-0.7,0.7-1.2,1.6-1.3c0.6-0.1,0.7-0.5,0.4-1c-0.9-1.1-0.6-2.4-0.5-3.7
			c0.1-0.6,0.4-1.1,0.8-1.6c1-1.2,2.2-1.9,3.9-1.6c0.8,0.1,0.9,0,1.2-0.8c0.1-0.3,0.2-0.6,0.4-0.8c2-2.1,4.4-2.9,7.2-2.4
			c-0.2,0.7-0.3,1.3-0.4,1.9c-0.1,0.4-0.3,0.5-0.6,0.6c-2.3,0.4-4.5,2.7-4.7,5.1c-0.1,0.7-0.2,1-1,1.2c-1,0.2-1.8,1.4-1.7,2.2
			c0,0.2,0.2,0.5,0.4,0.6c0.1,0,0.4-0.2,0.5-0.4c0.1-0.2,0.2-0.5,0.3-0.6c0.2-0.3,0.5-0.6,0.8-0.7c0.2-0.1,0.5,0.2,0.7,0.3
			c0.5,0.3,0.9,0.1,1-0.4c0-0.1,0-0.3,0-0.5c0-0.6,0-1.3,0.1-1.9c0.4-1.8,1.6-2.9,3.1-3.7c0.3-0.2,0.7-0.2,0.9,0.2
			c0.2,0.3,0.5,0.6,0.9,0.4c0.4-0.2,0.4-0.6,0.4-0.9c0-0.1,0-0.2,0-0.4c0-2.7,1.2-4.8,3.3-6.5c0.4-0.4,0.8-0.2,1.2-0.1
			c0.4,0.1,0.3,0.5,0.3,0.8c0,0.3,0.1,0.6,0.1,0.8c0.4,2.5,2.7,3.8,5,2.7c2.3-1.1,4.2-2.6,5.6-4.8c0.5-0.8,1-1.6,1.4-2.4
			c0.3-0.5,0.5-1.1,0.5-1.7c0.1-1.2-0.2-2.3-0.7-3.4c-0.5-1.1-1.2-1.5-2.4-1.4c-0.8,0.1-1.7,0.3-2.4,0.7c-1,0.6-1.9,1.3-2.9,1.9
			c-0.4,0.3-0.7,0.5-1.1,0.8c-1.1-0.6-1.2-1.4-0.9-2.4c0.3-1.1,0.3-2.2,0-3.3c-0.4-1.1-1-2.1-2.2-2.3c-1.1-0.3-2.3-0.2-3.3,0.4
			c-1.3,0.8-2.5,1.6-3.4,2.8c-2.2,2.9-3.2,6.2-3,9.9c0,0.8,0.4,1.3,1,1.6c0.3,0.2,0.6,0.3,0.9,0.3C32.8,68.9,33.6,69,34.5,69.1
			 M75.2,54.6c-0.1-0.2-0.2-0.5-0.4-0.6c-0.8-0.9-1.8-1.3-3-1.4c-1.2-0.1-2.5,0.1-3.7,0.4c-1.9,0.6-3.6,1.5-4.9,3.1
			c-0.3,0.3-0.5,0.8-0.6,1.2c0,0.1,0.1,0.3,0.2,0.4c0.1,0.1,0.3,0,0.4-0.1c0.1-0.1,0.1-0.2,0.2-0.3c2.1-2.6,4.9-3.8,8.2-3.8
			c0.9,0,1.6,0.3,2.3,0.9c0.4,0.4,0.7,0.8,0.4,1.4c-0.2,0.4-0.1,0.7,0.3,0.9c0.4,0.2,0.7,0,0.9-0.3c0.2-0.2,0.3-0.4,0.4-0.6
			c0.7-0.6,1.3-1.3,2.1-1.7c2-1,3.5-0.7,4.9,0.8c0.2,0.2,0.3,0.4,0.5,0.5c0.8,1.1,1.7,2.3,2.5,3.3c0.6,0.8,1.1,0.7,1.5-0.2
			c0.1-0.2,0.1-0.5,0.2-0.7c0.4-0.9,0.7-1.8,1.2-2.6c0.8-1.4,2-2.4,3.6-2.8c1.4-0.3,2.8-0.4,4.2-0.3c1.7,0.1,2.8,1.2,3.3,2.9
			c0.4,1.4,0.1,2.7-0.9,3.8c-0.5,0.5-0.5,1.1-0.1,1.4c0.4,0.3,0.9,0.1,1.3-0.4c0.1-0.2,0.2-0.3,0.4-0.5c0.3-0.2,0.5-0.5,0.8-0.7
			c1.8-0.8,3.6-0.7,5.2,0.6c0.3,0.3,0.5,0.5,0.3,1c-0.3,0.7,0.2,1.2,0.9,1c0.1,0,0.2-0.1,0.3-0.1c0.9-0.4,1.9-0.5,2.8-0.4
			c2.1,0.2,3.9,1,4.6,3.2c0.1,0.4,0.4,0.6,0.8,0.6c0.4-0.1,0.5-0.4,0.5-0.7c0.1-0.8-0.3-1.4-0.8-1.9c-1.4-1.4-2.9-2.4-5-2.4
			c-0.6,0-1.2,0-1.8,0c-0.6,0.1-0.9-0.1-1.3-0.5c-1.3-1.2-2.8-2-4.6-1.9c-0.7,0.1-1.3,0.1-2.1,0.2c0-0.5,0-0.9,0-1.3
			c-0.2-2.9-2.1-4.8-5-4.9c-1.3,0-2.6,0.1-3.8,0.3c-1.8,0.3-3.3,1.3-4.3,2.8c-0.5,0.7-0.9,1.5-1.3,2.3c-0.1,0.2-0.3,0.5-0.5,0.8
			c-0.3-0.4-0.5-0.7-0.8-1c-0.8-0.9-1.6-1.9-2.5-2.8c-0.7-0.7-1.6-1-2.6-1c-1.6,0-3.1,0.4-4.3,1.5C75.9,54,75.7,54.2,75.2,54.6
			 M121.8,75.3c0.1-1.6,0-3.1-0.6-4.5c-1.2-2.7-3.4-3.9-6.4-3c-0.3,0.1-0.5,0.2-0.8,0.3c-0.3,0.1-0.5,0.4-0.3,0.7
			c0.2,0.4,0.5,0.1,0.7,0c2.7-1,4.7,0.1,5.7,2.2c0.3,0.6,0.4,1.4,0.5,2.1c0.1,1,0,2-0.5,2.9c-0.2,0.3-0.3,0.7,0.1,1
			c0.3,0.3,0.7,0.2,1,0c0.3-0.2,0.6-0.3,1-0.4c1.3-0.4,2.6-0.5,3.8,0.4c1.2,1,2.2,2.2,2.8,3.7c0.4,1.1,0.4,2.1-0.3,3.1
			c-0.1,0.1-0.2,0.3-0.3,0.4c-0.4,0.8-0.2,1.3,0.5,1.7c0.3,0.1,0.7,0.2,1,0.4c2.1,0.9,3.6,2.5,4.3,4.7c0.7,2,0.2,3.3-1.5,4.5
			c-0.3,0.2-0.5,0.4-0.8,0.6c-0.7,0.6-0.6,1.2,0.3,1.5c0.4,0.1,0.9,0.2,1.3,0.3c1.5,0.5,2.4,1.6,2.8,3.2c0.4,1.5-0.2,2.6-1.3,3.5
			c-0.5,0.4-1,0.8-1.4,1.3c-0.5,0.5-0.4,0.9,0.3,1.3c0.2,0.1,0.6,0.3,0.6,0.5c0.2,1,0.5,2.1-0.2,3.1c-0.1,0.2-0.3,0.4-0.4,0.6
			c-0.2,0.3-0.2,0.5,0.1,0.8c0.3,0.2,0.6,0.1,0.8,0c0.7-0.5,1.1-1.3,1.2-2.1c0.1-1.3,0.1-2.6-0.8-3.8c0.5-0.5,1.1-0.9,1.5-1.4
			c0.7-0.8,1.1-1.8,1.1-2.8c-0.1-2.2-1.2-3.9-3.1-4.9c-0.3-0.1-0.5-0.3-0.8-0.4c0.3-0.3,0.5-0.7,0.8-0.9c0.8-0.8,1.2-1.8,1.2-2.9
			c0-0.8-0.1-1.6-0.4-2.3c-0.8-2.4-2.5-4.1-4.7-5.2c-0.3-0.2-0.6-0.3-1-0.5c1.1-1.5,1.1-3,0.4-4.6c-0.3-0.7-0.7-1.4-1.2-2.1
			C127,75.6,124.9,74.3,121.8,75.3 M119.3,56.8c-0.1-1.3-0.1-2.5-0.2-3.6c-0.3-2.2-1.6-3.4-3.6-4.1c-1.2-0.4-2.4-0.3-3.6-0.1
			c-0.6,0.1-1.2,0.3-1.9,0.5c-0.2,0.1-0.2,0.3-0.3,0.5c0.2,0.1,0.4,0.3,0.6,0.3c0.4,0,0.9-0.2,1.3-0.3c1.1-0.2,2.2-0.2,3.3,0.1
			c1.9,0.5,3,1.8,3.1,3.8c0,1,0,2,0,3c0,0.4,0,0.9,0,1.3c0,0.5,0.4,0.8,0.9,0.6c0.2-0.1,0.5-0.3,0.7-0.5c0.6-0.6,1.4-0.9,2.3-0.9
			c2-0.1,3.3,1,4.2,2.6c0.5,0.8,0.5,1.6,0.1,2.5c-0.4,0.8-0.1,1.2,0.8,1.2c0.5,0,1,0,1.6,0c1.2,0.1,1.9,0.9,2.4,1.9
			c0.4,0.8,0.5,1.6-0.2,2.4c-0.5,0.5-0.2,1.1,0.5,1.2c0.2,0,0.3,0,0.5,0c0.7,0,1.3,0.4,1.7,1c0.5,0.8,0.9,1.6,0.8,2.6
			c0,0.2,0.1,0.5,0.3,0.6c0.2,0.1,0.6,0,0.7-0.2c0.2-0.3,0.4-0.6,0.3-1c-0.1-1.7-0.8-3.1-2.2-4c-0.4-0.3-0.7-0.5-0.7-1.1
			c0.1-2.6-1.6-4.5-4.2-4.9c-0.7-0.1-0.7-0.1-0.7-0.8c0-2.3-1.3-3.8-3.2-4.9c-0.5-0.3-1.2-0.4-1.8-0.5
			C121.6,56,120.5,56.2,119.3,56.8 M20.9,124.7c-2.4-0.2-3.4,0.1-5,1.4c-0.7,0.5-0.9,1.1-0.6,1.8c0.2,0.4,0.5,0.4,0.7,0.1
			c0.1-0.1,0.1-0.2,0.2-0.3c1.6-1.9,3.4-2.4,5.3-1.3c0.1,0.1,0.2,0.1,0.3,0.2c0.3,0.2,0.7,0.3,1-0.1c0.3-0.3,0.1-0.6-0.1-0.9
			c-0.5-0.6-0.7-1.4-0.6-2.1c0.1-1.1,0.3-2.2,0.5-3.3c0.1-0.5,0.3-1,0.6-1.4c0.8-1.2,1.8-1.5,3.1-0.9c0.4,0.2,0.7,0.4,1,0.7
			c0.2,0.1,0.4,0.3,0.6,0.4c0.2,0,0.5,0,0.6-0.1c0.1-0.1,0.1-0.4,0.1-0.6c0-0.1-0.2-0.3-0.3-0.4c-0.9-0.8-1.3-1.9-1.4-3.1
			c0-1.6,0-3.1,0.3-4.7c0.1-0.9,0.5-1.8,1-2.7c0.7-1.2,1.5-1.6,2.9-1.3c0.3,0.1,0.6,0.2,0.9,0.2c0.2,0,0.4-0.2,0.6-0.3
			c-0.1-0.2-0.2-0.4-0.3-0.5c-1.6-0.9-3.6-0.5-4.7,1c-0.8,1-1.2,2.1-1.4,3.3c-0.4,2.2-0.4,4.5-0.1,6.8c-0.3,0-0.6,0-0.9,0
			c-0.9,0-1.6,0.2-2.1,0.9c-0.4,0.5-0.9,1.1-1.1,1.7c-0.5,1.1-0.8,2.3-0.8,3.6C20.8,123.3,20.9,124,20.9,124.7 M119.2,110.9
			c-0.1-0.6-0.2-1.2-0.4-1.7c-0.4-1.3-1.4-2.2-2.2-3.3c-0.1-0.1-0.2-0.1-0.3-0.1c-0.1,0-0.2,0.2-0.2,0.3c0.1,0.4,0.2,0.7,0.4,1.1
			c0.4,0.8,1,1.6,1.3,2.5c0.5,1.4,0.2,2.6-1,3.5c-0.6,0.4-1.2,0.8-1.8,1.2c-0.5,0.4-1.1,0.7-1.5,1.1c-0.9,0.9-1,2-0.3,3
			c0.3,0.5,0.7,0.8,1.2,1.2c0.5,0.5,1.1,0.9,1.5,1.3c0.7,0.7,0.6,0.9,0,1.6c-0.5,0.5-1,0.9-1.4,1.5c-0.3,0.4-0.5,0.8-0.6,1.3
			c-0.1,0.3,0.1,0.7,0.4,0.7c0.2,0,0.6-0.1,0.7-0.3c0.6-1,1.5-1.8,2.3-2.6c0.7-0.7,0.7-1.7,0.1-2.5c-0.2-0.4-0.6-0.7-0.9-1
			c-0.3-0.3-0.6-0.5-0.8-0.7c-2.1-1.8-2.1-2.2,0.1-3.8c0.6-0.4,1.2-0.9,1.8-1.4C118.6,113.2,119.2,112.2,119.2,110.9 M25.4,132.5
			c-0.4,0.1-0.6,0.1-0.9,0.2c-2.2,0.6-3,1.6-2.7,3.8c0.1,1.1,0.6,2,1,3.1c0.4-0.7,0.3-1.2,0.2-1.7c-0.1-0.5-0.2-1-0.3-1.5
			c-0.2-1.4,0.3-2.3,1.7-2.7c0.5-0.1,1.1-0.1,1.7-0.2c0.7-0.1,0.9-0.4,0.7-1.1c-0.2-0.5-0.3-1.1-0.4-1.6c-0.1-0.9,0.3-1.5,1.1-1.8
			c0.4-0.2,0.8-0.3,1.1-0.4c0.4-0.1,0.9-0.2,1.3-0.3c0.8-0.3,0.9-0.5,0.8-1.3c0-0.2-0.1-0.5-0.2-0.7c-0.1-0.6,0.1-1.2,0.7-1.6
			c0.4-0.2,0.8-0.4,1.2-0.6c0.4-0.2,0.7-0.3,1.1-0.5c0.1-0.1,0.3-0.4,0.2-0.5c-0.1-0.2-0.4-0.3-0.6-0.3c-2.2-0.1-4,1.7-3.8,3.9
			c0,0.4,0,0.6-0.4,0.7c-0.6,0.1-1.2,0.3-1.7,0.5c-1.6,0.7-2.2,1.6-2.1,3.2C25.3,131.5,25.3,132,25.4,132.5 M134.3,129.5
			c0.5-0.5,0.9-0.8,1.3-1.2c1.6-1.6,1.6-4.3,0-6.2c-0.2-0.3-0.5-0.5-0.8-0.2c-0.2,0.1-0.3,0.5-0.2,0.7c0.1,0.4,0.3,0.8,0.5,1.2
			c0.6,1.1,0.5,2.3-0.2,3.3c-0.4,0.6-1,1-1.6,1.4c-0.2,0.2-0.6,0.3-0.8,0.5c-0.4,0.3-0.4,0.7,0,1c0.2,0.2,0.5,0.3,0.7,0.4
			c0.6,0.3,1.2,0.6,1.7,0.9c1.2,0.8,1.5,1.6,1.2,3c-0.2,1.2-0.9,2.1-1.8,2.9c-0.4,0.4-0.9,0.8-1.4,1.2c-0.1,0.1-0.2,0.3-0.1,0.4
			c0.1,0.1,0.2,0.2,0.4,0.2c0.1,0,0.2,0,0.3-0.1c1.7-0.9,3.2-2.1,3.6-4.1c0.4-2.4,0.2-3.2-1.8-4.6C135,130,134.7,129.8,134.3,129.5
			 M47.3,114c-0.1-0.1-0.1-0.2-0.2-0.3c-0.8,0.3-1.6,0.7-2.4,0.9c-1,0.4-1.7,1.1-1.9,2.1c-0.1,0.5-0.3,0.7-0.8,0.9
			c-1.6,0.6-2.6,2.5-2.4,4c0.1,0.6,0.3,1,0.8,1.2c0.4,0.1,0.6-0.1,0.6-0.5c0-0.2,0-0.3-0.1-0.5c-0.4-1,0-1.8,0.7-2.5
			c0.6-0.7,0.8-0.7,1.6-0.3c0.1,0.1,0.2,0.1,0.3,0.1c0.2,0,0.5,0,0.6-0.2c0.1-0.1,0.1-0.4,0.1-0.5c0-0.1-0.1-0.3-0.2-0.4
			c-0.4-0.8-0.3-1.6,0.4-2.2c0.5-0.4,1-0.7,1.5-1C46.5,114.5,46.9,114.2,47.3,114 M99.6,139.9c-0.1-0.4-0.1-0.9-0.3-1.3
			c-0.1-0.3-0.3-0.6-0.6-0.7c-0.2-0.1-0.6-0.2-0.7-0.1c-0.3,0.2-0.2,0.5,0,0.7c0.6,0.6,0.6,1.4,0.4,2.1c-0.2,0.7-0.4,1.3-0.7,1.9
			c-0.1,0.3-0.4,0.6-0.5,0.9c-0.4,0.8-0.4,0.9,0.3,1.5c0.4,0.4,0.7,0.8,0.9,1.2c0.5,1.1,0.6,2.2-0.1,3.3c-0.1,0.2-0.2,0.5,0.1,0.6
			c0.2,0.1,0.5,0,0.7-0.1c0.2-0.1,0.3-0.4,0.4-0.6c0.5-1.7,0.4-3.4-0.8-4.9c-0.4-0.5-0.5-0.9-0.1-1.4
			C99.2,142.3,99.6,141.1,99.6,139.9 M144.8,125.4c0-0.3,0-0.6-0.1-1c-0.1-0.5-0.3-0.9-0.8-1.2c-0.2-0.1-0.5,0-0.8,0
			c0,0.2,0,0.4,0,0.7c0,0.1,0.1,0.2,0.1,0.3c0.3,1,0.2,2-0.5,2.8c-0.2,0.2-0.3,0.5-0.4,0.7c-0.1,0.2,0,0.4,0.1,0.5
			c0.1,0.1,0.4,0.1,0.5,0.1c0.2,0,0.4-0.2,0.5-0.3C144.3,127.5,144.8,126.6,144.8,125.4"/>
		<path class="st19" d="M56.7,51.1c0.1,1,0.3,2,0.5,3c0,0.2,0.2,0.4,0.3,0.6c0.1-0.1,0.1-0.2,0.2-0.2c0.1-0.2,0.1-0.4,0.1-0.6
			c0.5-1.8,1.4-3.3,2.8-4.5c1.3-1.1,2.8-1.6,4.6-1.3c0.2,0,0.4,0.1,0.6,0.1c0.1-0.1,0.1-0.2,0.1-0.2c0-0.2,0-0.4,0-0.6
			c0.1-2,0.6-3.9,1.6-5.7c1.2-2,2.9-3,5.2-3.1c1.7-0.1,3.2,0.6,4.6,1.5c0.7,0.4,1.3,0.9,2,1.4c0.2-0.4,0.3-0.8,0.5-1.1
			c1.2-2.6,2.9-4.7,5.7-5.6c2.4-0.8,4.8-1,7.2-0.7c3.2,0.4,5.4,2.5,6.2,5.6c0.1,0.3,0.1,0.6,0.2,0.9c0.1-0.1,0.3-0.1,0.3-0.2
			c1.6-1.8,3.6-2.4,5.9-2.4c1.7,0,3,0.6,4.2,1.8c0.9,0.9,1.5,1.9,1.9,3c0.2,0.4,0.3,0.6,0.8,0.5c0.7-0.1,1.4-0.1,2,0
			c2.1,0.1,3.6,1.1,4.6,2.8c0.4,0.7,0.5,1.5,0.4,2.3c-0.1,0.4-0.4,0.7-0.8,0.6c-0.2,0-0.3-0.4-0.4-0.6c-0.1-0.1,0-0.2-0.1-0.4
			c-0.3-1.8-1.6-3.1-3.5-3.3c-1-0.1-2-0.1-2.9,0.4c0.1,1.3,0,2.6-0.6,3.8c0.3-0.1,0.6-0.1,0.9-0.2c1.2-0.2,2.4-0.2,3.6,0.1
			c2,0.6,3.3,1.9,3.6,4.1c0.1,1.1,0.2,2.3,0.2,3.6c1.1-0.6,2.3-0.8,3.4-0.7c0.6,0.1,1.3,0.2,1.8,0.5c1.8,1.1,3.1,2.6,3.2,4.9
			c0,0.7,0,0.7,0.7,0.8c2.6,0.4,4.3,2.3,4.2,4.9c0,0.6,0.2,0.8,0.7,1.1c0.3,0.2,0.5,0.4,0.7,0.6c1.4-3.5,0.1-8.7-3.9-9.7
			c-0.2-0.1-0.5-0.3-0.4-0.5c0.3-1.9,0.1-3.8-1.4-5.1c-1.1-0.9-2.3-1.5-3.4-2.5c-1.3-1.1-1.9-2.6-2.2-4.3c-0.1-0.7-0.1-1.5-0.3-2.2
			c-0.3-1-1.1-1.9-2-2.6c-2.1-1.7-4.8-2-7.3-2.6c-0.2-0.1-0.3-0.3-0.3-0.5c0.4-3.1-3.4-4.8-6-5c-1.7-0.1-2.9,0.8-4.4,1.4
			c-1.1,0.5-2,0.4-3-0.3c-0.5-0.4-1.1-0.8-1.6-1.2c-0.4-0.3-0.9-0.7-1.4-1c-1.1-0.5-2.4-0.6-3.6-0.8c-1.6-0.2-3.3-0.2-5-0.1
			c0,0-0.1,0.1-0.1,0.1c-0.7,0.9-1.1,0.9-1.7,0.2c-0.5,0.1-0.9,0.2-1.4,0.3c-2.4,0.7-4.7,2-5.9,4.3c-0.1,0.3-0.5,0.5-0.8,0.2
			c-1.3-1.2-2.9-1.9-4.6-1.9c-3-0.1-6.3,1.3-8.6,3.6c0.1,1-0.2,1.4-1.2,1.4c-1.6,2.1-2.5,4.6-1.9,7.1c0.1,0.3-0.1,0.4-0.3,0.5
			c-0.1,0.1-0.2,0.1-0.3,0.2c-0.2,0.1-0.5,0.1-0.8,0.2c-0.7,0.2-1.3,0.4-2,0.6C57.2,49.2,56.6,50,56.7,51.1"/>
		<path class="st19" d="M107.4,51.4c-0.6-0.7-1.5-1-2.4-1.1c-2.1-0.2-4.3,0.4-6.2,1.3c1.5,0.8,2.4,2.3,2.5,4.2c0,0.4,0,0.9,0,1.3
			c0.8-0.1,1.5-0.2,2.1-0.2c1.8-0.1,3.4,0.6,4.6,1.9c0.4,0.4,0.8,0.6,1.3,0.5c0.6-0.1,1.2,0,1.8,0c2.1,0,3.7,1,5,2.4
			c0,0,0.1,0.1,0.1,0.1c0.2,0,0.4,0.1,0.4,0.4c0,0.1,0,0.2,0,0.3c0.2,0.3,0.2,0.7,0.2,1.1c0,0.1,0,0.2-0.1,0.3
			c0,0.7-0.1,1.4-0.3,2.1c-0.2,0.6-0.5,1-0.9,1.5c2.5-0.4,4.4,0.8,5.5,3.2c0.6,1.4,0.7,2.8,0.6,4.5c3.1-1,5.2,0.3,6.8,2.6
			c0.5,0.6,0.9,1.3,1.2,2.1c0.7,1.6,0.7,3.1-0.4,4.6c0.4,0.2,0.7,0.3,1,0.5c2.3,1.1,3.9,2.8,4.7,5.2c0.3,0.7,0.4,1.6,0.4,2.3
			c0,1.1-0.4,2.1-1.2,2.9c-0.3,0.3-0.5,0.6-0.8,0.9c0.2,0.1,0.5,0.2,0.8,0.4c2,1,3,2.7,3.1,4.9c0.1,0.8-0.1,1.5-0.5,2.2
			c1.7-1,3.1-2.3,3.7-4.3c0.3-1.2,0.3-2.4,0.1-3.6c-0.2-1.3-0.6-3-1.4-4.1c-0.8-1.1-1.7-2-1.8-3.4c-0.1-1.4,0.6-3,0.1-4.4
			c-0.8-2.2-3.1-3.2-4.8-4.5c-0.8-0.6-1.5-1.3-2-2.1c-0.6-1-1-2-1.3-3.1c-0.3-0.9-0.5-1.8-1-2.5c-0.7-1-1.7-2-2.9-2.4
			c-2.3-0.7-2-3.2-2.3-5.1c-0.2-1.1-0.9-2.4-1.8-3.2c-0.7-0.6-1.7-0.9-2.6-1c-2.1-0.3-4.3-0.5-5.9-2c-0.7-0.6-1.1-1.5-1.7-2.2
			c-0.7-0.8-1.4-1.2-2.5-1c-0.3,0-0.6-0.2-0.6-0.5C108.3,53.5,108.2,52.2,107.4,51.4"/>
		<path class="st19" d="M94.9,68.2c1.9,0.4,3.8,0.5,5.6-0.5c0.8-0.4,1.6-0.9,2.3-1.5c0.6-1.1,1.4-2.1,2.1-3.1c-1,0.2-2,0.5-3,0.7
			c-1.9,0.5-4.1,1-6.1,0.3c-2.1-0.8-3.1-2.9-3.7-4.9c-1,0.6-1.9,1.1-2.9,1.7c-1.8,1.1-4,2.4-6.2,2.2c-2.3-0.1-3.2-2.2-3.6-4.2
			c-1.9,0.8-3.7,2-5.7,2.5c-0.9,0.2-2,0.3-2.8-0.3c-0.8-0.6-1-1.6-1-2.6c-1.5,0.6-3.1,1-4.7,0.9c-0.8,0-1.7-0.3-2.3-0.9
			c-0.2-0.2-0.4-0.5-0.5-0.8c-1.2,0.1-2.3,0.7-3,1.7c-0.2,0.3-0.4,0.7-0.6,1.1c0,0.2,0,0.4,0,0.6c0.1,1.8,1.2,2.9,3,3.1
			c2.1,0.2,3.6-0.8,4.8-2.4c0.2-0.3,0.3-0.6,0.5-0.8c0.2-0.3,0.6-0.4,0.8-0.1c0.2,0.1,0.3,0.5,0.2,0.7c-0.1,0.5-0.3,0.9-0.4,1.4
			c-0.2,1.1-0.2,2.1,0.6,2.9c1.3,1.4,4.8,2.5,7,0.2c0.6-0.6,0.9-1.4,1.3-2.1c0.2-0.3,0.2-0.6,0.4-0.9c0.2-0.2,0.5-0.5,0.7-0.5
			c0.4,0,0.6,0.4,0.6,0.8c0,0.3,0,0.6,0,1c-0.1,1.3,0.5,2.1,1.5,2.8c1.1,0.8,2.4,1.2,3.7,1.3c2.5,0.3,4.4-0.8,5.4-3.1
			c0.1-0.3,0.3-0.7,0.4-1c0.1-0.2,0.1-0.5,0.3-0.7c0.3-0.5,0.6-0.8,1-0.6c0.4,0.1,0.6,0.6,0.4,1.2c0,0.2-0.1,0.4-0.2,0.6
			c-0.4,1.2-0.2,1.5,0.8,2.2C92.7,67.6,93.8,68,94.9,68.2"/>
		<path class="st19" d="M10.8,130.4c0.3-2.6,0.9-5.3,2.1-7.8c0.5-1.1,1.3-1.9,2.1-2.8c0.7-0.7,1.8-1.6,2-2.6
			c0.2-1.1-0.1-2.3,0.3-3.3c0.4-0.9,1.2-1.7,2-2.3c1.6-1.2,3.5-1.8,5.1-2.9c-0.7-1.3-1.1-2.8-0.6-4.3c0.9-2.7,3.6-4.2,3.9-7.2
			c0.1-1-0.1-2.1,0.1-3.1c0,0,0,0,0,0c-0.7-0.8-1.2-1.7-1.3-2.7c-0.5-3.3,0.7-6.3,3.6-8c0.6-0.3,1.2-0.7,1.9-0.7
			c0.8,0,1.6-0.1,2.3-0.1c0.1-0.3,0.3-0.6,0.5-0.9c1.1-1.7,2.9-2.9,4.8-3.7c-0.8-1.6-1.3-3.4-0.9-5.2c0.2-1,0.8-1.8,1.5-2.3
			c-0.2-0.4-0.4-0.9-0.5-1.4c0-0.3-0.1-0.6-0.1-0.8c0-0.3,0.1-0.7-0.3-0.8c-0.4-0.1-0.8-0.2-1.2,0.1c-2.1,1.7-3.3,3.8-3.3,6.5
			c0,0.1,0,0.2,0,0.4c0,0.4,0,0.7-0.4,0.9c-0.4,0.2-0.7,0-0.9-0.4c-0.2-0.4-0.6-0.4-0.9-0.2c-1.6,0.8-2.8,1.9-3.1,3.7
			c-0.1,0.6-0.1,1.3-0.1,1.9c0,0.2,0,0.3,0,0.5c-0.1,0.5-0.5,0.7-1,0.4c-0.2-0.1-0.5-0.4-0.7-0.3c-0.3,0.1-0.6,0.4-0.8,0.7
			c-0.1,0.2-0.2,0.5-0.3,0.6c-0.1,0.2-0.5,0.4-0.5,0.4c-0.1-0.1-0.2-0.2-0.3-0.3c-1.4,0.5-2.8,1.2-3.6,2.4c-0.7,1-0.9,2.3-0.8,3.6
			c0.2,2.9,1.5,5.6,2.6,8.3c0.1,0.3,0,0.7-0.4,0.7c-2.2,0.2-4.5,1.1-4.9,3.5c-0.4,2.3,0.8,4.7,2.1,6.6c0.2,0.3,0.1,0.8-0.3,0.8
			c-1.7,0.1-3.4,0.2-5.1,0.5c-2,0.3-4.2,0.9-5.5,2.7c-1.5,2.2-1.3,5.3-1.1,7.8c0,0.4-0.3,0.7-0.7,0.5c-1.5-0.5-2.9-0.9-4.3-0.9
			c-1.1,0.5-1.9,1.3-2.2,2.5c-0.2,0.9-0.4,1.8-0.3,2.7c0,1.7,1,2.7,2.6,3.2c0.9,0.2,1.9,0.3,2.8,0c0.4-0.1,0.7,0,0.9,0.4
			c0.1,0.4-0.1,0.6-0.4,0.7c-1.2,0.5-1.7,1.5-1.9,2.7c-0.1,1.1-0.2,2.2-0.1,3.3c0.1,1.6,1.1,2.7,2.6,3.1c1.6,0.4,3.3,0.7,5,0.4
			C11.1,135.6,10.6,133,10.8,130.4"/>
		<path class="st19" d="M99.3,69.7c-0.5,0.1-0.9,0.3-1.1,0.8c-0.6,1.6-0.9,3.2-0.7,4.8c0.1,0.9,0.6,1.6,1.4,1.7
			c1.3,0.2,2.6,0.3,3.7-0.6c0.3-0.2,0.6-0.4,0.8-0.1c0.2,0.2,0.2,0.5,0.3,0.8c0,0.1-0.1,0.3-0.1,0.5c-0.4,1.2-0.4,2.5-0.3,3.8
			c0.1,0.9,0.5,1.8,1.1,2.5c0.5,0.7,1.2,0.8,1.9,0.4c0.4-0.2,0.7-0.5,1-0.8c0.3-0.3,0.5-0.6,0.9-0.8c0.2-0.2,0.6-0.2,0.9-0.2
			c0.4,0.1,0.4,0.4,0.4,0.8c0,0.2,0,0.4,0,0.6c0,1,0.8,1.5,1.7,1c0.4-0.3,0.9-0.6,1.2-0.9c0.5-0.6,1.1-0.9,1.7-1.1
			c0-1.4,0.1-2.8,0.2-4.1c-1.6,0.4-3.5,0.3-4.1-1.6c-0.5-1.6-0.1-3.5,0.3-5.1c-2.6-0.1-6,1.3-7.7-1.2c-0.5-0.7-0.7-1.4-0.7-2.2
			C101.2,69.1,100.3,69.5,99.3,69.7"/>
		<g id="Mono">
			<path class="st3" d="M42.6,63c1.3-0.9,2.5-1.9,3.8-2.7c0.8-0.6,1.8-0.9,2.8-1c0.6,0,1,0.2,1.2,0.7c0.6,1.6,1,3.1-0.1,4.8
				c-1,1.5-1.9,3.1-3.4,4.3c-0.8,0.6-1.7,1.2-2.6,1.7c-1.6,0.8-3.1,0-3.5-1.8c-0.4-2,0.6-3.8,2.4-4.5c0.8-0.3,1.6-0.5,2.4-0.7
				c0.3-0.1,0.7-0.2,0.7-0.7c0-0.3-0.4-0.5-1-0.5c-0.5,0.1-1,0.2-1.5,0.4c-0.4,0.1-0.7,0.2-1.1,0.3C42.7,63.2,42.6,63.1,42.6,63"/>
			<path class="st3" d="M36.7,66.4c-1.4,1.9-3.5,1.6-4.9,1.1c-0.5-0.2-0.7-0.6-0.7-1.1c0.1-1.3,0.1-2.6,0.4-3.8
				c0.4-1.9,1.3-3.7,2.5-5.2c0.8-1,1.8-1.8,2.9-2.4c0.7-0.4,1.5-0.5,2.3-0.3c0.9,0.2,1.4,0.8,1.6,1.6c0.4,1.2,0.3,2.4,0,3.5
				c0,0.1-0.3,0.3-0.4,0.3c-0.7,0.1-1.3,0.2-2.1,0.3c-0.1-0.1-0.2-0.4-0.4-0.6c-0.3-0.4-0.5-0.7-0.8-1.1c-0.3-0.3-0.6-0.7-1-0.4
				c-0.4,0.3-0.1,0.7,0.1,1.1c0.3,0.5,0.7,1,1,1.5c-0.7,0.2-1.4,0-2,0c-0.8,0-1.3,0.1-1.2,0.4c0.2,0.5,0.7,0.4,1.1,0.5
				c0.4,0.1,0.9,0.1,1.3,0.2c-0.2,0.7-0.4,1.5-0.5,2.2C36,65.1,36.1,65.8,36.7,66.4"/>
			<path class="st3" d="M39.1,66.4c-0.6-0.1-1.4-0.3-1.7-1c-0.4-0.8-0.3-1.8,0.3-2.5c0.4-0.6,1-1,1.6-1.4c1-0.7,1.8,0,2.5,0.7
				c0.1,0.1,0,0.4,0,0.5c-0.2,0.3-0.5,0.6-0.8,0.9c-0.5,0.5-0.9,1-0.7,1.8C40.2,66,39.8,66.4,39.1,66.4"/>
		</g>
		<g id="Rizos">
			<path class="st0" d="M34.5,69.1c-0.9-0.1-1.8-0.2-2.6-0.4c-0.3-0.1-0.6-0.2-0.9-0.3c-0.6-0.4-1-0.9-1-1.6c-0.2-3.7,0.7-7,3-9.9
				c0.9-1.2,2.1-2.1,3.4-2.8c1-0.6,2.2-0.6,3.3-0.4c1.2,0.3,1.8,1.2,2.2,2.3c0.3,1.1,0.3,2.2,0,3.3c-0.3,1-0.2,1.8,0.9,2.4
				c0.3-0.2,0.7-0.5,1.1-0.8c1-0.7,1.9-1.3,2.9-1.9c0.7-0.5,1.5-0.6,2.4-0.7c1.2-0.1,1.9,0.3,2.4,1.4c0.5,1.1,0.7,2.2,0.7,3.4
				c0,0.6-0.3,1.2-0.5,1.7c-0.4,0.8-0.9,1.6-1.4,2.4c-1.3,2.2-3.3,3.7-5.6,4.8c-2.3,1.1-4.6-0.2-5-2.7c0-0.3-0.1-0.6-0.1-0.8
				c0-0.3,0.1-0.7-0.3-0.8c-0.4-0.1-0.8-0.2-1.2,0.1c-2.1,1.7-3.3,3.8-3.3,6.5c0,0.1,0,0.2,0,0.4c0,0.4,0,0.7-0.4,0.9
				c-0.4,0.2-0.7,0-0.9-0.4c-0.2-0.4-0.6-0.4-0.9-0.2c-1.6,0.8-2.8,1.9-3.1,3.7c-0.1,0.6-0.1,1.3-0.1,1.9c0,0.2,0,0.3,0,0.5
				c-0.1,0.5-0.5,0.7-1,0.4c-0.2-0.1-0.5-0.4-0.7-0.3c-0.3,0.1-0.6,0.4-0.8,0.7c-0.1,0.2-0.2,0.5-0.3,0.6c-0.1,0.2-0.5,0.4-0.5,0.4
				c-0.2-0.1-0.4-0.4-0.4-0.6c-0.1-0.9,0.7-2,1.7-2.2c0.8-0.2,0.9-0.5,1-1.2c0.2-2.4,2.4-4.7,4.7-5.1c0.4-0.1,0.6-0.2,0.6-0.6
				c0.1-0.6,0.3-1.2,0.4-1.9c-2.9-0.5-5.3,0.3-7.2,2.4c-0.2,0.2-0.3,0.5-0.4,0.8c-0.3,0.7-0.4,0.9-1.2,0.8c-1.6-0.3-2.9,0.4-3.9,1.6
				c-0.4,0.5-0.7,1-0.8,1.6c-0.2,1.2-0.4,2.5,0.5,3.7c0.4,0.4,0.2,0.9-0.4,1c-0.8,0.1-1.3,0.7-1.6,1.3c-0.3,0.6-0.5,1.3-0.7,1.9
				c-0.2,0.9,0,1.6,0.8,2.2c0.8,0.6,0.8,1,0.1,1.8c-0.9,1-1.4,2.1-1.5,3.4c0,0.4,0.2,0.9,0.2,1.3c0,0.3-0.2,0.5-0.5,0.4
				c-0.6-0.2-0.9-0.6-0.9-1.3c-0.1-0.9,0.1-1.8,0.5-2.7c0.2-0.5,0.5-0.9,0.8-1.4c0.4-0.6,0.4-0.6-0.1-1.3c-0.6-0.8-0.8-1.7-0.6-2.6
				c0.2-1.5,0.8-2.8,1.9-3.8c0.3-0.3,0.4-0.6,0.3-1c-0.1-1.1-0.2-2.3,0-3.3c0.4-2.3,3.2-4.4,5.1-4.2c0.5,0.1,0.8-0.1,1.2-0.6
				c1.7-2.1,3.8-3.4,6.5-3.4c0.4,0,0.9,0,1.3,0C33.7,69.7,34.2,69.6,34.5,69.1 M42.6,63c0,0.1,0.1,0.2,0.1,0.3
				c0.4-0.1,0.7-0.2,1.1-0.3c0.5-0.1,1-0.3,1.5-0.4c0.5-0.1,1,0.2,1,0.5c0,0.5-0.4,0.5-0.7,0.7c-0.8,0.3-1.6,0.4-2.4,0.7
				c-1.8,0.7-2.8,2.6-2.4,4.5c0.3,1.8,1.8,2.6,3.5,1.8c0.9-0.5,1.8-1,2.6-1.7c1.5-1.1,2.4-2.8,3.4-4.3c1.1-1.6,0.7-3.2,0.1-4.8
				c-0.2-0.5-0.6-0.8-1.2-0.7c-1,0-2,0.4-2.8,1C45.1,61.2,43.9,62.1,42.6,63 M36.7,66.4c-0.5-0.6-0.7-1.3-0.6-2.1
				c0.1-0.7,0.3-1.4,0.5-2.2c-0.4-0.1-0.9-0.1-1.3-0.2c-0.4-0.1-0.9,0-1.1-0.5C34,61.1,34.5,61,35.4,61c0.6,0,1.2,0.2,2,0
				c-0.4-0.6-0.7-1-1-1.5c-0.2-0.3-0.6-0.8-0.1-1.1c0.4-0.3,0.7,0.1,1,0.4c0.3,0.3,0.5,0.7,0.8,1.1c0.2,0.2,0.3,0.5,0.4,0.6
				c0.8-0.1,1.4-0.2,2.1-0.3c0.2,0,0.4-0.2,0.4-0.3c0.3-1.2,0.4-2.4,0-3.5c-0.3-0.8-0.7-1.5-1.6-1.6c-0.8-0.2-1.6-0.1-2.3,0.3
				c-1.1,0.6-2.2,1.4-2.9,2.4c-1.2,1.6-2.1,3.3-2.5,5.2c-0.2,1.2-0.3,2.5-0.4,3.8c0,0.5,0.1,1,0.7,1.1C33.2,68,35.3,68.3,36.7,66.4
				 M39.1,66.4c0.7,0,1.2-0.4,1.1-1.1c-0.1-0.8,0.3-1.3,0.7-1.8c0.3-0.3,0.6-0.6,0.8-0.9c0.1-0.1,0.1-0.4,0-0.5
				c-0.7-0.7-1.5-1.3-2.5-0.7c-0.6,0.4-1.2,0.9-1.6,1.4c-0.5,0.7-0.6,1.7-0.3,2.5C37.7,66.1,38.4,66.4,39.1,66.4"/>
			<path class="st0" d="M75.2,54.6c0.5-0.3,0.7-0.5,1-0.7c1.2-1.1,2.7-1.5,4.3-1.5c1,0,1.9,0.3,2.6,1c0.9,0.9,1.7,1.8,2.5,2.8
				c0.3,0.3,0.5,0.6,0.8,1c0.2-0.3,0.3-0.6,0.5-0.8c0.4-0.8,0.8-1.6,1.3-2.3c1-1.5,2.5-2.5,4.3-2.8c1.3-0.2,2.5-0.3,3.8-0.3
				c2.9,0,4.8,1.9,5,4.9c0,0.4,0,0.9,0,1.3c0.8-0.1,1.5-0.2,2.1-0.2c1.8-0.1,3.4,0.6,4.6,1.9c0.4,0.4,0.8,0.6,1.3,0.5
				c0.6-0.1,1.2,0,1.8,0c2.1,0,3.7,1,5,2.4c0.5,0.5,0.9,1.2,0.8,1.9c0,0.3-0.2,0.6-0.5,0.7c-0.4,0.1-0.7-0.2-0.8-0.5
				c-0.8-2.2-2.5-2.9-4.6-3.2c-1-0.1-1.9,0.1-2.8,0.4c-0.1,0-0.2,0.1-0.3,0.1c-0.7,0.2-1.2-0.3-0.9-1c0.2-0.5,0-0.7-0.3-1
				c-1.6-1.2-3.4-1.4-5.2-0.6c-0.3,0.1-0.6,0.4-0.8,0.7c-0.1,0.1-0.2,0.3-0.4,0.5c-0.4,0.5-1,0.7-1.3,0.4c-0.4-0.3-0.4-0.9,0.1-1.4
				c1.1-1.1,1.3-2.3,0.9-3.8c-0.4-1.7-1.5-2.7-3.3-2.9c-1.4-0.1-2.8,0-4.2,0.3c-1.6,0.4-2.8,1.3-3.6,2.8c-0.5,0.8-0.8,1.7-1.2,2.6
				c-0.1,0.2-0.1,0.5-0.2,0.7c-0.4,0.9-0.9,1-1.5,0.2c-0.9-1.1-1.7-2.2-2.5-3.3c-0.1-0.2-0.3-0.4-0.5-0.5c-1.4-1.5-2.8-1.8-4.9-0.8
				c-0.8,0.4-1.4,1.1-2.1,1.7c-0.2,0.2-0.3,0.4-0.4,0.6c-0.2,0.3-0.6,0.5-0.9,0.3c-0.4-0.2-0.5-0.5-0.3-0.9c0.3-0.6,0-1-0.4-1.4
				c-0.6-0.6-1.4-0.9-2.3-0.9c-3.3,0-6.1,1.2-8.2,3.8c-0.1,0.1-0.1,0.2-0.2,0.3c-0.1,0.1-0.3,0.1-0.4,0.1c-0.1-0.1-0.2-0.3-0.2-0.4
				c0.2-0.4,0.3-0.9,0.6-1.2c1.3-1.5,3-2.5,4.9-3.1c1.2-0.4,2.4-0.5,3.7-0.4c1.2,0.1,2.2,0.5,3,1.4C75,54.1,75.1,54.4,75.2,54.6"/>
			<path class="st0" d="M121.8,75.3c3.1-1,5.2,0.3,6.8,2.6c0.5,0.6,0.9,1.3,1.2,2.1c0.7,1.6,0.7,3.1-0.4,4.6c0.4,0.2,0.7,0.3,1,0.5
				c2.3,1.1,3.9,2.8,4.7,5.2c0.3,0.7,0.4,1.6,0.4,2.3c0,1.1-0.4,2.1-1.2,2.9c-0.3,0.3-0.5,0.6-0.8,0.9c0.2,0.1,0.5,0.2,0.8,0.4
				c2,1,3,2.7,3.1,4.9c0.1,1.1-0.3,2.1-1,2.8c-0.5,0.5-1,0.9-1.5,1.4c0.9,1.3,0.8,2.5,0.8,3.8c0,0.9-0.5,1.6-1.2,2.1
				c-0.2,0.2-0.5,0.3-0.8,0c-0.3-0.2-0.2-0.5-0.1-0.8c0.1-0.2,0.3-0.4,0.4-0.6c0.7-1,0.4-2.1,0.2-3.1c0-0.2-0.4-0.4-0.6-0.5
				c-0.7-0.4-0.8-0.7-0.3-1.3c0.4-0.5,0.9-0.9,1.4-1.3c1-0.9,1.7-2,1.3-3.5c-0.4-1.5-1.3-2.6-2.8-3.2c-0.4-0.1-0.9-0.2-1.3-0.3
				c-0.8-0.3-0.9-1-0.3-1.5c0.2-0.2,0.5-0.4,0.8-0.6c1.7-1.2,2.1-2.5,1.5-4.5c-0.7-2.2-2.2-3.8-4.3-4.7c-0.3-0.1-0.7-0.2-1-0.4
				c-0.8-0.3-0.9-0.9-0.5-1.7c0.1-0.1,0.2-0.3,0.3-0.4c0.8-1,0.7-2,0.3-3.1c-0.6-1.5-1.5-2.7-2.8-3.7c-1.2-0.9-2.5-0.8-3.8-0.4
				c-0.3,0.1-0.7,0.3-1,0.4c-0.3,0.2-0.7,0.3-1,0c-0.3-0.3-0.3-0.7-0.1-1c0.6-0.9,0.6-1.9,0.5-2.9c-0.1-0.7-0.2-1.4-0.5-2.1
				c-1-2.2-2.9-3.2-5.7-2.2c-0.2,0.1-0.5,0.4-0.7,0c-0.2-0.3,0-0.5,0.3-0.7c0.2-0.1,0.5-0.3,0.8-0.3c3-0.8,5.1,0.4,6.4,3
				C121.8,72.2,121.9,73.6,121.8,75.3"/>
			<path class="st0" d="M119.3,56.8c1.1-0.6,2.3-0.8,3.4-0.7c0.6,0.1,1.3,0.2,1.8,0.5c1.8,1.1,3.1,2.6,3.2,4.9c0,0.7,0,0.7,0.7,0.8
				c2.6,0.4,4.3,2.3,4.2,4.9c0,0.6,0.2,0.8,0.7,1.1c1.5,0.9,2.1,2.3,2.2,4c0,0.3-0.1,0.7-0.3,1c-0.1,0.2-0.5,0.2-0.7,0.2
				c-0.1,0-0.3-0.4-0.3-0.6c0.1-1-0.3-1.8-0.8-2.6c-0.4-0.6-0.9-1-1.7-1c-0.2,0-0.3,0-0.5,0c-0.7-0.1-1-0.7-0.5-1.2
				c0.7-0.8,0.6-1.6,0.2-2.4c-0.5-1-1.2-1.8-2.4-1.9c-0.5-0.1-1,0-1.6,0c-0.9-0.1-1.2-0.4-0.8-1.2c0.4-0.9,0.3-1.7-0.1-2.5
				c-0.9-1.6-2.2-2.8-4.2-2.6c-0.9,0.1-1.6,0.3-2.3,0.9c-0.2,0.2-0.4,0.4-0.7,0.5c-0.5,0.2-0.9,0-0.9-0.6c0-0.4,0-0.9,0-1.3
				c0-1,0.1-2,0-3c-0.1-1.9-1.2-3.3-3.1-3.8c-1.1-0.3-2.2-0.2-3.3-0.1c-0.4,0.1-0.9,0.2-1.3,0.3c-0.2,0-0.4-0.2-0.6-0.3
				c0.1-0.2,0.2-0.5,0.3-0.5c0.6-0.2,1.2-0.4,1.9-0.5c1.2-0.2,2.4-0.2,3.6,0.1c2,0.6,3.3,1.9,3.6,4.1
				C119.2,54.3,119.2,55.5,119.3,56.8"/>
			<path class="st0" d="M20.9,124.7c0-0.8,0-1.4,0-2.1c0-1.3,0.3-2.5,0.8-3.6c0.3-0.6,0.7-1.2,1.1-1.7c0.5-0.6,1.3-0.9,2.1-0.9
				c0.3,0,0.6,0,0.9,0c-0.3-2.3-0.4-4.6,0.1-6.8c0.2-1.2,0.6-2.3,1.4-3.3c1.1-1.4,3.2-1.8,4.8-1c0.2,0.1,0.2,0.4,0.3,0.5
				c-0.2,0.1-0.4,0.3-0.6,0.3c-0.3,0-0.6-0.1-0.9-0.2c-1.4-0.2-2.2,0.1-2.9,1.3c-0.4,0.8-0.8,1.8-1,2.7c-0.2,1.5-0.3,3.1-0.3,4.7
				c0,1.2,0.4,2.3,1.4,3.1c0.1,0.1,0.3,0.2,0.3,0.4c0,0.2,0.1,0.5-0.1,0.6c-0.1,0.1-0.4,0.2-0.6,0.1c-0.2-0.1-0.4-0.3-0.6-0.4
				c-0.3-0.2-0.6-0.5-1-0.7c-1.3-0.6-2.3-0.3-3.1,0.9c-0.3,0.4-0.5,0.9-0.6,1.4c-0.2,1.1-0.4,2.2-0.5,3.3c-0.1,0.8,0.1,1.5,0.6,2.1
				c0.2,0.3,0.4,0.6,0.1,0.9c-0.3,0.3-0.6,0.3-1,0.1c-0.1-0.1-0.2-0.1-0.3-0.2c-1.9-1.1-3.7-0.6-5.3,1.3c-0.1,0.1-0.1,0.2-0.2,0.3
				c-0.3,0.3-0.6,0.3-0.7-0.1c-0.3-0.6-0.1-1.2,0.6-1.8C17.5,124.8,18.5,124.5,20.9,124.7"/>
			<path class="st0" d="M119.2,110.9c0,1.3-0.5,2.3-1.4,3.1c-0.6,0.5-1.2,1-1.8,1.4c-2.2,1.6-2.3,2-0.1,3.8c0.3,0.2,0.6,0.4,0.8,0.7
				c0.3,0.3,0.6,0.6,0.9,1c0.6,0.8,0.5,1.8-0.1,2.5c-0.8,0.9-1.7,1.6-2.3,2.6c-0.1,0.2-0.5,0.3-0.7,0.3c-0.4,0-0.5-0.4-0.4-0.7
				c0.1-0.4,0.3-0.9,0.6-1.3c0.4-0.5,0.9-1,1.4-1.5c0.6-0.7,0.7-0.9,0-1.6c-0.5-0.5-1-0.9-1.5-1.3c-0.4-0.4-0.8-0.8-1.2-1.2
				c-0.7-1-0.6-2.2,0.3-3c0.5-0.4,1-0.8,1.5-1.1c0.6-0.4,1.2-0.8,1.8-1.2c1.2-0.9,1.5-2.1,1-3.5c-0.3-0.9-0.9-1.7-1.3-2.5
				c-0.2-0.3-0.3-0.7-0.4-1.1c0-0.1,0.1-0.2,0.2-0.3c0.1,0,0.3,0,0.3,0.1c0.8,1.1,1.7,2,2.2,3.3C119,109.7,119.1,110.3,119.2,110.9"
				/>
			<path class="st0" d="M25.4,132.5c-0.1-0.5-0.2-1-0.2-1.4c-0.2-1.7,0.5-2.6,2.1-3.2c0.5-0.2,1.1-0.4,1.7-0.5
				c0.4-0.1,0.5-0.3,0.4-0.7c-0.2-2.2,1.5-4,3.8-3.9c0.2,0,0.4,0.2,0.6,0.3c0.1,0.1-0.1,0.4-0.2,0.5c-0.3,0.2-0.7,0.3-1.1,0.5
				c-0.4,0.2-0.8,0.4-1.2,0.6c-0.5,0.4-0.7,0.9-0.7,1.6c0,0.2,0.1,0.5,0.2,0.7c0.1,0.8-0.1,1.1-0.8,1.3c-0.4,0.1-0.9,0.2-1.3,0.3
				c-0.4,0.1-0.8,0.2-1.1,0.4c-0.8,0.3-1.2,0.9-1.1,1.8c0.1,0.5,0.3,1.1,0.4,1.6c0.2,0.7,0,1-0.7,1.1c-0.6,0.1-1.1,0.1-1.7,0.2
				c-1.4,0.4-2,1.2-1.7,2.7c0.1,0.5,0.2,1,0.3,1.5c0.1,0.5,0.2,1-0.2,1.7c-0.5-1.1-0.9-2.1-1-3.1c-0.3-2.2,0.5-3.2,2.7-3.8
				C24.8,132.6,25.1,132.6,25.4,132.5"/>
			<path class="st0" d="M134.3,129.5c0.4,0.3,0.7,0.5,1.1,0.7c2.1,1.4,2.3,2.2,1.8,4.6c-0.4,2-1.8,3.2-3.6,4.1
				c-0.1,0.1-0.2,0.1-0.3,0.1c-0.1,0-0.3-0.1-0.4-0.2c0-0.1,0-0.3,0.1-0.4c0.4-0.4,0.9-0.8,1.4-1.2c0.9-0.8,1.6-1.7,1.8-2.9
				c0.3-1.4,0-2.2-1.2-3c-0.5-0.3-1.1-0.6-1.7-0.9c-0.2-0.1-0.5-0.2-0.7-0.4c-0.4-0.3-0.3-0.7,0-1c0.2-0.2,0.6-0.3,0.8-0.5
				c0.5-0.5,1.2-0.9,1.6-1.4c0.7-1,0.8-2.1,0.2-3.3c-0.2-0.4-0.4-0.8-0.5-1.2c-0.1-0.2,0.1-0.6,0.2-0.7c0.3-0.2,0.6,0,0.8,0.2
				c1.6,1.9,1.5,4.7,0,6.2C135.2,128.7,134.8,129.1,134.3,129.5"/>
			<path class="st0" d="M47.3,114c-0.4,0.3-0.8,0.6-1.2,0.9c-0.5,0.3-1,0.6-1.5,1c-0.7,0.6-0.9,1.4-0.4,2.2c0.1,0.1,0.2,0.3,0.2,0.4
				c0,0.2,0,0.5-0.1,0.5c-0.2,0.1-0.4,0.2-0.6,0.2c-0.1,0-0.2-0.1-0.3-0.1c-0.9-0.4-1-0.4-1.6,0.3c-0.7,0.7-1.1,1.5-0.7,2.5
				c0.1,0.1,0.1,0.3,0.1,0.5c0,0.4-0.3,0.6-0.6,0.5c-0.6-0.2-0.8-0.6-0.8-1.2c-0.2-1.5,0.9-3.4,2.4-4c0.5-0.2,0.7-0.3,0.8-0.9
				c0.2-1.1,0.9-1.8,1.9-2.1c0.8-0.3,1.6-0.6,2.4-0.9C47.2,113.7,47.2,113.9,47.3,114"/>
			<path class="st0" d="M99.6,139.9c0,1.3-0.5,2.4-1.1,3.4c-0.3,0.6-0.3,0.9,0.1,1.4c1.1,1.4,1.3,3.1,0.8,4.9
				c-0.1,0.2-0.2,0.5-0.4,0.6c-0.2,0.1-0.5,0.1-0.7,0.1c-0.3-0.1-0.2-0.4-0.1-0.6c0.6-1.1,0.5-2.2,0.1-3.3c-0.2-0.5-0.5-0.9-0.9-1.2
				c-0.6-0.6-0.7-0.7-0.3-1.5c0.2-0.3,0.4-0.6,0.5-0.9c0.3-0.6,0.5-1.3,0.7-1.9c0.2-0.7,0.2-1.5-0.4-2.1c-0.2-0.2-0.3-0.6,0-0.7
				c0.2-0.1,0.6-0.1,0.7,0.1c0.2,0.2,0.5,0.5,0.6,0.7C99.5,139,99.6,139.5,99.6,139.9"/>
			<path class="st0" d="M144.8,125.4c0.1,1.1-0.4,2-1.3,2.7c-0.1,0.1-0.3,0.3-0.5,0.3c-0.2,0-0.4,0-0.5-0.1
				c-0.1-0.1-0.1-0.4-0.1-0.5c0.1-0.3,0.3-0.5,0.4-0.7c0.7-0.9,0.8-1.8,0.5-2.8c0-0.1-0.1-0.2-0.1-0.3c0-0.2,0-0.4,0-0.7
				c0.3,0,0.6-0.1,0.8,0c0.5,0.2,0.7,0.7,0.8,1.2C144.7,124.8,144.7,125.1,144.8,125.4"/>
		</g>
	</g>
</g>
</svg>
