<?xml version="1.0" encoding="utf-8"?>
<!-- Generator: Adobe Illustrator 23.0.1, SVG Export Plug-In . SVG Version: 6.00 Build 0)  -->
<svg version="1.1" xmlns="http://www.w3.org/2000/svg" xmlns:xlink="http://www.w3.org/1999/xlink" x="0px" y="0px"
	 viewBox="0 0 121.5 184.7" style="enable-background:new 0 0 121.5 184.7;" xml:space="preserve">
<style type="text/css">
	.st0{fill:#545555;}
	.st1{fill:#D9C2C5;}
	.st2{fill:#A8ABA5;}
	.st3{fill:#949595;}
	.st4{fill:#FFFFFF;}
	.st5{fill:#FFF072;}
	.st6{fill:#558FB2;}
	.st7{fill:#2B6B8A;}
	.st8{fill:#524632;}
	.st9{fill:#7DC4C4;}
	.st10{fill:#F4C1DB;}
	.st11{fill:#D20068;}
	.st12{fill:#EDD5BD;}
	.st13{fill:#9F2429;}
	.st14{fill:#FFB6C7;}
	.st15{fill:#E1B791;}
	.st16{fill:#9C663F;}
	.st17{fill:#B07B53;}
	.st18{filter:url(#Adobe_OpacityMaskFilter);}
	.st19{clip-path:url(#SVGID_2_);fill:url(#SVGID_4_);}
	.st20{clip-path:url(#SVGID_2_);mask:url(#SVGID_3_);fill:url(#SVGID_5_);}
	.st21{filter:url(#Adobe_OpacityMaskFilter_1_);}
	.st22{clip-path:url(#SVGID_7_);fill:url(#SVGID_9_);}
	.st23{clip-path:url(#SVGID_7_);mask:url(#SVGID_8_);fill:url(#SVGID_10_);}
</style>
<g id="Silla">
	<path class="st0" d="M15,175.4c-1.4-0.4-2-1.3-2.6-2.3c-1.1-2-2-4.2-2.7-6.4c-0.9-3.2-1.4-6.5-1.8-9.8c-0.5-4.3-0.4-8.6-0.4-12.9
		c0.1-3.6,0.5-7.2,1.3-10.8c0.7-2.9,2-5.5,4-7.7c0.8-0.9,1.7-1.5,2.6-2.3c0.5-0.4,1.1-0.5,1.7-0.3c-0.1,0.5-0.1,1.1-0.1,1.6
		c0,1,0,1.9,1.2,2.3c0.4,0.1,0.4,0.6,0.1,0.9c-0.9,0.8-1,1.7-0.9,2.8c0,0.3-0.1,0.6-0.3,0.9c-1.6,2.2-2.2,4.8-2.6,7.5
		c-0.7,5.3-0.5,10.7-0.4,16c0,2.1,0.3,4.2,0.8,6.3c0.3,1.4,0.5,2.7,0.7,4.1c0,0.3-0.1,0.6-0.2,0.8c-1,2.4-1,5-0.8,7.5
		C14.9,174.2,15,174.7,15,175.4"/>
	<path class="st0" d="M106.4,175.3c0-0.5,0.1-0.9,0.1-1.2c0.2-2.2,0.3-4.4-0.4-6.5c-0.4-1.3-0.6-2.6-0.3-4c0.4-1.6,0.6-3.3,0.8-4.9
		c0.2-1.5,0.4-2.9,0.4-4.4c0.1-3.2,0.1-6.3,0-9.5c-0.1-3.1-0.3-6.2-1.1-9.3c-0.4-1.4-1-2.8-1.9-4c-0.2-0.3-0.3-0.6-0.3-1
		c0.1-1,0-1.9-0.8-2.6c-0.5-0.5-0.4-0.8,0.3-1.1c0.6-0.3,0.9-0.8,0.9-1.4c0-0.8-0.2-1.8-0.2-2.6c0.6-0.2,1.3,0.2,1.8,0.5
		c1.3,0.8,2.4,1.9,3.3,3.1c2,2.7,3.2,5.7,3.7,9c0.6,3.4,0.9,6.7,0.9,10.1c0,2.2,0.1,4.4,0,6.6c-0.3,5.4-0.8,10.8-2.6,16
		c-0.6,1.7-1.4,3.3-2.2,4.9c-0.2,0.5-0.6,0.9-0.9,1.4C107.7,174.8,107.2,175.2,106.4,175.3"/>
	<path class="st1" d="M90,133.4c1.6,0,3.1,0,4.5,0c0.3,0,0.6,0,0.8,0c0.3,0,0.5,0.2,0.5,0.5c0,0.6,0.1,1.3,0.1,1.9
		c0,2.8,0.1,5.5,0,8.3c0,4.3-0.3,8.6-1.2,12.8c0,0.1,0,0.2-0.1,0.4c-0.2,1.1-1.1,1.7-2.1,1.7c-0.8,0-1.6-0.9-1.8-1.8
		c0-0.4,0-0.7,0-1.1c0-3.7,0-7.4-0.1-11c-0.1-2.9-0.2-5.7-0.4-8.6C90.3,135.4,90.1,134.3,90,133.4"/>
	<path class="st1" d="M31.4,133.3c0,0.5,0,1-0.1,1.4c-0.6,6.3-0.6,12.6-0.7,18.9c0,1,0,2,0,3c0,0.4-0.1,0.9-0.2,1.3
		c-0.5,1.1-2.4,1.3-3.2,0.5c-0.2-0.2-0.3-0.6-0.4-0.9c-0.3-1.7-0.7-3.4-0.9-5.2c-0.6-5.2-0.5-10.4-0.4-15.6c0-0.9,0.1-1.8,0.1-2.8
		c0-0.5,0.2-0.6,0.7-0.6c1,0,2,0,3,0C29.9,133.4,30.6,133.3,31.4,133.3"/>
	<path class="st2" d="M94.2,172c0,0.2,0,0.3,0,0.3c-0.3,1.4-0.3,1.4-1.8,1.4c-9.2,0-18.5,0-27.7-0.1c-1.3,0-2.6-0.1-3.8-0.1
		c-0.6,0-1.3,0.1-1.9,0.1c-8.4,0-16.7,0-25.1,0c-1.8,0-3.6,0-5.4,0.1c-1,0-1,0-1.3-0.9c-0.1-0.2-0.1-0.4-0.2-0.8
		C49.5,172.1,71.9,172.1,94.2,172"/>
	<path class="st3" d="M95,161.9c2.7-0.4,5.1,0.1,7.2,1.6c0.4,0.3,0.7,0.5,1,0.9c1,1.3,1.8,2.7,2.1,4.4c0.4,2.7,0.3,5.4-0.5,8.1
		c-0.4,1.6-1.2,3-2.4,4.1c-0.7,0.7-1.6,1.2-2.5,1.5c-1.6,0.6-3.4,1-5.1,1c-0.6,0-1.2-0.1-1.6-0.6c0.1-0.1,0.1-0.1,0.1-0.1
		c2.4,0.1,3.9-1.3,5.2-2.9c1.2-1.5,1.8-3.3,1.9-5.2c0-1.2,0-2.5,0-3.7c-0.1-3-1.3-5.6-3.4-7.7C96.3,162.8,95.7,162.4,95,161.9"/>
	<path class="st3" d="M28.7,182.8c-0.7,0.5-1.3,0.7-1.9,0.7c-2.5,0-4.9-0.6-7.1-1.9c-0.4-0.3-0.8-0.7-1.1-1.1
		c-1.5-1.7-2.1-3.8-2.4-6c-0.2-1.7-0.2-3.4,0-5.1c0.5-3.8,2.7-6.4,6.4-7.2c1.2-0.3,2.4-0.3,3.7-0.1c0,0.1,0,0.2-0.1,0.2
		c-2.2,1-3.3,2.9-4.3,5c-0.6,1.4-0.9,2.8-0.8,4.3c0.1,1.6-0.1,3.3,0.2,4.9c0.6,2.7,2.2,4.6,4.5,5.9c0.5,0.3,1.2,0.3,1.8,0.5
		C28,182.8,28.3,182.8,28.7,182.8"/>
	<path class="st1" d="M70.5,171H50.9c0,0,0-0.1,0-0.1c0.6-0.3,1.1-0.6,1.7-0.8c2.9-1.2,4.7-3.5,6.1-6.2c0.6-1.2,1.1-2.6,1.7-3.8
		c0.1-0.3,0.2-0.5,0.4-0.9c0.2,0.4,0.4,0.7,0.5,1c0.5,1.2,1,2.5,1.6,3.7c1.4,2.7,3.3,5,6.2,6.2c0.5,0.2,1,0.5,1.5,0.7
		C70.5,170.9,70.5,170.9,70.5,171"/>
	<path class="st4" d="M28.9,168.2c-0.2-0.2-0.4-0.3-0.5-0.4c-0.7-0.5-1.6-0.5-2.3,0c-0.6,0.4-1.2,1-1.4,1.8
		c-0.7,2.4-0.7,4.6,0.9,6.7c0.8,1,1.7,1.4,2.9,1.3c0.7,0,1.3-0.4,1.6-1.1c0.2-0.4,0.4-0.8,0.4-1.2c0.1-0.4,0.3-0.5,0.6-0.5
		c1.8,0,1.5,0,1.2,1.5c-0.2,1.3-0.8,2.4-1.5,3.5c-0.7,0.9-1.6,1.5-2.6,1.9c-0.8,0.3-1.5,0-2.2-0.4c-2.3-1.6-3.7-3.6-3.7-6.5
		c0-1.2,0-2.3,0-3.5c0-2.7,1.1-4.9,2.7-7c1.2-1.4,4.3-1.5,5,0.5c0.2,0.6,0.6,1,0.8,1.6c-0.5,0.4-0.9,0.9-1.4,1.3
		C29.4,167.8,29.2,167.9,28.9,168.2"/>
	<path class="st5" d="M82.1,99.9c1-0.2,1.9-0.5,2.9-0.7c0.3-0.1,0.5,0,0.8,0.1c1.1,0.3,2.2,0.7,3.3,1c0.3,0.1,0.4,0.2,0.4,0.5
		c-0.1,0.3-0.1,0.6-0.2,0.9c-0.2,0.9-0.3,0.9-1.2,0.9c-0.1,0-0.2,0-0.2,0c-0.8,0-1,0.3-0.9,1c0.2,1,0.4,2,0.6,3
		c0.6,2.7,0.4,5.5,0,8.3c-2.2-0.5-4-1.4-5.3-3.1c-1.1-1.5-2.1-3-2.8-4.7c-0.1-0.1-0.1-0.3-0.2-0.4c-0.3-0.8-0.1-1.1,0.8-1.1
		c1,0,1.9-0.1,2.8-0.5c1.3-0.6,2.2-1.6,2.3-3.1c0.1-0.9-0.1-1.1-0.9-1.4c-0.8-0.2-1.5-0.4-2.3-0.6L82.1,99.9z"/>
	<path class="st4" d="M92.5,168.2c-0.7-0.6-1.2-1.1-1.8-1.5c-0.3-0.2-0.4-0.5-0.1-0.8c0.3-0.4,0.6-0.8,0.7-1.2
		c0.7-1.8,3.7-1.9,4.8-0.6c0.7,0.9,1.4,1.9,2,3c0.6,1.1,0.9,2.2,0.9,3.5c0,1.5,0.1,3,0,4.4c-0.1,2.7-1.5,4.7-3.7,6.2
		c-0.9,0.6-1.7,0.6-2.7,0.2c-1.1-0.5-1.9-1.3-2.5-2.3c-0.6-1-1-2.2-1.2-3.4c-0.1-0.8-0.1-0.8,0.7-0.9c0.1,0,0.2,0,0.4,0
		c0.7,0,0.7,0,0.9,0.7c0.1,0.3,0.2,0.5,0.3,0.8c0.4,1,1.1,1.4,2.2,1.3c1.1-0.1,1.9-0.5,2.5-1.4c1.6-2.1,1.6-4.4,0.8-6.7
		c-0.2-0.6-0.7-1.1-1.2-1.6c-0.8-0.7-1.7-0.6-2.5,0C92.8,167.9,92.7,168,92.5,168.2"/>
	<path class="st5" d="M33.8,115.1c-0.6-3.3-0.5-6.5,0.3-9.6c0.1-0.6,0.3-1.2,0.4-1.9c0.1-0.6-0.1-0.9-0.7-0.9c-0.1,0-0.2,0-0.2,0
		c-0.4,0-1,0.2-1.2-0.3c-0.2-0.5-0.3-1.1-0.3-1.7c0-0.1,0.3-0.3,0.4-0.3c1-0.3,2-0.6,3-0.9c0.3-0.1,0.6-0.2,0.9-0.2
		c0.5,0.1,1,0.3,1.5,0.4c0.5,0.1,1,0.2,1.6,0.3c-0.4,0.4-0.9,0.4-1.4,0.6c-0.2,0.1-0.5,0.1-0.7,0.2c-1.3,0.4-1.5,0.7-1.1,2.1
		c0.4,1.2,1.1,2.1,2.3,2.5c0.9,0.3,1.8,0.4,2.7,0.5c0.9,0.1,1.1,0.3,0.8,1.1c-0.4,0.9-0.8,1.8-1.3,2.7c-0.5,0.9-1.1,1.8-1.7,2.6
		C37.7,113.8,36,114.6,33.8,115.1"/>
	<path class="st6" d="M88.3,104.1c0.1-0.1,0.2-0.2,0.2-0.2c1.4-0.3,1.9-0.8,2.1-2.2c0-0.2,0-0.4,0-0.6c0.1-0.8,0.1-0.8,0.8-0.8
		c0.6,0,1.1-0.1,1.7-0.1c0.5-0.1,1-0.1,1.7-0.2c-0.2,1.8-0.3,3.5-0.5,5.2c-0.1,1.3-0.2,2.6-0.4,3.9c-0.3,2.1-0.6,4.2-1,6.3
		c0,0.2,0,0.6-0.1,0.6c-0.4,0-1.2-0.2-1.6-0.2c-0.7-0.1-1.7-0.2-2.4-0.2c-0.5-0.1-0.2-0.4-0.2-0.8c0.1-0.7,0.2-1.3,0.3-2
		c0.4-2.4,0.1-4.7-0.4-7C88.4,105.1,88.4,104.6,88.3,104.1"/>
	<path class="st6" d="M33.1,104c-0.2,1-0.3,1.9-0.5,2.8c-0.6,2.4-0.3,4.8,0,7.1c0,0,0,0.1,0,0.1c0.2,1.3,0,1.2-0.9,1.3
		c-0.5,0-0.9,0.2-1.4,0.3c-0.4,0.1-0.9,0.1-1.3,0.1c-0.3,0-0.5-0.2-0.6-0.5c-0.3-2.3-0.7-4.6-1-7c-0.2-1.6-0.4-3.2-0.6-4.8
		c-0.1-1-0.2-1.9-0.2-2.9c0-0.6,0-0.7,0.6-0.6c1,0.1,1.9,0.2,2.9,0.3c0.5,0,0.6,0.3,0.6,0.7c0.1,0.6,0.2,1.3,0.4,1.8
		c0.2,0.7,0.7,1.1,1.4,1.1C32.8,103.9,32.9,104,33.1,104"/>
	<path class="st6" d="M19.1,128.5c0.6,0.8,1.3,1.2,2.3,0.8c0.1,0,0.3,0.1,0.4,0.1c0.6,0.5,1.4,0.3,2,0.5c1.1,0.3,1.8-0.3,2.6-1
		c1.2-1.1,2.5-2.1,3.7-3.2c0.3-0.3,0.7-0.7,1.1-1c0.7-0.6,1.2-0.4,1.8,0.2c0.1,0.1,0.2,0.3,0.3,0.4c0.7,0.8,2.1,1.3,3.3,1.4
		c0.5,0,0.1,0.3,0.1,0.8c0,1-0.2,1.8-0.9,2.5c-0.8,0.8-1.6,1.4-2.7,1.6c-1.4,0.3-2.9,0.6-4.4,0.5c-2.3-0.1-4.6-0.2-6.9-0.3
		c-0.6,0-1.2-0.1-1.8-0.3C18.5,131.1,18.2,129.9,19.1,128.5"/>
	<path class="st5" d="M38.3,122.6c3.2-1.9,5.7-3.6,7.8-6.6c-0.1,0.5-0.1,0.7-0.2,1c-0.8,3-1.4,6.1-2.6,9c-0.1,0.1-0.2,0.3-0.2,0.4
		c0.4,0.9-0.4,1.1-0.8,1.5c-0.5,0.6-1.1,1.2-1.5,1.9c-0.8,1.5-1.5,3.1-2.1,4.7c-0.3,0.7-0.7,1.2-1.3,1.4c-0.6,0.2-1.1,0.5-1.7,0.6
		c-0.8,0.1-1.1-0.3-0.9-1.1c0.2-0.8,0.8-1.4,1.5-1.8c0.9-0.6,0.9-0.6,0.6-1.5c-0.1-0.2-0.1-0.5-0.2-0.7c-0.2-0.3-0.1-0.6,0.1-0.9
		c0.8-1,1-2.1,0.9-3.4c0-0.4-0.2-0.6,0.1-0.9c0.3-0.2,0.6-0.5,0.8-0.8c0.5-0.7,0.3-1.5-0.3-2c-0.2-0.1-0.2-0.3-0.4-0.4
		C38.2,122.9,38.3,122.8,38.3,122.6"/>
	<path class="st6" d="M102.3,128.5c1,1.4,0.6,2.7-0.9,3.1c-1.3,0.3-2.6,0.4-3.9,0.5c-1.6,0.1-3.2,0.1-4.8,0
		c-1.3-0.1-2.6-0.3-3.9-0.4c-1.1-0.1-1.9-0.7-2.7-1.4c-0.9-0.8-1.3-1.8-1.3-3c0-0.4,0.2-0.5,0.5-0.5c1.3-0.1,2.2-0.8,3-1.7
		c0.8-0.9,1.1-0.9,2-0.1c1.4,1.2,2.7,2.5,4,3.8c0.4,0.4,0.9,0.7,1.4,1c0.6,0.3,1.2,0.5,1.8,0.2c0.7-0.2,1.5,0,2.2-0.5
		c0.1-0.1,0.2-0.1,0.3,0C101,129.8,101.7,129.3,102.3,128.5"/>
	<path class="st5" d="M83.2,122.8c-0.1,0.2-0.3,0.3-0.4,0.4c-0.8,0.9-0.8,1.8,0,2.6c0.1,0.1,0.3,0.3,0.4,0.4
		c0.4,0.2,0.4,0.5,0.4,0.9c-0.1,1.2,0.1,2.3,0.9,3.3c0.3,0.3,0.3,0.6,0.1,1c-0.1,0.3-0.2,0.5-0.3,0.8c-0.2,0.7-0.2,0.8,0.5,1.2
		c0.7,0.4,1.3,1,1.5,1.8c0.3,0.9-0.1,1.4-1,1.2c-0.8-0.2-1.6-0.6-2.4-1c-0.2-0.1-0.3-0.5-0.4-0.8c-0.6-1.3-1.1-2.7-1.7-4
		c-0.6-1.3-1.3-2.4-2.5-3.2c-0.2-0.2-0.4-0.3-0.3-0.7c0.1-0.3,0-0.6-0.1-0.9c-1.2-2.8-1.7-5.8-2.6-8.7c-0.1-0.2,0-0.5-0.1-0.8
		C79,120.4,78,119.9,83.2,122.8"/>
	<path class="st1" d="M94.5,171.2c-6.2-0.1-12.3-0.1-18.3-0.1c0-0.1,0-0.1,0-0.2c0.8-0.3,1.6-0.6,2.4-0.8c1.6-0.5,2.9-1.4,3.9-2.6
		c1-1.1,1.5-2.4,1.5-3.9c0-0.5,0-1,0-1.6c2.1,1.2,3.6,3,5.3,4.5C90.8,168.1,92.9,169.3,94.5,171.2"/>
	<path class="st1" d="M27.1,171.1c0.5-0.8,8.7-8,10.4-9.2c0,0.6,0,1.1,0,1.6c0,1.5,0.5,2.8,1.5,3.9c1.1,1.2,2.4,2.1,3.9,2.6
		c0.8,0.2,1.6,0.5,2.5,0.8C44.5,171.1,29.4,171.3,27.1,171.1"/>
	<path class="st2" d="M89.7,165.8c-0.5-0.6-0.9-1-1.4-1.5c-0.6-0.6-0.7-1.4-0.8-2.2c-0.3-2.9-0.3-5.7-0.3-8.6c0-3.2,0.1-6.4,0.1-9.6
		c0-0.3,0-0.6,0-0.8c0-0.1,0-0.3,0-0.4c0.5-0.5,1.1-0.2,1.6-0.2c0.3,0,0.5,0.1,0.6,0.5c0,0.3,0.1,0.6,0.1,1c0,1.8,0,3.7,0.1,5.5
		c0.1,2.6,0.1,5.1,0.2,7.7c0,1,0.4,1.8,1.3,2.3c0.5,0.3,0.7,0.6,0.6,1.2c0,0.1,0,0.2,0,0.2c0.2,1,0.1,1.9-0.8,2.8
		C90.4,164,90.2,164.9,89.7,165.8"/>
	<path class="st2" d="M31.7,165.7c-0.3-0.6-0.5-1-0.8-1.5c-0.2-0.4-0.4-0.8-0.7-1.1c-0.6-0.5-0.8-1-0.6-1.8c0.1-0.2,0.1-0.5,0-0.7
		c-0.1-0.6,0.2-1,0.7-1.4c0.8-0.5,1.2-1.3,1.2-2.3c0.1-3.9,0.2-7.9,0.3-11.8c0-0.6,0.1-1.1,0.1-1.7c0-1.2,0.3-1,1.1-1
		c0.1,0,0.2,0,0.4,0c0.6,0,0.7,0,0.7,0.7c0,1.4,0.1,2.8,0.1,4.2c0,2.4,0.2,4.9,0.1,7.3c-0.1,2.6-0.3,5.2-0.4,7.8
		c-0.1,0.8-0.4,1.5-1,2.1C32.5,164.9,32.1,165.3,31.7,165.7"/>
	<path class="st4" d="M100,145.1c-0.3-0.7-0.6-1.3-0.8-2c-0.1-0.3,0-0.6,0-0.9c0.4-2.1,0.7-4.2,1.1-6.4c0.1-0.7,0.1-1.4,0.1-2
		c0-0.5,0.1-0.7,0.6-0.8c0.7-0.2,1.4-0.5,2.3-0.9c0.4,0.3,0.6,0.9,0.9,1.4c0.8,1.8,1.2,3.7,1.5,5.7c0.1,0.9,0.2,1.8,0.3,2.7
		c0.1,0.6-0.1,0.9-0.6,1.1c-1.1,0.5-2.3,1-3.4,1.4C101.2,144.6,100.6,144.8,100,145.1"/>
	<path class="st4" d="M18.1,132c0.9,0.4,1.7,0.7,2.5,0.9c0.3,0.1,0.4,0.3,0.4,0.6c-0.1,2.8,0.6,5.5,1.2,8.2c0.1,0.7,0.2,1.4-0.2,2.1
		c-0.2,0.4-0.3,0.8-0.6,1.3c-1.8-0.7-3.5-1.5-5.3-2.2c-0.5-0.2-0.7-0.5-0.6-1c0.2-2.8,0.5-5.6,1.6-8.2
		C17.4,133.1,17.8,132.5,18.1,132"/>
	<path class="st1" d="M21.8,99c1.2,0,2.3,0.4,3.3,0.7c0.2,0.1,0.4,0.4,0.4,0.6c0.3,3.1,0.6,6.1,1,9.2c0.2,1.8,0.7,3.6,1,5.4
		c0.2,0.8,0.2,0.8-0.6,0.9c-0.6,0.1-1.2,0.1-1.9,0.2c-0.2-0.6-0.3-1.1-0.5-1.7c-1-3.7-1.6-7.4-2.1-11.2
		C22.3,101.8,22.1,100.5,21.8,99"/>
	<path class="st1" d="M99.6,99.1c-0.6,3.8-1.2,7.6-1.9,11.4c-0.3,1.7-0.8,3.3-1.2,5c-0.2,0.7-0.2,0.7-0.9,0.6
		c-0.3,0-0.5-0.1-0.8-0.2c-1.1-0.2-1.1-0.2-0.8-1.2c0.7-2.6,1-5.2,1.2-7.8c0.1-1.7,0.4-3.3,0.6-5c0-0.3,0.1-0.6,0.1-0.8
		c0.1-1.3,0.1-1.3,1.4-1.6c0.7-0.1,1.3-0.3,2-0.4C99.3,99,99.4,99.1,99.6,99.1"/>
	<path class="st4" d="M16.8,164.1c-0.4-2.4-0.8-4.7-1.2-6.9c-0.1-0.4-0.1-0.8,0.3-1c1.5-0.8,3-1.5,4.4-2.3c0.4-0.2,0.7-0.1,0.8,0.4
		c0.1,0.3,0.2,0.7,0.3,1c0.3,0.8,0.8,1.5,1.6,1.8c0.4,0.2,0.5,0.4,0.4,0.8c-0.2,0.8-0.4,1.5-0.6,2.3c-0.1,0.4-0.2,0.6-0.6,0.6
		C20.2,161.4,18.4,162.4,16.8,164.1"/>
	<path class="st4" d="M100.6,153.7c0.4,0.2,0.9,0.3,1.3,0.5c1.1,0.6,2.2,1.2,3.3,1.8c0.5,0.3,0.7,0.6,0.6,1.3
		c-0.2,1.1-0.4,2.3-0.6,3.4c-0.2,1.1-0.4,2.2-0.6,3.3c-0.6-0.5-1.1-1-1.7-1.5c-1.1-0.8-2.3-1.3-3.6-1.6c-0.5-0.1-0.7-0.4-0.8-0.9
		c-0.1-0.7-0.3-1.5-0.6-2.2c-0.1-0.3-0.1-0.6,0.2-0.7c1.3-0.5,1.8-1.6,2.1-2.8c0-0.2,0.1-0.3,0.2-0.4
		C100.4,153.9,100.5,153.8,100.6,153.7"/>
	<path class="st4" d="M105.8,143.9c0.2,0.9,0.2,10.1,0,11.3c-0.4-0.2-0.7-0.4-1-0.6c-1.2-0.6-2.4-1.3-3.6-1.8
		c-0.5-0.2-0.7-0.5-0.7-1.1c0-1.7-0.1-3.3-0.3-5c0-0.4,0.1-0.6,0.4-0.8c0.2-0.1,0.4-0.2,0.5-0.2
		C102.7,145.1,104.2,144.5,105.8,143.9"/>
	<path class="st4" d="M15.6,155.1c-0.2-1.4-0.2-10.3,0-11.3c0.8,0.4,1.7,0.8,2.5,1.1c0.8,0.3,1.6,0.6,2.5,0.9c0.5,0.2,0.6,0.5,0.6,1
		c-0.1,1.5-0.2,3.1-0.2,4.6c0,0.7-0.2,1.1-0.8,1.4C18.6,153.6,17.1,154.4,15.6,155.1"/>
	<path class="st7" d="M35.6,131.9c0.4,0.8,0.4,0.8-0.2,1.3c-0.8,0.6-1.5,1.4-1.6,2.4c-0.1,1,0.3,1.7,1.3,1.9c0.5,0.1,1,0,1.5,0
		c0.4-0.1,0.8-0.3,1.3-0.4c0,0.3,0,0.6,0,0.9c-0.1,0.9-0.3,1.9-0.5,2.8c-0.1,0.4-0.2,0.7-0.7,0.7c-1.4,0-2.8,0-4.2,0
		c-0.5,0-0.6-0.2-0.6-0.7c0.1-1.6,0.2-3.3,0.3-4.9c0.1-0.8,0.2-1.6,0.2-2.4c0-0.4,0.1-0.5,0.5-0.7C33.9,132.6,34.8,132.2,35.6,131.9
		"/>
	<path class="st7" d="M85.8,131.9c0.9,0.3,1.7,0.7,2.5,1c0.3,0.1,0.5,0.2,0.5,0.5c0.1,2.3,0.3,4.6,0.5,6.9c0,0.2,0,0.4,0,0.6
		c0,0.3-0.1,0.5-0.5,0.5c-1.4,0-2.9,0-4.3,0c-0.2,0-0.6-0.2-0.6-0.4c-0.2-1.3-0.4-2.6-0.6-4c0.6,0.2,1,0.3,1.4,0.5
		c0.9,0.3,1.8,0.2,2.5-0.6c0.5-0.6,0.4-1.7-0.2-2.7c-0.3-0.4-0.6-0.7-1-1C85.4,132.7,85.4,132.7,85.8,131.9"/>
	<path class="st6" d="M21.8,150.5c0.1-1.3,0.3-2.7,0.4-4c0.1-1.3,0.7-2.4,1.4-3.5c0.1-0.1,0.1-0.2,0.2-0.3c0.1-0.1,0.2-0.1,0.3-0.1
		c0.1,0,0.2,0.1,0.2,0.2c0,0.1,0,0.2,0,0.4c0.1,1.7,0.1,3.4,0.2,5.1c0.1,2.3,0.3,4.6,0.7,6.9c0.2,1.2-0.1,1.5-1.3,1.2
		c-0.6-0.1-1-0.5-1.3-1c-0.4-0.7-0.7-1.5-0.7-2.4c0-0.8,0-1.7,0-2.5C21.9,150.5,21.9,150.5,21.8,150.5"/>
	<path class="st6" d="M97.2,142.4c0.2,0.1,0.4,0.2,0.4,0.2c0.5,0.9,1,1.7,1.3,2.6c0.7,2.6,0.7,5.3,0.5,8c0,0.7-0.3,1.3-0.6,1.9
		c-0.4,0.9-1.3,1.4-2.4,1.2c-0.3,0-0.4-0.2-0.4-0.5c0.1-0.5,0.2-1,0.2-1.5c0.2-2.1,0.4-4.2,0.5-6.3c0.1-1.7,0.1-3.4,0.2-5.1
		C97.1,142.8,97.1,142.7,97.2,142.4"/>
	<path class="st4" d="M81,155.3c0.9-0.3,1.8-0.5,2.6-0.9c0.8-0.4,1.5-0.9,2.3-1.4c0.2,3.3,0.4,6.4,0.6,9.6c-1-0.6-1.8-1.4-2.7-2.2
		c-0.1-0.1-0.2-0.3-0.2-0.4C83.2,158.2,82.4,156.7,81,155.3"/>
	<path class="st4" d="M40.4,155.3c-1.4,1.3-2.1,2.8-2.6,4.5c-0.1,0.3-0.3,0.6-0.5,0.8c-0.7,0.7-1.5,1.3-2.4,2.1
		c0.2-3.3,0.4-6.5,0.6-9.7c0.8,0.5,1.5,1,2.3,1.4C38.6,154.8,39.5,155,40.4,155.3"/>
	<path class="st4" d="M24.5,135.2c-0.1,1.9-0.1,3.7-0.2,5.6c0,0.5-0.4,0.9-1,0.9c-0.1,0-0.3-0.2-0.4-0.4c-0.2-0.7-0.3-1.4-0.4-2.1
		c-0.3-1.5-0.6-3.1-0.8-4.6c-0.1-0.3,0-0.6-0.1-1c0-0.3,0.1-0.5,0.5-0.5c0.7,0.1,1.3,0.1,2,0.2c0.3,0,0.4,0.2,0.4,0.5
		C24.6,134.3,24.6,134.7,24.5,135.2C24.6,135.2,24.5,135.2,24.5,135.2"/>
	<path class="st4" d="M96.9,134.8c0-0.1,0-0.2,0-0.2c0-1.2-0.3-1.3,1.1-1.3c0.2,0,0.3,0,0.5,0c1.5-0.3,1.3,0.1,1.2,1.2
		c-0.3,2.3-0.8,4.6-1.2,6.8c0,0.2-0.3,0.4-0.3,0.4c-0.3-0.1-0.7-0.3-1-0.5c-0.1-0.1,0-0.3,0-0.5C97,138.8,97,136.8,96.9,134.8
		C96.9,134.8,96.9,134.8,96.9,134.8"/>
	<path class="st6" d="M91.9,174.7c0.6,0,1.2-0.1,1.8-0.1c0.7,0,1.1-0.4,1.3-1c0.1-0.6,0.3-1.2,0.5-1.7c0.3-0.7,0-1.2-0.5-1.7
		c-0.5-0.4-1-0.9-1.5-1.3c0.4-0.6,0.9-0.6,1.3-0.3c0.4,0.4,0.9,0.8,1,1.3c0.6,2,0.7,3.9-0.7,5.7c-0.2,0.3-0.5,0.6-0.8,0.7
		C93,176.9,92.3,176.5,91.9,174.7"/>
	<path class="st6" d="M29.6,174.7c-0.1,0.3-0.1,0.4-0.2,0.6c-0.5,1.3-1.8,1.6-2.8,0.5c-1.6-1.8-1.7-3.9-0.9-6.1
		c0.2-0.4,0.6-0.7,0.9-1.1c0.3-0.3,0.6-0.3,1-0.1c0.2,0.1,0.4,0.3,0.1,0.6c-0.4,0.4-0.8,0.8-1.2,1.1c-0.6,0.5-0.9,1-0.5,1.8
		c0.2,0.4,0.2,0.8,0.3,1.3c0.4,1.3,0.5,1.4,1.8,1.5C28.6,174.7,29.1,174.7,29.6,174.7"/>
	<path class="st4" d="M92.9,161.8c-0.1-0.2-0.1-0.4-0.2-0.6c-0.1-1.1-0.1-1.1,0.9-1.5c0.2-0.1,0.3-0.1,0.5-0.2
		c0.8-0.2,1.4-0.7,1.5-1.5c0-0.4,0.2-0.6,0.6-0.6c0.4,0,0.6,0.2,0.7,0.5c0.2,0.8,0.5,1.7,0.7,2.5c-0.9,0.1-1.7,0.1-2.5,0.3
		C94.4,161.1,93.7,161.5,92.9,161.8"/>
	<path class="st4" d="M28.5,161.9c-0.6-0.3-1.1-0.5-1.6-0.8c-0.8-0.4-1.6-0.4-2.5-0.4c-0.6,0-0.7-0.1-0.5-0.6
		c0.2-0.7,0.4-1.4,0.6-2.1c0.1-0.4,0.4-0.5,0.7-0.5c0.3,0,0.5,0.2,0.5,0.5c0.1,1,0.8,1.4,1.6,1.7c1.4,0.5,1.4,0.5,1.2,1.9
		C28.6,161.7,28.5,161.7,28.5,161.9"/>
	<path class="st4" d="M85.9,146.3c-0.5-0.1-1.1,0-1.4-0.3c-0.3-0.3-0.2-0.9-0.3-1.3c-0.1-0.6-0.1-1.1-0.1-1.7c0-0.4,0.2-0.6,0.6-0.6
		c0.1,0,0.2,0,0.2,0c1.4,0,1.2-0.1,1.2,1.2C86.2,144.5,86.2,145.4,85.9,146.3"/>
	<path class="st4" d="M35.5,146.3c-0.3-1.2-0.1-2.3-0.1-3.5c0-0.1,0.2-0.3,0.3-0.3c0.5,0,1,0,1.4,0c0.1,0,0.2,0.2,0.2,0.3
		c0,1-0.1,1.9-0.2,2.9c0,0.2-0.3,0.4-0.5,0.4C36.3,146.2,35.9,146.2,35.5,146.3"/>
	<g id="Linea_1_">
		<path class="st8" d="M20.6,99.1c0,0.1,0,0.1,0,0.2c0.3,1.7,0.6,3.3,0.8,5c0.5,3.9,1.3,7.7,2.5,11.4c0.1,0.4,0.2,0.7,0.3,0.8
			c0.3,0.3,0.5,0.5,0.7,0.9c0.8-0.3,1.8-0.4,2.7-0.5c0.2,0,1.5-0.4,1.7-0.6c0.1-0.2-0.8-0.9-0.8-1c-0.3-2.3-0.7-4.6-1-7
			c-0.2-1.6-0.4-3.2-0.6-4.8c-0.1-1-0.2-1.9-0.2-2.9c0-0.6,0-0.7,0.6-0.6c1,0.1,1.9,0.2,2.9,0.3c0.5,0,0.6,0.3,0.6,0.7
			c0.1,0.6,0.2,1.3,0.4,1.8c0.2,0.7,0.7,1.1,1.4,1.1c0.2,0,0.3,0.1,0.5,0.1c-0.2,1-0.3,1.9-0.5,2.8c-0.6,2.4-0.3,4.8,0,7.1
			c0,0,0,0.1,0,0.1c0.1,0.7,0.1,1-0.1,1.1c0,0.2,0.1,0.5,0.2,0.7c0.1-0.1,0.2-0.1,0.3-0.1c0.2,0,0.5-0.1,0.8-0.1c0-0.1,0-0.1,0-0.2
			c0-0.2-0.1-0.4-0.1-0.4c-0.6-3.3-0.5-6.5,0.3-9.6c0.1-0.6,0.3-1.2,0.4-1.9c0.1-0.6-0.1-0.9-0.7-0.9c-0.1,0-0.2,0-0.2,0
			c-0.4,0-1,0.2-1.2-0.3c-0.2-0.5-0.3-1.1-0.3-1.7c0-0.1,0.3-0.3,0.4-0.3c1-0.3,2-0.6,3-0.9c0.3-0.1,0.6-0.2,0.9-0.2
			c0.5,0.1,1,0.3,1.5,0.4c0.5,0.1,0.9,0.2,1.5,0.3c0.5,0,4.4-0.1,5-0.2c1.1-0.2,2-0.9,3-1.3c0.2-0.1,0.4-0.3,0.6-0.3
			c0.2,0,0.4,0,0.6,0c0-0.2,0.1-0.5,0.1-0.7c0-0.2,0.1-0.4,0.1-0.6c-0.6-0.1-1.2-0.2-1.8-0.3c0,0,0,0-0.1,0c-0.4,0.2-0.7,0.6-1,1.2
			c-0.8,0.6-1.5,0.9-2.4,1c-2.3,0.2-4.5,0.2-6.7-0.7c-0.3-0.1-0.6-0.1-0.9,0c-0.4,0.1-0.7,0.2-1,0.3c-2.4,1.2-5,1-7.5,0.5
			c-1.6-0.3-3.1-0.6-4.7-1c-0.7-0.2-1.3-0.3-2-0.5c-0.1,0.1-0.2,0.3-0.3,0.4c0.1,0.3,0.2,0.6,0.3,0.9C20.6,98.9,20.6,99,20.6,99.1z
			 M25.2,99.7c0.2,0.1,0.4,0.4,0.4,0.6c0.3,3.1,0.6,6.1,1,9.2c0.2,1.8,0.7,3.6,1,5.4c0.2,0.8,0.2,0.8-0.6,0.9
			c-0.6,0.1-1.2,0.1-1.9,0.2c-0.2-0.6-0.3-1.1-0.5-1.7c-1-3.7-1.6-7.4-2.1-11.2c-0.2-1.3-0.4-2.6-0.7-4.1
			C23,99.1,24.1,99.4,25.2,99.7z"/>
		<path class="st8" d="M114.9,142.6c0-2.9-0.5-5.7-1-8.5c-0.7-3.5-2.2-6.7-4.6-9.3c-0.8-0.9-1.8-1.7-2.9-2.3
			c-0.6-0.3-1.2-0.6-1.8-0.4c-0.6,0.1-1.6,0.3-2,0.3c0.1,0.2,0.2,0.4,0.3,0.6c0.1,0,0.2-0.1,0.3-0.1c0.4-0.2,0.9-0.2,1.4-0.1
			c0.1,0,0.1,0.1,0.2,0.1c0.4,0,0.8,0.2,1.1,0.4c1.3,0.8,2.4,1.9,3.3,3.1c2,2.7,3.2,5.7,3.7,9c0.6,3.4,0.9,6.7,0.9,10.1
			c0,2.2,0.1,4.4,0,6.6c-0.3,5.4-0.8,10.8-2.6,16c-0.6,1.7-1.4,3.3-2.2,4.9c-0.2,0.5-0.6,0.9-0.9,1.4c-0.4,0.5-0.9,0.9-1.7,1
			c0-0.5,0.1-0.9,0.1-1.2c0.2-2.2,0.3-4.4-0.4-6.5c-0.4-1.3-0.6-2.6-0.3-4c0.4-1.6,0.6-3.3,0.8-4.9c0.2-1.5,0.4-2.9,0.4-4.4
			c0.1-3.2,0.1-6.3,0-9.5c-0.1-3.1-0.3-6.2-1.1-9.3c-0.4-1.4-1-2.8-1.9-4c-0.2-0.3-0.3-0.6-0.3-1c0.1-1,0-1.9-0.8-2.6
			c-0.3-0.3-0.4-0.5-0.3-0.6c-0.4,0-0.7-0.1-1-0.2c-0.1,0.5-0.4,1-0.7,1.3c-0.1,0.1-0.3,0.2-0.6,0.3c0,0,0-0.1,0-0.1
			c0,0.1,0,0.1-0.1,0.2c-0.1,0.3-0.3,0.5-0.5,0.6c0,0,0,0,0,0c1,0.3,1.7-0.1,2.3-1c1,1.4,0.6,2.7-0.9,3.1c-1.3,0.3-2.6,0.5-3.9,0.5
			c-1.6,0.1-3.2,0.1-4.8,0c-1.3-0.1-2.6-0.3-3.9-0.4c-1.1-0.1-1.9-0.7-2.7-1.4c-0.9-0.8-1.3-1.8-1.3-3c0-0.2,0.1-0.6,0-0.6
			c-0.1-0.3-0.1-0.5-0.1-0.8c0-0.1,0-0.1,0-0.1c-0.1,0-0.2-0.1-0.3-0.1c-0.3,0.3-0.6,0.5-0.9,0.8c0.1,0.2,0.1,0.4,0.1,0.7
			c-0.1,1.2,0.1,2.3,0.9,3.3c0.3,0.3,0.3,0.6,0.1,1c-0.1,0.3-0.2,0.5-0.3,0.8c-0.2,0.7-0.2,0.8,0.5,1.2c0.7,0.4,1.3,1,1.5,1.8
			c0.3,0.9-0.1,1.4-1,1.2c-0.8-0.2-1.6-0.6-2.4-1c0,0-0.3-0.5-0.3-0.5c0.1,0.7,0.5,1.8,0.6,2.4c0-0.1,0-0.2,0-0.3
			c0.6,0.2,1,0.3,1.4,0.5c0.9,0.3,1.8,0.2,2.5-0.6c0.5-0.6,0.4-1.7-0.2-2.7c-0.3-0.4-0.6-0.7-1-1c-0.7-0.6-0.7-0.5-0.3-1.3
			c0.9,0.3,1.7,0.7,2.5,1c0.3,0.1,0.5,0.2,0.5,0.5c0.1,2.3,0.3,4.6,0.5,6.9c0,0.2,0,0.4,0,0.6c0,0.3-0.1,0.5-0.5,0.5
			c-1.4,0-3.5-0.4-4.9-0.4c-0.2,0-0.2,1.9,0.2,1.9c0.1,0,0.7-0.5,0.8-0.5c1.4,0,1.2-0.1,1.2,1.2c0,0.9,0.1,1.7-0.2,2.6
			c0,0,0,1.9-0.2,2.8c0,0.1,0,0.2,0,0.3c0,0.6,0.3,3.1,0.2,3.6c0.2,3.2,0.4,6.3,0.6,9.5c-1-0.6-1.9-1.4-2.7-2.2
			c-0.1-0.1-0.2-0.3-0.2-0.4c-0.1-0.2-0.3,0.1-0.4,0.4c0.1,0.1,0.1,0.2,0.2,0.3c0.3,1,0.5,1.5,0.5,1.3c2.1,1.2,3.6,3,5.3,4.5
			c1.7,1.6,3.7,2.8,5.3,4.7c-6.2-0.1-12.3-0.1-18.3-0.1c0-0.1-5.6-0.1-5.6-0.1H53.2c-0.1,0-0.2,0.1-0.3,0.1c-0.6,0-1.1,0-1.7-0.1
			c0,0-1.1,0.2-1.5,0.2c-1.4,0-4.4-0.4-4.3-0.4c-0.1,0-0.3,0.1-0.6,0.1c-0.1,0-0.1,0-0.2,0c0,0-0.1,0-0.1,0
			c-3.4,0.2-15.3,0.4-17.4,0.2c0.5-0.7,7.4-6.8,9.8-8.8c0.4-0.6,1-1.1,1.7-1.6c0.1-0.5,0.2-1,0.4-1.5c-0.5,0.3-0.9,0.6-1.4,1
			c0,0-0.1,0.1-0.2,0.1c-0.1,0.1-0.1,0.2-0.2,0.3c-0.7,0.7-1.5,1.3-2.4,2.1c0.2-3.3,0.4-6.5,0.6-9.7c0.1,0,0.2-1.9,0.2-2.2
			c-0.1-1,0-2,0-3c0-0.1-0.2-1.5-0.2-1.5c-0.3-1.2-0.1-2.3-0.1-3.5c0-0.1,0.2-0.3,0.3-0.3c0.5,0,1,0,1.4,0c0.1,0,0.1,0.1,0.2,0.2
			c0.2-0.2,0.4-0.3,0.7-0.3c0.3,0,0.5,0.1,0.6,0.2c0-0.5,0.1-1,0.2-1.5c-0.1,0-0.3,0-0.4,0c-0.1,0-0.3,0-0.4,0h-0.5
			c-0.1,0.2-0.3,0.3-0.6,0.3c-1.4,0-2.8,0-4.2,0c-0.5,0-0.6-0.2-0.6-0.7c0.1-1.6,0.2-3.3,0.3-4.9c0.1-0.8,0.2-1.6,0.2-2.4
			c0-0.4,0.1-0.5,0.5-0.7c0.9-0.3,1.7-0.6,2.5-1c0.4,0.8,0.4,0.8-0.2,1.3c-0.8,0.6-1.5,1.4-1.6,2.4c-0.1,1,0.3,1.7,1.3,1.9
			c0.5,0.1,1,0,1.5,0c0.3-0.1,0.7-0.2,1.1-0.4c0.6-0.5,1.2-0.9,1.9-0.9c0.1-0.5,0.3-1,0.4-1.5c0.1-0.2,0.1-0.4,0.2-0.5
			c-0.4,0-0.8,0-1.2-0.1c0,0,0,0,0,0c0,0.1-0.1,0.2-0.1,0.4c-0.3,0.7-0.7,1.2-1.3,1.4c-0.6,0.2-1.1,0.5-1.7,0.6
			c-0.8,0.1-1.1-0.3-0.9-1.1c0.2-0.8,0.8-1.4,1.5-1.8c0.9-0.6,0.9-0.6,0.6-1.5c-0.1-0.2-0.1-0.5-0.2-0.7c-0.2-0.3-0.1-0.6,0.1-0.9
			c0.8-1,1-2.1,0.9-3.4c0-0.1,0-0.3,0-0.4c0,0,0,0,0,0c0-0.5,0-1,0-1.5c-0.1,0.1-0.3,0.2-0.5,0.4c-0.2,0.1-0.4,0.2-0.7,0.3
			c0,0.2,0,0.4-0.1,0.5c0,0.3,0,1,0,1.2c0,1-0.2,1.8-0.9,2.5c-0.8,0.8-1.6,1.4-2.7,1.6c-1.4,0.3-2.9,0.6-4.4,0.5
			c-2.3-0.1-4.6-0.2-6.9-0.3c-0.6,0-1.2-0.2-1.8-0.3c-1.4-0.5-1.7-1.7-0.8-3.1c0,0-0.2-0.7-0.3-1.1c0,0-0.2,0.2-0.3,0.3
			c-0.9,0.8-1,1.7-0.9,2.8c0,0.3-0.1,0.6-0.3,0.9c-1.6,2.2-2.2,4.8-2.6,7.5c-0.7,5.3-0.5,10.7-0.4,16c0,2.1,0.3,4.2,0.8,6.3
			c0.3,1.4,0.5,2.7,0.7,4.1c0,0.3-0.1,0.6-0.2,0.8c-1,2.4-1,5-0.8,7.5c0,0.5,0.1,0.9,0.2,1.6c-1.4-0.4-2-1.3-2.6-2.3
			c-1.1-2-2-4.2-2.7-6.4c-0.9-3.2-1.4-6.5-1.8-9.8c-0.5-4.3-0.4-8.6-0.4-12.9c0.1-3.6,0.5-7.2,1.3-10.8c0.7-2.9,2-5.5,4-7.7
			c0.8-0.9,1.7-1.5,2.6-2.3c0.5-0.4,1.1-0.5,1.7-0.3c0,0,0,0,0,0.1c0.1,0,0.1,0,0.2,0c0.4,0.1,0.6,0.3,0.8,0.6c0,0,0,0,0-0.1
			c0.1-0.3,0.2-0.6,0.4-0.9c-0.3-0.2-0.6-0.4-0.9-0.6c-0.1,0-0.1,0-0.2-0.1c-0.1,0-0.2,0.1-0.4,0c-1-0.2-1.8,0.1-2.6,0.6
			c-3,2-4.9,4.8-6.1,8.1c-1.2,3.2-1.7,6.5-1.9,9.8c-0.2,2.3-0.2,4.6-0.2,6.9c-0.1,3.1,0.1,6.1,0.4,9.2c0.4,3.8,0.9,7.5,2,11.2
			c0.6,2,1.5,4,2.5,5.8c0.8,1.5,1.9,2.7,3.7,3c0.4,0.1,0.5,0.3,0.6,0.6c0.3,0.8,0.6,1.6,1,2.3c0.7,1.1,1.4,2.2,2.6,3
			c2.2,1.3,4.5,1.9,7.1,2.1c2.2,0.1,3.8-0.9,4.7-2.8c0.2-0.4,0.3-0.8,0.6-1.1c1.3-1.6,2.1-3.5,2.3-5.6c0-0.4,0.2-0.6,0.6-0.6
			c0.2,0,0.5,0,0.7,0c4.4,0,8.7,0,13.1,0c1.4,0,2.7,0,4.1,0c2.9,0,5.8,0.2,8.6,0.1c3.7,0,7.4-0.1,11-0.2c4.9,0,9.8,0,14.6,0
			c1,0,1,0,1.1,0.9c0.3,1.6,0.8,3.1,1.7,4.4c0.5,0.7,0.9,1.6,1.4,2.4c0.9,1.4,2.1,2.2,3.8,2.3c1.9,0.1,3.7-0.3,5.4-0.9
			c1.9-0.7,3.5-1.7,4.5-3.5c0.5-0.9,0.9-1.8,1.4-2.8c0.1-0.3,0.2-0.6,0.6-0.6c1.8-0.4,2.9-1.6,3.7-3.1c1.1-2.1,2.1-4.2,2.7-6.5
			c1.5-5.2,1.9-10.5,2.1-15.9C115.1,148.4,114.9,145.5,114.9,142.6z M105.8,157.3c-0.2,1.1-0.4,2.3-0.6,3.4
			c-0.2,1.1-0.4,2.2-0.6,3.3c-0.6-0.5-1.1-1-1.7-1.5c-1.1-0.8-2.3-1.3-3.6-1.6c-0.5-0.1-0.7-0.4-0.8-0.9c-0.1-0.7-0.3-1.5-0.6-2.2
			c-0.1-0.3-0.1-0.6,0.2-0.7c1.3-0.5,1.8-1.6,2.1-2.8c0-0.2,0.1-0.3,0.2-0.4c0,0,0.1-0.1,0.2-0.2c0.4,0.2,0.9,0.3,1.3,0.5
			c1.1,0.6,2.2,1.2,3.3,1.8C105.7,156.3,105.9,156.7,105.8,157.3z M105.8,155.2c-0.4-0.2-0.7-0.4-1-0.6c-1.2-0.6-2.4-1.3-3.6-1.8
			c-0.5-0.2-0.7-0.5-0.7-1.1c0-1.7-0.1-3.3-0.3-5c0-0.4,0.1-0.6,0.4-0.8c0.2-0.1,0.4-0.2,0.5-0.3c1.5-0.6,3.1-1.2,4.7-1.8
			C106.1,144.8,106.1,154.1,105.8,155.2z M100.4,133.7c0-0.5,0.1-0.7,0.6-0.8c0.7-0.2,1.4-0.5,2.3-0.9c0.4,0.3,0.6,0.9,0.9,1.4
			c0.8,1.8,1.2,3.7,1.5,5.6c0.1,0.9,0.2,1.8,0.3,2.7c0.1,0.6-0.1,0.9-0.6,1.1c-1.1,0.5-2.3,1-3.4,1.4c-0.6,0.2-1.2,0.4-1.9,0.7
			c-0.3-0.7-0.6-1.3-0.8-2c-0.1-0.3,0-0.6,0-0.9c0.4-2.1,0.8-4.2,1.1-6.4C100.4,135.1,100.4,134.4,100.4,133.7z M98,133.3
			c0.2,0,0.3,0,0.5,0c1.5-0.3,1.3,0.1,1.2,1.2c-0.3,2.3-0.8,4.6-1.2,6.8c0,0.2-0.3,0.4-0.3,0.4c-0.3-0.1-0.7-0.3-1-0.5
			c-0.1-0.1,0-0.3,0-0.5c0-2-0.1-3.9-0.1-5.9c0,0,0,0-0.1,0c0-0.1,0-0.2,0-0.2C96.8,133.4,96.6,133.3,98,133.3z M96.3,154.4
			c0.2-2.1,0.4-4.2,0.5-6.3c0.1-1.7,0.1-3.4,0.2-5.1c0-0.2,0.1-0.3,0.1-0.6c0.2,0.1,0.4,0.2,0.4,0.2c0.5,0.9,1,1.7,1.3,2.6
			c0.7,2.6,0.7,5.3,0.5,8c0,0.7-0.3,1.3-0.6,1.9c-0.4,0.9-1.4,1.4-2.4,1.2c-0.3,0-0.4-0.2-0.4-0.5C96.2,155.4,96.3,154.9,96.3,154.4
			z M97.6,160.6c-0.9,0.1-1.7,0.1-2.5,0.3c-0.7,0.2-1.4,0.6-2.2,0.9c-0.1-0.2-0.1-0.4-0.2-0.6c-0.1-1.1-0.1-1.1,0.9-1.5
			c0.1-0.1,0.3-0.1,0.5-0.2c0.8-0.2,1.4-0.7,1.5-1.5c0-0.4,0.2-0.6,0.6-0.6c0.4,0,0.6,0.2,0.7,0.5C97.2,158.9,97.4,159.7,97.6,160.6
			z M94.5,133.4c0.3,0,0.6,0,0.8,0c0.3,0,0.5,0.2,0.5,0.5c0,0.6,0.1,1.3,0.1,1.9c0,2.8,0.1,5.5,0,8.3c0,4.3-0.3,8.6-1.2,12.8
			c0,0.1,0,0.2-0.1,0.4c-0.2,1.1-1.1,1.7-2.1,1.7c-0.8,0-1.6-0.9-1.8-1.8c0-0.4,0-0.7,0-1.1c0-3.7,0-7.3-0.1-11
			c-0.1-2.9-0.2-5.7-0.4-8.6c-0.1-1-0.2-2-0.3-3C91.7,133.4,93.1,133.4,94.5,133.4z M88.3,164.3c-0.6-0.6-0.7-1.4-0.8-2.2
			c-0.3-2.9-0.3-5.7-0.3-8.6c0-3.2,0.1-6.4,0.1-9.6c0-0.3,0-0.6,0-0.8c0-0.1,0-0.3,0-0.4c0.5-0.5,1.1-0.2,1.6-0.2
			c0.3,0,0.5,0.1,0.6,0.5c0,0.3,0.1,0.6,0.1,1c0,1.8,0,3.7,0.1,5.5c0.1,2.6,0.1,5.1,0.2,7.7c0,1,0.4,1.8,1.3,2.3
			c0.5,0.3,0.7,0.6,0.6,1.2c0,0.1,0,0.2,0,0.2c0.2,1,0.1,1.9-0.8,2.8c-0.5,0.5-0.8,1.4-1.3,2.3C89.2,165.2,88.7,164.7,88.3,164.3z
			 M94.9,170.2c-0.5-0.4-1-0.9-1.5-1.3c0.4-0.6,0.9-0.6,1.3-0.3s0.9,0.8,1,1.3c0.6,2,0.7,3.9-0.7,5.7c-0.2,0.3-0.5,0.6-0.8,0.7
			c-1.3,0.7-1.9,0.3-2.4-1.5c0.6,0,1.2-0.1,1.8-0.1c0.7,0,1.1-0.4,1.3-1c0.1-0.6,0.3-1.2,0.5-1.7C95.7,171.1,95.4,170.6,94.9,170.2z
			 M27.8,169c-0.4,0.4-0.8,0.8-1.2,1.1c-0.6,0.5-0.8,1-0.5,1.8c0.2,0.4,0.2,0.8,0.4,1.3c0.4,1.3,0.5,1.4,1.8,1.5
			c0.4,0,0.9,0,1.4,0.1c-0.1,0.3-0.1,0.4-0.2,0.6c-0.5,1.3-1.8,1.6-2.8,0.5c-1.6-1.8-1.7-3.9-0.9-6.1c0.2-0.4,0.6-0.7,0.9-1.1
			c0.3-0.3,0.6-0.3,1-0.1C27.9,168.6,28,168.8,27.8,169z M31.9,145.1c0-0.6,0.1-1.1,0.1-1.7c0-1.2,0.3-1,1.1-1c0.1,0,0.2,0,0.4,0
			c0.6,0,0.7,0,0.7,0.7c0,1.4,0.1,2.8,0.1,4.2c0,2.4,0.2,4.9,0.1,7.3c-0.1,2.6-0.3,5.2-0.4,7.8c-0.1,0.8-0.4,1.5-1,2.1
			c-0.4,0.4-0.8,0.8-1.2,1.2c-0.3-0.6-0.5-1-0.8-1.5c-0.2-0.4-0.4-0.8-0.7-1.1c-0.6-0.5-0.8-1-0.6-1.8c0.1-0.2,0.1-0.5,0-0.7
			c-0.1-0.6,0.2-1,0.7-1.4c0.8-0.5,1.2-1.3,1.2-2.3C31.7,153,31.8,149.1,31.9,145.1z M25.4,136.8c0-0.9,0.1-1.8,0.1-2.8
			c0-0.5,0.2-0.6,0.7-0.6c1,0,2,0,3,0c0.7,0,1.4-0.1,2.2-0.1c0,0.5,0,1-0.1,1.4c-0.6,6.3-0.6,12.6-0.7,18.9c0,1,0,2,0,3
			c0,0.4-0.1,0.9-0.2,1.3c-0.5,1.1-2.4,1.3-3.2,0.5c-0.2-0.2-0.3-0.6-0.4-0.9c-0.3-1.7-0.7-3.4-0.9-5.2
			C25.2,147.1,25.3,141.9,25.4,136.8z M28.6,161.6c0,0.1-0.1,0.1-0.1,0.3c-0.6-0.3-1.1-0.5-1.6-0.8c-0.8-0.4-1.6-0.4-2.5-0.4
			c-0.6,0-0.7-0.1-0.5-0.6c0.2-0.7,0.4-1.4,0.6-2.1c0.1-0.4,0.4-0.5,0.7-0.5c0.3,0,0.5,0.2,0.5,0.5c0.1,1,0.8,1.4,1.6,1.7
			C28.8,160.2,28.8,160.2,28.6,161.6z M24,156.3c-0.6-0.1-1-0.5-1.3-1c-0.4-0.7-0.7-1.5-0.7-2.4c0-0.8,0-1.7,0-2.5c0,0-0.1,0-0.1,0
			c0.1-1.3,0.3-2.7,0.4-4c0.1-1.3,0.7-2.4,1.4-3.5c0.1-0.1,0.1-0.2,0.2-0.3c0.1-0.1,0.2-0.1,0.3-0.1c0.1,0,0.2,0.1,0.2,0.2
			c0,0.1,0,0.2,0,0.4c0.1,1.7,0.1,3.4,0.2,5.1c0.1,2.3,0.3,4.6,0.7,6.9C25.5,156.4,25.2,156.7,24,156.3z M22.2,133.2
			c0.7,0.1,1.3,0.1,2,0.2c0.3,0,0.4,0.2,0.4,0.5c0,0.4,0,0.9,0,1.3c0,0,0,0-0.1,0c0,1.9-0.1,3.7-0.2,5.6c0,0.5-0.4,0.9-1,0.9
			c-0.1,0-0.3-0.2-0.4-0.4c-0.2-0.7-0.3-1.4-0.4-2.1c-0.3-1.5-0.6-3.1-0.8-4.6c-0.1-0.3,0-0.6-0.1-1
			C21.7,133.3,21.8,133.1,22.2,133.2z M17.2,133.8c0.3-0.6,0.7-1.2,1-1.8c0.9,0.4,1.7,0.7,2.5,0.9c0.3,0.1,0.4,0.3,0.4,0.6
			c-0.1,2.8,0.6,5.5,1.2,8.2c0.1,0.7,0.2,1.4-0.2,2.1c-0.2,0.4-0.3,0.8-0.6,1.3c-1.8-0.7-3.5-1.5-5.3-2.2c-0.5-0.2-0.7-0.5-0.6-1
			C15.8,139.1,16,136.4,17.2,133.8z M15.6,143.9c0.8,0.4,1.7,0.8,2.5,1.1c0.8,0.3,1.6,0.6,2.5,0.9c0.5,0.2,0.6,0.5,0.6,1
			c-0.1,1.5-0.2,3.1-0.2,4.6c0,0.7-0.2,1.1-0.8,1.4c-1.5,0.7-3,1.5-4.5,2.3C15.4,153.7,15.4,144.8,15.6,143.9z M15.6,157.3
			c-0.1-0.4-0.1-0.8,0.3-1c1.5-0.8,3-1.5,4.4-2.3c0.4-0.2,0.7-0.1,0.8,0.4c0.1,0.3,0.2,0.7,0.3,1c0.3,0.8,0.8,1.5,1.6,1.8
			c0.4,0.2,0.5,0.4,0.4,0.8c-0.2,0.8-0.4,1.5-0.6,2.3c-0.1,0.4-0.2,0.6-0.6,0.6c-2.1,0.5-3.9,1.5-5.5,3.2
			C16.4,161.7,16,159.5,15.6,157.3z M26.8,183.5c-2.5,0-4.9-0.6-7.1-1.9c-0.4-0.3-0.8-0.7-1.1-1.1c-1.5-1.7-2.1-3.8-2.4-6
			c-0.2-1.7-0.2-3.4,0-5.1c0.5-3.8,2.7-6.4,6.4-7.2c1.2-0.3,2.4-0.3,3.7-0.1c0,0.1,0,0.2-0.1,0.2c-2.2,1-3.3,2.9-4.3,5
			c-0.6,1.4-0.9,2.8-0.8,4.3c0.1,1.6-0.1,3.3,0.2,4.9c0.6,2.7,2.2,4.6,4.5,5.9c0.5,0.3,1.2,0.3,1.8,0.5c0.3,0.1,0.5,0,1,0.1
			C28,183.3,27.4,183.5,26.8,183.5z M32.4,176.2c-0.2,1.3-0.8,2.4-1.5,3.5c-0.7,0.9-1.6,1.5-2.6,1.9c-0.8,0.3-1.5,0-2.2-0.4
			c-2.3-1.6-3.7-3.6-3.7-6.5c0-1.2,0-2.3,0-3.5c0-2.7,1.1-4.9,2.7-7c1.2-1.4,4.3-1.5,5,0.5c0.2,0.6,0.6,1,0.8,1.6
			c-0.5,0.4-0.9,0.9-1.4,1.3c-0.2,0.2-0.4,0.3-0.8,0.6c-0.2-0.2-0.4-0.3-0.5-0.4c-0.7-0.5-1.6-0.5-2.3,0c-0.6,0.4-1.2,1-1.4,1.8
			c-0.7,2.4-0.7,4.6,0.9,6.7c0.8,1,1.7,1.4,2.9,1.3c0.7,0,1.3-0.4,1.6-1.1c0.2-0.4,0.4-0.8,0.4-1.2c0.1-0.4,0.3-0.5,0.6-0.5
			C33,174.7,32.7,174.6,32.4,176.2z M64.8,173.6c-1.3,0-2.6-0.1-3.8-0.1c-0.6,0-1.3,0.1-1.9,0.1c-8.4,0-16.7,0-25.1,0
			c-1.8,0-3.6,0-5.4,0.1c-1,0-1,0-1.3-0.9c-0.1-0.2-0.1-0.4-0.2-0.8c22.4,0.1,44.8,0.1,67.1,0c0,0.2,0,0.3,0,0.3
			c-0.3,1.4-0.3,1.4-1.8,1.4C83.2,173.7,74,173.6,64.8,173.6z M90.1,178.9c-0.6-1-1-2.2-1.2-3.4c-0.1-0.8-0.1-0.8,0.7-0.9
			c0.1,0,0.2,0,0.4,0c0.7,0,0.7,0,0.9,0.7c0.1,0.3,0.2,0.5,0.3,0.8c0.4,1,1.1,1.4,2.2,1.3c1.1-0.1,1.9-0.5,2.5-1.4
			c1.6-2.1,1.6-4.4,0.8-6.7c-0.2-0.6-0.7-1.1-1.2-1.6c-0.8-0.7-1.7-0.6-2.5,0c-0.1,0.1-0.2,0.2-0.5,0.4c-0.7-0.6-1.2-1.1-1.8-1.5
			c-0.3-0.2-0.4-0.5-0.1-0.8c0.3-0.4,0.6-0.8,0.7-1.2c0.7-1.8,3.7-1.9,4.8-0.6c0.7,0.9,1.4,1.9,2,3c0.6,1.1,0.9,2.2,0.9,3.5
			c0,1.5,0.1,3,0,4.4c-0.1,2.7-1.5,4.7-3.7,6.2c-0.9,0.6-1.7,0.6-2.7,0.2C91.5,180.7,90.7,179.9,90.1,178.9z M104.7,176.9
			c-0.4,1.6-1.2,3-2.4,4.1c-0.7,0.7-1.6,1.2-2.5,1.5c-1.6,0.6-3.4,1-5.1,1c-0.6,0-1.2-0.1-1.6-0.6c0.1-0.1,0.1-0.1,0.1-0.1
			c2.4,0.1,3.9-1.3,5.2-2.9c1.2-1.5,1.8-3.3,1.9-5.2c0-1.2,0-2.5,0-3.7c-0.1-3-1.3-5.6-3.4-7.7c-0.5-0.5-1.2-0.8-1.8-1.3
			c2.7-0.4,5.1,0.1,7.2,1.6c0.4,0.3,0.7,0.5,1,0.9c1,1.3,1.8,2.7,2.1,4.4C105.6,171.5,105.4,174.2,104.7,176.9z"/>
		<path class="st8" d="M74.1,98.3c0.6,0.4,1.3,0.7,1.9,1c0.4,0.2,0.9,0.4,1.4,0.5c1.1,0.1,3.1,0.8,3.1,0.8c0.2-0.2,0.4-0.4,0.7-0.4
			h0.8c0.2,0,0.3,0,0.2,0l0-0.2c1-0.2,1.9-0.5,2.9-0.7c0.3-0.1,0.5,0,0.8,0.1c1.1,0.3,2.2,0.7,3.3,1c0.3,0.1,0.4,0.2,0.4,0.5
			c-0.1,0.3-0.1,0.6-0.2,0.9c-0.2,0.9-0.3,0.9-1.2,0.9c-0.1,0-0.2,0-0.2,0c-0.8,0-1,0.3-0.9,1c0.2,1,0.4,2,0.6,3
			c0.6,2.7,0.4,5.5,0,8.3c-0.1,0-0.1,0.7-0.2,1c0.3,0.1,0.7,0.1,1.1,0.2c0-0.2,0-0.4,0-0.5c0.1-0.2,0.2-0.8,0.2-1
			c0.1-0.7,0.2-1.3,0.3-2c0.4-2.4,0.1-4.7-0.4-7c-0.1-0.5-0.2-1-0.3-1.5c0.1-0.1,0.2-0.2,0.2-0.2c1.4-0.3,1.9-0.8,2.1-2.2
			c0-0.2,0-0.4,0-0.6c0.1-0.8,0.1-0.8,0.8-0.8c0.6,0,1.1-0.1,1.7-0.1c0.5,0,1-0.1,1.7-0.2c-0.2,1.8-0.3,3.5-0.5,5.2
			c-0.1,1.3-0.2,2.6-0.4,3.9c-0.3,2.1-0.6,4.1-1,6.1c0.1,0.1,0,0.5,0,0.6c0.4,0,0.9-0.1,1.2,0.1c0.4,0.2,2,0.5,2.4,0.8
			c0.9,0,0.8-0.3,1-1c1-3.2,1.8-6.5,2.2-9.8c0.2-1.8,0.5-3.6,0.8-5.3c0.1-0.7,0-1.6,0.6-2c0,0,0.1,0,0.1-0.1c0-0.2-0.1-0.4,0-0.6
			c0,0,0,0,0,0c-0.2-0.2-0.3-0.4-0.3-0.6c-1.8,0.5-3.6,0.9-5.5,1.2c-1.1,0.2-2.1,0.4-3.2,0.6c-1.8,0.3-3.5,0.2-5.2-0.6
			c-0.4-0.2-0.7-0.3-1.1-0.4c-0.6-0.2-1.1-0.2-1.7,0c-1,0.3-2.1,0.5-3.2,0.6c-0.9,0.1-1.8,0-2.8,0c-1-0.1-1.9-0.3-2.7-1
			c0.2-0.1-0.6-0.3-1.2-0.4c-0.4-0.1-0.6-0.3-0.7-0.6c0.1,0.5,0.1,1.1,0.1,1.6C74,98.3,74,98.3,74.1,98.3z M95.7,101.9
			c0-0.3,0.1-0.6,0.1-0.8c0.1-1.3,0.1-1.3,1.4-1.6c0.7-0.1,1.3-0.3,2-0.4c0.1,0,0.1,0,0.3,0.1c-0.6,3.8-1.2,7.6-1.9,11.3
			c-0.3,1.7-0.8,3.3-1.2,5c-0.2,0.7-0.2,0.7-0.9,0.6c-0.3-0.1-0.5-0.1-0.8-0.2c-1.1-0.2-1.1-0.2-0.8-1.2c0.7-2.6,1-5.2,1.2-7.8
			C95.3,105.2,95.5,103.6,95.7,101.9z"/>
	</g>
</g>
<g id="Torso_x5F_piernas">
	<path class="st8" d="M86.9,146.6c-0.3-0.1-0.8-0.2-1-0.3c-0.5-0.1-1.1,0-1.3-0.3c-0.3-0.3-0.2-0.9-0.3-1.3
		c-0.1-0.6-0.1-1.1-0.1-1.7c0-0.2-0.2-1.9-0.2-2c-0.2-1.3-0.4-2.6-0.6-4c0,0-0.6-2.1-0.7-2.4c-0.6-1.3-1.1-2.7-1.7-4
		c-0.6-1.3-1.3-2.4-2.5-3.2c-0.2-0.2-0.4-0.3-0.3-0.7c0.1-0.3,0-0.6-0.1-0.9c-1.1-2.8-2.7-9.6-2.7-9.8c0-0.6-0.2-1.2-0.3-1.8
		c-0.1-0.3-0.2-1.2-0.4-1.5c2.1-0.6,3.6-1.7,4.2-3.8c0.2-0.4,0.3-0.5,0.5-0.9c0.1-0.2,0.3-0.8,0.3-0.9c-0.1-0.1-0.1-0.3-0.2-0.4
		c-0.3-0.8-0.1-1.1,0.8-1.1c1,0,1.9-0.1,2.8-0.5c1.3-0.6,2.2-1.6,2.3-3.1c0.1-0.6-0.4-1.2-1-1.4c-0.7-0.2-1.5-0.4-2.3-0.6
		c0,0-3.8-1.4-3.8-1.4c-0.9-0.1-1.7-0.3-2.5-0.9c-0.6-0.2-1-0.7-1.2-1.2c-1.3,0.3-2.6,0.4-3.8,0.5c-4.4,0.6-8.8,0.6-13.3,0.5
		c-3.3-0.1-6.5-0.5-9.7-0.9c-0.3,0.2-1.5,0.8-1.9,1c0,0,0,0,0,0c-0.8,0.6-1.5,0.9-2.4,1c-0.2,0-1,0.2-1.3,0.3
		c-0.4,0.2-0.9,0.3-1.3,0.5c-0.1,0-0.2,0-0.3,0.1c-0.3,0.2-1.2,0.4-1.3,0.5c-0.4,0.3-0.8,0.3-1.2,0.4c-0.2,0.1-0.5,0.1-0.7,0.2
		c-1.3,0.4-1.5,0.7-1.1,2.1c0.4,1.2,1.1,2.1,2.3,2.5c0.9,0.3,1.8,0.4,2.7,0.5c0.6,0.1,1,0.6,0.7,1.2c0,0,0.2,1.1,0.4,1.8
		c0.1,0.3,0.2,0.5,0.3,0.8c0.4,0.7,0.9,1.4,1.5,2c0.7,0.6,1.6,0.9,2.5,1.4c-0.1,0.2-0.6,3.8-0.7,4.1c-0.8,3-1.4,6.1-2.6,9
		c-0.1,0.1-0.5,1.5-0.9,1.9c-0.5,0.6-1.1,1.2-1.5,1.9c-0.8,1.5-1.5,3.1-2.1,4.7c-0.1,0.2-0.9,3.3-0.9,3.5c-0.1,0.9-0.3,1.9-0.5,2.8
		c0,0.2-0.3,2-0.3,2.1c0,1-0.1,1.9-0.2,2.9c0,0.2-0.3,0.4-0.5,0.4c-0.3,0.1-0.7,0.1-1.1,0.2c0,0-1.1,0.7-1.1,1c-0.2,1.3,0,2.8,0,4.1
		c0,0.4,0.2,0.9,0.6,1.1c0.3,0.1,0.5,0.3,0.7,0.6c0.8,0.5,1.4,1,2.2,1.3c0.8,0.4,1.7,0.6,2.6,0.9c-1.4,1.3-2.1,2.8-2.6,4.5
		c0,0.2-0.3,3.2-0.3,3.7c0,1.5,0.5,2.8,1.5,3.9c1.1,1.2,2.3,2.1,3.9,2.6c0.7,0.2,3.3,0.7,3.7,0.8c1.2,0.2,2.5,0.2,3.8,0.2
		c0.2-0.1,0.5-0.1,0.5-0.2c0.6-0.3,1.1-0.6,1.7-0.8c2.9-1.2,4.7-3.5,6.1-6.2c0.6-1.2,1.1-2.6,1.7-3.8c0.1-0.3,0.2-0.5,0.4-0.9
		c0.2,0.4,0.4,0.7,0.5,1c0.5,1.2,1,2.5,1.6,3.7c1.4,2.7,3.3,5,6.2,6.2c0.5,0.2,1,0.5,1.5,0.7c0,0,0.1,0,0.1,0c0.6,0,2,0.3,2.4,0.3
		c0.5,0,2.2-0.2,2.8-0.2c0.1,0,1.9-0.5,2.7-0.8c1.6-0.5,2.9-1.4,3.9-2.6c1-1.1,1.5-2.4,1.5-3.9c0-0.5,0-1,0-1.5
		c0.1,0.1-0.2-1.8-0.3-2c-0.4-1.8-1.3-3.3-2.6-4.7c0.9-0.3,1.8-0.5,2.6-0.9c0.8-0.4,1.5-0.9,2.3-1.4c0,0,0.3-0.3,0.7-0.5
		c0.3-0.2,0.6-0.6,0.6-1c0-1.5,0-2.9,0-4.4C87.2,146.8,87.1,146.6,86.9,146.6z M72.5,98.2c0.5-0.1,1.1-0.2,1.6,0.1
		c0.6,0.4,1.3,0.7,1.9,1c0.4,0.2,0.9,0.4,1.4,0.5c1.2,0.1,2.3,0.5,3.4,0.9c0.9,0.4,1.8,0.6,2.7,0.8c0.6,0.2,0.7,0.4,0.5,1
		c-0.3,1-1,1.5-1.9,1.8c-0.6,0.2-1.2,0.2-1.8,0.2c-0.4,0-0.7,0-1.1,0c-0.9,0-1.1,0.3-1.2,1.1c0,0.4,0,0.7,0,1.1
		c0,1.2-0.4,2.3-1.1,3.3c-0.6,1-1.6,1.2-2.7,1.5c-0.1-0.7-0.3-1.4-0.4-2c-0.6-3-1.1-6-1.7-9c-0.1-0.6-0.1-1.2-0.1-1.8
		C72.1,98.5,72.3,98.3,72.5,98.2z M64.6,98.9c-1.4,2.2-5.9,2.2-7.9,0H64.6z M44.2,109.8c-0.6-1.1-0.9-2.2-0.9-3.4
		c0-1.7-0.1-1.8-1.8-1.8c-0.7,0-1.4,0-2.1-0.2c-0.9-0.2-1.6-0.8-1.9-1.7c-0.3-0.7-0.2-0.9,0.5-1.1c0.8-0.2,1.5-0.4,2.3-0.7
		c1.3-0.5,2.6-0.9,4-1.1c1.1-0.2,2-0.9,3-1.3c0.2-0.1,0.4-0.3,0.6-0.3c0.4,0,0.9,0,1.3,0.2c0.2,0.1,0.1,0.7,0.2,1.1
		c-0.3,1.4-0.5,2.9-0.8,4.3c-0.4,2.3-0.8,4.5-1.2,6.8c0,0.2-0.1,0.5-0.2,0.7c-0.1,0.1-0.3,0.3-0.4,0.2
		C45.7,111.2,44.8,110.8,44.2,109.8z M59.7,158.1c-0.7,1.7-1.4,3.3-2.1,5c-1.4,3.2-3.9,5.4-7.2,6.7c-0.2,0.1-0.4,0.2-0.6,0.2
		c-1.7,0-3.4,0.2-5.1-0.4c-0.6-0.2-1.3-0.4-1.9-0.6c-2.1-0.9-3.8-2.2-4.1-4.6c-0.4-3,0.1-5.9,2.3-8.2c0.4-0.4,0.8-0.5,1.4-0.1
		c-0.6,0.8-1,1.7-1,2.6c0,0.5,0.2,1,0.7,1.2c2.4,0.9,4.7,1.4,7.2,0.6c1.5-0.5,2.7-1.3,3.4-2.7c0.4-0.7,0.8-0.9,1.6-1
		c1.3-0.1,2.5-0.5,3.7-0.8c0.6-0.2,1.3-0.4,2-0.6C60.2,156.3,60,157.2,59.7,158.1z M42.4,158c0.1-0.4,0.3-0.8,0.4-1.2
		c0.2-0.5,0.6-0.6,1.1-0.6c2.5,0.2,4.9,0.4,7.4,0.5c0.1,0,0.2,0.1,0.4,0.1c-0.5,1.2-1.3,1.8-2.3,2.2c-2.2,1-4.3,0.6-6.5-0.1
		C42.4,158.8,42.3,158.4,42.4,158z M58.6,154.5c-3,1.2-6.1,1-9.2,1c-1.2,0-2.3-0.2-3.5-0.2c-2.5-0.1-4.9-0.9-7.3-1.8
		c-0.8-0.3-1.6-0.9-2.3-1.4c-0.3-0.3-0.5-0.8-0.6-1.3c-0.1-1,0-2,0-3c0-0.2,0.2-0.5,0.4-0.7c0.4-0.3,0.9,0,0.9,0.5
		c-0.2,1.2,0.4,1.6,1.4,2c1.5,0.5,2.9,1.3,4.4,1.8c2.4,0.8,4.8,1.5,7.3,1.6c2.3,0.1,4.6,0.3,6.9-0.2c0.7-0.2,1.4-0.4,2.1-0.6
		c0.3-0.1,0.6-0.2,0.9-0.3C60.3,153.9,60.3,153.8,58.6,154.5z M61.2,149.5c0-5.4,0-10.9,0-16.3c0-0.7,0.2-1.1,0.8-1.5
		c1.8-1.1,3.6-1.9,5.6-2.3c0.5-0.1,1.1-0.1,1.7-0.2c0.2,0,0.5-0.2,0.7-0.4c-0.2-0.1-0.4-0.4-0.7-0.4c-0.8,0-1.5,0-2.3,0.1
		c-2.3,0.5-4.4,1.4-6.4,2.8c-1.5-1-3.1-1.8-4.9-2.4c-1.1-0.4-2.2-0.6-3.4-0.5c-0.2,0-0.5,0-0.7,0.1c-0.1,0-0.2,0.2-0.2,0.2
		c0,0.1,0.1,0.3,0.2,0.4c0.2,0.1,0.4,0.1,0.6,0.1c2.2,0,4.1,1,6,1.9c0.2,0.1,0.4,0.3,0.6,0.4c0.9,0.4,1.3,1,1.3,2.1
		c0,3.9,0,7.8,0.1,11.6c0,1.4,0,2.8,0,4.2c0,0.7-0.3,1.1-0.9,1.4c-1.3,0.6-2.7,1-4.2,1c-2.1,0.1-4.2,0.1-6.2-0.2
		c-3.6-0.5-7-1.7-10.2-3.2c-0.4-0.2-0.6-0.5-0.6-0.9c0.1-4.3,0.4-8.6,1.9-12.7c0.6-1.7,1.4-3.2,2.2-4.8c0.2-0.4,0.5-0.7,0.8-1
		c0.5-0.6,1.2-0.9,2-0.9c0.6,0,1.2,0,1.8,0c0.1,0,0.3-0.1,0.3-0.2c0-0.1,0-0.4-0.1-0.4c-0.3-0.2-0.7-0.3-1-0.3
		c-0.5-0.1-1.1-0.1-1.7-0.2c0.1-0.2,0.1-0.4,0.1-0.5c1.2-3.2,2-6.6,2.8-9.9c1.2-5,1.8-10,2.8-15.1c0.1-0.7,0.2-1.5,0.3-2.3
		c0.1-0.7,0.1-0.7,0.8-0.7c1.3,0.1,2.5,0.2,3.8,0.3c0.4,0,0.7,0.1,1,0.5c0.6,1.1,1.6,1.8,2.8,2c0.4,0.1,0.8,0.2,1.2,0.3
		c0.6,0.2,1.2,0.2,1.8,0c0.3-0.1,0.7-0.2,1-0.3c1.3-0.3,2.3-0.9,2.9-2.1c0.2-0.4,0.5-0.5,0.8-0.5c1.4-0.1,2.7-0.2,4.1-0.4
		c0.5-0.1,0.6,0.2,0.7,0.6c0.2,1.5,0.4,3,0.7,4.5c0.6,3.4,1,6.8,1.8,10.1c1,4.3,1.9,8.7,3.5,12.8c0,0.1,0,0.2,0,0.3
		c-0.5,0.1-1,0.1-1.5,0.2c-0.3,0-0.6,0-0.8,0.2c-0.2,0.1-0.5,0.4-0.5,0.5c0,0.4,0.4,0.3,0.7,0.3c0.3,0,0.6,0,1,0
		c1.5-0.2,2.5,0.6,3.2,1.8c1.1,1.8,1.9,3.7,2.5,5.7c1.1,3.6,1.4,7.3,1.5,11c0.1,1.6,0.1,1.6-1.4,2.2c-2.1,0.9-4.2,1.7-6.4,2.3
		c-2.9,0.8-5.9,0.9-8.9,0.8c-1.6,0-3.1-0.4-4.5-1.1C61.4,150.5,61.2,150.1,61.2,149.5z M82.8,161.9c0,0.8,0.1,1.6-0.1,2.4
		c-0.4,2.2-1.9,3.6-3.9,4.5c-2.1,0.9-4.3,1.3-6.5,1.1c-0.4,0-0.9-0.1-1.3-0.2c-3.3-1.2-5.7-3.4-7.2-6.7c-0.7-1.6-1.4-3.2-2-4.8
		c-0.5-1.2-0.5-1.8-0.3-3c0.5,0.2,1.1,0.3,1.6,0.5c1.4,0.5,2.8,0.8,4.3,0.9c0.6,0,0.9,0.2,1.2,0.8c1.6,2.7,4.1,3.5,7.1,3.2
		c1.2-0.1,2.3-0.3,3.4-0.8c0.9-0.4,1-0.6,1-1.5c0-0.9-0.3-1.6-0.9-2.3c0.8-0.5,0.8-0.5,1.3,0.1C82,157.7,82.7,159.7,82.8,161.9z
		 M69.7,156.8c0.3,0,0.5-0.1,0.8-0.1c2.2-0.2,4.4-0.3,6.7-0.5c0.4,0,0.9-0.3,1.2,0.2c0.5,0.6,0.8,1.3,0.6,2.1c0,0.2-0.3,0.4-0.5,0.5
		c-2.2,0.7-4.4,1.1-6.6,0.1C70.8,158.5,70.2,157.9,69.7,156.8z M83.1,153.4c-3.1,1.1-6.2,2-9.6,2c-2,0-3.9,0.1-5.9,0.1
		c-1.2,0-2.4-0.4-3.6-0.6c-0.4-0.1-0.8-0.2-1.1-0.4c-1.7-0.6-1.7-0.2-1.5-2.6c0.8,0.3,1.5,0.6,2.2,0.7c1.1,0.2,2.2,0.4,3.3,0.4
		c2.1,0,4.3,0.1,6.3-0.3c3.2-0.5,6.3-1.4,9.2-2.9c0.4-0.2,0.7-0.4,1.1-0.5c0.6-0.2,0.9-0.6,0.9-1.2c0-0.2,0-0.3,0-0.5
		c0-0.3,0-0.6,0.4-0.6c0.4,0,0.7,0,0.9,0.5c0.1,0.2,0.1,0.4,0.1,0.6c0,0.4,0,0.9,0,1.3C85.8,151.8,85.3,152.6,83.1,153.4z"/>
	<path class="st8" d="M67.7,111.5c0.2,2.2-0.6,4-2.1,5.5c-0.9,0.9-1.9,1.4-3.2,1.5c-1.1,0.1-2.2,0.1-3.3,0c-1.3-0.1-2.4-0.6-3.3-1.6
		c-1.2-1.4-2-2.9-2-4.8c0-1.7,0.3-3.4,0.5-5.1c0-0.3,0.2-0.5,0.5-0.6c0.1,0,0.2-0.1,0.4-0.1c2.3-0.2,4.7-0.6,7-0.3
		c0.3,0,0.6,0,0.8,0c0.7,0,1.4,0,2,0.1c0.6,0.1,1.2,0.1,1.8,0.3c0.6,0.3,0.3,1.1,0.5,1.6C67.5,109.3,67.5,110.4,67.7,111.5
		 M60.7,107c-1.6,0.1-3.3,0.2-4.9,0.2c-0.5,0-0.7,0.2-0.7,0.7c-0.1,1.4-0.1,2.8-0.2,4.2c-0.1,1.5,0.5,2.7,1.4,3.8
		c0.7,0.9,1.7,1.5,2.8,1.6c1,0.1,1.9,0.1,2.9,0c2.4-0.2,4.5-2.3,4.6-4.7c0-1.6-0.1-3.3-0.2-4.9c0-0.7-0.1-0.7-0.8-0.7
		C63.9,107.1,62.3,107,60.7,107"/>
	<path class="st9" d="M60.7,107c1.6,0.1,3.2,0.1,4.8,0.2c0.7,0,0.8,0.1,0.8,0.7c0.1,1.6,0.2,3.3,0.2,4.9c0,2.4-2.2,4.5-4.6,4.7
		c-1,0.1-1.9,0-2.9,0c-1.2-0.1-2.1-0.6-2.8-1.6c-0.9-1.1-1.5-2.3-1.4-3.8c0.1-1.4,0.2-2.8,0.2-4.2c0-0.5,0.2-0.7,0.7-0.7
		C57.5,107.1,59.1,107,60.7,107"/>
	<path class="st9" d="M61.4,151.9c0.8,0.3,1.5,0.6,2.2,0.7c1.1,0.2,2.2,0.4,3.3,0.4c2.1,0,4.3,0.1,6.3-0.3c3.2-0.5,6.3-1.4,9.2-2.9
		c0.4-0.2,0.7-0.4,1.1-0.5c0.6-0.2,0.9-0.6,0.9-1.2c0-0.2,0-0.3,0-0.5c0-0.3,0-0.6,0.4-0.6c0.4,0,0.7,0.1,0.9,0.5
		c0.1,0.2,0.1,0.4,0.1,0.6c0,0.4,0,0.9,0,1.3c0,2.4-0.4,3.2-2.7,4c-3.1,1.1-6.2,2-9.6,2c-2,0-3.9,0.1-5.9,0.1
		c-1.2,0-2.4-0.4-3.6-0.6c-0.4-0.1-0.8-0.2-1.1-0.4C61.2,153.8,61.2,154.3,61.4,151.9"/>
	<path class="st9" d="M60,151.9c0.3,2,0.2,1.9-1.4,2.6c-3,1.2-6.1,1-9.2,1c-1.2,0-2.3-0.2-3.5-0.2c-2.5-0.1-4.9-0.9-7.3-1.8
		c-0.8-0.3-1.6-0.9-2.3-1.4c-0.3-0.3-0.5-0.8-0.6-1.3c-0.1-1,0-2,0-3c0-0.2,0.2-0.5,0.4-0.7c0.4-0.3,0.9-0.1,0.9,0.5
		c-0.2,1.2,0.4,1.6,1.4,2c1.5,0.5,2.9,1.3,4.4,1.8c2.4,0.8,4.8,1.5,7.3,1.6c2.3,0.1,4.6,0.3,6.9-0.2c0.7-0.2,1.4-0.4,2.1-0.6
		C59.4,152.1,59.7,152,60,151.9"/>
	<path class="st10" d="M77.1,126.9c-0.5,0.1-1,0.1-1.5,0.2c-0.3,0-0.6,0-0.8,0.2c-0.2,0.1-0.5,0.4-0.5,0.5c0,0.4,0.4,0.3,0.7,0.3
		c0.3,0,0.6,0,1,0c1.5-0.2,2.5,0.6,3.2,1.8c1.1,1.8,1.9,3.7,2.5,5.7c1.1,3.6,1.4,7.3,1.5,11c0.1,1.6,0.1,1.6-1.4,2.2
		c-2.1,0.9-4.2,1.7-6.4,2.3c-2.9,0.8-5.9,0.9-8.9,0.8c-1.6,0-3.1-0.4-4.5-1.1c-0.5-0.3-0.8-0.6-0.8-1.2c0-5.4,0-10.9,0-16.3
		c0-0.7,0.2-1.1,0.8-1.5c1.8-1.1,3.6-1.9,5.6-2.3c0.5-0.1,1.1-0.1,1.7-0.2c0.2,0,0.5-0.2,0.7-0.4c-0.2-0.1-0.4-0.4-0.7-0.4
		c-0.8,0-1.5,0-2.3,0.1c-2.3,0.5-4.4,1.4-6.4,2.8c-1.5-1-3.1-1.8-4.9-2.4c-1.1-0.4-2.2-0.6-3.4-0.5c-0.2,0-0.5,0-0.7,0.1
		c-0.1,0-0.2,0.2-0.2,0.2c0,0.1,0.1,0.3,0.2,0.4c0.2,0.1,0.4,0.1,0.6,0.1c2.2,0,4.1,1,6,1.9c0.2,0.1,0.4,0.3,0.6,0.4
		c0.9,0.4,1.3,1,1.3,2.1c0,3.9,0,7.8,0.1,11.6c0,1.4,0,2.8,0,4.2c0,0.7-0.3,1.1-0.9,1.4c-1.3,0.6-2.7,1-4.2,1
		c-2.1,0.1-4.2,0.1-6.2-0.2c-3.6-0.5-7-1.7-10.2-3.2c-0.4-0.2-0.6-0.5-0.6-0.9c0.1-4.3,0.4-8.6,1.9-12.7c0.6-1.6,1.4-3.2,2.2-4.8
		c0.2-0.4,0.5-0.7,0.8-1c0.5-0.6,1.2-0.9,2-0.9c0.6,0,1.2,0,1.8,0c0.1,0,0.3-0.1,0.3-0.2c0-0.1,0-0.4-0.1-0.4
		c-0.3-0.2-0.7-0.3-1-0.3c-0.5-0.1-1.1-0.1-1.7-0.2c0.1-0.2,0.1-0.4,0.1-0.5c1.2-3.2,2-6.6,2.8-9.9c1.2-5,1.8-10,2.8-15.1
		c0.1-0.7,0.2-1.5,0.3-2.3c0.1-0.7,0.1-0.7,0.8-0.7c1.3,0.1,2.5,0.2,3.8,0.3c0.4,0,0.7,0.1,1,0.5c0.6,1.1,1.6,1.8,2.8,2
		c0.4,0.1,0.8,0.2,1.2,0.3c0.6,0.2,1.2,0.2,1.8,0c0.3-0.1,0.7-0.2,1-0.3c1.3-0.3,2.3-0.9,2.9-2.1c0.2-0.4,0.5-0.5,0.8-0.5
		c1.4-0.1,2.7-0.2,4.1-0.4c0.5-0.1,0.6,0.2,0.7,0.6c0.2,1.5,0.4,3,0.7,4.5c0.6,3.4,1,6.8,1.8,10.1c1,4.3,1.9,8.7,3.5,12.8
		C77.1,126.6,77.1,126.7,77.1,126.9 M67.7,111.5c-0.1-1.1-0.2-2.2-0.4-3.3c-0.1-0.5,0.1-1.3-0.5-1.6c-0.5-0.3-1.2-0.3-1.8-0.3
		c-0.7-0.1-1.4,0-2-0.1c-0.3,0-0.6,0-0.8,0c-2.4-0.3-4.7,0.1-7,0.3c-0.1,0-0.2,0-0.4,0.1c-0.3,0.1-0.5,0.2-0.5,0.6
		c-0.2,1.7-0.5,3.4-0.5,5.1c0,1.9,0.7,3.5,2,4.8c0.9,0.9,2,1.4,3.3,1.6c1.1,0.1,2.2,0.1,3.3,0c1.2-0.1,2.3-0.6,3.2-1.5
		C67,115.5,67.9,113.7,67.7,111.5"/>
	<path class="st11" d="M61.4,155.2c0.5,0.2,1.1,0.3,1.6,0.5c1.4,0.5,2.8,0.8,4.3,0.9c0.6,0,0.9,0.2,1.2,0.8c1.6,2.7,4.1,3.5,7.1,3.2
		c1.2-0.1,2.3-0.3,3.4-0.8c0.9-0.4,1-0.6,1-1.5c0-0.9-0.3-1.6-0.9-2.3c0.8-0.5,0.8-0.5,1.3,0.1c1.5,1.6,2.3,3.6,2.4,5.9
		c0,0.8,0.1,1.6-0.1,2.4c-0.4,2.2-1.9,3.6-3.9,4.5c-2.1,0.9-4.3,1.3-6.5,1.1c-0.4,0-0.9-0.1-1.3-0.2c-3.3-1.2-5.7-3.4-7.2-6.7
		c-0.7-1.6-1.4-3.2-2-4.8C61.3,157,61.2,156.4,61.4,155.2"/>
	<path class="st11" d="M42.4,155.9c-0.6,0.8-1,1.7-1,2.6c0,0.5,0.2,1,0.7,1.2c2.4,0.9,4.7,1.4,7.2,0.6c1.5-0.5,2.7-1.3,3.4-2.7
		c0.4-0.7,0.8-0.9,1.6-1c1.3-0.1,2.5-0.5,3.7-0.8c0.6-0.2,1.3-0.4,1.9-0.6c0.2,1.1,0,2-0.3,2.9c-0.7,1.7-1.4,3.3-2.1,5
		c-1.4,3.2-3.9,5.4-7.2,6.7c-0.2,0.1-0.4,0.2-0.6,0.2c-1.7,0-3.4,0.2-5.1-0.4c-0.6-0.2-1.3-0.4-1.9-0.6c-2.1-0.9-3.8-2.2-4.1-4.6
		c-0.4-3,0.1-5.9,2.3-8.2C41.4,155.6,41.8,155.6,42.4,155.9"/>
	<path class="st9" d="M49.4,99.4c-0.3,1.4-0.5,2.9-0.8,4.3c-0.4,2.3-0.8,4.5-1.2,6.8c0,0.2-0.1,0.5-0.2,0.7
		c-0.1,0.1-0.3,0.3-0.4,0.2c-1-0.3-1.9-0.7-2.5-1.7c-0.6-1.1-0.9-2.2-0.9-3.4c0-1.7-0.1-1.8-1.8-1.8c-0.7,0-1.4,0-2.1-0.2
		c-0.9-0.2-1.6-0.8-1.9-1.7c-0.3-0.7-0.2-0.9,0.5-1.1c0.8-0.2,1.5-0.4,2.3-0.7c1.3-0.5,2.6-0.9,4-1.1c1.1-0.2,2-0.9,3-1.3
		c0.2-0.1,0.4-0.3,0.6-0.3c0.4,0,0.9,0,1.3,0.2C49.4,98.4,49.3,99,49.4,99.4"/>
	<path class="st9" d="M74.3,111.6c-0.1-0.7-0.3-1.4-0.4-2c-0.6-3-1.1-6-1.7-9c-0.1-0.6-0.1-1.2-0.1-1.8c0-0.2,0.2-0.5,0.4-0.5
		c0.5-0.1,1.1-0.2,1.6,0.1c0.6,0.4,1.3,0.7,1.9,1c0.4,0.2,0.9,0.4,1.4,0.5c1.2,0.1,2.3,0.5,3.4,0.9c0.9,0.4,1.8,0.6,2.7,0.8
		c0.6,0.2,0.7,0.4,0.5,1c-0.3,1-1,1.5-1.9,1.8c-0.6,0.2-1.2,0.2-1.8,0.2c-0.4,0-0.7,0-1.1,0c-0.9,0-1.1,0.3-1.2,1.1
		c0,0.4,0,0.7,0,1.1c0,1.2-0.4,2.3-1,3.3C76.4,111,75.4,111.3,74.3,111.6"/>
	<path class="st12" d="M51.8,156.8c-0.5,1.2-1.3,1.8-2.3,2.2c-2.2,1-4.3,0.6-6.5-0.1c-0.5-0.2-0.7-0.5-0.6-1
		c0.1-0.4,0.3-0.8,0.4-1.2c0.2-0.5,0.6-0.6,1.1-0.6c2.5,0.2,4.9,0.4,7.4,0.5C51.5,156.7,51.6,156.7,51.8,156.8"/>
	<path class="st12" d="M69.7,156.8c0.3,0,0.5-0.1,0.8-0.1c2.2-0.2,4.4-0.3,6.7-0.5c0.4,0,0.9-0.3,1.2,0.2c0.5,0.6,0.8,1.3,0.6,2.1
		c0,0.2-0.3,0.4-0.5,0.5c-2.2,0.7-4.4,1.1-6.6,0.1C70.8,158.5,70.2,157.9,69.7,156.8"/>
	<path class="st12" d="M56.7,98.9h5.4h2.4C63.2,101,58.7,101.1,56.7,98.9"/>
</g>
<g id="BrazoIzq">
	<path class="st8" d="M104.2,123.4c0-0.3-0.1-0.7-0.3-1c-0.3-0.4-0.6-1-0.8-1.2c-1.4-1.9-3-3.4-5.1-4.4c-0.2-0.1-2.9-1-3.2-1
		c-0.4-0.1-1.5,0-1.8,0c-0.3,0-1.5-0.1-1.8-0.2c-0.7-0.1-1.3-0.3-2-0.3c-0.2,0-1.6-0.3-1.6-0.3c-2.2-0.5-4-1.4-5.3-3.1
		c-1.1-1.5-2.1-3-2.8-4.7c-0.1-0.1-0.1-0.3-0.2-0.4c-0.1-0.3-1.3-1.4-1.3-1.1c0,0.4,0,0.7,0,1.1c0,1.2-0.4,2.3-1.1,3.3
		c-0.6,1-1.6,1.2-2.7,1.5c0-0.1-0.5,0.7-0.9,1c0.1,0.4,0.2,0.8,0.2,1.2c0,0.2,0.1,0.4,0.1,0.6c0.4,0.2,0.6,0.5,0.8,0.9
		c0.3,0.2,0.5,0.5,0.6,0.9c0.1,0.1,0.2,0.2,0.2,0.4c0,0,0-0.1,0-0.1c3.5,4,2.6,3.5,7.7,6.4c-0.1,0.2-0.3,0.3-0.4,0.4
		c-0.8,0.9-0.8,1.8,0,2.6c0.1,0.1,0.3,0.3,0.4,0.4c0.2,0.1,1.3,0.7,1.8,0.6c0.1,0,0.1-0.1,0.3-0.1c1.3-0.1,2.2-0.8,3-1.7
		c0.5-0.6,1.4-0.6,2-0.1c1.3,1.2,2.6,2.5,4,3.8c0.4,0.4,0.9,0.7,1.4,1c0.6,0.3,1.2,0.5,1.8,0.2c0.7-0.2,1.5,0,2.2-0.5
		c0.1-0.1,0.2-0.1,0.3,0c1,0.3,1.7-0.1,2.3-1c0.1-0.2,0.2-0.6,0.4-0.9c0-0.4,0.1-0.5,0.6-0.8c0.6-0.3,0.9-0.8,0.9-1.4
		C104.2,124.7,104.2,124.1,104.2,123.4z M103.2,125.1c0,0.2-0.1,0.3-0.1,0.5c0,0.1-0.1,0.1-0.2,0.2c-0.4-1.6-1.3-2.9-2.5-4
		c-0.2-0.2-0.4-0.4-0.7-0.5c-0.1-0.1-0.4,0-0.5,0c-0.1,0.1-0.1,0.4,0,0.5c0.2,0.3,0.5,0.5,0.7,0.8c0.5,0.7,1.1,1.4,1.5,2.1
		c0.6,1.1,0.4,2.7-0.5,3.6c-0.1,0.1-0.3,0.2-0.6,0.3c0-0.7,0-1.4,0-2c0-0.5-0.1-1.1-0.4-1.5c-0.6-1-1.3-2-2-3
		c-0.1-0.2-0.3-0.4-0.5-0.5c-0.1-0.1-0.3-0.1-0.4,0c-0.1,0.1-0.2,0.3-0.2,0.4c0.1,0.3,0.3,0.6,0.5,0.8c0.6,0.9,1.2,1.8,1.8,2.7
		c0.4,0.6,0.4,1.2,0.3,1.8c-0.1,0.6-0.4,1-0.9,1.3c-0.1,0.1-0.3,0.1-0.4,0c-0.1-0.1-0.2-0.3-0.1-0.4c0.5-2.7-1.2-4.3-2.9-5.9
		c-0.1-0.1-0.3-0.3-0.5-0.3c-0.2,0-0.5,0.1-0.6,0.2c-0.1,0.1,0,0.4,0.1,0.5c0.1,0.2,0.3,0.3,0.4,0.4c0.9,0.7,1.5,1.6,2.1,2.6
		c0.1,0.2,0.3,0.5,0.3,0.8c0.1,0.7,0.3,1.5-0.3,1.9c-0.5,0.3-1.2-0.3-1.6-0.7c-1.2-1-2.3-2.1-3.4-3.2c-0.5-0.5-1.1-0.9-1.7-1.3
		c-0.7-0.4-1.5-0.2-2.1,0.4c-0.3,0.4-0.7,0.8-1.1,1.1c-1,0.8-2.2,0.8-3,0.1c-0.7-0.6-0.7-1.2,0.1-1.6c1.2-0.7,2.1-1.7,2.8-2.8
		c0.3-0.6,0.9-1,1.4-1.4c0.3-0.3,0.7-0.5,0.4-1c-0.2-0.3-0.6-0.3-1.1,0.1c-0.8,0.6-1.6,1.3-2.1,2.3c-0.1,0.2-0.2,0.3-0.3,0.5
		c-0.5,0.7-0.7,0.7-1.5,0.4c-2.9-1.1-5-3.1-6.7-5.6c-0.7-1.1-1.4-2.2-2.2-3.5c2.1-0.6,3.6-1.7,4.2-3.8c0.8,1.2,1.6,2.2,2.3,3.3
		c1.2,1.9,3.1,2.8,5,3.5c0.9,0.3,1.9,0.4,2.8,0.5c0.3,0.1,0.6,0,0.7,0.5c0.1,0.5,0.5,0.6,0.9,0.5c0.4-0.1,0.8-0.2,1.2-0.3
		c2.1-0.4,4.1,0.1,6,1.1c1.8,0.9,3.2,2.1,4.3,3.7C102.9,122.7,103.4,123.8,103.2,125.1z"/>
	<path class="st12" d="M74.6,112.8c2.1-0.6,3.6-1.7,4.2-3.8c0.8,1.2,1.6,2.2,2.3,3.3c1.2,1.9,3.1,2.8,5,3.5c0.9,0.3,1.9,0.4,2.8,0.5
		c0.3,0.1,0.6,0,0.7,0.5c0.1,0.5,0.5,0.6,0.9,0.5c0.4-0.1,0.8-0.2,1.2-0.3c2.1-0.4,4.1,0.1,6,1.1c1.8,0.9,3.2,2.1,4.3,3.7
		c0.7,1,1.2,2.1,1.1,3.3c0,0.2-0.1,0.3-0.1,0.5c0,0.1-0.1,0.1-0.2,0.2c-0.4-1.6-1.3-2.9-2.5-4c-0.2-0.2-0.4-0.4-0.7-0.5
		c-0.1-0.1-0.4,0-0.5,0c-0.1,0.1-0.1,0.4,0,0.5c0.2,0.3,0.5,0.5,0.7,0.8c0.5,0.7,1.1,1.4,1.5,2.1c0.6,1.1,0.4,2.7-0.5,3.6
		c-0.1,0.1-0.3,0.2-0.6,0.3c0-0.7,0-1.4,0-2c0-0.5-0.1-1.1-0.4-1.5c-0.6-1-1.3-2-2-3c-0.1-0.2-0.3-0.4-0.5-0.5
		c-0.1-0.1-0.3-0.1-0.4,0c-0.1,0.1-0.2,0.3-0.2,0.4c0.1,0.3,0.3,0.6,0.5,0.8c0.6,0.9,1.2,1.8,1.8,2.7c0.4,0.6,0.4,1.2,0.3,1.8
		c-0.1,0.6-0.4,1-0.9,1.3c-0.1,0.1-0.3,0.1-0.4,0c-0.1-0.1-0.2-0.3-0.1-0.4c0.5-2.7-1.2-4.3-2.9-5.9c-0.1-0.1-0.3-0.3-0.5-0.3
		c-0.2,0-0.5,0.1-0.6,0.2c-0.1,0.1,0,0.4,0.1,0.5c0.1,0.2,0.3,0.3,0.4,0.4c0.9,0.7,1.5,1.6,2.1,2.6c0.1,0.2,0.3,0.5,0.3,0.8
		c0.1,0.7,0.3,1.5-0.3,1.9c-0.5,0.4-1.2-0.3-1.6-0.7c-1.2-1-2.3-2.1-3.4-3.2c-0.5-0.5-1.1-0.9-1.7-1.3c-0.7-0.4-1.5-0.2-2,0.4
		c-0.3,0.4-0.7,0.8-1.1,1.1c-1,0.8-2.2,0.8-3,0.1c-0.7-0.6-0.7-1.2,0.1-1.6c1.2-0.7,2.1-1.7,2.8-2.9c0.3-0.6,0.9-1,1.4-1.4
		c0.3-0.3,0.7-0.5,0.4-1c-0.2-0.3-0.6-0.3-1.1,0.1c-0.8,0.6-1.6,1.3-2.1,2.3c-0.1,0.2-0.2,0.3-0.3,0.5c-0.5,0.7-0.7,0.7-1.5,0.4
		c-2.9-1.1-5-3.1-6.7-5.6C76.1,115.2,75.4,114,74.6,112.8"/>
</g>
<g id="BrazoDer">
	<path class="st12" d="M42.4,108.9c0.5,0.7,1,2,1.7,2.6c0.7,0.6,1.6,0.9,2.5,1.4c-1.5,2.8-3.2,5.3-5.7,7.2c-1.1,0.8-2.4,1.3-3.6,1.9
		c-0.2,0.1-0.5,0.2-0.6,0.1c-0.3-0.3-0.7-0.8-0.9-1.2c-0.5-1-1.2-1.5-2-2.2c-0.1-0.1-0.5-0.3-0.7-0.3c-0.2,0-0.2,0-0.3,0.2
		c-0.1,0.1-0.1,0.3,0,0.4c0.2,0.3,0.5,0.5,0.8,0.8c0.5,0.6,1,1.1,1.5,1.7c0.6,0.8,1.2,1.6,2.1,2c0.1,0,0.3,0.1,0.4,0.1
		c0.8,0.5,0.6,1.4-0.1,1.9c-0.8,0.5-1.9,0.6-2.8-0.1c-0.3-0.3-0.8-0.7-1-1c-0.9-1.1-1.8-1-2.7-0.4c-0.4,0.3-0.8,0.7-1.2,1
		c-1.1,1.1-2.3,2.1-3.4,3.2c-0.3,0.3-0.8,0.7-1.1,0.9c-0.2,0.2-0.4,0-0.6-0.1c-0.4-0.4-0.6-1.3,0-2.9c0.7-1.9,1.1-1.8,2-2.5
		c0.1-0.1,0.3-0.2,0.4-0.4c0.2-0.2,0.3-0.2,0.1-0.5c-0.2-0.4-0.3-0.5-0.6-0.2c-0.2,0.1-0.4,0.3-0.6,0.4c-1.1,0.9-1.8,2.1-2.3,3.3
		c-0.3,0.7-0.3,1.5-0.2,2.2c0,0.2,0,0.5-0.1,0.5c-0.1,0.1-0.5,0.1-0.7,0c-0.8-0.5-1.1-2-0.6-3.1c0.5-1,1.3-1.9,1.9-2.8
		c0.2-0.2,0.2-0.4,0.3-0.6c0.1-0.2,0.1-0.3,0-0.5c-0.1-0.1-0.2-0.2-0.3-0.1c-0.2,0.2-0.4,0.4-0.6,0.6c-0.3,0.4-0.6,0.8-0.9,1.3
		c-1,1.3-1.5,2.8-1.3,4.5c0,0.1,0,0.2,0,0.4c0,0,0,0.1-0.1,0.2c-0.2-0.2-0.5-0.1-0.7-0.4c-0.8-1.1-1.1-2.4-0.5-3.6
		c0.4-0.9,1.2-1.8,1.9-2.5c0.3-0.3,0.5-0.4,0.3-0.8c-0.1-0.3-0.4-0.3-1,0.3c-1.2,1.1-2.1,2.4-2.6,4.1c-0.4-0.8-0.5-1.7-0.2-2.5
		c0.2-0.5,0.4-1.1,0.7-1.5c2.1-2.9,5.3-4.9,8.8-5.2c0.9-0.1,1.7,0.2,2.6,0.4c0.7,0.1,1.2,0.4,1.4-0.7c0-0.1,0.5-0.3,0.7-0.3
		c1.8,0,3.5-0.6,5-1.3c0.8-0.4,1.9-1.5,2.4-2.2c0.9-1.3,1.6-2.3,2.4-3.4"/>
	<path class="st8" d="M17.1,125.3c0,0.6,0.3,1.1,0.9,1.4c0.5,0.3,0.6,0.4,0.6,0.8c0.1,0.4,0.3,0.7,0.4,0.9c0.6,0.8,1.3,1.3,2.3,1
		c0.1,0,0.3,0,0.3,0c0.6,0.6,1.5,0.3,2.2,0.5c0.7,0.2,1.3,0.1,1.8-0.2c0.5-0.3,0.9-0.6,1.4-1c1.3-1.2,2.6-2.5,4-3.8
		c0.6-0.5,1.5-0.5,2,0.1c0.8,0.9,1.7,1.6,3,1.7c0.1,0,0.2,0,0.3,0.1c0.6,0.1,1.6-0.5,1.8-0.6c0.2-0.1,0.3-0.3,0.4-0.4
		c0.8-0.9,0.8-1.7,0-2.6c-0.1-0.1-0.3-0.3-0.4-0.4c5.2-2.9,4.2-2.4,7.7-6.4c0,0,0.1-0.1,0.2-0.2c0.1-0.3,0.3-0.6,0.6-0.9
		c0.2-0.4,0.4-0.7,0.8-0.9c0-0.2,0.1-0.4,0.1-0.6c0.1-0.4,0.2-0.8,0.2-1.2c-0.4-0.3-0.9-1-0.9-1c-1.1-0.3-2.1-0.6-2.7-1.5
		c-0.6-1-1.1-2-1.1-3.3c0-0.4,0-0.7,0-1.1c0-0.3-1.2,0.8-1.3,1.1c0,0.2-0.1,0.3-0.2,0.4c-0.7,1.7-1.7,3.3-2.8,4.7
		c-1.3,1.7-3.1,2.6-5.3,3.1c0,0-1.4,0.2-1.6,0.3c-0.7,0.1-1.3,0.2-2,0.3c-0.3,0-1.4,0.2-1.8,0.2c-0.3,0-1.4,0-1.8,0
		c-0.3,0-3,0.9-3.2,1c-2.1,1-3.8,2.5-5.1,4.4c-0.1,0.2-0.5,0.8-0.8,1.2c-0.2,0.3-0.3,0.6-0.3,1C17.1,124.1,17.1,124.7,17.1,125.3z
		 M19.2,121.8c1.2-1.6,2.6-2.8,4.3-3.7c1.9-0.9,3.9-1.5,6-1.1c0.4,0.1,0.8,0.2,1.2,0.3c0.4,0.1,0.8,0,0.9-0.5
		c0.1-0.4,0.4-0.4,0.7-0.5c0.9-0.2,1.9-0.2,2.8-0.5c2-0.7,3.8-1.6,5-3.5c0.7-1.1,1.4-2.1,2.3-3.3c0.6,2.1,2.1,3.2,4.2,3.8
		c-0.8,1.2-1.5,2.4-2.2,3.5c-1.7,2.5-3.8,4.5-6.7,5.6c-0.8,0.3-1,0.3-1.5-0.4c-0.1-0.2-0.2-0.3-0.3-0.5c-0.5-1-1.2-1.6-2.1-2.3
		c-0.5-0.4-1-0.5-1.1-0.1c-0.2,0.5,0.1,0.7,0.4,1c0.5,0.5,1.1,0.9,1.4,1.4c0.7,1.2,1.6,2.2,2.8,2.8c0.8,0.4,0.8,1,0.1,1.6
		c-0.8,0.7-2,0.7-3-0.1c-0.4-0.3-0.7-0.7-1.1-1.1c-0.6-0.7-1.3-0.8-2.1-0.4c-0.6,0.3-1.2,0.8-1.7,1.3c-1.2,1-2.3,2.1-3.4,3.2
		c-0.5,0.4-1.1,1-1.6,0.7c-0.6-0.4-0.4-1.2-0.3-1.9c0-0.3,0.2-0.5,0.3-0.8c0.5-1,1.2-1.9,2.1-2.6c0.2-0.1,0.3-0.3,0.4-0.4
		c0.1-0.2,0.2-0.4,0.1-0.5c-0.1-0.1-0.4-0.2-0.6-0.2c-0.2,0-0.4,0.1-0.5,0.3c-1.7,1.6-3.3,3.3-2.9,5.9c0,0.1,0,0.4-0.1,0.4
		c-0.1,0.1-0.3,0-0.4,0c-0.5-0.3-0.9-0.7-0.9-1.3c-0.1-0.6,0-1.3,0.3-1.8c0.6-0.9,1.2-1.8,1.8-2.7c0.2-0.3,0.3-0.5,0.5-0.8
		c0-0.1-0.1-0.3-0.2-0.4c-0.1-0.1-0.3-0.1-0.4,0c-0.2,0.1-0.4,0.3-0.5,0.5c-0.7,1-1.4,2-2,3c-0.2,0.4-0.3,1-0.4,1.5
		c-0.1,0.6,0,1.3,0,2c-0.2-0.1-0.4-0.2-0.6-0.3c-0.8-0.9-1.1-2.5-0.5-3.6c0.4-0.8,1-1.4,1.5-2.1c0.2-0.3,0.5-0.5,0.7-0.8
		c0.1-0.1,0.1-0.4,0-0.5c-0.1-0.1-0.4-0.1-0.5,0c-0.2,0.1-0.5,0.3-0.7,0.5c-1.2,1.1-2,2.4-2.5,4c-0.1-0.1-0.1-0.1-0.2-0.2
		c-0.1-0.1-0.1-0.3-0.1-0.5C18,123.8,18.5,122.7,19.2,121.8z"/>
</g>
<g id="Cabeza">
	<path id="Linea" class="st8" d="M121.2,92c-1.1-2.1-2.6-3.8-4.8-4.9c-1-0.5-1.9-1.1-2.8-1.7c-1.3-0.9-2.5-1.9-3.3-3.3
		c-0.4-0.8-0.5-1.5,0.1-2.3c1.9-2.7,2-5.7,0.7-8.7c-0.6-1.3-0.8-2.5-0.7-3.9c0.1-0.7,0.1-1.4,0.1-2c0-1.2,0.1-2.4,0-3.6
		c-0.1-1.8-0.2-3.5-0.4-5.3c-0.2-2.3-0.5-4.7-0.8-7c-0.3-2.7-1.3-5.3-2.1-7.9c-0.9-2.8-2.5-5.2-4.5-7.3c-1.7-1.8-3.6-3.5-5.5-5.2
		c-0.6-0.6-1.3-1-2-1.5c-2.6-1.7-5.5-3.1-8.4-4.2c-2.2-0.8-4.4-1.7-6.8-2c-1.8-0.2-3.6-0.3-5.4-0.4c-4.5-0.2-8.9,0.1-13.3,1.2
		c-0.5,0.1-1,0.1-1.5,0c-2.6-0.6-5.2-1.1-7.9-1.2c-2.5-0.1-5,0-7.4,0c-1.6,0-3.2,0.2-4.7,0.6c-3,0.8-5.9,1.9-8.8,3.2
		c-2.5,1.2-5,2.5-7.1,4.4c-1.8,1.6-3.6,3.2-5.3,4.9c-1.8,1.8-3.2,3.8-4.1,6.2c-1.8,4.6-2.9,9.4-3.2,14.3c-0.1,1.7-0.3,3.3-0.4,5
		c-0.1,1.6-0.2,3.1-0.2,4.7c0,1.4,0.1,2.7,0.2,4.1c0.1,0.8-0.1,1.5-0.5,2.2c-1.3,2.6-1.5,5.3-0.3,8c0.3,0.6,0.6,1.1,1,1.6
		c0.3,0.4,0.3,0.9,0.1,1.3c-0.3,0.9-0.9,1.6-1.5,2.3c-1.4,1.4-3,2.4-4.7,3.3c-2.1,1-3.6,2.7-4.7,4.6c-0.6,1.1-0.6,1.3,0.5,2.1
		c1.2,0.9,2.5,1.4,3.8,1.9c0.8,0.3,1.6,0.6,2.3,1c0.9,0.4,1.3,0.3,1.7-0.6c0.4-0.9,0.8-1.8,1.3-2.7c0.5-0.9,1.1-1.9,2.2-2.6
		c-0.2,0.8-0.4,1.5-0.5,2.1c-0.1,0.9-0.3,1.7-0.4,2.6c-0.1,0.5,0.2,0.9,0.7,1.1c0.7,0.3,1.5,0.7,2.2,0.9c0.8,0.3,1.1,0.2,1.5-0.6
		c0.3-0.6,0.6-1.1,0.9-1.8c0.1,0.7,0.2,1.2,0.3,1.6c0.1,0.7,0.4,1.1,1.2,1.2c0.5,0.1,1.1,0.3,1.6,0.5c0.3,0.1,1.9,0.5,2.6,0.7
		c1,0.1,1.9,0.4,2.7,0.6c0.1,0,1.8,0.3,2.1,0.4c1,0.1,1.9,0.2,2.9,0.3c0.3,0,2.1,0,2.3,0c1-0.3,2-0.6,3-0.9c0.3-0.1,0.6-0.2,0.9-0.2
		c0.5,0.1,1,0.3,1.5,0.4c0.5,0.1,1,0.2,1.6,0.3c0,0,0,0,0,0c0.7,0.1,3.9,0,4.8-0.2c1.1-0.2,2-0.9,3-1.3c0.2-0.1,0.4-0.3,0.6-0.3
		c0.4,0,1.5,0.1,1.7,0.1c1.2-0.1,4.5,0.6,5.3,0.7c0.2,0,1.4,0,1.9,0c0,0,9.3,0,9.6,0c1.4-0.1,2.7-0.2,4.1-0.4c0.1,0,1.9-0.3,2-0.3
		c0.5-0.1,1.1-0.2,1.6,0.1c0.6,0.4,1.3,0.7,1.9,1c0.4,0.2,0.9,0.4,1.4,0.5c1.2,0.1,4.8,0.2,4.8,0.2c1-0.2,1.9-0.5,2.9-0.7
		c0.3-0.1,0.5,0,0.8,0.1c1.1,0.3,2.2,0.7,3.3,1c0.1,0,0.9,0.1,1.2,0.1c0.2,0,0.4,0,0.6,0c0.1,0,0.3-0.1,0.6-0.1
		c0.6,0,1.1-0.1,1.7-0.1c0.1,0,0.3,0,0.4,0c0.6-0.3,1.3-0.4,2.1-0.4c0.2,0,1.1-0.2,1.7-0.3c0.7-0.1,1.3-0.3,2-0.4
		c0.1,0,1.8-0.3,1.9-0.4c0.6-0.4,1.3-0.6,2-0.7c0.8-0.1,1.1-0.6,1.2-1.3c0.1-0.4,0.1-0.9,0.2-1.5c0.3,0.4,0.4,0.7,0.5,0.9
		c0.1,0.3,0.3,0.6,0.4,0.9c0.4,0.8,0.8,1,1.7,0.6c0.6-0.2,1.1-0.5,1.7-0.7c1.1-0.4,1.3-0.5,1.1-1.8c-0.1-1.1-0.4-2.2-0.6-3.3
		c-0.1-0.3-0.1-0.6-0.1-0.8c0.1,0,0.2-0.1,0.2-0.1c0.5,0.6,1.1,1.2,1.5,1.9c0.6,1.1,1.1,2.2,1.7,3.3c0.5,1,0.8,1.1,1.8,0.6
		c0.8-0.4,1.5-0.7,2.3-1c1.5-0.5,2.9-1.2,4.1-2.2C121.6,93,121.6,92.7,121.2,92z M12.3,58.5c0.1-1.4,0.2-2.8,0.3-4.2
		c0.4-4.7,1.4-9.2,3.2-13.6c0.9-2.3,2.4-4.4,4.3-6.2c1.5-1.4,3-2.9,4.6-4.2c0.9-0.8,1.8-1.5,2.8-2.1c4-2.5,8.3-4.2,12.7-5.4
		c1.7-0.5,3.5-0.6,5.2-0.7c1.6-0.1,3.3,0,4.9,0c3-0.1,5.9,0.4,8.8,0.9c0.2,0,0.5,0.1,0.7,0.2c0.6,0.3,1.2,0.2,1.9,0
		c1.7-0.3,3.4-0.6,5.1-0.8c4.1-0.5,8.2-0.3,12.3,0c1.3,0.1,2.6,0.5,3.8,0.9c3.8,1.2,7.4,2.7,10.8,4.7c1.6,0.9,2.9,2.1,4.2,3.3
		c1.6,1.6,3.3,3,4.8,4.7c1.6,1.9,2.8,4.1,3.6,6.4c1.3,3.9,2.2,7.9,2.5,12c0.3,4.2,0.9,8.4,0.6,12.7c0,0.3,0,0.5-0.1,0.9
		c-0.3-0.2-0.5-0.3-0.8-0.4c-0.4-0.2-0.5-0.5-0.4-1.1c0.2-0.8,0.2-1.6,0.1-2.4c-0.1-0.9-0.6-1.6-1.4-2.1c-0.4-0.2-0.6-0.4-0.2-0.9
		c2.5-3.4,0.3-8.4-3-9.8c-0.2-0.1-0.5-0.2-0.6-0.3c-0.2-0.2-0.4-0.4-0.4-0.6c-0.1-0.3,0-0.6,0-1c0.1-1.2-0.2-2.4-0.5-3.5
		c-0.1-0.5-0.3-0.9-0.6-1.3c-1.5-1.8-3-3.4-5.4-4c-0.5-0.1-0.9-0.3-1-1c-0.9-3.8-3.6-5.7-7.3-6.4c-1-0.2-2-0.4-3.1-0.5
		c-0.6-0.1-0.9-0.5-1.2-0.9c-1-1.4-2.2-2.4-3.7-3.1c-1.4-0.6-2.9-0.9-4.4-0.5c-0.5,0.1-0.8,0-1.2-0.3c-1.3-1-2.9-1.5-4.5-1.8
		c-0.5-0.1-0.9,0-1.5,0.4c0.3,0.1,0.6,0.3,0.8,0.3c1.4,0.3,2.8,0.8,4,1.6c0.8,0.5,1.3,1.2,1.6,2c0.1,0.4,0.3,0.7,0.5,1.1
		c0.1,0.1,0.3,0.2,0.4,0.1c0.1,0,0.3-0.2,0.3-0.3c0-0.5-0.1-1-0.2-1.5c-0.2-0.7-0.1-0.8,0.5-0.8c2.6-0.1,4.6,1.1,6.2,3
		c0.4,0.5,0.7,1,1,1.5c0.3,0.4,0.5,0.8,0.8,1.2c0.3,0.4,0.5,1.1,1,0.9c0.6-0.2,0.1-0.8,0-1.3c0-0.1,0-0.2,0-0.4
		c1.8,0.3,3.6,0.4,5.2,1.2c2.3,1.2,4,2.9,4,5.8c0,0.7,0.1,1.3,0.2,2c0,0.3,0.1,0.5,0.2,0.9c0.7-0.7,0.4-1.5,0.6-2.3
		c1,0.1,1.9,0.6,2.7,1.2c0.3,0.2,0.6,0.5,0.9,0.8c2.4,1.8,2.8,4.3,2.6,7.1c-0.1,0.7-0.2,1.3-0.3,2c0,0.2-0.1,0.5,0,0.7
		c0.1,0.2,0.3,0.4,0.5,0.4c0.1,0,0.4-0.2,0.4-0.3c0.1-0.3,0.1-0.6,0.2-0.9c0-0.1,0.1-0.3,0.2-0.6c0.4,0.2,0.8,0.4,1.1,0.6
		c1.4,1,2.5,2.3,2.9,4c0.4,1.5,0.2,2.8-0.7,4.1c-0.4,0.6-0.9,1.2-1.2,1.9c-0.1,0.2-0.1,0.5,0,0.6c0.2,0.3,0.5,0.1,0.7,0
		c0.2-0.2,0.5-0.5,0.7-0.5c0.3,0.1,0.6,0.4,0.8,0.7c0.8,1,0.7,2.1,0.4,3.2c0,0.2-0.4,0.4-0.6,0.4c-1,0.1-2,0.1-3,0.2
		c-0.4,0-0.6-0.1-0.7-0.5c-0.2-0.9-0.7-1.5-1.7-1.7c-0.1,0-0.3-0.1-0.3-0.2c-0.8-1.1-1.8-2.1-1.6-3.7c0.2-1.2,0.5-2.4,1.1-3.5
		c0.1-0.2,0.2-0.4,0.3-0.5c0.2-0.7,0.1-1.1-0.6-1.4c-0.1,0-0.2-0.1-0.3-0.1c-2.2-0.6-3.8-2.2-5.2-3.9c-0.7-0.9-0.9-1.9-0.8-3
		c0.1-0.4,0.1-0.9,0.2-1.3c0-1-0.1-1.2-1.1-1.3c-2.4-0.3-4.3-1.5-5.9-3.2c-0.8-0.9-1.3-1.9-1.4-3.1c-0.1-1-0.3-1.2-1.3-1.3
		c-0.8,0-1.6,0-2.4-0.1c-1.6-0.3-3.1-1.1-4.5-2c-0.6-0.4-1-1-1.3-1.7c-0.6-1.4-0.8-1.5-2.3-1c-1.4,0.5-2.9,0.8-4.4,0.6
		c-0.7-0.1-1.4-0.2-2.1-0.4c-1.1-0.3-1.9-1-2.1-2.2c-0.1-0.4-0.2-0.8-0.4-1.1c0-0.1-0.3-0.2-0.4-0.2c-0.1,0-0.2,0.2-0.2,0.4
		c0,1.2,0.5,3.1,1.9,3.9c1.9,1,3.9,1.1,5.9,0.8c0.7-0.1,1.4-0.3,2.1-0.5c0.4-0.1,0.6,0,0.8,0.3c0.6,1.6,2,2.4,3.4,3.2
		c1.6,0.8,3.3,1.5,5.2,1.3c0.5,0,0.8,0.1,0.9,0.7c0.2,1.4,0.9,2.6,2,3.6c1.7,1.5,3.5,2.8,5.8,3.1c0.5,0.1,0.6,0.3,0.6,0.7
		c0,0.3,0,0.6-0.1,1c-0.2,1.4,0.2,2.7,1.1,3.8c1.8,2.2,2.3,2.5,5.7,4.3c-0.1,0.3-0.3,0.6-0.4,0.9c-0.2,0.6-0.5,1.2-0.7,1.8
		c-0.6,2.3-0.1,4.3,1.4,6c0.3,0.3,0.7,0.6,1.1,0.7c0.5,0.1,0.7,0.5,0.8,0.9c0.1,0.3,0,0.5-0.3,0.7c-0.8,0.5-1.5,1-2.4,1.5
		c-0.2-0.2-0.4-0.4-0.6-0.6c-0.9-0.8-1.7-1.7-2.6-2.5c-2-1.7-3.4-3.8-4.3-6.2c-1-2.6-1.8-5.3-2.6-8c-0.4-1.3-0.9-2.6-1.8-3.6
		c-1-1.1-2-2.2-3.1-3.2c-2.6-2.1-5.4-3.9-8.4-5.3c-2.8-1.3-5.7-2.3-8.8-2.5c-1.3-0.1-2.6,0-3.8,0.1c-0.4,0-0.8,0.3-1.1,0.4
		c-0.6,0.2-0.7,0.1-0.7-0.5c0-2.7,0.1-5.4,0.1-8c0-0.5,0-1-0.1-1.6c0-0.1-0.3-0.3-0.4-0.3c-0.1,0-0.3,0.2-0.4,0.3c0,0,0,0.2,0,0.2
		c0,2.2,0,4.4,0,6.6c0,1,0,1.9,0,2.9c0,0.3-0.1,0.6-0.5,0.5c-2.7-1-5.5-0.7-8.2,0c-4.8,1.1-9,3.5-13,6.4c-1.4,1-2.6,2.1-3.7,3.4
		c-0.8,1-1.5,2-1.9,3.3c-0.9,2.9-1.8,5.8-2.9,8.6c-0.9,2.6-2.4,4.9-4.5,6.6c-1.1,0.9-2.2,2-3.2,3c-0.8-0.5-1.7-1-2.5-1.6
		c-0.1-0.1-0.2-0.3-0.2-0.5c0.1-0.5,0.3-0.9,0.9-1c0.6-0.1,1.1-0.5,1.4-1.1c0-0.1,0.1-0.1,0.1-0.2c1.5-1.8,1.5-3.9,0.8-6
		c-0.2-0.7-0.6-1.4-0.9-2.1c0.3-0.1,0.5-0.2,0.8-0.3c2.4-0.9,4.1-2.7,5.5-4.8c0.5-0.7,0.6-1.6,0.6-2.4c0-0.4-0.1-0.8-0.1-1.2
		c-0.1-0.8-0.1-0.8,0.8-1c2-0.3,3.6-1.4,5.1-2.7c1.3-1.1,2.3-2.4,2.4-4.1c0-0.4,0.2-0.6,0.6-0.6c0.3,0,0.6,0,1,0
		c0.7-0.1,1.5-0.1,2.1-0.3c1.4-0.6,2.8-1.3,4.1-2c0.7-0.4,1.1-1,1.5-1.7c0.4-0.9,0.4-1,1.5-0.6c1.3,0.4,2.6,0.6,4,0.5
		c1.3,0,2.4-0.4,3.5-1c0.8-0.5,1.3-1.1,1.6-2c0.1-0.5,0.3-1.1,0.3-1.6c0-0.2-0.2-0.3-0.2-0.5c-0.2,0.1-0.4,0.2-0.4,0.3
		c-0.2,0.4-0.3,0.7-0.4,1.1c-0.3,1.1-1,1.7-2,2.1c-1.5,0.6-3.1,0.5-4.6,0.3c-0.8-0.1-1.5-0.4-2.3-0.6c-1.1-0.3-1.4-0.2-1.9,0.9
		c-0.4,1.1-1.2,1.9-2.2,2.4c-1.9,1-3.7,1.8-5.9,1.6c-1.2-0.1-1.4,0.2-1.5,1.3c-0.1,1.1-0.5,2.1-1.3,2.9c-1.7,1.7-3.6,3-6.1,3.3
		c-0.9,0.1-1.1,0.3-1,1.3c0,0.7,0.1,1.4,0.2,2.1c0.1,0.7-0.1,1.3-0.5,1.8c-1.4,1.9-3,3.6-5.4,4.3c-1.2,0.4-1.4,0.9-0.8,2.1
		c0.5,1,0.8,2.1,1.1,3.2c0.4,1.7-0.5,2.8-1.4,4c-0.1,0.2-0.4,0.3-0.6,0.3c-0.7,0.2-1.2,0.6-1.4,1.3c-0.3,0.8-0.3,0.8-1.1,0.7
		c-0.9-0.1-1.8-0.1-2.6-0.2c-0.4,0-0.7-0.1-0.7-0.5c-0.3-1.2-0.3-2.7,1-3.6c0.3-0.2,0.5-0.3,0.8,0c0.1,0.1,0.2,0.3,0.3,0.3
		c0.2,0.1,0.5,0.1,0.7,0c0.1,0,0.1-0.4,0.1-0.5c-0.1-0.3-0.3-0.6-0.5-0.8c-0.2-0.4-0.5-0.7-0.8-1.1c-1.2-1.7-1.2-3.4-0.4-5.2
		c0.7-1.6,1.9-2.8,3.6-3.6c0.1,0.6,0.2,1,0.4,1.5c0,0.1,0.3,0.3,0.4,0.3c0.2,0,0.5-0.2,0.5-0.4c0.1-0.3,0-0.7,0-1.1
		c-0.3-2-0.4-4.1,0.3-6c0.1-0.3,0.2-0.6,0.4-0.9c1.3-1.7,2.8-3.1,4.9-3.7c0.1,0,0.2,0,0.4,0c0.3,0.7-0.1,1.6,0.6,2.2
		c0.1-0.3,0.2-0.5,0.3-0.8c0.1-0.8,0.1-1.6,0.2-2.4c0.1-1.5,0.7-2.9,1.8-3.9c1.1-1.1,2.4-1.9,3.9-2.2c1.2-0.2,2.3-0.4,3.6-0.7
		c-0.2,0.4-0.3,0.7-0.4,1.1c0,0.2,0.1,0.5,0.2,0.7c0.2-0.1,0.5-0.2,0.6-0.3c0.4-0.5,0.7-1.1,1-1.6c0.3-0.5,0.6-0.9,0.9-1.4
		c1.2-1.7,2.9-2.6,4.8-3.2c0.3-0.1,0.7-0.1,1.1-0.1c1.3,0,1.3,0,1,1.3c-0.1,0.3-0.1,0.7,0,1.1c0,0.1,0.1,0.3,0.3,0.4
		c0.1,0,0.3,0,0.4-0.1c0.2-0.3,0.4-0.6,0.5-0.9c0.4-1.2,1.2-2.1,2.3-2.6c1.1-0.5,2.2-0.8,3.4-1.2c0.2-0.1,0.4-0.1,0.7-0.2
		c-0.4-0.5-0.9-0.5-1.3-0.5c-1.6,0.3-3.2,0.8-4.5,1.8c-0.4,0.3-0.8,0.4-1.3,0.3c-3.5-0.6-6.1,0.9-8.2,3.6c-0.4,0.6-0.8,0.8-1.5,1
		c-1.5,0.2-2.9,0.5-4.3,0.9c-2.7,0.8-4.7,2.5-5.5,5.4c0,0.1-0.1,0.2-0.1,0.3c-0.1,0.7-0.5,1-1.2,1.2c-2.4,0.6-4,2.2-5.4,4.2
		c-0.8,1.2-1.1,2.8-1,4.3c0.1,1.3-0.2,2.2-1.5,2.5c-2.2,1.4-3.5,3.3-3.6,6c-0.1,1.5,0.4,2.8,1.4,4.1c-0.3,0.2-0.5,0.4-0.8,0.6
		c-0.8,0.7-1.3,1.5-1.3,2.6c0,0.6,0,1.2,0.1,1.8c0.2,0.5,0,0.8-0.4,1.1c-0.2,0.1-0.4,0.3-0.7,0.4C12,67.9,12,67.7,12,67.5
		c0-1.1,0-2.2-0.1-3.4C11.8,62.2,12.1,60.4,12.3,58.5z M43.5,98.7c-2.3,0.2-4.5,0.2-6.7-0.7c-0.3-0.1-0.6-0.1-0.9,0
		c-0.4,0.1-0.7,0.2-1,0.3c-2.4,1.2-5,1-7.5,0.5c-1.6-0.3-3.1-0.6-4.7-1c-1.3-0.3-2.6-0.7-3.9-1.1c-0.4-0.1-0.6-0.4-0.6-0.8
		c0-0.8,0-1.6-0.1-2.4c0-0.3,0-0.6-0.1-0.9c-0.1-0.4-0.6-0.6-0.9-0.3c-0.2,0.2-0.4,0.5-0.5,0.8c-0.5,0.9-1,1.8-1.4,2.8
		c-0.2,0.4-0.5,0.5-0.9,0.3c-1.8-0.6-1.9-0.8-1.5-2.7c0.3-1.2,0.6-2.4,0.9-3.6c0.1-0.4,0.3-0.8-0.1-1.1c-0.5-0.4-0.8,0-1.2,0.3
		c-1.4,0.9-2.5,2.1-3.3,3.6c-0.5,0.9-0.9,1.8-1.4,2.8c-1.6-0.7-3.2-1.3-4.8-2c-0.3-0.1-0.5-0.3-0.7-0.4c-0.9-0.6-0.9-0.7-0.3-1.6
		c1-1.5,2.2-2.7,3.8-3.6c1.7-0.9,3.3-2,4.7-3.3c0.8-0.8,1.5-1.7,1.9-2.7c0.3-0.6,0.3-0.6,0.9-0.4c1.2,0.5,2.4,0.8,3.7,0.8
		c1.1,0,2.2,0.1,3.2,0c0.8-0.1,1.6-0.3,2.3-0.6c0.5-0.2,0.7-0.1,0.9,0.3c0.9,1.5,1.8,3,2.7,4.5c0.9,1.4,2.1,2.4,3.4,3.3
		c1.4,1,2.9,1.8,4.4,2.7c0.4,0.3,1,0.4,1.4,0.7c2.8,1.8,5.9,2.5,9,3.6c0.6,0.2,1.1,0.4,1.8,0.6C45.1,98.3,44.3,98.6,43.5,98.7z
		 M70.7,97.1c-4.4,0.6-8.8,0.6-13.3,0.5c-3.5-0.1-7-0.5-10.5-1.1c-1.4-0.2-2.7-0.8-4-1.2c-0.8-0.3-1.6-0.6-2.4-0.9
		c-1.6-0.5-3.2-1.1-4.7-2.1c-1.4-0.9-2.9-1.6-4.3-2.4c-3.5-1.9-5.6-5-7.3-8.5c-0.5-1.1-0.7-2.3-1-3.4c-0.1-0.5-0.2-0.9-0.3-1.4
		c-0.4-2.3-2-3.7-4-4.5c-1.4-0.5-2.7-0.2-3.9,0.5c-0.9,0.5-1.2,1.6-0.8,2.8c0.1-0.2,0.2-0.3,0.3-0.4c0.2-0.7,0.6-1.4,1.4-1.7
		c1-0.3,2-0.5,3,0c1.6,0.8,2.6,1.9,2.9,3.7c0.1,0.9,0.3,1.8,0.5,2.7c0.1,0.3,0,0.5-0.3,0.6c-0.6,0.2-1.2,0.5-1.8,0.6
		c-1.7,0.2-3.3,0.1-5-0.1c-1.6-0.2-2.6-1.2-3.3-2.5c-1.7-3-0.8-6.6,1-8.7c0.8-0.9,1.7-1.4,2.9-1.3c1,0.1,2,0.2,3,0.3
		c1.1,0.2,2.1,0.7,2.8,1.7c0.1,0.2,0.2,0.3,0.4,0.5c0.2,0.1,0.4,0.2,0.6,0.4c0.1-0.2,0.2-0.4,0.3-0.6c0.2-0.3,0.4-0.7,0.6-1
		c1-1,2-1.9,3.1-2.8c2.1-1.8,3.6-4.1,4.5-6.7c0.9-2.5,1.7-5,2.4-7.5c0.8-3,2.7-5.1,5.1-6.9c2.3-1.8,4.8-3.4,7.5-4.7
		c3.7-1.8,7.6-2.9,11.8-2.7c0.7,0,1.5,0.3,2.2,0.5c0.4,0.2,0.8,0.3,1.2,0c0.9-0.5,1.9-0.6,2.9-0.6c4.3,0,8.3,1.3,12,3.2
		c2.3,1.2,4.5,2.6,6.6,4.2c1.3,1,2.5,2.1,3.5,3.5c0.5,0.7,0.9,1.4,1.2,2.2c0.9,2.6,1.8,5.3,2.6,8c0.6,2.1,1.7,3.9,3,5.6
		c0.7,0.9,1.7,1.7,2.5,2.5c0.6,0.6,1.3,1.2,2,1.8c0.6,0.6,1.3,1.1,1.2,2c0.6,0,0.8-0.5,1-0.8c0.7-1,1.6-1.5,2.8-1.7
		c1-0.2,2-0.3,3-0.3c1.4-0.1,2.4,0.5,3.2,1.6c2,2.6,2.5,6.4,0.2,9.3c-0.5,0.6-1,1.1-1.8,1.3c-2.2,0.6-4.4,0.8-6.6,0.3
		C99,80.6,99,80.4,99.3,79c0.1-0.7,0.3-1.5,0.5-2.2c0.4-1.9,1.8-3,3.6-3.5c1.5-0.5,3,0.4,3.6,1.9c0,0.1,0.1,0.2,0.2,0.3
		c0.4-0.2,0.4-0.6,0.4-1c-0.2-0.9-0.6-1.6-1.5-2c-2.2-0.9-4-0.2-5.7,1.2c-0.9,0.7-1.4,1.7-1.6,2.7c-0.2,0.9-0.4,1.8-0.6,2.7
		c-0.2,1.3-0.6,2.5-1.3,3.6c-0.9,1.4-1.7,2.9-2.8,4.2c-0.9,1-2,1.9-3.1,2.6c-1.4,0.9-2.9,1.6-4.3,2.5c-3.4,2.1-7.2,3.1-10.9,4.3
		C74,96.8,72.4,96.9,70.7,97.1z M119.7,93c-0.9,0.5-1.9,1-2.9,1.5c-1,0.4-2,0.8-3.1,1.2c-0.1-0.2-0.2-0.5-0.4-0.8
		c-0.6-1.1-1.2-2.3-1.9-3.4c-0.6-1-1.6-1.7-2.6-2.3c-0.2-0.1-0.6-0.2-0.9-0.1c-0.4,0.2-0.3,0.5-0.2,0.9c0.4,1.5,0.7,3,1.1,4.5
		c0.2,1.1,0.2,1.1-0.9,1.6c-0.2,0.1-0.4,0.2-0.6,0.2c-0.7,0.3-0.7,0.3-1.1-0.4c-0.5-0.8-0.9-1.7-1.4-2.5c-0.2-0.3-0.3-0.6-0.5-0.8
		c-0.1-0.1-0.5-0.2-0.6-0.2c-0.2,0.1-0.3,0.3-0.4,0.5c-0.1,0.2,0,0.5,0,0.7c0,0.8-0.1,1.7-0.1,2.5c0,0.4-0.2,0.6-0.6,0.8
		c-2.4,0.8-4.8,1.3-7.2,1.7c-1.1,0.2-2.1,0.4-3.2,0.6c-1.8,0.3-3.5,0.2-5.2-0.6c-0.4-0.2-0.7-0.3-1.1-0.4c-0.6-0.2-1.1-0.2-1.7,0
		c-1,0.3-2.1,0.5-3.2,0.6c-0.9,0.1-1.8,0-2.8,0c-1-0.1-1.9-0.3-2.7-1c0.3-0.1,0.5-0.2,0.7-0.3c2.2-0.7,4.4-1.5,6.6-2.3
		c0.9-0.3,1.7-0.8,2.6-1.2c0.8-0.4,1.6-0.8,2.3-1.2c1.5-0.9,3-1.8,4.5-2.8c2.2-1.5,3.7-3.6,5-5.9c0.4-0.8,0.9-1.5,1.3-2.3
		c2.7,1.1,5.4,1,8.2,0.5c0.6-0.1,1.2-0.4,1.8-0.6c0.3-0.1,0.5-0.2,0.7,0.2c0.8,2.2,2.4,3.5,4.2,4.7c0.9,0.6,1.9,1.2,2.9,1.7
		c1.6,0.9,2.7,2.2,3.6,3.7C120.2,92.5,120.1,92.8,119.7,93z"/>
	<path class="st13" d="M76.6,80c0,2.8-1,5.1-3,7.1c-0.7,0.7-1.5,1.4-2.2,2.2c-0.2,0.2-0.4,0.4-0.7,0.5c-0.8,0.5-0.7,0.4-1.6-0.1
		c-2.4-1.4-5-2.4-7.8-2.2c-1.4,0.1-2.9,0.2-4.3,0.6c-1.4,0.4-2.8,1.1-4.2,1.8c-0.5,0.3-0.9,0.3-1.4,0c-1.5-0.9-2.7-2.1-3.8-3.4
		c-0.4-0.5-0.8-1-1.2-1.5c-0.8-1.2-1.3-2.5-1.2-3.9c0.1-0.6,0.1-1.3,0.2-1.9c0.1-0.7,0.5-1.2,1-1.6c0.6-0.5,0.8-0.4,1.4,0.1
		c0.9,0.8,1.8,1.5,2.9,1.9c0.4,0.1,0.7,0.4,0.7,0.8c0.2,1.5,1.1,2.6,2.2,3.5c3,2.4,6.4,3.2,10.1,2.2c3.1-0.8,5.3-2.7,6-6
		c0-0.2,0.2-0.4,0.4-0.5c0.3-0.2,0.7-0.3,1-0.4c1.3-0.4,2.5-1.1,3.7-1.8c0.6-0.4,0.9-0.3,1.2,0.3c0.2,0.3,0.3,0.7,0.3,1.1
		C76.7,79.3,76.6,79.7,76.6,80"/>
	<path class="st4" d="M52.7,80.4c2.8,0.2,5.4,0.4,8.1,0.6c2.6,0.1,5.2-0.3,7.8-0.8c-0.1,1.1-0.9,2.5-1.8,3.2
		c-1.9,1.6-4.1,2.1-6.6,1.9c-2-0.2-3.9-0.9-5.5-2.2C53.8,82.4,53,81.7,52.7,80.4"/>
	<path class="st14" d="M68.4,90.9c-0.9,0.2-1.7,0.5-2.5,0.6c-3.4,0.7-6.9,0.9-10.3,0.2c-0.6-0.1-1.1-0.3-1.7-0.5
		c-0.2-0.1-0.4-0.2-0.8-0.4c1.5-0.5,2.9-1.1,4.2-1.4c1.7-0.3,3.4-0.4,5.1-0.5C64.2,88.7,66.7,89.7,68.4,90.9"/>
	<g>
		<path class="st8" d="M76.2,75.9c-0.7-0.4-0.9-0.4-1.5,0.1c-0.4,0.3-0.9,0.7-1.4,1c-3,1.6-6.3,2.4-9.6,2.6
			c-3.2,0.2-6.5,0.1-9.7-0.4c-1.5-0.2-2.9-0.7-4.2-1.6c-0.4-0.2-0.8-0.4-1-1c-0.2-0.5-0.8-0.6-1.2-0.5c-1.6,0.3-2.9,1.2-3.2,2.9
			c-0.2,0.8-0.2,1.7-0.3,2.6c-0.1,1.1,0.2,2.2,0.8,3.2c2.7,4.4,6.4,7.4,11.6,8.3c1.2,0.2,2.4,0.2,3.6,0.2c2.8,0.1,5.6-0.4,8.3-1.1
			c1.4-0.4,2.7-0.9,3.8-1.9c0.9-0.9,1.9-1.7,2.8-2.7c1.4-1.5,2.5-3.2,2.8-5.3c0.2-1.2,0.1-2.4,0.2-3.6C78,77.5,77.3,76.6,76.2,75.9z
			 M60.7,81c2.6,0.1,5.2-0.3,7.8-0.8c-0.1,1.1-0.9,2.5-1.8,3.2c-1.9,1.6-4.2,2.1-6.6,1.9c-2-0.2-3.9-0.9-5.5-2.2
			c-0.9-0.7-1.7-1.5-2-2.7C55.4,80.6,58.1,80.8,60.7,81z M65.9,91.5c-3.4,0.7-6.9,0.9-10.3,0.2c-0.6-0.1-1.1-0.3-1.7-0.5
			c-0.2-0.1-0.4-0.2-0.8-0.4c1.5-0.5,2.9-1.1,4.2-1.4c1.7-0.3,3.4-0.4,5.1-0.5c1.8-0.1,4.3,0.9,6,2.1C67.4,91.1,66.7,91.3,65.9,91.5
			z M76.6,80c0,2.8-1,5.1-3,7.1c-0.7,0.7-1.5,1.4-2.2,2.2c-0.2,0.2-0.4,0.4-0.7,0.5c-0.8,0.5-0.7,0.4-1.6-0.1
			c-2.4-1.4-5-2.4-7.8-2.2c-1.4,0.1-2.9,0.2-4.3,0.6c-1.4,0.4-2.8,1.1-4.2,1.8c-0.5,0.3-0.9,0.3-1.4,0c-1.5-0.9-2.7-2.1-3.8-3.4
			c-0.4-0.5-0.8-1-1.2-1.5c-0.8-1.2-1.3-2.5-1.2-3.9c0.1-0.6,0.1-1.3,0.2-1.9c0.1-0.7,0.5-1.2,1-1.6c0.6-0.5,0.8-0.4,1.4,0.1
			c0.9,0.8,1.8,1.5,2.9,1.9c0.4,0.1,0.7,0.3,0.7,0.8c0.2,1.5,1.1,2.6,2.2,3.5c3,2.4,6.4,3.2,10.1,2.2c3.1-0.8,5.3-2.7,6-6
			c0-0.2,0.2-0.4,0.4-0.5c0.3-0.2,0.7-0.3,1-0.4c1.3-0.4,2.5-1.1,3.7-1.8c0.6-0.4,0.9-0.3,1.2,0.3c0.2,0.3,0.3,0.7,0.3,1.1
			C76.7,79.3,76.6,79.7,76.6,80z"/>
		<path class="st8" d="M46.1,63.6c-0.4,0.4-0.7,0.8-0.8,1.3c-0.5,1.4-0.3,2.7,0.2,4.1c0.2,0.6,0.6,1,1.3,1.1c0.8,0,1.2-0.4,1.5-1
			c0.3-0.7,0.4-1.5,0.5-2.3c-0.1-1.1-0.2-2-0.8-2.9C47.5,63.1,46.7,63,46.1,63.6z"/>
		<path class="st8" d="M73.5,69.5c0.7,0.8,1.9,0.7,2.3-0.3c0.4-0.8,0.7-1.6,0.6-2.3c0-0.6,0-1-0.1-1.3c-0.1-0.8-0.4-1.5-1-2.1
			c-0.7-0.6-1.5-0.4-1.9,0.3c-0.9,1.6-0.9,3.3-0.3,5C73.2,69.1,73.3,69.3,73.5,69.5z"/>
		<path class="st8" d="M57,75.2c0.1,0,0.3-0.1,0.5-0.2c0.5-0.5,0.9-1.1,1.5-1.5c1.8-1.4,3.7-1.1,5.1,0.7c0.1,0.2,0.2,0.3,0.3,0.5
			c0.1,0.1,0.2,0.3,0.3,0.4c0.2,0.1,0.5,0.1,0.7,0.1c0.2-0.1,0.3-0.4,0.4-0.5c-0.1-0.3-0.1-0.5-0.3-0.7c-1.3-2-3.4-3.3-6-2.2
			c-1,0.4-1.8,1.2-2.5,2c-0.2,0.3-0.3,0.6-0.4,1C56.6,74.8,56.8,75,57,75.2z"/>
		<path class="st8" d="M78.8,58.5c-0.6-2.1-1.7-3.9-3.8-4.8c-0.3-0.1-0.5-0.2-0.8-0.2c-0.3,0-0.6,0-0.7,0.3c-0.1,0.3,0,0.6,0.3,0.8
			c0.2,0.1,0.5,0.2,0.7,0.3c0.6,0.5,1.3,0.9,1.9,1.5c0.6,0.7,1.1,1.6,1.6,2.4c0.1,0.1,0.1,0.3,0.2,0.4c0.1,0.1,0.2,0.2,0.3,0.2
			c0.1-0.1,0.2-0.2,0.3-0.3c0.1-0.1,0.1-0.2,0.1-0.3C78.8,58.7,78.8,58.6,78.8,58.5z"/>
		<path class="st8" d="M47.2,54.8c0.6-0.2,0.8-0.6,0.7-0.9c-0.1-0.4-0.5-0.5-1.1-0.3c-2.4,0.9-3.5,2.7-4.2,5.2
			c0.1,0.1,0.1,0.5,0.3,0.6c0.4,0.2,0.4-0.2,0.5-0.4c0.1-0.1,0.1-0.2,0.2-0.3C44.5,57.1,45.4,55.4,47.2,54.8z"/>
	</g>
	<g>
		<path class="st8" d="M24.6,47.9c-0.3,0-0.5,0.1-0.8,0.2c-0.4,0.1-0.7,0.3-1.2,0.5c0.2-1.2,0.6-2,1.2-2.7c0.2-0.3,0.4-0.5,0.5-0.8
			c0.1-0.2,0-0.4-0.1-0.6c0-0.1-0.4-0.1-0.5,0c-0.4,0.4-0.8,0.7-1.2,1.2c-1.3,1.8-1.1,3.8-0.9,5.9c0,0.1,0,0.2,0.1,0.2
			c0.1,0.1,0.2,0.2,0.3,0.2c0.1,0,0.2-0.1,0.3-0.2c0.1-0.3,0.3-0.6,0.2-0.9c-0.1-0.9,0.3-1.4,1.2-1.6c0.3-0.1,0.5-0.2,0.7-0.4
			c0.2-0.1,0.4-0.3,0.5-0.5c0.1-0.1,0.1-0.3,0.1-0.4C24.9,48,24.7,47.9,24.6,47.9z"/>
		<path class="st8" d="M98.3,45c-0.2-0.2-0.4-0.4-0.7-0.5c-0.1-0.1-0.3,0-0.4,0.1c-0.1,0.1-0.2,0.3-0.1,0.4c0.2,0.3,0.4,0.6,0.6,0.9
			c0.6,0.8,1,1.6,1.2,2.8c-0.5-0.2-0.8-0.3-1.1-0.5c-0.3-0.1-0.5-0.2-0.8-0.3c-0.2,0-0.4,0.1-0.5,0.1c0.1,0.2,0.1,0.5,0.2,0.6
			c0.6,0.4,1.2,0.7,1.8,0.9c0.4,0.1,0.5,0.3,0.5,0.7c0,0.4,0.1,0.9,0.2,1.3c0,0.2,0.3,0.3,0.4,0.5c0.1-0.2,0.3-0.3,0.3-0.5
			c0-1.3,0.1-2.6,0-3.8C99.7,46.7,99.1,45.7,98.3,45z"/>
		<path class="st8" d="M33.6,39.3c-0.5,0-0.9,0.2-1.6,0.3c0.4-0.5,0.7-0.9,1-1.3c0.2-0.2,0.4-0.4,0.5-0.6c0-0.1,0.1-0.2,0-0.3
			c-0.1-0.1-0.2-0.1-0.3-0.1c-0.2,0.1-0.5,0.3-0.7,0.5c-0.5,0.6-1,1.2-1.6,1.8c-0.9,0.9-1.1,2.1-1.5,3.2c-0.1,0.1-0.1,0.3,0,0.5
			c0.1,0.2,0.2,0.4,0.3,0.6c0.1-0.1,0.3-0.2,0.4-0.4c0.2-0.4,0.3-0.8,0.4-1.2c0.2-0.9,0.7-1.3,1.7-1.4c0.6-0.1,1.1-0.3,1.7-0.6
			c0.1-0.1,0.3-0.4,0.2-0.6C34.1,39.4,33.8,39.3,33.6,39.3z"/>
		<path class="st8" d="M70.6,30.8c-0.8-1-1.6-2-2.7-2.7c-0.6-0.4-1.4-0.6-2.1-0.9C65.4,27,65,27,64.7,27.5c0.7,0.3,1.5,0.6,2.1,1
			c0.7,0.5,1.3,1.1,2.1,1.7c-0.6,0.1-0.9,0.2-1.2,0.3c-0.2,0.1-0.3,0.3-0.4,0.4c0.2,0.1,0.3,0.3,0.5,0.3c0.3,0,0.7,0.1,0.9,0
			c0.6-0.2,1,0,1.3,0.5c0.1,0.3,0.4,0.6,0.7,0.3c0.3-0.2,0.2-0.6,0.1-0.9C70.8,31.1,70.7,30.9,70.6,30.8z"/>
		<path class="st8" d="M91.1,40.3c-0.5-0.8-1.2-1.5-1.8-2.2c-0.2-0.2-0.4-0.4-0.6-0.6c-0.2-0.1-0.5-0.2-0.6-0.2
			c-0.3,0.2,0,0.4,0.1,0.6c0.4,0.5,0.8,1,1.3,1.6c-0.4-0.1-0.6-0.1-0.8-0.1c-0.4-0.1-0.7-0.2-1.1-0.2c-0.4,0-0.5,0.4-0.3,0.7
			c0.2,0.2,0.4,0.4,0.7,0.4c0.5,0.2,1,0.3,1.5,0.4c0.6,0.1,1,0.4,1.1,0.9c0.2,0.5,0.3,1.1,0.6,1.6c0.1,0.2,0.3,0.5,0.4,0.5
			c0.4,0,0.4-0.4,0.3-0.6C91.8,42.1,91.6,41.1,91.1,40.3z"/>
		<path class="st8" d="M56.9,27.5c-0.4-0.2-0.6-0.4-0.8-0.4c-0.6,0.1-1.3,0.2-1.8,0.5c-1.5,0.8-2.5,2-3.5,3.3
			c-0.1,0.1-0.2,0.3-0.2,0.4c-0.1,0.3-0.2,0.7,0.2,0.8c0.2,0.1,0.4-0.2,0.7-0.3c0.1,0,0.1-0.1,0.1-0.2c0.2-0.4,0.5-0.5,1-0.4
			c0.3,0.1,0.6,0.1,0.9,0.1c0.2,0,0.4-0.2,0.6-0.3c-0.1-0.2-0.3-0.4-0.5-0.4c-0.2-0.1-0.5-0.1-0.9-0.2
			C53.7,28.8,55.2,28.2,56.9,27.5z"/>
		<path class="st8" d="M104.5,56.3c-0.2,0-0.5,0-0.6,0.2c-0.3,0.4-0.5,0.9-0.9,1.4c-0.1-0.2-0.2-0.3-0.3-0.3
			c-0.2-0.1-0.5-0.2-0.7-0.4c0,0.3-0.1,0.6-0.1,0.9c0,0,0,0.1,0,0.1c0.7,0.8,0.4,1.6,0,2.5c-0.2,0.3-0.3,0.7-0.4,1
			c-0.1,0.4-0.4,0.8,0.1,1c0.5,0.2,0.6-0.3,0.8-0.6c0-0.1,0.1-0.1,0.1-0.2c0.6-1.7,1.3-3.3,1.9-5C104.5,56.6,104.5,56.4,104.5,56.3z
			"/>
		<path class="st8" d="M19.3,60.3c-0.3-0.7-0.4-1.3,0-1.9c0.2-0.4,0.5-0.8,0-1.2c-0.1-0.1-0.5,0.3-0.8,0.5c0,0-0.1,0-0.1,0.1
			c-0.3-0.5-0.6-1-0.9-1.4c-0.1-0.1-0.4-0.1-0.6-0.1c0,0.2-0.1,0.4,0,0.5c0.6,1.7,1.3,3.3,2,5c0.1,0.3,0.3,0.6,0.5,0.8
			c0.1,0.1,0.3,0.1,0.4,0.1c0.1-0.1,0.2-0.2,0.2-0.4c0-0.2-0.1-0.5-0.2-0.7C19.7,61.1,19.5,60.7,19.3,60.3z"/>
		<path class="st8" d="M42.4,31.8c-1.6,1-2.6,2.6-3.4,4.2c0,0.1-0.1,0.2-0.1,0.3c0,0.1,0.1,0.3,0.1,0.3c0.1,0,0.4,0,0.4,0
			c0.3-0.3,0.5-0.7,0.7-1.1c0.4-0.6,0.4-0.6,1.1-0.4c0.3,0.1,0.5,0.1,0.7,0.2c0.2,0,0.3,0,0.4,0c0.2-0.1,0.3-0.2,0.4-0.3
			c-0.1-0.1-0.2-0.3-0.3-0.4c-0.2-0.1-0.4-0.1-0.6-0.2c-0.6-0.2-0.7-0.4-0.2-0.9c0.4-0.4,0.8-0.7,1.2-1c0.2-0.2,0.7-0.4,0.5-0.8
			C43.1,31.1,42.7,31.6,42.4,31.8z"/>
		<path class="st8" d="M78.9,31.6c-0.2-0.1-0.4-0.2-0.6-0.3c-0.1,0.2-0.2,0.5-0.2,0.6c0.2,0.3,0.5,0.5,0.8,0.7
			c0.4,0.3,0.8,0.7,1.1,1.1c0.2,0.2,0.1,0.5-0.2,0.6c-0.3,0.1-0.6,0.2-0.9,0.3c-0.1,0-0.3,0.2-0.3,0.3c0,0.1,0.2,0.3,0.3,0.3
			c0.4,0,0.9,0,1.3-0.1c0.5-0.2,0.7-0.1,0.9,0.3c0.2,0.4,0.4,0.8,0.7,1.1c0.1,0.1,0.3,0.1,0.5,0.2c0-0.2,0.1-0.4,0.1-0.5
			c0,0,0-0.1,0-0.1C81.6,34.3,80.6,32.7,78.9,31.6z"/>
	</g>
	<path class="st12" d="M14.2,75.5c0.1-0.2,0.2-0.3,0.3-0.4c0.2-0.7,0.6-1.4,1.4-1.7c1-0.3,2-0.5,3,0c1.6,0.8,2.6,1.9,2.9,3.7
		c0.1,0.9,0.3,1.8,0.5,2.7c0.1,0.3,0,0.5-0.3,0.6c-0.6,0.2-1.2,0.5-1.8,0.6c-1.7,0.2-3.3,0.1-5-0.1c-1.6-0.2-2.6-1.2-3.3-2.5
		c-1.7-3-0.8-6.6,1-8.7c0.8-0.9,1.7-1.4,2.9-1.3c1,0.1,2,0.2,3,0.3c1.1,0.2,2.1,0.7,2.8,1.7c0.1,0.2,0.2,0.3,0.4,0.5
		c0.2,0.1,0.4,0.2,0.6,0.4c0.1-0.2,0.2-0.4,0.3-0.6c0.2-0.3,0.4-0.7,0.6-1c1-1,2-1.9,3.1-2.8c2.1-1.8,3.6-4.1,4.5-6.7
		c0.9-2.5,1.7-5,2.4-7.5c0.8-3,2.7-5.1,5.1-6.9c2.3-1.8,4.8-3.4,7.5-4.7c3.7-1.8,7.6-2.9,11.8-2.7c0.7,0,1.5,0.3,2.2,0.5
		c0.4,0.2,0.8,0.3,1.2,0c0.9-0.5,1.9-0.6,2.9-0.6c4.3,0,8.3,1.3,12,3.2c2.3,1.2,4.5,2.6,6.6,4.2c1.3,1,2.5,2.1,3.5,3.5
		c0.5,0.7,0.9,1.4,1.2,2.2c0.9,2.6,1.8,5.3,2.6,8c0.6,2.1,1.7,3.9,3,5.6c0.7,0.9,1.7,1.7,2.5,2.5c0.6,0.6,1.3,1.2,2,1.8
		c0.6,0.6,1.3,1.1,1.2,2c0.6,0,0.8-0.4,1-0.8c0.7-1,1.6-1.5,2.8-1.7c1-0.2,2-0.3,3-0.3c1.4-0.1,2.4,0.5,3.2,1.6
		c2,2.6,2.5,6.4,0.2,9.3c-0.5,0.6-1,1.1-1.8,1.3c-2.2,0.6-4.4,0.8-6.6,0.3C99,80.6,99,80.4,99.3,79c0.1-0.7,0.3-1.5,0.5-2.2
		c0.4-1.9,1.8-3,3.6-3.5c1.5-0.5,3,0.4,3.6,1.9c0,0.1,0.1,0.2,0.2,0.3c0.4-0.2,0.4-0.6,0.4-1c-0.2-0.9-0.6-1.6-1.5-2
		c-2.2-0.9-4-0.2-5.7,1.2c-0.9,0.7-1.4,1.7-1.6,2.7c-0.2,0.9-0.4,1.8-0.6,2.7c-0.2,1.3-0.6,2.5-1.3,3.6c-0.9,1.4-1.7,2.9-2.8,4.2
		c-0.9,1-2,1.9-3.1,2.6c-1.4,0.9-2.9,1.6-4.3,2.5c-3.4,2.1-7.2,3.1-10.9,4.3c-1.5,0.5-3.2,0.6-4.8,0.8c-4.4,0.6-8.8,0.6-13.3,0.5
		c-3.5-0.1-7-0.5-10.5-1.1c-1.4-0.2-2.7-0.8-4-1.2c-0.8-0.3-1.6-0.6-2.4-0.8c-1.6-0.5-3.2-1.1-4.7-2.1c-1.4-0.9-2.9-1.6-4.3-2.4
		c-3.5-1.9-5.6-5-7.3-8.5c-0.5-1.1-0.7-2.3-1-3.4c-0.1-0.5-0.2-0.9-0.3-1.4c-0.4-2.3-2-3.7-4-4.5c-1.4-0.5-2.7-0.2-3.9,0.5
		C14,73.3,13.8,74.3,14.2,75.5 M60,93.4c2.8,0.1,5.6-0.4,8.3-1.1c1.4-0.4,2.7-0.9,3.8-1.9c0.9-0.9,1.9-1.8,2.8-2.7
		c1.4-1.5,2.5-3.2,2.8-5.3c0.2-1.2,0.1-2.4,0.2-3.6c0-1.3-0.6-2.3-1.7-2.9c-0.7-0.4-0.9-0.4-1.5,0.1c-0.4,0.3-0.9,0.7-1.4,1
		c-3,1.6-6.3,2.4-9.6,2.6c-3.2,0.2-6.5,0.1-9.7-0.4c-1.5-0.2-2.9-0.7-4.2-1.6c-0.4-0.2-0.8-0.4-1-1c-0.2-0.5-0.8-0.6-1.2-0.5
		c-1.6,0.3-2.9,1.2-3.2,2.9c-0.2,0.9-0.2,1.7-0.3,2.6c-0.1,1.1,0.2,2.2,0.8,3.2c2.7,4.4,6.4,7.4,11.6,8.3
		C57.6,93.4,58.8,93.4,60,93.4 M48.8,66.8c-0.1-1.1-0.2-2-0.8-2.9c-0.5-0.8-1.3-0.9-1.9-0.3c-0.4,0.4-0.7,0.8-0.8,1.3
		c-0.5,1.4-0.3,2.7,0.2,4.1c0.2,0.6,0.6,1,1.3,1.1c0.7,0,1.2-0.4,1.5-1C48.5,68.3,48.6,67.5,48.8,66.8 M76.5,67c0-0.6,0-1-0.1-1.3
		c-0.1-0.8-0.4-1.5-1.1-2.1c-0.7-0.6-1.5-0.4-1.9,0.3c-0.9,1.6-0.9,3.3-0.3,5c0.1,0.2,0.2,0.4,0.4,0.6c0.7,0.8,1.9,0.7,2.3-0.3
		C76.2,68.5,76.6,67.7,76.5,67 M65.7,74.5c-0.1-0.3-0.1-0.5-0.3-0.7c-1.3-2-3.4-3.3-6-2.2c-1,0.4-1.8,1.2-2.5,2
		c-0.2,0.3-0.3,0.6-0.4,1c0,0.2,0.2,0.4,0.4,0.5c0.1,0,0.3-0.1,0.5-0.2c0.5-0.5,0.9-1.1,1.5-1.5c1.8-1.4,3.7-1.1,5.1,0.7
		c0.1,0.2,0.2,0.3,0.3,0.5c0.1,0.1,0.2,0.3,0.3,0.4c0.2,0.1,0.5,0.1,0.7,0.1C65.5,74.9,65.6,74.7,65.7,74.5 M78.8,58.8
		c0-0.1,0-0.2,0-0.3c-0.6-2.1-1.7-3.9-3.8-4.8c-0.3-0.1-0.5-0.2-0.8-0.2c-0.3,0-0.6,0-0.7,0.3c-0.1,0.4,0,0.6,0.3,0.8
		c0.2,0.1,0.5,0.2,0.7,0.3c0.6,0.5,1.3,0.9,1.9,1.5c0.6,0.7,1.1,1.6,1.6,2.4c0.1,0.1,0.1,0.3,0.2,0.4c0.1,0.1,0.2,0.2,0.3,0.2
		c0.1-0.1,0.2-0.2,0.3-0.3C78.8,59,78.8,58.8,78.8,58.8 M42.6,58.7c0.1,0.1,0.1,0.5,0.3,0.6c0.4,0.2,0.4-0.2,0.5-0.4
		c0.1-0.1,0.1-0.2,0.2-0.3c1-1.5,1.8-3.1,3.7-3.8c0.6-0.2,0.8-0.6,0.7-0.9c-0.1-0.4-0.5-0.5-1.1-0.3C44.4,54.4,43.2,56.3,42.6,58.7"
		/>
	<path class="st15" d="M32.6,73.6c0.1-3,0.7-6.1,1.9-8.9c1.1-2.5,2.7-4.7,4.6-6.6c2.2-2.2,4.7-4,7.4-5.6c3-1.8,6.1-3.3,9.3-4.4
		c6.3-2.2,13-3,19.6-2.1c3.9,0.6,7.6,1.8,11.1,3.6c-0.1-0.2-0.2-0.3-0.3-0.5c-1-1.3-2.1-2.5-3.5-3.5c-2.1-1.6-4.3-3-6.6-4.2
		c-3.8-1.9-7.7-3.2-12-3.2c-1,0-2,0.1-2.9,0.6c-0.4,0.2-0.8,0.1-1.2,0c-0.7-0.3-1.5-0.5-2.2-0.5c-4.2-0.2-8.1,1-11.8,2.7
		c-2.7,1.3-5.2,2.8-7.5,4.7c-2.3,1.8-4.2,4-5.1,6.9c-0.7,2.5-1.5,5-2.4,7.5c-0.9,2.6-2.4,4.8-4.5,6.7c-1.1,0.9-2.1,1.9-3.1,2.8
		c-0.3,0.3-0.4,0.6-0.6,1c-0.1,0.2-0.2,0.4-0.3,0.6c-0.2-0.1-0.4-0.2-0.6-0.4c-0.1-0.1-0.3-0.3-0.4-0.5c-0.7-1-1.6-1.5-2.8-1.7
		c-1-0.2-2-0.2-3-0.3c-1.2-0.1-2.2,0.4-2.9,1.3c-1.8,2.1-2.8,5.7-1,8.7c0.8,1.3,1.7,2.2,3.3,2.5c1.7,0.3,3.3,0.4,5,0.1
		c0.6-0.1,1.2-0.4,1.8-0.6c0.3-0.1,0.3-0.3,0.3-0.6c-0.2-0.9-0.4-1.8-0.5-2.7c-0.3-1.8-1.4-2.9-2.9-3.7c-1-0.5-2-0.4-3,0
		c-0.8,0.3-1.1,1-1.4,1.7c0,0.1-0.1,0.2-0.3,0.4c-0.4-1.3-0.1-2.3,0.8-2.8c1.2-0.7,2.6-1,3.9-0.5c2.1,0.8,3.6,2.2,4,4.5
		c0.1,0.5,0.2,0.9,0.3,1.4c0.3,1.2,0.5,2.4,1,3.4c1.7,3.4,3.9,6.5,7.3,8.5c1.4,0.8,2.9,1.5,4.3,2.4c0.6,0.3,1.1,0.6,1.7,0.9
		C34.1,87.3,32.3,80.6,32.6,73.6"/>
	<g>
		<path class="st16" d="M87.1,48.3c0.9,1,1.4,2.3,1.8,3.6c0.9,2.7,1.7,5.3,2.6,8c0.9,2.4,2.3,4.6,4.3,6.2c0.9,0.8,1.8,1.6,2.6,2.5
			c0.3,0.2,0.5,0.5,0.6,0.7c0.9-0.6,1.6-1.1,2.4-1.5c0.3-0.2,0.4-0.3,0.3-0.7c-0.1-0.4-0.3-0.8-0.8-0.9c-0.4-0.1-0.8-0.4-1.1-0.7
			c-1.6-1.7-2.1-3.7-1.4-6c0.2-0.6,0.4-1.2,0.7-1.8c0.1-0.3,0.3-0.6,0.4-0.9c-3.4-1.8-3.9-2.1-5.7-4.3c-0.9-1.1-1.4-2.3-1.1-3.8
			c0.1-0.3,0-0.6,0.1-1c0.1-0.4-0.1-0.7-0.6-0.7c-2.3-0.3-4.1-1.6-5.8-3.1c-1.1-1-1.8-2.2-2-3.6c-0.1-0.6-0.4-0.7-0.9-0.7
			c-1.9,0.1-3.5-0.5-5.2-1.3c-1.5-0.7-2.8-1.5-3.4-3.2c-0.1-0.4-0.4-0.4-0.8-0.3c-0.7,0.2-1.4,0.4-2.1,0.5c-2,0.3-4,0.2-5.9-0.8
			c-1.5-0.8-1.9-2.7-1.9-3.9c0-0.1,0.1-0.3,0.2-0.4c0.1,0,0.3,0.1,0.4,0.2c0.2,0.4,0.3,0.7,0.4,1.1c0.3,1.2,1,1.9,2.1,2.2
			c0.7,0.2,1.4,0.3,2.1,0.4c1.5,0.1,2.9-0.2,4.4-0.6c1.5-0.5,1.7-0.4,2.3,1c0.3,0.7,0.7,1.3,1.3,1.7c1.4,0.9,2.8,1.7,4.5,2
			c0.8,0.1,1.6,0.1,2.4,0.1c1,0.1,1.3,0.3,1.3,1.3c0.1,1.2,0.6,2.2,1.4,3.1c1.6,1.7,3.5,2.9,5.9,3.2c1,0.1,1.1,0.3,1.1,1.3
			c0,0.4-0.1,0.9-0.2,1.3c-0.2,1.1,0.1,2.1,0.8,3c1.4,1.7,2.9,3.3,5.2,3.9c0.1,0,0.2,0.1,0.3,0.1c0.7,0.3,0.9,0.7,0.6,1.4
			c-0.1,0.2-0.2,0.4-0.3,0.5c-0.6,1.1-0.9,2.3-1.1,3.5c-0.2,1.6,0.7,2.6,1.6,3.7c0.1,0.1,0.2,0.1,0.3,0.2c0.9,0.2,1.5,0.7,1.7,1.7
			c0.1,0.4,0.3,0.5,0.7,0.5c1-0.1,2-0.1,3-0.2c0.2,0,0.6-0.2,0.6-0.4c0.2-1.1,0.4-2.2-0.4-3.2c-0.2-0.3-0.5-0.6-0.8-0.7
			c-0.2,0-0.5,0.3-0.7,0.5c-0.2,0.2-0.5,0.3-0.7,0c-0.1-0.1-0.1-0.5,0-0.6c0.4-0.7,0.8-1.3,1.2-1.9c0.9-1.3,1.1-2.6,0.7-4.1
			c-0.4-1.7-1.4-3-2.9-4c-0.3-0.2-0.7-0.4-1.1-0.6c-0.1,0.3-0.1,0.4-0.2,0.6c-0.1,0.3-0.1,0.6-0.2,0.9c-0.1,0.1-0.3,0.3-0.4,0.3
			c-0.2,0-0.4-0.2-0.5-0.4c-0.1-0.2,0-0.5,0-0.7c0.1-0.7,0.2-1.3,0.3-2c0.2-2.8-0.3-5.3-2.6-7.1c-0.3-0.2-0.6-0.6-0.9-0.8
			c-0.8-0.6-1.6-1.1-2.7-1.2c-0.2,0.8,0.1,1.6-0.6,2.3c-0.1-0.4-0.2-0.6-0.2-0.9c-0.1-0.7-0.2-1.3-0.2-2c0-2.8-1.7-4.6-4-5.8
			c-1.6-0.8-3.4-0.9-5.2-1.2c0,0.2,0,0.3,0,0.4c0.1,0.4,0.6,1,0,1.3c-0.5,0.2-0.7-0.5-1-0.9c-0.3-0.4-0.5-0.8-0.8-1.2
			c-0.3-0.5-0.6-1-1-1.5c-1.6-1.9-3.7-3.1-6.2-3c-0.7,0-0.7,0.1-0.5,0.8c0.1,0.5,0.2,1,0.2,1.5c0,0.1-0.2,0.3-0.3,0.3
			c-0.1,0-0.3,0-0.4-0.1c-0.2-0.3-0.4-0.7-0.5-1.1c-0.3-0.9-0.8-1.5-1.6-2c-1.2-0.8-2.6-1.3-4-1.6c-0.2-0.1-0.5-0.2-0.8-0.3
			c0.5-0.4,1-0.5,1.5-0.4c1.6,0.3,3.2,0.8,4.5,1.8c0.4,0.3,0.7,0.4,1.2,0.3c1.5-0.4,3-0.1,4.4,0.5c1.5,0.7,2.8,1.7,3.7,3.1
			c0.3,0.4,0.6,0.8,1.2,0.9c1,0.1,2,0.4,3.1,0.5c3.7,0.7,6.4,2.5,7.3,6.4c0.1,0.6,0.5,0.8,1,1c2.3,0.6,3.9,2.2,5.4,4
			c0.3,0.4,0.5,0.8,0.6,1.3c0.4,1.1,0.6,2.3,0.5,3.5c0,0.3-0.1,0.7,0,1c0.1,0.2,0.2,0.5,0.4,0.6c0.2,0.2,0.4,0.2,0.6,0.3
			c3.3,1.5,5.5,6.5,3,9.8c-0.3,0.5-0.1,0.7,0.2,0.9c0.8,0.5,1.3,1.2,1.4,2.1c0.1,0.8,0.1,1.6-0.1,2.4c-0.1,0.6,0,0.8,0.4,1.1
			c0.2,0.1,0.5,0.2,0.8,0.4c0-0.4,0-0.7,0.1-0.9c0.3-4.2-0.3-8.5-0.6-12.7c-0.3-4.1-1.2-8.1-2.5-12c-0.8-2.4-2-4.6-3.6-6.4
			c-1.5-1.7-3.2-3.1-4.8-4.7c-1.3-1.3-2.7-2.4-4.2-3.3c-3.4-2-7.1-3.6-10.8-4.7c-1.3-0.4-2.5-0.8-3.8-0.9c-4.1-0.3-8.2-0.5-12.3,0
			c-1.7,0.2-3.4,0.5-5.1,0.8c-0.6,0.1-1.2,0.2-1.9,0c-0.2-0.1-0.5-0.1-0.7-0.2c-2.9-0.5-5.8-0.9-8.8-0.9c-1.6,0-3.3,0-4.9,0
			c-1.8,0.1-3.5,0.2-5.2,0.7c-4.5,1.3-8.8,3-12.7,5.4c-1,0.6-1.9,1.3-2.8,2.1c-1.6,1.4-3.1,2.8-4.6,4.2c-1.8,1.8-3.3,3.8-4.3,6.2
			c-1.8,4.4-2.8,8.9-3.2,13.6c-0.1,1.4-0.2,2.8-0.3,4.2c-0.2,1.9-0.5,3.7-0.4,5.6c0,1.1,0,2.2,0.1,3.4c0,0.2,0.1,0.4,0.1,0.7
			c0.3-0.2,0.5-0.3,0.7-0.4c0.4-0.2,0.6-0.5,0.4-1.1c-0.2-0.6-0.1-1.2-0.1-1.8c0-1.1,0.5-1.9,1.3-2.6c0.2-0.2,0.4-0.3,0.8-0.6
			c-1-1.3-1.5-2.6-1.4-4.1c0.1-2.7,1.4-4.6,3.6-6c1.4-0.3,1.6-1.2,1.5-2.5c-0.1-1.5,0.2-3,1-4.3c1.3-1.9,3-3.5,5.4-4.2
			c0.7-0.2,1.1-0.5,1.2-1.2c0-0.1,0.1-0.2,0.1-0.3c0.8-2.8,2.8-4.5,5.5-5.4c1.4-0.4,2.9-0.7,4.3-0.9c0.7-0.1,1.1-0.4,1.5-1
			c2-2.7,4.7-4.2,8.2-3.6c0.5,0.1,0.9,0,1.3-0.3c1.3-1,2.9-1.5,4.5-1.8c0.5-0.1,0.9,0,1.3,0.5c-0.3,0.1-0.5,0.2-0.7,0.2
			c-1.1,0.4-2.3,0.7-3.4,1.2c-1.1,0.5-2,1.3-2.3,2.6c-0.1,0.3-0.3,0.6-0.5,0.9c-0.1,0.1-0.3,0.2-0.4,0.1c-0.1,0-0.3-0.2-0.3-0.3
			c0-0.4,0-0.7,0-1.1c0.3-1.3,0.3-1.3-1-1.3c-0.4,0-0.7,0-1.1,0.1c-1.9,0.5-3.6,1.5-4.8,3.2c-0.3,0.5-0.6,0.9-0.9,1.4
			c-0.3,0.5-0.7,1.1-1,1.6c-0.1,0.2-0.4,0.2-0.6,0.3c-0.1-0.2-0.2-0.5-0.2-0.7c0-0.3,0.2-0.6,0.4-1.1c-1.3,0.3-2.4,0.5-3.6,0.7
			c-1.6,0.3-2.8,1.1-3.9,2.2c-1.1,1.1-1.7,2.4-1.8,3.9c-0.1,0.8-0.1,1.6-0.2,2.4c0,0.2-0.2,0.5-0.3,0.8c-0.7-0.7-0.3-1.6-0.6-2.2
			c-0.1,0-0.3,0-0.4,0c-2.1,0.7-3.6,2.1-4.9,3.7c-0.2,0.2-0.3,0.6-0.4,0.9c-0.8,2-0.7,4-0.3,6c0.1,0.4,0.1,0.7,0,1.1
			c0,0.2-0.3,0.4-0.5,0.4c-0.1,0-0.4-0.2-0.4-0.3c-0.1-0.4-0.2-0.9-0.4-1.5c-1.7,0.8-2.9,2-3.6,3.6c-0.8,1.8-0.8,3.6,0.4,5.2
			c0.3,0.4,0.5,0.7,0.8,1.1c0.2,0.3,0.3,0.5,0.5,0.8c0.1,0.2,0,0.5-0.1,0.5c-0.2,0.1-0.4,0.1-0.7,0c-0.1,0-0.2-0.2-0.3-0.3
			c-0.3-0.4-0.5-0.2-0.8,0c-1.3,0.9-1.2,2.4-1,3.6c0.1,0.4,0.4,0.5,0.7,0.5c0.9,0,1.8,0.1,2.6,0.2c0.8,0.1,0.8,0.1,1.1-0.7
			c0.2-0.7,0.7-1.2,1.4-1.3c0.2-0.1,0.5-0.1,0.6-0.3c0.9-1.2,1.8-2.3,1.4-4c-0.2-1.1-0.5-2.2-1.1-3.2c-0.6-1.2-0.4-1.7,0.8-2.1
			c2.4-0.7,4-2.4,5.4-4.3c0.4-0.5,0.6-1.1,0.5-1.8c-0.1-0.7-0.2-1.4-0.2-2.1c0-0.9,0.1-1.1,1-1.3c2.5-0.3,4.4-1.6,6.1-3.3
			c0.8-0.8,1.2-1.8,1.3-2.9c0.1-1.2,0.3-1.4,1.5-1.3c2.2,0.1,4.1-0.6,5.9-1.6c1-0.5,1.8-1.3,2.2-2.4c0.4-1.1,0.7-1.2,1.9-0.9
			c0.8,0.2,1.5,0.5,2.3,0.6c1.5,0.2,3.1,0.3,4.6-0.3c1-0.4,1.7-1,2-2.1c0.1-0.4,0.2-0.8,0.4-1.1c0.1-0.1,0.3-0.2,0.4-0.3
			c0.1,0.2,0.3,0.3,0.2,0.5c-0.1,0.6-0.2,1.1-0.3,1.6c-0.2,0.9-0.7,1.6-1.6,2c-1.1,0.6-2.3,1-3.5,1c-1.4,0-2.7-0.1-4-0.5
			c-1.2-0.4-1.1-0.3-1.5,0.6c-0.3,0.7-0.8,1.3-1.5,1.7c-1.3,0.7-2.7,1.4-4.1,2c-0.6,0.3-1.4,0.3-2.1,0.3c-0.3,0-0.6,0-1,0
			c-0.4,0-0.6,0.2-0.6,0.6c-0.2,1.7-1.2,3-2.4,4.1c-1.5,1.3-3.1,2.4-5.1,2.7c-0.8,0.1-0.9,0.1-0.8,1c0,0.4,0.1,0.8,0.1,1.2
			c0.1,0.9-0.1,1.7-0.6,2.4c-1.4,2.1-3.1,3.9-5.5,4.8c-0.3,0.1-0.5,0.2-0.8,0.3c0.3,0.7,0.6,1.4,0.9,2.1c0.7,2.1,0.7,4.2-0.8,6
			c-0.1,0.1-0.1,0.1-0.1,0.2c-0.3,0.5-0.8,0.9-1.4,1.1c-0.6,0.1-0.8,0.5-0.9,1c0,0.1,0.1,0.4,0.2,0.5c0.8,0.5,1.7,1.1,2.5,1.6
			c1-1,2-2.1,3.2-3c2.2-1.8,3.6-4.1,4.5-6.6c1-2.9,1.9-5.8,2.9-8.6c0.4-1.2,1.1-2.3,1.9-3.3c1.1-1.3,2.3-2.4,3.7-3.4
			c4-2.9,8.2-5.3,13-6.4c2.8-0.6,5.5-1,8.2,0c0.4,0.1,0.5-0.1,0.5-0.5c0-1,0-1.9,0-2.9c0-2.2,0-4.4,0-6.6c0-0.1,0-0.2,0-0.2
			c0.1-0.1,0.3-0.3,0.4-0.3c0.1,0,0.4,0.2,0.4,0.3c0.1,0.5,0.1,1,0.1,1.6c0,2.7,0,5.4-0.1,8c0,0.6,0.1,0.7,0.7,0.5
			c0.4-0.1,0.7-0.4,1.1-0.4c1.3-0.1,2.6-0.2,3.8-0.1c3.1,0.2,6,1.2,8.8,2.5c3,1.4,5.8,3.2,8.4,5.3C85.1,46.1,86.1,47.2,87.1,48.3z
			 M101.5,61.6c0.1-0.3,0.2-0.7,0.4-1c0.4-0.8,0.7-1.6,0-2.5c0,0,0-0.1,0-0.1c0-0.3,0.1-0.6,0.1-0.9c0.2,0.1,0.5,0.2,0.7,0.4
			c0.1,0.1,0.2,0.2,0.3,0.3c0.3-0.6,0.6-1,0.9-1.4c0.1-0.1,0.4-0.1,0.6-0.2c0,0.2,0.1,0.4,0,0.5c-0.6,1.7-1.3,3.3-1.9,5
			c0,0.1-0.1,0.2-0.1,0.2c-0.2,0.3-0.4,0.8-0.8,0.6C101.1,62.4,101.4,62,101.5,61.6z M97,47.9c0.3,0,0.5,0.2,0.8,0.3
			c0.3,0.1,0.6,0.3,1.1,0.5c-0.2-1.2-0.6-2-1.2-2.8c-0.2-0.3-0.4-0.6-0.6-0.9c0-0.1,0-0.3,0.1-0.4c0.1-0.1,0.3-0.1,0.4-0.1
			c0.2,0.1,0.5,0.3,0.7,0.5c0.8,0.8,1.4,1.7,1.5,2.8c0.1,1.3,0,2.5,0,3.8c0,0.2-0.2,0.3-0.3,0.5c-0.2-0.2-0.4-0.3-0.4-0.5
			C99,51.1,99,50.7,99,50.3c0-0.4-0.2-0.5-0.5-0.7c-0.6-0.3-1.2-0.6-1.8-0.9c-0.1-0.1-0.1-0.4-0.2-0.6C96.7,48,96.9,47.9,97,47.9z
			 M87.6,39.3c0.4,0,0.7,0.1,1.1,0.2c0.2,0,0.4,0.1,0.8,0.1c-0.5-0.7-0.9-1.1-1.3-1.6c-0.1-0.2-0.4-0.4-0.1-0.6
			c0.1-0.1,0.4,0.1,0.6,0.2c0.2,0.1,0.4,0.4,0.6,0.6c0.6,0.7,1.4,1.4,1.8,2.2c0.5,0.8,0.7,1.9,0.9,2.8c0.1,0.3,0,0.6-0.3,0.6
			c-0.1,0-0.4-0.3-0.4-0.5c-0.2-0.5-0.4-1-0.6-1.6c-0.2-0.6-0.6-0.8-1.1-0.9c-0.5-0.1-1-0.2-1.5-0.4c-0.3-0.1-0.5-0.3-0.7-0.4
			C87.1,39.7,87.2,39.3,87.6,39.3z M78.2,31.4c0.3,0.1,0.5,0.2,0.6,0.3c1.7,1,2.7,2.6,3.5,4.4c0,0,0,0.1,0,0.1
			c0,0.2-0.1,0.4-0.1,0.5c-0.2-0.1-0.4-0.1-0.5-0.2c-0.3-0.3-0.5-0.7-0.7-1.1c-0.2-0.4-0.5-0.5-0.9-0.3c-0.4,0.2-0.8,0.1-1.3,0.1
			c-0.1,0-0.3-0.2-0.3-0.3c0-0.1,0.1-0.3,0.3-0.3c0.3-0.1,0.6-0.2,0.9-0.3c0.3-0.1,0.4-0.3,0.2-0.6c-0.4-0.4-0.8-0.7-1.1-1.1
			c-0.3-0.2-0.6-0.5-0.8-0.7C78,31.8,78.1,31.6,78.2,31.4z M65.8,27.2c0.7,0.3,1.4,0.5,2.1,0.9c1.1,0.7,1.9,1.7,2.7,2.7
			c0.1,0.2,0.2,0.3,0.3,0.5c0.1,0.3,0.2,0.7-0.1,0.9c-0.4,0.3-0.6-0.1-0.7-0.3c-0.3-0.5-0.6-0.7-1.3-0.5c-0.3,0.1-0.6,0.1-0.9,0
			c-0.2,0-0.3-0.2-0.5-0.3c0.1-0.1,0.2-0.3,0.4-0.4c0.3-0.1,0.6-0.2,1.2-0.3c-0.8-0.7-1.4-1.3-2.1-1.7c-0.7-0.4-1.4-0.7-2.1-1
			C65,27,65.4,27,65.8,27.2z M19.8,62.6c-0.1,0.1-0.3,0-0.4-0.1c-0.2-0.2-0.4-0.5-0.5-0.8c-0.7-1.7-1.3-3.3-2-5
			c-0.1-0.2,0-0.4,0-0.5c0.2,0,0.5,0,0.6,0.1c0.3,0.4,0.5,0.9,0.9,1.4c0.1,0,0.1-0.1,0.1-0.1c0.3-0.2,0.7-0.6,0.8-0.5
			c0.5,0.3,0.2,0.8,0,1.2c-0.4,0.6-0.3,1.3,0,1.9c0.2,0.4,0.4,0.9,0.5,1.3C20,61.8,20,62,20,62.3C20.1,62.4,19.9,62.6,19.8,62.6z
			 M24.9,48.5c-0.1,0.2-0.3,0.3-0.5,0.5c-0.2,0.2-0.5,0.3-0.7,0.4c-0.9,0.2-1.3,0.6-1.2,1.6c0,0.3-0.1,0.6-0.2,0.9
			c0,0.1-0.2,0.2-0.3,0.2c-0.1,0-0.2-0.1-0.3-0.2c-0.1-0.1-0.1-0.1-0.1-0.2c-0.2-2-0.4-4.1,0.9-5.9c0.3-0.4,0.8-0.8,1.2-1.2
			c0.1-0.1,0.5-0.1,0.5,0c0.1,0.2,0.1,0.4,0.1,0.6c-0.1,0.3-0.4,0.5-0.5,0.8c-0.6,0.7-1,1.5-1.2,2.7c0.5-0.2,0.9-0.4,1.2-0.5
			c0.3-0.1,0.5-0.2,0.8-0.2c0.1,0,0.3,0.1,0.4,0.2C25,48.2,25,48.4,24.9,48.5z M33.9,40.2c-0.5,0.2-1.1,0.5-1.7,0.6
			c-0.9,0.1-1.4,0.6-1.7,1.4c-0.1,0.4-0.3,0.8-0.4,1.2c-0.1,0.2-0.3,0.3-0.4,0.4c-0.1-0.2-0.3-0.4-0.3-0.6c0-0.1,0-0.3,0-0.5
			c0.4-1.1,0.6-2.3,1.5-3.2c0.6-0.5,1-1.2,1.6-1.8c0.2-0.2,0.4-0.3,0.7-0.5c0.1,0,0.2,0,0.3,0.1c0,0,0,0.2,0,0.3
			c-0.2,0.2-0.4,0.4-0.5,0.6c-0.3,0.4-0.6,0.7-1,1.3c0.7-0.1,1.1-0.3,1.6-0.3c0.2,0,0.5,0.1,0.6,0.3C34.2,39.7,34.1,40.1,33.9,40.2z
			 M42.9,32.5c-0.4,0.3-0.8,0.6-1.2,1c-0.5,0.5-0.4,0.7,0.2,0.9c0.2,0.1,0.4,0.1,0.6,0.2c0.1,0.1,0.2,0.3,0.3,0.4
			c-0.1,0.1-0.3,0.2-0.4,0.3c-0.1,0-0.2,0-0.4,0c-0.2,0-0.4-0.1-0.7-0.2c-0.7-0.2-0.7-0.2-1.1,0.4c-0.2,0.4-0.5,0.7-0.7,1.1
			c-0.1,0.1-0.3,0.1-0.4,0c-0.1,0-0.1-0.2-0.1-0.3c0-0.1,0-0.2,0.1-0.3c0.8-1.7,1.8-3.2,3.4-4.2c0.3-0.2,0.7-0.6,1-0.1
			C43.6,32,43.1,32.2,42.9,32.5z M52.7,30.4c0.4,0.1,0.7,0.1,0.9,0.2c0.2,0.1,0.3,0.3,0.5,0.4c-0.2,0.1-0.4,0.3-0.6,0.3
			c-0.3,0-0.6,0-0.9-0.1c-0.5-0.1-0.8,0-1,0.4c0,0.1-0.1,0.2-0.1,0.2c-0.2,0.1-0.5,0.4-0.7,0.3c-0.4-0.1-0.3-0.5-0.2-0.8
			c0-0.2,0.1-0.3,0.2-0.4c1-1.3,2-2.6,3.5-3.3c0.6-0.3,1.2-0.4,1.8-0.5c0.2,0,0.4,0.2,0.8,0.4C55.2,28.2,53.7,28.8,52.7,30.4z"/>
		<path class="st16" d="M120,92.1c-0.9-1.5-2-2.9-3.6-3.7c-1-0.5-2-1.1-2.9-1.7c-1.8-1.2-3.5-2.6-4.2-4.7c-0.1-0.4-0.3-0.3-0.7-0.2
			c-0.6,0.2-1.2,0.5-1.8,0.6c-2.7,0.5-5.5,0.6-8.2-0.5c-0.4,0.8-0.9,1.5-1.3,2.3c-1.3,2.3-2.8,4.4-5,5.9c-1.4,1-3,1.9-4.5,2.8
			c-0.8,0.4-1.5,0.8-2.3,1.2c-0.9,0.4-1.7,0.9-2.6,1.2c-2.2,0.8-4.4,1.5-6.6,2.2c-0.2,0.1-0.4,0.2-0.7,0.3c0.8,0.7,1.7,1,2.7,1
			c0.9,0,1.8,0.1,2.8,0c1.1-0.1,2.2-0.3,3.2-0.6c0.6-0.2,1.1-0.3,1.7,0c0.4,0.1,0.8,0.3,1.1,0.4c1.7,0.7,3.4,0.9,5.2,0.6
			c1.1-0.2,2.1-0.4,3.2-0.6c2.5-0.4,4.9-0.9,7.2-1.7c0.4-0.1,0.6-0.3,0.6-0.8c0-0.8,0.1-1.7,0.1-2.5c0-0.2-0.1-0.5,0-0.7
			c0.1-0.2,0.2-0.5,0.4-0.5c0.2-0.1,0.5,0,0.6,0.2c0.2,0.2,0.4,0.5,0.5,0.8c0.5,0.8,0.9,1.7,1.4,2.5c0.4,0.7,0.4,0.7,1.1,0.4
			c0.2-0.1,0.4-0.2,0.6-0.2c1.1-0.5,1.1-0.5,0.9-1.6c-0.3-1.5-0.7-3-1.1-4.5c-0.1-0.4-0.2-0.8,0.2-0.9c0.2-0.1,0.6,0,0.9,0.2
			c1,0.6,1.9,1.3,2.6,2.3c0.7,1.1,1.3,2.3,1.9,3.4c0.1,0.3,0.3,0.5,0.4,0.8c1.1-0.4,2.1-0.7,3.1-1.2c1-0.4,1.9-1,2.9-1.5
			C120.1,92.8,120.2,92.5,120,92.1z"/>
		<path class="st16" d="M35.1,93.5c-0.4-0.3-0.9-0.4-1.4-0.7c-1.5-0.9-3-1.7-4.4-2.7c-1.3-0.9-2.5-2-3.4-3.3c-0.9-1.5-1.8-3-2.7-4.5
			c-0.3-0.4-0.4-0.5-0.9-0.3c-0.7,0.3-1.5,0.5-2.3,0.6c-1.1,0.1-2.2,0-3.2,0c-1.3,0-2.5-0.3-3.7-0.8c-0.6-0.3-0.6-0.3-0.9,0.3
			c-0.5,1-1.1,1.9-1.9,2.7c-1.4,1.3-3,2.4-4.7,3.3c-1.6,0.8-2.8,2-3.8,3.6c-0.6,0.9-0.6,1,0.3,1.6c0.2,0.2,0.5,0.3,0.7,0.4
			c1.6,0.7,3.2,1.3,4.8,2c0.5-1,0.9-1.9,1.4-2.8c0.8-1.5,1.9-2.7,3.3-3.6c0.4-0.2,0.7-0.6,1.2-0.3c0.4,0.3,0.2,0.7,0.1,1.1
			c-0.3,1.2-0.6,2.4-0.9,3.6c-0.4,1.8-0.3,2.1,1.5,2.7c0.4,0.1,0.7,0.1,0.9-0.3c0.5-0.9,0.9-1.8,1.4-2.8c0.1-0.3,0.3-0.6,0.5-0.8
			c0.3-0.3,0.8-0.2,0.9,0.3c0.1,0.3,0.1,0.6,0.1,0.9c0,0.8,0,1.6,0.1,2.4c0,0.4,0.2,0.7,0.6,0.8c1.3,0.3,2.6,0.7,3.9,1.1
			c1.5,0.4,3.1,0.7,4.7,1c2.5,0.5,5.1,0.7,7.5-0.5c0.3-0.2,0.7-0.3,1-0.3c0.3-0.1,0.6-0.1,0.9,0c2.2,0.9,4.5,0.8,6.7,0.7
			c0.8-0.1,1.6-0.4,2.4-1c-0.7-0.2-1.3-0.4-1.8-0.6C41,96,37.8,95.3,35.1,93.5z"/>
	</g>
	<g>
		<path class="st17" d="M60.3,32.7c-1.1-0.3-2.3-0.7-3-1.6c-0.1,0.5-0.2,0.9-0.3,1.4c-0.2,0.9-0.7,1.6-1.6,2c-1.1,0.6-2.3,1-3.5,1
			c-1.4,0-2.7-0.1-4-0.5c-1.2-0.4-1.1-0.3-1.5,0.6c-0.3,0.7-0.8,1.3-1.5,1.7c-1.3,0.7-2.7,1.4-4.1,2c-0.6,0.3-1.4,0.3-2.1,0.3
			c-0.3,0-0.6,0-1,0c-0.4,0-0.6,0.2-0.6,0.6c-0.2,1.7-1.2,3-2.4,4.1c-1.5,1.3-3.1,2.4-5.1,2.7c-0.8,0.1-0.9,0.1-0.8,1
			c0,0.4,0.1,0.8,0.1,1.2c0.1,0.9-0.1,1.7-0.6,2.4c-1.4,2.1-3.1,3.9-5.5,4.8c-0.3,0.1-0.5,0.2-0.8,0.3c0.3,0.7,0.6,1.4,0.9,2.1
			c0.7,2.1,0.7,4.2-0.8,6c-0.1,0.1-0.1,0.1-0.1,0.2c-0.3,0.5-0.8,0.9-1.4,1.1c-0.6,0.1-0.8,0.5-0.9,1c0,0.1,0.1,0.4,0.2,0.5
			c0.8,0.5,1.7,1.1,2.5,1.6c1-1,2-2.1,3.2-3c2.2-1.8,3.6-4.1,4.5-6.6c1-2.9,1.9-5.8,2.9-8.6c0.4-1.2,1.1-2.3,1.9-3.3
			c1.1-1.3,2.3-2.4,3.7-3.4c4-2.9,8.2-5.3,13-6.4c2.8-0.6,5.5-1,8.2,0c0.4,0.1,0.5-0.1,0.5-0.5c0-1,0-1.9,0-2.9
			C60.3,33.9,60.3,33.3,60.3,32.7z"/>
		<path class="st17" d="M101.8,67.1c-0.1-0.4-0.3-0.8-0.8-0.9c-0.4-0.1-0.8-0.4-1.1-0.7c-1.6-1.7-2.1-3.7-1.4-6
			c0.2-0.6,0.4-1.2,0.7-1.8c0.1-0.3,0.3-0.6,0.4-0.9c-3.4-1.8-3.9-2.1-5.7-4.3c-0.9-1.1-1.4-2.3-1.1-3.8c0.1-0.3,0-0.6,0.1-1
			c0.1-0.4-0.1-0.7-0.6-0.7c-2.3-0.3-4.1-1.6-5.8-3.1c-1.1-1-1.8-2.2-2-3.6c-0.1-0.6-0.4-0.7-0.9-0.7c-1.9,0.1-3.5-0.5-5.2-1.3
			c-1.5-0.7-2.8-1.5-3.4-3.1c-0.1-0.4-0.4-0.4-0.8-0.3c-0.7,0.2-1.4,0.4-2.1,0.5c-2,0.3-4,0.2-5.9-0.8c-0.6-0.3-1.1-0.9-1.4-1.5
			c-0.4,0.1-0.8,0.1-1.2,0.1c-0.8,0-1.5-0.1-2.3-0.3c0,1.5,0,2.9,0,4.4c0,0.6,0.1,0.7,0.7,0.5c0.4-0.1,0.7-0.4,1.1-0.4
			c1.3-0.1,2.6-0.2,3.8-0.1c3.1,0.2,6,1.2,8.8,2.5c3,1.4,5.8,3.2,8.4,5.3c1.1,0.9,2.1,2.1,3.1,3.2c0.9,1,1.3,2.3,1.8,3.6
			c0.9,2.7,1.7,5.3,2.6,8c0.9,2.4,2.3,4.6,4.3,6.2c0.9,0.8,1.8,1.6,2.6,2.5c0.3,0.2,0.5,0.5,0.6,0.7c0.9-0.6,1.6-1.1,2.4-1.5
			C101.8,67.5,101.9,67.4,101.8,67.1z"/>
	</g>
	<g>
		<defs>
			<path id="SVGID_1_" d="M78.5,77.3c0,3.9,3.2,7.1,7.1,7.1c3.9,0,7.1-3.2,7.1-7.1c0-3.9-3.2-7.1-7.1-7.1
				C81.6,70.2,78.5,73.4,78.5,77.3"/>
		</defs>
		<clipPath id="SVGID_2_">
			<use xlink:href="#SVGID_1_"  style="overflow:visible;"/>
		</clipPath>
		<defs>
			<filter id="Adobe_OpacityMaskFilter" filterUnits="userSpaceOnUse" x="78.5" y="70.2" width="14.2" height="14.2">
				<feColorMatrix  type="matrix" values="1 0 0 0 0  0 1 0 0 0  0 0 1 0 0  0 0 0 1 0"/>
			</filter>
		</defs>
		<mask maskUnits="userSpaceOnUse" x="78.5" y="70.2" width="14.2" height="14.2" id="SVGID_3_">
			<g class="st18">
				
					<radialGradient id="SVGID_4_" cx="-3.439640e-05" cy="184.7271" r="1" gradientTransform="matrix(7.0979 0 0 -7.0979 85.5527 1388.4432)" gradientUnits="userSpaceOnUse">
					<stop  offset="0" style="stop-color:#FFFFFF"/>
					<stop  offset="0.121" style="stop-color:#FBFBFB"/>
					<stop  offset="0.246" style="stop-color:#EEEEEE"/>
					<stop  offset="0.3728" style="stop-color:#DADADA"/>
					<stop  offset="0.501" style="stop-color:#BDBDBD"/>
					<stop  offset="0.6301" style="stop-color:#979797"/>
					<stop  offset="0.7601" style="stop-color:#6A6A6A"/>
					<stop  offset="0.8883" style="stop-color:#353535"/>
					<stop  offset="1" style="stop-color:#000000"/>
				</radialGradient>
				<rect x="78.5" y="70.2" class="st19" width="14.2" height="14.2"/>
			</g>
		</mask>
		
			<radialGradient id="SVGID_5_" cx="-3.439640e-05" cy="184.7271" r="1" gradientTransform="matrix(7.0979 0 0 -7.0979 85.5527 1388.4432)" gradientUnits="userSpaceOnUse">
			<stop  offset="0" style="stop-color:#EDB4A7"/>
			<stop  offset="0.3452" style="stop-color:#EDB8AA"/>
			<stop  offset="0.7008" style="stop-color:#EDC4B2"/>
			<stop  offset="1" style="stop-color:#EDD5BD"/>
		</radialGradient>
		<rect x="78.5" y="70.2" class="st20" width="14.2" height="14.2"/>
	</g>
	<g>
		<defs>
			<path id="SVGID_6_" d="M28.6,77.3c0,3.9,3.2,7.1,7.1,7.1c3.9,0,7.1-3.2,7.1-7.1c0-3.9-3.2-7.1-7.1-7.1
				C31.7,70.2,28.6,73.4,28.6,77.3"/>
		</defs>
		<clipPath id="SVGID_7_">
			<use xlink:href="#SVGID_6_"  style="overflow:visible;"/>
		</clipPath>
		<defs>
			<filter id="Adobe_OpacityMaskFilter_1_" filterUnits="userSpaceOnUse" x="28.6" y="70.2" width="14.2" height="14.2">
				<feColorMatrix  type="matrix" values="1 0 0 0 0  0 1 0 0 0  0 0 1 0 0  0 0 0 1 0"/>
			</filter>
		</defs>
		<mask maskUnits="userSpaceOnUse" x="28.6" y="70.2" width="14.2" height="14.2" id="SVGID_8_">
			<g class="st21">
				
					<radialGradient id="SVGID_9_" cx="-3.708361e-05" cy="184.7271" r="1.0001" gradientTransform="matrix(7.0979 0 0 -7.0979 35.6608 1388.4432)" gradientUnits="userSpaceOnUse">
					<stop  offset="0" style="stop-color:#FFFFFF"/>
					<stop  offset="0.121" style="stop-color:#FBFBFB"/>
					<stop  offset="0.246" style="stop-color:#EEEEEE"/>
					<stop  offset="0.3728" style="stop-color:#DADADA"/>
					<stop  offset="0.501" style="stop-color:#BDBDBD"/>
					<stop  offset="0.6301" style="stop-color:#979797"/>
					<stop  offset="0.7601" style="stop-color:#6A6A6A"/>
					<stop  offset="0.8883" style="stop-color:#353535"/>
					<stop  offset="1" style="stop-color:#000000"/>
				</radialGradient>
				<rect x="28.6" y="70.2" class="st22" width="14.2" height="14.2"/>
			</g>
		</mask>
		
			<radialGradient id="SVGID_10_" cx="-3.708361e-05" cy="184.7271" r="1.0001" gradientTransform="matrix(7.0979 0 0 -7.0979 35.6608 1388.4432)" gradientUnits="userSpaceOnUse">
			<stop  offset="0" style="stop-color:#EDB4A7"/>
			<stop  offset="0.3452" style="stop-color:#EDB8AA"/>
			<stop  offset="0.7008" style="stop-color:#EDC4B2"/>
			<stop  offset="1" style="stop-color:#EDD5BD"/>
		</radialGradient>
		<rect x="28.6" y="70.2" class="st23" width="14.2" height="14.2"/>
	</g>
</g>
</svg>
