<?xml version="1.0" encoding="utf-8"?>
<!-- Generator: Adobe Illustrator 23.0.1, SVG Export Plug-In . SVG Version: 6.00 Build 0)  -->
<svg version="1.1" xmlns="http://www.w3.org/2000/svg" xmlns:xlink="http://www.w3.org/1999/xlink" x="0px" y="0px"
	 viewBox="0 0 123.6 246.1" style="enable-background:new 0 0 123.6 246.1;" xml:space="preserve">
<style type="text/css">
	.st0{display:none;}
	.st1{display:inline;fill:#FF2E44;}
	.st2{display:inline;fill:#FFFFFF;}
	.st3{display:inline;fill:#D6AB79;}
	.st4{display:inline;}
	.st5{fill:#0004FF;}
	.st6{fill:#00BAFF;}
	.st7{fill:#FFFFFF;}
	.st8{display:inline;fill:#524632;}
	.st9{fill:#D6AB79;}
	.st10{fill:#524632;}
	.st11{fill:#FF2E44;}
	.st12{fill:#FFF04D;}
	.st13{fill:#594D45;}
	.st14{fill:#66594A;}
	.st15{fill:#CE9663;}
	.st16{fill:#9F2429;}
	.st17{fill:#FFB6C7;}
	.st18{filter:url(#Adobe_OpacityMaskFilter);}
	.st19{clip-path:url(#SVGID_2_);fill:url(#SVGID_4_);}
	.st20{clip-path:url(#SVGID_2_);mask:url(#SVGID_3_);fill:url(#SVGID_5_);}
	.st21{filter:url(#Adobe_OpacityMaskFilter_1_);}
	.st22{clip-path:url(#SVGID_7_);fill:url(#SVGID_9_);}
	.st23{clip-path:url(#SVGID_7_);mask:url(#SVGID_8_);fill:url(#SVGID_10_);}
</style>
<g id="Piernas" class="st0">
	<path id="Short_x5F_color" class="st1" d="M72.3,198.7c-1.1,0-2.2,0-3.2,0c-0.5,0-1,0-1.4,0c-2-0.1-2.3-0.4-2.5-2.3
		c-0.3-2.5-0.8-5.1-1.1-7.6c-0.3-2.1-0.4-4.1-0.6-6.2c-0.1-0.6-0.1-1.3-0.1-1.9c0.6-0.1,1.2-0.1,1.9-0.2c0.1,0,0.3,0,0.3-0.1
		c0.1-0.1,0.3-0.2,0.3-0.3c0-0.2-0.2-0.3-0.3-0.4c-0.1-0.1-0.2-0.1-0.3-0.1c-1.4,0-2.7-0.1-4.1-0.1c-0.8,0-1.5,0-2.3,0.1
		c-0.4,0-0.8,0-0.9,0.4c-0.1,0.3,0.3,0.5,0.9,0.5c0.5,0,1,0.1,1.5,0.1c0,0.5,0,1-0.1,1.5c-0.3,3.9-0.7,7.8-1.4,11.6
		c-0.2,1.2-0.4,2.4-0.5,3.7c-0.1,0.6-0.4,0.9-1,1.1c-0.6,0.1-1.2,0.2-1.8,0.2c-3,0-6,0.2-9,0c-2.6-0.2-5.2-0.8-7.8-1.3
		c-0.8-0.1-0.8-0.2-0.7-1c0.1-1.4,0.2-2.9,0.3-4.3c0.1-2.5,0.3-5,0.8-7.5c0.5-3.1,1-6.2,1.7-9.3c0.7-3,1.7-5.9,2.6-8.8
		c0.2-0.6,0.3-0.6,0.9-0.4c1.8,0.7,3.6,1.4,5.4,2c1.7,0.5,3.4,0.9,5.1,1.1c2.2,0.3,4.4,0.7,6.5,0.7c2.3,0,4.7-0.4,7-0.7
		c3.7-0.4,7-1.7,10.4-3c0.2-0.1,0.4-0.2,0.5-0.2c0.3-0.1,0.5,0,0.6,0.3c0.2,0.5,0.3,1,0.5,1.5c1.3,3.8,2.4,7.6,3.1,11.6
		c0.7,4.2,1.5,8.4,1.6,12.7c0,1.6,0.2,3.1,0.3,4.7c0,0.5-0.1,0.7-0.5,0.7c-0.4,0.1-0.9,0.2-1.3,0.3c-1.7,0.3-3.4,0.7-5.1,0.9
		c-2.1,0.2-4.2,0.2-6.3,0.3C72.3,198.8,72.3,198.8,72.3,198.7"/>
	<path id="FranjaShortIzq_x5F_color" class="st2" d="M86.6,196.7c-0.1-0.4-0.1-0.6-0.1-0.9c-0.2-2.3-0.2-4.6-0.5-6.9
		c-0.3-2.6-0.6-5.2-1-7.8c-0.7-4.7-1.9-9.2-3.6-13.6c-0.2-0.5-0.4-1-0.6-1.4c-0.2-0.4-0.1-0.7,0.3-0.8c0.1,0,0.2-0.1,0.3-0.1
		c1.2-0.4,1.2-0.8,1.6,0.8c1.2,4.4,2.3,8.8,3.2,13.2c0.6,3.2,1.1,6.4,1.9,9.5c0.4,2,0.8,3.9,0.9,5.9c0,0.7-0.1,1.1-0.8,1.3
		C87.7,196,87.2,196.3,86.6,196.7"/>
	<path id="FranjaShortDer_x5F_color" class="st2" d="M37,196.7c0.1-0.4,0.1-0.6,0.1-0.9c0.2-2.3,0.2-4.6,0.5-6.9
		c0.3-2.6,0.6-5.2,1-7.8c0.7-4.7,1.9-9.2,3.6-13.6c0.2-0.5,0.4-1,0.6-1.4c0.2-0.4,0.1-0.7-0.3-0.8c-0.1,0-0.2-0.1-0.3-0.1
		c-1.2-0.4-1.2-0.8-1.6,0.8c-1.2,4.4-2.3,8.8-3.2,13.2c-0.6,3.2-1.1,6.4-1.9,9.5c-0.4,2-0.8,3.9-0.9,5.9c0,0.7,0.1,1.1,0.8,1.3
		C35.9,196,36.4,196.3,37,196.7"/>
	<path id="PiernaDer_x5F_color_3_" class="st3" d="M80.7,208.9c-0.1-2.7-0.3-4.9-0.3-7.1c0-0.6,0-1.2,0.1-1.8c0-0.3-0.1-0.5-0.4-0.4
		c-1.8,0.4-3.6,0.5-5.4,0.5c-0.6,0-0.6,0.1-0.6,0.8c0,2.2,0.1,4.3,0.1,6.5c0,2-0.2,4.1-0.4,6.1c-0.1,1.1-0.1,2.2-0.2,3.2
		c0,0.4,0.2,0.6,0.5,0.8c1.5,0.8,3.1,1,4.7,0.4c0.9-0.4,1.5-1,1.6-2.1C80.4,213.2,80.5,210.8,80.7,208.9"/>
	<g id="TenisColor_copia_2" class="st4">
		<path class="st5" d="M97.6,236.4c0.4-2.4-1.3-6.2-3.7-8.3c-0.9,0.7-1.9,0.7-2.9,0.5c-2.2-0.3-4,0.3-5.6,1.8
			c-0.5,0.5-1.1,0.9-1.6,1.3c-1.3,0.9-2.7,1.2-4.2,1.1c-0.9-0.1-1.6-0.6-2.1-1.3c-0.4-0.6-0.8-1.2-1.2-1.8c-0.6-1.2-1.1-2.4-1.8-3.5
			c-0.3-0.5,0-1.1-0.5-1.4c-0.5-0.2-1-0.2-1.5-0.3c-1-0.3-2-0.6-3-1c0,0.4-0.1,0.8-0.1,1.2c-0.2,1.7-0.2,3.4,0.6,5.1
			c0.7,1.5,0.8,3.3,0.8,5.1c0,0.4,0,0.7,0,1.1c0,0.4,0.2,0.7,0.5,0.9c0.3,0.2,0.5,0.3,0.8,0.5c1.7,0.8,3.3,1.5,5,2.3
			c2,0.9,4.1,1,6.2,0.8c0.3,0,0.7-0.3,0.9-0.5c0.6-0.6,1.2-1.3,1.7-2c1.4-2.1,3.5-3,5.9-3.1c2-0.1,3.8,0.4,5.5,1.5
			C97.2,236.3,97.4,236.4,97.6,236.4"/>
		<path class="st6" d="M89.1,225.2c-1.5,0.1-3,0.3-4.4,0.8c-1.5,0.6-3,1.2-4.5,1.8c-0.4,0.2-0.8,0.4-1.2,0.7
			c-0.5,0.3-1.2,0.6-1.1,1.2c0,0.7,1.3,1.8,2,1.9c1.2,0.1,2.4-0.2,3.4-0.9c0.5-0.4,1-0.8,1.5-1.2c1.8-1.6,3.8-2.3,6.2-1.9
			c0.6,0.1,1.2,0.1,1.8,0.1c0.4,0,0.6-0.3,0.3-0.6C91.9,225.9,90.8,224.9,89.1,225.2"/>
		<path class="st7" d="M75.3,225.1c0.6,1.2,1.1,2.3,1.7,3.3c3.7-2.2,7.4-4.1,12.1-4.2c-1.5-1-3-1.6-4.6-1.9c-0.2,0-0.4,0.1-0.6,0.2
			c-2.2,1.6-4.6,2.5-7.4,2.5C76.2,225.1,75.8,225.1,75.3,225.1"/>
		<path class="st6" d="M68.2,224.1c-0.8,1.4-0.8,1.4-0.1,2C68.3,225.5,68.2,224.9,68.2,224.1"/>
		<path class="st6" d="M66.9,226.9c-0.6,1.8-0.8,3.5-0.8,5.3c0,0.7,0.7,1,1.1,1.5c0.1-0.5,0.1-0.9,0.2-1.4c0.1-1.1,0.2-2.3,0.4-3.4
			C68,228.1,67.7,227.5,66.9,226.9"/>
		<path class="st6" d="M69.6,235.7c0.2-2,0-3.8-0.8-5.8c-0.2,1.2-0.3,2.1-0.5,3c0,0.2,0,0.3-0.1,0.5C68,234.8,68,234.8,69.6,235.7"
			/>
		<path class="st7" d="M66.4,235.1c0.2,1.6,0.9,2.9,2.2,3.7c1.1,0.7,2.1,1.4,3.2,2.1c2.8,1.8,5.9,2.6,9,3.4c3.2,0.8,6.4,0.6,9.5-0.2
			c2.2-0.5,4.4-1.3,6-3.1c0.4-0.4,0.8-0.9,1-1.5c0.6-1.3,0.5-1.5-0.6-2.3c-2.4-1.7-5-1.8-7.6-0.9c-0.9,0.3-1.6,0.9-2.1,1.7
			c-0.6,0.9-1.3,1.7-2,2.5c-0.4,0.5-0.9,0.7-1.5,0.8c-3,0.5-5.9-0.2-8.6-1.5c-1.5-0.8-3.1-1.5-4.6-2.3C69,236.9,67.8,236,66.4,235.1
			"/>
		<path class="st7" d="M61.9,131.5c-0.5-0.6-0.8-1.1-1.2-1.5c-1.8-2.3-3.7-4.6-5.5-7c-1.1-1.4-2-3-3-4.4c-0.1-0.2-0.2-0.4-0.3-0.5
			c-0.5-1.1-0.5-1.1,0.6-1.6c0.4-0.2,0.9-0.5,1.3-0.6c0.4-0.1,0.9-0.1,1.4-0.1c0.2,0,0.4,0.2,0.5,0.4c0.3,0.6,0.5,1.3,0.8,1.8
			c1.3,2.1,2.3,4.5,4,6.4c0.2,0.2,0.4,0.5,0.6,0.7c0.6,0.5,0.9,0.6,1.4,0c0.9-1,1.7-2.1,2.5-3.2c0.9-1.4,1.6-2.8,2.4-4.3
			c0.2-0.4,0.4-0.8,0.5-1.2c0.1-0.4,0.3-0.7,0.7-0.6c0.5,0,1.1,0.1,1.5,0.3c2.3,1,2.3,0.6,1.1,3c-0.7,1.3-1.5,2.4-2.4,3.6
			c-2.2,2.9-4.4,5.7-6.6,8.5C62.1,131.1,62,131.3,61.9,131.5"/>
		<path class="st7" d="M83.9,218.8c-0.1-0.9-0.2-1.7-0.2-2.6c0-0.7-0.4-1.1-0.9-1.4c-0.8-0.4-1.4-0.3-1.4,0.6c0,0,0,0.1,0,0.1
			c-0.3,2.3-1.6,3.5-3.9,3.6c-1.5,0.1-2.9-0.2-4.2-1c-0.6-0.4-0.9-0.8-0.9-1.6c0.1-0.6,0.1-1.2,0.1-1.8c0-0.7,0-0.8-0.7-0.7
			c-0.3,0-0.5,0.1-0.8,0.1c-0.6,0.1-0.9,0.4-1,1c-0.1,2-0.3,4.1-0.4,6.1c0,0.5,0.2,0.8,0.7,1c0.6,0.3,1.2,0.6,1.8,0.7
			c1.4,0.3,2.7,0.6,4.1,0.8c2.4,0.3,4.5-0.6,6.5-1.7c0.9-0.5,1.3-1.3,1.3-2.3C83.8,219.5,83.8,219.2,83.9,218.8
			C83.8,218.8,83.8,218.8,83.9,218.8"/>
		<path class="st7" d="M69.2,215.3c-0.9,1-0.5,2-0.5,3c0.1-0.5,0.2-0.9,0.3-1.4C69,216.4,69.1,216,69.2,215.3"/>
	</g>
	<path id="PiernaDer_x5F_color_2_" class="st3" d="M42.8,208.9c0.1-2.7,0.3-4.9,0.3-7.1c0-0.6,0-1.2-0.1-1.8c0-0.3,0.1-0.5,0.4-0.4
		c1.8,0.4,3.6,0.5,5.4,0.5c0.6,0,0.6,0.1,0.6,0.8c0,2.2-0.1,4.3-0.1,6.5c0,2,0.2,4.1,0.4,6.1c0.1,1.1,0.1,2.2,0.2,3.2
		c0,0.4-0.2,0.6-0.5,0.8c-1.5,0.8-3.1,1-4.7,0.4c-0.9-0.4-1.5-1-1.6-2.1C43.1,213.2,42.9,210.8,42.8,208.9"/>
	<g id="TenisColor_copia" class="st4">
		<path class="st5" d="M25.9,236.4c-0.4-2.4,1.3-6.2,3.7-8.3c0.9,0.7,1.9,0.7,2.9,0.5c2.2-0.3,4,0.3,5.6,1.8
			c0.5,0.5,1.1,0.9,1.6,1.3c1.3,0.9,2.7,1.2,4.2,1.1c0.9-0.1,1.6-0.6,2.1-1.3c0.4-0.6,0.8-1.2,1.2-1.8c0.6-1.2,1.1-2.4,1.8-3.5
			c0.3-0.5,0-1.1,0.5-1.4c0.5-0.2,1-0.2,1.5-0.3c1-0.3,2-0.6,3-1c0,0.4,0.1,0.8,0.1,1.2c0.2,1.7,0.2,3.4-0.6,5.1
			c-0.7,1.5-0.8,3.3-0.8,5.1c0,0.4,0,0.7,0,1.1c0,0.4-0.2,0.7-0.5,0.9c-0.3,0.2-0.5,0.3-0.8,0.5c-1.7,0.8-3.3,1.5-5,2.3
			c-2,0.9-4.1,1-6.2,0.8c-0.3,0-0.7-0.3-0.9-0.5c-0.6-0.6-1.2-1.3-1.7-2c-1.4-2.1-3.5-3-5.9-3.1c-2-0.1-3.8,0.4-5.5,1.5
			C26.2,236.3,26.1,236.4,25.9,236.4"/>
		<path class="st6" d="M34.4,225.2c1.5,0.1,3,0.3,4.4,0.8c1.5,0.6,3,1.2,4.5,1.8c0.4,0.2,0.8,0.4,1.2,0.7c0.5,0.3,1.2,0.6,1.1,1.2
			c0,0.7-1.3,1.8-2,1.9c-1.2,0.1-2.4-0.2-3.4-0.9c-0.5-0.4-1-0.8-1.5-1.2c-1.8-1.6-3.8-2.3-6.2-1.9c-0.6,0.1-1.2,0.1-1.8,0.1
			c-0.4,0-0.6-0.3-0.3-0.6C31.6,225.9,32.7,224.9,34.4,225.2"/>
		<path class="st7" d="M48.1,225.1c-0.6,1.2-1.1,2.3-1.7,3.3c-3.7-2.2-7.4-4.1-12.1-4.2c1.5-1,3-1.6,4.6-1.9c0.2,0,0.4,0.1,0.6,0.2
			c2.2,1.6,4.6,2.5,7.4,2.5C47.3,225.1,47.6,225.1,48.1,225.1"/>
		<path class="st6" d="M55.2,224.1c0.8,1.4,0.8,1.4,0.1,2C55.2,225.5,55.2,224.9,55.2,224.1"/>
		<path class="st6" d="M56.5,226.9c0.6,1.8,0.8,3.5,0.8,5.3c0,0.7-0.7,1-1.1,1.5c-0.1-0.5-0.1-0.9-0.2-1.4c-0.1-1.1-0.2-2.3-0.4-3.4
			C55.5,228.1,55.7,227.5,56.5,226.9"/>
		<path class="st6" d="M53.9,235.7c-0.2-2,0-3.8,0.8-5.8c0.2,1.2,0.3,2.1,0.5,3c0,0.2,0,0.3,0.1,0.5
			C55.5,234.8,55.5,234.8,53.9,235.7"/>
		<path class="st7" d="M57.1,235.1c-0.2,1.6-0.9,2.9-2.2,3.7c-1.1,0.7-2.1,1.4-3.2,2.1c-2.8,1.8-5.9,2.6-9,3.4
			c-3.2,0.8-6.4,0.6-9.5-0.2c-2.2-0.5-4.4-1.3-6-3.1c-0.4-0.4-0.8-0.9-1-1.5c-0.6-1.3-0.5-1.5,0.6-2.3c2.4-1.7,5-1.8,7.6-0.9
			c0.9,0.3,1.6,0.9,2.1,1.7c0.6,0.9,1.3,1.7,2,2.5c0.4,0.5,0.9,0.7,1.5,0.8c3,0.5,5.9-0.2,8.6-1.5c1.5-0.8,3.1-1.5,4.6-2.3
			C54.5,236.9,55.7,236,57.1,235.1"/>
		<path class="st7" d="M61.9,131.5c-0.5-0.6-0.8-1.1-1.2-1.5c-1.8-2.3-3.7-4.6-5.5-7c-1.1-1.4-2-3-3-4.4c-0.1-0.2-0.2-0.4-0.3-0.5
			c-0.5-1.1-0.5-1.1,0.6-1.6c0.4-0.2,0.9-0.5,1.3-0.6c0.4-0.1,0.9-0.1,1.4-0.1c0.2,0,0.4,0.2,0.5,0.4c0.3,0.6,0.5,1.3,0.8,1.8
			c1.3,2.1,2.3,4.5,4,6.4c0.2,0.2,0.4,0.5,0.6,0.7c0.6,0.5,0.9,0.6,1.4,0c0.9-1,1.7-2.1,2.5-3.2c0.9-1.4,1.6-2.8,2.4-4.3
			c0.2-0.4,0.4-0.8,0.5-1.2c0.1-0.4,0.3-0.7,0.7-0.6c0.5,0,1.1,0.1,1.5,0.3c2.3,1,2.3,0.6,1.1,3c-0.7,1.3-1.5,2.4-2.4,3.6
			c-2.2,2.9-4.4,5.7-6.6,8.5C62.1,131.1,62,131.3,61.9,131.5"/>
		<path class="st7" d="M39.6,218.8c0.1-0.9,0.2-1.7,0.2-2.6c0-0.7,0.4-1.1,0.9-1.4c0.8-0.4,1.4-0.3,1.4,0.6c0,0,0,0.1,0,0.1
			c0.3,2.3,1.6,3.5,3.9,3.6c1.5,0.1,2.9-0.2,4.2-1c0.6-0.4,0.9-0.8,0.9-1.6c-0.1-0.6-0.1-1.2-0.1-1.8c0-0.7,0-0.8,0.7-0.7
			c0.3,0,0.5,0.1,0.8,0.1c0.6,0.1,0.9,0.4,1,1c0.1,2,0.3,4.1,0.4,6.1c0,0.5-0.2,0.8-0.7,1c-0.6,0.3-1.2,0.6-1.8,0.7
			c-1.4,0.3-2.7,0.6-4.1,0.8c-2.4,0.3-4.5-0.6-6.5-1.7c-0.9-0.5-1.3-1.3-1.3-2.3C39.6,219.5,39.7,219.2,39.6,218.8
			C39.6,218.8,39.6,218.8,39.6,218.8"/>
		<path class="st7" d="M54.3,215.3c0.9,1,0.5,2,0.5,3c-0.1-0.5-0.2-0.9-0.3-1.4C54.4,216.4,54.4,216,54.3,215.3"/>
	</g>
	<path id="Linea_3_" class="st8" d="M97.4,230.2c-1.1-2-2.9-3.5-4.5-5.1c-1.4-1.3-3.1-2-4.7-2.8c-0.8-0.4-1.7-0.8-2.6-0.9
		c-0.6-0.1-0.6-0.1-0.6-0.8c0-1.5,0-3-0.2-4.4c-0.2-1.7-0.9-2.3-2.6-2.6c-0.4-0.1-0.6-0.2-0.6-0.6c0-0.3,0-0.6,0-0.8
		c0-3.4,0.1-6.7-0.3-10.1c-0.1-0.7-0.1-1.4-0.1-2.2c0-0.4,0.1-0.6,0.5-0.7c0.6-0.1,1.1-0.2,1.7-0.3c1.3-0.3,2.7-0.5,3.8-1.3
		c0.7-0.4,1.5-0.8,2.2-1.2c0.5-0.3,0.8-0.6,0.7-1.2c-0.2-1.7-0.3-3.5-0.6-5.2c-0.4-2.1-0.9-4.2-1.3-6.3c-1.2-6.3-2.4-12.5-4.4-18.6
		c-0.2-0.6-0.2-0.8-0.1-1c-0.3-0.4-0.6-0.7-0.9-1.1c-0.1,0-0.1,0.1-0.2,0.1c-2.3,1.1-4.8,2-7.2,2.9c-1.5,0.6-3,1.2-4.6,1.4
		c-2.3,0.3-4.7,0.9-7,1c-2.7,0.1-5.4,0.2-8.1-0.4c-1.3-0.3-2.7-0.4-4-0.7c-2.3-0.7-4.5-1.4-6.7-2.2c-1.5-0.6-3-1.3-4.5-2
		c-0.1,0.1-0.3,0.2-0.4,0.3c-0.1,0-0.1,0.1-0.2,0.1c-0.1,0.1-0.2,0.2-0.2,0.3c-0.1,0.1-0.1,0.3-0.2,0.4c0.2,0.3,0.1,0.6-0.2,1.4
		c-1.5,4.8-2.7,9.7-3.6,14.6c-0.6,2.9-1.1,5.9-1.7,8.8c-0.5,2.1-0.6,4.2-0.9,6.3c-0.1,0.8,0.1,1,0.9,1.4c0.4,0.2,0.9,0.4,1.3,0.7
		c1.4,1,2.9,1.4,4.6,1.7c0.6,0.1,1.1,0.2,1.7,0.3c0.5,0,0.6,0.3,0.6,0.8c-0.4,3.9-0.4,7.7-0.4,11.6c0,0.4,0,0.8,0,1.2
		c0,0.5-0.1,0.8-0.7,0.7c-0.2,0-0.5,0-0.7,0.1c-0.9,0.4-1.7,1-1.7,2.1c-0.1,1.6-0.2,3.3-0.2,4.9c0,0.5-0.2,0.7-0.6,0.8
		c-0.7,0.2-1.5,0.3-2.2,0.6c-0.8,0.3-1.6,0.8-2.4,1.2c-2.9,1.5-5.1,3.8-7,6.5c-0.4,0.6-0.8,1.3-1.1,2c-1,2.2-1.1,4.6-0.9,6.9
		c0.1,1.2,0.6,2.3,1.5,3.2c1.9,1.9,4.3,3,6.8,3.6c3.4,0.8,6.9,0.9,10.3,0.1c3.3-0.8,6.6-1.7,9.5-3.6c1-0.7,2.1-1.4,3.1-2.1
		c1.5-1.1,2.5-2.6,2.7-4.5c0-0.2,0.1-0.5,0.1-0.7c0.3-3.2,0.3-6.4-1.1-9.4c-0.4-1-0.9-1.9-1.4-2.9c-0.2-0.4-0.4-0.9-0.2-1.4
		c0.4-1.4,0.5-2.7,0.5-4.2c0-1.7-0.9-2.8-2.3-3.4c-0.7-0.3-1.4-0.4-2.1-0.5c-0.8-0.1-0.8-0.1-0.9-0.8c-0.1-1.1-0.2-2.2-0.2-3.2
		c0-2.7,0-5.4,0-8.2c0-0.5,0.2-0.7,0.6-0.6c0.3,0,0.6,0,0.8,0c1.4,0,2.7,0,4.1-0.1c0.7,0,1.4-0.2,2.1-0.4c0.8-0.2,1.2-0.7,1.3-1.5
		c0.1-1.3,0.3-2.5,0.5-3.8c0.7-4.2,1.2-8.4,1.4-12.6c0-0.3,0.1-0.5,0.2-0.8l0.2,0c0.1,0.4,0.1,0.8,0.2,1.1c0.2,2.3,0.3,4.5,0.6,6.8
		c0.3,2.9,0.8,5.7,1.2,8.5c0.3,1.8,0.7,2.3,2.5,2.6c0.4,0.1,0.7,0.1,1.1,0.1c1.1,0,2.2,0,3.4,0c0.6,0,1.3,0.1,1.9,0.1
		c0.1,0.6,0.1,1.2,0.2,1.9c0,0.1,0,0.2,0,0.2c0,3.2,0.1,6.5-0.2,9.7c-0.1,0.8-0.1,0.9-1,1c-0.5,0-1.1,0.1-1.6,0.3
		c-1.4,0.5-2.5,1.4-2.6,3c-0.1,1.1-0.2,2.3,0.1,3.3c0.5,1.6,0.2,3-0.7,4.3c-0.1,0.2-0.2,0.3-0.3,0.5c-0.4,1.2-1.1,2.4-1.3,3.7
		c-0.5,2.4-0.5,4.8-0.1,7.3c0.3,1.9,1.2,3.4,2.8,4.6c0.5,0.4,1,0.6,1.5,1c2.6,1.9,5.4,3.1,8.5,4c3.7,1,7.4,1.5,11.1,0.8
		c3-0.5,5.7-1.5,8-3.5c1.3-1.2,2-2.6,2-4.3c0-0.6,0-1.2,0-1.8C99.1,234,98.4,232.1,97.4,230.2z M93,227c0.1,0.1,0.2,0.3,0.1,0.4
		c-0.1,0.1-0.3,0.3-0.5,0.3c-0.6,0-1.2,0-1.8-0.1c-2.3-0.3-4.3,0.3-6.1,1.9c-0.5,0.4-0.9,0.8-1.4,1.1c-0.7,0.6-1.6,0.8-2.5,1
		c-1.2,0.2-2.1-0.2-2.7-1.3c-0.5-0.8-0.5-0.8,0.2-1.3c0.8-0.5,1.6-1,2.5-1.4c0.9-0.4,1.8-0.7,2.6-1.1c1.9-0.8,3.8-1.1,6.5-1.3
		C90.9,225,92,225.9,93,227z M84.9,222.4c1.5,0.3,2.8,0.9,4.3,1.8c-4.6,0.1-8.4,2-12.1,4.2c-0.5-1.1-1-2.1-1.6-3.3
		c1.1-0.1,2.1-0.1,3-0.2c2-0.4,3.9-1,5.5-2.3C84.2,222.4,84.5,222.3,84.9,222.4z M81.1,165.2c0.1,0,0.2-0.1,0.3-0.1
		c1.2-0.4,1.2-0.8,1.6,0.8c1.2,4.4,2.3,8.8,3.2,13.2c0.6,3.2,1.1,6.4,1.9,9.5c0.4,2,0.8,3.9,0.9,5.9c0,0.7-0.1,1.1-0.8,1.3
		c-0.5,0.2-1,0.5-1.6,0.9c-0.1-0.4-0.1-0.6-0.1-0.9c-0.2-2.3-0.2-4.6-0.5-6.9c-0.3-2.6-0.6-5.2-1-7.8c-0.7-4.7-1.9-9.2-3.6-13.6
		c-0.2-0.5-0.4-1-0.6-1.4C80.5,165.6,80.7,165.4,81.1,165.2z M37.1,196.7c-0.8-0.4-1.5-0.8-2.1-1.1c-0.4-0.2-0.4-0.5-0.4-0.8
		c0.1-1.4,0.2-2.8,0.4-4.2c0.6-3.5,1.4-6.9,2.1-10.4c0.9-4.8,2.1-9.5,3.4-14.2c0.5-1.7,0.2-1.6,1.9-0.9c0.6,0.3,0.6,0.3,0.4,1
		c-1.3,3.1-2.3,6.3-3,9.6c-0.6,3-1.1,6-1.6,8.9c-0.6,3.6-0.8,7.2-1,10.8C37.2,195.8,37.1,196.2,37.1,196.7z M39,222.4
		c0.2,0,0.4,0.1,0.6,0.2c2.2,1.6,4.6,2.5,7.4,2.5c0.3,0,0.7,0,1.2,0.1c-0.6,1.2-1.1,2.3-1.7,3.3c-3.7-2.2-7.4-4.1-12.1-4.2
		C36,223.3,37.4,222.7,39,222.4z M30.6,227.1c1-1.2,2.1-2.1,3.8-1.9c1.5,0.1,3,0.3,4.4,0.8c1.5,0.6,3,1.2,4.5,1.8
		c0.4,0.2,0.8,0.4,1.2,0.7c0.5,0.3,1.2,0.6,1.1,1.2c0,0.7-1.3,1.8-2,1.9c-1.2,0.1-2.4-0.2-3.4-0.9c-0.5-0.4-1-0.8-1.5-1.2
		c-1.8-1.6-3.8-2.3-6.2-1.9c-0.6,0.1-1.2,0.1-1.8,0.1C30.5,227.7,30.3,227.4,30.6,227.1z M54.9,238.8c-1.1,0.7-2.1,1.4-3.2,2.1
		c-2.8,1.8-5.9,2.6-9,3.4c-3.2,0.8-6.4,0.6-9.5-0.2c-2.2-0.5-4.4-1.3-6-3.1c-0.4-0.4-0.8-0.9-1-1.5c-0.6-1.3-0.5-1.5,0.6-2.3
		c2.4-1.7,5-1.8,7.6-0.9c0.9,0.3,1.6,0.9,2.1,1.7c0.6,0.9,1.3,1.7,2,2.5c0.4,0.5,0.9,0.7,1.5,0.8c3,0.5,5.9-0.2,8.6-1.5
		c1.5-0.8,3.1-1.5,4.6-2.3c1.3-0.8,2.5-1.7,3.9-2.6C56.8,236.7,56.1,237.9,54.9,238.8z M56.5,226.9c0.6,1.8,0.8,3.5,0.8,5.3
		c0,0.7-0.7,1-1.1,1.5c-0.1-0.5-0.1-0.9-0.2-1.4c-0.1-1.1-0.2-2.3-0.4-3.4C55.5,228.1,55.7,227.5,56.5,226.9z M55.2,224.1
		c0.8,1.4,0.8,1.4,0.1,2C55.2,225.5,55.2,224.9,55.2,224.1z M55.2,233.3c0.3,1.5,0.3,1.5-1.3,2.3c-0.2-2,0-3.8,0.8-5.8
		c0.2,1.2,0.3,2.1,0.5,3C55.2,233,55.2,233.2,55.2,233.3z M54.8,218.3c-0.1-0.5-0.2-0.9-0.3-1.4c-0.1-0.5-0.1-0.9-0.2-1.6
		C55.2,216.3,54.8,217.3,54.8,218.3z M54.2,224.7c0.2,1.7,0.2,3.4-0.6,5.1c-0.7,1.6-0.8,3.3-0.8,5.1c0,0.4,0,0.7,0,1.1
		c0,0.4-0.2,0.7-0.5,0.9c-0.3,0.2-0.5,0.3-0.8,0.5c-1.7,0.8-3.3,1.5-5,2.3c-2,0.9-4.1,1-6.2,0.8c-0.3,0-0.7-0.3-0.9-0.5
		c-0.6-0.6-1.2-1.3-1.7-2c-1.4-2.1-3.5-3-5.9-3.1c-2-0.1-3.8,0.4-5.5,1.5c-0.1,0.1-0.3,0.1-0.4,0.2c-0.4-2.4,1.3-6.2,3.7-8.3
		c0.9,0.7,1.9,0.7,2.9,0.5c2.2-0.3,4,0.3,5.6,1.8c0.5,0.5,1.1,0.9,1.6,1.3c1.3,0.9,2.7,1.2,4.2,1.1c0.9-0.1,1.6-0.6,2.1-1.3
		c0.4-0.6,0.8-1.2,1.2-1.8c0.6-1.2,1.1-2.4,1.8-3.5c0.3-0.5,0-1.1,0.5-1.4c0.5-0.2,1-0.2,1.5-0.3c1-0.3,2-0.6,3-1
		C54.1,223.9,54.2,224.3,54.2,224.7z M51.2,216.7c-0.1-0.6-0.1-1.2-0.1-1.8c0-0.7,0-0.8,0.7-0.7c0.3,0,0.5,0.1,0.8,0.1
		c0.6,0.1,0.9,0.4,1,1c0.1,2,0.3,4.1,0.4,6.1c0,0.5-0.2,0.8-0.7,1c-0.6,0.3-1.2,0.6-1.8,0.7c-1.4,0.3-2.7,0.6-4.1,0.8
		c-2.4,0.3-4.5-0.6-6.5-1.7c-0.9-0.5-1.3-1.3-1.3-2.3c0-0.4,0-0.7,0-1.1c0,0,0,0-0.1,0c0.1-0.9,0.2-1.7,0.2-2.6
		c0-0.7,0.4-1.1,0.9-1.4c0.8-0.4,1.4-0.3,1.4,0.6c0,0,0,0.1,0,0.1c0.3,2.3,1.6,3.5,3.9,3.6c1.5,0.1,2.9-0.2,4.2-1
		C50.9,217.9,51.2,217.4,51.2,216.7z M43.1,200c0-0.3,0.1-0.5,0.4-0.4c1.8,0.4,3.6,0.5,5.4,0.5c0.6,0,0.6,0.1,0.6,0.8
		c0,2.2-0.1,4.3-0.1,6.5c0,2,0.2,4.1,0.4,6.1c0.1,1.1,0.1,2.2,0.2,3.2c0,0.4-0.2,0.6-0.5,0.8c-1.5,0.8-3.1,1-4.7,0.4
		c-0.9-0.4-1.5-1-1.6-2.1c-0.1-2.4-0.3-4.9-0.4-6.7c0.1-2.7,0.3-4.9,0.3-7.1C43.2,201.2,43.1,200.6,43.1,200z M72.3,198.8
		c0,0,0-0.1,0-0.1c-1.1,0-2.2,0-3.2,0c-0.5,0-1,0-1.4,0c-2-0.1-2.3-0.4-2.5-2.3c-0.3-2.5-0.8-5.1-1.1-7.6c-0.3-2.1-0.4-4.1-0.6-6.2
		c-0.1-0.6-0.1-1.3-0.1-1.9c0.6-0.1,1.2-0.1,1.9-0.2c0.1,0,0.3,0,0.3-0.1c0.1-0.1,0.3-0.2,0.3-0.3c0-0.2-0.2-0.3-0.3-0.4
		c-0.1-0.1-0.2-0.1-0.3-0.1c-1.4,0-2.7-0.1-4.1-0.1c-0.8,0-1.5,0-2.3,0.1c-0.4,0-0.8,0-0.9,0.4c-0.1,0.3,0.3,0.5,0.9,0.5
		c0.5,0,1,0.1,1.5,0.1c0,0.5,0,1-0.1,1.5c-0.3,3.9-0.7,7.8-1.4,11.6c-0.2,1.2-0.4,2.4-0.5,3.7c-0.1,0.6-0.4,1-1,1.1
		c-0.6,0.1-1.2,0.2-1.8,0.2c-3,0-6,0.2-9,0c-2.6-0.2-5.2-0.8-7.8-1.3c-0.8-0.1-0.8-0.2-0.7-1c0.1-1.4,0.2-2.9,0.3-4.3
		c0.1-2.5,0.3-5,0.8-7.5c0.5-3.1,1-6.2,1.7-9.3c0.7-3,1.7-5.9,2.6-8.8c0.2-0.6,0.3-0.6,0.9-0.4c1.8,0.7,3.6,1.4,5.4,2
		c1.7,0.5,3.4,0.9,5.1,1.1c2.2,0.3,4.4,0.7,6.5,0.7c2.3,0,4.7-0.4,7-0.7c3.7-0.4,7-1.7,10.4-3c0.2-0.1,0.4-0.2,0.5-0.2
		c0.3-0.1,0.5,0,0.6,0.3c0.2,0.5,0.3,1,0.5,1.5c1.3,3.8,2.4,7.6,3.1,11.6c0.7,4.2,1.5,8.4,1.6,12.7c0,1.6,0.2,3.1,0.3,4.7
		c0,0.5-0.1,0.7-0.5,0.7c-0.4,0.1-0.9,0.2-1.3,0.3c-1.7,0.3-3.4,0.7-5.1,0.9C76.5,198.7,74.4,198.7,72.3,198.8z M74.1,201.8
		c0-0.2,0-0.3,0-0.5c-0.1-1.2-0.1-1.2,1.2-1.3c1.5-0.1,3.1-0.3,4.6-0.4c0.1,0,0.3,0,0.4,0c0.2,4.7,0.4,9.4,0.2,14
		c0,0.8-0.2,1.6-0.3,2.4c-0.1,0.7-0.5,1.2-1.1,1.5c-1.4,0.9-3.9,0.8-5.3-0.2c-0.3-0.2-0.4-0.5-0.4-0.8c0.2-2.4,0.4-4.9,0.5-7.3
		C74.2,206.7,74.1,204.2,74.1,201.8z M70,215.5c0.1-1.1,0.2-1.1,1.2-1.3c0.2,0,0.4-0.1,0.6-0.1c0.6,0,0.7,0.1,0.7,0.7
		c0,0.6-0.1,1.3-0.1,1.9c0,0.6,0.2,1.1,0.7,1.4c1.7,1,3.6,1.4,5.5,0.8c1.6-0.5,2.6-1.5,2.7-3.2c0-0.1,0-0.2,0-0.2
		c0.1-1,0.6-1.2,1.5-0.6c0.5,0.3,0.8,0.7,0.9,1.4c0.1,0.9,0.2,1.7,0.2,2.3c-0.1,1.1,0.2,1.9-0.4,2.6c-0.3,0.4-0.6,0.9-1,1.1
		c-1.9,1-3.9,1.8-6,1.6c-2-0.2-4-0.4-5.9-1.3c-0.7-0.3-1.1-0.7-1-1.5C69.8,219.2,69.8,217.4,70,215.5z M69.3,215.3
		c-0.2,1.1-0.3,2-0.5,3C68.8,217.3,68.4,216.2,69.3,215.3z M69,230.1c0.7,1.8,0.9,3.6,0.7,5.6c-0.4-0.2-0.6-0.3-0.9-0.5
		c-0.7-0.5-0.8-0.6-0.5-1.5C68.6,232.6,68.7,231.3,69,230.1z M68.3,224.3v2C67.5,225.4,67.5,225.3,68.3,224.3z M67.1,226.9
		c0.5,0.4,0.9,0.8,0.9,1.5c-0.2,1.8-0.4,3.5-0.6,5.4c-0.8-0.6-1.2-1.3-1.1-2.2C66.4,229.7,66.6,228.2,67.1,226.9z M97.5,239.5
		c-0.6,1.6-2,2.6-3.4,3.4c-3.4,1.8-7.2,2.2-11,1.9c-1.1-0.1-2.3-0.4-3.4-0.7c-2.6-0.6-5.2-1.4-7.6-2.9c-1.2-0.8-2.5-1.6-3.7-2.5
		c-1.2-0.9-1.8-2.1-2-3.6c1.4,1,2.8,2,4.2,2.8c2.3,1.2,4.7,2.3,7.1,3.2c2,0.8,4.2,0.6,6.3,0.3c0.3,0,0.7-0.4,1-0.7
		c0.7-0.7,1.3-1.5,1.9-2.3c0.9-1.4,2.2-2.2,3.8-2.4c2.3-0.3,4.4-0.1,6.2,1.4C97.9,238.2,98,238.4,97.5,239.5z M97.7,236.5
		c-0.3-0.1-0.4-0.2-0.6-0.3c-2.3-1.4-4.8-1.7-7.4-1.1c-1.5,0.4-2.7,1.2-3.7,2.5c-0.6,0.8-1.2,1.5-1.8,2.3c-0.3,0.4-0.7,0.6-1.2,0.6
		c-2.4,0.2-4.8-0.1-7-1.2c-1.5-0.7-2.9-1.4-4.4-2.1c-0.7-0.3-1-0.8-0.9-1.6c0.1-2,0-4-0.8-5.9c-0.6-1.5-0.9-2.9-0.6-4.4
		c0.1-0.5,0.1-1.1,0.1-1.8c0.5,0.2,1,0.4,1.4,0.5c0.9,0.3,1.8,0.5,2.8,0.7c0.4,0.1,0.7,0.2,0.7,0.7c0,0.2,0.1,0.5,0.2,0.7
		c0.8,1.6,1.6,3.2,2.5,4.8c1.2,2,2.4,2.2,4.5,1.8c1.1-0.2,2-0.7,2.9-1.4c0.8-0.7,1.7-1.3,2.6-1.9c1.1-0.7,2.3-0.8,3.6-0.7
		c0.6,0,1.1,0.1,1.7,0.1c0.3,0,0.7,0,0.9-0.2c0.7-0.5,1.2-0.2,1.6,0.4c1.8,2,2.7,4.3,3,6.9C97.8,236,97.8,236.2,97.7,236.5z"/>
</g>
<g id="PiernaDer">
	<path id="PiernaDer_x5F_color" class="st9" d="M42.8,208.9c0.1-2.7,0.3-4.9,0.3-7.1c0-0.6,0-1.2-0.1-1.8c0-0.3,0.1-0.5,0.4-0.4
		c1.8,0.4,3.6,0.5,5.4,0.5c0.6,0,0.6,0.1,0.6,0.8c0,2.2-0.1,4.3-0.1,6.5c0,2,0.2,4.1,0.4,6.1c0.1,1.1,0.1,2.2,0.2,3.2
		c0,0.4-0.2,0.6-0.5,0.8c-1.5,0.8-3.1,1-4.7,0.4c-0.9-0.4-1.5-1-1.6-2.1C43.1,213.2,42.9,210.8,42.8,208.9"/>
	<g id="TenisColor">
		<path class="st5" d="M25.9,236.4c-0.4-2.4,1.3-6.2,3.7-8.3c0.9,0.7,1.9,0.7,2.9,0.5c2.2-0.3,4,0.3,5.6,1.8
			c0.5,0.5,1.1,0.9,1.6,1.3c1.3,0.9,2.7,1.2,4.2,1.1c0.9-0.1,1.6-0.6,2.1-1.3c0.4-0.6,0.8-1.2,1.2-1.8c0.6-1.2,1.1-2.4,1.8-3.5
			c0.3-0.5,0-1.1,0.5-1.4c0.5-0.2,1-0.2,1.5-0.3c1-0.3,2-0.6,3-1c0,0.4,0.1,0.8,0.1,1.2c0.2,1.7,0.2,3.4-0.6,5.1
			c-0.7,1.5-0.8,3.3-0.8,5.1c0,0.4,0,0.7,0,1.1c0,0.4-0.2,0.7-0.5,0.9c-0.3,0.2-0.5,0.3-0.8,0.5c-1.7,0.8-3.3,1.5-5,2.3
			c-2,0.9-4.1,1-6.2,0.8c-0.3,0-0.7-0.3-0.9-0.5c-0.6-0.6-1.2-1.3-1.7-2c-1.4-2.1-3.5-3-5.9-3.1c-2-0.1-3.8,0.4-5.5,1.5
			C26.2,236.3,26.1,236.4,25.9,236.4"/>
		<path class="st6" d="M34.4,225.2c1.5,0.1,3,0.3,4.4,0.8c1.5,0.6,3,1.2,4.5,1.8c0.4,0.2,0.8,0.4,1.2,0.7c0.5,0.3,1.2,0.6,1.1,1.2
			c0,0.7-1.3,1.8-2,1.9c-1.2,0.1-2.4-0.2-3.4-0.9c-0.5-0.4-1-0.8-1.5-1.2c-1.8-1.6-3.8-2.3-6.2-1.9c-0.6,0.1-1.2,0.1-1.8,0.1
			c-0.4,0-0.6-0.3-0.3-0.6C31.6,225.9,32.7,224.9,34.4,225.2"/>
		<path class="st7" d="M48.1,225.1c-0.6,1.2-1.1,2.3-1.7,3.3c-3.7-2.2-7.4-4.1-12.1-4.2c1.5-1,3-1.6,4.6-1.9c0.2,0,0.4,0.1,0.6,0.2
			c2.2,1.6,4.6,2.5,7.4,2.5C47.3,225.1,47.6,225.1,48.1,225.1"/>
		<path class="st6" d="M55.2,224.1c0.8,1.4,0.8,1.4,0.1,2C55.2,225.5,55.2,224.9,55.2,224.1"/>
		<path class="st6" d="M56.5,226.9c0.6,1.8,0.8,3.5,0.8,5.3c0,0.7-0.7,1-1.1,1.5c-0.1-0.5-0.1-0.9-0.2-1.4c-0.1-1.1-0.2-2.3-0.4-3.4
			C55.5,228.1,55.7,227.5,56.5,226.9"/>
		<path class="st6" d="M53.9,235.7c-0.2-2,0-3.8,0.8-5.8c0.2,1.2,0.3,2.1,0.5,3c0,0.2,0,0.3,0.1,0.5
			C55.5,234.8,55.5,234.8,53.9,235.7"/>
		<path class="st7" d="M57.1,235.1c-0.2,1.6-0.9,2.9-2.2,3.7c-1.1,0.7-2.1,1.4-3.2,2.1c-2.8,1.8-5.9,2.6-9,3.4
			c-3.2,0.8-6.4,0.6-9.5-0.2c-2.2-0.5-4.4-1.3-6-3.1c-0.4-0.4-0.8-0.9-1-1.5c-0.6-1.3-0.5-1.5,0.6-2.3c2.4-1.7,5-1.8,7.6-0.9
			c0.9,0.3,1.6,0.9,2.1,1.7c0.6,0.9,1.3,1.7,2,2.5c0.4,0.5,0.9,0.7,1.5,0.8c3,0.5,5.9-0.2,8.6-1.5c1.5-0.8,3.1-1.5,4.6-2.3
			C54.5,236.9,55.7,236,57.1,235.1"/>
		<path class="st7" d="M61.9,131.5c-0.5-0.6-0.8-1.1-1.2-1.5c-1.8-2.3-3.7-4.6-5.5-7c-1.1-1.4-2-3-3-4.4c-0.1-0.2-0.2-0.4-0.3-0.5
			c-0.5-1.1-0.5-1.1,0.6-1.6c0.4-0.2,0.9-0.5,1.3-0.6c0.4-0.1,0.9-0.1,1.4-0.1c0.2,0,0.4,0.2,0.5,0.4c0.3,0.6,0.5,1.3,0.8,1.8
			c1.3,2.1,2.3,4.5,4,6.4c0.2,0.2,0.4,0.5,0.6,0.7c0.6,0.5,0.9,0.6,1.4,0c0.9-1,1.7-2.1,2.5-3.2c0.9-1.4,1.6-2.8,2.4-4.3
			c0.2-0.4,0.4-0.8,0.5-1.2c0.1-0.4,0.3-0.7,0.7-0.6c0.5,0,1.1,0.1,1.5,0.3c2.3,1,2.3,0.6,1.1,3c-0.7,1.3-1.5,2.4-2.4,3.6
			c-2.2,2.9-4.4,5.7-6.6,8.5C62.1,131.1,62,131.3,61.9,131.5"/>
		<path class="st7" d="M39.6,218.8c0.1-0.9,0.2-1.7,0.2-2.6c0-0.7,0.4-1.1,0.9-1.4c0.8-0.4,1.4-0.3,1.4,0.6c0,0,0,0.1,0,0.1
			c0.3,2.3,1.6,3.5,3.9,3.6c1.5,0.1,2.9-0.2,4.2-1c0.6-0.4,0.9-0.8,0.9-1.6c-0.1-0.6-0.1-1.2-0.1-1.8c0-0.7,0-0.8,0.7-0.7
			c0.3,0,0.5,0.1,0.8,0.1c0.6,0.1,0.9,0.4,1,1c0.1,2,0.3,4.1,0.4,6.1c0,0.5-0.2,0.8-0.7,1c-0.6,0.3-1.2,0.6-1.8,0.7
			c-1.4,0.3-2.7,0.6-4.1,0.8c-2.4,0.3-4.5-0.6-6.5-1.7c-0.9-0.5-1.3-1.3-1.3-2.3C39.6,219.5,39.7,219.2,39.6,218.8
			C39.6,218.8,39.6,218.8,39.6,218.8"/>
		<path class="st7" d="M54.3,215.3c0.9,1,0.5,2,0.5,3c-0.1-0.5-0.2-0.9-0.3-1.4C54.4,216.4,54.4,216,54.3,215.3"/>
	</g>
	<path class="st10" d="M55.9,222.3c-0.2-0.4-0.4-0.9-0.2-1.4c0.4-1.4,0.5-2.7,0.5-4.2c0-1.7-0.9-2.8-2.3-3.4
		c-0.7-0.3-1.4-0.4-2.1-0.5c-0.8-0.1-0.8-0.1-0.9-0.8c-0.1-1.1-0.2-2.2-0.2-3.2c0-2.7,0-5.4,0-8.2c0-0.3,0-0.4,0.1-0.7
		c-0.1-0.5-0.2-0.8-0.3-1.2c-1.3,0-2.6,0-3.9-0.1c-1.3-0.1-2.5-0.3-3.8-0.5c-0.1,0.1-0.2,0.3-0.3,0.4c-0.1,0.4-0.2,1.3-0.3,1.5
		c-0.4,3.9-0.4,7.7-0.4,11.6c0,0.4,0,0.8,0,1.2c0,0.5-0.1,0.8-0.7,0.7c-0.2,0-0.5,0-0.7,0.1c-0.9,0.4-1.7,1-1.7,2.1
		c-0.1,1.6-0.2,3.3-0.2,4.9c0,0.5-0.2,0.7-0.6,0.8c-0.7,0.2-1.5,0.3-2.2,0.6c-0.8,0.3-1.6,0.8-2.4,1.2c-2.9,1.5-5.1,3.8-7,6.5
		c-0.4,0.6-0.8,1.3-1.1,2c-1,2.2-1.1,4.6-0.9,6.9c0.1,1.2,0.6,2.3,1.5,3.2c1.9,1.9,4.3,3,6.8,3.6c3.4,0.8,6.9,0.9,10.3,0.1
		c3.3-0.8,6.6-1.7,9.5-3.6c1-0.7,2.1-1.4,3.1-2.1c1.5-1.1,2.5-2.6,2.7-4.5c0-0.2,0.1-0.5,0.1-0.7c0.3-3.2,0.3-6.4-1.1-9.4
		C56.9,224.2,56.4,223.3,55.9,222.3z M55.2,224.1c0.8,1.4,0.8,1.4,0.1,2C55.2,225.5,55.2,224.9,55.2,224.1z M55.2,233.3
		c0.3,1.5,0.3,1.5-1.3,2.3c-0.2-2,0-3.8,0.8-5.8c0.2,1.2,0.3,2.1,0.5,3C55.2,233,55.2,233.2,55.2,233.3z M54.8,218.3
		c-0.1-0.5-0.2-0.9-0.3-1.4c-0.1-0.5-0.1-0.9-0.2-1.6C55.2,216.3,54.8,217.3,54.8,218.3z M43.2,201.8c0-0.6,0-1.2-0.1-1.8
		c0-0.3,0.1-0.5,0.4-0.4c1.8,0.4,3.6,0.5,5.4,0.5c0.6,0,0.6,0.1,0.6,0.8c0,2.2-0.1,4.3-0.1,6.5c0,2,0.2,4.1,0.4,6.1
		c0.1,1.1,0.1,2.2,0.2,3.2c0,0.4-0.2,0.6-0.5,0.8c-1.5,0.8-3.1,1-4.7,0.4c-0.9-0.4-1.5-1-1.6-2.1c-0.1-2.4-0.3-4.9-0.4-6.7
		C42.9,206.1,43.1,203.9,43.2,201.8z M39.8,216.2c0-0.7,0.4-1.1,0.9-1.4c0.8-0.4,1.4-0.3,1.4,0.6c0,0,0,0.1,0,0.1
		c0.3,2.3,1.6,3.5,3.9,3.6c1.5,0.1,2.9-0.2,4.2-1c0.6-0.4,0.9-0.8,0.9-1.6c-0.1-0.6-0.1-1.2-0.1-1.8c0-0.7,0-0.8,0.7-0.7
		c0.3,0,0.5,0.1,0.8,0.1c0.6,0.1,0.9,0.4,1,1c0.1,2,0.3,4.1,0.4,6.1c0,0.5-0.2,0.8-0.7,1c-0.6,0.3-1.2,0.6-1.8,0.7
		c-1.4,0.3-2.7,0.6-4.1,0.8c-2.4,0.3-4.5-0.6-6.5-1.7c-0.9-0.5-1.3-1.3-1.3-2.3c0-0.4,0-0.7,0-1.1c0,0,0,0-0.1,0
		C39.7,217.9,39.8,217.1,39.8,216.2z M39,222.4c0.2,0,0.4,0.1,0.6,0.2c2.2,1.6,4.6,2.5,7.4,2.5c0.3,0,0.7,0,1.2,0.1
		c-0.6,1.2-1.1,2.3-1.7,3.3c-3.7-2.2-7.4-4.1-12.1-4.2C36,223.3,37.4,222.7,39,222.4z M30.6,227.1c1-1.2,2.1-2.1,3.8-1.9
		c1.5,0.1,3,0.3,4.4,0.8c1.5,0.6,3,1.2,4.5,1.8c0.4,0.2,0.8,0.4,1.2,0.7c0.5,0.3,1.2,0.6,1.1,1.2c0,0.7-1.3,1.8-2,1.9
		c-1.2,0.1-2.4-0.2-3.4-0.9c-0.5-0.4-1-0.8-1.5-1.2c-1.8-1.6-3.8-2.3-6.2-1.9c-0.6,0.1-1.2,0.1-1.8,0.1
		C30.5,227.7,30.3,227.4,30.6,227.1z M29.6,228.1c0.9,0.7,1.9,0.7,2.9,0.5c2.2-0.3,4,0.3,5.6,1.8c0.5,0.5,1.1,0.9,1.6,1.3
		c1.3,0.9,2.7,1.2,4.2,1.1c0.9-0.1,1.6-0.6,2.1-1.3c0.4-0.6,0.8-1.2,1.2-1.8c0.6-1.2,1.1-2.4,1.8-3.5c0.3-0.5,0-1.1,0.5-1.4
		c0.5-0.2,1-0.2,1.5-0.3c1-0.3,2-0.6,3-1c0,0.4,0.1,0.8,0.1,1.2c0.2,1.7,0.2,3.4-0.6,5.1c-0.7,1.6-0.8,3.3-0.8,5.1
		c0,0.4,0,0.7,0,1.1c0,0.4-0.2,0.7-0.5,0.9c-0.3,0.2-0.5,0.3-0.8,0.5c-1.7,0.8-3.3,1.5-5,2.3c-2,0.9-4.1,1-6.2,0.8
		c-0.3,0-0.7-0.3-0.9-0.5c-0.6-0.6-1.2-1.3-1.7-2c-1.4-2.1-3.5-3-5.9-3.1c-2-0.1-3.8,0.4-5.5,1.5c-0.1,0.1-0.3,0.1-0.4,0.2
		C25.5,234,27.2,230.2,29.6,228.1z M54.9,238.8c-1.1,0.7-2.1,1.4-3.2,2.1c-2.8,1.8-5.9,2.6-9,3.4c-3.2,0.8-6.4,0.6-9.5-0.2
		c-2.2-0.5-4.4-1.3-6-3.1c-0.4-0.4-0.8-0.9-1-1.5c-0.6-1.3-0.5-1.5,0.6-2.3c2.4-1.7,5-1.8,7.6-0.9c0.9,0.3,1.6,0.9,2.1,1.7
		c0.6,0.9,1.3,1.7,2,2.5c0.4,0.5,0.9,0.7,1.5,0.8c3,0.5,5.9-0.2,8.6-1.5c1.5-0.8,3.1-1.5,4.6-2.3c1.3-0.8,2.5-1.7,3.9-2.6
		C56.8,236.7,56.1,237.9,54.9,238.8z M56.2,233.7c-0.1-0.5-0.1-0.9-0.2-1.4c-0.1-1.1-0.2-2.3-0.4-3.4c-0.1-0.9,0.1-1.5,0.9-2
		c0.6,1.8,0.8,3.5,0.8,5.3C57.3,233,56.6,233.2,56.2,233.7z"/>
</g>
<g id="PiernaIzq">
	<path id="PiernaDer_x5F_color_1_" class="st9" d="M80.7,208.9c-0.1-2.7-0.3-4.9-0.3-7.1c0-0.6,0-1.2,0.1-1.8c0-0.3-0.1-0.5-0.4-0.4
		c-1.8,0.4-3.6,0.5-5.4,0.5c-0.6,0-0.6,0.1-0.6,0.8c0,2.2,0.1,4.3,0.1,6.5c0,2-0.2,4.1-0.4,6.1c-0.1,1.1-0.1,2.2-0.2,3.2
		c0,0.4,0.2,0.6,0.5,0.8c1.5,0.8,3.1,1,4.7,0.4c0.9-0.4,1.5-1,1.6-2.1C80.4,213.2,80.5,210.8,80.7,208.9"/>
	<g id="TenisColor_1_">
		<path class="st5" d="M97.6,236.4c0.4-2.4-1.3-6.2-3.7-8.3c-0.9,0.7-1.9,0.7-2.9,0.5c-2.2-0.3-4,0.3-5.6,1.8
			c-0.5,0.5-1.1,0.9-1.6,1.3c-1.3,0.9-2.7,1.2-4.2,1.1c-0.9-0.1-1.6-0.6-2.1-1.3c-0.4-0.6-0.8-1.2-1.2-1.8c-0.6-1.2-1.1-2.4-1.8-3.5
			c-0.3-0.5,0-1.1-0.5-1.4c-0.5-0.2-1-0.2-1.5-0.3c-1-0.3-2-0.6-3-1c0,0.4-0.1,0.8-0.1,1.2c-0.2,1.7-0.2,3.4,0.6,5.1
			c0.7,1.5,0.8,3.3,0.8,5.1c0,0.4,0,0.7,0,1.1c0,0.4,0.2,0.7,0.5,0.9c0.3,0.2,0.5,0.3,0.8,0.5c1.7,0.8,3.3,1.5,5,2.3
			c2,0.9,4.1,1,6.2,0.8c0.3,0,0.7-0.3,0.9-0.5c0.6-0.6,1.2-1.3,1.7-2c1.4-2.1,3.5-3,5.9-3.1c2-0.1,3.8,0.4,5.5,1.5
			C97.2,236.3,97.4,236.4,97.6,236.4"/>
		<path class="st6" d="M89.1,225.2c-1.5,0.1-3,0.3-4.4,0.8c-1.5,0.6-3,1.2-4.5,1.8c-0.4,0.2-0.8,0.4-1.2,0.7
			c-0.5,0.3-1.2,0.6-1.1,1.2c0,0.7,1.3,1.8,2,1.9c1.2,0.1,2.4-0.2,3.4-0.9c0.5-0.4,1-0.8,1.5-1.2c1.8-1.6,3.8-2.3,6.2-1.9
			c0.6,0.1,1.2,0.1,1.8,0.1c0.4,0,0.6-0.3,0.3-0.6C91.9,225.9,90.8,224.9,89.1,225.2"/>
		<path class="st7" d="M75.3,225.1c0.6,1.2,1.1,2.3,1.7,3.3c3.7-2.2,7.4-4.1,12.1-4.2c-1.5-1-3-1.6-4.6-1.9c-0.2,0-0.4,0.1-0.6,0.2
			c-2.2,1.6-4.6,2.5-7.4,2.5C76.2,225.1,75.8,225.1,75.3,225.1"/>
		<path class="st6" d="M68.2,224.1c-0.8,1.4-0.8,1.4-0.1,2C68.3,225.5,68.2,224.9,68.2,224.1"/>
		<path class="st6" d="M66.9,226.9c-0.6,1.8-0.8,3.5-0.8,5.3c0,0.7,0.7,1,1.1,1.5c0.1-0.5,0.1-0.9,0.2-1.4c0.1-1.1,0.2-2.3,0.4-3.4
			C68,228.1,67.7,227.5,66.9,226.9"/>
		<path class="st6" d="M69.6,235.7c0.2-2,0-3.8-0.8-5.8c-0.2,1.2-0.3,2.1-0.5,3c0,0.2,0,0.3-0.1,0.5C68,234.8,68,234.8,69.6,235.7"
			/>
		<path class="st7" d="M66.4,235.1c0.2,1.6,0.9,2.9,2.2,3.7c1.1,0.7,2.1,1.4,3.2,2.1c2.8,1.8,5.9,2.6,9,3.4c3.2,0.8,6.4,0.6,9.5-0.2
			c2.2-0.5,4.4-1.3,6-3.1c0.4-0.4,0.8-0.9,1-1.5c0.6-1.3,0.5-1.5-0.6-2.3c-2.4-1.7-5-1.8-7.6-0.9c-0.9,0.3-1.6,0.9-2.1,1.7
			c-0.6,0.9-1.3,1.7-2,2.5c-0.4,0.5-0.9,0.7-1.5,0.8c-3,0.5-5.9-0.2-8.6-1.5c-1.5-0.8-3.1-1.5-4.6-2.3C69,236.9,67.8,236,66.4,235.1
			"/>
		<path class="st7" d="M61.9,131.5c-0.5-0.6-0.8-1.1-1.2-1.5c-1.8-2.3-3.7-4.6-5.5-7c-1.1-1.4-2-3-3-4.4c-0.1-0.2-0.2-0.4-0.3-0.5
			c-0.5-1.1-0.5-1.1,0.6-1.6c0.4-0.2,0.9-0.5,1.3-0.6c0.4-0.1,0.9-0.1,1.4-0.1c0.2,0,0.4,0.2,0.5,0.4c0.3,0.6,0.5,1.3,0.8,1.8
			c1.3,2.1,2.3,4.5,4,6.4c0.2,0.2,0.4,0.5,0.6,0.7c0.6,0.5,0.9,0.6,1.4,0c0.9-1,1.7-2.1,2.5-3.2c0.9-1.4,1.6-2.8,2.4-4.3
			c0.2-0.4,0.4-0.8,0.5-1.2c0.1-0.4,0.3-0.7,0.7-0.6c0.5,0,1.1,0.1,1.5,0.3c2.3,1,2.3,0.6,1.1,3c-0.7,1.3-1.5,2.4-2.4,3.6
			c-2.2,2.9-4.4,5.7-6.6,8.5C62.1,131.1,62,131.3,61.9,131.5"/>
		<path class="st7" d="M83.9,218.8c-0.1-0.9-0.2-1.7-0.2-2.6c0-0.7-0.4-1.1-0.9-1.4c-0.8-0.4-1.4-0.3-1.4,0.6c0,0,0,0.1,0,0.1
			c-0.3,2.3-1.6,3.5-3.9,3.6c-1.5,0.1-2.9-0.2-4.2-1c-0.6-0.4-0.9-0.8-0.9-1.6c0.1-0.6,0.1-1.2,0.1-1.8c0-0.7,0-0.8-0.7-0.7
			c-0.3,0-0.5,0.1-0.8,0.1c-0.6,0.1-0.9,0.4-1,1c-0.1,2-0.3,4.1-0.4,6.1c0,0.5,0.2,0.8,0.7,1c0.6,0.3,1.2,0.6,1.8,0.7
			c1.4,0.3,2.7,0.6,4.1,0.8c2.4,0.3,4.5-0.6,6.5-1.7c0.9-0.5,1.3-1.3,1.3-2.3C83.8,219.5,83.8,219.2,83.9,218.8
			C83.8,218.8,83.8,218.8,83.9,218.8"/>
		<path class="st7" d="M69.2,215.3c-0.9,1-0.5,2-0.5,3c0.1-0.5,0.2-0.9,0.3-1.4C69,216.4,69.1,216,69.2,215.3"/>
	</g>
	<path id="PiernaIzq_x5F_linea_2_" class="st10" d="M66.1,225.2c-1.4,3-1.4,6.2-1.1,9.4c0,0.2,0.1,0.5,0.1,0.7
		c0.2,1.9,1.2,3.4,2.7,4.5c1,0.7,2,1.4,3.1,2.1c2.9,1.9,6.2,2.8,9.5,3.6c3.5,0.8,6.9,0.7,10.3-0.1c2.5-0.6,4.9-1.7,6.8-3.6
		c0.9-0.9,1.4-2,1.5-3.2c0.2-2.4,0.1-4.7-0.9-6.9c-0.3-0.7-0.6-1.4-1.1-2c-1.9-2.6-4.1-4.9-7-6.5c-0.8-0.4-1.6-0.8-2.4-1.2
		c-0.7-0.3-1.4-0.5-2.2-0.6c-0.5-0.1-0.6-0.2-0.6-0.8c0-1.6-0.1-3.3-0.2-4.9c-0.1-1.1-0.8-1.7-1.7-2.1c-0.2-0.1-0.5-0.1-0.7-0.1
		c-0.5,0-0.7-0.2-0.7-0.7c0-0.4,0-0.8,0-1.2c0-3.9,0.1-7.8-0.4-11.6c0-0.2-0.2-1.1-0.3-1.5c0-0.1-0.1-0.3-0.3-0.4
		c-1.3,0.2-2.5,0.4-3.8,0.5c-1.3,0.1-2.6,0.1-3.9,0.1c-0.1,0.5-0.1,0.7-0.3,1.2c0,0.2,0.1,0.4,0.1,0.7c0,2.7,0,5.4,0,8.2
		c0,1.1-0.1,2.2-0.2,3.2c-0.1,0.7-0.1,0.7-0.9,0.8c-0.7,0.1-1.4,0.2-2.1,0.5c-1.5,0.6-2.3,1.7-2.3,3.4c0,1.4,0,2.8,0.5,4.2
		c0.2,0.5,0,0.9-0.2,1.4C67,223.3,66.5,224.2,66.1,225.2z M68.1,226.1c-0.7-0.6-0.7-0.6,0.1-2C68.2,224.9,68.3,225.5,68.1,226.1z
		 M68.3,232.9c0.2-0.9,0.3-1.9,0.5-3c0.7,2,0.9,3.8,0.8,5.8c-1.6-0.8-1.6-0.8-1.3-2.3C68.3,233.2,68.3,233,68.3,232.9z M69.2,215.3
		c-0.1,0.7-0.1,1.2-0.2,1.6c-0.1,0.5-0.2,0.9-0.3,1.4C68.6,217.3,68.2,216.3,69.2,215.3z M80.7,208.9c-0.1,1.9-0.3,4.3-0.4,6.7
		c-0.1,1-0.6,1.7-1.6,2.1c-1.6,0.7-3.2,0.5-4.7-0.4c-0.3-0.2-0.5-0.4-0.5-0.8c0.1-1.1,0.1-2.2,0.2-3.2c0.1-2,0.3-4.1,0.4-6.1
		c0.1-2.2,0-4.3-0.1-6.5c0-0.7,0-0.8,0.6-0.8c1.8,0,3.6-0.1,5.4-0.5c0.3-0.1,0.4,0.1,0.4,0.4c0,0.6-0.1,1.2-0.1,1.8
		C80.4,203.9,80.5,206.1,80.7,208.9z M83.9,218.8C83.8,218.8,83.8,218.8,83.9,218.8c-0.1,0.4,0,0.7-0.1,1.1c0,1-0.4,1.8-1.3,2.3
		c-2,1.1-4.1,1.9-6.5,1.7c-1.4-0.2-2.8-0.4-4.1-0.8c-0.6-0.1-1.2-0.5-1.8-0.7c-0.4-0.2-0.7-0.5-0.7-1c0.2-2,0.3-4.1,0.4-6.1
		c0-0.6,0.4-0.9,1-1c0.3,0,0.5-0.1,0.8-0.1c0.7,0,0.8,0,0.7,0.7c0,0.6-0.1,1.2-0.1,1.8c-0.1,0.7,0.2,1.2,0.9,1.6
		c1.3,0.8,2.7,1.1,4.2,1c2.3-0.2,3.5-1.4,3.9-3.6c0,0,0-0.1,0-0.1c0-0.9,0.6-1.1,1.4-0.6c0.5,0.3,0.9,0.8,0.9,1.4
		C83.7,217.1,83.8,217.9,83.9,218.8z M89,224.3c-4.6,0.1-8.4,2-12.1,4.2c-0.5-1.1-1.1-2.1-1.7-3.3c0.5,0,0.8-0.1,1.2-0.1
		c2.7,0,5.2-0.9,7.4-2.5c0.2-0.1,0.4-0.3,0.6-0.2C86.1,222.7,87.5,223.3,89,224.3z M92.6,227.7c-0.6,0-1.2,0-1.8-0.1
		c-2.4-0.4-4.4,0.3-6.2,1.9c-0.5,0.4-1,0.8-1.5,1.2c-1,0.7-2.2,1-3.4,0.9c-0.7,0-2-1.1-2-1.9c0-0.7,0.7-0.9,1.1-1.2
		c0.4-0.3,0.8-0.5,1.2-0.7c1.5-0.6,3-1.3,4.5-1.8c1.4-0.5,2.9-0.7,4.4-0.8c1.7-0.3,2.8,0.7,3.8,1.9C93.1,227.4,93,227.7,92.6,227.7z
		 M97.6,236.4c-0.2-0.1-0.3-0.1-0.4-0.2c-1.7-1.1-3.5-1.5-5.5-1.5c-2.4,0.1-4.5,1-5.9,3.1c-0.5,0.7-1.1,1.4-1.7,2
		c-0.2,0.2-0.6,0.5-0.9,0.5c-2.1,0.2-4.2,0.1-6.2-0.8c-1.7-0.8-3.3-1.5-5-2.3c-0.3-0.1-0.5-0.3-0.8-0.5c-0.3-0.2-0.5-0.5-0.5-0.9
		c0-0.4,0-0.7,0-1.1c0.1-1.7,0-3.5-0.8-5.1c-0.8-1.7-0.8-3.4-0.6-5.1c0-0.4,0.1-0.8,0.1-1.2c1.1,0.3,2.1,0.7,3,1
		c0.5,0.1,1,0.1,1.5,0.3c0.6,0.2,0.3,0.9,0.5,1.4c0.7,1.1,1.2,2.4,1.8,3.5c0.3,0.6,0.7,1.2,1.2,1.8c0.5,0.7,1.2,1.2,2.1,1.3
		c1.5,0.1,2.9-0.2,4.2-1.1c0.5-0.4,1.1-0.8,1.6-1.3c1.6-1.4,3.4-2.1,5.6-1.8c1,0.1,2.1,0.2,2.9-0.5C96.3,230.2,98,234,97.6,236.4z
		 M66.4,235.1c1.4,0.9,2.6,1.8,3.9,2.6c1.5,0.9,3.1,1.5,4.6,2.3c2.7,1.4,5.5,2,8.6,1.5c0.6-0.1,1.1-0.3,1.5-0.8
		c0.7-0.9,1.4-1.7,2-2.5c0.6-0.8,1.2-1.4,2.1-1.7c2.7-0.9,5.3-0.9,7.6,0.9c1.1,0.8,1.2,1,0.6,2.3c-0.2,0.5-0.6,1-1,1.5
		c-1.6,1.7-3.8,2.5-6,3.1c-3.1,0.7-6.3,0.9-9.5,0.2c-3.2-0.8-6.3-1.6-9-3.4c-1.1-0.7-2.1-1.4-3.2-2.1
		C67.3,237.9,66.6,236.7,66.4,235.1z M66.2,232.2c0-1.8,0.1-3.6,0.8-5.3c0.8,0.6,1.1,1.2,0.9,2c-0.2,1.1-0.3,2.3-0.4,3.4
		c0,0.5-0.1,0.9-0.2,1.4C66.8,233.2,66.1,233,66.2,232.2z"/>
</g>
<g id="Short">
	<path id="Short_x5F_color_1_" class="st11" d="M72.3,198.7c-1.1,0-2.2,0-3.2,0c-0.5,0-1,0-1.4,0c-2-0.1-2.3-0.4-2.5-2.3
		c-0.3-2.5-0.8-5.1-1.1-7.6c-0.3-2.1-0.4-4.1-0.6-6.2c-0.1-0.6-0.1-1.3-0.1-1.9c0.6-0.1,1.2-0.1,1.9-0.2c0.1,0,0.3,0,0.3-0.1
		c0.1-0.1,0.3-0.2,0.3-0.3c0-0.2-0.2-0.3-0.3-0.4c-0.1-0.1-0.2-0.1-0.3-0.1c-1.4,0-2.7-0.1-4.1-0.1c-0.8,0-1.5,0-2.3,0.1
		c-0.4,0-0.8,0-0.9,0.4c-0.1,0.3,0.3,0.5,0.9,0.5c0.5,0,1,0.1,1.5,0.1c0,0.5,0,1-0.1,1.5c-0.3,3.9-0.7,7.8-1.4,11.6
		c-0.2,1.2-0.4,2.4-0.5,3.7c-0.1,0.6-0.4,0.9-1,1.1c-0.6,0.1-1.2,0.2-1.8,0.2c-3,0-6,0.2-9,0c-2.6-0.2-5.2-0.8-7.8-1.3
		c-0.8-0.1-0.8-0.2-0.7-1c0.1-1.4,0.2-2.9,0.3-4.3c0.1-2.5,0.3-5,0.8-7.5c0.5-3.1,1-6.2,1.7-9.3c0.7-3,1.7-5.9,2.6-8.8
		c0.2-0.6,0.3-0.6,0.9-0.4c1.8,0.7,3.6,1.4,5.4,2c1.7,0.5,3.4,0.9,5.1,1.1c2.2,0.3,4.4,0.7,6.5,0.7c2.3,0,4.7-0.4,7-0.7
		c3.7-0.4,7-1.7,10.4-3c0.2-0.1,0.4-0.2,0.5-0.2c0.3-0.1,0.5,0,0.6,0.3c0.2,0.5,0.3,1,0.5,1.5c1.3,3.8,2.4,7.6,3.1,11.6
		c0.7,4.2,1.5,8.4,1.6,12.7c0,1.6,0.2,3.1,0.3,4.7c0,0.5-0.1,0.7-0.5,0.7c-0.4,0.1-0.9,0.2-1.3,0.3c-1.7,0.3-3.4,0.7-5.1,0.9
		c-2.1,0.2-4.2,0.2-6.3,0.3C72.3,198.8,72.3,198.8,72.3,198.7"/>
	<path id="FranjaShortIzq_x5F_color_1_" class="st7" d="M86.6,196.7c-0.1-0.4-0.1-0.6-0.1-0.9c-0.2-2.3-0.2-4.6-0.5-6.9
		c-0.3-2.6-0.6-5.2-1-7.8c-0.7-4.7-1.9-9.2-3.6-13.6c-0.2-0.5-0.4-1-0.6-1.4c-0.2-0.4-0.1-0.7,0.3-0.8c0.1,0,0.2-0.1,0.3-0.1
		c1.2-0.4,1.2-0.8,1.6,0.8c1.2,4.4,2.3,8.8,3.2,13.2c0.6,3.2,1.1,6.4,1.9,9.5c0.4,2,0.8,3.9,0.9,5.9c0,0.7-0.1,1.1-0.8,1.3
		C87.7,196,87.2,196.3,86.6,196.7"/>
	<path id="FranjaShortDer_x5F_color_1_" class="st7" d="M37,196.7c0.1-0.4,0.1-0.6,0.1-0.9c0.2-2.3,0.2-4.6,0.5-6.9
		c0.3-2.6,0.6-5.2,1-7.8c0.7-4.7,1.9-9.2,3.6-13.6c0.2-0.5,0.4-1,0.6-1.4c0.2-0.4,0.1-0.7-0.3-0.8c-0.1,0-0.2-0.1-0.3-0.1
		c-1.2-0.4-1.2-0.8-1.6,0.8c-1.2,4.4-2.3,8.8-3.2,13.2c-0.6,3.2-1.1,6.4-1.9,9.5c-0.4,2-0.8,3.9-0.9,5.9c0,0.7,0.1,1.1,0.8,1.3
		C35.9,196,36.4,196.3,37,196.7"/>
	<path id="Short_x5F_linea" class="st10" d="M51.8,200c0.1,0,0.3,0,0.4,0c1.4,0,2.7,0,4.1-0.1c0.7,0,1.4-0.2,2.1-0.4
		c0.8-0.2,1.2-0.7,1.3-1.5c0.1-1.3,0.3-2.5,0.5-3.8c0.7-4.2,1.2-8.4,1.4-12.6c0-0.3,0.1-0.5,0.2-0.8l0.2,0c0.1,0.4,0.1,0.8,0.2,1.1
		c0.2,2.3,0.3,4.5,0.6,6.8c0.3,2.9,0.8,5.7,1.2,8.5c0.3,1.8,0.7,2.3,2.5,2.6c0.4,0.1,0.7,0.1,1.1,0.1c1.1,0,2.2,0,3.4,0
		c0.6,0,1.3,0.1,1.9,0.1c0,0,0,0.1,0,0.1c0,0,0.1,0,0.1,0c0,0,0,0,0,0c0.6-0.1,1.2-0.2,1.8-0.2c0.2,0,0.3,0,0.6,0
		c1.5-0.1,2.9-0.3,4.4-0.4c0.6-0.1,1.2-0.2,1.8-0.3c0.1,0,0.2-0.1,0.3-0.1c0.6-0.1,1.1-0.2,1.7-0.3c1.3-0.3,2.7-0.5,3.8-1.3
		c0.7-0.4,1.5-0.8,2.2-1.2c0.5-0.3,0.8-0.6,0.7-1.2c-0.2-1.7-0.3-3.5-0.6-5.2c-0.4-2.1-0.9-4.2-1.3-6.3c-1.2-6.3-2.4-12.5-4.4-18.6
		c-0.2-0.6-0.7-1.7-1-2.1c-0.1,0-0.1,0.1-0.2,0.1c-2.3,1.1-4.8,2-7.2,2.9c-1.5,0.6-3,1.2-4.6,1.4c-2.3,0.3-4.7,0.9-7,1
		c-2.7,0.1-5.4,0.2-8.1-0.4c-1.3-0.3-2.7-0.4-4-0.7c-2.3-0.7-4.5-1.4-6.7-2.2c-1.5-0.6-3-1.3-4.5-2c-0.1,0.1-1,1.7-1.2,2.5
		c-1.5,4.8-2.7,9.7-3.6,14.6c-0.6,2.9-1.1,5.9-1.7,8.8c-0.5,2.1-0.6,4.2-0.9,6.3c-0.1,0.8,0.1,1,0.9,1.4c0.4,0.2,0.9,0.4,1.3,0.7
		c1.4,1,2.9,1.4,4.6,1.7c0.6,0.1,1.1,0.2,1.7,0.3c0.2,0,1.7,0.2,2.2,0.4c1.6,0.3,3.3,0.4,5,0.4c0.2,0,0.3,0,0.4,0.1
		c0.7-0.1,1.5-0.1,2.2-0.1C51.6,200,51.7,200,51.8,200z M81.1,165.2c0.1,0,0.2-0.1,0.3-0.1c1.2-0.4,1.2-0.8,1.6,0.8
		c1.2,4.4,2.3,8.8,3.2,13.2c0.6,3.2,1.1,6.4,1.9,9.5c0.4,2,0.8,3.9,0.9,5.9c0,0.7-0.1,1.1-0.8,1.3c-0.5,0.2-1,0.5-1.6,0.9
		c-0.1-0.4-0.1-0.6-0.1-0.9c-0.2-2.3-0.2-4.6-0.5-6.9c-0.3-2.6-0.6-5.2-1-7.8c-0.7-4.7-1.9-9.2-3.6-13.6c-0.2-0.5-0.4-1-0.6-1.4
		C80.5,165.6,80.7,165.4,81.1,165.2z M37.1,196.7c-0.8-0.4-1.5-0.8-2.1-1.1c-0.4-0.2-0.4-0.5-0.4-0.8c0.1-1.4,0.2-2.8,0.4-4.2
		c0.6-3.5,1.4-6.9,2.1-10.4c0.9-4.8,2.1-9.5,3.4-14.2c0.5-1.7,0.2-1.6,1.9-0.9c0.6,0.3,0.6,0.3,0.4,1c-1.3,3.1-2.3,6.3-3,9.6
		c-0.6,3-1.1,6-1.6,8.9c-0.6,3.6-0.8,7.2-1,10.8C37.2,195.8,37.1,196.2,37.1,196.7z M46.6,198.7c-2.6-0.2-5.2-0.8-7.8-1.3
		c-0.8-0.1-0.8-0.2-0.7-1c0.1-1.4,0.2-2.9,0.3-4.3c0.1-2.5,0.3-5,0.8-7.5c0.5-3.1,1-6.2,1.7-9.3c0.7-3,1.7-5.9,2.6-8.8
		c0.2-0.6,0.3-0.6,0.9-0.4c1.8,0.7,3.6,1.4,5.4,2c1.7,0.5,3.4,0.9,5.1,1.1c2.2,0.3,4.4,0.7,6.5,0.7c2.3,0,4.7-0.4,7-0.7
		c3.7-0.4,7-1.7,10.4-3c0.2-0.1,0.4-0.2,0.5-0.2c0.3-0.1,0.5,0,0.6,0.3c0.2,0.5,0.3,1,0.5,1.5c1.3,3.8,2.4,7.6,3.1,11.6
		c0.7,4.2,1.5,8.4,1.6,12.7c0,1.6,0.2,3.1,0.3,4.7c0,0.5-0.1,0.7-0.5,0.7c-0.4,0.1-0.9,0.2-1.3,0.3c-1.7,0.3-3.4,0.7-5.1,0.9
		c-2.1,0.2-4.2,0.2-6.3,0.3c0,0,0-0.1,0-0.1c-1.1,0-2.2,0-3.2,0c-0.5,0-1,0-1.4,0c-2-0.1-2.3-0.4-2.5-2.3c-0.3-2.5-0.8-5.1-1.1-7.6
		c-0.3-2.1-0.4-4.1-0.6-6.2c-0.1-0.6-0.1-1.3-0.1-1.9c0.6-0.1,1.2-0.1,1.9-0.2c0.1,0,0.3,0,0.3-0.1c0.1-0.1,0.3-0.2,0.3-0.3
		c0-0.2-0.2-0.3-0.3-0.4c-0.1-0.1-0.2-0.1-0.3-0.1c-1.4,0-2.7-0.1-4.1-0.1c-0.8,0-1.5,0-2.3,0.1c-0.4,0-0.8,0-0.9,0.4
		c-0.1,0.3,0.3,0.5,0.9,0.5c0.5,0,1,0.1,1.5,0.1c0,0.5,0,1-0.1,1.5c-0.3,3.9-0.7,7.8-1.4,11.6c-0.2,1.2-0.4,2.4-0.5,3.7
		c-0.1,0.6-0.4,1-1,1.1c-0.6,0.1-1.2,0.2-1.8,0.2C52.6,198.7,49.6,198.9,46.6,198.7z"/>
</g>
<g id="Torzo">
	<g id="Color_1_">
		<path id="Camiseta" class="st11" d="M73.5,117c1,0.2,2.1,0.5,3.1,0.7c0.6,0.1,0.7,0.4,0.7,0.9c0,1.6,0.1,3.2,0.2,4.8
			c0.1,1.5,0.4,3,0.6,4.5c0.2,1.2,0.2,2.5,0.4,3.7c0.3,1.9,0.6,3.8,1,5.6c1.2,5.8,2.4,11.6,3.4,17.4c0.3,1.9,0.9,3.7,1.3,5.6
			c0.5,2.1,0.9,1.8-1.3,2.8c-2.3,1.1-4.8,2-7.2,2.9c-1.5,0.6-3,1.2-4.6,1.4c-2.3,0.4-4.7,0.9-7,1c-2.7,0.1-5.4,0.2-8.1-0.4
			c-1.3-0.3-2.7-0.4-4-0.7c-2.3-0.7-4.5-1.4-6.7-2.2c-1.8-0.7-3.5-1.5-5.2-2.3c-0.9-0.4-0.9-0.5-0.7-1.6c0.3-1.4,0.7-2.8,1-4.2
			c0.5-2.6,0.9-5.2,1.4-7.8c0.8-4,1.6-8.1,2.5-12.1c0.5-2.6,0.9-5.2,1.2-7.8c0.1-1.2,0.3-2.4,0.5-3.6c0.3-2.3,0.5-4.5,0.5-6.8
			c0-1,0-1,0.9-1.2c1-0.2,1.9-0.4,2.9-0.7c1.4,3.7,4,6.7,6.5,9.7c1.3,1.5,2.5,3.1,3.8,4.6c0.2,0.2,0.3,0.4,0.6,0.6
			c0.6,0.5,1,0.5,1.6,0c0.7-0.8,1.3-1.6,2-2.4c0.7-0.9,1.5-1.8,2.2-2.7c1.6-2.1,3.3-4.1,4.8-6.3C72.3,119.5,72.8,118.3,73.5,117
			 M67.5,150.8c0.1-0.2,0.3-0.4,0.5-0.6c1.8-2.2,3.2-4.5,3.5-7.3c0.3-3.4-0.6-6.3-3.2-8.6c-1-0.9-2.2-1.7-3.6-1.7
			c-5.2-0.3-9.7,1.2-13.4,5c-0.5,0.5-0.5,0.6-0.2,1.2c0.2,0.3,0.3,0.6,0.5,1c0.4,0.7,0.8,1.5,1.2,2.2c0.4,0.7,1,0.8,1.5,0.2
			c1.3-1.2,2.9-1.9,4.4-2.9c1.2-0.8,2.5-1,3.9-0.9c0.8,0.1,1.1,0.3,1.1,1.1c0,0.7,0,1.4-0.3,2c-1,2.7-2.6,5-5,6.7
			c-1.7,1.3-3.4,2.7-5.1,4c-0.6,0.5-0.9,1.1-0.9,1.8c0,1,0,2,0,3c0,0.9,0.2,1.1,1.1,1.3c2.2,0.3,4.3,0.7,6.5,0.8
			c3.7,0.1,7.4,0.2,11.1,0.4c0.9,0,1.4-0.4,1.6-1.1c0.6-1.7,0.9-3.4,0.8-5.2c0-0.7-0.2-0.9-0.9-1.1
			C71.1,151.6,69.3,151.2,67.5,150.8"/>
		<path id="CamisetaCuello_x5F_color" class="st7" d="M37.1,196.7c-0.8-0.4-1.5-0.8-2.1-1.1c-0.4-0.2-0.4-0.5-0.4-0.8
			c0.1-1.4,0.2-2.8,0.4-4.2c0.6-3.5,1.4-6.9,2.1-10.4c0.9-4.8,2.1-9.5,3.4-14.2c0.5-1.7,0.2-1.6,1.9-0.9c0.6,0.3,0.6,0.3,0.4,1
			c-1.3,3.1-2.3,6.3-3,9.6c-0.6,3-1.1,6-1.6,8.9c-0.6,3.6-0.8,7.2-1,10.8C37.2,195.8,37.1,196.2,37.1,196.7"/>
		<path id="Cuello_x5F_color" class="st9" d="M67,116.2c-1.7,2.7-2.9,5.7-5.2,8.1c-1.4-1.2-4.5-6.2-5.2-8.2c0.9-0.3,1.7,0.2,2.6,0.2
			c0.8,0,1.7,0.1,2.5,0.1c0.9,0,1.8-0.1,2.6-0.1c0.8-0.1,1.6-0.2,2.5-0.3C66.9,116.1,67,116.1,67,116.2"/>
		<path id="NumeroCamiseta_x5F_color" class="st12" d="M53.5,141.1c-0.4-0.7-0.9-1.6-1.4-2.4c1.2-1.2,2.4-2.4,4-3.2
			c2.5-1.2,5-1.8,7.8-1.8c1.2,0,2.3,0.4,3.2,1.1c2.2,1.7,3.2,3.9,3.3,6.6c0.1,3-1.2,5.5-3,7.7c-0.6,0.7-1.5,1.2-2.3,1.7
			c-0.2,0.1-0.5,0.2-0.6,0.3c-0.2,0.2-0.3,0.5-0.3,0.7c0,0.1,0.3,0.4,0.5,0.4c0.7,0,1.4,0.1,2-0.1c1.3-0.2,2.5,0.1,3.8,0.4
			c0.6,0.1,1.1,0.4,1.7,0.5c0.4,0.1,0.6,0.3,0.5,0.7c-0.3,1.3-0.5,2.6-0.8,3.9c-0.1,0.5-0.4,0.6-0.9,0.6c-1.4,0-2.9-0.1-4.3-0.1
			c-1.9-0.1-3.8-0.2-5.7-0.2c-2.2,0-4.4-0.4-6.5-0.7c-0.5-0.1-0.7-0.3-0.6-0.8c0-0.7,0.1-1.4,0-2.2c0-0.6,0.2-1,0.7-1.4
			c1.6-1.2,3.1-2.5,4.7-3.7c2.5-1.9,4.3-4.3,5.4-7.1c0.4-1,0.6-2.1,0.3-3.2c-0.3-1-0.8-1.5-1.8-1.6c-1.7-0.1-3.3,0-4.8,1
			C56.7,139.2,55.2,140.1,53.5,141.1"/>
	</g>
	<g id="Linea_2_">
		<path id="Torzo_x5F_linea" class="st10" d="M85.3,159.8c-0.4-1.8-1-3.6-1.2-5.4c-0.8-5.4-1.9-10.7-3.1-16
			c-0.3-1.3-0.5-2.6-0.8-3.8c0,0-0.4-2.9-0.5-3.1c-0.4-3-0.8-6.1-1.2-9.1c0-0.3,0-0.6,0-1c-0.1-0.7,0-1.3,0.1-2
			c-0.2-0.4-0.2-0.9-0.1-1.4c0.1-0.9-0.2-1.1-1.1-1.3c-1.7-0.3-3.4-0.6-5.1-1c-0.3-0.1-3.6-1.1-3.7-1.2c-0.4,0-0.8-0.1-1.2-0.1
			c-0.6,0.1-1.2,0.2-1.8,0.3c-2.6,0.4-5.2,0.4-7.8,0c-0.7-0.1-1.5-0.2-2.2-0.4c-0.6,0.1-1,0.1-1.3,0.3c-0.8,0.3-3,1-3.4,1.1
			c-1.6,0.3-3.3,0.6-4.9,1c-0.7,0.1-0.8,0.4-0.9,1.1c0,0.3,0,0.5,0,0.8c0,0.2,0,0.4,0,0.6c0,0.3-0.1,0.7-0.1,1c0,0,0,0,0,0
			c0,0.3,0,0.6,0,0.9c0,0,0.1,0,0.1,0c-0.1,1.2-0.2,2.4-0.3,3.6c-0.3,2.2-0.6,4.4-0.9,6.6c0,0.4-0.9,5.3-1.1,6.1
			c-0.8,3.8-1.5,7.6-2.3,11.4c-0.7,3.8-1.2,7.7-2.3,11.4c-0.2,0.6-0.2,1.2-0.3,1.8c-0.1,0.7,0.2,1.1,0.8,1.4
			c0.5,0.2,0.7,0.4,0.9,0.6c0.8,0.1,1.6,0.5,2.4,1l0,0c-0.1-0.1-0.2-0.1-0.3-0.2c0.2,0.1,0.4,0.2,0.6,0.3c0.6,0.3,1.2,0.5,1.8,0.8
			c0.1,0,0.2,0.1,0.3,0.1c1.8,0.7,3.6,1.4,5.4,2c1.7,0.5,3.4,0.9,5.1,1.1c2.2,0.3,4.4,0.7,6.5,0.7c2.3,0,4.7-0.4,7-0.7
			c3.7-0.4,7-1.7,10.4-3c0.2-0.1,0.4-0.2,0.5-0.2c0.1-0.1,1-0.4,1.3-0.5c0.1-0.1,0.2-0.1,0.3-0.2c0.1,0,0.2-0.1,0.3-0.1
			c0.5-0.2,1.8-0.7,2-0.9c0.3-0.2,0.6-0.3,0.9-0.4c0.1,0,0.1-0.1,0.2-0.1c0.1-0.1,0.3-0.2,0.4-0.2c0.6-0.2,0.8-0.7,0.7-1.3
			C85.6,161.3,85.5,160.6,85.3,159.8z M59.2,116.3c0.8,0,1.7,0.1,2.5,0.1c0.9,0,1.8-0.1,2.6-0.1c0.8-0.1,1.6-0.2,2.5-0.3
			c0.1,0.1,0.1,0.2,0.2,0.2c-1.7,2.7-2.9,5.7-5.2,8.1c-1.4-1.2-4.5-6.2-5.2-8.2C57.6,115.8,58.4,116.3,59.2,116.3z M52.5,116.4
			c0.4-0.2,0.9-0.5,1.3-0.6c0.4-0.1,0.9-0.1,1.4-0.1c0.2,0,0.4,0.2,0.5,0.4c0.3,0.6,0.5,1.3,0.8,1.8c1.3,2.1,2.3,4.5,4,6.4
			c0.2,0.2,0.4,0.5,0.6,0.7c0.6,0.5,0.9,0.6,1.4,0c0.9-1,1.7-2.1,2.5-3.2c0.9-1.4,1.6-2.8,2.4-4.3c0.2-0.4,0.4-0.8,0.5-1.2
			c0.1-0.4,0.3-0.7,0.7-0.6c0.5,0,1.1,0.1,1.5,0.3c2.3,1,2.3,0.6,1.1,3c-0.7,1.3-1.5,2.4-2.4,3.6c-2.2,2.9-4.4,5.7-6.6,8.5
			c-0.1,0.1-0.2,0.3-0.3,0.5c-0.5-0.6-0.8-1.1-1.2-1.5c-1.8-2.3-3.7-4.6-5.5-7c-1.1-1.4-2-3-3-4.4c-0.1-0.2-0.2-0.4-0.3-0.5
			C51.4,117,51.4,116.9,52.5,116.4z M82.8,163c-2.3,1.1-4.8,2-7.2,2.9c-1.5,0.6-3,1.2-4.6,1.4c-2.3,0.3-4.7,0.9-7,1
			c-2.7,0.1-5.4,0.2-8.1-0.4c-1.3-0.3-2.7-0.4-4-0.7c-2.3-0.7-4.5-1.4-6.7-2.2c-1.8-0.7-3.5-1.5-5.2-2.3c-0.9-0.4-0.9-0.5-0.7-1.6
			c0.3-1.4,0.7-2.8,1-4.2c0.5-2.6,0.9-5.2,1.4-7.8c0.8-4,1.6-8.1,2.5-12.1c0.5-2.6,0.9-5.2,1.2-7.8c0.1-1.2,0.3-2.4,0.5-3.6
			c0.3-2.3,0.5-4.5,0.5-6.8c0-1,0-1,0.9-1.2c1-0.2,1.9-0.4,2.9-0.7c1.4,3.7,4,6.7,6.5,9.7c1.3,1.5,2.5,3.1,3.8,4.6
			c0.2,0.2,0.3,0.4,0.6,0.6c0.6,0.5,1,0.5,1.6,0c0.7-0.8,1.3-1.6,2-2.4c0.7-0.9,1.5-1.8,2.2-2.7c1.6-2.1,3.3-4.1,4.8-6.3
			c0.8-1.1,1.2-2.3,1.9-3.5c1,0.2,2.1,0.5,3.1,0.7c0.6,0.1,0.7,0.4,0.7,0.9c0,1.6,0.1,3.2,0.2,4.8c0.1,1.5,0.4,3,0.6,4.5
			c0.1,1.2,0.2,2.5,0.4,3.7c0.3,1.9,0.6,3.8,1,5.6c1.2,5.8,2.4,11.6,3.4,17.4c0.3,1.9,0.9,3.7,1.3,5.6C84.5,162.4,85,162,82.8,163z"
			/>
		<path id="NumeroCamiseta_x5F_linea" class="st10" d="M67.5,150.8c1.8,0.4,3.6,0.9,5.4,1.3c0.7,0.2,0.9,0.4,0.9,1.1
			c0.1,1.8-0.3,3.5-0.8,5.2c-0.3,0.8-0.8,1.2-1.6,1.1c-3.7-0.1-7.4-0.3-11.1-0.4c-2.2,0-4.4-0.5-6.5-0.8c-0.9-0.1-1.1-0.4-1.1-1.3
			c0-1,0.1-2,0-3c0-0.8,0.2-1.4,0.9-1.8c1.7-1.3,3.4-2.7,5.1-4c2.3-1.7,4-4,5-6.7c0.2-0.6,0.3-1.3,0.3-2c0-0.8-0.3-1-1.1-1.1
			c-1.4-0.1-2.7,0.1-3.9,0.9c-1.5,0.9-3.1,1.6-4.4,2.9c-0.5,0.5-1.1,0.4-1.5-0.2c-0.5-0.7-0.8-1.5-1.2-2.2c-0.2-0.3-0.3-0.6-0.5-1
			c-0.3-0.6-0.3-0.7,0.2-1.2c3.7-3.8,8.2-5.2,13.4-5c1.4,0.1,2.6,0.8,3.6,1.7c2.6,2.3,3.5,5.2,3.2,8.6c-0.3,2.9-1.7,5.2-3.5,7.3
			C67.8,150.4,67.6,150.6,67.5,150.8 M53.5,141.1c1.6-1,3.2-1.9,4.7-2.8c1.5-1,3.1-1.1,4.8-1c1.1,0.1,1.6,0.5,1.8,1.6
			c0.3,1.1,0.1,2.1-0.3,3.2c-1.1,2.9-2.9,5.3-5.4,7.1c-1.6,1.2-3.1,2.5-4.7,3.7c-0.5,0.4-0.7,0.8-0.7,1.4c0,0.7,0,1.4,0,2.2
			c0,0.5,0.1,0.7,0.6,0.8c2.2,0.4,4.3,0.7,6.5,0.7c1.9,0,3.8,0.1,5.7,0.2c1.4,0,2.9,0.1,4.3,0.1c0.5,0,0.8-0.1,0.9-0.6
			c0.3-1.3,0.5-2.6,0.8-3.9c0.1-0.4-0.1-0.6-0.5-0.7c-0.6-0.1-1.1-0.4-1.7-0.5c-1.2-0.3-2.5-0.6-3.8-0.4c-0.7,0.1-1.4,0.1-2,0.1
			c-0.2,0-0.5-0.2-0.5-0.4c0-0.2,0.1-0.5,0.3-0.7c0.1-0.2,0.4-0.2,0.6-0.3c0.8-0.5,1.7-1,2.3-1.7c1.8-2.2,3.1-4.7,3-7.7
			c-0.1-2.7-1.1-4.9-3.3-6.6c-1-0.8-2-1.1-3.2-1.1c-2.7,0-5.3,0.6-7.8,1.8c-1.6,0.8-2.8,1.9-4,3.2C52.6,139.5,53.1,140.3,53.5,141.1
			"/>
	</g>
</g>
<g id="BrazoDer">
	<path id="BrazoDer_x5F_linea" class="st10" d="M45.1,129.9c0,0.5,0,1.8-0.7,3.1c-0.3,0.5-0.6,1-0.7,1c-0.4,0.4-1.3,1.2-1.5,1.5
		c-3.4,4.1-6.5,8.4-8.8,13.2c-1.1,2.2-1.6,4.6-2.4,6.9c-0.1,0.4-0.1,0.8,0.3,1.1c0.9,0.7,1.4,1.7,1.8,2.8c0.3,1,1,1.7,2,2.1
		c0.3,0.1,0.6,0.2,0.9,0.4c0.5,0.2,0.8,0.6,0.8,1.1c0,0.6,0,1.1,0,1.7c-0.1,1.4-1.3,2.4-2.6,2.3c-0.8,0-1.3-0.4-1.8-1.1
		c-0.5-0.8-1.2-1.4-1.9-1.9c-0.2-0.2-0.4-0.4-0.6-0.6c-0.6-0.5-0.9-0.4-1.1,0.3c-0.3,1-0.4,2.1-0.6,3.2c-0.3,1.8-0.5,3.6-0.8,5.3
		c-0.1,0.5-0.4,1.1-0.6,1.6c-0.4,0.9-1.3,1.5-2.3,1.6c-0.3,0-0.6,0.1-0.9,0.4c-0.8,0.6-1.6,0.5-2.3,0c-0.4-0.3-0.8-0.4-1.3-0.4
		c-1,0-1.7-0.7-2-1.7c-0.2-0.9-0.3-1.8-0.4-2.7c0-0.4-0.4-0.7-0.7-0.7c-0.2,0-0.5,0-0.7,0c-0.7-0.1-1.3-0.7-1.2-1.4
		c0-0.5,0.1-1.1,0.3-1.6c1.5-3.5,3-7.1,4.5-10.6c0.1-0.2,0.3-0.5,0.4-0.7c1.4-2.3,2.3-4.9,3.6-7.3c2.3-4.2,4.6-8.4,7.3-12.4
		c2.2-3.2,4.4-6.4,7.1-9.2c1.2-1.2,2.1-2.6,3.3-3.8c1-1,2-2,3.1-3c0.5-0.4,0.5-0.6,0.6-0.7c0.1-0.2,0.1-0.3,0.2-0.4
		c0.2-0.1,0.5,0.3,0.6,0.4C46.8,120.6,45.1,126.3,45.1,129.9z M44.9,121c-0.4-0.2-1.1,0.8-1.7,1.4c-2.3,2.5-2.5,2.9-6.4,7.9
		c-1.4,1.8-2.7,3.6-4,5.4c-2.9,4.1-5.4,8.4-7.7,12.8c-1,2-1.9,4-2.9,6.1c-0.2,0.3-0.3,0.8-0.6,0.9c-0.7,0.2-0.9,0.9-1.1,1.4
		c-1.5,3.6-2.8,7.3-4.6,10.8c-0.1,0.3-0.2,0.6-0.2,0.9c0,0.4,0.1,0.7,0.5,0.7c0.2,0,0.6,0,0.7-0.2c0.3-0.4,0.5-0.8,0.7-1.2
		c0.2-0.5,0.2-1,0.3-1.5c0.3-0.9,0.6-1.8,0.9-2.7c0.1-0.3,0.3-0.6,0.7-0.5c0.4,0.2,0.4,0.6,0.3,0.9c0,0,0,0.1,0,0.1
		c-0.3,1.3-0.8,2.5-1,3.8c-0.2,1.6-0.2,3.2-0.1,4.8c0,0.6,0.3,1.2,1.1,1.6c-0.1-0.8-0.3-1.4-0.3-2.1c-0.3-2.9,0.2-5.7,1.3-8.4
		c0.1-0.2,0.2-0.5,0.3-0.6c0.1-0.1,0.4-0.2,0.5-0.1c0.1,0,0.3,0.2,0.3,0.3c0,0.4-0.1,0.7-0.2,1c-0.3,1-0.7,2.1-0.9,3.1
		c-0.5,1.9-0.5,3.8-0.1,5.7c0.1,0.7,0.5,1.3,1.1,1.7c0.5,0.4,1,0.4,1.5,0c-0.2-0.8-0.6-1.5-0.6-2.2c-0.1-1.2,0-2.5,0.2-3.7
		c0.3-1.7,0.8-3.4,1.2-5.1c0.1-0.2,0.1-0.5,0.3-0.6c0.1-0.1,0.4-0.2,0.5-0.1c0.1,0,0.3,0.2,0.3,0.3c0,0.4,0,0.8-0.1,1.2
		c-0.4,1.9-1.1,3.8-1.2,5.8c-0.1,1-0.3,2,0.2,2.9c0.2,0.3,0.3,0.8,0.8,0.8c0.5,0,0.8-0.3,1-0.7c0.3-0.6,0.6-1.2,0.7-1.9
		c0.3-1.8,0.6-3.7,0.8-5.6c0.1-1.3,0.5-2.5,1.1-3.6c0.1-0.2,0.4-0.4,0.6-0.4c0.5-0.1,1,0,1.5,0.4c0.4,0.4,0.8,0.9,1.2,1.3
		c0.7,0.7,1.3,1.4,2.1,2c0.6,0.6,1.4,0.4,1.8-0.3c0.1-0.2,0.2-0.5,0.3-0.8c0.2-1.2,0.1-1.5-1.1-2c-1.3-0.6-2.1-1.4-2.6-2.8
		c-0.3-0.8-0.8-1.5-1.3-2.2c-0.5-0.6-0.7-1.2-0.5-1.9c0.1-0.3,0.1-0.7,0.2-1.1c0.8-4.1,2.5-7.8,4.7-11.2c2.3-3.6,4.7-7.2,7.9-10.2
		c0.5-0.5,0.9-1.1,1-1.9c0.1-0.5,0.1-0.8,0.1-1.1c0.1-0.4,0.1-0.5,0.1-0.9c0.2-1.1,0.4-3,0.6-4.6C45.2,121.4,45.1,121.1,44.9,121z"
		/>
	<path id="BrazoDer_x5F_color" class="st9" d="M45.1,121.1c-0.1,1.2-0.2,2.4-0.3,3.6c-0.3,2.2-0.6,4.4-0.9,6.6
		c-0.1,0.8-0.4,1.3-1,1.9c-3.1,3-5.6,6.6-7.9,10.2c-2.2,3.5-3.9,7.1-4.7,11.2c-0.1,0.4-0.1,0.7-0.2,1.1c-0.2,0.7,0,1.3,0.5,1.9
		c0.5,0.7,1.1,1.4,1.3,2.2c0.5,1.4,1.3,2.2,2.6,2.8c1.1,0.5,1.3,0.8,1.1,2c0,0.3-0.1,0.5-0.3,0.8c-0.4,0.7-1.2,0.9-1.8,0.3
		c-0.7-0.6-1.4-1.3-2.1-2c-0.4-0.4-0.8-0.9-1.2-1.3c-0.4-0.4-0.9-0.5-1.5-0.4c-0.2,0.1-0.5,0.2-0.6,0.4c-0.6,1.1-1,2.3-1.1,3.6
		c-0.2,1.9-0.5,3.7-0.8,5.6c-0.1,0.7-0.4,1.3-0.7,1.9c-0.2,0.4-0.5,0.7-1,0.7c-0.5,0-0.6-0.5-0.8-0.8c-0.4-1-0.2-2-0.2-2.9
		c0.1-2,0.8-3.9,1.2-5.8c0.1-0.4,0.1-0.8,0.1-1.2c0-0.1-0.2-0.3-0.3-0.3c-0.2,0-0.4,0-0.5,0.1c-0.2,0.2-0.2,0.4-0.3,0.6
		c-0.4,1.7-0.9,3.4-1.2,5.1c-0.2,1.2-0.2,2.5-0.2,3.7c0,0.7,0.4,1.4,0.6,2.2c-0.4,0.4-0.9,0.3-1.5,0c-0.6-0.4-1-1-1.1-1.7
		c-0.3-1.9-0.3-3.8,0.1-5.7c0.3-1,0.6-2.1,0.9-3.1c0.1-0.3,0.1-0.7,0.2-1.1c0-0.1-0.2-0.3-0.3-0.3c-0.2,0-0.4,0-0.5,0.1
		c-0.2,0.2-0.3,0.4-0.3,0.6c-1,2.7-1.6,5.5-1.3,8.4c0.1,0.7,0.2,1.3,0.3,2.1c-0.8-0.4-1.1-0.9-1.1-1.6c0-1.6,0-3.2,0.1-4.8
		c0.2-1.3,0.6-2.5,1-3.8c0,0,0-0.1,0-0.1c0.1-0.4,0.2-0.8-0.3-0.9c-0.4-0.1-0.6,0.2-0.7,0.5c-0.3,0.9-0.6,1.8-0.9,2.7
		c-0.1,0.5-0.1,1-0.3,1.5c-0.1,0.4-0.4,0.9-0.7,1.2c-0.1,0.2-0.5,0.2-0.7,0.2c-0.4-0.1-0.5-0.4-0.5-0.7c0-0.3,0.1-0.6,0.2-0.9
		c1.7-3.5,3-7.2,4.6-10.8c0.2-0.6,0.4-1.2,1.1-1.4c0.3-0.1,0.4-0.5,0.6-0.9c1-2,1.8-4.1,2.9-6.1c2.3-4.4,4.8-8.8,7.7-12.8
		c1.3-1.8,2.6-3.6,4-5.4c2.1-2.6,4.3-5.2,6.4-7.7c0.5-0.5,1-1,1.5-1.5C44.9,121,45,121.1,45.1,121.1"/>
</g>
<g id="BrazoIzq">
	<path id="BrazoIzq_x5F_linea" class="st10" d="M77.8,119.5c0.1-0.1,0.4-0.5,0.6-0.4c0.1,0,0.1,0.2,0.2,0.4c0,0.1,0.1,0.3,0.6,0.7
		c1.1,0.9,2.1,1.9,3.1,3c1.1,1.2,2.1,2.6,3.3,3.8c2.7,2.8,4.9,6,7.1,9.2c2.7,3.9,5,8.2,7.3,12.4c1.3,2.4,2.2,5,3.6,7.3
		c0.1,0.2,0.3,0.5,0.4,0.7c1.5,3.5,3,7.1,4.5,10.6c0.2,0.5,0.3,1.1,0.3,1.6c0,0.7-0.5,1.3-1.2,1.4c-0.2,0-0.5,0-0.7,0
		c-0.4,0-0.7,0.3-0.7,0.7c-0.1,0.9-0.1,1.8-0.4,2.7c-0.2,1-0.9,1.7-1.9,1.7c-0.5,0-0.9,0.2-1.3,0.4c-0.8,0.5-1.6,0.6-2.3,0
		c-0.3-0.2-0.6-0.3-0.9-0.4c-1-0.1-1.9-0.7-2.3-1.6c-0.2-0.5-0.5-1-0.6-1.6c-0.3-1.8-0.5-3.5-0.8-5.3c-0.2-1.1-0.3-2.1-0.6-3.2
		c-0.2-0.7-0.6-0.8-1.1-0.3c-0.2,0.2-0.4,0.4-0.6,0.6c-0.8,0.5-1.4,1.1-1.9,1.9c-0.4,0.7-1,1.1-1.8,1.1c-1.3,0-2.4-1-2.6-2.3
		c-0.1-0.6,0-1.1,0-1.7c0-0.5,0.3-0.9,0.8-1.1c0.3-0.1,0.6-0.2,0.9-0.4c1-0.4,1.7-1,2-2.1c0.4-1.1,0.9-2.1,1.8-2.8
		c0.4-0.3,0.4-0.7,0.3-1.1c-0.7-2.3-1.3-4.7-2.4-6.9c-2.3-4.8-5.4-9.1-8.8-13.2c-0.2-0.3-1.1-1.1-1.5-1.5c-0.1-0.1-0.4-0.5-0.7-1
		c-0.7-1.3-0.7-2.7-0.7-3.1C78.6,126.3,76.9,120.6,77.8,119.5z M78.9,124.7c0.2,1.6,0.5,3.6,0.6,4.6c0.1,0.4,0.1,0.6,0.1,0.9
		c0,0.3,0.1,0.6,0.1,1.1c0.1,0.8,0.4,1.3,1,1.9c3.1,3,5.6,6.6,7.9,10.2c2.2,3.5,3.9,7.1,4.7,11.2c0.1,0.4,0.1,0.7,0.2,1.1
		c0.2,0.7,0,1.3-0.5,1.9c-0.5,0.7-1.1,1.4-1.3,2.2c-0.5,1.4-1.3,2.2-2.6,2.8c-1.1,0.5-1.3,0.8-1.1,2c0,0.3,0.1,0.5,0.3,0.8
		c0.4,0.7,1.2,0.9,1.8,0.3c0.7-0.6,1.4-1.3,2.1-2c0.4-0.4,0.8-0.9,1.2-1.3c0.4-0.4,0.9-0.5,1.5-0.4c0.2,0.1,0.5,0.2,0.6,0.4
		c0.6,1.1,1,2.3,1.1,3.6c0.2,1.9,0.5,3.7,0.8,5.6c0.1,0.7,0.4,1.3,0.7,1.9c0.2,0.4,0.5,0.7,1,0.7c0.5,0,0.6-0.5,0.8-0.8
		c0.4-1,0.2-2,0.2-2.9c-0.1-2-0.8-3.9-1.2-5.8c-0.1-0.4-0.1-0.8-0.1-1.2c0-0.1,0.2-0.3,0.3-0.3c0.2,0,0.4,0,0.5,0.1
		c0.2,0.2,0.2,0.4,0.3,0.6c0.4,1.7,0.9,3.4,1.2,5.1c0.2,1.2,0.2,2.5,0.2,3.7c0,0.7-0.4,1.4-0.6,2.2c0.4,0.4,0.9,0.3,1.5,0
		c0.6-0.4,1-1,1.1-1.7c0.3-1.9,0.3-3.8-0.1-5.7c-0.3-1-0.6-2.1-0.9-3.1c-0.1-0.3-0.1-0.7-0.2-1c0-0.1,0.2-0.3,0.3-0.3
		c0.2,0,0.4,0,0.5,0.1c0.2,0.2,0.3,0.4,0.3,0.6c1,2.7,1.6,5.5,1.3,8.4c-0.1,0.7-0.2,1.3-0.3,2.1c0.8-0.4,1.1-0.9,1.1-1.6
		c0-1.6,0-3.2-0.1-4.8c-0.2-1.3-0.6-2.5-1-3.8c0,0,0-0.1,0-0.1c-0.1-0.4-0.2-0.8,0.3-0.9c0.4-0.1,0.6,0.2,0.7,0.5
		c0.3,0.9,0.6,1.8,0.9,2.7c0.1,0.5,0.1,1,0.3,1.5c0.1,0.4,0.4,0.9,0.7,1.2c0.1,0.2,0.5,0.2,0.7,0.2c0.3-0.1,0.5-0.4,0.5-0.7
		c0-0.3-0.1-0.6-0.2-0.9c-1.7-3.5-3-7.2-4.6-10.8c-0.2-0.6-0.4-1.2-1.1-1.4c-0.3-0.1-0.4-0.5-0.6-0.9c-1-2-1.8-4.1-2.9-6.1
		c-2.3-4.4-4.8-8.8-7.7-12.8c-1.3-1.8-2.6-3.6-4-5.4c-3.9-4.9-4.1-5.4-6.4-7.9c-0.5-0.6-1.3-1.6-1.7-1.4
		C78.5,121.1,78.5,121.4,78.9,124.7z"/>
	<path id="BrazoIzq_x5F_color" class="st9" d="M78.6,120.8c0.9,0.7,1.5,1.4,2.1,2.1c1.3,1.6,2.6,3.4,4,4.9
		c4.2,4.6,7.6,9.9,10.8,15.2c1.6,2.7,3,5.5,4.4,8.4c0.5,1.1,0.9,2.2,1.4,3.3c0.1,0.3,0.3,0.7,0.6,0.7c0.6,0.2,0.8,0.7,1,1.1
		c0.5,1.1,0.9,2.1,1.3,3.2c1,2.3,1.9,4.6,2.9,6.8c0.2,0.6,0.5,1.1,0.7,1.7c0.1,0.4,0,0.8-0.4,1c-0.4,0.2-0.7,0-0.9-0.3
		c-0.3-0.3-0.5-0.7-0.6-1.2c-0.2-1.1-0.5-2.3-0.8-3.4c-0.1-0.4-0.4-0.8-0.6-1.2c-0.1-0.1-0.3-0.2-0.4-0.2c-0.2,0.1-0.4,0.3-0.4,0.4
		c0,0.3,0,0.6,0.1,0.8c1,2.5,1.2,5.2,1.1,7.9c0,0.8-0.1,1.6-1.1,2.1c0-0.2,0-0.4,0-0.5c0.6-2.8,0.5-5.5-0.4-8.2
		c-0.3-0.8-0.5-1.5-0.8-2.3c-0.1-0.2-0.4-0.3-0.6-0.4c-0.1,0.2-0.3,0.4-0.3,0.7c0,0.3,0.1,0.5,0.2,0.8c0.2,0.6,0.4,1.2,0.6,1.8
		c0.7,2,0.8,4,0.6,6c-0.1,1-0.3,1.9-1.2,2.5c-0.3,0.2-0.7,0.3-1.1,0.3c-0.4,0-0.5-0.3-0.3-0.7c0.5-0.8,0.6-1.7,0.6-2.6
		c0-1.8-0.2-3.7-0.8-5.4c-0.2-0.6-0.3-1.3-0.5-2c-0.1-0.2-0.1-0.5-0.2-0.7c-0.1-0.4-0.2-0.7-0.7-0.6c-0.5,0.1-0.4,0.5-0.4,0.9
		c0,0.2,0.1,0.5,0.1,0.7c0.2,0.9,0.5,1.8,0.7,2.7c0.4,1.6,0.6,3.2,0.6,4.9c0,0.6-0.3,1.2-0.5,1.7c-0.2,0.4-0.6,0.5-1,0.2
		c-0.3-0.2-0.6-0.6-0.7-0.9c-0.3-1-0.6-2.1-0.8-3.1c-0.3-1.7-0.4-3.5-0.7-5.2c-0.2-0.8-0.5-1.7-0.9-2.5c-0.1-0.2-0.4-0.4-0.7-0.4
		c-0.8-0.2-1.4,0.3-2,0.9c-0.8,0.8-1.5,1.6-2.3,2.4c-0.1,0.1-0.3,0.3-0.4,0.4c-0.6,0.4-1.2,0.4-1.7-0.2c-0.5-0.7-0.4-1.5-0.4-2.3
		c0-0.1,0.3-0.3,0.4-0.4c0.2-0.1,0.5-0.2,0.8-0.3c1.2-0.5,2-1.3,2.4-2.5c0.3-0.9,0.7-1.7,1.4-2.4c0.5-0.5,0.7-1.1,0.5-1.9
		c-0.5-2.8-1.3-5.5-2.6-8.1c-2.3-4.6-5.3-8.8-8.6-12.8c-0.6-0.7-1.2-1.3-1.8-1.9c-0.4-0.4-0.6-0.9-0.7-1.5c-0.4-3-0.8-6.1-1.2-9.1
		C78.5,121.9,78.6,121.5,78.6,120.8"/>
	<g id="Linea_1_">
	</g>
</g>
<g id="Cabeza">
	<g id="Color">
		<path id="Cabello_x5F_base_x5F_color" class="st13" d="M27.1,97.8c0.7,1.8,1.7,3.6,2.8,5.3c1.2,1.8,2.6,3.4,4.2,4.7
			c1.2,1,2.5,1.9,3.7,2.8c0.4,0.3,0.7,0.5,1.1,0.7c1.5,0.7,2.9,1.5,4.4,2.2c-0.2,0.5-0.6,0.7-1,0.8c-1.1,0.2-2.2,0.3-3.3-0.2
			c-0.5-0.2-0.9-0.5-1.1-1.1c-0.3-0.9-0.6-1-1.5-0.6c-1.7,0.8-4.3,0.4-5.7-1c-0.5-0.6-0.9-1.1-0.9-2c0-0.8-0.4-1-1.2-0.7
			c-0.6,0.2-1.2,0.5-1.8,0.7c-3,1-5.4-0.2-7.1-2.4c-0.2-0.2-0.3-0.6-0.3-0.9c-0.3-1.2-0.4-1.3-1.7-0.9c-1,0.3-2.1,0.5-3.2,0.4
			c-3-0.2-4.9-1.9-5.9-4.6c-0.6-1.8-0.8-3.6-0.1-5.4c0.1-0.2,0.1-0.6,0-0.8c-0.2-0.3-0.5-0.2-0.9-0.1c-2,0.5-4.7-0.5-5.8-2.3
			c-0.5-0.9-0.7-1.8-0.7-2.8c0-1.1,0.2-2.2,0.4-3.2c0.4-1.7,1.4-2.9,3.1-3.3c0.5-0.1,1-0.2,1-0.8c0-0.6-0.6-0.7-1-0.9
			c-0.7-0.3-1.3-0.5-2-0.8c-1-0.6-1.6-1.5-1.7-2.6c-0.2-2.6,0.5-4.8,2.3-6.7c0.7-0.8,1.6-1.3,2.8-1.1c0.2,0,0.4,0.1,0.6,0
			c0.2-0.1,0.4-0.3,0.5-0.6c0-0.1-0.2-0.4-0.3-0.6c-0.3-0.2-0.7-0.3-1-0.4c-1.7-0.7-3.3-1.8-4-3.6c-1-2.3-0.8-4.6,0.3-6.8
			C3,57.1,4,56.4,5.4,56.4c1.1,0,2.1,0.1,3.1,0.5C8.8,57,9,57.1,9.3,57.1c0.6,0,0.9-0.5,0.6-1c-0.1-0.2-0.3-0.3-0.4-0.4
			c-1.9-1.9-1.3-5.2-0.1-6.8c1.1-1.3,2.5-1.7,4.1-1c0.4,0.2,0.8,0.4,1.1,0.7c0.3,0.2,0.6,0.4,0.9,0.1c0.2-0.2,0.3-0.6,0.3-0.8
			c0-0.3-0.2-0.6-0.3-0.9c-0.4-0.9-0.8-1.7-1.2-2.6c-0.5-1.2-0.7-2.5-0.6-3.9c0.1-3.1,3.3-4.3,5.4-3.6c0.5,0.2,0.9,0.6,1.3,1
			c0.3,0.3,0.6,0.5,1.1,0.3c0.4-0.2,0.4-0.7,0.3-1.1c-0.5-1.6-0.5-3.2-0.5-4.9c0-2.2,1.5-3.9,3.8-4.3c2.1-0.4,4.1,0.1,5.9,1.1
			c1.2,0.7,2.3,1.5,3.5,2.3c0.1,0.1,0.2,0.1,0.3,0.2c0.4,0.3,0.8,0.6,1.3,0.3c0.5-0.3,0.3-0.8,0.2-1.3c-0.6-1.9-0.5-3.7,0.5-5.4
			c1.1-2.1,3.1-3.1,5.8-2.3c1.4,0.4,2.6,1.2,3.7,2.2c0.8,0.7,1.5,1.5,2.3,2.3c0.1,0.1,0.2,0.3,0.3,0.4c0.5,0.4,1.1,0.2,1.2-0.5
			c0.1-0.5,0-1,0-1.4c0.1-0.9,0.2-1.8,0.5-2.7c1-3,4-4.3,7-3.1c0.8,0.3,1.6,0.7,2.3,1.2c0.4,0.3,0.8,0.7,1.1,1.2c0.7,1,1.2,1,1.7,0
			c0.3-0.6,0.8-1,1.3-1.3c1.3-0.8,2.6-1.6,4.2-1.5c2.2,0,3.8,1,4.7,2.9c0.5,1,0.7,2.1,0.7,3.2c0,0.5,0,1,0,1.6
			c0.1,0.6,0.7,0.8,1.2,0.4c0.2-0.2,0.4-0.5,0.6-0.7c1.4-1.5,2.9-2.9,4.8-3.8c0.6-0.3,1.2-0.5,1.8-0.6c2.3-0.3,4,0.7,5,2.8
			c0.8,1.7,0.9,3.4,0.3,5.1c-0.2,0.5-0.4,0.9,0.1,1.3c0.5,0.4,1,0,1.4-0.3c1.1-0.8,2.1-1.6,3.2-2.3c1.4-0.9,2.9-1.4,4.5-1.5
			c1.1-0.1,2.2,0.1,3.3,0.6c1.4,0.7,2.2,1.9,2.3,3.5c0.1,1.7,0.1,3.4-0.4,5c-0.1,0.2-0.1,0.4-0.1,0.6c0,0.6,0.6,0.9,1.1,0.6
			c0.1-0.1,0.2-0.2,0.3-0.3c1.1-1.4,2.6-1.3,4-0.9c1.6,0.5,2.5,1.7,2.7,3.4c0.2,2-0.4,3.8-1.2,5.5c-0.2,0.5-0.5,0.9-0.7,1.4
			c-0.1,0.3-0.2,0.6-0.2,0.9c0.1,0.6,0.5,0.8,1,0.5c0.3-0.2,0.6-0.4,0.9-0.6c1.9-1,3.9-0.5,4.9,1.5c0.9,1.7,1.2,4.5-0.6,6.2
			c0,0-0.1,0.1-0.1,0.1c-0.2,0.2-0.4,0.5-0.2,0.8c0.2,0.4,0.5,0.4,0.9,0.3c0.9-0.2,1.8-0.5,2.8-0.6c2.2-0.2,3.6,0.7,4.3,2.8
			c0.5,1.4,0.5,2.8,0.3,4.3c-0.3,1.8-1.3,3.3-2.8,4.3c-0.7,0.5-1.6,0.8-2.4,1.2c-0.4,0.2-0.8,0.3-0.7,0.8c0.1,0.5,0.5,0.6,0.9,0.5
			c1.5-0.3,2.5,0.5,3.4,1.6c1.4,1.8,2,3.8,1.8,6.1c-0.1,1.2-0.6,2.2-1.7,2.8c-0.6,0.3-1.2,0.5-1.8,0.8c-0.3,0.1-0.6,0.2-0.9,0.4
			c-0.4,0.3-0.4,0.8,0.1,1.1c0.3,0.2,0.7,0.3,1,0.4c1.2,0.4,2,1.2,2.5,2.3c0.8,1.9,0.9,3.8,0.6,5.8c-0.2,1-0.8,1.8-1.7,2.4
			c-1.4,0.8-2.9,1.5-4.6,1c-0.2-0.1-0.6,0-0.7,0.2c-0.1,0.2-0.1,0.5-0.1,0.8c0.7,1.8,0.5,3.6-0.1,5.4c-1.1,3.4-4.1,5.1-7.6,4.5
			c-0.6-0.1-1.2-0.3-1.7-0.4c-0.8-0.2-1.1,0-1.3,0.7c-0.3,1.8-1.6,2.6-2.9,3.4c-1.4,0.8-2.9,0.8-4.4,0.3c-0.6-0.2-1.2-0.5-1.9-0.8
			c-0.8-0.3-1.2-0.1-1.2,0.7c0,1.4-1,2.2-2.1,2.8c-1,0.5-2.1,0.7-3.1,0.6c-0.5,0-1-0.3-1.5-0.5c-0.8-0.4-1.2-0.3-1.4,0.6
			c-0.2,0.6-0.6,1-1.2,1.2c-1.1,0.4-2.1,0.3-3.2,0.1c-0.4-0.1-0.7-0.3-1.2-0.6c1.2-0.7,2.3-1.3,3.4-1.8c3.5-1.6,6.3-4,8.8-6.9
			c1.9-2.2,3.2-4.7,4.3-7.3c2.6,0.9,5.1,0.5,7.6-0.3c1.2-0.4,2.2-1.3,3-2.3c1.2-1.7,1.7-3.5,1.4-5.6c-0.4-2.2-1.4-4.1-3.3-5.3
			c-1.7-1.1-3.4-0.8-5.2-0.2c-0.5,0.2-0.9,0.7-1.5,0.1c0,0-0.4,0.1-0.5,0.2c-0.3,0.5-0.6,0.7-1.1,0.8c-0.7,0-1.4,0.1-2-0.3
			c-0.9-0.6-1.5-1.4-1.5-2.6c0-0.6,0-1.2,0.2-1.8c0.5-1.5,0.9-3.1,1.9-4.4c0.1-0.2,0.2-0.4,0.3-0.6c0-0.5-0.5-0.8-0.9-0.6
			c-0.1,0.1-0.2,0.1-0.3,0.2c-2.3,1.9-5.3,0.9-5.8-2.1c-0.2-1-0.2-2-0.1-3c0.2-1.3,0.5-2.6,0.8-3.9c0.2-0.8,0.5-1.5,1.2-2
			c0.1-0.1,0.2-0.2,0.3-0.4c0.2-0.3,0.3-0.6,0-0.9c-0.2-0.2-0.6-0.2-0.9-0.2c-0.3,0.1-0.5,0.3-0.8,0.5c-0.9,0.7-1.9,0.9-2.8,0.4
			c-2.1-1-3.8-2.5-4.4-4.9c-0.2-0.7-0.1-1.2,0.2-1.8c0.4-0.7,0.7-1.4,1.1-2.1c0.6-1.2,0.8-2.5,0.5-3.9c-0.1-0.6,0.1-0.7,0.5-1
			c1.2-0.7,2.4-1.5,3.5-2.3c1.6-1.2,1.9-2.5,1.1-4.3c-0.5-1.2-1.3-2.3-2.4-3.1c-0.7-0.6-1.5-0.9-2.4-0.7c-0.9,0.2-1.8,0.4-2.6,0.7
			c-0.4,0.1-0.7,0.5-1,0.8c-0.1,0.1-0.1,0.3,0,0.4c0,0.1,0.3,0.1,0.4,0c0.7-0.6,1.6-0.8,2.5-1c1.1-0.2,2.1,0.1,2.8,0.9
			c0.8,0.9,1.4,1.9,1.8,3.1c0.2,0.7,0.1,1.3-0.5,1.7c-1.5,1.1-2.9,2.4-4.8,2.8c-0.6,0.1-0.9,0.5-0.6,1.1c0.2,0.6,0.5,1.2,0.7,1.8
			c0.1,0.2,0.1,0.5,0,0.8c-1,2.5-2.1,4.8-3.8,6.9c-1.7,2.1-4.1,2.3-6.2,0.5c-0.2-0.2-0.4-0.4-0.6-0.6c-0.6-0.4-1.1-0.2-1.3,0.4
			c0,0.2-0.1,0.3-0.1,0.5c-0.3,2.8-1.5,5.2-3.3,7.3c-1.1,1.3-2.4,2-4.2,2c-1.2,0-2.3-0.1-3.4-0.5c-1.3-0.5-2.2-1.3-2.8-2.4
			c-0.3-0.6-0.5-1.3-0.4-2c0-0.2,0.1-0.5,0-0.7c-0.1-0.3-0.3-0.6-0.6-0.7c-0.4-0.2-0.7,0.1-0.8,0.5c-0.6,2-2.4,2.6-4,3.3
			c-1,0.4-2,0.3-2.9-0.2c-2.7-1.3-4.7-4.1-3.8-8c0.1-0.3,0.3-0.6,0.5-0.9c0.3-0.4,0.5-0.8,0.1-1.2c-0.3-0.4-0.7-0.2-1.1-0.1
			c-1.3,0.6-2.5,0.4-3.7-0.3c-0.8-0.5-1.3-1.2-1.3-2.2c0-1.2,0.1-2.3,0.9-3.3c0.5-0.6,1-0.8,1.8-0.6c0.4,0.1,0.9,0.1,1.3,0.1
			c0.6,0,1-0.4,1-0.8c0.1-0.4-0.3-0.9-0.8-1c-0.5-0.1-1.1-0.1-1.6,0c-1.6,0.2-3.1-1.1-2.9-2.7c0.1-0.6,0.3-1.2,0.6-1.7
			c1.1-1.7,2.6-3,4.4-4c1-0.5,2.1-0.5,3.2-0.2c1,0.3,1.8,0.9,2.5,1.6c0.7,0.7,0.9,1.5,0.7,2.4c0,0.2,0,0.4,0.1,0.5
			c0.2-0.1,0.5-0.1,0.6-0.3c0.6-0.7,0.6-1.9,0.1-2.7c-1.6-2.8-5.7-3.8-8.4-2.2c-1.5,0.9-2.8,2.1-3.9,3.5c-0.3,0.4-0.6,0.9-0.8,1.3
			c-0.7,1.7-0.5,3.5,1.1,4.9c0.6,0.5,0.6,0.5,0.1,1c-1.1,1.2-1.4,2.7-1.3,4.2c0.1,1.7,1,2.9,2.6,3.6c0.2,0.1,0.4,0.1,0.6,0.2
			c0.3,0.1,0.4,0.3,0.3,0.5c-0.2,1-0.6,1.9-1.3,2.7c-0.8,0.9-1.7,1.6-2.8,2.2c-1.1,0.6-2.1,0.5-3.1-0.3c-0.3-0.2-0.6-0.4-0.9-0.5
			c-0.2,0-0.6,0.1-0.7,0.3c-0.1,0.2,0,0.5,0,0.8c0,0.1,0.2,0.3,0.3,0.4c0.8,0.5,1.1,1.4,1.3,2.2c0.5,1.8,0.9,3.6,0.8,5.4
			c0,0.6-0.1,1.2-0.3,1.8c-0.7,2.5-3.7,3.3-5.6,1.6c-0.1-0.1-0.2-0.2-0.3-0.2c-0.3-0.1-0.6-0.2-0.8,0c-0.2,0.1-0.2,0.5-0.2,0.7
			c0,0.2,0.2,0.3,0.3,0.5c1,1.6,1.6,3.3,2,5.1c0.2,1.2,0,2.2-0.9,3.1c-0.8,0.8-1.7,0.9-2.8,0.8c-0.4-0.1-0.7-0.4-0.9-0.7
			c-0.2-0.3-0.5-0.4-0.7-0.1c-0.3,0.3-0.5,0.2-0.8,0c-1-0.6-2-0.7-3.1-0.8c-1-0.1-1.9,0.2-2.7,0.8c-2.6,2-3.8,5-3,8.1
			c0.8,3.1,2.6,5.1,6.1,5.6c1,0.2,2.1,0.2,3.1,0.2C25.3,98.1,26.2,97.9,27.1,97.8"/>
		<g id="Cabello_x5F_luz_x5F_color">
			<path class="st14" d="M88.1,44.3c-0.3-1.2-1-2.2-1.8-3.1c-0.8-0.8-1.7-1.1-2.8-0.9c-0.2,0-0.5,0.1-0.7,0.2
				c0.1,1.3-0.1,2.6-0.8,3.7c-1.2,1.8-3.5,2.2-5.5,2.1c-1.9-0.1-3.7-0.6-5.4-1.5c0.3,2.9,0.3,6-2,8.1c-1,1-2.6,2-4.1,1.9
				c-1.1-0.1-1.7-0.8-2.2-1.6c-0.5,1.2-1.2,2.4-2,3.4c-1.7,2.4-4.7,5.2-7.8,3.5c-2.8-1.6-2.7-5.5-1.2-8c-0.7-0.3-1.4-0.9-1.9-1.5
				c-1.2-1.5-2.1-3.5-2-5.4c0.1-1.5,0.9-2.5,2.1-2.9c-0.1-0.2-0.3-0.4-0.5-0.6c-0.7-0.7-1.6-1.3-2.5-1.6c-1.1-0.3-2.1-0.4-3.1,0.2
				c-1.8,0.9-3.3,2.2-4.4,4c-0.3,0.5-0.5,1.1-0.6,1.7c-0.2,1.6,1.3,3,2.9,2.7c0.5-0.1,1.1-0.1,1.6,0c0.5,0.1,0.9,0.6,0.8,1
				c-0.1,0.5-0.4,0.8-1,0.8c-0.4,0-0.9,0-1.3-0.1c-0.8-0.2-1.3,0.1-1.8,0.6c-0.8,0.9-1,2.1-0.9,3.3c0,1,0.5,1.7,1.3,2.2
				c1.2,0.7,2.4,0.9,3.7,0.3c0.4-0.2,0.8-0.3,1.1,0.1c0.4,0.4,0.2,0.8-0.1,1.2c-0.2,0.3-0.4,0.6-0.5,0.9c-0.9,3.9,1.1,6.6,3.8,8
				c0.9,0.5,2,0.6,2.9,0.2c1.6-0.7,3.4-1.3,4-3.3c0.1-0.4,0.5-0.6,0.8-0.5c0.2,0.1,0.4,0.4,0.6,0.7c0.1,0.2,0,0.5,0,0.7
				c-0.1,0.7,0.1,1.4,0.4,2c0.6,1.2,1.6,2,2.8,2.4c1.1,0.4,2.3,0.4,3.4,0.5c1.7,0.1,3.1-0.6,4.2-2c1.8-2.1,3-4.5,3.3-7.3
				c0-0.2,0-0.3,0.1-0.5c0.2-0.7,0.7-0.8,1.3-0.4c0.2,0.2,0.4,0.4,0.6,0.6c2.1,1.8,4.5,1.6,6.2-0.5c1.7-2.1,2.8-4.5,3.8-6.9
				c0.1-0.2,0.1-0.5,0-0.8c-0.2-0.6-0.5-1.2-0.7-1.8c-0.2-0.6,0-1,0.6-1.1c1.9-0.3,3.3-1.7,4.8-2.8C88.2,45.6,88.3,45,88.1,44.3z"/>
			<path class="st14" d="M47.6,31c0.2-1.2,1-2.3,2-3c1.1-0.8,2.4-1.3,3.7-1.7c1.6-0.5,3.2-0.8,4.8-0.6c2.9,0.3,5.4,1.8,7.7,3.6
				c0.3-0.9,0.8-1.7,1.8-2c1-0.4,2.2-0.1,3.2,0.4c1.7,0.8,3.5,2.2,4.5,3.9c0.3-0.8,0.6-1.6,1.2-2.3c2.5-3,7.4-4.2,11-2.6
				c-0.1-0.4-0.3-0.8-0.4-1.2c-1-2.1-2.7-3.1-5-2.8c-0.6,0.1-1.2,0.3-1.8,0.6c-1.9,0.8-3.4,2.2-4.8,3.8c-0.2,0.2-0.4,0.5-0.6,0.7
				c-0.5,0.4-1.1,0.2-1.2-0.4c-0.1-0.5,0-1,0-1.6c0-1.1-0.2-2.2-0.7-3.2c-0.9-2-2.5-2.9-4.7-2.9c-1.6,0-2.9,0.8-4.2,1.5
				c-0.6,0.3-1,0.8-1.3,1.3c-0.6,1-1.1,0.9-1.7,0c-0.3-0.5-0.7-0.9-1.1-1.2c-0.7-0.5-1.5-0.9-2.3-1.2c-2.9-1.2-5.9,0.1-7,3.1
				c-0.3,0.9-0.4,1.8-0.5,2.7c-0.1,0.5,0,1,0,1.4c-0.1,0.7-0.7,0.9-1.2,0.5c-0.1-0.1-0.2-0.2-0.3-0.4c-0.7-0.8-1.5-1.6-2.3-2.3
				c-1.1-1-2.3-1.8-3.7-2.2c-2.7-0.8-4.7,0.2-5.8,2.3c-0.9,1.7-1.1,3.6-0.5,5.4c0.2,0.5,0.3,1-0.2,1.3c-0.5,0.3-0.9,0-1.3-0.3
				c-0.1-0.1-0.2-0.2-0.3-0.2c-1.2-0.8-2.3-1.6-3.5-2.3c-1.8-1-3.8-1.5-5.9-1.1c-2.2,0.4-3.7,2.1-3.8,4.3c0,1.6,0,3.3,0.5,4.9
				c0.1,0.4,0.1,0.8-0.3,1.1c-0.4,0.2-0.7,0-1.1-0.3c-0.4-0.4-0.8-0.8-1.3-1c-2.2-0.7-5.3,0.5-5.4,3.6c-0.1,1.3,0.1,2.6,0.6,3.9
				c0.4,0.9,0.8,1.7,1.2,2.6c0.1,0.3,0.3,0.6,0.3,0.9c0,0.3-0.1,0.6-0.3,0.8c-0.3,0.3-0.6,0.1-0.9-0.1c-0.4-0.2-0.7-0.5-1.1-0.7
				c-1.6-0.7-3-0.3-4.1,1c-1.3,1.5-1.8,4.9,0.1,6.8c0.1,0.1,0.3,0.3,0.4,0.4c0.3,0.5,0,1-0.6,1c-0.3,0-0.5-0.1-0.8-0.2
				c-1-0.4-2-0.5-3.1-0.5c-1.4,0-2.5,0.7-3.1,1.9c-1.1,2.2-1.2,4.5-0.3,6.8c0.6,1.4,1.6,2.3,2.9,3c-0.3-0.8-0.5-1.7-0.2-2.5
				c0.6-2.2,3-3.2,5-3.8c2-0.5,4.1-0.7,6.1-0.5c-0.9-2.5-1-5.4,1-7.5c1.9-2,4.8-2.5,7.5-2.4c-0.4-1.2-0.9-2.5-1.3-3.7
				c-0.3-1.1-0.5-2.2-0.3-3.3c0.2-1.3,0.9-2.4,1.8-3.3c0.6-0.6,1.3-1.2,1.9-1.7c0.6-0.5,1.3-1.1,2.1-1.4c1.2-0.5,2.3-0.4,3.3,0.2
				c0.1-1.1,0.5-2.1,1.1-3c1.6-2.4,4.4-3.9,7.2-4.6C42.6,30,45.3,29.9,47.6,31z"/>
		</g>
		<path id="Cara_x5F_base_x5F_color" class="st9" d="M26.5,96.6c-2.7,0.4-5.3,0.6-7.7-1c-1.6-1-3-3.9-2.3-6.4c0.4-1.3,0.9-2.6,2-3.5
			c1.4-1.2,3.7-1.3,5.3-0.2c0.4,0.3,0.7,0.6,1.1,0.9c0.1,0.1,0.3,0.3,0.4,0.5c0.2,0.3,0.5,0.5,0.8,0.3c0.2-0.1,0.2-0.5,0.3-0.9
			c0.2,0,0.5,0,0.8,0c2.3,0,4-1.7,4.1-4c0.1-1.3-0.2-2.6-0.7-3.9c-0.1-0.4-0.3-0.7-0.5-1.2c0.3,0,0.5-0.1,0.7-0.1
			c3,0.4,5.2-1.9,5.4-4.9c0.1-2.1-0.1-4.1-0.7-6c-0.1-0.3-0.1-0.5-0.2-0.9c0.2,0,0.3-0.1,0.4-0.1c1.2,0.1,2.2-0.4,3.1-1
			c1.9-1.3,3.4-2.9,3.9-5.3c0-0.2,0.2-0.4,0.5-0.5c0,0.8-0.1,1.6-0.1,2.3c-0.1,1.7,0.5,3.2,1.5,4.6c0.9,1.1,1.9,2,3.2,2.7
			c1.4,0.7,2.9,0.7,4.3,0.2c0.8-0.3,1.5-0.8,2.2-1.2c0.3-0.2,0.7-0.4,1-0.7c0.1,0.2,0.2,0.3,0.3,0.5c1.2,2.5,3.2,3.7,5.8,4.1
			c1,0.1,2.1,0.1,3.1,0c1.5-0.2,2.7-0.9,3.8-1.9c1.8-1.9,2.9-4.1,3.7-6.5c0.1-0.3,0.2-0.6,0.3-1c1.5,0.9,3,1.4,4.7,1.1
			c1.8-0.3,2.7-1.7,3.9-3c1.5,3.2,3.7,5.4,7.3,5.8c-0.2,1.2-0.6,2.4-0.7,3.6c-0.2,1.5-0.3,3.1,0.1,4.6c0.6,2.4,2.3,3.7,4.8,3.6
			c0.3,0,0.6,0,1.1,0c-0.2,0.4-0.3,0.8-0.4,1.2c-0.5,1.4-0.8,2.8-0.7,4.3c0.1,1.9,2.3,3.9,4.2,3.6c0.2,0,0.5,0,0.8,0
			c0,0.1-0.1,0.3-0.1,0.4c0.1,0.5,0.4,0.7,0.8,0.4c0.2-0.2,0.4-0.4,0.6-0.6c1.2-1.4,2.8-1.9,4.6-1.7c0.9,0.1,1.7,0.6,2.2,1.3
			c2.4,2.9,2.5,5.9,0.1,8.8c-0.4,0.5-1.1,1-1.7,1.2c-2.1,0.8-4.3,1-6.6,0.4c-0.1,0-0.1-0.1-0.2-0.1c0.5-1.6,1-3.1,1.5-4.7
			c0.1-0.3,0.2-0.5,0.4-0.7c0.4-0.6,0.6-1.5,1.6-1.5c1.2,0,2.3-0.1,3.3,0.9c0.2,0.2,0.3,0.5,0.5,0.3c0.2-0.1,0.2-0.5,0.1-0.7
			c-0.2-0.6-0.7-1-1.2-1.2c-1.1-0.5-2.3-0.5-3.4-0.4c-0.4,0-0.7,0.3-1,0.6c-0.8,0.9-1.4,1.9-1.8,3.1c-1,3.3-2.2,6.5-4,9.5
			c-1.3,2.1-3,4-4.9,5.6c-0.8,0.7-1.6,1.3-2.5,1.9c-0.8,0.5-1.7,1-2.6,1.5c-0.2,0.1-0.4,0.2-0.5,0.3c-2.4,1.7-5.2,2.1-8,2.6
			c-3,0.5-6,1-9,1.4c-2.6,0.4-5.2,0.4-7.8,0c-3.2-0.5-6.5-1-9.7-1.6c-1.2-0.2-2.3-0.5-3.5-0.8c-0.4-0.1-0.8-0.2-1.1-0.4
			c-4.7-2.1-9-4.9-12-9.2c-1.2-1.6-2.2-3.3-2.9-5.2c-0.7-2-1.6-3.9-2.1-6c-0.3-1-0.9-1.9-1.7-2.7c-0.2-0.2-0.6-0.5-0.9-0.5
			c-1.2-0.1-2.3-0.1-3.4,0.4c-0.7,0.3-1.2,0.7-1.3,1.5c0,0.2,0.1,0.3,0.2,0.5c0.2-0.1,0.4-0.1,0.5-0.2c1-1.1,2.3-1,3.6-0.9
			c0.2,0,0.5,0.3,0.7,0.5c0.4,0.6,0.8,1.1,1,1.7C25.6,93.4,26,94.9,26.5,96.6 M62.6,113.4c0.6,0,1.1,0,1.7,0c3.8,0,6.8-1.8,9.1-4.5
			c1.1-1.3,1.9-3,2.6-4.5c1.5-3.1,1.9-6.5,1.7-9.9c0-0.5-0.1-1-0.3-1.5c-0.1-0.3-0.5-0.6-0.8-0.6c-0.6-0.1-1.2-0.1-1.8,0.3
			c-3,2-6.3,3-9.9,3.2c-2.1,0.1-4.1-0.1-6.2-0.2c-0.8,0-1.5-0.2-2.3-0.2c-2,0-3.9-0.6-5.8-1.2c-0.6-0.2-1.2-0.5-1.7-0.9
			c-1.1-0.7-1.3-0.6-1.6,0.7c0,0.2,0,0.3-0.1,0.5c-0.4,2.4-0.2,4.8,0.3,7.1c0.4,2,1.1,4,2.3,5.6c1.2,1.5,2.5,2.8,3.8,4.1
			c0.9,0.9,2.1,1.4,3.4,1.7C58.9,113.3,60.8,113.5,62.6,113.4 M61.9,85.6c-1.3-0.1-2.6,0.3-3.6,1.2c-0.9,0.8-1.5,1.9-1.3,3.2
			c0,0.2,0.3,0.5,0.5,0.6c0.3,0.1,0.4-0.3,0.5-0.5c0.1-0.2,0.1-0.5,0.1-0.7c0.1-0.6,0.4-1.1,0.8-1.5c1.2-1,2.7-1.2,4.2-0.7
			c1.2,0.4,1.8,1.4,1.9,2.6c0,0,0,0.1,0,0.1c0.1,0.3,0.3,0.6,0.6,0.6c0.5,0,0.6-0.3,0.6-0.7c0-0.7-0.1-1.3-0.5-1.9
			C64.9,86.2,63.6,85.5,61.9,85.6 M51.3,81.9c-0.1-0.8-0.1-1.6-0.6-2.2c-0.6-0.8-1.5-0.9-2.1,0c-0.9,1.4-0.9,2.9-0.4,4.4
			c0.2,0.6,0.7,0.9,1.3,0.8c0.6,0,1-0.3,1.2-0.8C51,83.4,51.1,82.6,51.3,81.9 M72.3,81.9c0.1,0.7,0.2,1.4,0.4,2.1
			c0.2,0.6,0.7,1,1.4,1c0.7,0,1.1-0.4,1.3-1c0.4-1.3,0.3-2.7-0.3-4c-0.2-0.5-0.6-0.8-1.2-0.8c-0.6,0-1,0.4-1.2,0.9
			C72.5,80.6,72.5,81.2,72.3,81.9 M49.5,70.8c-0.3,0.1-0.5,0.1-0.6,0.1c-1.4,0.4-2.4,1.4-3.1,2.6c0,0.1-0.1,0.2-0.1,0.2
			c0.1,0.2,0.1,0.6,0.2,0.7c0.2,0.1,0.5,0,0.7-0.2c0.2-0.1,0.2-0.3,0.3-0.5c0.6-0.8,1.3-1.5,2.3-1.8c0.1,0,0.3-0.1,0.3-0.1
			c0.1-0.2,0.4-0.5,0.3-0.7C49.9,71.1,49.6,70.9,49.5,70.8 M74.2,70.8c-0.2,0.2-0.5,0.3-0.6,0.5c0,0.2,0.2,0.5,0.3,0.7
			C74,72,74.2,72,74.3,72c1.1,0.2,1.8,1,2.4,1.8c0.1,0.2,0.2,0.4,0.4,0.5c0.2,0.1,0.5,0.2,0.6,0.1c0.2-0.1,0.3-0.4,0.3-0.6
			c0-0.2-0.1-0.4-0.2-0.5c-0.6-0.8-1.2-1.6-2.1-2.1C75.2,71.1,74.8,70.9,74.2,70.8"/>
		<g id="Cara_x5F_sombra_x5F_color">
			<path class="st15" d="M88.2,65.3c-3.7-0.3-5.9-2.5-7.3-5.8c-1.1,1.3-2.1,2.7-3.9,3c-1.7,0.2-3.2-0.2-4.7-1.1
				c-0.1,0.4-0.2,0.7-0.3,1c-0.5,1.4-1,2.7-1.7,3.9c4.4,0.4,8.7,1.7,12.5,3.9c1.9,1.1,3.5,2.4,5,3.9c-0.1-0.2-0.2-0.4-0.2-0.7
				c-0.4-1.5-0.3-3.1-0.1-4.6C87.6,67.7,87.9,66.5,88.2,65.3z"/>
			<path class="st15" d="M92.3,77.2c-1,0-1.8-0.2-2.5-0.6c1,1.3,1.9,2.8,2.6,4.3c0.1-0.9,0.3-1.7,0.6-2.6c0.1-0.4,0.3-0.7,0.4-1.2
				C93,77.2,92.6,77.2,92.3,77.2z"/>
			<path class="st15" d="M55.4,66.3c-0.4,0.2-0.7,0.5-1,0.7c-0.7,0.4-1.4,0.9-2.2,1.2c-1.4,0.6-2.9,0.5-4.3-0.2
				c-1.3-0.6-2.3-1.5-3.2-2.7c-1-1.4-1.6-2.9-1.5-4.6c0-0.8,0.1-1.6,0.1-2.3c-0.3,0.1-0.4,0.3-0.5,0.5c-0.5,2.4-1.9,4-3.9,5.3
				c-0.9,0.6-1.9,1.1-3.1,1c-0.1,0-0.3,0.1-0.4,0.1c0.1,0.3,0.1,0.6,0.2,0.9c0.6,2,0.8,4,0.7,6c-0.1,3.1-2.4,5.3-5.4,4.9
				c-0.2,0-0.4,0-0.7,0.1c0.2,0.5,0.3,0.8,0.5,1.2c0.5,1.2,0.7,2.5,0.7,3.9c-0.1,2.3-1.8,4-4.1,4c-0.3,0-0.6,0-0.8,0
				c-0.1,0.4-0.1,0.7-0.3,0.9c-0.3,0.2-0.6,0-0.8-0.3c-0.1-0.2-0.2-0.3-0.4-0.5c-0.3-0.3-0.7-0.7-1.1-0.9c-1.6-1.1-4-1-5.3,0.2
				c-1,0.9-1.6,2.2-2,3.5c-0.7,2.5,0.7,5.4,2.3,6.4c2.4,1.5,5,1.4,7.7,1c-0.5-1.7-1-3.2-1.5-4.8c-0.2-0.6-0.7-1.2-1-1.7
				c-0.1-0.2-0.4-0.4-0.7-0.5c-1.3-0.1-2.6-0.2-3.6,0.9c-0.1,0.1-0.3,0.1-0.5,0.2c-0.1-0.2-0.2-0.4-0.2-0.5c0.1-0.7,0.6-1.2,1.3-1.5
				c1.1-0.5,2.3-0.5,3.4-0.4c0.3,0,0.7,0.3,0.9,0.5c0.8,0.8,1.4,1.7,1.7,2.7c0.5,2.1,1.4,4,2.1,6c0.7,1.9,1.7,3.6,2.9,5.2
				c2.7,3.7,6.3,6.3,10.3,8.3c-0.2-0.5-0.5-1-0.7-1.6c-2.6-6-4.6-12.5-4-19.1c0.3-3.2,1.3-6.2,2.9-8.9c1.6-2.8,3.9-5.1,6.4-7.1
				c-0.1,0-0.3,0.1-0.4,0c-0.2-0.1-0.2-0.5-0.2-0.7c0-0.1,0-0.2,0.1-0.2c0.7-1.2,1.7-2.2,3.1-2.6c0.2,0,0.3-0.1,0.6-0.1
				c0.1,0.1,0.4,0.2,0.5,0.4c0,0.2-0.2,0.5-0.3,0.7c-0.1,0.1-0.2,0.1-0.3,0.1c-1.1,0.2-1.7,1-2.3,1.8c0,0,0,0.1-0.1,0.1
				c0.1-0.1,0.2-0.1,0.3-0.2c2.9-2.2,6-4.2,9.4-5.5c-0.3-0.4-0.6-0.9-0.9-1.4C55.6,66.6,55.5,66.5,55.4,66.3z"/>
		</g>
		<path id="Boca_x5F_color" class="st16" d="M53.9,109.7c-3.1-2.6-4.9-5.8-5.5-9.8c-0.3-1.9-0.2-3.7-0.2-5.6c0.2,0,0.3,0,0.3,0
			c1.2,0.9,2.6,1.4,4.1,1.7c0.8,0.2,0.8,0.2,0.9,1c0.1,0.9,0.3,1.8,0.4,2.7c0.2,1.3,1.1,2,2.2,2.5c1.2,0.5,2.5,0.6,3.8,0.4
			c1.3-0.2,2.1-1,2.3-2.2c0.1-0.4,0.1-0.9,0.1-1.3c0-0.5,0-1,0.1-1.6c0-0.2,0.2-0.3,0.3-0.4c0.1,0.1,0.3,0.3,0.3,0.4
			c0,0.5,0,1,0,1.6c0,0.6,0.1,1.2,0.2,1.8c0.2,1,0.8,1.6,1.7,2c1.2,0.5,2.4,0.5,3.5,0.3c0.5-0.1,0.9-0.5,1.3-0.8
			c1-1.1,1.4-2.5,1.4-4c0-0.6,0-1.2,0-1.8c0-0.4,0.1-0.7,0.5-0.8c1.4-0.5,2.8-1,3.9-2c0.3-0.2,0.5-0.1,0.7,0.2
			c0.1,0.3,0.1,0.5,0.1,0.8c0.1,3-0.2,5.9-1.4,8.7c-0.7,1.7-1.7,3.3-2.8,4.9c-0.9,1.3-1.2,1.3-2.6,0.6c-3.9-2-8.1-2.3-12.3-1.2
			C56.1,107.9,55,108.7,53.9,109.7"/>
		<path id="Lengua" class="st17" d="M54.7,110.3c1.4-1.3,3-1.7,4.6-2c2.7-0.5,5.4,0.1,8,0.7c0.9,0.2,1.6,0.8,2.5,1.2
			c-2.1,1.6-4.4,2.1-6.9,2c-1.9-0.1-3.8-0.1-5.7-0.6C56.4,111.5,55.5,111.2,54.7,110.3"/>
		<path id="DienteIzq_x5F_colot" class="st7" d="M70.2,96.4c0.2,1.4,0.1,2.8-0.5,4.2c-0.5,1.1-1.2,1.8-2.5,1.6
			c-0.5-0.1-1.1-0.1-1.6-0.3c-0.9-0.2-1.4-0.9-1.5-1.8c0-1,0-2,0-2.9C66.1,96.9,68.1,96.6,70.2,96.4"/>
		<path id="DienteDer_x5F_color" class="st7" d="M56.2,96.5c1.5,0.2,3.1,0.3,4.6,0.4c0.5,0,0.6,0.2,0.6,0.7
			c-0.1,0.8-0.1,1.6-0.2,2.4c-0.1,0.9-0.6,1.3-1.4,1.5c-1.3,0.3-2.6,0-3.8-0.6c-0.4-0.2-0.8-0.6-0.9-0.9c-0.3-1-0.5-2-0.6-3
			c-0.1-0.4,0.1-0.6,0.5-0.5C55.4,96.5,55.8,96.5,56.2,96.5C56.2,96.5,56.2,96.5,56.2,96.5"/>
		<g id="MejillaIzq_x5F_color">
			<defs>
				<path id="SVGID_1_" d="M79.2,92.7c0,3.9,3.2,7.1,7.1,7.1c3.9,0,7.1-3.2,7.1-7.1c0-3.9-3.2-7.1-7.1-7.1
					C82.4,85.6,79.2,88.8,79.2,92.7"/>
			</defs>
			<clipPath id="SVGID_2_">
				<use xlink:href="#SVGID_1_"  style="overflow:visible;"/>
			</clipPath>
			<defs>
				<filter id="Adobe_OpacityMaskFilter" filterUnits="userSpaceOnUse" x="79.2" y="85.6" width="14.2" height="14.2">
					<feColorMatrix  type="matrix" values="1 0 0 0 0  0 1 0 0 0  0 0 1 0 0  0 0 0 1 0"/>
				</filter>
			</defs>
			<mask maskUnits="userSpaceOnUse" x="79.2" y="85.6" width="14.2" height="14.2" id="SVGID_3_">
				<g class="st18">
					
						<radialGradient id="SVGID_4_" cx="-2.579730e-05" cy="246.109" r="1" gradientTransform="matrix(7.0979 0 0 -7.0979 86.3097 1839.5776)" gradientUnits="userSpaceOnUse">
						<stop  offset="0" style="stop-color:#FFFFFF"/>
						<stop  offset="0.133" style="stop-color:#FBFBFB"/>
						<stop  offset="0.2596" style="stop-color:#F0F0F0"/>
						<stop  offset="0.3835" style="stop-color:#DDDDDD"/>
						<stop  offset="0.5059" style="stop-color:#C2C2C2"/>
						<stop  offset="0.6273" style="stop-color:#9F9F9F"/>
						<stop  offset="0.7478" style="stop-color:#747474"/>
						<stop  offset="0.8676" style="stop-color:#414141"/>
						<stop  offset="0.9841" style="stop-color:#080808"/>
						<stop  offset="1" style="stop-color:#000000"/>
					</radialGradient>
					<rect x="79.2" y="85.6" class="st19" width="14.2" height="14.2"/>
				</g>
			</mask>
			
				<radialGradient id="SVGID_5_" cx="-2.579730e-05" cy="246.109" r="1" gradientTransform="matrix(7.0979 0 0 -7.0979 86.3097 1839.5776)" gradientUnits="userSpaceOnUse">
				<stop  offset="0" style="stop-color:#D68B73"/>
				<stop  offset="0.3594" style="stop-color:#D68F74"/>
				<stop  offset="0.7004" style="stop-color:#D69A76"/>
				<stop  offset="1" style="stop-color:#D6AB79"/>
			</radialGradient>
			<rect x="79.2" y="85.6" class="st20" width="14.2" height="14.2"/>
		</g>
		<g id="MejillaDer_x5F_color">
			<defs>
				<path id="SVGID_6_" d="M29.3,92.7c0,3.9,3.2,7.1,7.1,7.1c3.9,0,7.1-3.2,7.1-7.1c0-3.9-3.2-7.1-7.1-7.1
					C32.5,85.6,29.3,88.8,29.3,92.7"/>
			</defs>
			<clipPath id="SVGID_7_">
				<use xlink:href="#SVGID_6_"  style="overflow:visible;"/>
			</clipPath>
			<defs>
				<filter id="Adobe_OpacityMaskFilter_1_" filterUnits="userSpaceOnUse" x="29.3" y="85.6" width="14.2" height="14.2">
					<feColorMatrix  type="matrix" values="1 0 0 0 0  0 1 0 0 0  0 0 1 0 0  0 0 0 1 0"/>
				</filter>
			</defs>
			<mask maskUnits="userSpaceOnUse" x="29.3" y="85.6" width="14.2" height="14.2" id="SVGID_8_">
				<g class="st21">
					
						<radialGradient id="SVGID_9_" cx="4.245805e-05" cy="246.109" r="1" gradientTransform="matrix(7.0979 0 0 -7.0979 36.4177 1839.5776)" gradientUnits="userSpaceOnUse">
						<stop  offset="0" style="stop-color:#FFFFFF"/>
						<stop  offset="0.133" style="stop-color:#FBFBFB"/>
						<stop  offset="0.2596" style="stop-color:#F0F0F0"/>
						<stop  offset="0.3835" style="stop-color:#DDDDDD"/>
						<stop  offset="0.5059" style="stop-color:#C2C2C2"/>
						<stop  offset="0.6273" style="stop-color:#9F9F9F"/>
						<stop  offset="0.7478" style="stop-color:#747474"/>
						<stop  offset="0.8676" style="stop-color:#414141"/>
						<stop  offset="0.9841" style="stop-color:#080808"/>
						<stop  offset="1" style="stop-color:#000000"/>
					</radialGradient>
					<rect x="29.3" y="85.6" class="st22" width="14.2" height="14.2"/>
				</g>
			</mask>
			
				<radialGradient id="SVGID_10_" cx="4.245805e-05" cy="246.109" r="1" gradientTransform="matrix(7.0979 0 0 -7.0979 36.4177 1839.5776)" gradientUnits="userSpaceOnUse">
				<stop  offset="0" style="stop-color:#D68B73"/>
				<stop  offset="0.3594" style="stop-color:#D68F74"/>
				<stop  offset="0.7004" style="stop-color:#D69A76"/>
				<stop  offset="1" style="stop-color:#D6AB79"/>
			</radialGradient>
			<rect x="29.3" y="85.6" class="st23" width="14.2" height="14.2"/>
		</g>
	</g>
	<g id="Linea">
		<path id="Cabeza_x5F_linea" class="st10" d="M89.1,245.8 M52.6,115.3c-0.5,0-1.1-0.1-1.3-0.2c-2-0.4-3.9-0.7-5.9-1.1
			c-0.3-0.1-0.6-0.1-0.8,0.2c-1.1,1.6-2.8,1.6-4.4,1.4c-1.2-0.1-2.4-0.4-3.1-1.6c-0.2-0.4-0.5-0.3-0.8-0.2c-2,0.6-4,0.2-5.7-0.9
			c-1-0.6-1.6-1.6-2.1-2.7c-0.4,0.1-0.7,0.2-1,0.4c-4,1.5-7.8-0.9-9.1-3.7c-0.2-0.4-0.4-0.4-0.7-0.3c-0.6,0.1-1.2,0.3-1.8,0.3
			c-4.1,0.3-7.4-2.1-8.5-6.1C6.9,99.5,6.9,98.3,7,97c0-0.8,0-0.7-0.8-0.8c-0.6-0.1-1.3-0.2-1.9-0.4c-2.3-0.8-4.3-2.4-4.2-5.8
			c0-1.2,0.2-2.5,0.5-3.7c0.4-1.6,1.2-2.9,2.9-3.8C3,82.2,2.7,82,2.3,81.8C0.9,81,0.2,79.7,0,78.1c-0.3-3.5,1.1-6.8,4.1-8.8
			c-0.3-0.3-0.6-0.5-0.9-0.7c-1.9-1.5-3-3.4-2.9-5.9c0-1,0-2.1,0.3-3.1c0.7-3.2,2.8-4.7,6-4.4c0.3,0,0.6,0.1,0.8,0.1
			C7.2,54.1,7,53.1,7,52.1c0-1.6,0.6-3.1,1.8-4.3c1.1-1.1,2.5-1.6,4-1.3c0.2,0,0.5,0.1,0.8,0.2c-0.1-0.3-0.1-0.5-0.2-0.7
			c-0.6-1.3-0.9-2.6-1.1-4c-0.6-4.2,2.6-7.3,6.8-6.5c0.2,0,0.5,0.1,0.8,0.2c0-0.8,0-1.5,0-2.2c0-0.8,0-1.6,0.1-2.4
			c0.5-2.5,2.7-4.2,5.3-4.5c2.4-0.3,4.7,0.3,6.8,1.6c0.7,0.4,1.3,0.9,2.1,1.4c0-0.4,0.1-0.8,0.1-1.1c0-2.2,0.9-4,2.4-5.5
			c1.9-1.9,4.2-2.1,6.6-1.2c1.7,0.6,3.1,1.6,4.4,2.8c0.2,0.2,0.4,0.4,0.7,0.6c0.3-0.3,0.3-0.7,0.4-1.1c0.3-1.8,1.2-3.4,2.7-4.5
			c1.8-1.4,3.9-1.5,6.1-0.9c1.4,0.4,2.7,1.1,3.8,2.1c0.4,0.4,0.7,0.4,1.1,0c1.3-1.1,2.8-2,4.4-2.3c4.4-0.8,7.3,1.7,8.1,5.6
			c0.1,0.3,0.1,0.7,0.2,1.2c0.6-0.5,1.1-1,1.7-1.4c1-0.6,1.9-1.3,3-1.8c3.5-1.6,6.8-0.4,8.6,3c0.6,1.1,0.9,2.2,0.9,3.4
			c0,0.3,0,0.6,0,1.1c0.5-0.3,0.8-0.5,1.1-0.7c1.1-0.8,2.3-1.4,3.6-1.8c1.8-0.6,3.7-0.7,5.5-0.1c2.4,0.7,4.1,2.9,4.1,5.4
			c0,0.9,0,1.8,0,2.6c0,0.2,0,0.5,0,0.7c0.8-0.1,1.5-0.2,2.2-0.1c3.1,0.1,5.3,2.3,5.4,5.4c0,1.7-0.4,3.2-1,4.8
			c-0.1,0.3-0.3,0.6-0.4,1.1c0.3,0,0.5,0,0.7-0.1c2.3-0.6,4.1,0.5,5.2,2.5c0.9,1.7,1.1,3.5,0.6,5.3c-0.1,0.3-0.1,0.5-0.2,0.8
			c0.6,0,1.2-0.1,1.7-0.1c2.2,0,3.8,0.9,4.7,2.9c1.1,2.5,1.2,5.2,0.1,7.8c-0.5,1.2-1.3,2.1-2.3,2.8c-0.3,0.2-0.5,0.4-0.7,0.6
			c0.8,0.8,1.6,1.5,2.2,2.4c1.4,1.9,1.9,4.2,1.8,6.6c-0.1,1.6-0.9,2.8-2.2,3.6c-0.3,0.2-0.7,0.4-1,0.6c0,0.1,0,0.2,0.1,0.2
			c1.9,1.1,2.6,2.9,2.9,5c0.2,1.1,0.1,2.1,0.1,3.2c0,1.9-1.1,3.2-2.6,4.2c-1.1,0.7-2.2,1-3.5,1.2c-0.7,0.1-0.7,0.1-0.7,0.9
			c0,1.2,0.2,2.4-0.2,3.6c-0.3,0.9-0.6,1.8-1.1,2.6c-1.7,2.8-4.8,4.2-8.1,3.6c-0.1,0-0.2-0.1-0.4-0.1c-0.4-0.1-0.8-0.3-1.2-0.1
			c-0.2,0.1-0.3,0.6-0.5,0.9c-1.8,2.6-4.9,4.4-8.5,3.2c-0.4-0.1-0.8-0.3-1.3-0.5c-0.1,0.2-0.3,0.5-0.4,0.7c-0.7,1.4-1.8,2.3-3.3,2.8
			c-1.4,0.4-2.9,0.7-4.3,0.1c-0.3-0.1-0.4,0-0.6,0.2c-1,1.4-2.5,1.6-4,1.7c-0.3,0-0.6-0.1-0.8-0.1c-1.1,0-1.9-0.4-2.6-1.3
			c-0.2-0.2-0.4-0.5-0.8-0.4c-2.2,0.4-4.3,0.8-6.5,1.3c-0.1,0-1.4,0.4-2.2,0.5 M27.1,97.8c-0.9,0.2-1.8,0.4-2.6,0.4
			c-1,0-2.1-0.1-3.1-0.2c-3.6-0.6-5.3-2.5-6.1-5.6c-0.8-3.1,0.4-6.1,3-8.1c0.8-0.6,1.7-0.9,2.7-0.8c1.1,0.1,2.2,0.2,3.1,0.8
			c0.3,0.2,0.5,0.3,0.8,0c0.2-0.3,0.5-0.1,0.7,0.1c0.2,0.4,0.5,0.7,0.9,0.7c1,0.1,2,0,2.8-0.8c0.9-0.9,1.1-1.9,0.9-3.1
			c-0.3-1.8-1-3.5-2-5.1c-0.1-0.2-0.3-0.3-0.3-0.5c0-0.3,0.1-0.6,0.2-0.7c0.2-0.1,0.5,0,0.8,0c0.1,0,0.2,0.2,0.3,0.2
			c2,1.7,4.9,0.8,5.6-1.6c0.2-0.6,0.2-1.2,0.3-1.8c0.1-1.9-0.3-3.7-0.8-5.4c-0.2-0.9-0.5-1.7-1.3-2.2c-0.1-0.1-0.3-0.2-0.3-0.4
			c-0.1-0.3-0.1-0.6,0-0.8c0.1-0.2,0.5-0.3,0.7-0.3c0.3,0.1,0.7,0.3,0.9,0.5c1,0.8,2,0.9,3.1,0.3c1.1-0.6,2-1.3,2.8-2.2
			c0.7-0.8,1-1.7,1.3-2.7c0.1-0.3,0-0.5-0.3-0.5C41,58,40.8,58,40.6,57.9C39,57.2,38.1,56,38,54.3c-0.1-1.5,0.2-3,1.3-4.2
			c0.4-0.5,0.4-0.5-0.1-1c-1.7-1.3-1.8-3.2-1.1-4.9c0.2-0.5,0.5-0.9,0.8-1.3c1.1-1.4,2.4-2.6,3.9-3.5c2.7-1.7,6.8-0.6,8.4,2.2
			c0.5,0.8,0.5,2-0.1,2.7c-0.1,0.2-0.4,0.2-0.6,0.3c0-0.2-0.1-0.4-0.1-0.5c0.2-0.9,0.1-1.8-0.7-2.4c-0.7-0.7-1.6-1.3-2.5-1.6
			c-1.1-0.3-2.1-0.4-3.2,0.2c-1.8,0.9-3.3,2.2-4.4,4c-0.3,0.5-0.5,1.1-0.6,1.7c-0.2,1.6,1.3,3,2.9,2.7c0.5-0.1,1.1-0.1,1.6,0
			c0.5,0.1,0.9,0.6,0.8,1c-0.1,0.5-0.4,0.8-1,0.8c-0.4,0-0.9,0-1.3-0.1c-0.8-0.2-1.3,0.1-1.8,0.6c-0.8,0.9-1,2.1-0.9,3.3
			c0,1,0.5,1.7,1.3,2.2c1.2,0.7,2.4,0.9,3.7,0.3c0.4-0.2,0.8-0.3,1.1,0.1c0.4,0.4,0.2,0.8-0.1,1.2c-0.2,0.3-0.4,0.6-0.5,0.9
			c-0.9,3.9,1.1,6.6,3.8,8c0.9,0.5,2,0.6,2.9,0.2c1.6-0.7,3.4-1.3,4-3.3c0.1-0.4,0.5-0.6,0.8-0.5c0.2,0.1,0.4,0.4,0.6,0.7
			c0.1,0.2,0,0.5,0,0.7c-0.1,0.7,0,1.4,0.4,2c0.6,1.2,1.6,2,2.8,2.4c1.1,0.4,2.3,0.4,3.4,0.5c1.7,0.1,3.1-0.6,4.2-2
			c1.8-2.1,3-4.5,3.3-7.3c0-0.2,0-0.3,0.1-0.5c0.2-0.7,0.7-0.8,1.3-0.4c0.2,0.2,0.4,0.4,0.6,0.6c2.1,1.8,4.5,1.6,6.2-0.5
			c1.7-2.1,2.8-4.5,3.8-6.9c0.1-0.2,0.1-0.5,0-0.8c-0.2-0.6-0.5-1.2-0.7-1.8c-0.2-0.6,0-1,0.6-1.1c1.9-0.3,3.3-1.7,4.8-2.8
			c0.6-0.4,0.7-1,0.5-1.7c-0.3-1.2-1-2.2-1.8-3.1c-0.8-0.8-1.7-1.1-2.8-0.9c-0.9,0.2-1.8,0.4-2.5,1c-0.1,0.1-0.3,0.1-0.4,0
			c-0.1-0.1-0.1-0.3,0-0.4c0.3-0.3,0.6-0.7,1-0.8c0.9-0.3,1.7-0.6,2.6-0.7c0.9-0.2,1.7,0.2,2.4,0.7c1.1,0.8,1.8,1.9,2.4,3.1
			c0.8,1.8,0.5,3.1-1.1,4.3c-1.1,0.9-2.3,1.6-3.5,2.4c-0.4,0.3-0.6,0.4-0.5,1c0.3,1.3,0.1,2.6-0.5,3.9c-0.3,0.7-0.7,1.5-1.1,2.1
			c-0.4,0.6-0.4,1.2-0.2,1.8c0.6,2.4,2.3,3.9,4.4,4.9c1,0.5,1.9,0.3,2.8-0.4c0.2-0.2,0.5-0.5,0.8-0.5c0.3-0.1,0.6,0,0.9,0.2
			c0.3,0.2,0.2,0.6,0,0.9c-0.1,0.1-0.2,0.3-0.3,0.4c-0.7,0.5-1,1.2-1.2,2c-0.3,1.3-0.6,2.6-0.8,3.9c-0.1,1-0.1,2,0.1,3
			c0.5,2.9,3.5,4,5.8,2.1c0.1-0.1,0.2-0.2,0.3-0.2c0.4-0.2,0.9,0.1,0.9,0.6c0,0.2-0.1,0.5-0.3,0.6c-1,1.3-1.4,2.8-1.9,4.4
			c-0.2,0.6-0.2,1.2-0.2,1.8c0,1.1,0.6,2,1.5,2.6c0.6,0.4,1.3,0.4,2,0.3c0.5,0,0.9-0.3,1.1-0.8c0.1-0.1,0.4-0.3,0.5-0.2
			c0.5,0.6,1,0.1,1.5-0.1c1.7-0.7,3.5-0.9,5.2,0.2c1.9,1.3,2.9,3.1,3.3,5.3c0.3,2-0.2,3.9-1.4,5.6c-0.8,1.1-1.7,1.9-3,2.3
			c-2.5,0.8-5,1.1-7.6,0.3c-1.1,2.6-2.5,5.1-4.3,7.3c-2.5,2.9-5.3,5.3-8.8,6.9c-1.1,0.5-2.1,1.1-3.4,1.8c0.5,0.3,0.8,0.6,1.2,0.6
			c1.1,0.2,2.1,0.2,3.2-0.1c0.6-0.2,1-0.6,1.2-1.2c0.3-0.9,0.6-0.9,1.4-0.6c0.5,0.2,1,0.5,1.5,0.5c1.1,0.1,2.2-0.1,3.1-0.6
			c1.1-0.6,2-1.4,2.1-2.8c0-0.8,0.4-1,1.2-0.7c0.6,0.2,1.2,0.6,1.9,0.8c1.5,0.5,3,0.5,4.4-0.3c1.3-0.8,2.7-1.6,2.9-3.4
			c0.1-0.7,0.5-0.9,1.3-0.7c0.6,0.1,1.2,0.3,1.7,0.4c3.5,0.6,6.5-1.1,7.6-4.5c0.6-1.8,0.8-3.6,0.1-5.4c-0.1-0.2-0.1-0.6,0.1-0.8
			c0.1-0.2,0.5-0.2,0.7-0.2c1.7,0.5,3.2-0.1,4.6-1c0.9-0.5,1.5-1.4,1.7-2.4c0.3-2,0.2-3.9-0.6-5.8c-0.5-1.1-1.3-1.9-2.5-2.3
			c-0.3-0.1-0.7-0.2-1-0.4c-0.5-0.3-0.5-0.7-0.1-1.1c0.3-0.2,0.6-0.3,0.9-0.4c0.6-0.3,1.2-0.5,1.8-0.8c1.1-0.6,1.7-1.6,1.7-2.8
			c0.2-2.2-0.5-4.3-1.8-6.1c-0.8-1.1-1.9-1.9-3.4-1.6c-0.4,0.1-0.8,0-0.9-0.5c-0.1-0.5,0.3-0.6,0.7-0.8c0.8-0.4,1.6-0.7,2.4-1.2
			c1.6-1,2.6-2.4,2.8-4.3c0.2-1.4,0.1-2.9-0.3-4.3c-0.7-2.1-2.1-3-4.3-2.8c-0.9,0.1-1.9,0.4-2.8,0.6c-0.4,0.1-0.7,0.1-0.9-0.3
			c-0.2-0.3,0-0.6,0.2-0.8c0,0,0.1-0.1,0.1-0.1c1.9-1.7,1.5-4.5,0.6-6.2c-1-1.9-3-2.5-4.9-1.5c-0.3,0.2-0.6,0.4-0.9,0.6
			c-0.5,0.3-1,0.1-1-0.5c0-0.3,0-0.6,0.2-0.9c0.2-0.5,0.5-0.9,0.7-1.4c0.8-1.8,1.4-3.6,1.2-5.5c-0.2-1.7-1.1-2.8-2.7-3.4
			c-1.5-0.5-2.9-0.5-4,0.9c-0.1,0.1-0.2,0.2-0.3,0.3c-0.5,0.3-1.1,0-1.1-0.6c0-0.2,0-0.4,0.1-0.6c0.5-1.6,0.5-3.3,0.4-5
			c-0.1-1.6-0.9-2.8-2.3-3.5c-1-0.5-2.1-0.7-3.3-0.6c-1.6,0.1-3.1,0.6-4.5,1.5c-1.1,0.7-2.2,1.5-3.2,2.3c-0.4,0.3-0.9,0.7-1.4,0.3
			c-0.5-0.4-0.3-0.8-0.1-1.3c0.6-1.8,0.5-3.5-0.3-5.1c-1-2.1-2.7-3.1-5-2.8c-0.6,0.1-1.2,0.3-1.8,0.6c-1.9,0.8-3.4,2.2-4.8,3.8
			c-0.2,0.2-0.4,0.5-0.6,0.7c-0.5,0.4-1.1,0.2-1.2-0.4c-0.1-0.5,0-1,0-1.6c0-1.1-0.2-2.2-0.7-3.2c-0.9-2-2.5-2.9-4.7-2.9
			c-1.6,0-2.9,0.8-4.2,1.5c-0.6,0.3-1,0.8-1.3,1.3c-0.6,1-1.1,0.9-1.7,0c-0.3-0.5-0.7-0.9-1.1-1.2c-0.7-0.5-1.5-0.9-2.3-1.2
			c-2.9-1.2-5.9,0.1-7,3.1c-0.3,0.9-0.4,1.8-0.5,2.7c-0.1,0.5,0,1,0,1.4c-0.1,0.7-0.7,0.9-1.2,0.5c-0.1-0.1-0.2-0.2-0.3-0.4
			c-0.7-0.8-1.5-1.6-2.3-2.3c-1.1-1-2.3-1.8-3.7-2.2c-2.7-0.8-4.7,0.2-5.8,2.3c-0.9,1.7-1.1,3.6-0.5,5.4c0.2,0.5,0.3,1-0.2,1.3
			c-0.5,0.3-0.9,0-1.3-0.3c-0.1-0.1-0.2-0.2-0.3-0.2c-1.2-0.8-2.3-1.6-3.5-2.3c-1.8-1-3.8-1.5-5.9-1.1c-2.2,0.4-3.7,2.1-3.8,4.3
			c0,1.6,0,3.3,0.5,4.9c0.1,0.4,0.1,0.8-0.3,1.1c-0.4,0.2-0.7,0-1.1-0.3c-0.4-0.4-0.8-0.8-1.3-1c-2.2-0.7-5.3,0.5-5.4,3.6
			c-0.1,1.3,0.1,2.6,0.6,3.9c0.4,0.9,0.8,1.7,1.2,2.6c0.1,0.3,0.3,0.6,0.3,0.9c0,0.3-0.1,0.6-0.3,0.8c-0.3,0.3-0.6,0.1-0.9-0.1
			c-0.4-0.2-0.7-0.5-1.1-0.7c-1.6-0.7-3-0.3-4.1,1c-1.3,1.5-1.8,4.9,0.1,6.8c0.1,0.1,0.3,0.3,0.4,0.4c0.3,0.5,0,1-0.6,1
			c-0.3,0-0.5-0.1-0.8-0.2c-1-0.4-2-0.5-3.1-0.5c-1.4,0-2.5,0.7-3.1,1.9c-1.1,2.2-1.2,4.5-0.3,6.8c0.8,1.8,2.3,2.8,4,3.6
			c0.3,0.1,0.7,0.2,1,0.4c0.2,0.1,0.4,0.4,0.3,0.6c-0.1,0.2-0.3,0.4-0.5,0.6c-0.1,0.1-0.4,0-0.6,0c-1.1-0.2-2,0.2-2.8,1.1
			c-1.7,1.9-2.5,4.2-2.3,6.7c0.1,1.1,0.6,2.1,1.7,2.6c0.6,0.3,1.3,0.6,2,0.8c0.4,0.2,1,0.3,1,0.9c0,0.6-0.6,0.7-1,0.8
			c-1.7,0.5-2.7,1.7-3.1,3.3c-0.3,1-0.4,2.1-0.4,3.2c0,0.9,0.1,1.9,0.7,2.8c1.1,1.7,3.8,2.8,5.8,2.3c0.3-0.1,0.7-0.2,0.9,0.1
			c0.1,0.2,0.1,0.6,0,0.8c-0.7,1.8-0.6,3.6,0.1,5.4c1,2.7,2.9,4.4,5.9,4.6c1.1,0.1,2.1-0.1,3.2-0.4c1.2-0.3,1.4-0.3,1.7,0.9
			c0.1,0.3,0.2,0.6,0.3,0.9c1.7,2.2,4.1,3.4,7.1,2.4c0.6-0.2,1.2-0.5,1.8-0.7c0.8-0.3,1.2-0.1,1.2,0.7c0,0.8,0.4,1.4,0.9,2
			c1.4,1.4,3.9,1.8,5.7,1c0.9-0.4,1.2-0.4,1.5,0.6c0.2,0.6,0.6,0.9,1.1,1.1c1.1,0.4,2.2,0.4,3.3,0.2c0.4-0.1,0.8-0.3,1-0.8
			c-1.5-0.7-2.9-1.5-4.4-2.2c-0.4-0.2-0.8-0.4-1.1-0.7c-1.3-0.9-2.5-1.8-3.7-2.8c-1.6-1.4-3-3-4.2-4.7
			C28.8,101.4,27.8,99.6,27.1,97.8 M26.6,96.6c-0.5-1.7-1-3.2-1.5-4.8c-0.2-0.6-0.7-1.2-1-1.7c-0.1-0.2-0.4-0.4-0.7-0.5
			c-1.3-0.1-2.6-0.2-3.6,0.9c-0.1,0.1-0.3,0.1-0.5,0.2c-0.1-0.2-0.2-0.4-0.2-0.5c0.1-0.7,0.6-1.2,1.3-1.5c1.1-0.5,2.3-0.5,3.4-0.4
			c0.3,0,0.7,0.3,0.9,0.5c0.8,0.8,1.4,1.7,1.7,2.7c0.5,2.1,1.4,4,2.1,6c0.7,1.9,1.7,3.6,2.9,5.2c3.1,4.3,7.3,7.1,12,9.2
			c0.4,0.2,0.8,0.3,1.1,0.4c1.2,0.3,2.3,0.6,3.5,0.8c3.2,0.6,6.5,1.1,9.7,1.6c2.6,0.4,5.2,0.4,7.8,0c3-0.5,6-0.9,9-1.4
			c2.8-0.5,5.6-0.9,8-2.6c0.2-0.1,0.4-0.2,0.5-0.3c0.9-0.5,1.8-0.9,2.6-1.5c0.9-0.6,1.7-1.2,2.5-1.9c1.9-1.6,3.6-3.4,4.9-5.6
			c1.8-2.9,3-6.1,4-9.4c0.3-1.2,1-2.2,1.8-3.1c0.3-0.3,0.6-0.5,1-0.6c1.2-0.1,2.3-0.1,3.4,0.4c0.6,0.2,1.1,0.6,1.2,1.2
			c0.1,0.2,0,0.6-0.1,0.7c-0.3,0.2-0.4-0.1-0.5-0.3c-0.9-0.9-2.1-0.9-3.3-0.9c-0.9,0-1.2,0.9-1.6,1.5c-0.2,0.2-0.3,0.5-0.4,0.7
			c-0.5,1.5-1,3.1-1.5,4.7c0.1,0,0.1,0.1,0.2,0.1c2.2,0.6,4.4,0.3,6.6-0.4c0.6-0.2,1.3-0.7,1.7-1.2c2.3-2.9,2.2-5.9-0.1-8.8
			c-0.6-0.7-1.3-1.2-2.2-1.3c-1.8-0.2-3.4,0.3-4.6,1.7c-0.2,0.2-0.3,0.4-0.6,0.6c-0.4,0.3-0.7,0.1-0.8-0.4c0-0.1,0-0.3,0.1-0.4
			c-0.3,0-0.6,0-0.8,0c-1.9,0.2-4.1-1.8-4.2-3.6c-0.1-1.5,0.2-2.9,0.7-4.3c0.1-0.4,0.3-0.7,0.4-1.2c-0.4,0-0.8,0-1.1,0
			c-2.5,0.1-4.2-1.3-4.8-3.6c-0.4-1.5-0.3-3.1-0.1-4.6c0.2-1.2,0.5-2.4,0.7-3.6c-3.7-0.3-5.9-2.5-7.3-5.8c-1.1,1.3-2.1,2.7-3.9,3
			c-1.7,0.2-3.2-0.2-4.7-1.1c-0.1,0.4-0.2,0.7-0.3,1c-0.8,2.4-1.9,4.7-3.7,6.5c-1,1.1-2.3,1.8-3.8,1.9c-1,0.1-2.1,0.1-3.1,0
			c-2.6-0.3-4.6-1.6-5.8-4.1c-0.1-0.1-0.2-0.3-0.3-0.5c-0.4,0.2-0.7,0.5-1,0.7c-0.7,0.4-1.4,0.9-2.2,1.2c-1.4,0.6-2.9,0.5-4.3-0.2
			c-1.3-0.6-2.3-1.5-3.2-2.7c-1-1.4-1.6-2.9-1.5-4.6c0-0.8,0.1-1.6,0.1-2.3c-0.3,0.1-0.4,0.3-0.5,0.5c-0.5,2.4-1.9,4-3.9,5.3
			c-0.9,0.6-1.9,1.1-3.1,1c-0.1,0-0.3,0.1-0.4,0.1c0.1,0.3,0.1,0.6,0.2,0.9c0.6,2,0.8,4,0.7,6c-0.1,3.1-2.4,5.3-5.4,4.9
			c-0.2,0-0.4,0-0.7,0.1c0.2,0.5,0.3,0.8,0.5,1.2c0.5,1.2,0.7,2.5,0.7,3.9c-0.1,2.3-1.8,4-4.1,4c-0.3,0-0.6,0-0.8,0
			c-0.1,0.4-0.1,0.7-0.3,0.9c-0.3,0.2-0.6,0-0.8-0.3c-0.1-0.2-0.2-0.3-0.4-0.5c-0.3-0.3-0.7-0.7-1.1-0.9c-1.6-1.1-4-1-5.3,0.2
			c-1,0.9-1.6,2.2-2,3.5c-0.7,2.5,0.7,5.4,2.3,6.4C21.2,97.2,23.9,97,26.6,96.6"/>
		<path id="Boca_x5F_linea" class="st10" d="M62.6,113.4c-1.8,0.1-3.7-0.1-5.5-0.5c-1.3-0.3-2.5-0.8-3.4-1.7
			c-1.3-1.3-2.7-2.6-3.8-4.1c-1.3-1.6-1.9-3.6-2.3-5.6c-0.5-2.4-0.7-4.7-0.3-7.1c0-0.2,0-0.3,0.1-0.5c0.3-1.3,0.5-1.4,1.6-0.7
			c0.5,0.3,1.1,0.7,1.7,0.9c1.9,0.6,3.8,1.2,5.8,1.2c0.8,0,1.5,0.2,2.3,0.2c2.1,0.1,4.2,0.3,6.2,0.2c3.6-0.2,6.9-1.1,9.9-3.2
			c0.6-0.4,1.2-0.4,1.8-0.3c0.3,0.1,0.7,0.4,0.8,0.6c0.2,0.5,0.3,1,0.3,1.5c0.2,3.4-0.2,6.8-1.7,9.9c-0.8,1.6-1.5,3.2-2.7,4.5
			c-2.4,2.7-5.3,4.5-9.1,4.5C63.7,113.4,63.2,113.4,62.6,113.4 M53.9,109.7c1-0.9,2.2-1.7,3.6-2.1c4.3-1,8.4-0.8,12.3,1.2
			c1.4,0.7,1.7,0.7,2.6-0.6c1.1-1.6,2-3.1,2.8-4.9c1.2-2.8,1.5-5.7,1.4-8.7c0-0.3-0.1-0.6-0.1-0.8c-0.1-0.3-0.4-0.4-0.7-0.2
			c-1.2,1-2.5,1.5-3.9,2c-0.4,0.2-0.5,0.4-0.5,0.8c0,0.6,0,1.2,0,1.8c-0.1,1.5-0.4,2.9-1.4,4c-0.3,0.4-0.8,0.7-1.3,0.8
			c-1.2,0.2-2.4,0.2-3.5-0.3c-0.9-0.4-1.6-1-1.7-2c-0.1-0.6-0.2-1.2-0.2-1.8c0-0.5,0-1,0-1.6c0-0.1-0.2-0.3-0.3-0.4
			c-0.1,0.1-0.3,0.3-0.3,0.4c-0.1,0.5,0,1-0.1,1.6c0,0.4,0,0.9-0.1,1.3c-0.3,1.3-1.1,2-2.4,2.2c-1.3,0.2-2.6,0.1-3.8-0.4
			c-1.1-0.4-2-1.2-2.2-2.5c-0.2-0.9-0.3-1.8-0.4-2.7c-0.1-0.8-0.1-0.8-0.9-1c-1.5-0.3-2.8-0.8-4.1-1.7c-0.1,0-0.1,0-0.3,0
			c0,1.9-0.1,3.7,0.2,5.6C49,103.8,50.8,107.1,53.9,109.7 M54.7,110.3c0.8,0.8,1.7,1.1,2.6,1.3c1.9,0.5,3.8,0.5,5.7,0.6
			c2.5,0.1,4.7-0.4,6.9-2c-0.9-0.4-1.6-1-2.5-1.2c-2.6-0.6-5.3-1.2-8-0.7C57.7,108.7,56.1,109.1,54.7,110.3 M70.2,96.4
			c-2.1,0.3-4.1,0.6-6.1,0.8c0,0.9,0,1.9,0,2.9c0,0.9,0.5,1.6,1.5,1.8c0.5,0.1,1.1,0.2,1.6,0.3c1.3,0.2,2-0.5,2.5-1.6
			C70.3,99.2,70.4,97.8,70.2,96.4 M56.2,96.5C56.2,96.5,56.2,96.5,56.2,96.5c-0.4,0-0.8,0-1.2-0.1c-0.5-0.1-0.6,0.1-0.5,0.5
			c0.2,1,0.3,2,0.6,3c0.1,0.4,0.5,0.7,0.9,0.9c1.2,0.6,2.5,0.9,3.8,0.6c0.8-0.2,1.4-0.6,1.4-1.5c0.1-0.8,0.1-1.6,0.2-2.4
			c0-0.4-0.1-0.6-0.6-0.7C59.3,96.8,57.8,96.7,56.2,96.5"/>
		<path id="Nariz" class="st10" d="M61.9,85.6c1.8-0.1,3,0.6,3.9,2.1c0.4,0.6,0.5,1.2,0.5,1.9c0,0.4-0.2,0.7-0.6,0.7
			c-0.4,0-0.6-0.2-0.6-0.6c0,0,0-0.1,0-0.1c-0.1-1.3-0.7-2.3-1.9-2.6c-1.5-0.4-2.9-0.3-4.2,0.7c-0.5,0.4-0.8,0.9-0.8,1.5
			c0,0.2,0,0.5-0.1,0.7c-0.1,0.3-0.2,0.6-0.5,0.5C57.3,90.5,57,90.2,57,90c-0.2-1.3,0.4-2.3,1.3-3.2C59.3,85.9,60.5,85.5,61.9,85.6"
			/>
		<path id="OjoDer" class="st10" d="M51.3,81.9c-0.2,0.7-0.3,1.5-0.5,2.2c-0.2,0.5-0.6,0.8-1.2,0.8c-0.6,0-1.1-0.3-1.3-0.8
			c-0.5-1.5-0.5-3,0.4-4.4c0.5-0.9,1.5-0.8,2.1,0C51.2,80.3,51.2,81.1,51.3,81.9"/>
		<path id="OjoIzq" class="st10" d="M72.3,81.9c0.1-0.7,0.2-1.3,0.4-1.9c0.2-0.5,0.6-0.9,1.2-0.9c0.6,0,1,0.3,1.2,0.8
			c0.6,1.3,0.7,2.6,0.3,4c-0.2,0.6-0.6,1-1.3,1c-0.7,0-1.2-0.3-1.4-1C72.5,83.3,72.5,82.5,72.3,81.9"/>
		<path id="CejaDer" class="st10" d="M49.5,70.8c0.1,0.1,0.4,0.2,0.5,0.4c0,0.2-0.2,0.5-0.3,0.7c-0.1,0.1-0.2,0.1-0.3,0.1
			c-1.1,0.2-1.7,1-2.3,1.8c-0.1,0.2-0.2,0.4-0.3,0.5c-0.2,0.1-0.6,0.2-0.7,0.1c-0.2-0.1-0.2-0.5-0.2-0.7c0-0.1,0-0.2,0.1-0.2
			c0.7-1.2,1.7-2.2,3.1-2.6C49,70.9,49.2,70.9,49.5,70.8"/>
		<path id="CejaIzq" class="st10" d="M74.2,70.8c0.5,0.2,1,0.3,1.4,0.5c0.9,0.5,1.6,1.2,2.1,2.1c0.1,0.2,0.2,0.4,0.2,0.5
			c0,0.2-0.1,0.5-0.3,0.6c-0.2,0.1-0.5,0-0.6-0.1c-0.2-0.1-0.2-0.3-0.4-0.5c-0.6-0.8-1.3-1.6-2.4-1.8C74.2,72,74,72,74,71.9
			c-0.1-0.2-0.4-0.5-0.3-0.7C73.7,71,74,70.9,74.2,70.8"/>
	</g>
</g>
</svg>
