<?xml version="1.0" encoding="utf-8"?>
<!-- Generator: Adobe Illustrator 23.0.1, SVG Export Plug-In . SVG Version: 6.00 Build 0)  -->
<svg version="1.1" id="Capa_1" xmlns="http://www.w3.org/2000/svg" xmlns:xlink="http://www.w3.org/1999/xlink" x="0px" y="0px"
	 viewBox="0 0 107.5 212.3" style="enable-background:new 0 0 107.5 212.3;" xml:space="preserve">
<style type="text/css">
	.st0{fill:#524632;}
	.st1{fill:#88D1EE;}
	.st2{fill:#FFFFFF;}
	.st3{fill:#EDD5BD;}
	.st4{fill:#809AC1;}
	.st5{fill:#C3141B;}
	.st6{fill:#D6D3E8;}
	.st7{fill:#3C3C3C;}
	.st8{fill:#6B6C6B;}
	.st9{fill:#99ACBC;}
	.st10{fill:#FFEC00;}
	.st11{fill:#FFF486;}
	.st12{fill:#5AB8EE;}
	.st13{clip-path:url(#SVGID_2_);fill:#EDD5BD;}
	.st14{clip-path:url(#SVGID_4_);fill:url(#SVGID_5_);}
	.st15{clip-path:url(#SVGID_7_);fill:url(#SVGID_8_);}
	.st16{fill:#E1B791;}
	.st17{fill:#B87F34;}
	.st18{fill:#D18E3D;}
	.st19{fill:#5C97FF;}
	.st20{opacity:0.7;}
	.st21{clip-path:url(#SVGID_10_);fill:#FFFFFF;}
	.st22{clip-path:url(#SVGID_12_);fill:#FFFFFF;}
</style>
<g id="PieIzq">
	<path class="st0" d="M87.9,198.3c-0.5-2.5-1.6-4.7-2.8-6.8c-0.9-1.5-2-2.7-3.6-3.4c-0.3-0.2-0.6-0.3-1.1-0.6c0,0,0,0,0.1,0
		c-0.1,0-0.2,0-0.3-0.1c-0.4-0.1-0.6-0.3-0.7-0.6c-1.3,0.8-2.9,1-4.4,1.2c-1.3,0.2-2.6,0.4-3.9,0.5c-2.6,0.1-5.2,0.2-7.8,0.2
		c-0.5,0-1-0.1-1.5-0.2c-0.2,0-0.4-0.1-0.5-0.1c-0.3,0.1-0.5,0.3-0.7,0.5c0,0.1-0.1,0.1-0.1,0.1c-0.1,0.1-0.1,0.2-0.2,0.3
		c0,0.1-0.1,0.1-0.2,0.2c0,0.2-0.1,0.5-0.2,0.8c-0.6,1.6-1,3.3-1,5c0.1,1.2,0.1,2.4,0.2,3.6c0.2,3.1,1.6,5.4,4.4,6.8
		c1.5,0.8,3.1,1.5,4.7,2.1c1.1,0.4,2.4,0.8,3.6,1c3.8,0.6,7.5,0.1,11.1-1.2c1.5-0.5,2.6-1.5,3.7-2.5c0.5-0.5,0.8-1.1,1.1-1.7
		C88.3,201.7,88.2,200,87.9,198.3z M65.9,189.9c0.4,0,0.7,0.2,0.8,0.6c0.1,0.3,0.2,0.7,0.2,1c0,0.5,0.3,1.1-0.2,1.3
		c-0.6,0.3-1.2,0.3-1.8-0.1c-1-0.7-1.8-1.5-2.3-2.9C63.8,189.9,64.9,189.9,65.9,189.9z M61.1,190.8c0.1-0.1,0.1-0.3,0.3-0.6
		c0.2,0.3,0.4,0.5,0.5,0.7c0.4,0.8,1.1,1.5,1.8,2.1c0.9,0.8,1.9,1,3,0.8c0.8-0.1,1.3-0.5,1.3-1.3c0-0.9-0.2-1.7-0.3-2.7
		c1.8-0.2,1.8-0.2,1.9,1.6c0.1,0.8,0.1,1.7,0,2.5c-0.1,1.5-0.8,2.1-2.3,2c-0.6,0-1.3-0.2-1.8-0.5c-1.3-0.8-2.6-1.8-3.9-2.7
		C60.8,192.3,60.8,191.6,61.1,190.8z M60.5,193.3c1.2,0.9,2.4,1.8,3.6,2.6c1.1,0.7,2.2,1.2,3.6,1.1c1.3-0.1,2.2-0.6,2.6-1.9
		c0.4-1.3,0.3-2.6,0.1-3.9c-0.2-1.4-0.3-1.4,1.1-1.6c1.8-0.3,3.6-0.5,5.3-0.7c0.8-0.1,1.6-0.4,2.3-0.6c0.3-0.1,0.5-0.2,0.8,0
		c0.9,0.6,1.8,1.2,2.6,1.9c0.6,0.5,1.1,1.2,1.4,1.9c0.8,1.5,1.7,3,2.2,4.6c0.4,1.3,0.2,2.3-0.8,3.2c-2.6,2.4-5.8,3.7-9.3,3.7
		c-1.1,0-2.3-0.3-3.4-0.6c-2.5-0.7-5-1.5-7.2-2.9c-1-0.6-2-1.3-3-2c-0.3-0.2-0.5-0.4-0.7-0.6c-0.5-0.5-1.3-0.6-1.4-1.4
		C60.2,195.3,60.2,194.3,60.5,193.3z M84.8,205c-1.6,1.2-3.4,1.8-5.2,2.2c-1.4,0.3-2.9,0.4-4.4,0.5c-2.4,0.2-4.6-0.4-6.8-1.3
		c-1.4-0.5-2.8-1.1-4.1-1.9c-2.4-1.3-3.7-3.3-3.8-6.1c0-0.1,0-0.1,0.1-0.3c0.2,0.1,0.4,0.2,0.6,0.3c1.8,1.6,3.9,2.8,6,3.8
		c2.7,1.2,5.4,2.1,8.3,2.5c0.7,0.1,1.4,0,2-0.1c3.6-0.5,6.7-1.9,9.4-4.8C86.9,202.2,86.4,203.8,84.8,205z"/>
	<path class="st1" d="M60.5,193.3c1.2,0.9,2.4,1.8,3.6,2.6c1.1,0.7,2.2,1.2,3.6,1.1c1.3-0.1,2.2-0.6,2.6-1.9
		c0.4-1.3,0.3-2.6,0.1-3.9c-0.2-1.4-0.3-1.4,1.1-1.6c1.8-0.3,3.6-0.5,5.3-0.7c0.8-0.1,1.5-0.4,2.3-0.6c0.3-0.1,0.5-0.2,0.8,0
		c0.9,0.6,1.8,1.2,2.6,1.9c0.6,0.5,1.1,1.2,1.4,1.9c0.8,1.5,1.7,3,2.2,4.6c0.4,1.3,0.2,2.3-0.8,3.2c-2.6,2.4-5.8,3.7-9.3,3.7
		c-1.1,0-2.3-0.3-3.4-0.6c-2.5-0.7-5-1.5-7.2-2.9c-1-0.6-2-1.3-3-2c-0.3-0.2-0.5-0.4-0.7-0.6c-0.5-0.5-1.3-0.6-1.4-1.4
		C60.2,195.3,60.2,194.3,60.5,193.3"/>
	<path class="st2" d="M86.9,200.1c0,2.2-0.6,3.7-2.2,4.9s-3.4,1.8-5.2,2.2c-1.4,0.3-2.9,0.4-4.4,0.5c-2.4,0.2-4.6-0.4-6.8-1.3
		c-1.4-0.5-2.8-1.2-4.1-1.9c-2.4-1.3-3.7-3.3-3.8-6.1c0-0.1,0-0.1,0.1-0.3c0.2,0.1,0.4,0.2,0.6,0.3c1.8,1.6,3.9,2.8,6,3.8
		c2.7,1.2,5.4,2.1,8.3,2.5c0.7,0.1,1.4,0,2-0.1C81.1,204.3,84.3,202.9,86.9,200.1"/>
	<path class="st2" d="M67.6,189.9c1.8-0.2,1.8-0.2,1.9,1.6c0.1,0.8,0.1,1.7,0,2.5c-0.1,1.5-0.8,2.1-2.3,2c-0.6,0-1.3-0.2-1.8-0.5
		c-1.3-0.8-2.6-1.8-3.9-2.7c-0.8-0.5-0.8-1.2-0.4-2c0.1-0.1,0.1-0.3,0.3-0.6c0.2,0.3,0.4,0.5,0.5,0.7c0.4,0.8,1.1,1.5,1.8,2.1
		c0.9,0.8,1.9,1,3,0.8c0.8-0.1,1.3-0.5,1.3-1.3C67.9,191.7,67.7,190.9,67.6,189.9"/>
	<path class="st3" d="M62.6,189.9c1.2,0,2.3,0,3.4,0c0.4,0,0.7,0.2,0.8,0.6c0.1,0.3,0.2,0.7,0.2,1c0,0.5,0.3,1.1-0.2,1.3
		c-0.6,0.3-1.2,0.3-1.8-0.1C63.9,192.1,63.1,191.2,62.6,189.9"/>
</g>
<g id="PieDet">
	<path class="st0" d="M23.2,203.3c0.2,0.6,0.6,1.3,1.1,1.7c1.1,1,2.3,2,3.7,2.5c3.6,1.3,7.3,1.8,11.1,1.2c1.2-0.2,2.4-0.6,3.6-1
		c1.6-0.6,3.2-1.3,4.7-2.1c2.7-1.4,4.2-3.7,4.4-6.8c0.1-1.2,0.1-2.4,0.2-3.6c0.1-1.8-0.3-3.4-1-5c-0.1-0.3-0.2-0.5-0.2-0.8
		c-0.1-0.1-0.1-0.1-0.2-0.2c0-0.1-0.1-0.2-0.2-0.3l-0.1-0.1c-0.2-0.2-0.4-0.4-0.7-0.5c-0.1,0-0.3,0.1-0.5,0.1
		c-0.5,0.1-1,0.2-1.5,0.2c-2.6,0-5.2-0.1-7.8-0.2c-1.3-0.1-2.6-0.3-3.9-0.5c-1.5-0.2-3.1-0.4-4.4-1.2c-0.1,0.3-0.3,0.6-0.7,0.6
		c-0.1,0.1-0.2,0.1-0.3,0.1c0,0,0,0,0.1,0c-0.5,0.3-0.8,0.5-1.1,0.6c-1.5,0.8-2.7,1.9-3.6,3.4c-1.2,2.2-2.4,4.4-2.8,6.8
		C22.6,200,22.5,201.7,23.2,203.3z M48.3,189.9c-0.5,1.4-1.3,2.2-2.3,2.9c-0.6,0.4-1.3,0.4-1.8,0.1c-0.5-0.3-0.2-0.9-0.2-1.3
		c0-0.4,0.1-0.7,0.2-1c0.1-0.4,0.3-0.6,0.8-0.6C46,189.9,47.1,189.9,48.3,189.9z M49.3,192.8c-1.3,0.9-2.6,1.9-3.9,2.7
		c-0.5,0.3-1.2,0.4-1.8,0.5c-1.5,0.1-2.1-0.5-2.3-2c-0.1-0.8,0-1.7,0-2.5c0.1-1.8,0.1-1.8,1.9-1.6c-0.1,0.9-0.3,1.8-0.3,2.7
		c0,0.8,0.5,1.2,1.3,1.3c1.1,0.2,2.1-0.1,3-0.8c0.7-0.6,1.3-1.3,1.8-2.1c0.1-0.2,0.3-0.4,0.5-0.7c0.1,0.3,0.2,0.4,0.3,0.6
		C50.1,191.6,50.1,192.3,49.3,192.8z M50.5,196.3c-0.1,0.7-0.9,0.9-1.4,1.4c-0.2,0.2-0.5,0.4-0.7,0.6c-1,0.7-2,1.4-3,2
		c-2.2,1.3-4.7,2.2-7.2,2.9c-1.1,0.3-2.3,0.6-3.4,0.6c-3.6,0-6.7-1.3-9.3-3.7c-1-0.9-1.2-1.9-0.8-3.2c0.5-1.7,1.4-3.1,2.2-4.6
		c0.4-0.7,0.9-1.4,1.4-1.9c0.8-0.7,1.7-1.3,2.6-1.9c0.3-0.2,0.5-0.1,0.8,0c0.8,0.2,1.5,0.5,2.3,0.6c1.8,0.3,3.6,0.5,5.3,0.7
		c1.4,0.2,1.4,0.2,1.1,1.6c-0.2,1.3-0.3,2.6,0.1,3.9c0.4,1.3,1.3,1.8,2.6,1.9c1.4,0.1,2.5-0.4,3.6-1.1c1.2-0.8,2.4-1.7,3.6-2.6
		C50.7,194.3,50.7,195.3,50.5,196.3z M23.9,200.1c2.7,2.9,5.8,4.3,9.4,4.8c0.7,0.1,1.4,0.1,2,0.1c2.9-0.4,5.7-1.3,8.3-2.5
		c2.2-1,4.2-2.2,6-3.8c0.1-0.1,0.4-0.2,0.6-0.3c0.1,0.2,0.1,0.2,0.1,0.3c0,2.8-1.3,4.8-3.8,6.1c-1.3,0.7-2.7,1.3-4.1,1.9
		c-2.2,0.8-4.4,1.4-6.8,1.3c-1.5-0.1-2.9-0.2-4.4-0.5c-1.9-0.4-3.7-1-5.2-2.2C24.5,203.8,23.9,202.2,23.9,200.1z"/>
	<path class="st1" d="M50.3,193.4c-1.2,0.9-2.4,1.8-3.6,2.6c-1.1,0.7-2.2,1.2-3.6,1.1c-1.3-0.1-2.2-0.6-2.6-1.9
		c-0.4-1.3-0.3-2.6-0.1-3.9c0.2-1.4,0.3-1.4-1.1-1.6c-1.8-0.3-3.6-0.5-5.3-0.7c-0.8-0.1-1.5-0.4-2.3-0.6c-0.3-0.1-0.5-0.2-0.8,0
		c-0.9,0.6-1.8,1.2-2.6,1.9c-0.6,0.5-1.1,1.2-1.4,1.9c-0.8,1.5-1.7,3-2.2,4.6c-0.4,1.3-0.2,2.3,0.8,3.2c2.6,2.4,5.8,3.7,9.3,3.7
		c1.1,0,2.3-0.3,3.4-0.6c2.5-0.7,5-1.5,7.2-2.9c1-0.6,2-1.3,3-2c0.3-0.2,0.5-0.4,0.7-0.6c0.5-0.5,1.3-0.6,1.4-1.4
		C50.6,195.3,50.7,194.3,50.3,193.4"/>
	<path class="st2" d="M23.9,200.1c0,2.2,0.6,3.7,2.2,4.9s3.4,1.8,5.2,2.2c1.4,0.3,2.9,0.4,4.4,0.5c2.4,0.2,4.6-0.4,6.8-1.3
		c1.4-0.5,2.8-1.2,4.1-1.9c2.4-1.3,3.7-3.3,3.8-6.1c0-0.1,0-0.1-0.1-0.3c-0.2,0.1-0.4,0.2-0.6,0.3c-1.8,1.6-3.9,2.8-6,3.8
		c-2.7,1.2-5.4,2.1-8.3,2.5c-0.7,0.1-1.4,0-2-0.1C29.7,204.3,26.6,203,23.9,200.1"/>
	<path class="st2" d="M43.2,189.9c-1.8-0.2-1.8-0.2-1.9,1.6c-0.1,0.8-0.1,1.7,0,2.5c0.1,1.5,0.8,2.1,2.3,2c0.6,0,1.3-0.2,1.8-0.5
		c1.3-0.8,2.6-1.8,3.9-2.7c0.8-0.5,0.8-1.2,0.4-2c-0.1-0.1-0.1-0.3-0.3-0.6c-0.2,0.3-0.4,0.5-0.5,0.7c-0.4,0.8-1.1,1.5-1.8,2.1
		c-0.9,0.8-1.9,1-3,0.8c-0.8-0.1-1.3-0.5-1.3-1.3C42.9,191.7,43.1,190.9,43.2,189.9"/>
	<path class="st3" d="M48.3,189.9c-1.2,0-2.3,0-3.4,0c-0.4,0-0.7,0.2-0.8,0.6c-0.1,0.3-0.2,0.7-0.2,1c0,0.5-0.3,1.1,0.2,1.3
		c0.6,0.3,1.2,0.3,1.8-0.1C46.9,192.1,47.8,191.3,48.3,189.9"/>
</g>
<g id="Short">
	<path class="st0" d="M81.3,169.4c-0.1-1.4-0.2-2.8-0.4-4.2c-0.2-1.9-0.5-3.8-0.8-5.7c-0.3-1.8-0.7-3.5-1.1-5.3
		c-0.1-0.7-0.4-1.3-0.6-1.9c-0.1-0.2-0.1-0.4-0.2-0.6c-0.2-0.2-0.5-0.4-0.6-0.6c-1.8,1.4-3.9,2.2-6.1,2.7c-3.1,0.8-6.2,1.1-9.4,1.4
		c-1.6,0.2-3.3,0.4-4.9,0.4c-2.3,0-4.6-0.1-6.8-0.2c-2.5-0.2-5-0.5-7.5-0.9c-2.2-0.3-4.3-0.8-6.4-1.6c-1.1-0.4-2.1-1-3-1.6
		c-0.4,0.3-0.7,0.6-1.1,1c0,0.1,0,0.2-0.1,0.3c-1,2.3-1.3,4.7-1.7,7.1c-0.3,1.9-0.6,3.9-0.8,5.8c-0.2,1.3-0.2,2.7-0.4,4.1
		c-0.3,2.5-0.6,5.1-0.8,7.6c-0.2,2.5-0.4,5.1-0.2,7.7c0.1,0.9,0.4,1.5,1.1,2c0.2,0.1,0.4,0.4,0.8,0.7l0,0c0.1,0.1,0.1,0.2,0.2,0.2
		c0.1,0.1,0.3,0.1,0.3,0.3c0.1,0.1,0.5,0.2,0.6,0.2c1.9,0.8,4,0.8,6,1.1c1.1,0.1,2.1,0.3,3.1,0.5l0,0c0.1,0,0.2-0.1,0.3-0.1
		c0.3,0,1.1,0.1,1.7,0.1c0.2,0,0.4,0,0.7,0c0.1,0,0.1,0,0.2,0c0.2,0,0.3,0,0.4,0.1l0,0c0.2,0,1.1,0,1.8,0c0.8,0,1.6,0,2.5,0
		c0.1-0.1,0.3-0.1,0.4-0.1c0.3,0,1.1-0.4,1.5-0.4c0.1,0,0.1,0,0.2,0c0.1-0.1,0.3-0.2,0.5-0.2c0-0.2,0.1-0.3,0.3-0.4
		c0.2-0.1,0.2-0.5,0.3-0.8c0.1-1.3,0.3-2.6,0.3-3.9c0-2.9,0-5.8,0-8.6c0-2.5,0.1-4.9,0.5-7.4c0.1-0.6,0.2-0.7,0.8-0.6
		c0.5,0.1,1.1,0.3,1.6,0.2c1.2-0.2,2.5,0.3,3.7-0.2c0.3-0.1,0.5,0.1,0.5,0.5c0.1,1.5,0.4,3.1,0.4,4.6c0.1,3.9,0,7.8,0.1,11.6
		c0,1.3,0.2,2.5,0.3,3.8c0,0.3,0.1,0.7,0.3,0.9c0.1,0.1,0.2,0.2,0.3,0.3h0.1c0.6,0.4,1.3,0.5,2,0.6l0,0c0.1,0,0.2,0,0.3,0
		c0,0,0,0,0-0.1c1.2,0,2.3,0,3.4,0H66c1.5-0.1,4.9-0.2,5.5-0.3c1.8-0.3,3.6-0.5,5.3-0.7c0.8-0.1,1.6-0.4,2.3-0.6
		c0.2-0.1,0.9-0.8,1.4-0.8l-0.1-0.1c0.3-0.2,0.6-0.4,0.8-0.6c1-0.5,1.2-1.4,1.2-2.3c0-2.5-0.1-5-0.3-7.5
		C82,174.5,81.6,171.9,81.3,169.4z M81.3,184.6c0,0.5-0.3,0.8-0.6,1.2c-1.6,1.6-3.6,1.8-5.6,2.1c-1.3,0.2-2.6,0.4-3.9,0.5
		c-2.6,0.1-5.2,0.2-7.8,0.2c-0.5,0-1-0.1-1.5-0.2c-0.9-0.2-1-0.3-1.1-1.2c-0.3-1.8-0.2-3.6-0.2-5.4c0-3.2,0-6.4-0.1-9.6
		c0-1.2-0.3-2.4-0.4-3.6c0-0.3-0.1-0.6-0.1-0.8c0-0.3,0.1-0.4,0.4-0.5c0.4-0.1,0.9-0.1,1.3-0.3c0.2-0.1,0.2-0.4,0-0.5
		c-0.4-0.1-0.9-0.3-1.4-0.3c-1.7,0-3.4,0-5.2,0c-1.5,0-3,0-4.4,0c-0.1,0-0.2,0-0.4,0c-0.9,0-1.4,0.3-1.3,0.5
		c0.3,0.5,0.8,0.4,1.3,0.5c0.5,0,0.6,0.2,0.6,0.7c-0.1,0.5-0.2,1.1-0.3,1.7c-0.1,1.7-0.2,3.4-0.3,5.1c0,3.2,0,6.4,0,9.6
		c0,1.1-0.2,2.1-0.2,3.2c0,0.4-0.2,0.6-0.5,0.7c-0.7,0.1-1.3,0.3-2,0.3c-2,0-4.1,0.1-6.1,0c-1.2,0-2.5-0.3-3.7-0.4
		c-1.3-0.2-2.7-0.4-4-0.6c-1.5-0.2-2.7-1-3.7-2c-0.3-0.2-0.4-0.7-0.4-1.1c0-1.6-0.1-3.3,0-4.9c0.2-2.3,0.5-4.5,0.8-6.8
		c0.2-1.9,0.3-3.9,0.5-5.8c0.2-2.2,0.5-4.4,0.8-6.5c0.3-2,0.7-3.9,1.1-5.9c0.1-0.6,0.4-1.1,0.5-1.7c0.2,0,0.3,0,0.3,0.1
		c3.3,2,7,2.6,10.7,3c3.5,0.4,7.1,0.8,10.6,1.1c0.9,0.1,1.9-0.1,2.9-0.2c3.3-0.3,6.5-0.6,9.8-1.1c3.2-0.5,6.5-1.1,9.3-2.8
		c0.1,0,0.2,0,0.3-0.1c0.6,1.1,0.8,2.3,1,3.5c0.8,4.3,1.5,8.7,1.7,13c0.2,2.4,0.5,4.8,0.8,7.3C81.3,179.3,81.3,181.9,81.3,184.6z"/>
	<path class="st4" d="M77.4,152.9c0.6,1.1,0.8,2.3,1,3.5c0.8,4.3,1.5,8.7,1.7,13c0.2,2.4,0.5,4.8,0.8,7.3c0.3,2.6,0.3,5.3,0.3,7.9
		c0,0.5-0.3,0.8-0.6,1.2c-1.6,1.6-3.6,1.8-5.6,2.1c-1.3,0.2-2.6,0.4-3.9,0.5c-2.6,0.1-5.2,0.2-7.8,0.2c-0.5,0-1-0.1-1.5-0.2
		c-0.9-0.2-1-0.3-1.1-1.2c-0.3-1.8-0.2-3.6-0.2-5.4c0-3.2,0-6.4-0.1-9.6c0-1.2-0.3-2.4-0.4-3.6c0-0.3-0.1-0.6-0.1-0.8
		c0-0.3,0.1-0.4,0.4-0.5c0.4-0.1,0.9-0.1,1.3-0.3c0.2-0.1,0.2-0.4,0-0.5c-0.4-0.1-0.9-0.3-1.4-0.3c-1.7,0-3.4,0-5.2,0
		c-1.5,0-3,0-4.4,0c-0.1,0-0.2,0-0.4,0c-0.9,0-1.4,0.3-1.3,0.5c0.3,0.5,0.8,0.4,1.3,0.5c0.5,0,0.6,0.2,0.6,0.7
		c-0.1,0.6-0.2,1.1-0.3,1.7c-0.1,1.7-0.2,3.4-0.3,5.1c0,3.2,0,6.4,0,9.6c0,1.1-0.2,2.1-0.2,3.2c0,0.4-0.2,0.6-0.5,0.7
		c-0.7,0.1-1.3,0.3-2,0.3c-2,0-4.1,0.1-6.1,0c-1.2,0-2.5-0.3-3.7-0.4c-1.3-0.2-2.7-0.4-4-0.6c-1.5-0.2-2.7-1-3.7-2
		c-0.3-0.2-0.4-0.7-0.4-1.1c0-1.6-0.1-3.3,0-4.9c0.2-2.3,0.5-4.5,0.8-6.8c0.2-1.9,0.3-3.9,0.5-5.8c0.2-2.2,0.5-4.4,0.8-6.5
		c0.3-2,0.7-3.9,1.1-5.9c0.1-0.6,0.4-1.1,0.5-1.7c0.2,0,0.3,0,0.3,0.1c3.3,2,7,2.6,10.7,3.1c3.5,0.4,7.1,0.8,10.6,1.1
		c0.9,0.1,1.9-0.1,2.9-0.2c3.3-0.3,6.5-0.6,9.8-1.1c3.2-0.5,6.5-1.1,9.3-2.8C77.1,152.9,77.2,152.9,77.4,152.9"/>
</g>
<g id="BrazoDer">
	<path class="st0" d="M31.7,135.5c-3.1-2-5.4-4.5-6.6-8c-0.4,0.3-1.4,1.1-1.5,1.3c-2.2,2.5-4.3,5.2-6.1,8.1
		c-0.1,0.2-0.3,0.4-0.5,0.7c-0.6-0.9-1.5-1.4-2.5-1.6c-0.5-0.1-0.7-0.3-0.7-0.8c0-0.3,0-0.6,0-1c0.1-1.7-0.2-3.3-0.6-4.9
		c-0.9-4.1-3.5-6.9-7.1-8.8c-2.6-1.3-5.2,0-5.8,2.8C0.1,124.2,0,125,0,125.8c0,2.3,0.4,4.4,1,6.6c0.3,1.2,1,2.1,2.1,2.6
		c1.2,0.6,2.5,1,3.8,1.3c1.2,0.3,2.3,0.8,3.5,1.3c0.5,0.2,0.5,0.7,0.5,1.1c0,0.4-0.3,0.5-0.6,0.6c-1.8,0.4-3.1,1.6-4.3,2.9
		c-1.5,1.6-1.8,3.5-1.5,5.6c0.1,0.4,0.3,0.8,0.6,1c0.5,0.4,0.7,0.8,0.8,1.4c0.1,0.9,0.5,1.8,1.3,2.2c1,0.4,1.5,1.1,1.8,2
		c0.1,0.3,0.4,0.6,0.6,0.9c0.2,0.2,0.6,0.5,0.8,0.5c0.9-0.2,1.4,0.4,2,0.8c0.4,0.2,0.8,0.4,1.2,0.4c0.6,0.1,0.8,0.3,0.8,0.8
		c0.2,1,0.3,2.1,0.5,3.1c0.7,4.1,1.4,8.3,2,12.4c0.6,4,1.2,8,1.8,12c0.6,3.9,1.2,7.9,1.8,11.8c0.4,2.5,0.7,5,1.1,7.5
		c0.3,2.1,0.6,4.2,0.8,6.3c0.1,0.5,0.2,0.7,0.6,1c1,0.6,2.1,0.5,3.1,0.3c1.3-0.3,2-1.5,1.8-2.8c-0.1-0.5-0.1-1.1-0.2-1.7
		c0.2,0-0.3-1.9-0.4-2.3c0-0.7-0.2-1.4-0.3-2.3c0.1,0-0.4-2.2-0.4-2.7c-0.1-1.5-0.3-3.1-0.6-4.6c-0.1-0.5-0.1-1-0.1-1.5
		c-0.1-0.1-0.1-0.3-0.1-0.4c0-0.9-0.2-2.6-0.3-2.5c-0.1-0.4-0.2-0.7-0.3-1c-0.4-3.2-0.8-6.5-1.3-9.7c-0.5-3.8-1.1-7.7-1.6-11.5
		c-0.4-3.2-0.9-6.5-1.3-9.7c-0.2-1.4-0.3-2.8-0.6-4.2c-0.1-0.5,0.1-0.6,0.5-0.8c0.8-0.3,1.5-0.5,2.2-0.9c1.6-0.8,2.4-2.1,2.5-3.9
		c0-1.7,0-3.4-0.6-5.1c-0.2-0.6-0.1-1.2,0.2-1.7c1.3-2.2,2.9-4.2,4.6-6.1c0.1-0.1,0.7-0.6,0.8-0.7C31.3,135.9,31.5,135.7,31.7,135.5
		C31.8,135.6,31.8,135.5,31.7,135.5z M13.9,137.1c1.1,0,1.8,0.6,2.4,1.5c0.1,0.1,0.1,0.3,0,0.3c-0.1,0.1-0.3,0.2-0.2,0.1h-3.8
		c-0.5,0-0.6-0.1-0.4-0.5C12.4,137.6,12.9,137.1,13.9,137.1z M1.9,122.4c0.5-0.7,1.2-1.1,2-1.1c0.6,0,1.2,0.1,1.7,0.4
		c1.1,0.7,2.2,1.4,3.2,2.3c1.5,1.3,2.4,3,3,4.9c0.6,2,0.9,4,1,6.1c0,0.1-0.1,0.2-0.1,0.4c-0.8-0.3-1.2-0.9-1.4-1.7
		c-0.2-0.9-0.4-1.8-0.6-2.7c-0.3-1-0.6-1.9-0.9-2.9c-0.5-1.5-1.5-2.7-2.7-3.6c-1.5-1.2-3.2-1-4.9-0.3c-0.3,0.1-0.5,0.3-0.9,0.5
		C1.1,123.9,1.4,123.1,1.9,122.4z M2.5,125.2c1.7-0.8,3.4-0.5,4.7,0.8c1.3,1.2,1.9,2.8,2.3,4.5c0.3,1,0.4,2,0.7,3.2
		c-1.1-0.4-2.1-0.6-3-1c-2.1-0.8-3.8-2.2-5.4-3.7C0.7,127.9,1.2,125.9,2.5,125.2z M6.8,135.2c-1.1-0.2-2.2-0.7-3.3-1.1
		c-0.9-0.4-1.4-1.2-1.7-2.1c-0.2-0.6-0.3-1.3-0.6-2.1c0.5,0.4,0.9,0.7,1.3,1c1.7,1.3,3.5,2.5,5.6,3.1c1.6,0.4,2.9,1.2,4.1,2.5
		c-0.3,0.5-0.6,0.7-1.1,0.3C9.8,136,8.3,135.6,6.8,135.2z M26.7,210.8c-0.5,0.4-1.1,0.7-1.8,0.6c-0.4,0-0.9,0.1-1.2-0.4
		c-0.2-0.3,0.2-0.7,0.9-1c0.6-0.3,1.2-0.4,1.9-0.2C27,210,27.1,210.4,26.7,210.8z M25.1,194.3c0.1,0.7,0.2,1.5,0.3,2.2
		c0.3,2.3,0.6,4.6,0.9,6.8c0,0.2,0.1,0.5,0,0.7c-0.1,1.5,0.1,2.9,0.4,4.4c0.1,0.6,0,0.7-0.5,0.6c-1-0.1-1.8,0.3-2.7,0.7
		c-0.1-0.8-0.3-1.5-0.4-2.2c-0.6-3.9-1.2-7.8-1.8-11.7c-0.1-0.7,0.1-1,0.6-1.2c0.8-0.3,1.6-0.7,2.4-1
		C24.9,193.6,25,193.7,25.1,194.3z M24.8,192.3c0,0.1-0.1,0.3-0.2,0.3c-1.2,0.2-2.2,0.6-3.2,1.3c-0.1,0-0.4-0.1-0.4-0.2
		c-0.1-0.4,0-0.8,0.4-1c0.8-0.5,1.7-0.6,2.4-0.7c0.4,0,0.6-0.1,0.7-0.1C24.6,191.9,24.7,192.1,24.8,192.3z M21.3,165.4
		c0.3,2.6,0.7,5.3,1,7.9c0.4,2.8,0.7,5.7,1.1,8.5c0.3,2.7,0.7,5.5,1,8.2c0.1,0.8,0.1,0.7-0.7,0.9c-1,0.2-2,0.5-3,0.8
		c-0.2-0.9-0.3-1.8-0.5-2.7c-1.1-7.2-2.3-14.5-3.4-21.7c-0.1-0.6,0-1,0.6-1.4c0.9-0.6,1.9-1.1,2.9-1.3
		C21,164.6,21.2,164.8,21.3,165.4z M21,163.1c0.1,0.5-0.1,0.7-0.5,0.7c-1.4,0.1-2.6,0.7-3.9,1.6c-0.3-1.5-0.5-2.9-0.7-4.3
		c-0.4-2.4-0.7-4.7-1.1-7.1c-0.2-1.1-0.2-1.3,0.8-1.7c0.9-0.5,1.9-0.8,2.9-1.1c0.8-0.2,1.1,0,1.2,0.8c0.3,2,0.5,4,0.7,5.9
		C20.6,159.7,20.8,161.4,21,163.1z M29.2,136.1c-0.9,1.1-1.9,2.2-2.8,3.4c-0.7,1-1.4,2.1-2,3.1c-0.3,0.5-0.4,1.1-0.2,1.7
		c0.2,0.6,0.3,1.2,0.5,1.7c0.4,1.2,0.4,2.4,0.3,3.6c-0.1,1.4-0.8,2.5-2.2,3.1c-0.5,0.2-1,0.4-1.5,0.6c-0.4,0.2-0.6,0-0.7-0.4
		c0-0.3-0.1-0.6-0.1-1c0-0.3,0.1-0.5,0.4-0.6c0.2,0,0.5-0.3,0.5-0.4c0-0.2-0.2-0.5-0.4-0.6c-0.9-0.4-1.9-0.4-2.7-0.1
		c-1.4,0.4-2.8,0.9-3.9,2c-0.4,0.4-0.6,0.7-0.5,1.2c0.2,0.7,0.2,1.3,0.3,2c0,0.4-0.2,0.6-0.6,0.4c-0.7-0.3-1.2-0.8-1.5-1.4
		c-0.7-1.4-0.8-2.8-0.2-4.3c0.1-0.3,0.3-0.5,0.3-0.8c0-0.2,0-0.5-0.2-0.6c-0.2-0.2-0.6-0.1-0.7,0.1c-0.5,0.8-0.9,1.6-0.9,2.6
		c0,0.8,0.2,1.7,0.3,2.5c0,0.2,0.1,0.4,0.2,0.9c-0.3-0.3-0.5-0.5-0.6-0.6c-0.7-1.1-1.2-2.3-1.2-3.7c0-0.6,0-1.2,0.5-1.7l0.1-0.1
		c0-0.3,0.1-0.6,0-0.8c-0.2-0.3-0.6-0.2-0.8,0c-0.9,0.8-1.1,1.8-0.9,2.9c0,0.1,0.1,0.2,0.1,0.3s0,0.1-0.1,0.3c-1-0.8-1.1-1.9-0.9-3
		c0.2-0.7,0.6-1.3,0.9-1.9c0.2-0.3,0.5-0.7,0.1-1.1c-0.3-0.3-0.7-0.2-1.1,0.3c-0.5,0.6-0.8,1.4-1.3,2.1c-0.1-0.3-0.2-0.5-0.3-0.7
		c-0.2-1.9,0.4-3.4,1.8-4.7c2.4-2.3,5.2-2.7,8.3-2.3c0.2,0,0.5,0.1,0.7,0.1c0.4,0,0.8-0.2,1-0.6c1.1-2.4,2.7-4.5,4.3-6.6
		c0.9-1.2,1.8-2.3,2.8-3.6c0.7,1,1.2,1.8,1.8,2.7c0.6,0.8,1.2,1.6,2.1,2.1c0.3,0.2,0.6,0.4,0.9,0.7
		C29.6,135.6,29.6,135.6,29.2,136.1z"/>
	<path class="st3" d="M24.4,129.6c0.7,1,1.2,1.8,1.8,2.7c0.6,0.8,1.2,1.6,2.1,2.1c0.3,0.2,0.6,0.4,0.9,0.7c0.5,0.4,0.5,0.5,0.1,1
		c-0.9,1.1-1.9,2.2-2.8,3.4c-0.7,1-1.4,2.1-2,3.1c-0.3,0.5-0.4,1.1-0.2,1.7c0.2,0.6,0.3,1.2,0.5,1.7c0.4,1.2,0.4,2.4,0.3,3.6
		c-0.1,1.4-0.8,2.5-2.2,3.1c-0.5,0.2-1,0.4-1.5,0.6c-0.4,0.2-0.6,0-0.7-0.4c0-0.3-0.1-0.6-0.1-1c0-0.3,0.1-0.5,0.4-0.6
		c0.2,0,0.5-0.3,0.5-0.4c0-0.2-0.2-0.5-0.4-0.6c-0.9-0.4-1.9-0.4-2.7-0.1c-1.4,0.4-2.8,0.9-3.9,2c-0.4,0.4-0.6,0.7-0.5,1.2
		c0.2,0.7,0.2,1.3,0.3,2c0,0.4-0.2,0.6-0.6,0.4c-0.7-0.3-1.2-0.8-1.5-1.4c-0.7-1.4-0.8-2.8-0.2-4.3c0.1-0.3,0.3-0.5,0.3-0.8
		c0-0.2,0-0.5-0.2-0.6c-0.2-0.2-0.6-0.1-0.7,0.1c-0.5,0.8-0.9,1.6-0.9,2.6c0,0.8,0.2,1.7,0.3,2.5c0,0.2,0.1,0.4,0.2,0.9
		c-0.3-0.3-0.5-0.5-0.6-0.6c-0.7-1.1-1.2-2.3-1.2-3.7c0-0.6,0-1.2,0.5-1.7l0.1-0.1c0-0.3,0.1-0.6,0-0.8c-0.2-0.3-0.6-0.2-0.8,0
		c-0.9,0.8-1.1,1.8-0.9,2.9c0,0.1,0.1,0.2,0.1,0.3s0,0.1-0.1,0.3c-1-0.8-1.1-1.9-0.9-3c0.2-0.7,0.6-1.3,0.9-1.9
		c0.2-0.3,0.5-0.7,0.1-1.1c-0.3-0.3-0.7-0.2-1.1,0.3c-0.5,0.6-0.8,1.4-1.3,2.1c-0.1-0.3-0.2-0.5-0.3-0.7c-0.2-1.9,0.4-3.4,1.8-4.7
		c2.4-2.3,5.2-2.7,8.3-2.3c0.2,0,0.5,0.1,0.7,0.1c0.4,0,0.8-0.2,1-0.6c1.1-2.4,2.7-4.5,4.3-6.6C22.4,132,23.4,130.9,24.4,129.6"/>
	<path class="st5" d="M20.7,191.9c-0.2-0.9-0.3-1.8-0.5-2.7c-1.1-7.2-2.3-14.5-3.4-21.7c-0.1-0.6,0-1,0.6-1.4
		c0.9-0.6,1.9-1.1,2.9-1.3c0.7-0.1,0.9,0,1,0.7c0.3,2.6,0.7,5.3,1,7.9c0.4,2.8,0.7,5.7,1.1,8.5c0.3,2.7,0.7,5.5,1,8.2
		c0.1,0.8,0.1,0.7-0.7,0.9C22.8,191.3,21.8,191.6,20.7,191.9"/>
	<path class="st6" d="M16.6,165.4c-0.3-1.5-0.5-2.9-0.7-4.3c-0.4-2.4-0.7-4.7-1.1-7.1c-0.2-1.1-0.2-1.3,0.8-1.7
		c0.9-0.5,1.9-0.8,2.9-1.1c0.8-0.2,1.1,0,1.2,0.8c0.3,2,0.5,4,0.7,5.9c0.2,1.7,0.4,3.4,0.7,5.1c0.1,0.5-0.1,0.7-0.5,0.7
		C19.1,163.9,17.9,164.5,16.6,165.4"/>
	<path class="st6" d="M23.5,209.8c-0.1-0.8-0.3-1.5-0.4-2.2c-0.6-3.9-1.2-7.8-1.8-11.7c-0.1-0.7,0.1-1,0.6-1.2
		c0.8-0.3,1.6-0.7,2.4-1c0.5-0.2,0.7,0,0.8,0.6c0.1,0.7,0.2,1.5,0.3,2.2c0.3,2.3,0.6,4.6,0.9,6.8c0,0.2,0.1,0.5,0,0.7
		c-0.1,1.5,0.1,2.9,0.4,4.4c0.1,0.6,0,0.7-0.5,0.6C25.3,209,24.5,209.4,23.5,209.8"/>
	<path class="st2" d="M10.3,133.6c-1.1-0.4-2.1-0.6-3-1c-2.1-0.8-3.8-2.2-5.4-3.7c-1.1-1.1-0.6-3.1,0.7-3.7c1.7-0.8,3.4-0.5,4.7,0.8
		s1.9,2.8,2.3,4.5C9.8,131.5,10,132.5,10.3,133.6"/>
	<path class="st7" d="M12.8,135.4c-0.8-0.3-1.2-0.9-1.4-1.7c-0.2-0.9-0.4-1.8-0.6-2.7c-0.3-1-0.6-1.9-0.9-2.9
		c-0.5-1.5-1.5-2.7-2.7-3.6c-1.5-1.2-3.2-1-4.9-0.3c-0.3,0.1-0.5,0.3-0.9,0.5c-0.3-1,0.1-1.8,0.5-2.5c0.5-0.7,1.2-1.1,2-1.1
		c0.6,0,1.2,0.1,1.7,0.4c1.1,0.7,2.2,1.4,3.2,2.3c1.5,1.3,2.4,3,3,4.9c0.6,2,0.9,4,1,6.1C12.9,135.1,12.8,135.2,12.8,135.4"/>
	<path class="st8" d="M12.2,136.5c-0.3,0.5-0.6,0.7-1.1,0.3c-1.3-0.8-2.8-1.3-4.4-1.6c-1.1-0.2-2.2-0.7-3.3-1.1
		c-0.9-0.4-1.4-1.2-1.7-2.1c-0.2-0.6-0.3-1.3-0.6-2.1c0.5,0.4,0.9,0.7,1.3,1c1.7,1.3,3.5,2.5,5.6,3.1
		C9.7,134.4,11.1,135.2,12.2,136.5"/>
	<path class="st9" d="M16.1,139h-3.8c-0.5,0-0.6-0.1-0.4-0.5c0.4-0.8,1-1.4,2-1.4c1.1,0,1.8,0.6,2.4,1.5c0.1,0.1,0.1,0.3,0,0.3
		C16.2,139,16.1,139,16.1,139"/>
	<path class="st9" d="M24.9,211.4c-0.4,0-0.9,0.1-1.2-0.4c-0.2-0.3,0.2-0.7,0.9-1c0.6-0.3,1.2-0.4,1.9-0.2c0.5,0.2,0.6,0.6,0.2,1
		C26.2,211.2,25.6,211.5,24.9,211.4"/>
	<path class="st9" d="M23.7,191.9c0.4,0,0.6-0.1,0.7-0.1c0.2,0.1,0.3,0.2,0.3,0.4c0,0.1-0.1,0.3-0.2,0.3c-1.2,0.2-2.2,0.6-3.2,1.3
		c-0.1,0-0.4-0.1-0.4-0.2c-0.1-0.4,0-0.8,0.4-1C22.2,192.1,23.1,192,23.7,191.9"/>
</g>
<g id="BrazoIzq">
	<path class="st0" d="M102.9,152c-0.5-0.5-1.1-0.8-1.6-1.2c-0.4-0.3-0.8-0.4-1.1-0.7c-1.7-1.4-3.3-2.7-5-4.1
		c-0.9-0.8-1.9-1.6-2.4-2.8c-0.4-1-0.9-2-1.3-3.1c-0.5-1.3-0.8-2.6-1.4-3.8c-1-2.2-2.1-4.4-3.2-6.6c-0.1-0.2-0.7-1.2-0.8-1.6
		c-0.1-0.1-0.2-0.3-0.3-0.4c-1,2.5-2.2,4.7-4.5,6.3c-0.5,0.4-1,0.8-1.4,1.1c0,0.1,0.1,0.1,0.1,0.2l0,0c0.1,0.1,0.1,0.1,0.2,0.2
		c0,0,0.4,0.8,0.5,0.8c0.2,0.3,0.4,0.6,0.5,1c0.7,1.6,1.2,3.2,2,4.8c1.1,2.2,1.6,4.5,2.3,6.8c0.2,0.5,0.1,0.9-0.3,1.3
		c-0.4,0.5-0.8,1-1.2,1.5c-0.9,1.2-1.4,2.6-1.3,4.1c0.1,1,0.7,1.6,1.6,1.7c1.4,0.2,2.4-0.3,3.2-1.5c0.2-0.4,0.4-0.8,0.7-1.1
		c0.2-0.3,0.4-0.5,0.8-0.9c0.3,1,0.6,1.7,0.7,2.4c0.3,1.5,0.7,3,1.4,4.3c0.3,0.6,0.8,1.1,1.5,1.1c0.6,0,1.3,0.1,1.9,0.2
		c0.8,0.1,1.4-0.1,1.9-0.7c0.2-0.3,0.4-0.5,0.6-0.8s0.4-0.6,0.8-0.6c0.5-0.1,1-0.4,1.2-0.9c0.3-0.7,0.6-1.4,0.8-2.1
		c0.2-0.6,0.2-0.7,0.9-0.5c1,0.4,2.4-0.1,2.8-1.4C103.8,154,103.7,152.8,102.9,152z M102.6,154.8c-0.1,0.5-0.8,0.9-1.3,0.8
		c-0.7-0.1-1.2-0.6-1.2-1.2c0-1,0-2-0.1-3c-0.9,0.1-0.9,0.1-1,1c-0.1,1.4-0.1,2.7-0.2,4.1c-0.1,1-0.3,1.4-1.1,2.3c0-0.3,0-0.6,0-0.8
		c-0.1-1.9-0.1-3.7-0.2-5.6c0-0.4,0-0.9-0.6-1c-0.3-0.1-0.5,0.3-0.4,1.1c0.1,1.6,0.2,3.2,0.2,4.8c0,0.9-0.2,1.8-0.5,2.7
		s-0.7,1.1-1.8,1.1c0.8-2.4,0.4-4.7,0-7.1v-0.1c-0.1-0.4-0.2-1.1-0.7-1c-0.6,0.1-0.3,0.7-0.2,1.1c0.4,1.7,0.5,3.5,0.4,5.2
		c0,0.5-0.1,1-0.3,1.4c-0.1,0.3-0.5,0.5-0.8,0.5c-0.4,0.1-0.6-0.3-0.7-0.7c-0.3-1.2-0.7-2.4-0.9-3.6c-0.2-1-0.4-2-0.9-3
		c-0.4-0.9-1.4-1.3-2.3-0.2c-0.4,0.4-0.6,0.9-0.9,1.4c-0.3,0.4-0.5,0.8-0.9,1.1c-0.3,0.2-0.8,0.4-1.2,0.4c-0.7,0-1-0.4-1-1.1
		c0-0.9,0.3-1.7,0.7-2.4c0.4-0.6,0.8-1.3,1.3-1.8c0.8-0.9,0.9-1.8,0.6-3c-0.9-3.5-2.4-6.8-3.8-10.2c-0.3-0.8-0.8-1.5-1.3-2.4
		c0.8-0.7,1.8-1.4,2.6-2.3c0.8-0.9,1.4-1.9,2.2-3c0.3,0.5,0.5,0.9,0.7,1.3c0.7,1.7,1.5,3.4,2.2,5.1c0.6,1.5,1.1,3.1,1.7,4.6
		c0.2,0.5,0.5,1,0.7,1.5c0.6,1.6,1.7,2.9,3,3.9c1.8,1.5,3.7,3,5.5,4.6c0.1,0,0.1,0.1,0.1,0.2c1,0.1,1.7,0.7,2.4,1.4
		C102.9,153.4,102.8,154.2,102.6,154.8z"/>
	<path class="st3" d="M100,151.5c-0.9,0.1-0.9,0.1-1,1c-0.1,1.4-0.1,2.7-0.2,4.1c-0.1,1-0.3,1.4-1.1,2.3c0-0.3,0-0.6,0-0.8
		c-0.1-1.9-0.1-3.7-0.2-5.6c0-0.4,0-0.9-0.6-1c-0.3-0.1-0.5,0.3-0.4,1.1c0.1,1.6,0.2,3.2,0.2,4.8c0,0.9-0.2,1.8-0.5,2.7
		s-0.7,1.1-1.8,1.1c0.8-2.4,0.4-4.7,0-7.1V154c-0.1-0.4-0.2-1.1-0.7-1c-0.6,0.1-0.3,0.7-0.2,1.1c0.4,1.7,0.5,3.5,0.4,5.2
		c0,0.5-0.1,1-0.3,1.4c-0.1,0.3-0.5,0.5-0.8,0.5c-0.4,0.1-0.6-0.3-0.7-0.6c-0.3-1.2-0.7-2.4-0.9-3.6c-0.2-1-0.4-2-0.9-3
		c-0.4-0.9-1.4-1.3-2.3-0.2c-0.4,0.4-0.6,0.9-0.9,1.4c-0.3,0.4-0.5,0.8-0.9,1.1c-0.3,0.2-0.8,0.4-1.2,0.4c-0.7,0-1-0.4-1-1.1
		c0-0.9,0.3-1.7,0.7-2.4c0.4-0.6,0.8-1.3,1.3-1.8c0.8-0.9,0.9-1.8,0.6-3c-0.9-3.5-2.4-6.8-3.8-10.2c-0.3-0.8-0.8-1.5-1.3-2.4
		c0.8-0.7,1.8-1.4,2.6-2.3c0.8-0.9,1.4-1.9,2.2-3c0.3,0.5,0.5,0.9,0.7,1.3c0.7,1.7,1.5,3.4,2.2,5.1c0.6,1.5,1.1,3.1,1.7,4.6
		c0.2,0.5,0.5,1,0.7,1.5c0.6,1.6,1.7,2.9,3,3.9C96.4,148.4,98.3,149.9,100,151.5C100,151.3,100,151.4,100,151.5L100,151.5z"/>
	<path class="st3" d="M100,151.4c1,0.1,1.7,0.7,2.4,1.4c0.5,0.6,0.4,1.3,0.2,1.9c-0.1,0.5-0.8,0.9-1.3,0.8c-0.7-0.1-1.2-0.6-1.2-1.2
		C100.1,153.4,100,152.4,100,151.4L100,151.4z"/>
</g>
<g id="Torso">
	<path class="st0" d="M86.9,128.5c0.8-2,1-4,0.9-6.1c0-0.9-0.3-1.6-1-2.2c-1.6-1.2-3.1-2.4-4.7-3.5c-3.3-2.3-6.8-4.2-10.5-5.8
		c-0.4-0.2-0.9-0.4-1.3-0.6c-0.2-0.2-0.3-0.4-0.1-0.6c-0.1-0.1-0.1-0.1-0.2-0.2c-0.4-0.8-1.2-0.6-2-0.7c-0.4,0-0.8-0.1-1.2-0.3
		c-1.3,0.2-2.5,0.3-3.8,0.5c-1.9,0.3-3.8,0.4-5.7,0.5c-3.1,0.2-6.1,0-9.2-0.5c-0.8-0.1-1.5-0.2-2.3-0.3c-0.9,0.4-4,0.3-4.5,0.4
		c-0.2,0.3-0.3,0.2-0.6,0.8c0,0.1-0.1,0.3-0.2,0.4c-0.3,0.2-0.6,0.3-1,0.5c-1.9,0.9-4,1.7-5.8,2.8c-2.7,1.6-5.3,3.3-7.8,5.1
		c-0.7,0.5-1.4,1.1-2,1.7c-0.5,0.4-0.8,1-0.8,1.7c0,2-0.1,3.9,0.7,5.8c0.1,0.2,1.8,3.6,2.4,4.5c0.6,0.8,1.2,1.6,2.1,2.1
		c0.3,0.2,0.6,0.4,0.9,0.7s0.9,0.8,1,1c0.2,0.1,0.3,0.2,0.4,0.3l0,0c0.9,0.4,1.7,0.7,2.6,1.1c-0.1,0.4-0.2,0.8-0.3,1.3
		c-0.8,2.8-1.8,5.5-2.3,8.3c-0.1,0.6-0.2,1.3-0.3,1.9c-0.1,0.6,0,1.1,0.5,1.5s1,1,1.5,1.4c0.2,0.2,0.3,0.3,0.2,0.5l0,0
		c0.5,0,0.7,0.3,0.9,0.6c0,0,0,0,0-0.1c0.2,0,0.3,0,0.3,0.1c3.3,2,7,2.6,10.7,3c3.5,0.4,7.1,0.8,10.6,1.1c0.9,0.1,1.9-0.1,2.9-0.2
		c3.3-0.3,6.5-0.6,9.8-1.1c3.2-0.5,6.5-1.1,9.3-2.8c0.1,0,1.4-0.7,1.3-0.8c0.5-0.5,1.1-1.1,1.6-1.6s0.8-1,0.6-1.7
		c-0.4-1.9-0.8-3.9-1.3-5.8c-0.4-1.7-1-3.3-1.5-4.9c-0.2-0.6-0.2-0.6,0.5-0.8c0.8-0.3,3.2-1.6,3.1-1.7c0.8-0.7,1.8-1.4,2.6-2.3
		c0.8-0.9,1.4-1.9,2.2-3C86.2,130.3,86.7,128.9,86.9,128.5z M60.3,111.7c0.2-0.6,0.5-0.8,1.1-0.9c2.4-0.3,4.7-0.7,7.1-1
		c0.4-0.1,0.6,0.1,0.6,0.5c-0.2,1.4-0.3,2.8-0.5,4.2c-0.5,3.2-1.9,6-3.3,8.8c-0.1,0.2-0.3,0.5-0.5,0.6c-0.4,0.3-0.8,0.1-1.1-0.4
		c-0.7-1.1-1.4-2.2-2-3.3c-1.1-1.8-2.3-3.4-4.2-4.3c-0.1-0.1-0.2-0.1-0.4-0.2c0.9-1.1,1.8-2,2.6-2.9
		C59.9,112.5,60.2,112.1,60.3,111.7z M60.4,129.4c0,0.4-0.1,1-0.2,1.5c-0.4,2.4-1.8,3.3-4.2,3.7c-1.2,0.2-2.3-0.1-3.4-0.6
		c-0.9-0.4-1.5-1.1-1.8-2c-0.4-1-0.5-2.1-0.4-3.2c0.2-2.7,0.3-5.5,0.9-8.2c0-0.1,0-0.2,0-0.2c0.1-1.9,1.4-3,2.9-3.7
		c0.7-0.4,1.5-0.4,2.2,0s1.4,0.8,2,1.3c0.4,0.3,0.6,0.8,0.7,1.3c0.5,2.2,0.9,4.5,1,6.7C60.3,127.1,60.3,128.2,60.4,129.4z
		 M59.4,110.9c-0.1,0.7-0.4,1-0.7,1.3c-0.6,0.7-1.3,1.4-2,2.1c-1.2,1.1-1.4,1.2-2.6,0c-0.7-0.7-1.3-1.4-2-2.1
		c-0.3-0.3-0.5-0.7-0.9-1.3C54.1,111,56.7,111.1,59.4,110.9z M42.4,109.8c2.4,0.3,4.7,0.7,7.1,1c0.5,0.1,0.8,0.3,1,0.8
		c0.1,0.4,0.4,0.9,0.7,1.2c0.8,0.9,1.6,1.8,2.5,2.8c-0.1,0.1-0.2,0.2-0.2,0.3c-2,1-3.3,2.7-4.4,4.5c-0.6,1-1.2,2-1.8,2.9
		s-1.2,1-1.7,0c-1.9-3.5-3.4-7.2-3.7-11.3c0-0.6-0.2-1.1-0.2-1.7C41.8,109.9,41.9,109.7,42.4,109.8z M32.4,135.9
		c-0.2-0.1-0.4-0.2-0.6-0.3c-3.5-2.2-6-5.1-7-9.1c-0.4-1.5-0.2-2.9-0.2-4.4c0-0.2,0.1-0.5,0.3-0.6c0.3-0.4,0.7-0.7,1.1-1.1
		c0.1,0,0.2,0.1,0.2,0.1c-0.2,2.4,0.7,4.6,1.8,6.6c1.3,2.2,3.1,3.9,5.2,5.4c0.5,0.3,1,0.7,1.5,1c-0.2,0.6-0.3,1.2-0.5,1.8
		C33.6,136.4,33.6,136.4,32.4,135.9z M79,146.2c0.2,0.8,0.3,1.6,0.4,2.4c0.1,0.6-0.1,1-0.5,1.4c-2.1,2.1-4.6,3.2-7.4,3.9
		c-3.1,0.8-6.2,1.1-9.4,1.4c-1.6,0.2-3.3,0.4-4.9,0.4c-2.3,0-4.6-0.1-6.8-0.2c-2.5-0.2-5-0.5-7.5-0.9c-2.2-0.3-4.3-0.8-6.4-1.6
		c-1.7-0.6-3.1-1.6-4.4-2.8c-0.6-0.6-0.8-1.1-0.6-1.9c0.2-1.1,0.4-2.3,0.7-3.4c1-3.5,2.1-6.9,3.3-10.4c0.9-2.7,1.9-5.3,2.8-8
		c0.2-0.6,0.5-1.3,0.2-2.2c-0.4,0.8-0.8,1.4-1.1,2.1c-0.6,1.5-1.2,3.1-1.7,4.6c-0.2,0.4-0.3,0.8-0.5,1.2c-1.1-0.4-1.9-1-2.6-1.6
		c-2.5-2.1-4.4-4.6-5.2-7.8c-0.2-0.9-0.3-1.8-0.4-2.7c0-0.4,0.3-0.6,0.6-0.8c3-2.1,6-4.1,9.2-5.8c1.3-0.6,2.5-1.3,3.9-2
		c0.3,1.6,0.5,3,0.8,4.4c0.3,1.2,0.6,2.5,1.1,3.7c0.6,1.6,1.4,3.1,2.2,4.7c0.3,0.7,0.8,1,1.6,1c0.7,0,1.2-0.2,1.6-0.8
		c0.5-0.8,1-1.6,1.5-2.3c0.2-0.3,0.4-0.5,0.7-0.7c-0.1,0.9-0.3,1.8-0.3,2.7c-0.2,2.2-0.3,4.4-0.4,6.6c0,2.3,1.4,4.1,3.5,4.9
		c1.9,0.8,3.7,0.6,5.4-0.3c2-0.9,2.9-2.6,3-4.7c0.1-2.8-0.1-5.5-0.6-8.2c-0.1-0.3-0.1-0.6-0.1-1.2c0.3,0.4,0.5,0.6,0.7,0.8
		c0.5,0.7,1,1.5,1.4,2.2c0.7,1.4,2.7,1.3,3.4,0c1.8-3.4,3.4-6.9,3.8-10.8c0.1-0.6,0.2-1.2,0.2-1.7c0.1,0,0.2-0.1,0.3-0.1
		c3,1.7,6.2,3.1,9.1,5c1.3,0.9,2.5,1.7,3.8,2.6c0.6,0.4,0.7,0.8,0.7,1.4c-0.2,2.8-1.2,5.2-2.9,7.4c-1.2,1.5-2.5,2.8-4.2,3.7
		c-0.3,0.2-0.7,0.4-1.1,0.6c-1.3-2.5-1.8-5.4-3.3-7.7c-0.1,0-0.2,0-0.2,0.1c0.1,0.6,0.1,1.2,0.3,1.7c0.8,2.4,1.5,4.7,2.4,7
		C76.6,137.5,77.8,141.8,79,146.2z M81.3,133.9c-0.7,0.5-1.2,1-1.9,1.5c-0.6,0.4-1.3,0.6-2.1,1c-0.3-0.9-0.6-1.8-0.9-2.6
		c-0.2-0.5,0.2-0.6,0.5-0.8c1.7-0.9,3.2-2.3,4.5-3.7c1.7-1.9,2.8-4.1,3.3-6.5c0.2-0.8,0.1-1.6,0.2-2.5c1,0.7,1.7,1.3,1.6,2.6
		c-0.1,1.3,0.1,2.7-0.4,4C85,129.7,83.7,132.2,81.3,133.9z"/>
	<path class="st0" d="M59,125.1c0,0.9-0.2,1.8-0.8,2.6c-1.6,2.3-5.2,1.9-6.5-0.1c-0.7-1.1-0.6-2.9,0.3-4c0.3-0.4,0.8-0.8,1.2-1.2
		c0.8-0.7,1.7-0.9,2.8-0.4c0.3,0.1,0.6,0.2,0.9,0.2c1.4,0.3,1.9,0.9,2,2.2C59,124.6,59,124.8,59,125.1 M57.8,125.3
		c0-0.4,0-0.6,0-0.7c-0.1-1-0.3-1.3-1.4-1.4c-0.5,0-1-0.1-1.5-0.2c-0.2,0-0.5,0-0.7,0.1c-0.8,0.5-1.3,1.2-1.6,2.2
		c-0.2,1,0.1,1.8,1.1,2.3C55.8,128.6,57.8,127.4,57.8,125.3"/>
	<path class="st10" d="M57.8,125.3c0,2.1-2,3.3-4.1,2.3c-0.9-0.5-1.3-1.3-1.1-2.3c0.2-0.9,0.8-1.6,1.6-2.2c0.2-0.1,0.4-0.1,0.7-0.1
		c0.5,0,1,0.1,1.5,0.2c1,0.1,1.3,0.3,1.4,1.4C57.8,124.7,57.8,124.9,57.8,125.3 M53.8,125.4c0,0.2,0.1,0.6,0.5,0.7
		c0.3,0.1,0.6-0.3,0.6-0.8s-0.3-0.9-0.6-0.9C54,124.3,53.7,124.7,53.8,125.4 M55.9,124.4c-0.5,0.1-0.7,0.4-0.7,0.8s0,0.7,0.4,0.9
		c0.1,0,0.2,0,0.3-0.1c0.3-0.2,0.5-1,0.3-1.3C56.2,124.5,56,124.4,55.9,124.4"/>
	<path class="st0" d="M53.8,125.4c0-0.7,0.2-1,0.5-1s0.6,0.4,0.6,0.9s-0.3,0.9-0.6,0.8C53.8,126,53.8,125.6,53.8,125.4"/>
	<path class="st0" d="M55.9,124.4c0.1,0.1,0.3,0.2,0.4,0.3c0.2,0.3-0.1,1.1-0.3,1.3c-0.1,0.1-0.2,0.1-0.3,0.1
		c-0.4-0.2-0.4-0.5-0.4-0.9C55.3,124.8,55.4,124.4,55.9,124.4"/>
	<path class="st11" d="M40.7,111.4c0.3,1.6,0.5,3,0.8,4.4c0.3,1.2,0.6,2.5,1.1,3.7c0.6,1.6,1.4,3.1,2.2,4.7c0.3,0.7,0.8,1,1.6,1
		c0.7,0,1.2-0.2,1.6-0.8c0.5-0.8,1-1.6,1.5-2.3c0.2-0.3,0.4-0.5,0.7-0.7c-0.1,0.9-0.3,1.8-0.3,2.7c-0.2,2.2-0.3,4.4-0.4,6.6
		c0,2.3,1.4,4.1,3.5,4.9c1.9,0.8,3.7,0.6,5.4-0.3c2-0.9,2.9-2.6,3-4.7c0.1-2.8-0.1-5.5-0.6-8.2c-0.1-0.3-0.1-0.6-0.1-1.2
		c0.3,0.4,0.5,0.6,0.7,0.8c0.5,0.7,1,1.5,1.4,2.2c0.7,1.4,2.7,1.3,3.4,0c1.8-3.4,3.4-6.9,3.8-10.8c0.1-0.6,0.2-1.2,0.2-1.7
		c0.1,0,0.2-0.1,0.3-0.1c3,1.7,6.2,3.1,9.1,5c1.3,0.9,2.5,1.7,3.8,2.6c0.6,0.4,0.7,0.8,0.7,1.4c-0.2,2.8-1.2,5.2-2.9,7.4
		c-1.2,1.5-2.5,2.8-4.2,3.7c-0.3,0.2-0.7,0.4-1.1,0.6c-1.3-2.5-1.8-5.4-3.3-7.7c-0.1,0-0.2,0-0.2,0.1c0.1,0.6,0.1,1.2,0.3,1.7
		c0.8,2.4,1.5,4.7,2.4,7c1.7,4.2,2.9,8.6,4.1,13c0.2,0.8,0.3,1.6,0.4,2.4c0.1,0.6-0.1,1-0.5,1.4c-2.1,2.1-4.6,3.2-7.4,3.9
		c-3.1,0.8-6.2,1.1-9.4,1.4c-1.6,0.2-3.3,0.4-4.9,0.4c-2.3,0-4.6-0.1-6.8-0.2c-2.5-0.2-5-0.5-7.5-0.9c-2.2-0.3-4.3-0.8-6.4-1.6
		c-1.7-0.6-3.1-1.6-4.4-2.8c-0.6-0.6-0.8-1.1-0.6-1.9c0.2-1.1,0.4-2.3,0.7-3.4c1-3.5,2.1-6.9,3.3-10.4c0.9-2.7,1.9-5.3,2.8-8
		c0.2-0.6,0.5-1.3,0.2-2.2c-0.4,0.8-0.8,1.4-1.1,2.1c-0.6,1.5-1.2,3.1-1.7,4.6c-0.2,0.4-0.3,0.8-0.5,1.2c-1.1-0.4-1.9-1-2.6-1.6
		c-2.5-2.1-4.4-4.6-5.2-7.8c-0.2-0.9-0.3-1.8-0.4-2.7c0-0.4,0.3-0.6,0.6-0.8c3-2.1,6-4.1,9.2-5.8C38.1,112.7,39.3,112.1,40.7,111.4"
		/>
	<path class="st12" d="M60.4,129.4c0,0.4-0.1,1-0.2,1.5c-0.4,2.4-1.8,3.3-4.2,3.7c-1.2,0.2-2.3-0.1-3.4-0.6c-0.9-0.4-1.5-1.1-1.8-2
		c-0.4-1-0.5-2.1-0.4-3.2c0.2-2.7,0.3-5.5,0.9-8.2c0-0.1,0-0.2,0-0.2c0.1-1.9,1.4-3,2.9-3.7c0.7-0.4,1.5-0.4,2.2,0s1.4,0.8,2,1.3
		c0.4,0.3,0.6,0.8,0.7,1.3c0.5,2.2,0.9,4.5,1,6.7C60.3,127.1,60.3,128.2,60.4,129.4 M59,125.1c0-0.2,0-0.5,0-0.7
		c-0.1-1.4-0.7-2-2-2.2c-0.3-0.1-0.6-0.1-0.9-0.2c-1-0.5-2-0.3-2.8,0.4c-0.4,0.4-0.8,0.8-1.2,1.2c-0.9,1.2-1,3-0.3,4
		c1.3,2,4.9,2.4,6.5,0.1C58.8,126.9,59,126,59,125.1"/>
	<path class="st12" d="M57.1,115.7c0.9-1.1,1.8-2,2.6-2.9c0.3-0.3,0.5-0.7,0.7-1.1c0.2-0.6,0.5-0.8,1.1-0.9c2.4-0.3,4.7-0.7,7.1-1
		c0.4-0.1,0.6,0.1,0.6,0.5c-0.2,1.4-0.3,2.8-0.5,4.2c-0.5,3.2-1.9,6-3.3,8.8c-0.1,0.2-0.3,0.5-0.5,0.6c-0.4,0.3-0.8,0.1-1.1-0.4
		c-0.7-1.1-1.4-2.2-2-3.3c-1.1-1.8-2.3-3.4-4.2-4.3C57.3,115.9,57.2,115.8,57.1,115.7"/>
	<path class="st12" d="M53.7,115.6c-0.1,0.1-0.2,0.2-0.2,0.3c-2,1-3.3,2.7-4.4,4.5c-0.6,1-1.2,2-1.8,2.9s-1.2,0.9-1.7,0
		c-1.9-3.5-3.4-7.2-3.7-11.3c0-0.6-0.2-1.1-0.2-1.7c0-0.5,0.1-0.7,0.6-0.6c2.4,0.3,4.7,0.7,7.1,1c0.5,0.1,0.8,0.3,1,0.8
		c0.1,0.4,0.4,0.9,0.7,1.2C52,113.8,52.9,114.7,53.7,115.6"/>
	<path class="st12" d="M26.1,120.4c-0.2,2.4,0.7,4.6,1.8,6.6c1.3,2.2,3.1,3.9,5.2,5.4c0.5,0.3,1,0.7,1.5,1c-0.2,0.6-0.3,1.2-0.5,1.8
		c-0.4,1.2-0.4,1.2-1.7,0.7c-0.2-0.1-0.4-0.2-0.6-0.3c-3.5-2.2-6-5.1-7-9.1c-0.4-1.5-0.2-2.9-0.2-4.4c0-0.2,0.1-0.5,0.3-0.6
		c0.3-0.4,0.7-0.7,1.1-1.1C25.9,120.3,26,120.4,26.1,120.4"/>
	<path class="st12" d="M77.3,136.4c-0.3-0.9-0.6-1.8-0.9-2.6c-0.2-0.5,0.2-0.6,0.5-0.8c1.7-0.9,3.2-2.3,4.5-3.7
		c1.7-1.9,2.8-4.1,3.3-6.5c0.2-0.8,0.1-1.6,0.2-2.5c1,0.7,1.7,1.3,1.6,2.6c-0.1,1.3,0.1,2.7-0.4,4c-1,2.7-2.3,5.3-4.8,7
		c-0.7,0.5-1.2,1-1.9,1.4C78.7,135.8,78,136,77.3,136.4"/>
	<path class="st3" d="M51.3,110.9c2.9,0,5.5,0.2,8.2,0c-0.1,0.7-0.4,1-0.7,1.3c-0.6,0.7-1.3,1.4-2,2.1c-1.2,1.1-1.4,1.2-2.6,0
		c-0.7-0.7-1.3-1.4-2-2.1C51.9,111.9,51.7,111.5,51.3,110.9"/>
</g>
<g id="Cabeza">
	<path class="st0" d="M105.3,70.2c-0.1-0.1-0.2-0.5-0.1-0.6c0.9-1.9,1.3-4,1.7-6.1c0.5-2.3,0.3-4.4-0.6-6.6
		c-0.1-0.3-0.2-0.6-0.3-0.8c1.2-0.6,1.4-0.9,1.3-1.8c-0.1-2.3-1-4.4-2.3-6.3c-0.2-0.2-0.3-0.4-0.5-0.7c0.5-0.2,0.9-0.4,1.3-0.6
		c1.5-0.9,1.9-2.3,0.9-3.7c-0.2-0.2-0.3-0.4-0.5-0.6c-1.4-1.4-3.1-2.2-4.9-2.9c-0.6-0.2-1.3-0.4-2-0.6c0.1-0.2,0.2-0.4,0.3-0.6
		c1-1.8,0.4-3.3-1.6-3.9c-0.7-0.2-1.5-0.3-2.2-0.5c-1.6-0.3-3.2-0.4-4.9-1.1c1.1-1,1.4-2.3,1.9-3.5c0.2-0.6,0.5-1.3,0.7-1.9
		c0.2-0.7-0.3-1.1-1-0.9c-0.3,0.1-0.5,0.3-0.7,0.4c-0.9,0.3-1.8,0.8-2.7,1c-1.9,0.3-3.8,0.2-5.7-0.2c-0.4-0.1-0.8-0.3-1.2-0.4
		c0.5-0.2,1-0.3,1.4-0.3c1.2-0.2,1.5-1.2,0.7-2.1c-0.2-0.2-0.4-0.5-0.7-0.6c-0.9-0.5-1.8-1-2.8-1.3c-1.4-0.5-2.9-0.6-4.4-0.6
		s-3,0-4.5,0c0.4-0.4,0.8-0.6,1.2-0.9c0.5-0.4,1.1-0.8,1-1.5c-0.1-0.8-0.6-1.2-1.3-1.4c-0.6-0.2-1.2-0.4-1.9-0.5
		c-1.8-0.3-3.6-0.2-5.4-0.1c-4.2,0.4-8,1.7-11.6,3.9c-0.9,0.6-1.6,1.3-2.4,1.9c-0.1-0.1-0.2-0.2-0.3-0.3c-0.9-1.4-2.3-1.7-3.9-1.6
		c-2.6,0.2-4.8,1.1-6.6,3c-0.4,0.4-0.8,0.8-1.3,1.3c-0.3-1.6-1.4-1.8-2.6-1.7c-0.5,0-1,0.1-1.4,0.2c-4.7,1.2-8.6,3.6-11.4,7.6
		c-0.8,1.1-1.4,2.3-2.2,3.6c-0.4-0.4-0.8-0.7-1.2-1c-0.5-0.4-1-0.9-1.6-1.3c-0.9-0.6-2-0.8-3.1-0.4c-1,0.4-1.5,1.1-1.1,2.2
		c0.3,0.7,0.8,1.4,1.3,2c0.3,0.4,0.8,0.8,1.3,1.3c-0.9,0-1.6,0-2.3,0c-1.7,0.1-3.2,0.7-4.5,1.8c-0.9,0.7-0.5,2.2,0.7,2.5
		c0.3,0.1,0.6,0.1,1,0.2C8,46.3,5.2,50.3,4,55.3c-1.2,5.1-0.4,9.9,2.2,14.4c-1,0.7-1.8,1.5-2.1,2.6c-0.4,1.3-0.8,2.7-0.8,4.1
		c0,3.7,2.7,6.5,6.4,6.7h0.1c0.7,0,0.7,0,0.7,0.8c0,1.3,0,2.6-0.1,4c-0.1,3.6,1.4,6.7,3.6,9.4c2,2.4,4.5,4.2,7.2,5.7
		c2.3,1.3,4.7,2.2,7.1,3.3c0.5,0.2,1,0.4,1.5,0.5c3,0.8,6,1.5,8.9,2.2c0.5,0.1,1.1,0.3,1.6,0.4c0.1,0,0.2,0.1,0.2,0.1
		c0.2-0.1,0.4-0.1,0.5,0c0,0,0,0,0.1,0h0.1l0,0c0.5-0.1,1,0,1.4,0.2c2.3,0.3,4.6,0.6,6.8,0.9c0.1,0,0.3,0.1,0.4,0.1
		c0.5-0.1,0.9,0,1.4,0.1l0,0c2.9,0,5.5,0.2,8.2,0l0,0c0,0,0,0,0.1,0s0.1,0,0.2,0c0.1,0,0.2,0,0.2,0c0.1,0,0.2,0,0.3,0.1
		c0.1-0.1,0.3-0.1,0.5-0.1c0.1,0,0.2,0,0.3,0.1c0.1-0.1,0.3-0.1,0.5-0.1c2.4-0.3,4.7-0.7,7.1-1c0.2,0,0.4,0,0.5,0.1
		c0.2-0.1,0.3-0.2,0.6-0.2c0.1,0,0.2,0,0.3,0l0,0h0.1c0.1,0,0.2-0.1,0.4-0.1l0,0c0.1-0.1,0.1-0.1,0.2-0.2c0.6-0.2,1.2-0.3,1.9-0.5
		c4.2-1.1,8.5-1.9,12.5-3.7c2.8-1.3,5.5-2.6,8-4.4c2-1.4,3.8-3.1,5.2-5.3c1.7-2.7,2.7-5.6,2.4-8.9c-0.1-0.9,0-1.8,0-2.8
		c0-0.9,0-0.9,0.8-0.9c0.3,0,0.6,0,0.8,0c1.2-0.1,2.2-0.5,3-1.3c1.6-1.5,2.6-3.2,2.5-5.5C107.4,74.1,107.1,71.9,105.3,70.2z
		 M9.7,47.1c1.3-1.5,2.8-2.7,4.5-3.7c0.1-0.1,0.3-0.2,0.4-0.2c0.3-0.2,0.6-0.5,0.4-0.9c-0.1-0.4-0.5-0.4-0.8-0.4
		c-0.4,0-0.9,0.1-1.3,0.1c-0.3,0-0.6,0.1-0.9,0.1c-0.2,0-0.5-0.2-0.7-0.4c0.2-0.2,0.3-0.5,0.5-0.6c1.5-1,3.1-1.3,4.9-1.2
		c0.6,0,1.1,0.2,1.7,0.2c0.7,0,1-0.5,0.7-1.1c-0.2-0.3-0.5-0.6-0.8-0.9c-0.6-0.7-1.3-1.3-1.9-2c-0.3-0.4-0.7-0.9-0.4-1.4
		c0.3-0.6,1-0.5,1.5-0.3c0.5,0.1,1,0.4,1.4,0.7c0.8,0.6,1.5,1.3,2.2,1.9c0.2,0.2,0.4,0.4,0.6,0.6c0.5,0.4,0.9,0.2,1.2-0.3
		c0.2-0.5,0.3-1,0.6-1.5c1.9-4,5-6.8,9-8.6c1.4-0.7,2.9-1.2,4.5-1.2c0.5,0,1-0.2,1.3,0.3s0,1-0.3,1.5c-0.2,0.4-0.5,0.7-0.7,1.1
		c-0.1,0.2-0.3,0.4-0.3,0.6s0.1,0.6,0.3,0.7c0.1,0.1,0.5,0.1,0.6,0c0.3-0.2,0.6-0.5,0.9-0.8c0.8-0.9,1.6-1.9,2.5-2.8
		c1.5-1.7,3.3-2.8,5.5-3.1c0.6-0.1,1.2-0.1,1.8-0.1c1.5,0.1,2.2,1.1,1.8,2.5c0,0.2-0.1,0.3-0.1,0.5c0.1,0.2,0.2,0.5,0.4,0.7
		c0.3,0.2,0.6,0,0.8-0.2c0.3-0.4,0.5-0.9,0.9-1.3c0.9-1.1,2-2,3.3-2.8c4.3-2.5,8.9-3.6,13.9-3.5c1.4,0,2.4,0.3,3.4,0.8
		c-0.1,0.5-0.6,0.6-1,0.8c-1.1,0.5-2.3,1-3.4,1.5c-0.4,0.2-0.8,0.3-1.1,0.5c-0.2,0.1-0.3,0.5-0.3,0.7s0.3,0.5,0.5,0.5
		c0.3,0.1,0.7,0.1,1.1,0c2.8-0.5,5.7-0.4,8.5-0.4c1.5,0,2.9,0.3,4.2,0.8c0.6,0.2,1.3,0.5,1.8,1.1c-0.5,0.1-0.8,0.1-1.2,0.1
		c-1.1,0.1-2.3,0.3-3.4,0.5c-0.2,0-0.4,0-0.6,0.2s-0.5,0.4-0.6,0.7c-0.1,0.4,0.3,0.7,0.7,0.7c1.9,0.1,3.6,0.9,5.5,1.3
		c2.6,0.5,5.2,0.7,7.7-0.3c0.1,0,0.2,0,0.4,0c-0.2,0.9-0.5,1.7-1,2.4c-0.3,0.4-0.8,0.7-1.2,0.9c-0.8,0.5-0.9,1.1,0,1.5
		c0.7,0.4,1.4,0.7,2.1,0.8c1.7,0.4,3.4,0.6,5.1,1c0.4,0.1,0.9,0.2,1.3,0.3c0.8,0.3,1.1,0.9,0.7,1.7c-0.3,0.5-0.7,0.8-1.3,1
		c-0.3,0.1-0.7,0.1-0.9,0.3c-0.2,0.2-0.4,0.5-0.5,0.7c0,0.2,0.3,0.5,0.5,0.6c0.4,0.1,0.8,0.2,1.2,0.2c2.6,0.3,5.1,1.1,7.2,2.7
		c0.4,0.3,0.7,0.7,1,1.1c0.4,0.6,0.3,1-0.3,1.3c-0.6,0.3-1.2,0.5-1.8,0.6c-0.2,0.1-0.4,0-0.6,0.1c-0.8,0.1-1.1,0.3-1.1,0.8
		c0,0.6,0.4,0.6,0.9,0.8c0.4,0.1,0.8,0.3,1,0.6c1.5,1.8,2.3,3.8,2.6,6.1c0,0.1-0.1,0.1-0.1,0.3c-0.3-0.1-0.5-0.3-0.8-0.4
		c-0.5-0.2-1.1-0.4-1.6-0.3c-0.7,0-0.9,0.8-0.4,1.2c1.4,1.1,1.8,2.6,2.1,4.2c0.1,0.7,0.2,1.4,0.2,2.1c-0.2,2.5-0.6,5-1.7,7.3
		c-0.2,0.4-0.3,0.7-0.9,0.6c-1.7-0.5-3.3-0.4-5,0.6c0.1-1,0.3-1.8,0.4-2.6c0-0.3,0.1-0.6,0.1-0.9c0-1.5,0.1-1.2,1.4-1.5
		c0.7-0.2,1.5-0.2,2.2-0.7c0.8-0.5,1.3-1.2,1.3-2.1c0.1-1.6,0.1-3.2-1-4.6c-0.2-0.3-0.4-0.6-0.7-0.7c-0.8-0.4-1.7-0.8-2.5-1.1
		c-1-0.4-2.1-0.6-3.1-1c-1.3-0.4-2.7-0.6-4.1-0.7c-0.1,0-0.2,0-0.2,0c-2.2-0.1-2.5-0.3-3-2.5c-0.1-0.5-0.3-1.1-0.5-1.6
		c-0.2-0.8-0.7-1-1.4-1c-2.2,0-4.4-0.5-6.4-1.2c-0.9-0.3-1.7-0.8-2.5-1.2c-0.4-0.2-0.6-0.5-0.3-1c0.1-0.2,0.1-0.4,0.1-0.6
		c0-0.5-0.6-0.8-1-0.5c-1.9,1.5-4.1,1.6-6.3,1.7c-0.9,0-1.8,0-2.8,0c-2.1,0-3.9-0.7-5.6-1.7c-0.4-0.2-0.6-0.6-0.9-0.9
		c-0.4-0.4-0.7-0.9-1.1-1.3c-0.3-0.3-0.6-0.5-1.1-0.2c-0.4,0.2-0.6,0.7-0.4,1.1c0.1,0.2,0.2,0.5,0.3,0.6c0.3,0.3,0.5,0.6,0.9,0.8
		c1.6,1.1,2,2.7,1.9,4.5c0,0.7-0.3,0.8-1,0.7c-0.5-0.1-1.1-0.3-1.6-0.6c-1.5-0.8-2.7-2-3.7-3.4c-0.3-0.4-0.5-1-0.7-1.5
		c-0.2-0.4-0.3-0.8-0.5-1.1c-0.2-0.4-0.6-0.5-1-0.3s-0.5,0.5-0.4,0.9c0.1,0.3,0.2,0.7,0.4,1c0.6,0.9,0.9,1.9,1,2.9
		c0.1,1.2,0.2,2.4,0.3,3.6c0,0.8-0.2,1-0.9,0.5s-1.4-1-1.9-1.6c-2-2.5-3.3-5.3-3.4-8.5c0-0.4,0.1-0.7,0.1-1.1c0-0.1-0.1-0.3-0.2-0.3
		c-0.1,0-0.4-0.1-0.4,0c-0.2,0.2-0.3,0.5-0.5,0.8c-0.1,0.2-0.3,0.5-0.5,0.6c-1.9,1.1-3.7,2.2-5.6,3.2c-3.1,1.7-6.5,2.7-10,2.9
		c-0.2,0-0.5,0-0.7,0.1c-0.1,0-0.3,0.1-0.3,0.3c0,0,0.1,0.2,0.1,0.3c0.2,0.2,0.5,0.4,0.8,0.6c-0.5,1.2-1.4,2.1-2.2,3
		c-0.1,0.2-0.4,0.3-0.4,0.4c-0.3,0.9-0.9,0.8-1.7,0.9c-2.2,0.1-4.4,0.3-6.6,0.5c-0.5,0-1,0.1-1.4,0.1c-1.3,0.1-2.5,0.2-3.8,0.6
		c-1.1,0.4-2.1,0.6-3.2,1c-0.5,0.2-1.1,0.4-1.6,0.6c-1.8,0.7-2.5,2.2-2.7,4c-0.1,0.5,0,1,0,1.4c0,2,1.3,2.8,2.7,3.1
		c0.5,0.1,1,0.2,1.5,0.3c0.4,0.1,0.5,0.3,0.6,0.6c0.1,0.7,0.1,1.3,0.2,2c0.1,0.7,0.2,1.3,0.4,2c-0.1,0-0.2,0-0.3,0
		c-2-0.8-3.5-0.9-5.1-0.5c-0.8,0.2-0.8,0.2-1.2-0.5C3.1,61.3,4.5,52.8,9.7,47.1z M55.6,48.1c0.5,0.5,1,0.9,1.6,1.3
		c1,0.8,2.1,1.5,3.4,1.7c1.4,0.2,2.2-0.3,2.4-1.8c0.1-0.9,0-1.9-0.1-2.9c0.1,0,0.4,0.1,0.6,0.2c1.3,0.6,2.6,0.9,3.9,0.9
		c2.8,0.2,5.6,0.2,8.3-0.8c0.4-0.2,0.7-0.1,1.1,0.2c0.7,0.9,1.7,1.4,2.7,1.7c2.1,0.8,4.3,1.4,6.6,1.4c0.9,0,1.1,0.1,1.3,1
		c0.2,0.8,0.4,1.5,0.6,2.4c-0.3,0-0.5,0.1-0.8,0c-3.9-0.3-7.8-0.3-11.7,0c-0.2,0-0.4,0-0.6,0c-3.2-0.1-6.4,0.4-9.5,0.9
		c-0.7,0.1-1.3,0.2-2,0.3c-2.2,0.4-3.4,2-4.1,3.9c-0.3,0.9-0.4,2-0.5,2.9c0,0.3-0.1,0.6-0.1,0.8c-0.2,1-0.2,1-1.2,1
		c-1.4,0-2.9,0-4.3,0c-0.5,0-0.8-0.2-0.9-0.7c-0.1-1-0.3-2-0.4-3c-0.2-1.8-1.1-3-2.3-4.2c-0.5-0.5-1.2-0.7-1.8-0.8
		c-3.2-0.5-6.4-1.1-9.6-1.2c-2.9-0.1-5.7-0.2-8.7-0.3c0.2-0.2,0.3-0.4,0.5-0.6c0.7-1,1.4-1.9,2.1-2.9c0.2-0.3,0.3-0.6,0.8-0.6
		c4-0.3,7.6-1.8,10.9-4c1.1-0.7,2.2-1.4,3.3-2.1c0.4,1.4,0.8,2.7,1.3,4c0.6,1.5,1.4,2.8,2.5,4.1c0.8,0.9,1.8,1.7,3,2.1
		c1.2,0.4,1.9-0.1,1.9-1.3C55.7,50.6,55.6,49.4,55.6,48.1z M29.8,54.3c3.3,0.2,7,0.3,10.6,0.5c2.3,0.2,4.5,0.6,6.8,1
		c1.7,0.3,3.1,1.9,3.4,3.7c0.2,1.1,0.3,2.2,0.5,3.3c0,0.3,0.1,0.6,0.2,0.8c0.2,0.8,0.4,1,1.3,1c2,0,3.9,0,5.9,0
		c0.9,0,1.2-0.3,1.4-1.3c0.2-1.1,0.4-2.3,0.5-3.4c0.1-1.5,0.9-2.5,2-3.4c0.4-0.4,1.1-0.6,1.6-0.7c3.9-0.6,7.8-1.3,11.8-1.2
		c1.1,0,2.2-0.2,3.3-0.2c2.9,0,5.8,0.1,8.7,0.2c1.9,0.1,3.8,0.3,5.7,0.5c0.5,0,1,0.1,1.4,0.3c1.4,0.4,2.9,0.8,4.3,1.2
		c0.1,0,0.2,0.1,0.3,0.1c2.7,0.9,3.2,2.4,2.9,5.1c-0.1,1-0.8,1.4-1.8,1.6c-0.6,0.1-1.3,0.2-1.9,0.3c-1,0.2-1.2,0.5-1.3,1.5
		c-0.1,2.9-0.9,5.6-2.1,8.2c-0.5,1.1-1.3,2.2-2.2,3.1c-2.1,2.1-4.6,3.9-7.4,5.1c-2,0.8-4.1,1.2-6.2,1.4c-2.1,0.3-4.3,0.5-6.4,0.1
		c-0.7-0.1-1.3-0.3-2-0.4c-1.6-0.2-2.7-1.2-3.9-2.2c-1.7-1.4-3-3.1-4.3-4.8c-0.5-0.6-0.7-1.4-1-2.2c-0.4-1.2-0.7-2.4-1-3.6
		c-0.2-0.7-0.6-1.1-1.3-1.2c-2.2-0.3-4.5-0.4-6.7-0.2c-0.6,0-1.2,0.2-1.8,0.2c-0.6,0.1-1,0.4-1.1,1c-0.3,1.2-0.7,2.5-1.1,3.7
		c-0.3,1.1-0.8,2.1-1.5,3c-1.5,1.9-3.1,3.6-5,5c-0.6,0.4-1.2,0.8-1.9,1c-2.3,0.8-4.8,1-7.2,0.7c-1.5-0.2-2.9-0.4-4.4-0.6
		c-2.6-0.4-5-1.4-7.2-2.9c-2-1.4-4-2.8-5.4-4.9c-0.4-0.7-0.8-1.4-1.1-2.1c-0.9-2.1-1.5-4.3-1.7-6.6c0-0.4-0.1-0.9-0.1-1.3
		c-0.1-0.5-0.3-0.9-0.9-1c-0.7-0.1-1.3-0.3-2-0.4c-1.6-0.3-2.1-0.8-2.2-2.5c0-0.2,0-0.5,0-0.7c0-1.5,0.7-2.6,2.1-3.2
		c0.1,0,0.1-0.1,0.2-0.1c2.5-0.8,5-1.7,7.6-1.9c2.5-0.2,4.9-0.4,7.4-0.5C27,54.4,28.3,54.3,29.8,54.3z M10.1,81.9
		c-1.4,0-2.6-0.2-3.6-1.3C5,79,4.3,77.2,4.8,75c0.1-0.7,0.3-1.5,0.6-2.2c0.4-1,1-1.9,2.3-2c0.1,0,0.3-0.1,0.4-0.2
		C8.4,70,9.1,70,9.7,70c1.5-0.2,4,1.5,4.2,3.1c0,0.2,0,0.5-0.1,0.6c-0.3,0.5-0.6,0.9-1,1.4c-0.7-0.9-1.3-1.6-2.3-1.9
		c-1.3-0.3-2.4,0.1-3.1,1.2c-0.1,0.2-0.2,0.4-0.2,0.7c0,0.4,0.5,0.7,0.9,0.4c0.3-0.2,0.5-0.4,0.7-0.7c0.5-0.5,1.1-0.5,1.7-0.3
		c0.8,0.3,1.3,0.9,1.7,1.6c0.1,0.2,0,0.5,0,0.7c-0.4,1.4-0.8,2.8-1.1,4.3C10.9,81.6,10.6,81.8,10.1,81.9z M99,89
		c0,0.8-0.3,1.6-0.6,2.3c-1.1,3.5-3.4,6.2-6.4,8.3c-2.4,1.7-5,3-7.8,4.3c-4,1.8-8.2,2.6-12.4,3.6c-2.9,0.8-6,1-9,1.5
		c-1.9,0.3-3.8,0.4-5.7,0.5c-3.1,0.2-6.1,0-9.2-0.5c-1.7-0.3-3.3-0.3-5-0.7c-2.9-0.6-5.7-1.2-8.5-1.9c-1.1-0.3-2.3-0.5-3.4-0.9
		c-1.2-0.4-2.4-0.8-3.6-1.3c-1.8-0.8-3.6-1.6-5.3-2.5c-2.9-1.5-5.5-3.4-7.5-6c-1.4-1.9-2.3-4-2.9-6.2c0-0.2-0.1-0.4-0.1-0.6
		c-0.1-3.2,0-6.5,0.8-9.6c0.4-1.6,1.1-3.1,1.6-4.6c0-0.1,0.1-0.2,0.2-0.3c0.1,0.1,0.1,0.1,0.2,0.1c1.8,2.8,4.3,4.9,7.1,6.7
		c2.3,1.5,4.8,2.3,7.5,2.8c2.1,0.3,4.2,0.6,6.3,0.6c1.9,0,3.7-0.3,5.6-0.8c0.8-0.2,1.5-0.6,2.2-1.1c2.2-1.7,4.2-3.7,5.8-6
		c0.6-0.9,0.9-1.9,1.3-2.9c0.3-0.9,0.6-1.9,0.8-2.9c0.1-0.5,0.4-0.7,0.9-0.8c2.2-0.3,4.4-0.3,6.6,0c0.6,0.1,0.8,0.3,1,0.9
		c0.3,1.1,0.6,2.2,1,3.3c0.3,1.1,0.8,2.1,1.5,2.9c1.5,1.9,3.2,3.8,5.2,5.3c0.8,0.6,1.6,1,2.5,1.3c2.8,0.9,5.7,0.9,8.5,0.6
		c1.2-0.1,2.3-0.3,3.4-0.5c3.9-0.6,7.2-2.5,10.3-4.9c1.6-1.3,3-2.9,4.2-4.7c0.2,0.3,0.3,0.5,0.4,0.8c1,2.2,1.6,4.5,2,6.9
		C99.2,84.4,99.1,86.7,99,89z M104.1,80.8c-1,0.9-2.2,1-3.5,1c-0.4,0-0.7-0.3-0.7-0.7c-0.2-1.5-0.6-3-1.2-4.5
		c-0.1-0.2-0.1-0.4,0-0.6c0.5-0.5,0.9-1.1,1.5-1.5c0.7-0.4,1.4-0.3,2,0.3c0.1,0.1,0.3,0.3,0.4,0.4c0.3,0.2,0.5,0.4,0.8,0.1
		s0.3-0.6,0.1-0.9c-0.4-0.7-0.9-1.2-1.7-1.4c-1-0.3-1.9,0-2.7,0.6c-0.4,0.4-0.8,0.8-1.2,1.3c-0.2-0.3-0.4-0.6-0.5-0.9
		c-0.2-0.3-0.6-0.7-0.5-1c0.1-0.5,0.3-1.1,0.7-1.5c1.9-2.3,5.4-2.3,7.3,0c0.1,0.1,0.2,0.2,0.2,0.3C106.6,74.8,106.9,78.4,104.1,80.8
		z"/>
	<g>
		<g>
			<defs>
				<rect id="SVGID_1_" width="107.5" height="212.3"/>
			</defs>
			<clipPath id="SVGID_2_">
				<use xlink:href="#SVGID_1_"  style="overflow:visible;"/>
			</clipPath>
			<path class="st13" d="M96.4,74.4c0.2,0.3,0.3,0.5,0.4,0.8c1,2.2,1.6,4.5,2,6.9c0.4,2.3,0.3,4.6,0.2,6.9c0,0.8-0.3,1.6-0.6,2.3
				c-1.1,3.5-3.4,6.2-6.4,8.3c-2.4,1.7-5,3-7.8,4.3c-4,1.8-8.2,2.6-12.4,3.6c-2.9,0.8-6,1-9,1.5c-1.9,0.3-3.8,0.4-5.7,0.5
				c-3.1,0.2-6.1,0-9.2-0.5c-1.7-0.3-3.3-0.3-5-0.7c-2.9-0.6-5.7-1.2-8.5-1.9c-1.1-0.3-2.3-0.5-3.4-0.9c-1.2-0.4-2.4-0.8-3.6-1.3
				c-1.8-0.8-3.6-1.6-5.3-2.5c-2.9-1.5-5.5-3.4-7.5-6c-1.4-1.9-2.3-4-2.9-6.2c-0.1-0.2-0.1-0.4-0.1-0.6c-0.1-3.2,0-6.5,0.8-9.6
				c0.4-1.6,1.1-3.1,1.6-4.6c0-0.1,0.1-0.2,0.2-0.3c0.1,0.1,0.1,0.1,0.2,0.1c1.8,2.8,4.3,4.9,7.1,6.7c2.3,1.5,4.8,2.3,7.5,2.8
				c2.1,0.3,4.2,0.6,6.3,0.6c1.9,0,3.7-0.3,5.6-0.8c0.8-0.2,1.5-0.6,2.2-1.1c2.2-1.7,4.2-3.7,5.8-6c0.6-0.9,0.9-1.9,1.3-2.9
				c0.3-0.9,0.6-1.9,0.8-2.9c0.1-0.5,0.4-0.7,0.9-0.8c2.2-0.3,4.4-0.3,6.6,0c0.6,0.1,0.8,0.3,1,0.9c0.3,1.1,0.6,2.2,1,3.3
				c0.3,1.1,0.8,2.1,1.5,2.9c1.5,1.9,3.2,3.8,5.2,5.3c0.8,0.6,1.6,1,2.5,1.3c2.8,0.9,5.7,0.9,8.5,0.6c1.2-0.1,2.3-0.3,3.4-0.5
				c3.9-0.6,7.2-2.5,10.3-4.9C93.8,77.8,95.2,76.2,96.4,74.4 M61.7,90c0.1,0.2,0.3,0.3,0.4,0.5c0.3,0.4,0.7,0.8,1.3,0.8
				c0.2,0,0.4-0.1,0.7-0.2c-0.1-0.2-0.1-0.5-0.2-0.6c-0.9-0.8-1.2-1.9-1.3-3.1c0-0.6-0.1-1.2-0.2-1.8c0-0.1-0.2-0.3-0.3-0.3
				s-0.4,0.1-0.4,0.2c-0.1,0.3-0.2,0.7-0.3,1c-0.1,0.6-0.1,1.2-0.3,1.8c-0.4,1-1.1,1.7-2.1,2.3c-2.9,1.7-6.9,1.1-8.9-1
				c-0.4-0.4-0.5-0.8-0.4-1.4c0.2-0.7,0.3-1.4,0.3-2.1c0-0.4,0-1-0.5-1.1c-0.4,0-0.5,0.6-0.5,1c-0.1,1.5-0.7,2.9-1.4,4.3
				c-0.2,0.4-0.3,0.7-0.4,1.1c0,0.1,0.1,0.3,0.2,0.4c0.1,0.1,0.3,0,0.3,0c0.2-0.1,0.4-0.3,0.5-0.5c0.3-0.4,0.5-0.8,0.8-1.2
				C51.9,93.4,57.8,94,61.7,90 M56,74.6c-1-0.1-2.1,0.2-3.1,0.5c-1.2,0.4-2,1.2-2.5,2.4c-0.1,0.1-0.1,0.3-0.1,0.5
				c0,0.1,0.1,0.3,0.2,0.4c0.1,0.1,0.3,0,0.4,0c0.3-0.3,0.5-0.6,0.8-0.9c1.5-1.5,3.4-1.6,5.4-1.4c0.3,0,0.5,0.2,0.8,0.3
				c0.6,0.4,1.1,0.9,1.6,1.4c0.2,0.2,0.3,0.5,0.6,0.6c0.2,0.1,0.5,0.2,0.7,0.1c0.3-0.1,0.5-0.4,0.4-0.8c0-0.2-0.1-0.4-0.2-0.5
				C59.6,75.7,58.3,74.4,56,74.6 M84.9,86.9c0.4,0,0.7-0.3,0.7-0.7c-0.1-0.4-0.3-0.6-0.7-0.5c-0.4,0-0.7,0.3-0.7,0.7
				C84.2,86.8,84.5,86.9,84.9,86.9 M26,86.9c0.4,0,0.8-0.3,0.8-0.6c0-0.3-0.4-0.6-0.7-0.6c-0.4,0-0.6,0.2-0.7,0.5
				C25.3,86.6,25.6,86.9,26,86.9 M33.5,88.4c-0.1,0.1-0.3,0.3-0.3,0.5c-0.1,0.4,0.2,0.6,0.5,0.6c0.4,0,0.6-0.3,0.6-0.6
				C34.3,88.6,34,88.4,33.5,88.4 M77,89.5c0.5,0,0.7-0.3,0.7-0.6c0-0.3-0.2-0.5-0.5-0.5c-0.4,0-0.7,0.2-0.6,0.5
				C76.7,89.1,76.9,89.4,77,89.5 M29.1,92.1c-0.1-0.1-0.3-0.3-0.4-0.3c-0.3,0-0.6,0.3-0.5,0.6c0.1,0.2,0.3,0.4,0.5,0.4
				C28.9,92.9,29.1,92.5,29.1,92.1 M82.4,92.9c0.1-0.2,0.4-0.4,0.4-0.5c0-0.2-0.3-0.4-0.5-0.5c-0.1,0-0.4,0.2-0.4,0.4
				C81.7,92.5,81.9,92.7,82.4,92.9"/>
		</g>
	</g>
	<g>
		<g>
			<defs>
				<path id="SVGID_3_" d="M73.9,91c0,3.9,3.2,7.1,7.1,7.1s7.1-3.2,7.1-7.1s-3.2-7.1-7.1-7.1S73.9,87,73.9,91"/>
			</defs>
			<clipPath id="SVGID_4_">
				<use xlink:href="#SVGID_3_"  style="overflow:visible;"/>
			</clipPath>
			
				<radialGradient id="SVGID_5_" cx="-468.2167" cy="564.191" r="1.0001" gradientTransform="matrix(7.0979 0 0 7.0979 3404.3354 -3913.6152)" gradientUnits="userSpaceOnUse">
				<stop  offset="0" style="stop-color:#EDB4A7"/>
				<stop  offset="0.3452" style="stop-color:#EDB8AA"/>
				<stop  offset="0.7008" style="stop-color:#EDC4B2"/>
				<stop  offset="1" style="stop-color:#EDD5BD"/>
			</radialGradient>
			<rect x="73.9" y="83.9" class="st14" width="14.2" height="14.2"/>
		</g>
	</g>
	<g>
		<g>
			<defs>
				<path id="SVGID_6_" d="M24,91c0,3.9,3.2,7.1,7.1,7.1s7.1-3.2,7.1-7.1s-3.2-7.1-7.1-7.1S24,87,24,91"/>
			</defs>
			<clipPath id="SVGID_7_">
				<use xlink:href="#SVGID_6_"  style="overflow:visible;"/>
			</clipPath>
			
				<radialGradient id="SVGID_8_" cx="-468.215" cy="564.191" r="0.9993" gradientTransform="matrix(7.0979 0 0 7.0979 3354.4434 -3913.6152)" gradientUnits="userSpaceOnUse">
				<stop  offset="0" style="stop-color:#EDB4A7"/>
				<stop  offset="0.3452" style="stop-color:#EDB8AA"/>
				<stop  offset="0.7008" style="stop-color:#EDC4B2"/>
				<stop  offset="1" style="stop-color:#EDD5BD"/>
			</radialGradient>
			<rect x="24" y="83.9" class="st15" width="14.2" height="14.2"/>
		</g>
	</g>
	<path class="st16" d="M24.4,101.2C20.9,95.6,20.9,88,25.2,83c-1.2-0.4-2.4-1-3.5-1.7c-2.8-1.8-5.3-3.8-7.1-6.7c0,0-0.1,0-0.2-0.1
		c-0.1,0.1-0.1,0.2-0.2,0.3c-0.6,1.5-1.2,3-1.6,4.6c-0.9,3.2-0.9,6.4-0.8,9.6c0,0.2,0,0.4,0.1,0.6c0.6,2.3,1.5,4.4,2.9,6.2
		c2,2.6,4.6,4.5,7.5,6c1.4,0.7,2.8,1.4,4.2,2C25.7,103,25,102.2,24.4,101.2"/>
	<path class="st16" d="M98.8,82.1c-0.4-2.4-0.9-4.7-2-6.9c-0.1-0.2-0.3-0.5-0.4-0.8c-1.2,1.8-2.6,3.4-4.2,4.7
		c-0.5,0.4-1,0.8-1.5,1.1c0.9,1.7,1.5,3.4,1.9,5.2c0.7,3.3,1,7,0,10.3c-0.9,2.8-2.9,4.8-5,6.7c1.6-0.8,3.1-1.7,4.6-2.7
		c3-2.1,5.2-4.8,6.4-8.3c0.2-0.8,0.6-1.5,0.6-2.3C99.1,86.7,99.2,84.4,98.8,82.1"/>
	<path class="st16" d="M49.6,76.2c0.7-0.2,1.5-0.4,2.2-0.5c0.3-0.2,0.6-0.4,1-0.5c1-0.4,2.1-0.6,3.1-0.5c1.5-0.1,2.6,0.4,3.6,1.3
		c0.7,0.1,1.3,0.2,2,0.4c-0.4-0.6-0.7-1.3-0.9-2c-0.3-1.1-0.7-2.2-1-3.3c-0.1-0.5-0.4-0.8-1-0.9c-2.2-0.3-4.4-0.3-6.6,0
		c-0.5,0.1-0.8,0.3-0.9,0.8c-0.3,1-0.5,1.9-0.8,2.9c-0.3,0.9-0.7,1.9-1.2,2.7C49.3,76.3,49.5,76.3,49.6,76.2"/>
	<path class="st17" d="M31,49c-0.5,1.2-1.4,2.1-2.2,3c-0.1,0.2-0.4,0.3-0.4,0.4c-0.3,0.9-0.9,0.8-1.7,0.9c-2.2,0.1-4.4,0.3-6.6,0.5
		c-0.5,0-1,0.1-1.4,0.1c-1.3,0.1-2.5,0.2-3.8,0.6c-1.1,0.4-2.1,0.6-3.2,1c-0.5,0.2-1.1,0.4-1.6,0.6c-1.8,0.7-2.5,2.2-2.7,4
		c-0.1,0.5,0,1,0,1.4c0,2,1.3,2.8,2.7,3.1c0.5,0.1,1,0.2,1.5,0.3c0.4,0.1,0.5,0.3,0.6,0.6c0.1,0.7,0.1,1.3,0.2,2
		c0.1,0.7,0.2,1.3,0.4,2c-0.1,0-0.2,0-0.3,0C11.1,68.7,9.6,68.6,8,69c-0.8,0.2-0.8,0.2-1.2-0.5c-3.7-7.1-2.3-15.7,2.9-21.4
		c1.3-1.5,2.8-2.7,4.5-3.7c0.1-0.1,0.3-0.2,0.4-0.2c0.3-0.2,0.6-0.5,0.4-0.9c-0.1-0.4-0.5-0.4-0.8-0.4c-0.4,0-0.9,0.1-1.3,0.1
		c-0.3,0-0.6,0.1-0.9,0.1c-0.2,0-0.5-0.2-0.7-0.4c0.2-0.2,0.3-0.5,0.5-0.6c1.5-1,3.1-1.3,4.9-1.2c0.6,0,1.1,0.2,1.7,0.2
		c0.7,0,1-0.5,0.7-1.1c-0.2-0.3-0.5-0.6-0.8-0.9c-0.6-0.7-1.3-1.3-1.9-2c-0.3-0.4-0.7-0.9-0.4-1.4c0.3-0.6,1-0.5,1.5-0.3
		c0.5,0.1,1,0.4,1.4,0.7c0.8,0.6,1.5,1.3,2.2,1.9c0.2,0.2,0.4,0.4,0.6,0.6c0.5,0.4,0.9,0.2,1.2-0.3c0.2-0.5,0.3-1,0.6-1.5
		c1.9-4,5-6.8,9-8.6c1.4-0.7,2.9-1.2,4.5-1.2c0.5,0,1-0.2,1.3,0.3s0,1-0.3,1.5c-0.2,0.4-0.5,0.7-0.7,1.1c-0.1,0.2-0.3,0.4-0.3,0.6
		s0.1,0.6,0.3,0.7c0.1,0.1,0.5,0.1,0.6,0c0.3-0.2,0.6-0.5,0.9-0.8c0.8-0.9,1.6-1.9,2.5-2.8c1.5-1.7,3.3-2.8,5.5-3.1
		c0.6-0.1,1.2-0.1,1.8-0.1c1.5,0.1,2.2,1.1,1.8,2.5c0,0.2-0.1,0.3-0.1,0.5c0.1,0.2,0.2,0.5,0.4,0.7c0.3,0.2,0.6,0,0.8-0.2
		c0.3-0.4,0.5-0.9,0.9-1.3c0.9-1.1,2-2,3.3-2.8c4.3-2.5,8.9-3.6,13.9-3.5c1.4,0,2.4,0.3,3.4,0.8c-0.1,0.5-0.6,0.6-1,0.8
		c-1.1,0.5-2.3,1-3.4,1.5c-0.4,0.2-0.8,0.3-1.1,0.5c-0.2,0.1-0.3,0.5-0.3,0.7s0.3,0.5,0.5,0.5c0.3,0.1,0.7,0.1,1.1,0
		c2.8-0.5,5.7-0.4,8.5-0.4c1.4,0,2.9,0.3,4.2,0.8c0.6,0.2,1.3,0.5,1.8,1.1c-0.5,0.1-0.8,0.1-1.2,0.1c-1.1,0.1-2.3,0.3-3.4,0.5
		c-0.2,0-0.4,0-0.6,0.2s-0.5,0.4-0.6,0.7c-0.1,0.4,0.3,0.7,0.7,0.7c1.9,0.1,3.6,0.9,5.5,1.3c2.6,0.5,5.2,0.7,7.7-0.3
		c0.1,0,0.2,0,0.4,0c-0.2,0.9-0.5,1.7-1,2.4c-0.3,0.4-0.8,0.7-1.2,0.9c-0.8,0.5-0.9,1.1,0,1.5c0.7,0.4,1.4,0.7,2.1,0.8
		c1.7,0.4,3.4,0.6,5.1,1c0.4,0.1,0.9,0.2,1.3,0.3c0.8,0.3,1.1,0.9,0.7,1.7c-0.3,0.5-0.7,0.8-1.3,1c-0.3,0.1-0.7,0.1-0.9,0.3
		c-0.2,0.2-0.4,0.5-0.5,0.7c0,0.2,0.3,0.5,0.5,0.6c0.4,0.1,0.8,0.2,1.2,0.2c2.6,0.3,5.1,1.1,7.2,2.7c0.4,0.3,0.7,0.7,1,1.1
		c0.4,0.6,0.3,1-0.3,1.3c-0.6,0.3-1.2,0.5-1.8,0.6c-0.2,0.1-0.4,0-0.6,0.1c-0.8,0.1-1.1,0.3-1.1,0.8c0,0.6,0.4,0.6,0.9,0.8
		c0.4,0.1,0.8,0.3,1,0.6c1.5,1.8,2.3,3.8,2.6,6.1c0,0.1-0.1,0.1-0.1,0.3c-0.3-0.1-0.5-0.3-0.8-0.4c-0.5-0.2-1.1-0.4-1.6-0.3
		c-0.7,0-0.9,0.8-0.4,1.2c1.4,1.1,1.8,2.6,2.1,4.2c0.1,0.7,0.2,1.4,0.2,2.1c-0.2,2.5-0.6,5-1.7,7.3c-0.2,0.4-0.3,0.7-0.9,0.6
		c-1.7-0.5-3.3-0.4-5,0.6c0.1-1,0.3-1.8,0.4-2.6c0-0.3,0.1-0.6,0.1-0.9c0-1.5,0.1-1.2,1.4-1.5c0.7-0.2,1.5-0.2,2.2-0.7
		c0.8-0.5,1.3-1.2,1.3-2.1c0.1-1.6,0.1-3.2-1-4.6c-0.2-0.3-0.4-0.6-0.7-0.7c-0.8-0.4-1.7-0.8-2.5-1.1c-1-0.4-2.1-0.6-3.1-1
		c-1.3-0.4-2.7-0.6-4.1-0.7c-0.1,0-0.2,0-0.2,0c-2.2-0.1-2.5-0.3-3-2.5c-0.1-0.5-0.3-1.1-0.5-1.6c-0.2-0.8-0.7-1-1.4-1
		c-2.2,0-4.4-0.5-6.4-1.2c-0.9-0.3-1.7-0.8-2.5-1.2c-0.4-0.2-0.6-0.5-0.3-1c0.1-0.2,0.1-0.4,0.1-0.6c0-0.5-0.6-0.8-1-0.5
		c-1.9,1.5-4.1,1.6-6.3,1.7c-0.9,0-1.8,0-2.8,0c-2.1,0-3.9-0.7-5.7-1.7c-0.4-0.2-0.6-0.6-0.9-0.9c-0.4-0.4-0.7-0.9-1.1-1.3
		c-0.3-0.3-0.6-0.5-1.1-0.2c-0.4,0.2-0.6,0.7-0.4,1.2c0.1,0.2,0.2,0.5,0.3,0.6c0.3,0.3,0.5,0.6,0.9,0.8c1.6,1.1,2,2.7,1.9,4.5
		c0,0.7-0.3,0.8-1,0.7c-0.5-0.1-1.1-0.3-1.6-0.6c-1.5-0.8-2.7-2-3.7-3.4c-0.3-0.4-0.5-1-0.7-1.5c-0.2-0.4-0.3-0.8-0.5-1.1
		c-0.2-0.4-0.6-0.5-1-0.3s-0.5,0.5-0.4,0.9c0.1,0.3,0.2,0.7,0.4,1c0.6,0.9,0.9,1.9,1,2.9c0.1,1.2,0.2,2.4,0.3,3.6
		c0,0.8-0.2,1-0.9,0.5s-1.4-1-1.9-1.6c-2-2.5-3.3-5.3-3.4-8.5c0-0.4,0.1-0.7,0.1-1.1c0-0.1-0.1-0.3-0.2-0.3c-0.1,0-0.4-0.1-0.4,0
		c-0.2,0.2-0.3,0.5-0.5,0.8c-0.1,0.2-0.3,0.5-0.5,0.6c-1.9,1.1-3.7,2.2-5.6,3.2c-3.1,1.7-6.5,2.7-10,2.9c-0.2,0-0.5,0-0.7,0.1
		c-0.1,0-0.3,0.1-0.3,0.3c0,0,0.1,0.2,0.1,0.3C30.4,48.6,30.7,48.8,31,49"/>
	<path class="st18" d="M103.7,53.7c0.5,0,1.1,0.2,1.6,0.3c0.3,0.1,0.5,0.3,0.8,0.4c0.1-0.2,0.1-0.2,0.1-0.3
		c-0.2-2.3-1.1-4.3-2.6-6.1c-0.2-0.3-0.6-0.5-1-0.6s-0.9-0.2-0.9-0.8c0-0.5,0.3-0.7,1.1-0.8c0.2,0,0.4,0,0.6-0.1
		c0.6-0.2,1.2-0.4,1.8-0.6c0.6-0.3,0.7-0.7,0.3-1.3c-0.3-0.4-0.6-0.8-1-1.1c-2.1-1.6-4.6-2.4-7.2-2.7c-0.4,0-0.8-0.1-1.2-0.2
		c-0.2-0.1-0.5-0.4-0.5-0.6c0-0.3,0.2-0.6,0.5-0.7c0.2-0.2,0.6-0.2,0.9-0.3c0.6-0.2,1-0.4,1.3-1c0.4-0.8,0.2-1.4-0.7-1.7
		c-0.4-0.1-0.8-0.2-1.3-0.3c-1.7-0.3-3.4-0.6-5.1-1c-0.7-0.2-1.5-0.5-2.1-0.8c-0.8-0.5-0.7-1,0.1-1.5c0.4-0.3,0.9-0.5,1.2-0.9
		c0.5-0.7,0.8-1.5,1-2.4c-0.2,0-0.3,0-0.4,0c-2.5,1-5.1,0.8-7.7,0.3c-1.8-0.4-3.6-1.2-5.5-1.3c-0.4,0-0.7-0.3-0.7-0.7
		c0-0.3,0.3-0.5,0.6-0.7c0.1-0.1,0.4-0.1,0.6-0.2c1.1-0.2,2.3-0.3,3.4-0.5c0.3,0,0.7-0.1,1.2-0.1c-0.6-0.7-1.2-0.9-1.8-1.1
		c-1.4-0.5-2.8-0.8-4.2-0.8c-2.8,0-5.7-0.1-8.5,0.4c-0.3,0.1-0.7,0.1-1.1,0c-0.2-0.1-0.5-0.3-0.5-0.5s0.1-0.6,0.3-0.7
		c0.3-0.2,0.7-0.4,1.1-0.5c1.1-0.5,2.3-1,3.4-1.5c0.4-0.2,0.8-0.3,1-0.8c-0.9-0.5-2-0.8-3.4-0.8c-5-0.2-9.6,0.9-13.9,3.5
		c-1.2,0.7-2.4,1.6-3.3,2.8c-0.3,0.4-0.6,0.9-0.9,1.3c-0.2,0.3-0.5,0.5-0.8,0.2c-0.2-0.1-0.3-0.4-0.4-0.7c0-0.1,0-0.3,0.1-0.5
		c0.3-1.4-0.4-2.4-1.8-2.5c-0.6,0-1.2,0-1.8,0.1c-2.2,0.3-4,1.4-5.5,3.1c-0.8,0.9-1.6,1.9-2.5,2.8c-0.3,0.3-0.6,0.6-0.9,0.8
		c-0.2,0.1-0.5,0.1-0.6,0c-0.2-0.2-0.3-0.5-0.3-0.7s0.2-0.4,0.3-0.6c0.2-0.4,0.5-0.7,0.7-1.1c0.3-0.4,0.6-1,0.3-1.5
		s-0.8-0.3-1.3-0.3c-1.6,0-3,0.6-4.5,1.2c-4,1.8-7,4.6-9,8.6c-0.2,0.5-0.4,1-0.6,1.5c-0.2,0.6-0.7,0.7-1.2,0.3
		c-0.2-0.2-0.4-0.4-0.6-0.6c-0.7-0.6-1.4-1.3-2.2-1.9c-0.4-0.3-0.9-0.6-1.4-0.7c-0.5-0.1-1.2-0.2-1.5,0.3s0.1,1,0.4,1.4
		c0.6,0.7,1.3,1.3,1.9,2L18,38c2-0.1,3.9,0.5,5.5,1.7c1.8-3.2,3.9-6.1,6.6-8.6c0.2-0.2,0.7-0.1,0.8,0.2c0.6,2,0.6,4.2,1.3,6.2
		c3.8-2,7-4.8,10.9-6.7c0.2-0.1,0.6,0,0.7,0.3c0.4,1,0.6,2.2,1,3.2c4.9-4.1,10.3-8.1,17-7.9c0.4,0,0.6,0.6,0.3,0.9
		c-1.5,1.2-3,2.4-4,4.1c1.4-0.1,2.8-0.3,4.1-0.4c2.5-0.2,4.9-0.4,7.4-0.5c2.3-0.1,4.6-0.1,6.8,0.2c1.2,0.2,3.2,0.6,3.5,2
		c0.3,1.2-0.7,2.3-1.7,3.1c1.9-0.1,3.8-0.8,5.5-1.6c0.4-0.2,0.7,0.1,0.7,0.5c0,1.2-0.4,2.5-1.2,3.4c2.1,0.2,4.2,0.2,6.1-0.8
		c0.2-0.1,0.5,0,0.7,0.3c0.8,1.6,1.9,2.7,3.4,3.5c1.4,0.8,3,1.4,4.4,2.3c0.4,0.3,0.2,0.8-0.2,0.9c-0.5,0.2-1,0.5-1.4,0.8
		c-0.3,0.2-0.5,0.3-0.8,0.4c1.3,1.9,2.5,3.8,3.4,5.8c0.7,1.5,1.1,3,1.4,4.5c0.5,0.2,1,0.4,1.5,0.7c0.3,0.1,0.5,0.5,0.7,0.7
		c1,1.4,1.1,3,1,4.6c-0.1,1-0.5,1.6-1.3,2.1c-0.7,0.4-1.4,0.5-2.2,0.7c-1.2,0.3-1.3,0-1.4,1.5c0,0.3-0.1,0.6-0.1,0.9
		c-0.1,0.8-0.2,1.6-0.4,2.6c1.7-1,3.3-1.1,5-0.6c0.6,0.2,0.7-0.2,0.9-0.6c1-2.3,1.4-4.8,1.7-7.3c0.1-0.7,0-1.4-0.2-2.1
		c-0.3-1.6-0.8-3.1-2.1-4.2C102.7,54.5,103,53.8,103.7,53.7"/>
	<path class="st19" d="M29.8,54.3c3.3,0.2,7,0.3,10.6,0.5c2.3,0.2,4.5,0.6,6.8,1c1.7,0.3,3.1,1.9,3.4,3.7c0.2,1.1,0.3,2.2,0.5,3.3
		c0,0.3,0.1,0.6,0.2,0.8c0.2,0.8,0.4,1,1.3,1c2,0,3.9,0,5.9,0c0.9,0,1.2-0.3,1.4-1.3c0.2-1.1,0.4-2.3,0.5-3.4c0.1-1.5,0.9-2.6,2-3.4
		c0.4-0.4,1.1-0.6,1.6-0.7c3.9-0.6,7.8-1.3,11.8-1.2c1.1,0,2.2-0.2,3.3-0.2c2.9,0,5.8,0.1,8.7,0.2c1.9,0.1,3.8,0.3,5.7,0.5
		c0.5,0,1,0.1,1.4,0.3c1.4,0.4,2.9,0.8,4.3,1.2c0.1,0,0.2,0.1,0.3,0.1c2.7,0.9,3.2,2.4,2.9,5.1c-0.1,1-0.8,1.4-1.8,1.6
		c-0.6,0.1-1.3,0.2-1.9,0.3c-1,0.2-1.2,0.5-1.3,1.5c-0.1,2.9-0.9,5.6-2.1,8.2c-0.5,1.1-1.3,2.2-2.2,3.1c-2.1,2.1-4.6,3.9-7.4,5.1
		c-2,0.8-4.1,1.2-6.2,1.4c-2.1,0.3-4.3,0.5-6.4,0.1c-0.7-0.1-1.3-0.3-2-0.4c-1.6-0.2-2.7-1.2-3.9-2.2c-1.7-1.4-3-3.1-4.3-4.8
		c-0.5-0.6-0.7-1.4-1-2.2c-0.4-1.2-0.7-2.4-1-3.6c-0.2-0.7-0.6-1.1-1.3-1.2c-2.2-0.3-4.5-0.4-6.7-0.2c-0.6,0-1.2,0.2-1.8,0.2
		c-0.6,0.1-1,0.4-1.1,1c-0.3,1.2-0.7,2.5-1.1,3.7c-0.3,1.1-0.8,2.1-1.5,3c-1.5,1.9-3.1,3.6-5,5c-0.6,0.4-1.2,0.8-1.9,1
		c-2.3,0.8-4.8,1-7.2,0.7c-1.5-0.2-2.9-0.4-4.4-0.6c-2.6-0.4-5-1.4-7.2-2.9c-2-1.4-4-2.8-5.4-4.9c-0.4-0.7-0.8-1.4-1.1-2.1
		c-0.9-2.1-1.5-4.3-1.7-6.6c0-0.4-0.1-0.9-0.1-1.3c-0.1-0.5-0.3-0.9-0.9-1c-0.7-0.1-1.3-0.3-2-0.4c-1.6-0.3-2.1-0.8-2.2-2.5
		c0-0.2,0-0.5,0-0.7c0-1.5,0.7-2.6,2.1-3.2c0.1,0,0.1-0.1,0.2-0.1c2.5-0.8,5-1.7,7.6-1.9c2.5-0.2,4.9-0.4,7.4-0.5
		C27,54.4,28.3,54.3,29.8,54.3 M80.9,56.8c-3.6-0.1-7.1,0.3-10.6,0.9c-2.5,0.4-4.3,1.7-5.1,4.2c-0.4,1.3-0.5,2.7-0.4,4
		c0.1,0.7,0.2,1.4,0.2,2.1c-0.1,4.1,2.4,6.8,5.1,9.4c2.1,1.2,4.2,2.2,6.7,2.1c2-0.1,3.9-0.1,5.9-0.3c1.5-0.1,3-0.5,4.3-1.3
		c1.5-0.9,2.7-2,3.7-3.4c0.4-0.5,0.7-1.1,0.9-1.6c0.8-2.4,1-4.8,1-7.3c0-2.1-0.5-4-1.5-5.7c-0.9-1.5-2.3-2.4-3.9-2.6
		C85,56.9,83,56.9,80.9,56.8 M18.4,66.5c-0.1,1.4,0.1,2.9,0.4,4.3c0.3,1.6,0.9,3.1,2,4.4c2.1,2.5,4.6,3.8,7.8,4
		c1,0.1,2.1,0.2,3.1,0.2c1.5,0,3,0,4.4-0.2c1.8-0.2,3.4-1,4.8-2.1c1.3-1.1,2.4-2.4,3.4-3.9c1-1.6,1.5-3.3,1.5-5.2
		c0-0.6,0.1-1.3,0.1-1.9c0.1-1.4,0.1-2.9-0.3-4.3c-0.7-2.4-2.5-3.8-4.9-4.2C38.9,57.3,36.9,57,35,57c-3.3-0.1-6.6,0-9.9,0.1
		c-0.7,0-1.5,0.1-2.1,0.4c-1.7,0.8-3,2-3.7,3.8C18.6,62.9,18.4,64.6,18.4,66.5"/>
	<path class="st3" d="M97.9,75.1c-0.2-0.3-0.4-0.6-0.5-0.9c-0.2-0.3-0.6-0.7-0.5-1c0.1-0.5,0.3-1.1,0.7-1.5c1.9-2.3,5.4-2.3,7.3,0
		c0.1,0.1,0.2,0.2,0.2,0.3c1.5,2.9,1.8,6.4-1.1,8.9c-1,0.9-2.2,1-3.5,1c-0.4,0-0.7-0.3-0.7-0.7c-0.2-1.5-0.6-3-1.2-4.5
		c-0.1-0.2-0.1-0.4,0-0.6c0.5-0.5,0.9-1.1,1.5-1.5c0.7-0.4,1.3-0.3,2,0.3c0.1,0.1,0.3,0.3,0.4,0.4c0.3,0.2,0.5,0.4,0.8,0.1
		s0.3-0.6,0.1-0.9c-0.4-0.7-0.9-1.2-1.7-1.4c-1-0.3-1.9,0-2.7,0.6C98.7,74.2,98.4,74.6,97.9,75.1"/>
	<path class="st3" d="M12.9,75.1c-0.7-0.9-1.3-1.6-2.3-1.9c-1.3-0.3-2.4,0.1-3.1,1.2c-0.1,0.2-0.2,0.4-0.2,0.7
		c0,0.4,0.5,0.7,0.9,0.4c0.3-0.2,0.5-0.4,0.7-0.7c0.5-0.5,1.1-0.5,1.7-0.3c0.8,0.3,1.3,0.9,1.7,1.6c0.1,0.2,0,0.5,0,0.7
		c-0.4,1.4-0.8,2.8-1.1,4.3c-0.1,0.5-0.4,0.8-0.9,0.8c-1.4,0-2.6-0.2-3.6-1.3C5,79,4.3,77.2,4.8,75c0.1-0.7,0.3-1.5,0.6-2.2
		c0.4-1,1-1.9,2.3-2c0.1,0,0.3-0.1,0.4-0.2C8.4,70,9.1,70,9.7,70c1.5-0.2,4,1.5,4.2,3.1c0,0.2,0,0.5-0.1,0.6
		C13.6,74.1,13.2,74.6,12.9,75.1"/>
	<path class="st3" d="M88,53.4c-0.3,0-0.5,0.1-0.8,0c-3.9-0.3-7.8-0.3-11.7,0c-0.2,0-0.4,0-0.6,0c-3.2-0.1-6.4,0.4-9.5,0.9
		c-0.7,0.1-1.3,0.2-2,0.3c-2.2,0.4-3.4,2-4.1,3.9c-0.3,0.9-0.4,2-0.5,2.9c0,0.3-0.1,0.6-0.1,0.8c-0.2,1-0.2,1-1.2,1
		c-1.4,0-2.9,0-4.3,0c-0.5,0-0.8-0.2-0.9-0.7c-0.1-1-0.3-2-0.4-3c-0.2-1.7-1.1-3-2.3-4.2c-0.5-0.5-1.2-0.7-1.8-0.8
		c-3.2-0.5-6.4-1.1-9.6-1.2c-2.9-0.1-5.7-0.2-8.7-0.3c0.2-0.2,0.3-0.4,0.5-0.6c0.7-1,1.4-1.9,2.1-2.9c0.2-0.3,0.3-0.6,0.8-0.6
		c4-0.3,7.6-1.8,10.9-4c1.1-0.7,2.2-1.4,3.3-2.1c0.4,1.4,0.8,2.7,1.3,4c0.6,1.5,1.4,2.8,2.5,4.1c0.8,0.9,1.8,1.7,3,2.1
		c1.2,0.4,1.9-0.1,1.9-1.3s-0.1-2.5-0.1-3.8c0.5,0.5,1,0.9,1.6,1.3c1,0.8,2.1,1.5,3.4,1.7c1.4,0.2,2.2-0.3,2.4-1.8
		c0.1-0.9,0-1.9-0.1-2.9c0.1,0,0.4,0.1,0.6,0.2c1.3,0.6,2.6,0.9,3.9,0.9c2.8,0.2,5.6,0.2,8.3-0.8c0.4-0.2,0.7-0.1,1.1,0.2
		c0.7,0.9,1.7,1.4,2.7,1.7c2.1,0.8,4.3,1.4,6.6,1.4c0.9,0,1.1,0.1,1.3,1C87.6,51.8,87.8,52.6,88,53.4 M41.5,49.5
		c-0.3,0.1-0.5,0.1-0.7,0.2c-1.3,0.2-2.4,0.7-3.6,1.3c-0.3,0.2-0.6,0.3-0.8,0.5c-0.1,0.1-0.3,0.4-0.2,0.6c0.1,0.2,0.4,0.3,0.6,0.3
		c0.3,0,0.6-0.2,0.9-0.3c1.1-0.5,2.2-1,3.4-1.2c0.2,0,0.4-0.1,0.6-0.2c0.4-0.1,0.6-0.4,0.4-0.7C41.9,49.8,41.6,49.6,41.5,49.5
		 M69.4,49.6c-0.1,0-0.5,0-0.6,0.4s0.2,0.7,0.5,0.8c0.1,0,0.2,0.1,0.3,0.1c1.3,0.3,2.4,0.7,3.6,1.3c0.2,0.1,0.5,0.3,0.8,0.3
		c0.2,0,0.5-0.1,0.6-0.3c0.1-0.1-0.1-0.5-0.2-0.6C73,50.5,71.4,49.9,69.4,49.6"/>
	<path class="st0" d="M61.7,90c-3.9,3.9-9.8,3.3-12.7,0c-0.3,0.4-0.5,0.8-0.8,1.2c-0.1,0.2-0.3,0.4-0.5,0.5c-0.1,0.1-0.3,0.1-0.3,0
		c-0.1-0.1-0.2-0.3-0.2-0.4c0.1-0.4,0.2-0.8,0.4-1.1c0.7-1.4,1.2-2.8,1.4-4.3c0-0.4,0.1-1,0.5-1c0.6,0,0.5,0.7,0.5,1.1
		c0,0.7-0.1,1.4-0.3,2.1c-0.1,0.6,0,0.9,0.4,1.4c2,2.1,6,2.7,8.9,1c0.9-0.5,1.6-1.3,2.1-2.3c0.2-0.5,0.2-1.2,0.3-1.8
		c0.1-0.3,0.2-0.7,0.3-1c0-0.1,0.3-0.2,0.4-0.2c0.1,0,0.3,0.2,0.3,0.3c0.1,0.6,0.2,1.2,0.2,1.8c0.1,1.2,0.4,2.3,1.3,3.1
		c0.1,0.1,0.1,0.4,0.2,0.6c-0.2,0.1-0.5,0.2-0.7,0.2c-0.6,0-1-0.4-1.3-0.8C62,90.3,61.9,90.2,61.7,90"/>
	<path class="st0" d="M56,74.6c2.3-0.2,3.6,1.1,4.9,2.6c0.1,0.2,0.2,0.4,0.2,0.5c0.1,0.4,0,0.7-0.4,0.8c-0.2,0.1-0.5,0-0.7-0.1
		s-0.4-0.4-0.6-0.6c-0.5-0.5-1.1-1-1.6-1.4c-0.2-0.2-0.5-0.3-0.8-0.3c-2-0.2-3.8-0.1-5.4,1.4c-0.3,0.3-0.5,0.6-0.8,0.9
		c-0.1,0.1-0.3,0.1-0.4,0c-0.1-0.1-0.2-0.2-0.2-0.4c0-0.1,0.1-0.3,0.1-0.4c0.5-1.2,1.3-2,2.5-2.4C53.9,74.8,55,74.5,56,74.6"/>
	<path class="st0" d="M84.9,86.9c-0.4,0-0.6-0.2-0.7-0.5c-0.1-0.4,0.3-0.7,0.7-0.7c0.4,0,0.6,0.2,0.7,0.5
		C85.6,86.6,85.2,86.9,84.9,86.9"/>
	<path class="st0" d="M26,86.9c-0.4,0-0.7-0.4-0.6-0.7c0.1-0.4,0.3-0.5,0.7-0.5c0.4,0,0.7,0.3,0.7,0.6C26.7,86.7,26.3,87,26,86.9"/>
	<path class="st0" d="M33.5,88.4c0.5,0,0.8,0.3,0.8,0.6c-0.1,0.3-0.2,0.6-0.6,0.6c-0.4,0-0.6-0.3-0.5-0.6
		C33.2,88.7,33.4,88.5,33.5,88.4"/>
	<path class="st0" d="M77,89.5c-0.1-0.1-0.3-0.4-0.4-0.6c-0.1-0.3,0.3-0.5,0.6-0.5c0.3,0,0.5,0.2,0.5,0.5
		C77.8,89.2,77.5,89.5,77,89.5"/>
	<path class="st0" d="M29.1,92.1c0,0.5-0.2,0.8-0.5,0.7c-0.2-0.1-0.4-0.3-0.5-0.4c-0.1-0.3,0.2-0.7,0.5-0.6
		C28.8,91.8,29,92,29.1,92.1"/>
	<path class="st0" d="M82.4,92.9c-0.5-0.1-0.7-0.4-0.6-0.7c0-0.2,0.4-0.4,0.4-0.4c0.2,0.1,0.5,0.3,0.5,0.5
		C82.7,92.5,82.5,92.7,82.4,92.9"/>
	<path class="st0" d="M80.9,56.8c2,0.1,4.1,0.1,6.1,0.4c1.7,0.2,3,1.1,3.9,2.6c1,1.8,1.5,3.7,1.5,5.7c0,2.5-0.1,4.9-1,7.3
		c-0.2,0.6-0.6,1.1-0.9,1.6c-1,1.4-2.2,2.5-3.7,3.4c-1.4,0.8-2.8,1.2-4.3,1.3c-1.9,0.2-3.9,0.2-5.9,0.3c-2.5,0.1-4.6-0.9-6.7-2.1
		c-2.7-2.6-5.1-5.3-5.1-9.4c0-0.7-0.1-1.4-0.2-2.1c-0.1-1.4,0-2.7,0.4-4c0.8-2.4,2.6-3.8,5.1-4.2C73.8,57.1,77.3,56.7,80.9,56.8
		 M80.3,57.9c-2.2,0.2-4.6,0.3-7,0.5c-1.3,0.1-2.6,0.3-3.9,0.7c-1.5,0.5-2.7,1.5-3.1,3.1c-0.4,1.4-0.5,2.8-0.3,4.3
		c0.1,0.5,0.1,1,0.1,1.4c-0.1,1.9,0.5,3.6,1.6,5.1c0.6,0.8,1.2,1.5,1.8,2.2c1.9,2,4.2,3,6.9,3c1.8,0,3.7-0.1,5.5-0.2
		c1.7-0.1,3.2-0.5,4.6-1.4c1.2-0.7,2.1-1.7,2.9-2.8c0.4-0.5,0.7-1.1,0.9-1.7c0.9-2.5,1-5.1,0.9-7.7c0-1.1-0.3-2.1-0.7-3
		c-0.1-0.2-0.2-0.5-0.4-0.6c-0.5-0.2-0.6-0.6-0.8-1c-0.1-0.2-0.3-0.5-0.6-0.6c-0.8-0.4-1.7-0.8-2.5-0.9
		C84.5,58.1,82.6,58.1,80.3,57.9"/>
	<path class="st0" d="M18.4,66.5c-0.1-1.8,0.1-3.6,0.8-5.2c0.7-1.8,2-3.1,3.7-3.8c0.6-0.3,1.4-0.4,2.1-0.4c3.3-0.1,6.6-0.2,9.9-0.1
		c1.9,0.1,3.9,0.4,5.8,0.7c2.4,0.4,4.2,1.8,4.9,4.2c0.4,1.4,0.5,2.8,0.3,4.3c-0.1,0.6-0.2,1.3-0.1,1.9c0,1.9-0.5,3.6-1.5,5.2
		c-0.9,1.5-2,2.8-3.4,3.9s-3,1.9-4.8,2.1c-1.5,0.2-2.9,0.2-4.4,0.2c-1,0-2.1-0.1-3.1-0.2c-3.2-0.2-5.8-1.5-7.8-4
		c-1.1-1.3-1.7-2.8-2-4.4C18.5,69.3,18.3,67.9,18.4,66.5 M30.3,57.9c-2,0.1-4,0.1-6,0.5c-1.3,0.2-2.7,0.5-3.3,2
		c-0.1,0.2-0.3,0.3-0.4,0.4c-0.2,0.2-0.4,0.4-0.5,0.6c-0.3,0.9-0.6,1.8-0.6,2.7c-0.1,2.1-0.1,4.1,0.3,6.2c0.4,1.6,0.9,3.1,2,4.4
		c1.7,1.9,3.7,3.1,6.2,3.3c2.2,0.2,4.4,0.2,6.6,0.3c2.1,0,3.9-0.8,5.6-2c1.1-0.8,1.9-1.9,2.7-3c1.1-1.5,1.8-3.2,1.7-5.1
		c0-0.3,0-0.6,0.1-1c0.2-1.6,0.2-3.2-0.2-4.8c-0.2-0.6-0.5-1.3-0.9-1.8c-0.9-1.1-2-1.6-3.4-1.8C36.9,58.4,33.7,57.8,30.3,57.9"/>
	<path class="st0" d="M41.5,49.5c0.1,0.1,0.4,0.2,0.5,0.5s0,0.6-0.4,0.7c-0.2,0.1-0.4,0.1-0.6,0.2c-1.2,0.2-2.3,0.7-3.4,1.2
		c-0.3,0.1-0.6,0.3-0.9,0.3c-0.2,0-0.5-0.1-0.6-0.3c-0.1-0.1,0.1-0.5,0.2-0.6c0.2-0.2,0.5-0.3,0.8-0.5c1.1-0.6,2.3-1.1,3.6-1.3
		C41,49.7,41.2,49.6,41.5,49.5"/>
	<path class="st0" d="M69.4,49.6c2,0.3,3.6,1,5.1,1.9c0.1,0.1,0.3,0.4,0.2,0.6c-0.1,0.2-0.4,0.3-0.6,0.3c-0.3,0-0.5-0.1-0.8-0.3
		c-1.1-0.6-2.3-1-3.6-1.3c-0.1,0-0.2-0.1-0.3-0.1c-0.4-0.1-0.7-0.3-0.5-0.8C69,49.6,69.3,49.6,69.4,49.6"/>
	<path class="st0" d="M80.3,57.9c2.2,0.2,4.2,0.2,6.1,0.4c0.9,0.1,1.7,0.6,2.5,0.9c0.2,0.1,0.4,0.4,0.6,0.6c0.2,0.4,0.4,0.8,0.8,1
		c0.2,0.1,0.3,0.4,0.4,0.6c0.4,1,0.6,2,0.7,3c0.1,2.6,0,5.2-0.9,7.7c-0.2,0.6-0.5,1.2-0.9,1.7c-0.8,1.1-1.7,2-2.9,2.8
		c-1.4,0.9-3,1.3-4.6,1.4c-1.8,0.1-3.7,0.2-5.5,0.2c-2.7,0-5.1-1-6.9-3c-0.7-0.7-1.2-1.5-1.8-2.2c-1.1-1.5-1.6-3.2-1.6-5.1
		c0-0.5-0.1-1-0.1-1.4c-0.2-1.4-0.1-2.9,0.3-4.3c0.4-1.6,1.6-2.6,3.1-3.1c1.2-0.4,2.6-0.6,3.9-0.7C75.7,58.2,78.2,58.1,80.3,57.9"/>
	<path class="st0" d="M30.3,57.9c3.3-0.1,6.6,0.4,9.9,0.9c1.4,0.2,2.5,0.8,3.4,1.8c0.4,0.5,0.8,1.1,0.9,1.8c0.4,1.6,0.4,3.2,0.2,4.8
		c0,0.3-0.1,0.6-0.1,1c0.1,1.9-0.6,3.6-1.7,5.1c-0.8,1.1-1.6,2.2-2.7,3c-1.6,1.2-3.5,2-5.6,2c-2.2,0-4.4-0.1-6.6-0.3
		c-2.5-0.2-4.5-1.4-6.2-3.3c-1.1-1.3-1.7-2.7-2-4.4c-0.5-2.1-0.4-4.1-0.3-6.2c0-0.9,0.4-1.8,0.6-2.7c0.1-0.2,0.3-0.4,0.5-0.6
		c0.1-0.1,0.3-0.2,0.4-0.4c0.6-1.5,2-1.8,3.3-2C26.3,58.1,28.3,58.1,30.3,57.9"/>
	<g class="st20">
		<g>
			<g>
				<defs>
					<rect id="SVGID_9_" x="21.4" y="59.7" width="14.8" height="13.4"/>
				</defs>
				<clipPath id="SVGID_10_">
					<use xlink:href="#SVGID_9_"  style="overflow:visible;"/>
				</clipPath>
				<path class="st21" d="M36.2,66.5c0,3.7-3.3,6.7-7.4,6.7s-7.4-3-7.4-6.7c0-3.7,3.3-6.7,7.4-6.7C32.9,59.7,36.2,62.8,36.2,66.5"/>
			</g>
		</g>
	</g>
	<g class="st20">
		<g>
			<g>
				<defs>
					<rect id="SVGID_11_" x="66.3" y="59.7" width="14.8" height="13.4"/>
				</defs>
				<clipPath id="SVGID_12_">
					<use xlink:href="#SVGID_11_"  style="overflow:visible;"/>
				</clipPath>
				<path class="st22" d="M81.1,66.5c0,3.7-3.3,6.7-7.4,6.7s-7.4-3-7.4-6.7c0-3.7,3.3-6.7,7.4-6.7C77.8,59.7,81.1,62.8,81.1,66.5"/>
			</g>
		</g>
	</g>
</g>
</svg>
