<?xml version="1.0" encoding="utf-8"?>
<!-- Generator: Adobe Illustrator 23.0.1, SVG Export Plug-In . SVG Version: 6.00 Build 0)  -->
<svg version="1.1" xmlns="http://www.w3.org/2000/svg" xmlns:xlink="http://www.w3.org/1999/xlink" x="0px" y="0px"
	 viewBox="0 0 129.4 186.4" style="enable-background:new 0 0 129.4 186.4;" xml:space="preserve">
<style type="text/css">
	.st0{fill:#524632;}
	.st1{fill:#FF4E94;}
	.st2{fill:#D1A173;}
	.st3{fill:#FFCA2E;}
	.st4{fill:#FF9300;}
	.st5{fill:#FFB02E;}
	.st6{fill:#FF7700;}
	.st7{fill:#00A3E1;}
	.st8{fill:#FFFFFF;}
	.st9{fill:#C58859;}
	.st10{fill:#5B4011;}
	.st11{fill:#735324;}
	.st12{fill:#F32691;}
	.st13{filter:url(#Adobe_OpacityMaskFilter);}
	.st14{clip-path:url(#SVGID_2_);fill:url(#SVGID_4_);}
	.st15{clip-path:url(#SVGID_2_);mask:url(#SVGID_3_);fill:url(#SVGID_5_);}
	.st16{filter:url(#Adobe_OpacityMaskFilter_1_);}
	.st17{clip-path:url(#SVGID_7_);fill:url(#SVGID_9_);}
	.st18{clip-path:url(#SVGID_7_);mask:url(#SVGID_8_);fill:url(#SVGID_10_);}
</style>
<g id="PiernaDer">
	<path class="st0" d="M58.7,168c-0.1-0.5-0.3-1.1-0.3-1.6c0-2.3-0.1-4.6,0.2-6.9c0.2-1.2,0.3-2.3,0.4-3.5c0-0.1-0.2-1.3,0.1-1.6
		c-0.8,0-1.6,0-2.3-0.2c-1.4-0.3-2.7-1.1-3.8-2.4c0,0,0,0,0,0c-0.3-0.2-1.2-1.1-1.3-1.3c0,0,0,0-0.1,0c-0.3,0-0.5-0.1-0.7-0.3
		c-0.1,0.3-1,1.8-1,1.8c-0.2,1.2-0.4,2.2-0.6,3.2c-0.8,3.5-1.7,7.1-1.8,10.7c0,0.5-0.3,0.7-0.8,0.8c-1.6,0.4-2.9,1.2-4.3,2
		c-1.1,0.6-2,1.5-2.6,2.5c-0.8,1.3-1.6,2.7-2.3,4c-0.8,1.5-1.2,3.2-1.2,5c0,0.8,0.2,1.4,0.7,1.9c1.5,1.5,3.2,2.5,5.2,3.1
		c3.2,1,6.4,0.9,9.7,0.8c0.5,0,1.1-0.2,1.6-0.4c1.9-0.7,3.5-1.8,5.1-2.9c0.9-0.6,1.5-1.5,1.5-2.6c0-0.5,0.1-1.1,0.1-1.6
		C60.5,175.1,59.7,171.5,58.7,168z M49.3,160.7c0.2-0.7,0.3-1.4,0.5-2.1c0.4-1.9,0.8-3.8,1.2-5.7c0.1-0.3,0.2-0.6,0.3-1.1
		c1,1.5,2.3,2.4,3.7,3.1c0.6,0.3,1.3,0.6,2,0.6c0.6,0,0.7,0.1,0.7,0.8c-0.1,0.9-0.2,1.8-0.3,2.7c-0.1,1.3-0.3,2.6-0.4,3.9
		c0,0.5-0.2,0.8-0.7,0.8c-2,0.1-3.9,0-5.7-1c-0.3-0.1-0.5-0.3-0.8-0.4C49.4,161.8,49.2,161.4,49.3,160.7z M48.7,165.3
		c0.1-0.8,0.2-1.6,0.3-2.6c2.1,1.6,4.3,2,6.6,1.9c0.3,0,0.6,0,0.9,0c0.3,0,0.5,0.1,0.6,0.5c0.2,1.6,0,1.9-1.6,2.1
		c-1.7,0.1-3.3,0-5,0c-0.3,0-0.6-0.1-0.8-0.2C48.6,166.6,48.5,166.5,48.7,165.3z M49.3,185.2c-0.2,0.1-0.4,0.1-0.6,0
		c-1.7-0.2-3.4-0.4-5.1-0.7c-1.7-0.3-3.1-1.2-4.5-2.1c-1.1-0.8-1.7-1.7-1.4-3.2c0.3-1.2,0.6-2.4,1.2-3.5c0.7-1.2,1.3-2.5,2.1-3.7
		c0.8-1.2,1.3-1.3,2.6-0.8c2.5,0.9,4.2,2.6,4.9,5.1c0.4,1.4,0.7,2.9,1,4.4c-0.1,0-0.2,0-0.3,0.1c0.1,0.4,0.3,0.8,0.3,1.3
		c0.1,0.9,0.1,1.8,0.1,2.7C49.6,184.9,49.4,185.1,49.3,185.2z M49.4,175.8c-0.8-2.6-2.5-4.3-5-5.3c-0.4-0.2-0.8-0.3-1.3-0.5
		c0.3-0.2,0.5-0.4,0.8-0.5c1.1-0.6,2.2-1.1,3.3-1.6c0.6-0.3,1.1-0.3,1.8,0c0.6,0.3,1.4,0.5,2,0.5c2,0,3.9,0.2,6-0.3
		c0,0.3,0,0.6-0.1,0.7c-0.9,3.2-0.7,6.3,0.2,9.4c0.1,0.5,0.1,0.7-0.3,0.9c-1.6,1-3.4,1.6-5.3,1.9c-0.9,0.2-1,0-1.2-0.9
		C50.1,178.6,49.8,177.2,49.4,175.8z M57.6,182.4c-1.3,0.8-2.6,1.5-3.9,2.2c-0.7,0.4-1.6,0.5-2.4,0.6c-0.4,0.1-0.6-0.1-0.6-0.6
		c0-0.7,0-1.4,0-2.1c0-0.5,0.3-0.6,0.7-0.7c1.2-0.2,2.5-0.4,3.6-0.8c1.2-0.5,2.4-1.2,3.6-1.8c0.1-0.1,0.3-0.1,0.5-0.3
		C59.3,180.5,58.8,181.6,57.6,182.4z M58,178.3c-0.7-2.8-0.4-5.4,0-8c0.1,0.1,0.2,0.2,0.2,0.2c0.3,1.9,0.7,3.8,1,5.7
		C59.3,177.3,59.2,177.4,58,178.3z"/>
	<path class="st1" d="M49.2,180.8c0.1,0.4,0.3,0.8,0.3,1.3c0.1,0.9,0.1,1.8,0.1,2.7c0,0.1-0.2,0.3-0.4,0.4c-0.2,0.1-0.4,0.1-0.6,0
		c-1.7-0.2-3.4-0.4-5.1-0.7c-1.7-0.3-3.1-1.2-4.5-2.1c-1.1-0.8-1.7-1.7-1.4-3.2c0.3-1.2,0.6-2.4,1.2-3.5c0.7-1.2,1.3-2.5,2.1-3.7
		c0.8-1.2,1.3-1.3,2.6-0.8c2.5,0.9,4.2,2.6,4.9,5.1c0.4,1.4,0.7,2.9,1,4.4C49.4,180.7,49.3,180.7,49.2,180.8"/>
	<path class="st2" d="M57.1,168c0,0.3,0,0.6-0.1,0.7c-0.9,3.2-0.7,6.3,0.2,9.4c0.1,0.5,0.1,0.7-0.3,0.9c-1.6,1-3.4,1.6-5.3,1.9
		c-0.9,0.2-1,0-1.2-0.9c-0.3-1.4-0.5-2.9-0.9-4.3c-0.8-2.6-2.5-4.3-5-5.3c-0.4-0.2-0.8-0.3-1.3-0.5c0.3-0.2,0.5-0.4,0.8-0.5
		c1.1-0.6,2.2-1.1,3.3-1.6c0.6-0.3,1.1-0.3,1.8,0c0.6,0.3,1.4,0.5,2,0.5C53,168.3,55,168.5,57.1,168"/>
	<path class="st2" d="M51.3,151.7c1,1.5,2.3,2.4,3.7,3.1c0.6,0.3,1.3,0.6,2,0.6c0.6,0,0.7,0.1,0.7,0.8c-0.1,0.9-0.2,1.8-0.3,2.7
		c-0.1,1.3-0.3,2.6-0.4,3.9c0,0.5-0.2,0.8-0.7,0.8c-2,0.1-3.9,0-5.7-1c-0.3-0.1-0.5-0.3-0.8-0.4c-0.6-0.4-0.8-0.8-0.6-1.5
		c0.2-0.7,0.3-1.4,0.5-2.1c0.4-1.9,0.8-3.8,1.2-5.7C51.1,152.6,51.2,152.3,51.3,151.7"/>
	<path class="st3" d="M59,178.9c0.3,1.6-0.2,2.7-1.5,3.4c-1.3,0.8-2.6,1.5-3.9,2.2c-0.7,0.3-1.6,0.4-2.4,0.6
		c-0.4,0.1-0.6-0.1-0.6-0.6c0-0.7,0-1.4,0-2.1c0-0.5,0.3-0.6,0.7-0.7c1.2-0.2,2.5-0.4,3.6-0.8c1.2-0.5,2.4-1.2,3.6-1.8
		C58.6,179.2,58.8,179.1,59,178.9"/>
	<path class="st1" d="M49,162.8c2.1,1.6,4.3,2,6.6,1.9c0.3,0,0.6,0,0.9,0c0.3,0,0.5,0.1,0.6,0.5c0.2,1.6,0,1.9-1.6,2.1
		c-1.7,0.1-3.3,0.1-5,0c-0.3,0-0.6-0.1-0.8-0.2c-1.1-0.4-1.1-0.5-1-1.6C48.8,164.6,48.9,163.8,49,162.8"/>
	<path class="st1" d="M58,178.3c-0.7-2.8-0.4-5.4,0-8c0.1,0.1,0.2,0.2,0.2,0.2c0.3,1.9,0.7,3.8,1,5.7
		C59.3,177.3,59.2,177.4,58,178.3"/>
</g>
<g id="PiernaIzq">
	<path class="st0" d="M92.8,178.2c-0.5-2.6-1.9-4.8-3.4-7c-0.5-0.7-1.1-1.3-1.7-1.8c-1.5-1.1-3.1-2-4.9-2.5
		c-0.8-0.2-0.8-0.3-0.9-1.1c-0.1-2.4-0.5-4.8-1.1-7.2c-0.5-2.1-1.6-7-1.5-7.3c-0.1-0.3-0.2-0.6,0-0.9c0,0,0,0-0.1,0
		c-0.9-0.5-1.5-0.5-2,0.4c-0.9,1.5-2.4,2.5-3.9,3.2c-0.3,0.1-0.5,0.3-0.8,0.3c-0.7,0.1-1.3,0.1-2,0c0,0.2-0.1,0.4-0.2,0.5
		c0.1,0.3,0.1,1.2,0.1,1.5c0.2,1.7,0.5,3.4,0.6,5.1c0.1,1.9,0,3.8,0,5.6c0,0.2-0.1,0.4-0.1,0.6c-0.8,2-1,4-1.5,6.1
		c-0.5,2-0.4,4.1-0.3,6.1c0.1,1.4,0.7,2.5,1.8,3.3c1.1,0.7,2.2,1.4,3.3,2.1c1.4,0.8,3,1.3,4.7,1.1c0.7,0,1.4,0,2.1,0
		c2.1,0,4.1-0.3,6.1-0.9c2.1-0.7,3.9-1.7,5.4-3.3c0.3-0.3,0.5-0.8,0.5-1.2C93.1,180,93,179.1,92.8,178.2z M80.6,164.1
		c0,0.4,0,0.8,0.1,1.1c0.2,1.3,0.2,1.3-1.1,1.8c-0.2,0.1-0.3,0.1-0.5,0.2c-2.1,0.1-4.2,0.3-6.2-0.2c-0.5-0.1-0.7-0.3-0.6-0.8
		c0.2-1.7-0.2-1.5,1.6-1.5c2.3,0,4.5-0.3,6.5-1.9C80.5,163.3,80.6,163.7,80.6,164.1z M71.7,155.9c0-0.2,0.2-0.4,0.3-0.4
		c2.5-0.3,4.4-1.7,6.1-3.7c0.2,1.2,0.4,2.2,0.6,3.2c0.4,1.8,0.8,3.5,1.2,5.2c0.3,1.4,0.2,1.6-1,2.3c-1.9,1-3.9,1.2-6,1
		c-0.5,0-0.6-0.3-0.7-0.7c-0.2-2.1-0.4-4.1-0.6-6.2C71.7,156.4,71.7,156.2,71.7,155.9z M70.3,176.2c0.3-2,0.7-4,1.2-6
		c0.1,0.2,0.2,0.5,0.2,0.7c0.1,0.3,0.1,0.6,0.1,0.9c0,1.5,0,2.9,0,4.4c0,0.7-0.2,1.4-0.4,2.2C70.5,177.7,70.2,177.1,70.3,176.2z
		 M78.8,184.4c0,0.8-0.1,0.8-0.9,0.7c-0.4-0.1-0.8-0.1-1.2-0.3c-2-0.6-3.7-1.7-5.3-2.9c-1-0.7-1.1-1.8-0.9-3
		c0.8,0.4,1.4,0.8,2.1,1.2c1.7,1,3.5,1.5,5.4,1.7c0.9,0.1,0.9,0.1,0.9,1C78.9,183.3,78.9,183.9,78.8,184.4z M79,180.3
		c-0.1,0.5-0.3,0.8-0.8,0.7c-2.1-0.3-4-0.9-5.7-2c-0.3-0.2-0.4-0.4-0.2-0.7c0.9-2.3,0.7-4.8,0.7-7.2c0-0.7-0.3-1.4-0.4-2.1
		c-0.1-0.3-0.1-0.5-0.1-0.8c1.9,0,3.7,0.1,5.5,0.1c0.9,0,1.8-0.1,2.7-0.5c0.4-0.2,0.9-0.2,1.3-0.1c1.5,0.6,2.9,1.3,4.4,2.2
		c-0.3,0.2-0.4,0.3-0.6,0.4c-3.7,1.2-5.6,3.9-6.2,7.6C79.3,178.7,79.2,179.5,79,180.3z M91.2,181.7c-1.2,1.1-2.6,1.9-4.1,2.4
		c-2,0.7-4.1,0.9-6.3,1c-1.1,0.1-1.1,0-1-1.2c0-0.2,0-0.3,0-0.5c0,0-0.1,0-0.1,0c0.2-0.7,0.5-1.5,0.4-2.2c-0.1-1,0.1-1.9,0.3-2.8
		c0.2-0.9,0.4-1.7,0.6-2.5c0.8-2.6,2.7-4.1,5.3-5c0.8-0.3,1.5-0.1,2,0.6c1.6,2.5,3.2,5,3.6,8C92,180.5,91.8,181.2,91.2,181.7z"/>
	<path class="st1" d="M79.7,183.5c0.2-0.7,0.5-1.5,0.4-2.2c-0.1-1,0.1-1.9,0.3-2.8c0.2-0.9,0.4-1.7,0.6-2.5c0.8-2.6,2.7-4.1,5.3-5
		c0.8-0.3,1.5-0.1,2,0.6c1.6,2.5,3.2,5,3.6,8c0.1,0.8-0.1,1.5-0.7,2c-1.2,1.1-2.6,1.9-4.1,2.4c-2,0.7-4.1,0.9-6.3,1
		c-1.1,0.1-1.1,0-1-1.2c0-0.2,0-0.3,0-0.5C79.8,183.5,79.8,183.5,79.7,183.5"/>
	<path class="st2" d="M72.4,168.2c1.9,0,3.7,0.1,5.5,0.1c0.9,0,1.8-0.1,2.7-0.5c0.4-0.2,0.9-0.2,1.3-0.1c1.5,0.6,2.9,1.3,4.4,2.2
		c-0.3,0.2-0.4,0.3-0.6,0.4c-3.7,1.2-5.6,3.9-6.2,7.6c-0.1,0.8-0.3,1.6-0.4,2.5c-0.1,0.5-0.3,0.8-0.8,0.7c-2.1-0.3-4-0.9-5.7-2
		c-0.3-0.2-0.4-0.4-0.2-0.7c0.9-2.3,0.7-4.8,0.7-7.2c0-0.7-0.3-1.4-0.4-2.1C72.5,168.7,72.4,168.4,72.4,168.2"/>
	<path class="st2" d="M78.2,151.8c0.2,1.2,0.4,2.2,0.6,3.2c0.4,1.8,0.8,3.5,1.2,5.2c0.3,1.4,0.2,1.6-1,2.3c-1.9,1-3.9,1.2-6,1
		c-0.5,0-0.6-0.3-0.7-0.7c-0.2-2.1-0.4-4.1-0.6-6.2c0-0.2-0.1-0.5,0-0.7c0-0.2,0.2-0.4,0.3-0.4C74.6,155.2,76.4,153.8,78.2,151.8"/>
	<path class="st3" d="M70.4,178.9c0.8,0.4,1.4,0.8,2.1,1.2c1.7,1,3.5,1.5,5.4,1.7c0.9,0.1,0.9,0.1,0.9,1c0,0.5,0,1.1,0,1.6
		c0,0.8-0.1,0.8-0.9,0.7c-0.4-0.1-0.8-0.1-1.2-0.3c-2-0.6-3.7-1.7-5.3-2.9C70.4,181.2,70.3,180.2,70.4,178.9"/>
	<path class="st1" d="M80.4,162.8c0.1,0.6,0.2,1,0.2,1.4c0,0.4,0,0.8,0.1,1.1c0.2,1.3,0.2,1.3-1.1,1.8c-0.2,0.1-0.3,0.1-0.5,0.2
		c-2.1,0.1-4.2,0.3-6.2-0.2c-0.5-0.1-0.7-0.3-0.6-0.8c0.2-1.7-0.2-1.5,1.6-1.5C76.2,164.7,78.4,164.3,80.4,162.8"/>
	<path class="st1" d="M71.5,178.3c-1-0.5-1.3-1.2-1.2-2.1c0.3-2,0.7-4,1.2-6c0.1,0.2,0.2,0.5,0.2,0.7c0.1,0.3,0.1,0.6,0.1,0.9
		c0,1.5,0,2.9,0,4.4C71.8,176.8,71.6,177.5,71.5,178.3"/>
</g>
<g id="Falda">
	<path class="st0" d="M96,136.1c-0.3-0.2-0.7-0.4-1-0.5c-2.1-1-4.1-2.1-6.2-3.1c-3.5-1.7-6.3-4.3-9-7c-0.1-0.1-0.7-0.7-0.8-1
		c-1.6,1.2-3.2,2.2-5.2,2.6c-2.4,0.5-4.8,0.9-7.1,1.3c-2,0.3-4.1,0-6.1-0.3c-1.7-0.3-3.4-0.7-5.2-1c-1.9-0.4-3.6-1.5-5.2-2.6
		c0,0.4-0.7,1.1-0.7,1.1c-0.8,0.8-1.6,1.5-2.4,2.2c-0.8,0.7-1.5,1.5-2.4,2.1c-2.6,1.8-5.4,3.4-8.3,4.7c-1.1,0.5-2.3,1.1-3.4,1.7
		c-0.6,0.3-0.8,0.8-0.7,1.4c0.3,2,0.9,4,2,5.8c0.9,1.5,2.1,2.7,3.9,3.2c0.7,0.2,1,0.6,1,1.2c0.2,1.4,1,2.4,2.2,3.2
		c0.7,0.4,1.5,0.8,2.2,1.2c1.7,0.9,3.5,0.9,5.2,0.2c0.2-0.1,0.5-0.2,0.9-0.3c0,0,0.5-0.4,0.8-0.4c0.2,0,0.6,0,0.6,0
		c1,1.5,2.3,2.4,3.7,3.1c0.6,0.3,1.3,0.6,2,0.6c0.2,0,1.6,0,1.8,0c0.2,0,0.6,0,0.8-0.1c1.9-0.2,3.6-1,5.1-2.2c1.4,1.2,3,1.9,4.8,2.2
		c0.3,0,0.9,0.2,1.1,0.2c0.2,0,0.7,0,0.9,0c0.1,0,0.5,0,0.5,0c2.5-0.3,6.1-3.6,6.1-3.6c0.1-0.1,0.3-0.2,0.5-0.2
		c0.3,0,0.6,0.1,0.7,0.3c0,0,0,0,0,0c0.6,0.2,0.9,0.4,1.3,0.5c1.6,0.5,3.1,0.5,4.6-0.2c0.8-0.4,1.6-0.8,2.3-1.2
		c1.2-0.7,2.1-1.7,2.3-3.2c0.1-0.7,0.4-1.1,1.2-1.2c0.5-0.1,0.9-0.4,1.3-0.7c1.2-0.9,2.2-1.9,2.8-3.3c0.7-1.5,1.3-3.1,1.5-4.8
		C97,136.8,97,136.7,96,136.1z M79.7,127.9c0-0.2,0-0.3,0.1-0.7c1,0.9,1.9,1.6,2.6,2.4c1.5,1.5,3.3,2.5,5.1,3.6
		c1.4,0.8,2.9,1.6,4.4,2.3c0.5,0.2,0.6,0.5,0.5,1c-0.2,1-0.5,2-0.8,3c-0.1,0.3-0.3,0.7-0.5,0.9c-1.3,1.1-2.7,2.1-4.6,1.8
		c-0.1,0-0.2,0-0.2-0.1c-0.9-0.1-1.2,0.1-1.1,1c0.1,1.3-0.5,2.2-1.2,3c-0.9,1-2,1.6-3.3,1.3c-0.8-0.2-1.5-0.7-2.2-1.1
		c-0.1-0.1-0.2-0.2-0.4-0.3c-0.8-0.7-1.1-0.7-1.9,0.1c-0.5,0.6-1,1.2-1.4,1.8c-1.5,1.9-3.5,2.5-5.8,2.4c-0.6,0-1.2-0.4-1.7-0.8
		c-0.4-0.3-0.7-0.7-1.1-1c-0.8-0.7-1.2-0.7-2-0.1c-0.2,0.2-0.4,0.3-0.6,0.5c-0.6,0.7-1.4,1-2.5,0.9c0.4-0.6,0.8-1.1,1.1-1.6
		c0.3-0.6,0.6-1.2,1-1.8c0.3,0.2,0.6,0.3,0.8,0.4c3.4,1.5,6.5,1.1,9.5-1.2c2.2-1.7,3-4,3.3-6.5c0.2-1.4,0.2-2.8,0.2-4.1
		c0-0.4-0.1-0.7,0.3-1C79.1,132.4,79.7,130.3,79.7,127.9z M37.6,136c0.1-0.4,0.4-0.7,0.8-0.9c1.9-1.1,3.8-2.2,5.7-3.2
		c1.6-0.9,2.8-2.2,4.2-3.4c0.7-0.6,1.4-1.2,2-1.8c0.3-0.3,0.6-0.4,1-0.1c2.2,1.5,4.8,1.9,7.3,2.4c1.8,0.3,3.5,0.6,5.3,0.7
		c1.3,0.1,2.6-0.1,3.9-0.3c2.5-0.4,4.9-0.9,7.6-1.3c-0.4,1.6-1,2.9-2.5,3.6c-0.9,0.4-1.8,0.8-2.8,1.2c-1.2,0.4-1.3,0.5-1,1.8
		c0.3,1.1,0.4,2.1,0.4,3.2c0,1.7-0.9,2.9-2.2,3.8c-1,0.6-2.1,0.5-3.2,0.3c-1.4-0.2-2.6-0.7-3.7-1.8c-0.6-0.6-0.9-0.5-1.2,0.3
		c-0.2,0.6-0.3,1.2-0.5,1.8c-0.9,2.8-3.9,4.1-6.5,2.7c-0.2-0.1-0.3-0.2-0.5-0.4c-0.7-0.6-0.8-0.6-1.4,0.1c-0.5,0.5-0.9,1-1.4,1.5
		c-0.6,0.6-1.3,0.9-2,0.7c-1-0.3-1.9-0.6-2.8-1.1c-0.6-0.3-0.8-1-0.7-1.8c0.3-2.3-0.1-2.4-2.2-2.4c-1.5,0-2.6-0.6-3.4-1.8
		C37.2,138.6,37.4,137.3,37.6,136z M52,150.1c-0.2-0.2-0.6-0.2-0.9-0.1c-0.4,0.1-0.8,0.4-1.2,0.6c-1.8,1.2-3.6,1.4-5.6,0.5
		c-0.7-0.4-1.5-0.8-2.2-1.2c-0.8-0.5-1.3-1.2-1.5-2.1c-0.1-0.4-0.2-0.8-0.3-1.2c-0.1-0.6-0.5-0.9-1.1-1c-1.6-0.2-2.6-1.3-3.5-2.5
		c-1.1-1.6-1.6-3.4-2-5.3c-0.1-0.4,0.1-0.6,0.4-0.7c0.7-0.4,1.4-0.7,2.2-1.1c0.3,0.6,0.2,1.1,0.1,1.6c-0.3,2.3,2.1,5,4.6,5
		c0.5,0,1.2,0,1.4,0.2c0.2,0.3,0.1,0.9,0.1,1.4c0,0.9,0.2,1.8,1,2.3c1.1,0.7,2.3,1.3,3.7,1.4c0.9,0,1.7-0.3,2.4-0.9
		c0.5-0.5,0.9-1.2,1.4-1.3c0.5-0.1,1.1,0.4,1.7,0.6c1.9,0.5,3.6,0.4,5.2-0.9c0.8-0.7,1.4-1.4,1.7-2.4c0.1-0.4,0.3-0.9,0.5-1.5
		c1.3,0.9,2.5,1.4,3.9,1.6c1.5,0.2,3,0.3,4.3-0.8c1.3-1.1,2.3-2.4,2.2-4.3c0-1.1,0-2.3-0.4-3.4c-0.1-0.4,0-0.6,0.4-0.7
		c0.9-0.3,1.8-0.7,2.7-1.1c1.7-0.8,2.7-2.2,3-3.9c0.2-1.2,0.8-1.8,2-2.2c0.1,1.8,0.3,3.7-0.8,5.3c-0.4,0.5-0.8,1.1-1.3,1.5
		c-0.4,0.3-0.5,0.6-0.5,1.2c0.4,2.7,0.1,5.3-0.9,7.8c-0.7,1.8-2.2,2.9-3.9,3.7c-2.4,1.1-4.7,0.8-7-0.4c-0.2-0.1-0.4-0.2-0.5-0.3
		c-0.4-0.3-0.7-0.1-0.9,0.2c-0.3,0.5-0.5,0.9-0.8,1.4c-0.9,2.1-2.6,3.4-4.8,3.7C55.2,150.9,53.5,151.1,52,150.1z M95.2,139.6
		c-0.2,1-0.7,1.9-1.1,2.8c-0.5,1.2-1.4,2-2.4,2.6c-0.4,0.3-0.8,0.4-1.3,0.5c-0.9,0.1-1.2,0.6-1.4,1.4c0,0.1,0,0.2,0,0.2
		c-0.1,1.5-1,2.5-2.3,3.2c-1.2,0.6-2.3,1.3-3.7,1.3c-1.2,0-2.2-0.3-3.2-1c-0.1-0.1-0.3-0.2-0.4-0.3c-0.9-0.5-1.5-0.5-2,0.4
		c-0.9,1.5-2.4,2.5-3.9,3.2c-0.3,0.1-0.5,0.3-0.8,0.3c-2,0.2-4,0.1-5.8-1c-0.5-0.3-0.9-0.6-1.3-1c-0.6-0.5-0.8-0.6-1.4,0
		c-0.8,0.8-1.9,1.2-2.9,1.6c-1.4,0.5-2.9,0.5-4.3,0.2c-1.4-0.3-2.7-1.1-3.8-2.4c0.5,0,0.8,0,1.1,0c1.8,0.1,3.5,0.1,5.1-0.8
		c0.2-0.1,0.5,0,0.8,0c0.8,0,1.6,0,2.4,0c0.9-0.1,1.5-0.7,2.1-1.2c0.6-0.5,0.7-0.5,1.2,0c1.9,1.9,4.1,2.1,6.6,1.2
		c1.6-0.6,2.8-1.5,3.7-2.9c0.3-0.4,0.6-1,1.1-1.2c0.3-0.1,0.8,0.4,1.2,0.7c0.9,0.5,1.7,1.1,2.8,1c1.4,0,2.6-0.6,3.5-1.6
		c0.8-0.9,1.6-1.9,1.6-3.3c0-0.3,0.2-0.5,0.5-0.4c1.4,0.2,2.6-0.5,3.8-1.1c1.1-0.6,1.9-1.5,2.3-2.7c0.2-0.6,0.3-1.3,0.5-1.9
		c0.1-0.4,0.2-0.8,0.3-1.2C96.1,137.5,95.9,136.9,95.2,139.6z"/>
	<path class="st3" d="M75.4,128.1c-0.4,1.6-1,2.9-2.5,3.6c-0.9,0.4-1.8,0.8-2.8,1.2c-1.2,0.4-1.3,0.5-1,1.8c0.3,1.1,0.4,2.1,0.4,3.2
		c0,1.7-0.9,2.9-2.2,3.8c-1,0.7-2.1,0.5-3.2,0.3c-1.4-0.2-2.6-0.7-3.7-1.8c-0.6-0.6-0.9-0.5-1.2,0.3c-0.2,0.6-0.3,1.2-0.5,1.8
		c-0.9,2.8-3.9,4.1-6.5,2.7c-0.2-0.1-0.3-0.2-0.5-0.4c-0.7-0.6-0.8-0.6-1.4,0.1c-0.5,0.5-0.9,1-1.4,1.5c-0.6,0.6-1.3,0.9-2,0.7
		c-1-0.3-1.9-0.6-2.8-1.1c-0.6-0.3-0.8-1-0.7-1.8c0.3-2.3-0.1-2.4-2.2-2.4c-1.5,0-2.6-0.7-3.4-1.8c-0.8-1.2-0.6-2.5-0.3-3.7
		c0.1-0.4,0.4-0.7,0.8-0.9c1.9-1.1,3.8-2.2,5.7-3.2c1.6-0.9,2.8-2.2,4.2-3.4c0.7-0.6,1.4-1.2,2.1-1.8c0.3-0.3,0.6-0.4,1-0.1
		c2.2,1.5,4.8,1.9,7.3,2.4c1.8,0.3,3.5,0.6,5.3,0.7c1.3,0.1,2.6-0.1,3.9-0.3C70.3,129,72.8,128.5,75.4,128.1"/>
	<path class="st4" d="M60.3,141.4c1.3,0.9,2.5,1.4,3.9,1.6c1.5,0.2,3,0.3,4.3-0.8c1.3-1.1,2.3-2.4,2.2-4.3c0-1.1,0-2.3-0.4-3.3
		c-0.1-0.4,0-0.6,0.4-0.7c0.9-0.3,1.8-0.7,2.7-1.1c1.7-0.8,2.7-2.2,3-3.9c0.2-1.2,0.8-1.8,2-2.2c0.1,1.8,0.3,3.7-0.8,5.3
		c-0.4,0.5-0.8,1.1-1.3,1.5c-0.4,0.3-0.5,0.6-0.5,1.2c0.4,2.7,0.1,5.3-0.9,7.8c-0.7,1.8-2.2,2.9-3.9,3.7c-2.4,1.1-4.7,0.8-7-0.4
		c-0.2-0.1-0.4-0.2-0.5-0.3c-0.4-0.3-0.7-0.1-0.9,0.2c-0.3,0.5-0.5,0.9-0.8,1.4c-0.9,2.1-2.6,3.4-4.8,3.7c-1.6,0.3-3.3,0.5-4.8-0.6
		c-0.2-0.2-0.6-0.2-0.9-0.1c-0.4,0.1-0.8,0.4-1.2,0.6c-1.8,1.2-3.6,1.4-5.6,0.5c-0.7-0.4-1.5-0.8-2.2-1.2c-0.8-0.5-1.3-1.2-1.5-2.1
		c-0.1-0.4-0.2-0.8-0.3-1.2c-0.1-0.6-0.5-0.9-1.1-1c-1.6-0.2-2.6-1.3-3.5-2.5c-1.1-1.6-1.6-3.4-2-5.3c-0.1-0.4,0.1-0.6,0.4-0.7
		c0.7-0.4,1.4-0.7,2.2-1.1c0.3,0.6,0.2,1.1,0.1,1.6c-0.3,2.3,2.1,5,4.6,5c0.5,0,1.2,0,1.4,0.2c0.2,0.3,0.1,0.9,0.1,1.4
		c0,0.9,0.2,1.8,1,2.3c1.1,0.7,2.3,1.3,3.7,1.4c0.9,0,1.7-0.3,2.4-0.9c0.5-0.5,0.9-1.2,1.4-1.3c0.5-0.1,1.1,0.4,1.7,0.6
		c1.9,0.5,3.6,0.4,5.2-0.9c0.8-0.7,1.4-1.4,1.7-2.4C59.9,142.5,60.1,142,60.3,141.4"/>
	<path class="st5" d="M79.7,127.3c1,0.9,1.9,1.6,2.6,2.4c1.5,1.5,3.3,2.5,5.1,3.6c1.4,0.8,2.9,1.6,4.4,2.3c0.5,0.2,0.6,0.5,0.5,1
		c-0.2,1-0.5,2-0.8,3c-0.1,0.3-0.3,0.7-0.5,0.9c-1.3,1.1-2.7,2.1-4.6,1.8c-0.1,0-0.2,0-0.2-0.1c-0.9-0.1-1.2,0.1-1.1,1
		c0.1,1.3-0.5,2.2-1.2,3c-0.9,1-2,1.6-3.3,1.3c-0.8-0.2-1.5-0.7-2.2-1.1c-0.1-0.1-0.2-0.2-0.4-0.3c-0.8-0.7-1.1-0.7-1.9,0.1
		c-0.5,0.6-1,1.2-1.4,1.8c-1.5,1.9-3.5,2.5-5.8,2.4c-0.6,0-1.2-0.4-1.7-0.8c-0.4-0.3-0.7-0.7-1.1-1c-0.8-0.7-1.2-0.7-2-0.1
		c-0.2,0.2-0.4,0.3-0.6,0.5c-0.6,0.7-1.4,1-2.5,0.9c0.4-0.6,0.8-1.1,1.1-1.6c0.3-0.6,0.6-1.2,1-1.8c0.3,0.2,0.6,0.3,0.8,0.4
		c3.4,1.5,6.5,1.1,9.5-1.2c2.2-1.7,3-4,3.3-6.5c0.2-1.4,0.2-2.8,0.2-4.1c0-0.4-0.1-0.7,0.3-1c1.7-1.7,2.4-3.8,2.3-6.2
		C79.7,127.8,79.7,127.6,79.7,127.3"/>
	<path class="st6" d="M93.5,136.3c2.5,1.2,2.3,0.6,1.6,3.3c-0.2,1-0.7,1.9-1.1,2.8c-0.5,1.2-1.4,1.9-2.4,2.6
		c-0.4,0.3-0.8,0.4-1.3,0.5c-0.9,0.1-1.2,0.6-1.4,1.4c0,0.1,0,0.2,0,0.2c-0.1,1.5-1,2.5-2.3,3.2c-1.2,0.6-2.3,1.3-3.7,1.3
		c-1.2,0-2.2-0.3-3.2-1c-0.1-0.1-0.3-0.2-0.4-0.3c-0.9-0.5-1.5-0.4-2,0.4c-0.9,1.5-2.4,2.5-3.9,3.2c-0.3,0.1-0.5,0.3-0.8,0.3
		c-2,0.2-4,0.1-5.8-1c-0.5-0.3-0.9-0.6-1.3-1c-0.6-0.5-0.8-0.6-1.4,0c-0.8,0.8-1.9,1.2-2.9,1.6c-1.4,0.5-2.9,0.5-4.3,0.2
		c-1.4-0.3-2.7-1.1-3.8-2.4c0.5,0,0.8,0,1.1,0c1.8,0.1,3.5,0.1,5.1-0.8c0.2-0.1,0.5,0,0.8,0c0.8,0,1.6,0,2.4,0
		c0.9-0.1,1.5-0.7,2.1-1.2c0.6-0.5,0.7-0.5,1.2,0c1.9,1.9,4.1,2.1,6.6,1.2c1.6-0.6,2.8-1.5,3.7-2.8c0.3-0.4,0.6-1,1.1-1.2
		c0.3-0.1,0.8,0.4,1.2,0.7c0.9,0.5,1.7,1.1,2.8,1c1.4-0.1,2.6-0.6,3.5-1.6c0.8-0.9,1.6-1.9,1.6-3.3c0-0.3,0.2-0.5,0.5-0.4
		c1.4,0.2,2.6-0.5,3.8-1.1c1.1-0.6,1.9-1.5,2.3-2.7c0.2-0.6,0.3-1.3,0.5-1.9C93.4,137.2,93.4,136.8,93.5,136.3"/>
</g>
<g id="BrazoDer">
	<path class="st0" d="M54.7,102.5c0.1-1.8,0.5-5.8,0.3-5.9c0,0,0,0,0,0c-0.1,0.1-0.2,0.2-0.3,0.3c-1.1,1.8-2.5,3.4-4.1,4.9
		c-1.8,1.6-3.6,3.3-5.4,4.9c-0.2,0.2-0.4,0.4-0.6,0.6c-2.6,2.2-5.3,4.4-8,6.5c-0.9,0.8-1.9,1.6-3,2.1c-2.6,1.1-5.3,2.3-8.1,3
		c-1.5,0.3-2.9,0.9-4.1,1.9c-0.6,0.5-0.9,1-0.9,1.8c0,0.9,0.8,1.6,0.6,2.3c-0.2,0.8-0.4,1.6-0.3,2.5c0,0.2,0,0.4,0.1,0.5
		c0.2,0.3,0.3,0.6,0.6,0.7c0.4,0.2,0.5,0.4,0.5,0.7c0,0.3,0.1,0.6,0.2,0.8c0.4,0.9,0.8,1.1,1.7,0.8c0.4-0.1,0.7,0,1,0.1
		c1.6,0.8,2.7,0.4,3.6-1.1c0.5-0.8,1-1.7,1.6-2.6c0.7-1.2,1.6-2.3,2.7-3.3c0.5-0.5,0.7-0.4,1,0.2c0.4,0.8,0.7,1.7,1,2.6
		c0.3,0.8,0.9,1.3,1.6,1.7c0.9,0.4,1.9,0.5,2.7-0.2c0.7-0.6,0.9-1.5,0.5-2.6c-0.7-1.7-0.6-3.3,0.1-4.9c0.1-0.2,0.4-0.4,0.6-0.6
		c2.7-1.3,5-2.9,7.2-4.9c1.1-1,2.3-1.9,3.6-3c0,0,1.7-1.6,1.7-1.9C53.4,107.8,54.1,105.2,54.7,102.5
		C54.7,102.6,54.7,102.6,54.7,102.5z M53.4,103c-0.5,2.2-1,4.3-1.4,6.5c-0.1,0.6-0.4,1-0.8,1.4c-3.2,2.8-6.3,5.8-10,8
		c-0.2,0.1-0.4,0.2-0.6,0.4c-0.6,0.4-1.5,0.4-1.7,1.2c-0.4,1.1-0.9,2.3-0.6,3.5c0.2,0.7,0.3,1.5,0.5,2.2c0.3,1.2-0.3,1.9-1.5,1.6
		c-0.6-0.1-1.1-0.5-1.4-1.1c-0.2-0.5-0.4-1.1-0.7-1.6c-0.2-0.5-0.4-1-0.7-1.5c-0.3-0.5-0.7-0.7-1.3-0.5c-0.9,0.3-1.6,0.8-2.1,1.5
		c-0.7,0.9-1.4,1.9-2,2.8c-0.5,0.8-0.9,1.6-1.5,2.3c-0.2,0.3-0.5,0.6-0.9,0.7c-0.9,0.3-1.7-0.3-1.6-1.2c0-0.6,0.3-1,0.7-1.5
		c1-1.3,2-2.6,2.9-3.9c0.2-0.3,0.3-0.7,0.4-1c0-0.1-0.1-0.3-0.2-0.4c-0.1-0.1-0.3,0-0.3,0c-0.2,0.2-0.5,0.5-0.7,0.7
		c-0.9,1.2-1.8,2.5-2.8,3.7c-0.6,0.8-1.2,1.6-1,2.7c0,0.2-0.2,0.4-0.3,0.6c-0.2-0.1-0.6-0.2-0.7-0.4c-0.4-0.8-0.4-1.6,0.2-2.4
		c1-1.5,2.2-2.8,3.5-4c0.3-0.3,0.5-0.5,0.8-0.8c0.2-0.2,0.2-0.6-0.1-0.8c-0.2-0.1-0.5,0-0.7,0.1c-1.6,1.4-3,3-4.2,4.8
		c-0.2,0.3-0.4,0.6-0.7,1c-0.5-1.1-0.3-2,0.3-2.8c0.9-1.1,1.9-2,2.8-3c0.3-0.3,0.7-0.5,1-0.8c0.1-0.1,0.2-0.4,0.1-0.5
		c-0.1-0.2-0.4-0.3-0.6-0.3c-0.2,0-0.5,0.2-0.7,0.3c-0.7,0.6-1.4,1.2-2,1.8c-0.4,0.3-0.7,0.7-1,1.1c-0.7-1.2-0.6-1.7,0.5-2.4
		c1.2-0.8,2.6-1.2,3.9-1.6c1.3-0.4,2.6-0.8,3.9-1.3c0.8-0.3,1.7-0.5,2.5-0.8c0.3-0.1,0.6-0.2,0.9-0.4c2.2-1.6,4.5-3.2,6.7-4.9
		c3.9-3.1,7.4-6.6,11.1-10c0.9-0.8,1.7-1.6,2.6-2.4C53.9,101,53.7,102,53.4,103z"/>
	<path class="st2" d="M54.1,100.1c-0.2,0.9-0.4,1.9-0.6,2.9c-0.5,2.2-1,4.3-1.4,6.5c-0.1,0.6-0.4,1-0.8,1.4c-3.2,2.8-6.3,5.8-10,8
		c-0.2,0.1-0.4,0.2-0.6,0.4c-0.6,0.4-1.5,0.4-1.7,1.2c-0.4,1.1-0.9,2.3-0.6,3.5c0.2,0.7,0.3,1.5,0.5,2.2c0.3,1.2-0.3,1.9-1.5,1.6
		c-0.6-0.1-1.1-0.5-1.4-1.1c-0.2-0.5-0.4-1.1-0.7-1.6c-0.2-0.5-0.4-1-0.7-1.5c-0.3-0.5-0.7-0.7-1.3-0.5c-0.9,0.3-1.6,0.8-2.1,1.5
		c-0.7,0.9-1.4,1.9-2,2.8c-0.5,0.8-0.9,1.6-1.5,2.3c-0.2,0.3-0.5,0.6-0.9,0.7c-0.9,0.3-1.7-0.3-1.6-1.2c0-0.6,0.3-1,0.7-1.5
		c1-1.3,2-2.6,2.9-3.9c0.2-0.3,0.3-0.7,0.4-1c0-0.1-0.1-0.3-0.2-0.4c-0.1-0.1-0.3,0-0.3,0c-0.2,0.2-0.5,0.5-0.7,0.7
		c-0.9,1.2-1.8,2.5-2.8,3.7c-0.6,0.8-1.2,1.6-1,2.7c0,0.2-0.2,0.4-0.3,0.6c-0.2-0.1-0.6-0.2-0.7-0.4c-0.4-0.8-0.4-1.6,0.2-2.4
		c1-1.4,2.2-2.8,3.5-4c0.3-0.3,0.5-0.5,0.8-0.8c0.2-0.2,0.2-0.6-0.1-0.8c-0.2-0.1-0.5,0-0.6,0.1c-1.6,1.4-3,3-4.2,4.8
		c-0.2,0.3-0.4,0.6-0.7,1c-0.5-1.1-0.3-2,0.3-2.8c0.9-1.1,1.9-2,2.8-3c0.3-0.3,0.7-0.5,1-0.8c0.1-0.1,0.2-0.4,0.1-0.5
		c-0.1-0.2-0.4-0.3-0.6-0.3c-0.2,0-0.5,0.2-0.7,0.3c-0.7,0.6-1.4,1.2-2,1.8c-0.4,0.3-0.7,0.7-1,1.1c-0.7-1.2-0.6-1.7,0.5-2.4
		c1.2-0.8,2.6-1.2,3.9-1.6c1.3-0.4,2.6-0.8,3.9-1.3c0.8-0.3,1.7-0.5,2.5-0.8c0.3-0.1,0.6-0.2,0.9-0.4c2.2-1.6,4.5-3.2,6.7-4.9
		c3.9-3.1,7.4-6.6,11.1-10C52.3,101.6,53.2,100.9,54.1,100.1"/>
</g>
<g id="BrazoIzq">
	<path class="st0" d="M108.5,124.1c0.8-1.5,0.7-2.8-0.9-3.7c-1-0.6-2.1-1.2-3.2-1.4c-2.2-0.6-4.3-1.4-6.4-2.2
		c-0.9-0.4-1.9-0.7-2.7-1.3c-1.6-1.1-3.2-2.2-4.8-3.5c-3-2.4-5.9-4.8-8.6-7.5c-0.4-0.4-0.8-0.7-1.2-1.1c-2.3-2-4.5-4-6.1-6.6
		c0,0.3,0,4.7,0,4.9c0,0,0,0,0,0c0.6,2.9,1.1,5.7,1.8,8.6c0.1,0.6,1.8,2,1.7,2c1.4,1.1,2.5,2.1,3.6,3c2.2,2,4.6,3.6,7.2,4.9
		c0.2,0.1,0.5,0.3,0.6,0.4c0.3,1.1,0.9,2.1,0.6,3.3c-0.2,0.6-0.3,1.3-0.5,1.9c-0.5,1.7,0.6,3,2.1,2.9c1.3-0.1,2.1-0.7,2.7-1.7
		c0.3-0.5,0.4-1,0.6-1.5c0.2-0.5,0.3-1,0.5-1.4c0.2-0.5,0.5-0.5,0.9-0.2c0.6,0.6,1.3,1.2,1.8,1.9c0.9,1.3,1.7,2.6,2.5,3.9
		c0.8,1.5,2.5,2,3.8,1.1c0.3-0.2,0.5-0.2,0.8-0.1c1.1,0.3,1.6,0.1,1.9-1c0.2-0.6,0.1-1.3,1-1.5c0.2,0,0.3-0.5,0.3-0.8
		c0.1-0.8,0.2-1.6-0.2-2.3C108.2,124.8,108.2,124.5,108.5,124.1z M103.3,121.2c0.2,0.2,0.5,0.4,0.8,0.6c1,1,2.1,2,3,3
		c0.7,0.8,0.9,1.7,0.5,3c-0.2-0.3-0.4-0.4-0.5-0.6c-1.2-1.8-2.6-3.5-4.2-5c-0.3-0.2-0.5-0.6-0.9-0.4c-0.3,0.2-0.2,0.6,0.2,1.1
		c1.1,1.1,2.1,2.2,3.2,3.4c0.4,0.4,0.7,0.9,1,1.3c0.4,0.7,0.4,1.3,0.1,2c-0.1,0.3-0.4,0.6-0.8,0.5c-0.2-0.1-0.3-0.4-0.3-0.6
		c0.1-1-0.3-1.8-0.9-2.5c-1-1.3-2-2.7-3-4c-0.2-0.3-0.4-0.8-1-0.6c-0.3,0.1-0.3,0.6,0.1,1.2c1,1.4,2,2.7,3,4
		c0.4,0.5,0.7,0.9,0.7,1.6c0,0.9-0.8,1.6-1.7,1.2c-0.3-0.1-0.7-0.4-0.9-0.7c-0.5-0.8-1-1.6-1.5-2.5c-0.8-1.3-1.6-2.6-2.8-3.5
		c-0.4-0.3-0.9-0.5-1.3-0.7c-0.6-0.2-1-0.1-1.3,0.5c-0.3,0.5-0.4,1-0.7,1.5c-0.2,0.5-0.4,1.1-0.7,1.6c-0.3,0.6-0.8,1-1.4,1.1
		c-1.2,0.3-1.8-0.4-1.5-1.7c0.2-0.6,0.3-1.3,0.5-1.9c0.4-1.3-0.2-2.6-0.6-3.8c-0.1-0.2-0.4-0.4-0.6-0.6c-3.3-1.7-6.2-4-8.9-6.5
		c-0.9-0.8-1.7-1.6-2.6-2.3c-0.6-0.5-0.8-1.1-1-1.8c-0.6-2.8-1.2-5.5-1.9-8.3c-0.1-0.3-0.1-0.6-0.1-0.8c0.6,0.5,1.2,1,1.7,1.5
		c3,2.8,6.1,5.6,9.1,8.4c2.9,2.6,6,5,9.2,7.1c0.4,0.3,1,0.4,1.5,0.6c0.7,0.3,1.5,0.5,2.3,0.8c1.3,0.4,2.5,0.9,3.8,1.2
		c1.4,0.4,2.7,0.8,3.9,1.6c1.1,0.7,1.2,1.1,0.6,2.5c-0.4-0.4-0.7-0.8-1.1-1.2c-0.7-0.6-1.3-1.2-2-1.8c-0.2-0.2-0.4-0.3-0.7-0.3
		c-0.2,0-0.4,0.1-0.5,0.2C103.1,120.8,103.2,121.1,103.3,121.2z"/>
	<path class="st2" d="M75.4,100.1c0.6,0.5,1.2,1,1.7,1.5c3.1,2.8,6.1,5.6,9.1,8.4c2.9,2.6,6,5,9.2,7.1c0.4,0.3,1,0.4,1.5,0.6
		c0.7,0.3,1.5,0.5,2.3,0.8c1.3,0.4,2.5,0.9,3.8,1.2c1.4,0.4,2.7,0.8,3.9,1.6c1.1,0.7,1.2,1.1,0.6,2.5c-0.4-0.4-0.7-0.8-1.1-1.2
		c-0.7-0.6-1.3-1.2-2-1.8c-0.2-0.2-0.4-0.3-0.7-0.3c-0.2,0-0.4,0.1-0.5,0.2c-0.1,0.1,0,0.4,0.1,0.6c0.2,0.2,0.5,0.4,0.8,0.6
		c1,1,2.1,2,3,3c0.7,0.8,0.9,1.7,0.5,3c-0.2-0.3-0.4-0.4-0.5-0.6c-1.2-1.8-2.6-3.5-4.2-5c-0.3-0.2-0.5-0.6-0.9-0.4
		c-0.3,0.2-0.2,0.6,0.2,1.1c1,1.1,2.1,2.2,3.2,3.4c0.4,0.4,0.7,0.9,1,1.3c0.4,0.7,0.4,1.3,0.1,2c-0.1,0.3-0.4,0.6-0.8,0.5
		c-0.2-0.1-0.3-0.4-0.3-0.6c0.1-1-0.3-1.8-0.9-2.5c-1-1.3-2-2.7-3-4c-0.2-0.3-0.4-0.8-1-0.6c-0.3,0.1-0.3,0.6,0.1,1.2
		c1,1.4,2,2.7,3,4c0.4,0.5,0.7,0.9,0.7,1.6c0,0.9-0.8,1.6-1.7,1.2c-0.3-0.1-0.7-0.4-0.9-0.7c-0.5-0.8-1-1.6-1.5-2.4
		c-0.8-1.3-1.6-2.6-2.8-3.5c-0.4-0.3-0.9-0.5-1.3-0.7c-0.6-0.2-1-0.1-1.3,0.5c-0.3,0.5-0.4,1-0.7,1.5c-0.2,0.5-0.4,1.1-0.7,1.6
		c-0.3,0.6-0.8,1-1.4,1.1c-1.2,0.3-1.8-0.4-1.5-1.7c0.2-0.6,0.3-1.3,0.5-1.9c0.4-1.3-0.2-2.6-0.6-3.8c-0.1-0.2-0.4-0.4-0.6-0.6
		c-3.3-1.7-6.2-4-8.9-6.5c-0.9-0.8-1.7-1.6-2.6-2.3c-0.6-0.5-0.9-1.1-1-1.8c-0.6-2.8-1.2-5.5-1.9-8.3
		C75.5,100.6,75.4,100.3,75.4,100.1"/>
</g>
<g id="Torso">
	<path class="st0" d="M78.6,114.6c-0.2-0.6-0.3-1.3-0.4-2.2c0,0-0.7-2.6-0.8-3.1c-0.6-2.8-1.2-5.5-1.9-8.3c-0.1-0.3-0.1-0.6-0.1-0.8
		c0,0,0.1,0.1,0.1,0.1c-0.2-0.5-0.5-2.6-0.9-3.3c-0.2-0.3-0.5-0.5-0.9-0.7c-0.4-0.2-0.8-0.2-1.2-0.4c-0.8-0.3-1.9-1-1.9-1
		c-0.4-0.1-1.1-0.9-1.2-1.1c-0.1,0-0.3,0-0.4,0.1c-3.1,0.5-6.1,0.4-9.1-0.1c-0.1,0.2-1.2,1.1-1.2,1.1c-0.9,0.6-1.7,0.9-2.6,1.2
		c-0.6,0.2-1.1,0.4-1.4,0.9c0,0.1-0.1,0.1-0.1,0.2c0.2,0.4-1,4.9-1.2,5.9c-0.5,2.2-1,4.3-1.4,6.5c-0.1,0.3-0.6,2.3-0.7,3
		c-0.2,0.9-0.3,1.5-0.4,2.1c-0.7,2.8-1.3,5.6-2.1,8.4c-0.3,1.1-0.3,1.9,0.8,2.4c0,0,1.6,1.1,1.8,1.2c2.2,1.5,4.8,1.9,7.3,2.4
		c1.8,0.3,3.5,0.6,5.3,0.7c1.3,0.1,2.6-0.1,3.9-0.3c2.4-0.4,4.9-0.9,7.5-1.3c0.5-0.3,2-1.1,2.1-1.1c0.1,0,1.4-0.8,1.5-0.8
		c0.5-0.4,0.6-0.4,0.9-0.8c0,0,1.2-1.1,0.7-2.7C80,120,79.3,117.3,78.6,114.6z M58.8,97.7c0.1-0.6,0.1-1.1,0.2-1.7
		c0.8-0.5,1.5-1.2,2.6-1c0.9,0.2,1.8,0.2,2.7,0.2c1.1,0,2.2,0,3.2-0.2c1.1-0.2,1.9,0.4,2.8,0.9c0.2,0.1,0.3,0.5,0.3,0.8
		c0,1.3,0.1,2.5,0,3.8c-0.2,1.7-0.7,3.4-2.5,4.2c-0.2,0.1-0.4,0.2-0.6,0.2c-1.8,0.4-3.7,0.4-5.5,0c-1.3-0.3-2.3-1.2-2.8-2.5
		c-0.5-1.3-0.5-2.5-0.5-3.8C58.8,98.3,58.8,98,58.8,97.7z M56.3,97.7c0-0.3,0-0.6,0.4-0.7c0.8-0.4,1.1-0.2,1.1,0.7c0,0.7,0,1.3,0,2
		c-0.1,1.1,0.2,2.1,0.5,3.1c0.7,2,2.1,3.1,4,3.3c1.6,0.2,3.2,0.2,4.7,0c2-0.2,3.4-1.4,4.1-3.4c0.4-1.2,0.5-2.4,0.5-3.7
		c0-0.5,0-0.9,0-1.4c0-0.3-0.1-0.7,0.4-0.8c0.6-0.1,1.1,0.2,1.1,0.7c0.1,1.4,0.2,2.8,0.2,4.1l0,0c0,0.7,0,1.4,0,2.1
		c-0.1,2.8-1.4,5-3.9,6c-2.1,0.9-4.4,1.2-6.8,0.7c-1.3-0.3-2.7-0.4-3.9-1.4c-1.6-1.4-2.8-3-2.7-5.3C56.1,101.8,56.2,99.7,56.3,97.7z
		 M51.2,117.9c0.7-2.5,1.4-4.9,1.8-7.4c0.5-2.9,1.2-5.6,1.8-8.5c0-0.1,0.1-0.2,0.2-0.2c0,0.7,0,1.3,0,2c0.1,3.1,1.6,5.5,4.3,6.8
		c1.3,0.6,2.8,0.8,4.2,1c2,0.3,4-0.2,5.9-0.8c2.6-0.8,4.7-4,4.8-6.8c0-0.7,0-1.5,0-2.2c0.1,0,0.2,0,0.3,0c0.6,2.9,1.1,5.7,1.8,8.6
		c0.5,2.4,1.1,4.7,1.7,7.1c0.4,1.8,0.4,2-1.2,2.9c-2.4,1.5-5.1,2.2-7.8,2.5c-1.2,0.2-2.5,0.3-3.7,0.3c-3.1,0-6.3-0.3-9.3-1.2
		c-1.4-0.4-2.8-1.1-4-2C51.2,119.5,50.9,118.9,51.2,117.9z M79.3,124.3c-1.6,1.2-3.4,2.4-5.4,2.8c-2.4,0.5-4.8,0.9-7.1,1.3
		c-2,0.3-4.1,0-6.1-0.3c-1.7-0.3-3.4-0.7-5.2-1c-2-0.4-3.7-1.5-5.3-2.7c-0.3-0.2-0.4-0.5-0.3-0.9c0.3-1,0.5-2,0.8-3.1
		c1,0.6,1.9,1.1,2.8,1.6c2.2,1.2,4.6,1.6,7.1,2c1,0.1,2.1,0.4,3.1,0.4c0.8,0.1,1.7,0,2.5-0.1c0.7-0.1,1.4-0.3,2.1-0.3
		c3.7-0.3,7.2-1.2,10.3-3.5c0.1,0,0.2,0,0.4-0.1c0.3,1,0.6,2.1,0.8,3.1C79.7,123.8,79.5,124.2,79.3,124.3z"/>
	<path class="st7" d="M74.7,101.8c0.6,2.9,1.1,5.7,1.8,8.6c0.5,2.4,1.1,4.7,1.7,7.1c0.4,1.8,0.4,2-1.2,2.9c-2.4,1.5-5.1,2.2-7.8,2.5
		c-1.2,0.2-2.5,0.3-3.7,0.3c-3.1,0-6.3-0.3-9.3-1.2c-1.4-0.4-2.8-1.1-4-2c-0.8-0.5-1.1-1.1-0.8-2.1c0.7-2.5,1.4-4.9,1.8-7.4
		c0.5-2.9,1.2-5.6,1.8-8.5c0-0.1,0.1-0.1,0.2-0.2c0,0.7,0,1.3,0,2c0.1,3.1,1.6,5.5,4.3,6.8c1.3,0.6,2.8,0.8,4.2,1
		c2,0.3,4-0.2,5.9-0.8c2.6-0.8,4.7-4,4.8-6.8c0-0.7,0-1.5,0-2.2C74.5,101.8,74.6,101.8,74.7,101.8"/>
	<path class="st1" d="M78.8,120.5c0.3,1,0.6,2.1,0.8,3.1c0,0.2-0.1,0.6-0.3,0.7c-1.6,1.2-3.4,2.4-5.4,2.8c-2.4,0.5-4.8,0.9-7.1,1.3
		c-2,0.3-4.1,0-6.1-0.3c-1.7-0.3-3.4-0.7-5.2-1c-2-0.4-3.7-1.5-5.3-2.7c-0.3-0.2-0.4-0.5-0.3-0.9c0.3-1,0.5-2,0.8-3.1
		c1,0.6,1.9,1.1,2.8,1.6c2.2,1.2,4.6,1.6,7.1,2c1,0.1,2.1,0.4,3.1,0.4c0.8,0.1,1.7,0,2.5-0.1c0.7-0.1,1.4-0.3,2.1-0.3
		c3.7-0.3,7.2-1.2,10.3-3.5C78.5,120.5,78.6,120.5,78.8,120.5"/>
	<path class="st2" d="M58.8,98.6c0-0.3,0-0.6,0-0.9c0.1-0.6,0.1-1.1,0.2-1.7c0.8-0.4,1.5-1.2,2.6-1c0.9,0.2,1.8,0.2,2.7,0.2
		c1.1,0,2.2,0,3.2-0.2c1.1-0.2,1.9,0.4,2.8,0.9c0.2,0.1,0.3,0.5,0.3,0.8c0,1.3,0.1,2.5,0,3.8c-0.2,1.7-0.7,3.4-2.5,4.2
		c-0.2,0.1-0.4,0.2-0.6,0.2c-1.8,0.4-3.7,0.4-5.5,0c-1.3-0.3-2.3-1.2-2.8-2.5C58.8,101.2,58.8,99.9,58.8,98.6"/>
	<path class="st8" d="M73.4,101.7c0,0.7,0,1.4,0,2.1c-0.1,2.8-1.4,5-3.9,6c-2.1,0.9-4.4,1.2-6.8,0.7c-1.3-0.3-2.7-0.4-3.9-1.4
		c-1.6-1.4-2.8-3-2.7-5.3c0-2.1,0.1-4.2,0.2-6.3c0-0.3,0-0.6,0.4-0.7c0.8-0.4,1.1-0.2,1.1,0.7c0,0.7,0,1.3,0,2
		c-0.1,1.1,0.2,2.1,0.5,3.1c0.7,2,2.1,3.1,4,3.3c1.6,0.2,3.2,0.2,4.7,0c2-0.2,3.4-1.4,4.1-3.4c0.4-1.2,0.5-2.4,0.5-3.7
		c0-0.5,0-0.9,0-1.4c0-0.3-0.1-0.7,0.4-0.8c0.6-0.1,1.1,0.2,1.1,0.7C73.3,98.9,73.3,100.3,73.4,101.7L73.4,101.7z"/>
</g>
<g id="Cabeza">
	<path class="st0" d="M129.3,111.6c-0.3-1.8-0.6-3.6-0.9-5.4c-0.5-3.2-0.9-6.5-1.3-9.7c-0.4-3.2-0.7-6.3-1-9.5
		c-0.1-1.3-0.2-2.7-0.3-4c-0.2-2.9-0.5-5.8-0.6-8.6c-0.2-3.2-0.2-6.4-0.3-9.5c-0.1-1.7-0.2-3.4-0.3-5.1c-0.1-1.2-0.1-2.4-0.3-3.6
		c-0.3-2.4-0.7-4.8-1.2-7.2c-0.8-4.4-1.8-8.8-3.5-12.9c-1.2-3-3-5.6-5.8-7.3c-1.1-0.7-2.3-1.4-3.5-2c-3.2-1.6-6.4-1.6-9.7-0.2
		c-0.4,0.2-0.8,0.4-1.2,0.7c-0.3,0.2-0.5,0.2-0.8-0.1c-0.8-1-2-1.5-3.2-1.9c-2-0.8-3.9-0.5-5.4,1.1c-0.5,0.5-0.8,0.5-1.4,0.2
		c-2.8-1.5-5.8-2.5-9-3c-3.5-0.5-7-1.4-10.6-1.1c-1.1,0.1-2.2,0.2-3.2,0.3c-0.7,0.1-1.4,0.2-2,0c-2.7-0.7-5.4-0.5-8-0.3
		c-2.9,0.3-5.9,1-8.8,1.5c-2.3,0.4-4.3,1.5-6.4,2.5c-0.5,0.2-0.8,0.2-1.2-0.2c-1.1-1-2.3-1.8-3.8-1.5c-1.7,0.3-3.2,0.8-4.5,2
		c-0.7,0.6-0.7,0.6-1.4,0.2c-3.1-1.7-6.3-1.9-9.5-0.6c-1.7,0.7-3.3,1.7-4.8,2.7c-2.2,1.4-3.8,3.4-4.9,5.7c-1.1,2.4-2,4.8-2.6,7.3
		c-1.3,5.5-2.6,11-2.8,16.7c-0.2,3.3-0.5,6.5-0.6,9.8c-0.2,3.1-0.2,6.1-0.3,9.2c-0.1,2.7-0.3,5.3-0.6,8c-0.3,3.1-0.6,6.2-0.9,9.2
		c-0.4,3.6-0.9,7.2-1.4,10.8c-0.3,2.2-0.7,4.3-1,6.4c-0.2,1.5,0.1,2.2,1.5,2.8c1.5,0.8,3.1,1.3,4.8,1.3c1.5,0,1.5,0,1.9-1.4
		c0-0.1,0.1-0.3,0.3-0.5c0,0.6,0,1,0.1,1.4c0.1,0.8,0.4,1.4,1.2,1.6c0.2,0.1,0.5,0.2,0.7,0.3c1.1,0.4,1.4,0.1,1.4-1.1
		c0-0.4,0-0.8,0-1.1c0-0.3,0.1-0.5,0.2-0.9c0.3,0.7,0.5,1.2,0.8,1.8c0.5,1.2,1.3,1.9,2.7,2c2.4,0.2,4.8,0.4,7.1,0.1
		c1.6-0.2,3.2-0.4,4.7-0.8c1.2-0.3,2.2-0.9,3.3-1.4c0.5-0.3,0.9-0.7,0.9-1.4c-0.1-2.7,0.1-5.3-0.3-8c-0.7-4.3-1.5-8.6-1.7-12.9
		c-0.1-1.2-0.1-2.5-0.5-3.7c-0.6-2.1-0.3-4.3-0.7-6.5c-0.1-0.4,0.1-0.6,0.6-0.6c1.5,0.2,3-0.2,4.3-1c0.2,0.5,0.4,1,0.7,1.4
		c0.4,0.8,0.8,1.6,1.3,2.3c1.2,1.7,2.9,2.8,4.7,3.7c3.3,1.7,6.7,2.9,10.2,3.8c2.6,0.7,5.2,1.1,7.9,1.6c0.1,0,0.2,0,0.2,0.1
		c0,0,0,0,0,0c0.2,0,2.8,0.3,3.2,0.4c0.9,0.2,1.8,0.2,2.7,0.2c1.1,0,2.2,0,3.2-0.2c0.3-0.1,2.2-0.2,2.4-0.2c0.3,0,0.9-0.2,1.1-0.2
		c3.8-0.6,7.6-1.3,11.2-2.5c2.9-1,5.7-2,8.3-3.5c2.2-1.2,3.8-2.9,4.8-5.3c0.2-0.5,0.4-1,0.7-1.5c1.3,0.8,2.5,1.1,3.9,1
		c1-0.1,1,0,0.9,1.1c-0.1,0.5-0.1,1.1-0.1,1.6c0,1.3-0.1,2.6-0.4,3.8c-0.2,0.6-0.3,1.3-0.3,2c-0.3,4.4-0.8,8.8-1.6,13.2
		c-0.6,3.2-0.7,6.5-0.7,9.7c0,0.7,0.3,1.2,0.8,1.6c0.4,0.2,0.7,0.4,1.1,0.6c1.2,0.6,2.6,0.9,3.9,1.2c3.7,0.9,7.4,0.9,11.1,0.3
		c0.4-0.1,0.8-0.2,1-0.6c0.3-0.5,0.6-1,0.9-1.5c0.2-0.4,0.4-0.9,0.6-1.4c0.2,0.5,0.3,0.9,0.3,1.4c0,1.9,0.3,2,2.1,1.3
		c0.9-0.3,1.3-0.9,1.3-1.8c0-0.4,0-0.8,0.1-1.3c0.1,0.4,0.2,0.6,0.3,0.9c0.3,1.1,0.4,1.1,1.5,1.1c1.6,0.1,3.1-0.3,4.6-1
		C129.2,114.3,129.7,113.6,129.3,111.6z M104.9,34.5c-0.1-0.1-0.2-0.3-0.2-0.4c0,0,0-0.1,0.1-0.1c1.1,0.7,1.8,1.7,2.3,2.9
		c0.6,1.5,1,3,1.1,4.6c0.1,1.3,0.2,2.6,0.2,3.9c0,1.3-0.1,2.6-0.2,3.9c-0.3,3.6-0.6,7.2-1,10.7c-0.3,2.2-0.8,4.4-1.3,6.6
		c-0.1,0.7-0.3,1.5-0.5,2.2c-0.1,0.5-0.3,0.6-0.8,0.4c-1.1-0.5-1.3-0.1-0.9-1.6c0.9-3.8,1.3-7.6,1.3-11.4c0-2.4,0-4.8,0-7.3
		c0-2.3-0.3-4.5-0.8-6.7c0-0.1,0-0.2,0-0.2c-0.2-0.6-0.6-1.2-0.6-1.8c0.1-0.5,0.8-0.8,1.1-1.3C105.5,37.5,105.7,36,104.9,34.5z
		 M104.1,37.6c-0.3,0.7-0.8,1.2-1.6,1.4c-0.6,0.1-1,0.7-1.6,0.6c-1.4,0-2.3-0.7-2.9-1.6c-0.5-0.8-0.4-1.2,0.3-1.8
		c1-0.7,1.7-1.7,2-2.9c0.2-0.6,0.4-0.7,1-0.5c1.3,0.5,2.3,1.4,2.9,2.7C104.5,36.1,104.4,36.8,104.1,37.6z M93.4,26.1h0.4
		c2.9-0.2,5.7,3,5.3,6.2c-0.3,2.4-2.3,3.5-4.2,3.8c-1.9,0.3-3.8-0.8-4.6-2.6c-0.5-1.1-0.9-2.3-0.9-3.6
		C89.6,27.9,91.5,26.1,93.4,26.1z M40.3,33.8c0.8-1.9,1-3.8,0.5-5.7c-0.2-0.6,0.1-0.7,0.5-0.9c2.6-1.2,5.4-2.1,8.2-2.6
		c1.4-0.2,2.9-0.5,4.3-0.8c3.5-0.5,6.9-0.7,10.3,0.1c0.3,0.1,0.7,0.1,1,0c3.6-0.8,7.2-0.7,10.8,0c2,0.4,4,0.7,6.1,1.1
		c2.2,0.4,4.2,1.4,6.2,2.2c0.4,0.2,0.4,0.5,0.3,0.8c-0.5,1.9-0.3,3.8,0.5,5.6c1.2,2.7,3.6,4.1,6.6,3.6c0.2,0,0.4-0.1,0.6-0.2
		c0.3,0.5,0.4,1.1,0.8,1.5c1,1.2,2.2,2,3.9,1.9c1.3-0.1,1.1-0.3,1.6,1.1c0.3,0.9,0.5,1.9,0.7,2.8c0.2,1.7,0.4,3.4,0.4,5.1
		c0,3.3,0.1,6.5-0.1,9.8c-0.2,2.9-0.7,5.7-1.1,8.6c-0.1,0.5-0.2,0.8-0.8,0.8c-0.8,0.1-1.5,0.3-2.4,0.5c-0.2-0.8-0.3-1.7-0.5-2.5
		c-0.9-3.2-1.7-6.4-2.7-9.5c-0.8-2.6-2.1-5.1-3.7-7.2c-2-2.6-4.4-4.9-7.5-6.4c-1.3-0.6-2.6-1.3-4-1.9c-0.1,0-0.1-0.1-0.2-0.1
		c-3.9-1.5-8-2.6-12.2-2.3c-0.7,0-1.5,0.3-2.3,0.5c-0.2-0.9-0.5-1.7-0.7-2.6c0-0.1,0-0.2,0-0.3c0-0.4-0.2-0.7-0.6-0.6
		c-0.2,0-0.5,0.3-0.5,0.6c-0.2,0.8-0.4,1.5-0.6,2.3c-0.1,0.5-0.3,0.6-0.8,0.4c-1.7-0.6-3.6-0.5-5.3-0.3c-4.1,0.5-8,1.7-11.6,3.7
		c-1.3,0.7-2.6,1.3-3.8,2.2c-3,2.1-5.2,4.9-6.9,8.2c-2.2,4.4-3.4,9.1-4.5,13.8c-0.2,0.7-0.3,1.4-0.4,2c-0.9-0.2-1.7-0.4-2.5-0.5
		c-0.4-0.1-0.6-0.2-0.6-0.6c-0.2-1.4-0.5-2.8-0.7-4.2c-0.6-3.9-0.7-7.7-0.7-11.6c0-3,0.1-6,0.7-9c0.2-0.8,0.5-1.5,0.7-2.3
		c0.1-0.4,0.4-0.5,0.7-0.5c0.1,0,0.3,0,0.4,0c2.6,0,3.9-1,4.8-3.4c0.4,0.1,0.7,0.1,1.1,0.2C36.9,37.6,39.2,36.3,40.3,33.8z
		 M24.4,37.9c0.3,0.7,0.7,1.3,1.4,1.7c0.3,0.2,0.3,0.4,0.2,0.7c-1.2,2.8-1.3,5.8-1.4,8.9c0,2.5,0,4.9,0,7.4c0,3.7,0.5,7.2,1.3,10.8
		c0,0.2,0.1,0.4,0.2,0.6c0.1,0.4,0,0.7-0.4,0.9c-1.2,0.5-1.3,0.5-1.6-0.8c-0.7-3-1.5-6-1.8-9.1c-0.2-2.2-0.4-4.4-0.6-6.6
		c-0.1-1.3-0.2-2.6-0.3-3.9c-0.3-3.1-0.2-6.1,0.3-9.1c0.3-2.2,1.1-4.2,3.1-5.5C24,35.2,23.9,36.6,24.4,37.9z M25.3,35.4
		c0.6-1.3,1.6-2.1,2.9-2.7c0.6-0.3,0.8-0.1,1,0.5c0.3,1.2,1,2.2,2,2.9c0.7,0.5,0.9,1,0.3,1.8c-0.7,1-1.6,1.7-3,1.7
		c-0.4-0.1-0.7-0.3-1.1-0.4c-0.2-0.1-0.4-0.2-0.5-0.3C25.5,38.4,24.7,36.7,25.3,35.4z M30.3,31c0.3-1.9,1.3-3.4,3-4.4
		c0.8-0.4,1.2-0.5,2.4-0.5c2.6,0,4.4,1.9,4.2,4.5c-0.1,1.3-0.5,2.5-1.2,3.5c-1,1.4-2.3,2.2-4,2c-1.3-0.1-2.4-0.6-3.3-1.5
		C30.3,33.6,30,32.3,30.3,31z M28.7,95.1c0.2,2.8,0.7,5.6,1.1,8.5c0.5,3.4,1,6.8,0.9,10.2c0,0.8-0.4,1.3-1,1.6
		c-1.6,0.9-3.5,1.2-5.3,1.5c-1.6,0.3-3.2,0.4-4.7,0.6c-1.5-0.2-2.8-0.3-4.2-0.4c-0.6-0.1-1-0.3-1.3-0.8c-0.5-1.4-1.1-2.7-1.6-4.1
		c-0.1-0.2-0.1-0.5-0.2-0.7c-0.1-0.2-0.4-0.4-0.6-0.3c-0.2,0-0.4,0.3-0.5,0.5c-0.1,1.1-0.2,2.2-0.3,3.2c0,0.3,0,0.5,0,0.8
		c0,0.3,0.2,0.8-0.3,0.8c-0.4,0-0.8-0.1-1-0.6c0-0.2-0.1-0.3-0.1-0.5c-0.1-2-0.2-4-0.3-6c0-0.1,0-0.3,0-0.4c0-0.4-0.1-0.8-0.6-0.8
		c-0.4,0-0.6,0.3-0.6,0.7c-0.2,1-0.4,2.1-0.6,3.1c-0.1,0.8-0.2,1.6-0.3,2.4C7.1,114.9,7,115,6.3,115c-1.6,0.1-3-0.5-4.4-1.2
		c-0.6-0.3-0.8-0.7-0.7-1.4c0.4-2.4,0.8-4.8,1.2-7.2c0.4-3,0.8-6,1.2-8.9c0.3-2.7,0.6-5.3,0.9-8c0.1-1.5,0.2-3,0.3-4.5
		c0.2-3.3,0.5-6.7,0.7-10c0-0.5,0-0.9,0-1.4c0-4.9,0.4-9.8,0.7-14.7c0.4-5.6,1.6-11,3-16.4c0.5-2,1.3-4,2.1-5.9
		c1.1-2.5,2.8-4.6,5.2-5.9c1.5-0.8,2.9-1.8,4.4-2.3c2.7-0.9,5.4-0.8,8,0.6c0.8,0.4,0.7,0.4,0.5,1.2c-0.2,0.7-0.4,1.4-0.6,2.2
		c-0.1,0.4-0.2,0.5-0.6,0.6c-1,0.2-2.1,0.3-3,0.7c-1.7,0.6-2.9,1.9-3.7,3.6c-0.9,1.9-1.3,3.9-1.3,6c-0.1,1.7-0.1,3.4,0,5.1
		c0.4,6.1,0.6,12.2,2,18.2c0.3,1.3,0.6,2.6,0.9,3.9c0.1,0.5,0,0.8-0.3,1.2c-1.6,1.8-2.3,3.9-2,6.2c0.2,1.8,1.2,3.3,2.7,4.3
		c0.9,0.6,2,1.1,3,1.5c0.5,0.2,0.7,0.4,0.7,0.9c0,0.3,0.1,0.6,0.1,0.9C27.5,87.9,28.4,91.4,28.7,95.1z M99.1,81.6
		c-0.3,0-0.6-0.1-0.9-0.2c-1.7-0.5-1.9-0.9-1.3-2.4c0.3-0.9,0.6-1.9,1-2.8c0.9-2.1,2-2.3,4.2-1.5c0.7,0.2,1,0.9,1.3,1.5
		c0.1,0.3,0.2,0.8,0.6,0.6c0.5-0.1,0.4-0.6,0.2-1c-0.3-1-0.9-2-1.9-2.3c-0.8-0.3-1.7-0.4-2.6-0.4c-0.6-0.1-1.2,0.3-1.7,0.7
		c-1.1,1.1-1.6,2.6-2,4c-0.6,1.6-1.1,3.3-1.7,4.9c-0.8,2.2-2.4,3.7-4.4,4.8c-2.4,1.4-5.1,2.4-7.7,3.3c-4.2,1.5-8.7,2.2-13.1,2.8
		c-3.6,0.5-7.1,0.3-10.6-0.3c-1.4-0.2-2.9-0.5-4.3-0.7c-3.9-0.7-7.6-2-11.2-3.5c-1.8-0.8-3.6-1.7-5.2-3c-1.9-1.6-2.7-3.7-3.4-6
		c-0.1-0.4-0.3-0.8-0.4-1.2c-0.4-1.1-0.8-2.1-1.2-3.2c0-0.1,0-0.2-0.1-0.2c-1.3-2.9-3-3.2-5.8-2.1c-1.1,0.4-1.6,1.4-1.7,2.6
		c0,0.2,0.2,0.4,0.3,0.6c0.1-0.1,0.3-0.3,0.4-0.4c0.1-0.1,0.1-0.2,0.2-0.3c0.6-1.7,2.2-1.9,3.7-1.8c0.3,0,0.6,0.3,0.8,0.5
		c0.7,0.6,0.9,1.5,1.2,2.3c0.3,0.9,0.6,1.7,0.8,2.6c0.2,0.7,0,1-0.6,1.2c-0.5,0.2-1,0.5-1.5,0.5c-2.4,0.2-4.6-0.2-6.5-1.8
		c-1.5-1.3-2.4-3-1.7-5.2c0.2-0.7,0.5-1.3,0.7-2c1.1-2.8,5.5-3.3,7.1-1.5c0.1,0.1,0.1,0.2,0.2,0.2c0.2,0.1,0.5,0.2,0.7,0.1
		c0.2-0.1,0.4-0.4,0.3-0.6c-0.2-2.1,0.4-4,0.9-5.9c0.6-2.3,1.3-4.7,2.1-7c0.9-2.5,2-5,3.6-7.1c1.8-2.4,4-4.6,6.8-6
		c1.4-0.6,2.7-1.4,4.1-2c3.9-1.6,7.8-2.7,12.1-2.5c0.8,0,1.7,0.2,2.4,0.7c0.3,0.2,0.6,0.1,0.7-0.2c0.2-0.6,0.4-1.2,0.6-2.1
		c0.2,0.7,0.4,1.2,0.5,1.8c0.1,0.4,0.3,0.8,0.8,0.8c1.3,0.2,2.2,1,2.9,2c2.1,2.9,3.2,6.2,2.8,9.8c-0.1,1.1-0.6,2.1-0.9,3.1
		c-0.4,1.1-0.7,2.3-1.2,3.6c2.3-1.6,3.8-6.4,3.1-10.2c-0.6-3.7-2-7-5.5-9.2c0.4-0.1,0.7-0.2,1-0.2c2.7-0.2,5.3,0.3,7.9,1
		c4.1,1.1,7.9,2.9,11.4,5.5c0.5,0.4,1,0.9,1.5,1.4c0.3,0.3,0.5,0.7,0.8,0.9c1.1,1,1.9,2.1,2.6,3.4c1.2,2.3,2.4,4.5,3,7
		c0.7,2.9,1.6,5.7,2.3,8.6c0.2,0.8,0.2,1.6,0.2,2.4c0,0.3-0.1,0.7,0.3,0.9c0.4,0.2,0.6,0,0.9-0.3c1.8-1.9,6.2-1.1,7.2,1.5
		c0.1,0.4,0.3,0.8,0.4,1.2c1,2.8,0,5.2-2.6,6.7C102.6,81.4,100.9,81.6,99.1,81.6z M127.6,113.8c-1.3,0.7-2.7,1.3-4.3,1.2
		c-0.9,0-0.9-0.1-1.1-1c-0.3-1.6-0.5-3.2-0.8-4.8c0-0.1,0-0.2,0-0.2c-0.1-0.6-0.4-0.9-0.7-0.8c-0.5,0.1-0.5,0.5-0.5,0.9
		c-0.1,2-0.2,4.1-0.3,6.1c0,1-0.1,1-1.4,1.3c0-0.4,0-0.7-0.1-1.1c-0.1-1.2-0.2-2.4-0.3-3.6c0-0.2-0.2-0.4-0.4-0.5
		c-0.3-0.1-0.6,0.1-0.7,0.4c-0.2,0.8-0.5,1.5-0.7,2.3c-0.1,0.4-0.3,0.8-0.4,1.2c-0.5,1.4-1.3,2.1-2.9,2.3c-2.9,0.2-5.8,0.1-8.7-0.5
		c-1.4-0.3-2.8-0.6-4.2-1.2c-0.9-0.4-1.3-0.9-1.3-2c-0.1-3.8,0.5-7.6,1.1-11.3c0.4-2.5,0.7-5.1,0.9-7.6c0.2-2,0.3-4,0.8-6
		c0.1-0.5,0.2-1.1,0.2-1.6c0.1-1.2,0.2-2.4,0.2-3.6c0-0.5,0.2-0.7,0.7-0.9c1-0.4,2-0.8,2.8-1.3c2.1-1.3,3.8-4.2,2.7-7.3
		c-0.4-1.3-0.8-2.7-1.9-3.6c-0.4-0.3-0.3-0.7-0.2-1c0.4-1.9,0.9-3.7,1.3-5.6c0.6-3.2,1.1-6.4,1.2-9.7c0.1-1.5,0.3-3.1,0.4-4.6
		c0.2-3.3,0.3-6.7-0.3-10c-0.2-1.5-0.7-2.9-1.6-4.2c-0.6-1-1.5-1.7-2.4-2.3c-0.3-0.2-0.6-0.4-0.9-0.4c-1,0.1-1.9-0.6-2.9-0.6
		c-0.4,0-0.4-0.3-0.5-0.6c-0.2-0.8-0.4-1.6-0.7-2.4c-0.2-0.5-0.1-0.7,0.3-0.9c1.2-0.6,2.4-1.1,3.7-1.2c2.7-0.2,5.2,0.3,7.4,1.8
		c0.6,0.4,1.1,0.7,1.7,1c2.6,1.6,4.3,3.9,5.5,6.7c1.8,4.4,2.8,9.1,3.7,13.8c0.7,3.6,1,7.2,1.3,10.8c0.3,4,0.4,8.1,0.5,12.2
		c0.1,3.1,0.4,6.3,0.6,9.4c0.1,1.2,0.2,2.3,0.3,3.5c0.3,3.2,0.5,6.3,0.9,9.5c0.4,3.5,0.9,7,1.4,10.4c0.3,2.2,0.7,4.4,1.1,6.6
		C128.3,113,128.1,113.5,127.6,113.8z"/>
	<path class="st2" d="M64.7,38.8c0.2,0.7,0.4,1.2,0.5,1.8c0.1,0.4,0.3,0.8,0.8,0.8c1.3,0.2,2.2,1,2.9,2c2.1,2.9,3.2,6.2,2.8,9.8
		c-0.1,1.1-0.6,2.1-0.9,3.1c-0.4,1.1-0.7,2.3-1.2,3.6c2.3-1.6,3.8-6.4,3.1-10.2c-0.6-3.7-2-7-5.5-9.2c0.4-0.1,0.7-0.2,1-0.2
		c2.7-0.2,5.3,0.3,7.9,1c4.1,1.1,7.9,2.9,11.4,5.5c0.5,0.4,1,0.9,1.5,1.4c0.3,0.3,0.5,0.7,0.8,0.9c1.1,1,1.9,2.1,2.6,3.4
		c1.2,2.3,2.4,4.5,3,7c0.7,2.9,1.6,5.7,2.3,8.6c0.2,0.8,0.2,1.6,0.2,2.4c0,0.3-0.1,0.7,0.3,0.9c0.4,0.2,0.6,0,0.9-0.3
		c1.8-1.9,6.2-1.1,7.2,1.5c0.1,0.4,0.3,0.8,0.5,1.2c1,2.8,0,5.2-2.6,6.7c-1.6,0.9-3.3,1.1-5.1,1.1c-0.3,0-0.6-0.1-0.9-0.2
		c-1.7-0.5-1.9-0.9-1.3-2.4c0.4-0.9,0.6-1.9,1-2.8c0.9-2.1,2-2.3,4.2-1.5c0.7,0.2,1,0.9,1.3,1.5c0.1,0.3,0.2,0.8,0.6,0.6
		c0.5-0.1,0.4-0.6,0.2-1c-0.3-1-0.9-2-1.9-2.3c-0.8-0.3-1.7-0.4-2.6-0.4c-0.6-0.1-1.2,0.3-1.7,0.7c-1.1,1.1-1.6,2.6-2,4
		c-0.6,1.6-1.1,3.3-1.7,4.9c-0.8,2.2-2.4,3.7-4.4,4.8c-2.4,1.4-5.1,2.4-7.7,3.3c-4.2,1.5-8.7,2.2-13.1,2.8
		c-3.6,0.5-7.1,0.3-10.6-0.3c-1.4-0.2-2.9-0.5-4.3-0.7c-3.9-0.7-7.6-2-11.2-3.5c-1.8-0.8-3.6-1.7-5.2-3c-1.9-1.6-2.7-3.7-3.4-6
		c-0.1-0.4-0.3-0.8-0.4-1.2c-0.4-1.1-0.8-2.1-1.2-3.2c0-0.1,0-0.2-0.1-0.2c-1.3-2.9-3-3.2-5.8-2.1c-1.1,0.4-1.6,1.4-1.7,2.6
		c0,0.2,0.2,0.4,0.3,0.6c0.1-0.1,0.3-0.3,0.4-0.4c0.1-0.1,0.1-0.2,0.2-0.3c0.6-1.7,2.2-1.9,3.7-1.8c0.3,0,0.6,0.3,0.8,0.5
		c0.7,0.6,0.9,1.5,1.2,2.3c0.3,0.9,0.6,1.7,0.8,2.6c0.2,0.7,0,1-0.6,1.2c-0.5,0.2-1,0.5-1.5,0.5c-2.4,0.2-4.6-0.2-6.5-1.8
		c-1.5-1.3-2.4-3-1.7-5.2c0.2-0.7,0.5-1.3,0.7-2c1.1-2.8,5.5-3.3,7.1-1.5c0.1,0.1,0.1,0.2,0.2,0.2c0.2,0.1,0.5,0.2,0.7,0.1
		c0.2-0.1,0.4-0.4,0.3-0.6c-0.2-2.1,0.4-4,0.9-5.9c0.6-2.3,1.3-4.7,2.1-7c0.9-2.5,2-5,3.6-7.1c1.8-2.4,4-4.6,6.8-6
		c1.4-0.6,2.7-1.4,4.1-2c3.9-1.6,7.8-2.7,12.1-2.4c0.8,0,1.7,0.2,2.4,0.7c0.3,0.2,0.6,0.1,0.7-0.2C64.3,40.2,64.5,39.6,64.7,38.8
		 M74.6,81.2c0.2,0.2,0.4,0.5,0.6,0.6c0.1,0.1,0.4,0.1,0.6,0c0.1-0.1,0.2-0.4,0.2-0.5c-0.4-1.1-0.9-2.1-1.9-2.7
		c-0.4-0.3-0.8-0.4-1.3-0.1c-0.1,0.1-0.3,0.2-0.3,0.3c0,0.1,0.1,0.3,0.2,0.4c0.1,0.1,0.2,0.1,0.4,0.1c0.7,0.3,0.8,0.4,0.4,1.1
		c-0.9,1.8-2.1,3.2-3.5,4.6c-0.2,0.2-0.6,0.4-0.8,0.5c-1.4,0.8-3,0.8-4.5,0.7c-2.7-0.3-5-1.4-6.4-3.8c-0.5-0.8-0.8-1.6,0.1-2.4
		c0.2-0.2,0.5-0.5,0.2-0.7c-0.2-0.1-0.5-0.1-0.8,0c-0.2,0.1-0.4,0.2-0.6,0.4c-0.9,0.9-1.6,2-1.8,3.2c-0.1,0.3,0,0.7,0.1,1.1
		c0.1,0.4,0.6,0.4,0.8,0c0.2-0.3,0.2-0.6,0.3-0.9c0.1-0.3,0.3-0.5,0.5-0.9c0.2,0.4,0.3,0.7,0.5,0.9c0.8,1.3,1.8,2.4,3.3,3.2
		c1.8,0.9,3.6,1.2,5.6,1.1c2.1-0.1,3.9-0.7,5.3-2.3C72.6,83.8,73.5,82.5,74.6,81.2 M68.8,73.9c0-0.1-0.1-0.2-0.1-0.4
		c-0.6-1-1.3-1.7-2.6-1.7c-0.8,0-1.7,0.1-2.5,0.2c-0.9,0.2-1.8,0.6-2.4,1.3c-0.4,0.4-0.6,0.9-0.8,1.4c0,0.1,0.1,0.3,0.2,0.4
		c0.1,0.1,0.3,0,0.4,0c0.1-0.1,0.2-0.2,0.4-0.4c1-1.1,2.3-1.6,3.8-1.7c0.9-0.1,1.7,0.1,2.3,1c0.1,0.2,0.3,0.4,0.6,0.5
		C68.4,74.6,68.8,74.3,68.8,73.9 M81.5,69.4C81.5,69.4,81.5,69.4,81.5,69.4c0.3,0.1,0.6,0.1,0.9,0c0.1,0,0.3-0.2,0.3-0.3
		c0-0.1-0.1-0.3-0.2-0.4c-0.1-0.1-0.3-0.1-0.5-0.1c-0.8-0.1-0.8-0.1-0.8-0.8c-0.1-0.7-0.2-1.4-0.3-2.1c-0.1-0.5-0.5-0.8-1-0.8
		C79.2,65,79,65.5,79,66c0,1,0,1.9,0.2,2.8c0.1,0.7,0.5,0.9,1.3,0.7C80.9,69.5,81.2,69.4,81.5,69.4 M48.3,68.6
		c-0.4,0-0.7-0.1-0.9-0.1c-0.3,0-0.6,0.1-0.6,0.5c0,0.4,0.3,0.4,0.6,0.5c0.6,0.1,1.2,0.1,1.8,0.2c0.4,0,0.7-0.2,0.9-0.5
		c0.4-1.2,0.5-2.4,0.2-3.6c-0.2-0.7-1.1-0.8-1.4-0.2c-0.3,0.5-0.4,1.1-0.5,1.6C48.2,67.5,48.3,68,48.3,68.6 M45.2,58.4
		c0,0.2-0.1,0.3,0,0.4c0.1,0.2,0.2,0.4,0.3,0.5c0.1,0,0.3-0.1,0.5-0.2c0.1,0,0.1-0.1,0.1-0.2c0.8-1.2,1.8-2.2,3.2-2.7
		c0.7-0.3,0.9-0.6,0.7-1c-0.1-0.3-0.6-0.4-1.2-0.2c-0.1,0-0.2,0.1-0.2,0.1c-1.2,0.6-2.2,1.5-3,2.6C45.3,57.9,45.2,58.2,45.2,58.4
		 M84.3,58.4c-0.1-0.3-0.3-0.8-0.6-1.1c-0.6-0.7-1.3-1.3-2-1.9c-0.3-0.3-0.7-0.4-1.1-0.6c-0.4-0.1-0.8-0.2-1.1,0.2
		c-0.2,0.3,0,0.6,0.6,0.9c0.1,0,0.2,0.1,0.2,0.1c1.2,0.5,2.1,1.4,2.9,2.5c0.1,0.2,0.2,0.4,0.3,0.5c0.1,0.1,0.3,0.2,0.4,0.1
		c0.1,0,0.2-0.2,0.3-0.4C84.3,58.9,84.3,58.8,84.3,58.4"/>
	<path class="st9" d="M72.5,48c2.5-0.3,5.1-0.4,7.6-0.1c3,0.4,5.9,0.8,8.8,1.6c0.6,0.2,1.3,0.3,1.9,0.5c-0.3-0.3-0.5-0.6-0.8-0.9
		c-0.3-0.3-0.5-0.7-0.8-0.9c-0.5-0.5-0.9-1-1.5-1.4c-3.4-2.5-7.2-4.3-11.4-5.4c-2.6-0.7-5.2-1.2-7.9-1c-0.3,0-0.6,0.1-1,0.2
		C70.3,42.4,71.7,45,72.5,48"/>
	<path class="st9" d="M42.7,78.4c-0.3-5.1,0.5-10.3,2.9-14.8c1.2-2.3,2.8-4.4,4.8-6.1c2.3-2.1,4.9-3.6,7.7-4.9
		c3.4-1.7,7.1-3,10.8-3.8c0.8-0.2,1.7-0.3,2.5-0.5c-0.5-1.7-1.3-3.3-2.4-4.8c-0.7-1-1.6-1.9-2.9-2c-0.5-0.1-0.7-0.4-0.8-0.8
		c-0.1-0.5-0.3-1-0.5-1.8c-0.3,0.9-0.4,1.5-0.7,2.1c-0.1,0.3-0.3,0.5-0.7,0.2c-0.7-0.5-1.5-0.7-2.4-0.7c-4.2-0.2-8.2,0.9-12.1,2.5
		c-1.4,0.6-2.7,1.3-4.1,2c-2.8,1.3-5,3.5-6.8,6c-1.6,2.1-2.8,4.6-3.6,7.1c-0.8,2.3-1.4,4.6-2.1,7c-0.5,1.9-1.2,3.9-0.9,5.9
		c0,0.2-0.2,0.5-0.3,0.6c-0.2,0.1-0.4-0.1-0.7-0.1c-0.1,0-0.1-0.1-0.2-0.2c-1.6-1.8-6-1.3-7.1,1.5c-0.3,0.7-0.5,1.3-0.7,2
		c-0.6,2.1,0.2,3.8,1.7,5.2c1.8,1.6,4.1,2,6.5,1.8c0.5,0,1-0.3,1.5-0.5c0.6-0.3,0.7-0.6,0.6-1.2c-0.2-0.9-0.5-1.8-0.8-2.6
		c-0.3-0.8-0.5-1.7-1.2-2.3c-0.2-0.2-0.5-0.5-0.8-0.5c-1.6-0.1-3.1,0.1-3.7,1.8c0,0.1-0.1,0.2-0.2,0.3c-0.1,0.2-0.3,0.3-0.4,0.4
		c-0.1-0.2-0.4-0.4-0.3-0.6c0.1-1.2,0.6-2.2,1.7-2.6c2.8-1.2,4.5-0.8,5.8,2.1c0,0.1,0,0.2,0.1,0.2c0.4,1.1,0.8,2.1,1.2,3.2
		c0.1,0.4,0.3,0.8,0.4,1.2c0.7,2.3,1.5,4.4,3.4,6c1.6,1.3,3.4,2.2,5.2,3c0.6,0.3,1.3,0.5,1.9,0.8C43.7,86.2,42.9,82.3,42.7,78.4
		 M45.2,58.4c0.1-0.2,0.2-0.5,0.3-0.8c0.8-1.1,1.8-2,3-2.6c0.1,0,0.2-0.1,0.2-0.1c0.6-0.2,1.1-0.1,1.2,0.2c0.2,0.4,0,0.7-0.7,1
		c-1.4,0.6-2.4,1.6-3.2,2.7c0,0.1-0.1,0.2-0.1,0.2c-0.2,0.1-0.4,0.3-0.5,0.2c-0.1-0.1-0.2-0.3-0.3-0.5
		C45.1,58.8,45.2,58.7,45.2,58.4"/>
	<path class="st10" d="M19.7,117.5c-1.5-0.2-2.8-0.3-4.2-0.4c-0.6-0.1-1-0.3-1.3-0.8c-0.5-1.4-1.1-2.7-1.6-4.1
		c-0.1-0.2-0.1-0.5-0.2-0.7c-0.1-0.2-0.4-0.4-0.6-0.3c-0.2,0-0.4,0.3-0.5,0.5c-0.1,1.1-0.2,2.2-0.3,3.2c0,0.3,0,0.5,0,0.8
		c0,0.3,0.2,0.8-0.3,0.8c-0.4,0-0.8-0.1-1-0.6c0-0.2-0.1-0.3-0.1-0.5c-0.1-2-0.2-4-0.3-6c0-0.1,0-0.3,0-0.4c0-0.4-0.1-0.8-0.6-0.8
		c-0.4,0-0.6,0.3-0.6,0.7c-0.2,1-0.4,2.1-0.6,3.1c-0.1,0.8-0.2,1.6-0.3,2.4C7.1,114.9,7,115,6.3,115c-1.6,0.1-3-0.5-4.4-1.2
		c-0.6-0.3-0.8-0.7-0.7-1.4c0.4-2.4,0.8-4.8,1.2-7.2c0.4-3,0.8-6,1.2-8.9c0.3-2.7,0.6-5.3,0.9-8c0.2-1.5,0.2-3,0.3-4.5
		c0.2-3.3,0.5-6.7,0.7-10c0-0.5,0-0.9,0-1.4c0-4.9,0.4-9.8,0.7-14.7c0.4-5.6,1.6-11,3-16.4c0.5-2,1.3-4,2.1-5.9
		c1.1-2.5,2.8-4.6,5.2-5.9c1.5-0.8,2.9-1.8,4.4-2.3c2.7-0.9,5.4-0.8,8,0.6c0.8,0.4,0.7,0.4,0.5,1.2c-0.2,0.7-0.4,1.4-0.6,2.2
		c-0.1,0.4-0.2,0.5-0.6,0.6c-1,0.2-2.1,0.3-3,0.7c-1.7,0.6-2.9,1.9-3.7,3.6c-0.9,1.9-1.3,3.9-1.3,6c-0.1,1.7-0.1,3.4,0,5.1
		c0.4,6.1,0.6,12.2,2,18.2c0.3,1.3,0.6,2.6,0.9,3.9c0.1,0.5,0,0.8-0.3,1.2c-1.6,1.8-2.3,3.9-2,6.2c0.2,1.8,1.2,3.3,2.7,4.3
		c0.9,0.6,2,1.1,3,1.5c0.5,0.2,0.7,0.4,0.7,0.9c0,0.3,0.1,0.6,0.1,0.9c0,3.6,1,7.2,1.2,10.8c0.2,2.8,0.7,5.6,1.1,8.4
		c0.5,3.4,1,6.8,0.9,10.2c0,0.8-0.4,1.3-1,1.6c-1.6,0.9-3.5,1.2-5.3,1.5C22.7,117.2,21.1,117.3,19.7,117.5"/>
	<path class="st11" d="M18,112.2c-3.8-9-4.7-18.9-5.7-28.5c-1,8,0.6,16.2-1.3,24.2c-0.1,0.4-0.8,0.4-0.9,0
		c-2.5-6.6-3.5-13.7-3.9-20.7c-0.3-6.6,0-13.3,0.6-19.9C7,64.2,7.4,61.1,7.7,58C8,54.9,8.3,51.8,9,48.7c0.7-3.1,1.7-6.2,3.3-9
		c1.4-2.5,3.2-5,5.4-6.8c3.3-2.6,7.5-2.9,11.6-3c0.1-0.3,0.2-0.7,0.3-1c0.3-0.8,0.3-0.8-0.5-1.2c-2.6-1.3-5.3-1.5-8-0.6
		c-1.6,0.5-3,1.5-4.4,2.3c-2.4,1.4-4.1,3.4-5.2,5.9c-0.8,1.9-1.6,3.9-2.1,5.9c-1.4,5.4-2.6,10.8-3,16.4c-0.4,4.9-0.8,9.8-0.7,14.7
		c0,0.5,0,0.9,0,1.4c-0.2,3.3-0.4,6.7-0.7,10c-0.1,1.5-0.2,3-0.3,4.5c-0.3,2.7-0.6,5.3-0.9,8c-0.4,3-0.8,6-1.2,8.9
		c-0.3,2.4-0.8,4.8-1.2,7.2c-0.1,0.7,0.1,1.2,0.7,1.4c1.4,0.7,2.8,1.3,4.4,1.2c0.7,0,0.8-0.1,0.9-0.8c0.1-0.8,0.2-1.6,0.3-2.4
		c0.2-1,0.4-2.1,0.6-3.1c0.1-0.4,0.2-0.7,0.6-0.7c0.5,0,0.6,0.4,0.6,0.8c0,0.1,0,0.3,0,0.4c0.1,2,0.2,4,0.3,6c0,0.2,0,0.3,0.1,0.5
		c0.2,0.5,0.6,0.6,1,0.6c0.5,0,0.3-0.5,0.3-0.8c0-0.2,0-0.5,0-0.8c0.1-1.1,0.2-2.2,0.3-3.2c0-0.2,0.3-0.5,0.5-0.5
		c0.2,0,0.5,0.2,0.6,0.3c0.1,0.2,0.1,0.5,0.2,0.7c0.5,1.4,1.1,2.7,1.6,4.1c0.2,0.6,0.7,0.8,1.3,0.8c1.3,0.1,2.7,0.3,4.2,0.4
		c0.3,0,0.7-0.1,1-0.1C19.7,115.7,18.8,114,18,112.2"/>
	<path class="st10" d="M118.5,116.4c0-0.4,0-0.7-0.1-1.1c-0.1-1.2-0.2-2.4-0.3-3.6c0-0.2-0.2-0.4-0.4-0.5c-0.3-0.1-0.6,0.1-0.7,0.4
		c-0.2,0.8-0.5,1.5-0.7,2.3c-0.1,0.4-0.3,0.8-0.4,1.2c-0.5,1.4-1.3,2.1-2.9,2.3c-2.9,0.2-5.8,0.1-8.7-0.5c-1.4-0.3-2.8-0.6-4.2-1.2
		c-0.9-0.4-1.3-0.9-1.3-2c-0.1-3.8,0.5-7.6,1.1-11.3c0.4-2.5,0.7-5.1,0.9-7.6c0.2-2,0.3-4,0.8-6c0.1-0.5,0.2-1.1,0.2-1.6
		c0.1-1.2,0.2-2.4,0.2-3.6c0-0.5,0.2-0.7,0.7-0.9c1-0.4,1.9-0.8,2.8-1.3c2.1-1.3,3.8-4.2,2.7-7.3c-0.4-1.3-0.8-2.7-1.9-3.6
		c-0.4-0.3-0.3-0.7-0.2-1c0.4-1.9,0.9-3.7,1.3-5.6c0.6-3.2,1.1-6.4,1.2-9.7c0.1-1.5,0.3-3.1,0.4-4.6c0.2-3.3,0.3-6.7-0.3-10
		c-0.2-1.5-0.7-2.9-1.6-4.2c-0.6-1-1.5-1.7-2.4-2.3c-0.3-0.2-0.6-0.4-0.9-0.4c-1,0.1-1.9-0.6-2.9-0.6c-0.4,0-0.4-0.3-0.5-0.6
		c-0.2-0.8-0.4-1.6-0.7-2.4c-0.2-0.5-0.1-0.7,0.3-0.9c1.2-0.6,2.4-1.1,3.7-1.2c2.7-0.2,5.2,0.3,7.4,1.8c0.6,0.4,1.1,0.7,1.7,1
		c2.6,1.6,4.3,3.9,5.5,6.7c1.8,4.4,2.8,9.1,3.7,13.8c0.7,3.6,1,7.2,1.3,10.8c0.3,4.1,0.4,8.1,0.5,12.2c0.1,3.1,0.4,6.3,0.6,9.4
		c0.1,1.2,0.2,2.3,0.3,3.5c0.3,3.2,0.5,6.3,0.9,9.5c0.4,3.5,0.9,7,1.4,10.4c0.3,2.2,0.7,4.4,1.1,6.6c0.1,0.7-0.1,1.2-0.7,1.5
		c-1.3,0.7-2.7,1.3-4.3,1.2c-0.9,0-0.9-0.1-1.1-1c-0.3-1.6-0.5-3.2-0.8-4.8c0-0.1,0-0.2,0-0.2c-0.1-0.6-0.4-0.9-0.7-0.8
		c-0.5,0.1-0.5,0.5-0.5,0.9c-0.1,2-0.2,4.1-0.3,6.1C119.8,116.1,119.7,116.2,118.5,116.4"/>
	<path class="st10" d="M66,39.8c-0.2-0.9-0.5-1.7-0.7-2.6c0-0.1,0-0.2,0-0.3c0-0.4-0.2-0.7-0.6-0.6c-0.2,0-0.5,0.3-0.5,0.6
		c-0.2,0.8-0.4,1.5-0.6,2.3c-0.1,0.5-0.3,0.6-0.8,0.4c-1.7-0.6-3.6-0.5-5.3-0.3c-4.1,0.5-8,1.7-11.6,3.7c-1.3,0.7-2.6,1.3-3.8,2.2
		c-3,2.1-5.2,4.9-6.9,8.2c-2.2,4.4-3.4,9.1-4.5,13.8c-0.2,0.7-0.3,1.4-0.4,2c-0.9-0.2-1.7-0.4-2.5-0.5c-0.4-0.1-0.6-0.2-0.6-0.6
		c-0.2-1.4-0.5-2.8-0.7-4.2c-0.6-3.9-0.7-7.7-0.7-11.6c0-3,0.1-6,0.7-9c0.2-0.8,0.5-1.5,0.7-2.3c0.1-0.4,0.4-0.5,0.7-0.5
		c0.1,0,0.3,0,0.4,0c2.6,0,3.9-1,4.8-3.4c0.4,0.1,0.7,0.1,1.1,0.2c2.7,0.3,5-1,6.1-3.5c0.8-1.9,1-3.8,0.5-5.7
		c-0.2-0.6,0.1-0.7,0.6-0.9c2.6-1.2,5.4-2.1,8.2-2.6c1.4-0.2,2.9-0.5,4.3-0.8c3.5-0.5,6.9-0.7,10.3,0.1c0.3,0.1,0.7,0.1,1,0
		c3.6-0.8,7.2-0.7,10.8,0c2,0.4,4,0.7,6.1,1.1c2.2,0.4,4.2,1.4,6.2,2.2c0.4,0.2,0.4,0.5,0.3,0.8c-0.5,1.9-0.3,3.8,0.5,5.6
		c1.2,2.7,3.6,4.1,6.6,3.6c0.2,0,0.4-0.1,0.6-0.2c0.3,0.5,0.4,1.1,0.8,1.5c1,1.2,2.2,2,3.9,1.9c1.3-0.1,1.1-0.3,1.6,1.1
		c0.3,0.9,0.5,1.9,0.7,2.8c0.2,1.7,0.4,3.4,0.4,5.1c0,3.3,0.1,6.5-0.1,9.8c-0.2,2.9-0.7,5.7-1.1,8.6c-0.1,0.5-0.2,0.8-0.8,0.8
		c-0.8,0.1-1.5,0.3-2.4,0.5c-0.2-0.8-0.3-1.7-0.5-2.5c-0.9-3.2-1.7-6.4-2.7-9.5c-0.8-2.6-2.1-5.1-3.7-7.2c-2-2.6-4.4-4.9-7.5-6.4
		c-1.3-0.6-2.6-1.3-4-1.9c-0.1,0-0.1-0.1-0.2-0.1c-3.9-1.5-8-2.6-12.2-2.3C67.6,39.4,66.9,39.6,66,39.8"/>
	<path class="st11" d="M77.6,40.6c-0.5-0.2-0.4-1.1,0.2-1c1.7,0.3,3.5,0.7,5.2,1c5.4,1.1,11.1,2.5,15.8,5.4
		c-0.5-0.7-1.1-1.4-1.7-2.1c-4.1-4.4-10-7.2-15.8-8.4c-0.5-0.1-0.6-0.9,0-1c2.7-0.5,5.4-0.2,8.1-0.3l0,0c-6-2.3-12.5-2.9-18.9-3.8
		c-0.5-0.1-0.6-0.7-0.2-1c1.3-0.8,2.8-1.2,4.2-1.4c4.6-0.7,9.3,0,13.9,0.5c0-0.2,0.1-0.4,0.1-0.7c0.1-0.4,0.1-0.7-0.3-0.8
		c-2.1-0.8-4-1.8-6.2-2.2c-2-0.4-4-0.7-6.1-1.1c-3.6-0.7-7.2-0.8-10.8,0c-0.3,0.1-0.7,0.1-1,0c-3.4-0.8-6.9-0.7-10.3-0.1
		c-1.4,0.2-2.9,0.5-4.3,0.8c-2,0.3-4,0.9-5.9,1.6c3.1,0.5,6.2,1.2,9.3,2.2c0.5,0.2,0.4,0.9-0.1,1c-3.9,0.4-7.9,0.6-11.8,1.5
		c-0.1,0.7-0.2,1.4-0.4,2c0,0.2,0,0.3-0.2,0.4c0,0,0,0,0,0c-0.1,0.2-0.1,0.3-0.2,0.5c-0.7,1.7-2,2.8-3.6,3.3
		c-0.8,0.8-1.5,1.7-2.2,2.6c-1.5,2-3.1,4.5-3.2,7.1c3.3-1.9,5.6-5.2,9.2-6.8c0.5-0.2,0.9,0.4,0.6,0.8c-2.2,3.2-4.3,6.4-5.7,10
		c-0.8,2.1-1.4,4.2-1.8,6.4c0.5-1.2,1-2.4,1.6-3.6c1.7-3.3,3.9-6.1,6.9-8.2c1.2-0.8,2.5-1.5,3.8-2.2c3.6-2,7.6-3.2,11.6-3.7
		c1.8-0.2,3.6-0.4,5.3,0.3c0.5,0.2,0.7,0,0.8-0.4c0.2-0.8,0.3-1.6,0.6-2.3c0.1-0.2,0.3-0.5,0.5-0.6c0.4-0.1,0.6,0.2,0.6,0.6
		c0,0.1,0,0.2,0,0.3c0.2,0.8,0.5,1.7,0.7,2.6c0.9-0.2,1.6-0.4,2.3-0.5c3.4-0.2,6.5,0.5,9.7,1.5C77.9,40.7,77.8,40.7,77.6,40.6"/>
	<path class="st12" d="M35.7,26.1c2.6,0,4.4,1.9,4.2,4.5c-0.1,1.3-0.5,2.5-1.2,3.5c-1,1.4-2.3,2.2-4,2c-1.3-0.1-2.4-0.6-3.3-1.5
		c-1-1-1.3-2.3-1-3.6c0.3-1.9,1.3-3.4,3-4.4C34.1,26.2,34.5,26.1,35.7,26.1"/>
	<path class="st12" d="M93.9,26.1c2.9-0.2,5.7,3,5.3,6.2c-0.3,2.4-2.3,3.5-4.2,3.8c-1.9,0.3-3.8-0.8-4.6-2.6
		c-0.5-1.1-0.9-2.3-0.9-3.6c0-2,1.9-3.8,3.9-3.8H93.9z"/>
	<path class="st12" d="M100.9,39.5c-1.4,0-2.3-0.7-3-1.6c-0.5-0.8-0.4-1.2,0.3-1.8c1-0.7,1.7-1.7,2-2.9c0.2-0.6,0.4-0.7,1-0.5
		c1.3,0.5,2.3,1.4,2.9,2.7c0.3,0.7,0.2,1.5-0.1,2.2c-0.3,0.7-0.8,1.2-1.6,1.4C101.9,39.1,101.5,39.7,100.9,39.5"/>
	<path class="st12" d="M28.5,39.6c-0.4-0.1-0.7-0.3-1.1-0.4c-0.2-0.1-0.4-0.2-0.5-0.3c-1.4-0.5-2.2-2.2-1.6-3.5
		c0.6-1.3,1.6-2.1,2.9-2.7c0.6-0.3,0.8-0.1,1,0.5c0.3,1.2,1,2.2,2,2.9c0.7,0.5,0.9,1,0.3,1.8C30.8,38.9,29.9,39.6,28.5,39.6"/>
	<path class="st0" d="M74.6,81.2c-1,1.3-2,2.6-3,3.8c-1.4,1.6-3.2,2.3-5.3,2.3c-2,0.1-3.8-0.2-5.6-1.1c-1.5-0.7-2.5-1.8-3.3-3.2
		c-0.1-0.2-0.3-0.5-0.5-0.9c-0.2,0.4-0.4,0.6-0.5,0.9c-0.1,0.3-0.2,0.6-0.3,0.9c-0.2,0.4-0.6,0.4-0.8,0c-0.1-0.3-0.2-0.7-0.1-1.1
		c0.3-1.2,0.9-2.3,1.8-3.2c0.2-0.2,0.4-0.3,0.6-0.4c0.3-0.1,0.6-0.1,0.8,0c0.3,0.3,0,0.5-0.2,0.7c-0.8,0.8-0.5,1.6-0.1,2.4
		c1.4,2.4,3.7,3.5,6.4,3.8c1.5,0.1,3.1,0.1,4.5-0.7c0.3-0.2,0.6-0.3,0.8-0.5c1.4-1.3,2.6-2.8,3.5-4.6c0.3-0.7,0.3-0.8-0.4-1.1
		c-0.1-0.1-0.3,0-0.4-0.1c-0.1-0.1-0.2-0.3-0.2-0.4c0-0.1,0.2-0.3,0.3-0.3c0.5-0.2,0.9-0.1,1.3,0.1c1,0.7,1.5,1.7,1.9,2.7
		c0.1,0.1,0,0.4-0.2,0.5c-0.1,0.1-0.4,0.1-0.6,0C74.9,81.7,74.8,81.4,74.6,81.2"/>
	<path class="st0" d="M68.8,73.9c0,0.4-0.4,0.7-0.7,0.6c-0.2-0.1-0.4-0.3-0.6-0.5c-0.6-0.8-1.3-1-2.3-1c-1.5,0.1-2.8,0.5-3.8,1.7
		c-0.1,0.1-0.2,0.3-0.4,0.4c-0.1,0.1-0.3,0.1-0.4,0c-0.1-0.1-0.2-0.3-0.2-0.4c0.2-0.5,0.4-1,0.8-1.4c0.6-0.7,1.5-1.1,2.4-1.3
		c0.8-0.1,1.7-0.2,2.5-0.2c1.2,0,2,0.7,2.6,1.7C68.7,73.7,68.8,73.8,68.8,73.9"/>
	<path class="st0" d="M81.5,69.4c-0.3,0.1-0.7,0.1-1,0.2c-0.8,0.2-1.2,0-1.3-0.7C79.1,67.9,79,66.9,79,66c0-0.5,0.2-0.9,0.8-1
		c0.6-0.1,0.9,0.3,1,0.8c0.2,0.7,0.3,1.4,0.3,2.1c0.1,0.7,0,0.7,0.8,0.8c0.2,0,0.3,0,0.5,0.1c0.1,0.1,0.2,0.3,0.2,0.4
		c0,0.1-0.2,0.3-0.3,0.3C82.1,69.5,81.8,69.4,81.5,69.4C81.5,69.4,81.5,69.4,81.5,69.4"/>
	<path class="st0" d="M48.3,68.6c0-0.6-0.1-1.1,0-1.6c0.1-0.6,0.2-1.2,0.5-1.6c0.4-0.7,1.2-0.6,1.4,0.2c0.4,1.2,0.3,2.4-0.2,3.6
		c-0.1,0.4-0.5,0.6-0.9,0.5c-0.6,0-1.2-0.1-1.8-0.2c-0.3,0-0.6-0.1-0.6-0.5c0-0.4,0.3-0.4,0.6-0.5C47.6,68.5,47.9,68.6,48.3,68.6"/>
	<path class="st0" d="M45.2,58.4c0.1-0.2,0.2-0.5,0.3-0.8c0.8-1.1,1.8-2,3-2.6c0.1,0,0.2-0.1,0.2-0.1c0.6-0.2,1.1-0.1,1.2,0.2
		c0.2,0.4,0,0.7-0.7,1c-1.4,0.6-2.4,1.6-3.2,2.7c0,0.1-0.1,0.2-0.1,0.2c-0.2,0.1-0.4,0.3-0.5,0.2c-0.1-0.1-0.2-0.3-0.3-0.5
		C45.1,58.8,45.2,58.7,45.2,58.4"/>
	<path class="st0" d="M84.3,58.4c0,0.3,0,0.4,0,0.5c-0.1,0.1-0.1,0.3-0.3,0.4c-0.1,0-0.3,0-0.4-0.1c-0.1-0.1-0.2-0.3-0.3-0.5
		c-0.8-1-1.7-1.9-2.9-2.5c-0.1,0-0.2-0.1-0.2-0.1c-0.5-0.3-0.8-0.6-0.6-0.9c0.3-0.5,0.7-0.4,1.1-0.2c0.4,0.1,0.8,0.3,1.1,0.6
		c0.7,0.6,1.4,1.2,2,1.9C84,57.7,84.2,58.2,84.3,58.4"/>
	<path class="st8" d="M35.1,30.2c0,1-0.8,1.9-1.9,1.9s-1.9-0.8-1.9-1.9c0-1,0.8-1.9,1.9-1.9S35.1,29.2,35.1,30.2"/>
	<path class="st8" d="M95.4,30c0,1-0.8,1.9-1.9,1.9s-1.9-0.8-1.9-1.9c0-1,0.8-1.9,1.9-1.9S95.4,29,95.4,30"/>
	<g>
		<defs>
			<path id="SVGID_1_" d="M78.9,79.6c0,3.9,3.2,7.1,7.1,7.1c3.9,0,7.1-3.2,7.1-7.1c0-3.9-3.2-7.1-7.1-7.1
				C82.1,72.5,78.9,75.6,78.9,79.6"/>
		</defs>
		<clipPath id="SVGID_2_">
			<use xlink:href="#SVGID_1_"  style="overflow:visible;"/>
		</clipPath>
		<defs>
			<filter id="Adobe_OpacityMaskFilter" filterUnits="userSpaceOnUse" x="78.9" y="72.5" width="14.2" height="14.2">
				<feColorMatrix  type="matrix" values="1 0 0 0 0  0 1 0 0 0  0 0 1 0 0  0 0 0 1 0"/>
			</filter>
		</defs>
		<mask maskUnits="userSpaceOnUse" x="78.9" y="72.5" width="14.2" height="14.2" id="SVGID_3_">
			<g class="st13">
				
					<radialGradient id="SVGID_4_" cx="3.869595e-05" cy="186.386" r="1" gradientTransform="matrix(7.0979 0 0 -7.0979 86.0357 1402.5049)" gradientUnits="userSpaceOnUse">
					<stop  offset="0" style="stop-color:#FFFFFF"/>
					<stop  offset="0.133" style="stop-color:#FBFBFB"/>
					<stop  offset="0.2596" style="stop-color:#F0F0F0"/>
					<stop  offset="0.3835" style="stop-color:#DDDDDD"/>
					<stop  offset="0.5059" style="stop-color:#C2C2C2"/>
					<stop  offset="0.6273" style="stop-color:#9F9F9F"/>
					<stop  offset="0.7478" style="stop-color:#747474"/>
					<stop  offset="0.8676" style="stop-color:#414141"/>
					<stop  offset="0.9841" style="stop-color:#080808"/>
					<stop  offset="1" style="stop-color:#000000"/>
				</radialGradient>
				<rect x="78.9" y="72.5" class="st14" width="14.2" height="14.2"/>
			</g>
		</mask>
		
			<radialGradient id="SVGID_5_" cx="3.869595e-05" cy="186.386" r="1" gradientTransform="matrix(7.0979 0 0 -7.0979 86.0357 1402.5049)" gradientUnits="userSpaceOnUse">
			<stop  offset="0" style="stop-color:#D68B73"/>
			<stop  offset="0.3594" style="stop-color:#D68F74"/>
			<stop  offset="0.7004" style="stop-color:#D69A76"/>
			<stop  offset="1" style="stop-color:#D6AB79"/>
		</radialGradient>
		<rect x="78.9" y="72.5" class="st15" width="14.2" height="14.2"/>
	</g>
	<g>
		<defs>
			<path id="SVGID_6_" d="M39.7,79.6c0,3.9,3.2,7.1,7.1,7.1c3.9,0,7.1-3.2,7.1-7.1c0-3.9-3.2-7.1-7.1-7.1
				C42.8,72.5,39.7,75.6,39.7,79.6"/>
		</defs>
		<clipPath id="SVGID_7_">
			<use xlink:href="#SVGID_6_"  style="overflow:visible;"/>
		</clipPath>
		<defs>
			<filter id="Adobe_OpacityMaskFilter_1_" filterUnits="userSpaceOnUse" x="39.7" y="72.5" width="14.2" height="14.2">
				<feColorMatrix  type="matrix" values="1 0 0 0 0  0 1 0 0 0  0 0 1 0 0  0 0 0 1 0"/>
			</filter>
		</defs>
		<mask maskUnits="userSpaceOnUse" x="39.7" y="72.5" width="14.2" height="14.2" id="SVGID_8_">
			<g class="st16">
				
					<radialGradient id="SVGID_9_" cx="4.729505e-05" cy="186.386" r="1" gradientTransform="matrix(7.0979 0 0 -7.0979 46.7587 1402.5049)" gradientUnits="userSpaceOnUse">
					<stop  offset="0" style="stop-color:#FFFFFF"/>
					<stop  offset="0.133" style="stop-color:#FBFBFB"/>
					<stop  offset="0.2596" style="stop-color:#F0F0F0"/>
					<stop  offset="0.3835" style="stop-color:#DDDDDD"/>
					<stop  offset="0.5059" style="stop-color:#C2C2C2"/>
					<stop  offset="0.6273" style="stop-color:#9F9F9F"/>
					<stop  offset="0.7478" style="stop-color:#747474"/>
					<stop  offset="0.8676" style="stop-color:#414141"/>
					<stop  offset="0.9841" style="stop-color:#080808"/>
					<stop  offset="1" style="stop-color:#000000"/>
				</radialGradient>
				<rect x="39.7" y="72.5" class="st17" width="14.2" height="14.2"/>
			</g>
		</mask>
		
			<radialGradient id="SVGID_10_" cx="4.729505e-05" cy="186.386" r="1" gradientTransform="matrix(7.0979 0 0 -7.0979 46.7587 1402.5049)" gradientUnits="userSpaceOnUse">
			<stop  offset="0" style="stop-color:#D68B73"/>
			<stop  offset="0.3594" style="stop-color:#D68F74"/>
			<stop  offset="0.7004" style="stop-color:#D69A76"/>
			<stop  offset="1" style="stop-color:#D6AB79"/>
		</radialGradient>
		<rect x="39.7" y="72.5" class="st18" width="14.2" height="14.2"/>
	</g>
</g>
</svg>
