<?xml version="1.0" encoding="utf-8"?>
<!-- Generator: Adobe Illustrator 23.0.1, SVG Export Plug-In . SVG Version: 6.00 Build 0)  -->
<svg version="1.1" xmlns="http://www.w3.org/2000/svg" xmlns:xlink="http://www.w3.org/1999/xlink" x="0px" y="0px"
	 viewBox="0 0 81.8 212.3" style="enable-background:new 0 0 81.8 212.3;" xml:space="preserve">
<style type="text/css">
	.st0{fill:#524632;}
	.st1{fill:#F32654;}
	.st2{fill:#A182FF;}
	.st3{fill:#D1A173;}
	.st4{fill:#FFFFFF;}
	.st5{fill:#F3E054;}
	.st6{fill:#8CBE54;}
	.st7{fill:#C58859;}
	.st8{fill:#2D2B11;}
	.st9{filter:url(#Adobe_OpacityMaskFilter);}
	.st10{clip-path:url(#SVGID_2_);fill:url(#SVGID_4_);}
	.st11{clip-path:url(#SVGID_2_);mask:url(#SVGID_3_);fill:url(#SVGID_5_);}
	.st12{filter:url(#Adobe_OpacityMaskFilter_1_);}
	.st13{clip-path:url(#SVGID_7_);fill:url(#SVGID_9_);}
	.st14{clip-path:url(#SVGID_7_);mask:url(#SVGID_8_);fill:url(#SVGID_10_);}
</style>
<g id="PiernaIzq">
	<path class="st0" d="M66,204.6c-0.3-2.1-0.9-4-2.1-5.8c-0.4-0.6-0.8-1.1-1.1-1.7c-1.5-2.4-3.6-4.2-6.2-5.3
		c-0.8-0.3-0.7-0.4-0.6-1.2c0.3-1.7,0.3-3.4-0.1-5.1c-0.2-0.8-0.6-1.6-1.4-2c-0.7-0.3-0.7-0.8-0.7-1.4c0-2.9-0.1-5.8-0.2-8.7
		c0-0.2,0-0.4,0.1-0.5c-0.5-0.3-0.5-1-0.3-1.4c-0.7,0.1-1.3,0.1-2,0.2c-1.8,0-3.6,0-5.5,0c0.2,0.4,0.2,0.9-0.1,1.3
		c0,2.2-0.1,4.5-0.1,6.7c0,0.6-0.1,1.3-0.1,1.9c0,0.3-0.2,0.5-0.5,0.6c-0.2,0.1-0.4,0.1-0.6,0.2c-1.7,0.5-2.3,1.7-2.3,3.3
		c0,1.1,0,2.2,0.1,3.3c0,0.5,0,0.9-0.4,1.3c-0.4,0.4-0.8,1-1.2,1.5c0,0,0,0,0,0c-0.2,0.5-0.7,1.9-0.7,2.3c0.1,2.1,0,4.2,0.1,6.2
		c0,0.1,0,0.2,0,0.3c0,0.1,0,0.1,0,0.2c0,0.5,0,1,0,1.4c0,0,0,0,0,0c0,1.1,0,2.1,0,3c0.2,0.2,0.6,1.4,0.8,1.8
		c0.1,0.2,0.6,0.7,0.8,0.8c0.9,0.6,1.8,1.2,2.7,1.8c3,2.1,6.3,3.1,9.9,2.8c1-0.1,2.1-0.2,3.1-0.3c2.6-0.5,5.1-1.4,7-3.4
		C65.7,207.4,66.3,206.1,66,204.6z M56.3,192.6c0.9,0.6,1.9,1.2,2.8,1.8c0.5,0.3,0.7,0.8,0.5,1.4c-0.3,1.4-1.4,2.2-2.5,2.7
		c-1.6,0.7-3.2,0.8-4.9,0.3c-0.3-0.1-0.7-0.3-0.9-0.5c-1.4-1.1-2.3-2.7-3.4-4.3c0.5,0,0.8-0.1,1.1-0.1c2,0,3.9-0.3,5.6-1.4
		C55.2,192.2,55.7,192.2,56.3,192.6z M46.6,183.3c0.1-2.8,0.2-5.7,0.3-8.5c0-0.1,0-0.2,0-0.2c0.1-1.9,0.1-1.9,2-1.9c1,0,2,0,3,0
		c0.8,0,0.9,0,0.9,0.9c0,1.7,0,3.3,0,5h0c0,1.6,0,3.1,0,4.7c0,0.6-0.1,1.1-0.2,1.7c-0.1,0.7-0.6,1.2-1.2,1.3c-1.3,0.3-2.7,0.4-4-0.2
		c-0.5-0.2-0.8-0.6-0.8-1.2C46.6,184.3,46.6,183.8,46.6,183.3z M43.5,185.1c0.1-1.1,0.8-1.7,2-1.8c0.3,0.5,0.2,1.1,0.1,1.6
		c-0.1,1,0.4,1.6,1.2,2c1.6,0.8,3.3,0.7,4.9,0.3c0.9-0.2,1.7-0.9,1.8-2c0-0.3,0.1-0.6,0.2-1.1c0.7,0.4,1.1,0.9,1.2,1.6
		c0.4,1.5,0.3,3,0.2,4.5c-0.1,0.7-0.5,1.2-1.2,1.7c-2.1,1.3-4.4,1.3-6.6,1.1c-1.9-0.2-3.1-1.5-3.6-3.2
		C43.2,188.2,43.4,186.6,43.5,185.1z M41.6,193.7c0-1,0.6-2,1.3-2.9c0.4,0.4,0.7,0.9,1.1,1.3c0.5,0.7,1.2,1.2,2,1.5
		c0.4,0.2,0.6,0.4,0.9,0.7c0.8,1.1,1.6,2.3,2.5,3.4c0.3,0.4,0.7,0.8,1.1,1.1c0.5,0.4,1,0.7,1.5,0.9c2.4,0.9,5.9,0,7.6-1.9
		c0.5-0.6,0.7-1,1-2.3c1.3,1.7,2.5,3.3,3.4,5.2c-2.9,0.3-5.1,1.6-7,3.6c-0.5,0.5-1,1.2-1.3,1.8c-0.3,0.7-0.8,1-1.5,0.9
		c-1.1-0.2-2.1-0.3-3.1-0.7c-1.1-0.4-2.1-0.8-3-1.4c-2.1-1.2-4.1-2.6-6-4.1c-0.3-0.2-0.4-0.4-0.4-0.7
		C41.5,198.1,41.5,195.9,41.6,193.7z M63.6,207.9c-1.3,1.3-3,2-4.7,2.5c-2,0.6-4.2,0.8-6.3,0.7c-2.2-0.1-4.2-0.8-6.1-1.8
		c-1.5-0.8-2.8-1.8-4.2-2.8c-0.5-0.4-0.8-0.8-0.8-1.5c0.1-0.9,0-1.8,0-2.9c0.7,0.5,1.4,1,2,1.4c2,1.5,4.1,2.7,6.3,3.7
		c1.4,0.6,2.9,1,4.5,1.1c1,0,1.7-0.3,2.1-1.2c0.6-1.7,2-2.8,3.5-3.7c0.8-0.5,1.7-0.8,2.6-1.2c0.2-0.1,0.5-0.1,0.8-0.2
		c0.8,0,1.1,0.1,1.3,0.9c0.1,0.5,0.2,1,0.3,1.5C65.3,205.9,64.6,206.9,63.6,207.9z"/>
	<path class="st1" d="M60.5,195.6c1.3,1.7,2.5,3.3,3.4,5.2c-2.8,0.3-5.1,1.6-7,3.6c-0.5,0.5-1,1.2-1.3,1.8c-0.3,0.7-0.8,1-1.5,0.9
		c-1.1-0.2-2.1-0.3-3.1-0.7c-1.1-0.4-2.1-0.8-3-1.4c-2.1-1.2-4.1-2.6-6-4.1c-0.3-0.2-0.4-0.4-0.4-0.7c0-2.2,0-4.4,0.1-6.6
		c0-1,0.6-2,1.3-2.9c0.4,0.4,0.7,0.9,1.1,1.3c0.5,0.7,1.2,1.2,2,1.5c0.4,0.2,0.6,0.4,0.9,0.7c0.8,1.1,1.6,2.3,2.5,3.4
		c0.3,0.4,0.7,0.8,1.1,1.1c0.5,0.4,1,0.7,1.5,0.9c2.4,0.9,5.9,0,7.6-1.9C60,197.3,60.2,196.9,60.5,195.6"/>
	<path class="st2" d="M41.5,202.1c0.7,0.5,1.4,1,2,1.4c2,1.5,4.1,2.7,6.3,3.7c1.4,0.6,2.9,1,4.5,1.1c1,0,1.7-0.3,2.1-1.2
		c0.6-1.7,2-2.8,3.5-3.7c0.8-0.5,1.7-0.8,2.6-1.2c0.2-0.1,0.5-0.1,0.8-0.2c0.8,0,1.1,0.1,1.3,0.9c0.1,0.5,0.2,1,0.3,1.5
		c0.4,1.5-0.3,2.5-1.2,3.5c-1.3,1.3-3,2-4.7,2.5c-2,0.6-4.2,0.8-6.3,0.7c-2.2-0.1-4.2-0.8-6.1-1.8c-1.5-0.8-2.8-1.8-4.2-2.8
		c-0.5-0.4-0.8-0.8-0.8-1.5C41.6,204.1,41.5,203.2,41.5,202.1"/>
	<path class="st3" d="M52.8,178.6c0,1.6,0,3.1,0,4.7c0,0.6-0.1,1.1-0.2,1.7c-0.1,0.7-0.6,1.2-1.2,1.3c-1.3,0.3-2.7,0.4-4-0.2
		c-0.5-0.2-0.8-0.6-0.8-1.2c0-0.5,0-1,0-1.6c0.1-2.8,0.2-5.7,0.3-8.5c0-0.1,0-0.2,0-0.2c0.1-1.9,0.1-1.9,2-1.9c1,0,2,0,3,0
		c0.8,0,0.9,0,0.9,0.9C52.8,175.2,52.8,176.9,52.8,178.6L52.8,178.6z"/>
	<path class="st4" d="M53.7,184.1c0.7,0.4,1.1,0.9,1.2,1.6c0.4,1.5,0.3,3,0.2,4.5c-0.1,0.7-0.5,1.2-1.2,1.7
		c-2.1,1.3-4.4,1.3-6.6,1.1c-1.9-0.2-3.1-1.5-3.6-3.2c-0.5-1.5-0.3-3.1-0.2-4.6c0.1-1.1,0.8-1.7,2-1.8c0.3,0.5,0.2,1.1,0.1,1.6
		c-0.1,1,0.4,1.6,1.2,2c1.6,0.8,3.3,0.7,4.9,0.3c0.9-0.2,1.7-0.9,1.8-2C53.6,184.9,53.6,184.6,53.7,184.1"/>
	<path class="st4" d="M47.9,194.1c0.5,0,0.8-0.1,1.1-0.1c2,0,3.9-0.3,5.6-1.4c0.6-0.4,1.2-0.4,1.8,0c0.9,0.6,1.9,1.2,2.8,1.8
		c0.5,0.3,0.7,0.8,0.5,1.4c-0.3,1.4-1.4,2.2-2.5,2.7c-1.6,0.7-3.2,0.8-4.9,0.3c-0.3-0.1-0.7-0.3-0.9-0.5
		C49.9,197.2,49,195.7,47.9,194.1"/>
</g>
<g id="PiernaDer">
	<path class="st0" d="M41.5,202.2c-0.1-0.2,0-1.7,0-1.9c0-2.2,0-4.4,0.1-6.6c0-0.4-0.5-1.7-0.6-2c-0.1-0.1-0.2-0.1-0.2-0.2
		c-0.5-0.6-1.2-1.2-1.4-1.9c-0.2-0.7,0.1-1.5,0.1-2.2c0-0.6,0-1.3,0-1.9c0-1.5-0.6-2.7-2.2-3.2c-0.2-0.1-0.4-0.2-0.7-0.2
		c-0.4-0.1-0.5-0.3-0.5-0.7c0-0.5,0-1,0-1.4c-0.1-2.4-0.2-4.8-0.2-7.2c0,0-0.3-0.8-0.2-1.2c0,0-4.6,0-7-0.1c0,0-0.2,0.6-0.5,0.8
		c0,0.2-0.1,0.8-0.1,1.5c0,0.4,0,0.7,0,1.1c0,2.5,0,5,0,7.5c0,0.5-0.1,0.7-0.5,0.9c-0.9,0.4-1.4,1.2-1.6,2.1
		c-0.4,1.7-0.3,3.4-0.1,5.1c0.1,0.9,0.2,0.9-0.6,1.2c-2.5,1.1-4.5,2.8-6,5.1c-0.3,0.5-0.7,1-1,1.5c-1.2,1.7-1.8,3.5-2.2,5.5
		c-0.3,1.5-0.2,3.1,1,4.3c1.2,1.2,2.4,2.2,4,2.8c1.6,0.6,3.3,0.9,5,1.2c3.8,0.5,7.4-0.2,10.7-2.3c1.1-0.7,2.2-1.4,3.3-2.2
		c0.4-0.3,1.6-2.3,1.6-2.7C41.6,204.1,41.5,203.2,41.5,202.2z M29.1,173.4c0-0.5,0.2-0.7,0.7-0.7c1.4,0,2.9,0,4.3,0
		c0.5,0,0.6,0.2,0.7,0.7c0,0.3,0.1,0.6,0.1,0.8c0.1,2.5,0.1,4.9,0.2,7.4c0,1,0.1,2.1,0.2,3.1c0.1,0.7-0.3,1.1-0.9,1.4
		c-1.3,0.6-2.7,0.5-4,0.2c-0.6-0.1-1.1-0.6-1.1-1.3c-0.1-1.3-0.3-2.5-0.4-3.8c-0.1-0.8,0-1.5,0-2.3c0,0,0,0-0.1,0
		C28.9,177.1,29,175.2,29.1,173.4z M26.9,185.5c0.2-0.5,0.5-1,1.2-1.3c0.1,0.4,0.2,0.6,0.2,0.9c0.3,1.4,1,2.1,2.4,2.3
		c1.4,0.2,2.9,0.3,4.2-0.4c0.9-0.5,1.5-1.1,1.4-2.2c0-0.5,0-0.9,0-1.4c1.6,0.3,2,0.6,2.1,1.9c0.1,1.5,0.2,3-0.2,4.4
		c-0.4,1.7-2.1,3.3-3.8,3.4c-1.2,0.1-2.5-0.1-3.7-0.1c-1.2-0.1-2.2-0.7-3.2-1.3c-0.3-0.2-0.6-0.6-0.7-0.9
		C26.3,188.9,26.4,187.2,26.9,185.5z M22.9,194.3c1-0.7,2-1.3,3-1.9c0.4-0.3,0.7-0.1,1.1,0.1c1.1,0.6,2.2,1.2,3.4,1.3
		c0.8,0.1,1.5,0.1,2.3,0.2c0.4,0,0.7,0,1.2,0.1c-0.8,1.4-1.7,2.6-2.7,3.7c-0.7,0.8-1.6,1.2-2.6,1.3c-2,0.2-3.8,0-5.3-1.5
		c-0.4-0.4-0.7-0.8-0.9-1.2C21.9,195.5,22,194.9,22.9,194.3z M39.8,206.3c-2.1,1.5-4.1,3-6.5,4c-2.5,1-5.1,1-7.8,0.7
		c-1.5-0.2-2.9-0.6-4.3-1.1c-1.4-0.5-2.4-1.3-3.4-2.3c-0.7-0.7-1.1-1.6-0.9-2.6c0.1-0.7,0.3-1.5,0.5-2.2c0.1-0.5,0.4-0.8,0.9-0.7
		c0.4,0,0.9,0.1,1.3,0.2c1.9,0.8,3.6,1.7,4.9,3.3c0.3,0.4,0.7,0.9,0.9,1.4c0.4,1.1,1.2,1.5,2.3,1.4c1.6-0.1,3.1-0.5,4.5-1.2
		c2.5-1.1,4.7-2.5,6.9-4.1c0.4-0.3,0.8-0.6,1.3-0.9c0,1.2,0,2.2,0,3.2C40.3,205.8,40.1,206,39.8,206.3z M40.3,200.3
		c0,0.3-0.1,0.5-0.4,0.8c-1.8,1.4-3.6,2.7-5.6,3.9c-1.6,0.9-3.3,1.8-5.2,2.1c-0.3,0.1-0.5,0.1-0.8,0.1c-1.5,0.1-1.5,0.1-2.2-1.2
		c-0.8-1.5-2.1-2.5-3.4-3.4c-0.9-0.6-1.8-1-2.8-1.3c-0.5-0.2-1.2-0.2-1.9-0.4c0.9-1.8,2-3.4,3.4-5.1c0.3,1.7,1.4,2.7,2.6,3.5
		c1.6,1.1,3.5,0.8,5.2,0.7c1.3-0.1,2.3-0.9,3.1-1.9c0.9-1.2,1.8-2.4,2.6-3.6c0.3-0.4,0.6-0.7,1-0.9c1.3-0.5,2.1-1.6,2.9-2.7
		c0.9,0.9,1.3,2,1.4,3.2C40.4,196.1,40.3,198.2,40.3,200.3z"/>
	<path class="st1" d="M18,200.8c0.9-1.8,2-3.4,3.4-5.1c0.3,1.7,1.4,2.7,2.6,3.5c1.6,1.1,3.5,0.8,5.2,0.7c1.3-0.1,2.3-0.9,3.1-1.9
		c0.9-1.2,1.8-2.4,2.6-3.6c0.3-0.4,0.5-0.7,1-0.9c1.3-0.5,2.1-1.6,2.9-2.7c0.9,0.9,1.3,2,1.4,3.2c0.1,2.1,0,4.2,0.1,6.2
		c0,0.3-0.1,0.5-0.4,0.8c-1.8,1.4-3.6,2.7-5.6,3.9c-1.6,0.9-3.3,1.8-5.2,2.1c-0.3,0.1-0.5,0.1-0.8,0.1c-1.5,0.1-1.5,0.1-2.2-1.2
		c-0.8-1.5-2.1-2.5-3.4-3.4c-0.9-0.6-1.8-1-2.8-1.3C19.3,201,18.7,201,18,200.8"/>
	<path class="st2" d="M40.3,202.1c0,1.2,0,2.2,0,3.2c0,0.4-0.2,0.7-0.5,0.9c-2.1,1.5-4.1,3-6.5,4c-2.5,1-5.1,1-7.8,0.7
		c-1.5-0.2-2.9-0.6-4.3-1.1c-1.4-0.5-2.4-1.3-3.4-2.3c-0.7-0.7-1.1-1.6-0.9-2.6c0.1-0.7,0.3-1.5,0.5-2.2c0.1-0.5,0.4-0.8,0.9-0.7
		c0.4,0,0.9,0.1,1.3,0.2c1.9,0.8,3.6,1.7,4.9,3.3c0.3,0.4,0.7,0.9,0.9,1.4c0.4,1.1,1.2,1.5,2.3,1.4c1.6-0.1,3.1-0.5,4.5-1.2
		c2.5-1.1,4.7-2.5,6.9-4.1C39.4,202.7,39.8,202.5,40.3,202.1"/>
	<path class="st3" d="M28.8,178.9c0.1-1.8,0.2-3.7,0.2-5.5c0-0.5,0.2-0.7,0.7-0.7c1.4,0,2.9,0,4.3,0c0.5,0,0.6,0.2,0.7,0.7
		c0,0.3,0.1,0.6,0.1,0.8c0.1,2.5,0.1,4.9,0.2,7.4c0,1,0.1,2.1,0.2,3.1c0.1,0.7-0.3,1.1-0.9,1.4c-1.3,0.6-2.7,0.5-4,0.2
		c-0.6-0.1-1-0.6-1.1-1.3c-0.1-1.3-0.3-2.5-0.4-3.8C28.9,180.4,28.9,179.6,28.8,178.9C28.9,178.9,28.9,178.9,28.8,178.9"/>
	<path class="st4" d="M28.1,184.2c0.1,0.4,0.2,0.6,0.2,0.9c0.3,1.4,1,2.1,2.4,2.3c1.4,0.2,2.9,0.3,4.2-0.4c0.9-0.5,1.5-1.1,1.4-2.2
		c0-0.5,0-0.9,0-1.4c1.6,0.3,2,0.6,2.1,1.9c0.1,1.5,0.2,3-0.2,4.4c-0.4,1.7-2.1,3.3-3.8,3.4c-1.2,0.1-2.5-0.1-3.7-0.1
		c-1.2-0.1-2.2-0.7-3.2-1.3c-0.3-0.2-0.6-0.6-0.7-0.9c-0.5-1.7-0.4-3.5,0.1-5.2C27.1,184.9,27.4,184.5,28.1,184.2"/>
	<path class="st4" d="M33.9,194.1c-0.8,1.4-1.7,2.6-2.7,3.7c-0.7,0.8-1.6,1.2-2.6,1.3c-2,0.2-3.8,0-5.3-1.5
		c-0.4-0.4-0.7-0.8-0.9-1.2c-0.5-0.9-0.3-1.5,0.5-2.1c1-0.7,2-1.3,3-1.9c0.4-0.3,0.7-0.1,1.1,0.1c1.1,0.6,2.2,1.2,3.4,1.3
		c0.8,0.1,1.5,0.1,2.3,0.2C33.1,194,33.4,194,33.9,194.1"/>
</g>
<g id="Short">
	<path class="st0" d="M23.3,171.4c1.3,0.3,2.5,0.7,3.8,1.1c0.8,0.2,2.4,0.3,2.8,0.3c1.4,0,2.9,0,4.3,0c0.4,0,1.7,0.2,1.7,0.1
		c0.9-0.2,1.7-0.3,2.6-0.5c0.1,0,0.2-0.1,0.3-0.1c1-0.3,2.1-0.5,2.1-2c0.2,1.2,1,1.7,2,1.9c1,0.2,2.1,0.4,3.1,0.7
		c0,0.1,1.8-0.2,2.9-0.2c1,0,2,0,3,0c0.6,0,2.1-0.1,2.4-0.2c1.4-0.3,2.8-0.8,4.2-1.1c0.9-0.2,1.3-0.8,1.4-1.6c0.1-0.7,0.2-1.4,0.2-2
		c-0.1-3.8-0.2-7.7-0.4-11.5c-0.1-2.2-0.3-4.3-0.5-6.4c0-0.2-0.3-2.2-0.3-2.5c-0.1-0.4-0.3-2.2-0.4-2.7c0,0,0,0,0,0
		c-0.1-0.4-0.1-0.5-0.2-0.6c-0.1-0.3-0.2-0.5-0.2-0.7c-0.2-0.5-0.7-1.1-0.7-1.5c-1.3,0.5-2.5,1.2-3.8,1.6c-1.8,0.6-3.6,0.9-5.5,1.3
		c-0.5,0.1-1,0.1-1.5,0.3c-2.3,0.9-4.6,0.7-7,0.7c-1.2,0-2.4-0.1-3.5-0.5c-0.3-0.1-0.6-0.2-0.9-0.2c-1.9-0.4-3.8-0.7-5.6-1.3
		c-1.6-0.5-3.2-1.3-4.8-1.9c-0.1,0.3-0.2,0.6-0.3,0.8c-0.1,0.2-0.3,0.5-0.4,0.8c0,0.1-0.1,0.2-0.1,0.4c0,0.1-0.1,0.3-0.1,0.5
		c0,0,0,0.1,0,0.1c-0.1,0.7-0.2,1.4-0.4,2.1c0,0.1-0.3,1.9-0.3,2.6c0,0,0,0,0,0c0,0.1-0.1,0.7-0.2,1c0,0.3,0,0.6-0.1,0.8
		c-0.2,3.5-0.5,7.1-0.7,10.6c0,0.4,0,0.9-0.1,1.3c0,1.9-0.1,3.8-0.1,5.8c0,0.5,0.1,0.9,0.2,1.4C22.2,170.7,22.6,171.2,23.3,171.4z
		 M58.8,169.5c0,0.4-0.3,0.7-0.7,0.8c-2.1,0.8-4.3,1.2-6.5,1.3c-1.9,0-3.7,0-5.6,0c-1,0-2-0.2-2.9-0.6c-0.7-0.2-1-0.8-0.9-1.5
		c0-0.1,0.2-0.3,0.4-0.3c0.2-0.1,0.5,0,0.7,0c1,0,2,0,3,0c2.5,0.2,4.9-0.2,7.4-0.5c1.8-0.2,3.6-0.7,5.3-1.8
		C58.9,167.8,58.8,168.6,58.8,169.5z M56,143.8c0.3-0.1,0.7-0.3,1.1-0.4c0.2,1.1,0.4,2.2,0.5,3.2c0.3,2.7,0.6,5.5,0.8,8.2
		c0.2,3.1,0.3,6.1,0.5,9.2c0.1,1.6-0.1,1.9-1.8,2.5c0-0.1-0.1-0.1-0.1-0.2c-0.1-2.1-0.1-4.1-0.2-6.2c-0.2-2.4-0.4-4.8-0.6-7.1
		c-0.1-1.4-0.2-2.7-0.4-4c-0.1-1.3-0.2-2.5-0.4-3.8C55.2,144.2,55.2,144.2,56,143.8z M27.4,146.3c0-0.3,0.1-0.6,0.1-0.8
		c0.2-0.8,0.2-0.8,0.9-0.6c0.9,0.2,1.9,0.5,2.8,0.7c0.7,0.2,1.4,0.3,2.1,0.5c0.7,0.2,1.5,0.2,2.2,0.5c1.1,0.3,2.2,0.5,3.3,0.5
		c1.4,0,2.8,0,4.2,0c1.1,0,2.2-0.1,3.2-0.5c0.2-0.1,0.4-0.1,0.6-0.2c2.2-0.3,4.4-0.9,6.5-1.5c0.8-0.2,0.8-0.1,0.9,0.6
		c0.2,1.5,0.3,3.1,0.5,4.6c0.2,1.9,0.4,3.9,0.6,5.8c0.1,1.3,0.3,2.7,0.4,4.1c0.1,2.1,0.2,4.1,0.4,6.2c0,0.5-0.1,0.7-0.6,0.9
		c-0.6,0.1-1.2,0.4-1.9,0.4c-2.3,0.1-4.5,0.7-6.8,0.5c-0.2,0-0.5,0-0.7,0v0c-1.2,0-2.3,0-3.5,0c-0.7,0-0.7-0.1-0.8-0.7
		c-0.3-2.6-0.2-5.2-0.2-7.8c0-0.7,0.1-0.7,0.8-0.7c0.6,0,1.1,0,1.7,0c0.2,0,0.4-0.2,0.6-0.3c-0.2-0.1-0.3-0.4-0.5-0.4
		c-1.4,0-2.8,0-4.2-0.1c-0.6,0-1.2,0-1.8,0c-0.2,0-0.5,0-0.7,0.1c-0.1,0-0.3,0.2-0.3,0.3c0,0.1,0.2,0.3,0.3,0.3c0.6,0,1.2,0,1.8,0.1
		c0.8,0,0.9,0.1,0.9,0.8c0,2.4,0,4.9-0.1,7.3c0,0.1,0,0.2,0,0.2c-0.1,0.8-0.2,0.9-1,0.9c-1.6,0-3.1,0-4.7,0c-2.4,0.1-4.7-0.3-7-0.7
		c-1.7-0.3-1.7-0.4-1.6-2.1c0-1.2,0.1-2.5,0.2-3.7c0.4-3.9,0.7-7.7,1.1-11.6C27.2,148.8,27.3,147.6,27.4,146.3z M23.3,157.7
		c0.1-1.5,0.2-2.9,0.3-4.4c0.3-3.1,0.7-6.2,1-9.3c0-0.2,0.1-0.4,0.2-0.5c0.1,0,0.2,0,0.2,0c1.7,0.6,1.6,0.6,1.4,2.3
		c-0.3,2.5-0.5,4.9-0.7,7.4c-0.3,3.3-0.6,6.7-0.8,10c-0.1,0.9,0,1.8,0,2.6c0,0.2,0,0.5,0,0.7c-0.8-0.1-1.2-0.5-1.7-0.9
		c-0.2-0.2-0.3-0.6-0.3-0.9C23,162.4,23.1,160.1,23.3,157.7z M29.2,168.8c0.6,0.1,1.3,0.1,1.9,0.2c2.1,0.3,4.2,0.2,6.3,0.2
		c0.6,0,1.3,0,1.9,0c0.4,0,0.5,0.2,0.4,0.5c-0.1,0.8-0.4,1.2-1.2,1.4c-1,0.2-1.9,0.5-2.9,0.4c-2.3-0.1-4.6,0-6.9-0.1
		c-1.6-0.1-3.2-0.6-4.8-1.1c-0.6-0.2-0.9-0.5-0.9-1.1c0-0.7-0.1-1.5-0.2-2.4C25,168,27,168.6,29.2,168.8z"/>
	<path class="st5" d="M57.1,143.4c0.2,1.1,0.4,2.2,0.5,3.2c0.3,2.7,0.6,5.5,0.8,8.2c0.2,3.1,0.3,6.1,0.5,9.2
		c0.1,1.6-0.1,1.9-1.8,2.5c0-0.1-0.1-0.1-0.1-0.2c-0.1-2.1-0.1-4.1-0.2-6.2c-0.2-2.4-0.4-4.8-0.6-7.1c-0.1-1.4-0.2-2.7-0.4-4.1
		c-0.1-1.3-0.2-2.5-0.4-3.8c-0.1-0.9-0.2-0.9,0.7-1.2C56.3,143.7,56.7,143.6,57.1,143.4"/>
	<path class="st5" d="M24.8,143.5c0.1,0,0.1,0,0.2,0c1.7,0.6,1.6,0.6,1.4,2.3c-0.3,2.5-0.5,4.9-0.7,7.4c-0.3,3.3-0.6,6.7-0.8,10
		c-0.1,0.9,0,1.8,0,2.6c0,0.2,0,0.5,0,0.7c-0.8-0.1-1.2-0.5-1.7-0.9c-0.2-0.2-0.3-0.6-0.3-0.9c0.1-2.3,0.2-4.7,0.3-7
		c0.1-1.5,0.2-2.9,0.3-4.4c0.3-3.1,0.7-6.2,1-9.3C24.6,143.8,24.7,143.7,24.8,143.5"/>
	<path class="st5" d="M22.8,166.8c2.1,1.2,4.2,1.8,6.3,1.9c0.6,0.1,1.3,0.1,1.9,0.2c2.1,0.3,4.2,0.2,6.3,0.2c0.6,0,1.3,0,1.9,0
		c0.4,0,0.5,0.2,0.4,0.5c-0.1,0.8-0.4,1.2-1.2,1.4c-1,0.2-1.9,0.5-2.9,0.4c-2.3-0.1-4.6,0-6.9-0.1c-1.6-0.1-3.2-0.6-4.8-1.1
		c-0.6-0.2-0.9-0.5-0.9-1.1C23,168.5,22.9,167.8,22.8,166.8"/>
	<path class="st5" d="M58.9,166.9c0,0.9-0.1,1.8-0.1,2.6c0,0.4-0.3,0.7-0.7,0.8c-2.1,0.8-4.3,1.2-6.5,1.3c-1.9,0-3.7,0-5.6,0
		c-1,0-2-0.2-2.9-0.6c-0.7-0.2-1-0.8-0.9-1.5c0-0.1,0.2-0.3,0.4-0.3c0.2-0.1,0.5,0,0.7,0c1,0,2,0,3,0c2.5,0.2,4.9-0.2,7.4-0.5
		C55.4,168.5,57.2,168,58.9,166.9"/>
	<path class="st6" d="M46.1,168c-1.2,0-2.3,0-3.5,0c-0.7,0-0.7-0.1-0.8-0.7c-0.3-2.6-0.2-5.2-0.2-7.8c0-0.7,0.1-0.7,0.8-0.7
		c0.6,0,1.1,0,1.7,0c0.2,0,0.4-0.2,0.6-0.3c-0.2-0.1-0.3-0.4-0.5-0.4c-1.4,0-2.8,0-4.2-0.1c-0.6,0-1.2,0-1.8,0c-0.2,0-0.5,0-0.7,0.1
		c-0.1,0-0.3,0.2-0.3,0.3c0,0.1,0.2,0.3,0.3,0.3c0.6,0.1,1.2,0,1.8,0.1c0.8,0,0.9,0.1,0.9,0.8c0,2.4,0,4.9-0.1,7.3
		c0,0.1,0,0.2,0,0.2c-0.1,0.8-0.2,0.9-1,0.9c-1.6,0-3.1,0-4.7,0c-2.4,0.1-4.7-0.3-7-0.7c-1.7-0.3-1.7-0.4-1.6-2.1
		c0-1.2,0.1-2.5,0.2-3.7c0.4-3.9,0.7-7.7,1.1-11.6c0.1-1.2,0.2-2.5,0.3-3.7c0-0.3,0.1-0.6,0.1-0.8c0.2-0.8,0.2-0.8,0.9-0.6
		c0.9,0.2,1.9,0.5,2.8,0.7c0.7,0.2,1.4,0.3,2.1,0.5c0.7,0.2,1.5,0.2,2.2,0.5c1.1,0.3,2.2,0.5,3.3,0.5c1.4,0,2.8,0,4.2,0
		c1.1,0,2.2-0.1,3.2-0.5c0.2-0.1,0.4-0.1,0.6-0.2c2.2-0.3,4.4-0.9,6.5-1.5c0.8-0.2,0.8-0.1,0.9,0.6c0.2,1.5,0.3,3.1,0.5,4.6
		c0.2,1.9,0.4,3.9,0.6,5.8c0.1,1.4,0.3,2.7,0.4,4.1c0.1,2.1,0.2,4.1,0.4,6.2c0,0.5-0.1,0.7-0.6,0.9c-0.6,0.1-1.2,0.4-1.9,0.4
		c-2.3,0.1-4.5,0.7-6.8,0.5C46.6,168,46.4,168,46.1,168L46.1,168z"/>
</g>
<g id="BrazoIzq">
	<path class="st0" d="M23.5,144.5c-0.5-0.7-0.8-1.2-1.2-1.8c-0.6-1-1.3-1.9-2.3-2.5c-0.4-0.3-0.5-0.6-0.4-1c0.6-2.8,1.1-5.5,2.4-8.1
		c0.3-0.6,0.5-1.2,0.7-1.8c0.2-0.6,0.2-1.8,0.4-2.2c-1.8,0.1-3.6-0.2-5.3-1c-0.5-0.3-1.1-0.6-1.6-0.8c-0.3,0.3-1,1.3-1.1,1.4
		c0,0.4-0.2,0.9-0.3,1.3c-0.7,2.7-1.5,5.4-2.1,8.1c-0.4,1.7-0.6,3.4-1.4,5c-0.1,0.2-0.2,0.5-0.3,0.7c-0.5,1.8-0.9,3.6-1.4,5.3
		c-0.1,0.6-0.2,1.2-0.2,1.8c0,1.1,0.5,2,1.5,2.2c0.6,0.1,0.7,0.4,0.7,0.8c0.1,0.7,0.2,1.5,0.5,2.2c0.3,0.8,0.7,1,1.5,0.8
		c0.6-0.2,0.9-0.1,1.2,0.3c0.5,0.6,1.1,0.7,1.8,0.7c0.7,0,1-0.5,1.3-1c0.2-0.4,0.5-0.7,0.9-0.6c0.7,0,1.1-0.4,1.3-0.9
		c0.2-0.5,0.3-1.1,0.3-1.6c0-1.2,0-2.4,0-3.5c0.6,0.3,1.1,0.8,1.7,1c0.2,0.1,0.7-0.1,1-0.2c0.3-0.1,0.5-0.3,0.6-0.6
		c0.1-0.4,0.4-1,0.5-1.6c0.1-0.5,0.1-1-0.2-1.3C23.7,145.1,23.5,144.8,23.5,144.5z M22.8,148.1c-0.5,0.2-1,0-1.3-0.4
		c-0.5-0.6-0.9-1.3-1.4-2c-0.2-0.2-0.2-0.5-0.4-0.7c-0.3-0.4-0.8-0.2-0.9,0.2c-0.1,0.3,0,0.6,0,0.9c0.3,1.9,0.5,3.7,0.4,5.6
		c0,0.4-0.1,0.9-0.3,1.3c-0.1,0.3-0.4,0.4-0.7,0.2c-0.3-0.3-0.6-0.6-0.8-1c-0.6-1.6-1.1-3.3-1.2-5.1c0-0.4,0.1-1-0.4-1
		c-0.5,0-0.4,0.6-0.4,1c-0.1,2.1,0.5,4,1.3,5.9c0.2,0.4,0.3,0.8,0.1,1.2c-0.4,0.8-1.1,0.9-1.7,0.3c-0.3-0.3-0.5-0.7-0.6-1
		c-0.2-0.7-0.3-1.4-0.3-2.1c-0.1-1.7-0.1-3.4-0.1-5c0-0.2-0.1-0.5-0.1-1c-0.2,0.5-0.4,0.7-0.4,1c-0.4,2.2-0.4,4.4-0.1,6.7
		c0,0.2,0,0.6-0.1,0.7c-0.2,0.3-0.6,0.3-0.7-0.1c-0.2-0.6-0.4-1.3-0.4-2c0-2.1,0.1-4.1,0.2-6.2c0-0.3-0.1-0.8-0.2-0.8
		c-0.5-0.1-0.6,0.4-0.6,0.7c-0.1,1.3-0.2,2.5-0.3,3.8c0,0.4,0,0.8,0,1.2c-0.8-0.2-1.2-0.7-1.2-1.4c0-0.4,0-0.7,0.1-1.1
		c0.5-2.2,1-4.4,1.6-6.6c0.1-0.4,0.2-0.8,0.6-1.1c0.2-0.1,0.3-0.5,0.3-0.7c0.3-3.1,1.1-6.2,2-9.2c0.3-1.1,0.7-2.2,1-3.4
		c0.4,0.2,0.8,0.3,1.1,0.4c1.3,0.6,2.7,1.1,4.1,1.2c0.6,0,0.7,0.1,0.5,0.8c-0.1,0.4-0.2,0.9-0.4,1.2c-1.3,2.6-2,5.4-2.4,8.2
		c0,0.2-0.1,0.5-0.2,0.7c-0.4,0.7-0.1,1.2,0.4,1.6c1.8,1.4,3,3.3,4,5.3c0.2,0.3,0.2,0.7,0.2,1C23.2,147.5,23.1,147.9,22.8,148.1z"/>
	<path class="st3" d="M14.1,145.3c-0.2,0.5-0.4,0.7-0.4,1c-0.4,2.2-0.4,4.4-0.1,6.7c0,0.2,0,0.6-0.1,0.7c-0.2,0.3-0.6,0.3-0.7-0.1
		c-0.2-0.6-0.4-1.3-0.4-2c0-2.1,0.1-4.1,0.2-6.2c0-0.3-0.1-0.8-0.2-0.8c-0.5-0.1-0.6,0.4-0.6,0.7c-0.1,1.3-0.2,2.5-0.3,3.8
		c0,0.4,0,0.8,0,1.2c-0.8-0.2-1.2-0.7-1.2-1.4c0-0.4,0-0.7,0.1-1.1c0.5-2.2,1-4.4,1.6-6.6c0.1-0.4,0.2-0.8,0.6-1.1
		c0.2-0.1,0.3-0.5,0.3-0.7c0.3-3.1,1.1-6.2,2-9.2c0.3-1.1,0.7-2.2,1-3.4c0.4,0.2,0.8,0.3,1.1,0.4c1.3,0.6,2.7,1.1,4.1,1.2
		c0.6,0,0.7,0.1,0.5,0.8c-0.1,0.4-0.2,0.9-0.4,1.2c-1.3,2.6-2,5.4-2.4,8.2c0,0.2-0.1,0.5-0.2,0.7c-0.4,0.7-0.1,1.2,0.4,1.6
		c1.8,1.4,3,3.3,4,5.3c0.2,0.3,0.2,0.7,0.2,1c0,0.3-0.1,0.8-0.4,0.9c-0.4,0.2-1,0-1.3-0.4c-0.5-0.6-0.9-1.3-1.4-2
		c-0.2-0.2-0.2-0.5-0.4-0.7c-0.3-0.4-0.8-0.2-0.9,0.2c-0.1,0.3,0,0.6,0,0.9c0.3,1.9,0.5,3.7,0.4,5.6c0,0.4-0.1,0.9-0.3,1.3
		c-0.1,0.3-0.4,0.4-0.7,0.2c-0.3-0.3-0.6-0.6-0.8-1c-0.6-1.6-1.1-3.3-1.2-5.1c0-0.4,0.1-1-0.4-1c-0.5,0-0.4,0.6-0.4,1
		c-0.1,2.1,0.5,4,1.3,5.9c0.2,0.4,0.3,0.8,0.1,1.3c-0.4,0.8-1.1,0.9-1.7,0.3c-0.3-0.3-0.5-0.7-0.5-1c-0.2-0.7-0.3-1.4-0.3-2.1
		c-0.1-1.7-0.1-3.4-0.1-5C14.2,146.1,14.2,145.8,14.1,145.3"/>
</g>
<g id="BrazoDer">
	<path class="st0" d="M72.5,147.6c-0.7-2.7-1-5.4-2.2-7.9c-0.2-0.3-0.3-0.7-0.3-1c-0.5-3.6-1.5-7-2.5-10.5c-0.2-0.6-1-2.3-1-2.8
		c0-0.2,0-0.3,0-0.5c-0.8,0.4-1.5,0.8-2.3,1.2c-1.7,0.9-3.5,1-5.4,1c0,0.1,0.1,0.2,0.2,0.2c0,0,0,0,0,0c0.2,0.3,0.3,1.5,0.5,2.2
		c0.2,0.5,0.3,1,0.5,1.5c1.3,2.6,1.8,5.5,2.4,8.4c0.1,0.3,0.1,0.6-0.3,0.8c-1.2,0.8-2.1,2-2.9,3.2c-0.2,0.4-0.5,0.7-0.8,1.2
		c-0.1,0.3-0.5,0.6-0.9,1.3c-0.2,0.4-0.2,1.5,0.3,2.6c0.2,0.1,0.5,0.4,0.6,0.4c0.4,0.2,0.8,0.3,0.9,0.3c1,0,1.6-0.6,2.4-1.3
		c0,0.3-0.1,0.5-0.1,0.6c0,1.4,0,2.8,0.1,4.2c0.1,0.7,0.4,1.5,1.3,1.5c0.7,0,1,0.3,1.3,0.9c0.3,0.6,0.8,0.8,1.5,0.8
		c0.6,0,1.2-0.2,1.6-0.7c0.3-0.4,0.5-0.5,1-0.3c0.9,0.3,1.3,0.1,1.7-0.8c0.3-0.7,0.3-1.5,0.5-2.3c0.1-0.4,0.1-0.5,0.5-0.6
		c1-0.2,1.6-0.8,1.6-1.8C72.6,148.7,72.6,148.1,72.5,147.6z M71,150.2c-0.1,0.1-0.3,0.1-0.6,0.2c0-0.5,0-0.9,0-1.4
		c-0.1-1.2-0.2-2.4-0.3-3.6c0-0.3-0.2-0.5-0.3-0.8c0-0.1-0.2-0.1-0.3-0.1c-0.1,0-0.1,0.1-0.1,0.2c0,0.4,0,0.7,0,1.1
		c0.1,1.8,0.1,3.7,0.2,5.5c0,0.9-0.2,1.8-0.6,2.6c-0.8-0.4-0.8-0.4-0.7-1.1c0.3-2.1,0.2-4.2,0-6.3c0-0.3-0.2-0.7-0.3-1.1
		c-0.4,0.4-0.3,0.8-0.3,1.2c0,1.6,0,3.1-0.1,4.7c0,0.7-0.1,1.3-0.3,2c-0.1,0.3-0.3,0.7-0.5,1c-0.4,0.5-1.1,0.7-1.5,0.4
		c-0.4-0.2-0.6-1.1-0.4-1.5c0.7-1.5,1.1-3.2,1.3-4.8c0.1-0.6,0.1-1.2,0.1-1.8c0-0.2-0.3-0.4-0.4-0.6c-0.1,0.2-0.3,0.5-0.3,0.7
		c-0.2,0.9-0.2,1.9-0.4,2.8c-0.2,0.9-0.5,1.8-0.8,2.6c-0.1,0.2-0.2,0.5-0.3,0.6c-0.2,0.2-0.6,0.5-0.8,0.4c-0.2,0-0.5-0.4-0.5-0.7
		c-0.4-1.7-0.2-3.4,0.1-5.1c0.1-0.6,0.1-1.2,0.2-1.8c0-0.4,0-0.8-0.4-0.9c-0.4-0.1-0.7,0.2-0.8,0.6c-0.3,0.9-0.9,1.5-1.4,2.2
		c-0.2,0.2-0.3,0.3-0.5,0.4c-0.7,0.3-1.1,0.1-1.1-0.6c-0.1-0.4-0.1-0.9,0.2-1.3c0.9-1.4,1.8-2.8,2.8-4.2c0.3-0.4,0.7-0.7,1.2-1
		c0.6-0.4,0.8-0.9,0.5-1.7c-0.3-0.8-0.4-1.7-0.6-2.6c-0.4-2.1-1.1-4.2-1.9-6.1c-0.3-0.6-0.5-1.3-0.7-2c0.1-0.1,0.2-0.2,0.3-0.2
		c1.7-0.1,3.3-0.6,4.8-1.3c0.1,0,0.1-0.1,0.2-0.1c0.5-0.2,0.7-0.2,0.8,0.3c0.7,2.3,1.4,4.6,1.9,6.9c0.4,1.7,0.7,3.5,1,5.3
		c0,0.2,0.1,0.5,0.2,0.5c0.7,0.4,0.7,1,0.9,1.6c0.5,2.2,1,4.4,1.5,6.5C71.8,148.9,71.8,149.7,71,150.2z"/>
	<path class="st3" d="M70.4,150.4c0-0.5,0-0.9,0-1.4c-0.1-1.2-0.2-2.4-0.3-3.6c0-0.3-0.2-0.5-0.3-0.8c0-0.1-0.2-0.1-0.3-0.1
		c-0.1,0-0.1,0.1-0.1,0.2c0,0.4,0,0.7,0,1.1c0.1,1.8,0.1,3.7,0.2,5.5c0,0.9-0.2,1.8-0.6,2.6c-0.8-0.4-0.8-0.4-0.7-1.1
		c0.3-2.1,0.2-4.2,0-6.3c0-0.3-0.2-0.7-0.3-1.1c-0.4,0.4-0.3,0.9-0.3,1.2c0,1.6,0,3.1-0.1,4.7c0,0.7-0.1,1.3-0.3,2
		c-0.1,0.3-0.3,0.7-0.5,1c-0.4,0.5-1.1,0.7-1.5,0.4c-0.4-0.2-0.6-1.1-0.4-1.5c0.7-1.5,1.1-3.2,1.3-4.8c0.1-0.6,0.1-1.2,0.1-1.8
		c0-0.2-0.3-0.4-0.4-0.6c-0.1,0.2-0.3,0.5-0.3,0.7c-0.2,0.9-0.2,1.9-0.4,2.8c-0.2,0.9-0.5,1.8-0.8,2.6c-0.1,0.2-0.2,0.5-0.3,0.6
		c-0.2,0.2-0.6,0.5-0.8,0.4c-0.2,0-0.5-0.4-0.5-0.7c-0.4-1.7-0.2-3.4,0.1-5.1c0.1-0.6,0.1-1.2,0.2-1.8c0-0.4,0-0.8-0.4-0.9
		c-0.4-0.1-0.7,0.2-0.8,0.6c-0.3,0.9-0.9,1.5-1.4,2.2c-0.2,0.2-0.3,0.3-0.5,0.4c-0.7,0.3-1.1,0.1-1.1-0.6c-0.1-0.4-0.1-0.9,0.2-1.3
		c0.9-1.4,1.8-2.8,2.8-4.2c0.3-0.4,0.7-0.7,1.2-1c0.6-0.4,0.8-0.9,0.5-1.7c-0.3-0.8-0.4-1.7-0.6-2.6c-0.4-2.1-1.1-4.2-1.9-6.1
		c-0.3-0.6-0.5-1.3-0.7-2c0.1-0.1,0.2-0.2,0.3-0.2c1.7-0.1,3.3-0.6,4.8-1.3c0.1,0,0.1-0.1,0.2-0.1c0.5-0.2,0.7-0.2,0.8,0.3
		c0.7,2.3,1.4,4.6,1.9,6.9c0.4,1.7,0.7,3.5,1,5.3c0,0.2,0.1,0.5,0.2,0.5c0.7,0.4,0.7,1,0.9,1.6c0.5,2.2,1,4.3,1.5,6.5
		c0.2,0.8,0.1,1.5-0.7,2C70.9,150.2,70.7,150.3,70.4,150.4"/>
</g>
<g id="Torso">
	<path class="st0" d="M13.5,125.3c0.5,0.3,1.4,1,1.4,1c0.4,0,0.9,0.4,0.9,0.3c0.4,0.2,0.8,0.3,1.1,0.4c1.3,0.6,2.7,1.1,4.1,1.2
		c0.4,0,1.2,0.1,1.4,0.1c0.2,0,0.9-0.1,1.4-0.1c0.2,0,0.4,0,0.7,0c-0.1,0.9-0.2,1.7-0.4,2.6c-0.3,1.8-0.7,3.6-1,5.4
		c-0.3,1.6-0.4,3.2-0.6,4.7c-0.1,0.7,0.1,1.2,0.8,1.6c0.4,0.2,1.6,0.9,1.6,0.9c1.1,0.4,1.8,0.9,2.1,0.9c0.4,0,1.1,0.4,1.4,0.4
		c0.9,0.2,1.9,0.5,2.8,0.7c0.7,0.2,1.4,0.3,2.1,0.5c0.7,0.2,1.5,0.2,2.2,0.5c1.1,0.3,2.2,0.5,3.3,0.5c1.4,0,2.8,0,4.2,0
		c1.1,0,2.2-0.1,3.2-0.5c0.2-0.1,0.4-0.1,0.6-0.2c2.2-0.3,4.4-0.9,6.5-1.5c0.4-0.1,1.1-0.6,1.6-0.6c0.2,0,0.6-0.2,1.1-0.4
		c0.3-0.1,0.7-0.3,1.1-0.4c0,0,0,0.1,0,0.1c0.2-0.2,1.1-0.9,1.5-1.1c0.6-0.3,0.7-0.9,0.6-1.6c-0.3-3-0.9-6.1-1.4-9.1
		c-0.2-1.1-0.4-2.3-0.6-3.5c0.2,0,0.4,0,0.6,0c0.7,0,1.5,0.1,1.8,0.1c0.2,0,0.7,0,0.7,0c1.7-0.1,3.3-0.6,4.8-1.3
		c0.1,0,0.1-0.1,0.2-0.1c0.3-0.1,0.9-0.6,1.3-0.6c0.1,0,1.3-0.8,1.9-1.2c1.1-0.7,1.9-1.5,2.5-2.7c0.3-0.7,0.3-1.4-0.1-2
		c-0.5-0.8-1-1.7-1.6-2.5c-2.3-3.3-4.6-6.6-6.2-10.2c-0.1-0.1-0.2-0.3-0.2-0.4c-1.4-2.7-2.8-5.3-4.1-8c-0.4-0.8-0.9-1.4-1.6-1.9
		c-1.5-1.1-3.3-1.8-5.1-2.4c-1-0.3-2-0.7-3.2-1.1c0,0,0.1,0,0.1,0c-0.7-0.3-1.4-0.6-2.1-1c-1.3,0.3-2.7,0.5-4,0.8
		c-1.6,0.3-3.3,0.2-4.9-0.1c-1-0.2-2-0.4-2.9-0.6c-0.2,0.2-2.4,1-2.4,1c-1.3,0.4-2.4,0.8-3.5,1.2c-1.5,0.5-3,1.1-4.3,2.1
		c-0.8,0.6-1.5,1.3-1.9,2.2c-0.4,1-0.9,2-1.4,2.9c-1.5,2.9-3.1,5.9-4.7,8.8c-0.4,0.7-0.8,1.4-1.3,2c-1.6,2.4-3.1,4.7-4.7,7.1
		c-0.6,0.8-0.5,1.6-0.1,2.5C11.5,123.9,12.4,124.7,13.5,125.3z M58,140.6c0.1,0.6-0.1,1-0.7,1.2c-1.3,0.6-2.6,1.3-4,1.7
		c-1.8,0.6-3.6,0.9-5.5,1.3c-0.5,0.1-1,0.1-1.5,0.3c-2.3,0.9-4.6,0.7-7,0.7c-1.2,0-2.4-0.1-3.5-0.5c-0.3-0.1-0.6-0.2-0.9-0.2
		c-1.9-0.4-3.8-0.7-5.6-1.3c-1.7-0.5-3.3-1.3-5-2c-0.4-0.2-0.6-0.5-0.6-0.9c0.1-0.7,0.2-1.4,0.3-2.3c0.6,0.3,1.2,0.5,1.7,0.8
		c2.3,1.4,4.8,2.1,7.4,2.5c1.8,0.3,3.7,0.6,5.5,0.9c1.4,0.2,2.7,0.3,4,0c2.4-0.4,4.7-0.7,7.1-1.1c2-0.4,4-0.9,5.7-2
		c0.6-0.4,1.3-0.7,2.1-1.1C57.8,139.3,57.9,140,58,140.6z M69.9,121.3c0.1,0.2,0,0.5-0.1,0.8c-0.4,0.8-0.9,1.4-1.6,1.9
		c-0.3,0.2-0.7,0.4-1,0.6c-1,0.5-2,1.1-3.1,1.6c-2.1,1.1-4.3,1.1-6.6,0.9c-0.3,0-0.5-0.2-0.5-0.5c-0.1-0.5-0.1-1.1-0.2-1.7
		c4.7-0.3,8.7-2,11.7-5.7C69.2,119.7,69.5,120.5,69.9,121.3z M43.9,94.7c-0.5,1.4-1.5,2.4-2.7,2.5c-1.8,0.1-2.6-1.1-3.4-2.5H43.9z
		 M35.5,94.2c0.7,0.1,1.2,0.3,1.6,1.2c0.6,1.4,1.5,2.5,3.1,2.9c1.1,0.2,2.1,0,3-0.8C44,96.9,44.6,96,45,95c0.1-0.2,0.3-0.5,0.5-0.6
		c0.4-0.1,0.9-0.2,1.4-0.2c0.1,0,0.2,0.3,0.2,0.4c0,0.4,0,0.8-0.2,1.2c-0.5,1-1,1.9-1.6,2.8c-1,1.3-2.3,1.9-4,1.7
		c-0.1,0-0.2,0-0.4,0c-1,0.2-2.1,0-3-0.6c-1.6-1.2-2.7-2.7-3-4.7C34.7,94.3,34.8,94.2,35.5,94.2z M14.7,116.9
		c2.3-3.2,4.1-6.7,5.9-10.1c1.2-2.3,2.4-4.7,3.5-7.1c0.4-0.7,0.9-1.3,1.6-1.8c1.1-0.8,2.4-1.3,3.6-1.8c1.4-0.5,2.8-1,4.3-1.6
		c1.3,5.9,4.4,7.1,7.7,7c3.4-0.1,6-2.5,6.9-7c0.1,0,0.3,0,0.4,0.1c1.8,0.7,3.6,1.3,5.4,2.1c0.8,0.3,1.6,0.8,2.3,1.3
		c0.6,0.4,1.1,1,1.4,1.7c2.1,4.1,4.1,8.2,6.3,12.3c0.9,1.7,2.1,3.3,3.2,4.9c0.7,1,0.7,1.1-0.1,2.1c-0.9,1.2-2.2,2.1-3.6,2.7
		c-1.3,0.6-2.7,1.1-4.1,1.6c-0.3,0.1-0.6,0.2-0.9,0.2c-1.7,0.2-1.9,0.2-2.1-1.6c-0.5-3.7-1.3-7.4-2.3-11c-0.2-0.8-0.5-1.5-0.7-2.3
		c-0.1-0.2-0.1-0.5-0.3-0.7c-0.2-0.2-0.4-0.3-0.6-0.5c0,0.2-0.1,0.5-0.1,0.7c0.4,1.8,0.8,3.5,1.2,5.2c0.8,3.4,1.4,6.8,1.9,10.2
		c0.6,4.1,1.3,8.1,2,12.2c0,0.1,0.1,0.2,0.1,0.4c0.2,1.1,0.1,1.1-0.9,1.7c-2.8,1.6-5.9,2.6-9.2,3c-2,0.2-4,0.7-6,0.9
		c-0.9,0.1-1.9-0.1-2.8-0.2c-1.9-0.3-3.8-0.6-5.7-0.9c-2.9-0.4-5.6-1.5-8.2-2.9c-0.5-0.3-0.7-0.6-0.6-1.2c0.3-1.4,0.5-2.8,0.8-4.2
		c0.5-3.1,1-6.2,1.4-9.4c0.5-3.5,1.1-7,2-10.5c0.4-1.5,0.7-2.9,1.1-4.4c0-0.2,0-0.4,0-0.6c-0.2,0.1-0.5,0.2-0.6,0.3
		c-0.2,0.4-0.4,0.9-0.5,1.3c-0.7,2.8-1.5,5.6-2.1,8.5c-0.4,1.6-0.5,3.2-0.8,4.8c-0.2,1-0.2,1.1-1.2,1c-1.1-0.1-2.1-0.3-3.2-0.6
		c-2.1-0.7-4-1.6-5.6-3.1c-0.2-0.2-0.5-0.4-0.7-0.7C14,118.2,14,118,14.7,116.9z M12.1,121c0.4-0.6,0.8-1.3,1.3-2.1
		c0.7,1.5,1.8,2.3,3,3.1c1.9,1.3,4.1,2.2,6.4,2.7c0.6,0.1,1.2,0.1,1.8,0.1c0.3,0,0.5,0.2,0.5,0.5c0,0.2,0,0.5-0.1,0.7
		c-0.1,1-0.1,1-1.2,1.1c-2.1,0.2-4.2,0-6.2-1c-1.3-0.7-2.5-1.3-3.8-2c-0.8-0.4-1.4-1.1-1.8-1.9C11.8,121.7,11.8,121.3,12.1,121z"/>
	<path class="st6" d="M33.6,94.6c1.2,5.9,4.4,7.1,7.7,7c3.4-0.1,6-2.5,6.9-7c0.1,0,0.3,0,0.4,0.1c1.8,0.7,3.6,1.3,5.4,2.1
		c0.8,0.3,1.6,0.8,2.3,1.3c0.6,0.4,1.1,1,1.4,1.7c2.1,4.1,4.1,8.2,6.3,12.3c0.9,1.7,2.1,3.3,3.2,4.9c0.7,1,0.7,1.1-0.1,2.1
		c-0.9,1.2-2.2,2.1-3.6,2.7c-1.3,0.6-2.7,1.1-4.1,1.6c-0.3,0.1-0.6,0.2-0.9,0.2c-1.7,0.2-1.9,0.2-2.1-1.6c-0.5-3.7-1.3-7.4-2.3-11
		c-0.2-0.8-0.5-1.5-0.7-2.3c-0.1-0.2-0.1-0.5-0.3-0.7c-0.2-0.2-0.4-0.3-0.6-0.5c0,0.2-0.1,0.5-0.1,0.7c0.4,1.8,0.8,3.5,1.2,5.2
		c0.8,3.4,1.4,6.8,1.9,10.2c0.6,4.1,1.3,8.1,2,12.2c0,0.1,0.1,0.2,0.1,0.4c0.2,1.1,0.1,1.1-0.8,1.7c-2.8,1.6-5.9,2.6-9.2,3
		c-2,0.2-4,0.7-6,0.9c-0.9,0.1-1.9-0.1-2.8-0.2c-1.9-0.3-3.8-0.6-5.7-0.9c-2.9-0.4-5.6-1.5-8.2-2.9c-0.5-0.3-0.7-0.6-0.6-1.2
		c0.3-1.4,0.5-2.8,0.8-4.2c0.5-3.1,1-6.2,1.4-9.4c0.5-3.5,1.1-7,2-10.5c0.4-1.5,0.7-2.9,1.1-4.4c0-0.2,0-0.4,0-0.6
		c-0.2,0.1-0.5,0.2-0.6,0.3c-0.2,0.4-0.4,0.9-0.5,1.3c-0.7,2.8-1.5,5.6-2.1,8.5c-0.4,1.6-0.5,3.2-0.8,4.8c-0.2,1-0.2,1.1-1.2,1
		c-1.1-0.1-2.1-0.3-3.2-0.6c-2.1-0.7-4-1.6-5.6-3.1c-0.2-0.2-0.5-0.4-0.7-0.7c-0.8-1-0.8-1.3-0.1-2.3c2.3-3.2,4.1-6.7,5.9-10.1
		c1.2-2.3,2.4-4.7,3.5-7.1c0.4-0.7,0.9-1.3,1.6-1.8c1.1-0.8,2.4-1.3,3.6-1.8C30.8,95.6,32.2,95.1,33.6,94.6 M51.2,114.1
		c0-1.5-0.1-2.8-1.1-4c-1.3-1.5-2.3-1.7-3.9-0.5c-2.4,1.7-3.3,3.9-3.2,6.8c0,1.2,0.8,2.4,2.1,2.9c3,1.1,6.1-1.1,6.2-4.3
		C51.2,114.7,51.2,114.4,51.2,114.1"/>
	<path class="st5" d="M57.7,138.5c0.1,0.8,0.2,1.4,0.3,2.1c0.1,0.6-0.1,1-0.7,1.2c-1.3,0.6-2.6,1.2-4,1.7c-1.8,0.6-3.6,0.9-5.5,1.3
		c-0.5,0.1-1,0.1-1.5,0.3c-2.3,0.9-4.6,0.7-7,0.7c-1.2,0-2.4-0.1-3.5-0.5c-0.3-0.1-0.6-0.2-0.9-0.2c-1.9-0.4-3.8-0.7-5.6-1.3
		c-1.7-0.5-3.3-1.3-5-2c-0.4-0.2-0.6-0.5-0.6-0.9c0.1-0.7,0.2-1.4,0.3-2.3c0.6,0.3,1.2,0.5,1.7,0.8c2.3,1.4,4.8,2.1,7.4,2.5
		c1.8,0.3,3.7,0.6,5.5,0.9c1.3,0.2,2.7,0.3,4,0c2.4-0.4,4.7-0.7,7.1-1.1c2-0.4,4-0.9,5.7-2C56.2,139.2,56.9,138.9,57.7,138.5"/>
	<path class="st5" d="M56.8,124.8c4.7-0.3,8.7-2,11.7-5.7c0.6,0.6,1,1.4,1.4,2.1c0.1,0.2,0,0.5-0.1,0.8c-0.4,0.8-0.9,1.4-1.6,1.9
		c-0.3,0.2-0.7,0.4-1,0.6c-1,0.5-2,1.1-3.1,1.6c-2.1,1.1-4.3,1.1-6.6,0.9c-0.3,0-0.5-0.2-0.5-0.5C56.9,126,56.9,125.4,56.8,124.8"/>
	<path class="st5" d="M13.4,118.9c0.7,1.5,1.8,2.3,3,3.1c1.9,1.3,4.1,2.2,6.4,2.7c0.6,0.1,1.2,0.1,1.8,0.1c0.3,0,0.5,0.2,0.5,0.5
		c0,0.2,0,0.5-0.1,0.7c-0.1,1-0.1,1-1.2,1.1c-2.1,0.2-4.2,0-6.2-1c-1.3-0.7-2.5-1.4-3.8-2.1c-0.8-0.4-1.4-1.1-1.8-1.9
		c-0.2-0.4-0.2-0.7,0-1.1C12.5,120.3,12.9,119.7,13.4,118.9"/>
	<path class="st5" d="M40.8,100.3c-1,0.2-2.1,0-3-0.6c-1.6-1.2-2.7-2.7-3-4.7c-0.1-0.7,0-0.8,0.7-0.7c0.7,0.1,1.2,0.3,1.6,1.2
		c0.6,1.4,1.5,2.5,3.1,2.9c1.1,0.2,2.1,0,3-0.8C44,96.9,44.6,96,45,95c0.1-0.2,0.3-0.5,0.5-0.6c0.4-0.1,0.9-0.2,1.4-0.2
		c0.1,0,0.2,0.3,0.2,0.4c0,0.4,0,0.8-0.2,1.2c-0.5,1-1,1.9-1.6,2.8c-1,1.3-2.3,1.9-4,1.7C41.1,100.3,41,100.3,40.8,100.3"/>
	<path class="st3" d="M37.8,94.7h6.1c-0.5,1.4-1.5,2.4-2.7,2.5C39.4,97.3,38.6,96.1,37.8,94.7"/>
	<path class="st0" d="M51.2,114.1c0,0.3,0,0.6,0,0.8c-0.1,3.2-3.2,5.4-6.2,4.3c-1.3-0.5-2.1-1.7-2.1-2.9c-0.1-2.9,0.9-5.1,3.2-6.8
		c1.6-1.1,2.6-0.9,3.9,0.5C51.1,111.3,51.2,112.7,51.2,114.1 M49.9,114.2L49.9,114.2c0-0.3,0-0.6,0-0.8c-0.1-1.8-0.5-2.3-2.3-2.8
		c-0.4-0.1-0.7-0.1-1,0.2c-1.7,1.5-2.4,3.3-2.4,5.5c0,0.8,0.4,1.4,1.2,1.7c1.9,0.8,4.2-0.6,4.4-2.7
		C49.9,114.9,49.9,114.6,49.9,114.2"/>
	<path class="st1" d="M49.9,114.2c0,0.4,0,0.7,0,1.1c-0.2,2.1-2.5,3.5-4.4,2.7c-0.8-0.3-1.2-0.9-1.2-1.7c0-2.2,0.7-4,2.4-5.5
		c0.3-0.3,0.6-0.3,1-0.2c1.8,0.5,2.2,1,2.3,2.8C49.9,113.6,49.9,113.9,49.9,114.2L49.9,114.2z"/>
</g>
<g id="Cabeza">
	<path class="st0" d="M81.4,65.6c-0.5-2.6-3.4-5-6.2-4.8c-1.8,0.1-1.5,0.1-1.5-1.6c0-1.4,0.2-2.7,0.2-4.1c0-0.6-0.2-1.3-0.4-1.8
		c-0.1-0.3-0.4-0.6-0.7-0.6c-0.6,0-0.6-0.4-0.6-0.8c0-1.2,0-2.4,0-3.6c0-1.3-0.3-2.5-1.1-3.5c-0.2-0.2-0.3-0.6-0.3-0.9
		c-0.1-1-0.2-2-0.2-3c-0.1-1.5-0.4-3-1.6-4.1c-0.2-0.2-0.3-0.5-0.3-0.7c-0.1-0.6-0.2-1.2-0.2-1.8c-0.2-2.1-1.2-3.8-2.8-5.1
		c-0.4-0.3-0.9-0.7-1.3-1c-0.4-0.2-0.6-0.5-0.6-1c0-0.7-0.4-1.3-0.8-1.8c-1.2-1.6-2.7-2.8-4.6-3.5c-0.4-0.1-0.8-0.1-1-0.6
		c-0.2-0.7-0.8-1-1.5-1.3c-1.2-0.5-2.4-1-3.6-1.3c-2.3-0.7-4.7-1.3-7.2-1.3c-0.8,0-1.7-0.1-2.5-0.2c-1-0.1-2.1-0.3-3.1,0
		c-0.5,0.1-1.1,0.2-1.7,0.2c-1.8,0-3.5,0.2-5.2,0.6c-2.3,0.5-4.5,1.2-6.6,2.1c-0.6,0.2-1.1,0.5-1.4,1.1c-0.2,0.4-0.4,0.6-0.9,0.7
		c-1.4,0.4-2.6,1.2-3.7,2.2c-0.9,0.8-1.7,1.8-1.9,3c-0.1,0.7-0.5,1.1-1,1.5c-0.3,0.2-0.5,0.4-0.8,0.6c-1.7,1.3-2.7,2.9-3,5
		c-0.1,0.6-0.1,1.2-0.2,1.8c-0.1,0.3-0.2,0.7-0.4,1c-1.1,1.1-1.5,2.4-1.5,3.9c0,0.9-0.1,1.8-0.2,2.7c-0.1,0.5-0.2,1-0.4,1.3
		c-0.8,1-1,2.1-1,3.2c0,1.3,0,2.6,0,3.8c0,0.4,0,0.8-0.6,0.8c-0.2,0-0.6,0.3-0.7,0.6c-0.2,0.5-0.4,1.1-0.4,1.7c0,1.4,0,2.8,0.1,4.2
		c0,0.5,0.2,1.2-0.1,1.4c-0.3,0.3-1,0.2-1.5,0.1c-2.2-0.2-5.3,1.7-5.9,4.5C0.2,66.6,0,67.8,0,69.1c0,2.6,2.2,5.8,4.6,6.6
		c2.5,0.8,5,1.5,7.6,0.7c0.1,0.3,0.2,0.5,0.2,0.7c0.7,3.7,2.8,6.7,5.1,9.5c1.5,1.8,3.6,2.9,5.6,4c1,0.5,2,1,3,1.4
		c2,0.6,6.2,1.8,6.2,1.8c0,0,3.7,0.4,5.1,0.7c0.3,0.1,6.3,0.4,6.3,0.4c0.1,0,2.6-0.6,3-0.6c0,0,0.2,0,0.3,0c0.2-0.1,1.5-0.3,1.7-0.4
		c0,0,0.1,0,0.1,0c0,0-0.1,0-0.1,0c1.2-0.3,2.2-0.6,3.2-0.8c1.4-0.4,2.9-0.7,4.2-1.3c2.2-0.9,4.3-2.1,6.2-3.5c0.5-0.4,1-0.9,1.5-1.4
		c0.7-0.8,1.4-1.7,2.1-2.6c1.5-2.1,2.6-4.4,3.2-6.9c0-0.1,0-0.2,0.1-0.4c0.1-0.4,0.3-0.5,0.7-0.4c1,0.4,2,0.3,3,0.1
		c1.2-0.2,2.4-0.4,3.5-0.7c3-0.8,5.4-3.9,5.3-7.1C81.8,67.7,81.6,66.6,81.4,65.6z M11.1,75.3c-0.6,0.1-1.3,0.2-1.9,0.1
		c-1.3-0.2-2.6-0.5-3.9-0.8c-2.2-0.6-4.1-3.2-4.1-5.5c0-1.2,0.1-2.5,0.5-3.7c0.6-1.9,2.4-3.4,4.4-3.5c0.6,0,1.1,0,1.7,0
		c1.3,0.1,2.3,0.8,3.2,1.8c0.2,0.2,0.3,0.6,0.3,0.9c0,0.8,0,1.5,0,2.3c-0.1,0-0.2,0.1-0.3,0.1c-0.3-0.4-0.6-0.7-0.9-1.1
		c-0.9-1-2-1.7-3.5-1.6c-1.5,0.1-2.9,1.9-2.6,3.4c0,0.2,0.2,0.4,0.3,0.4c0.1,0,0.4-0.1,0.5-0.3c0.2-0.4,0.4-0.8,0.6-1.1
		c0.6-1,1.2-1.2,2.2-0.8c1.7,0.6,3.5,3,3.6,4.7c0,1.3,0.2,2.5,0.5,3.8C11.9,74.9,11.8,75.2,11.1,75.3z M68.6,75.3
		c-0.2,0.6-0.3,1.2-0.5,1.7c-0.5,2.5-1.7,4.7-3.3,6.7c-0.5,0.6-1,1.3-1.5,1.9c-1.3,1.6-3.2,2.5-4.9,3.6c-2.8,1.7-6,2.4-9.1,3.1
		c-2.1,0.5-4.3,0.8-6.5,1.2c-1.6,0.3-3.3,0.2-4.9-0.1c-1.6-0.3-3.1-0.6-4.7-0.9c-2.4-0.6-4.7-1.2-7-1.9c-1.2-0.4-2.3-1-3.4-1.7
		c-1.5-0.9-3-1.7-4.2-3c-2.4-2.7-4.4-5.7-5.1-9.3c-0.3-1.4-0.8-2.9-1-4.3c-0.2-1.6-0.2-3.2-0.3-4.8c0,0,0.1,0,0.1,0
		c0-1.1,0-2.2,0-3.2c0-0.4,0-0.8,0.3-1.1c0.7-0.8,1-1.9,1-3c0-0.5,0-1,0-1.6c0-0.2,0.1-0.5,0.3-0.6c0.8-0.6,0.9-1.5,1-2.4
		c0-1.3,0-2.6,0-3.8c0-0.6,0.1-1.1,0.5-1.5c0.6-0.6,0.8-1.4,0.9-2.2c0-0.4,0.1-0.8,0-1.2c0-0.5,0.1-0.9,0.5-1.3
		c1.2-1,1.7-2.4,1.6-3.9c0-1.2,0.4-2.2,1.3-3.1c0.8-0.7,1.6-1.6,2.3-2.4c0.4-0.5,0.8-1.2,1.1-1.8c0.2-0.5,0.5-0.9,1-1.1
		c0.8-0.4,1.6-0.8,2.4-1.1c0.5-0.2,1-0.2,1.5-0.3c0.3-0.1,0.7-0.1,1.1-0.2c1.2-0.3,2.4-0.7,3.6-1.1c0.5-0.2,1-0.3,1.5,0
		c0.3,0.2,0.8,0.1,1.2,0.1c1.7-0.1,3.3-0.2,5-0.2c1.9,0,3.8,0.1,5.7,0.2c0.4,0,0.8,0.1,1.1-0.1c0.8-0.4,1.5-0.1,2.3,0.1
		c1,0.3,1.9,0.6,2.9,0.9c0.2,0.1,0.5,0.2,0.7,0.2c1.4-0.1,2.6,0.6,3.8,1.2c0.3,0.1,0.5,0.2,0.8,0.4c0.3,0.2,0.6,0.5,0.7,0.8
		c0.5,1.3,1.3,2.3,2.2,3.3c0.6,0.6,1.2,1.3,1.9,1.9c0.4,0.4,0.7,0.9,0.7,1.5c0,0.6,0.2,1.1,0.2,1.7c0,1.2,0.5,2.3,1.4,3.1
		c0.6,0.5,0.8,1.1,0.8,1.8c0,0.4,0,0.7,0,1.1c0,0.7,0.3,1.4,0.8,2c0.5,0.4,0.5,0.9,0.5,1.5c0,1.4,0.1,2.8,0.1,4.2
		c0,0.8,0.2,1.5,0.9,2c0.2,0.1,0.3,0.5,0.3,0.7c0,0.4,0,0.9,0,1.3c0,1.2,0.3,2.2,1,3.1c0.3,0.4,0.4,0.7,0.3,1.2
		c-0.1,0.6,0,1.2,0,1.8C69.6,69.2,69.5,72.3,68.6,75.3z M69.6,62c-0.3-0.6-0.4-1.2-0.4-1.8c-0.1-0.8,0-1.7,0-2.5
		c0-0.5-0.1-0.9-0.7-0.9c-0.4,0-0.5-0.3-0.5-0.6c0-0.4-0.1-0.8-0.1-1.2c0-1.3,0-2.6,0-3.8c0-0.5,0-0.9-0.4-1.2
		c-0.8-0.7-0.9-1.6-1-2.6c0-0.3,0-0.6,0-1c0-0.6-0.1-1-0.6-1.4c-1.2-0.9-1.6-2.2-1.6-3.6c0.1-1.5-0.5-2.6-1.6-3.6
		c-1-0.9-1.8-1.9-2.7-2.9c-0.3-0.3-0.5-0.8-0.5-1.2c0-0.7-0.3-0.9-0.8-1.2c-1.2-0.5-2.3-1.1-3.5-1.6c-0.7-0.3-1.4-0.8-2.3-0.4
		c-0.1,0.1-0.4-0.1-0.6-0.1c-1.5-0.5-3-0.9-4.5-1.4c-0.5-0.2-0.9-0.3-1.3,0.3c-0.1,0.2-0.4,0.3-0.6,0.3c-0.6,0-1.1,0.1-1.7,0
		c-2.5-0.3-4.9-0.3-7.4,0c-0.5,0.1-1,0-1.6,0c-0.2,0-0.5-0.1-0.6-0.2c-0.3-0.6-0.8-0.5-1.3-0.3c-1.4,0.5-2.9,0.9-4.3,1.4
		c-0.2,0.1-0.5,0.2-0.7,0.1c-0.7-0.3-1.3,0-1.8,0.3c-1.3,0.6-2.6,1.2-3.9,1.8c-0.5,0.2-0.7,0.5-0.8,1.1c-0.1,0.6-0.4,1.2-0.8,1.7
		c-0.7,0.9-1.5,1.7-2.3,2.5c-1,0.9-1.6,2-1.6,3.3c0,0.2-0.1,0.5-0.1,0.7c0.1,1.3-0.5,2.3-1.5,3.1c-0.4,0.3-0.5,0.7-0.6,1.1
		c0,0.5-0.1,1-0.1,1.6c0,0.9-0.2,1.7-0.9,2.2c-0.4,0.3-0.4,0.8-0.4,1.2c0,1.4,0,2.7,0,4.1c0,0.4-0.1,0.8-0.2,1.2
		c0,0.1-0.2,0.3-0.4,0.4c-0.8,0.3-0.8,0.4-0.8,1.1c0,0.6,0.1,1.2,0.1,1.8c0,0.5-0.1,1-0.2,1.5c-0.1,0.7-0.4,1.2-1,1.4
		C10.7,62,9.9,61.5,9.1,61c-0.2-0.1-0.3-0.4-0.3-0.6c0-1.2,0-2.4,0-3.6c0-1-0.1-1.9,0.3-2.9c0.2,0.2,0.3,0.4,0.5,0.5
		c0.5,0.4,0.9,0.2,1-0.4c0-0.4,0-0.8,0-1.2c0-1.4,0-2.8,0-4.2c0-1.1,0.2-2.2,1-3.1c0.6-0.7,0.6-1.7,0.7-2.6c0.1-1,0.1-2,0.2-3
		c0.1-0.9,0.4-1.7,1.2-2.2c0.2-0.2,0.4-0.6,0.5-0.9c0.2-0.9,0.3-1.7,0.4-2.6c0.3-1.7,1.2-3.1,2.6-4.2c0.3-0.2,0.6-0.5,0.9-0.6
		c0.7-0.5,1.2-1,1.3-2c0.1-0.6,0.5-1.2,1-1.8c1.1-1.4,2.5-2.3,4.3-2.7c0.7-0.2,1.3-0.3,1.3-1.3c0-0.2,0.3-0.4,0.5-0.5
		c2.3-1,4.6-1.6,7.1-2.2c2.2-0.5,4.4-0.3,6.5-0.7c0.5-0.1,1.1-0.1,1.7,0c1.4,0.1,2.7,0.2,4.1,0.3c2.9,0.4,5.7,1,8.5,2.1
		c0.4,0.2,0.7,0.3,1.1,0.4c0.4,0.1,0.6,0.3,0.6,0.8c0,0.5,0.3,0.7,0.7,0.8c0.3,0.1,0.5,0.1,0.8,0.2c1.8,0.5,3.3,1.6,4.4,3.1
		c0.4,0.5,0.6,1,0.6,1.7c0,0.5,0.2,0.8,0.6,1.1c0.6,0.4,1.1,0.8,1.6,1.2c1.4,1,2.2,2.4,2.5,4.1c0.1,0.7,0.2,1.3,0.3,2
		c0.1,0.7,0.2,1.3,0.9,1.7c0.8,0.5,0.9,1.5,1,2.3c0.1,1,0.1,2,0.2,3c0.1,1,0.3,1.8,0.9,2.6c0.7,0.8,0.7,1.9,0.7,2.8
		c0,1.6,0,3.1,0,4.7c0,0.4-0.2,0.9,0.3,1.2c0.5,0.2,0.7-0.4,1.1-0.6c0.4,0.4,0.3,0.9,0.3,1.4c0,1.7,0,3.4,0,5c0,0.4-0.2,0.5-0.5,0.7
		c-0.5,0.3-1.1,0.7-1.6,1.1C70.4,62.6,69.9,62.6,69.6,62z M76.7,74.5c-1.6,0.5-3.2,0.9-4.9,0.9c-0.2,0-0.4,0-0.6,0
		c-1-0.1-1.2-0.3-1-1.4c0.2-1.2,0.3-2.4,0.5-3.7c0.1-0.7,0.2-1.4,0.7-2c0.6-0.7,1.3-1.4,2-2.1c0.3-0.3,0.7-0.4,1.1-0.5
		c0.9-0.3,1.4-0.1,1.9,0.7c0.3,0.5,0.5,1,0.8,1.4c0.1,0.1,0.3,0.2,0.4,0.2c0.1,0,0.3-0.2,0.3-0.3c0.4-1.7-1-3.8-2.8-3.6
		c-1,0.1-1.9,0.5-2.7,1.2c-0.5,0.4-1,0.9-1.6,1.4c0-0.5,0-1.1-0.1-1.6c-0.1-0.8,0.2-1.4,0.8-2c2.5-2.5,8.1-1.3,8.9,2.8
		c0.2,1.1,0.4,2.1,0.4,3.2C80.6,71.2,78.7,73.9,76.7,74.5z"/>
	<path class="st0" d="M40.1,82.9c-1,0.1-2.1-0.2-3.1-0.8c-0.7-0.4-1.2-0.9-1.5-1.6c-0.1-0.3-0.2-0.6-0.2-0.9c0-0.2,0.2-0.4,0.3-0.4
		c0.1,0,0.4,0.1,0.5,0.3c0.6,1.3,1.7,1.9,3,2.1c1.4,0.2,2.9,0.1,4.1-0.7c0.5-0.3,0.9-0.8,1.3-1.2c0.2-0.2,0.4-0.5,0.6-0.8
		c0.2-0.3,0.5-0.4,0.8-0.2c0.4,0.2,0.5,0.6,0.2,0.9c-0.6,0.8-1.2,1.5-1.9,2.1C43.1,82.7,42.1,82.9,40.1,82.9"/>
	<path class="st0" d="M41.1,67.9c1.6-0.2,3.6,1.5,3.9,3.3c0,0.3,0,0.6-0.1,0.8c-0.2,0.4-0.7,0.4-0.9,0c-0.2-0.2-0.2-0.5-0.3-0.8
		c-0.6-1.5-1.7-2.1-3.3-2c-1.3,0.1-2.4,0.6-3,1.9c-0.1,0.1-0.1,0.3-0.3,0.4c-0.1,0.1-0.3,0.2-0.4,0.2c-0.1-0.1-0.3-0.3-0.3-0.4
		c0-0.3,0-0.6,0.1-0.8c0.6-1.2,1.4-2.1,2.7-2.3C39.9,68.1,40.5,68,41.1,67.9"/>
	<path class="st0" d="M49,61c0,0.4,0,0.8-0.1,1.2C48.8,62.7,48.5,63,48,63c-0.5,0.1-0.9-0.1-1.2-0.6c-0.2-0.5-0.4-1-0.4-1.5
		c-0.1-0.8,0-1.6,0-2.4c0-0.1,0-0.2,0-0.4c0.1-0.5,0.6-1,1.1-1c0.5,0,0.8,0.3,1,0.8c0.1,0.2,0.2,0.5,0.2,0.7
		C48.8,59.5,48.9,60.2,49,61"/>
	<path class="st0" d="M32.8,60.8c0.1-0.7,0.2-1.4,0.3-2.1c0-0.3,0.1-0.5,0.3-0.8c0.2-0.4,0.5-0.7,0.9-0.7c0.5,0,0.8,0.2,0.9,0.6
		c0.1,0.3,0.3,0.7,0.3,1c0,0.9-0.1,1.8-0.2,2.7c0,0.3-0.2,0.7-0.4,1c-0.3,0.4-0.7,0.6-1.1,0.5c-0.5-0.1-0.8-0.4-0.8-0.9
		C32.9,61.7,32.9,61.3,32.8,60.8C32.9,60.8,32.9,60.8,32.8,60.8"/>
	<path class="st0" d="M50.6,52.3c0,0.1-0.1,0.2-0.1,0.2c-0.1,0-0.2,0-0.3,0c-0.2-0.2-0.4-0.3-0.5-0.5c-0.6-0.9-1.4-1.6-2.4-2.1
		c-0.2-0.1-0.4-0.2-0.6-0.4c-0.1-0.1-0.1-0.4,0-0.5c0.1-0.1,0.3-0.2,0.5-0.2c0,0,0.1,0,0.1,0c1.3,0.3,3.1,2.3,3.3,3.5
		C50.5,52.2,50.5,52.2,50.6,52.3"/>
	<path class="st0" d="M31.2,52.2c0.2-0.5,0.3-1,0.6-1.4c0.6-0.9,1.4-1.6,2.4-2c0.1-0.1,0.3-0.2,0.4-0.1c0.2,0,0.4,0.1,0.5,0.3
		c0.1,0.1,0,0.4-0.1,0.5c-0.1,0.1-0.2,0.2-0.4,0.3c-1.1,0.6-2,1.4-2.7,2.4c-0.1,0.1-0.2,0.2-0.3,0.3c0,0-0.2,0.1-0.2,0
		C31.4,52.4,31.3,52.3,31.2,52.2"/>
	<path class="st3" d="M12.3,67.5c0-1.1,0-2.2,0-3.2c0-0.4,0-0.8,0.3-1.1c0.7-0.8,1-1.9,1-3c0-0.5,0-1,0-1.6c0-0.2,0.1-0.5,0.3-0.6
		c0.8-0.6,0.9-1.5,1-2.4c0-1.3,0-2.6,0-3.8c0-0.6,0.1-1.1,0.5-1.5c0.6-0.6,0.8-1.4,0.9-2.2c0-0.4,0.1-0.8,0-1.2
		c0-0.5,0.1-0.9,0.5-1.3c1.2-1,1.7-2.4,1.6-3.9c0-1.2,0.4-2.2,1.3-3.1c0.8-0.7,1.6-1.6,2.3-2.4c0.4-0.5,0.8-1.2,1.1-1.8
		c0.2-0.5,0.5-0.9,1-1.1c0.8-0.4,1.6-0.8,2.4-1.1c0.5-0.2,1-0.2,1.5-0.3c0.4-0.1,0.7-0.1,1.1-0.2c1.2-0.3,2.4-0.7,3.6-1.1
		c0.5-0.2,1-0.3,1.5,0c0.3,0.2,0.8,0.1,1.2,0.1c1.7-0.1,3.3-0.2,5-0.2c1.9,0,3.8,0.1,5.7,0.2c0.4,0,0.8,0.1,1.1-0.1
		c0.8-0.4,1.5-0.1,2.3,0.1c1,0.3,1.9,0.6,2.9,0.9c0.2,0.1,0.5,0.2,0.7,0.2c1.4-0.1,2.6,0.6,3.8,1.2c0.3,0.1,0.5,0.2,0.8,0.4
		c0.3,0.2,0.6,0.5,0.7,0.8c0.5,1.3,1.3,2.3,2.2,3.3c0.6,0.6,1.2,1.3,1.9,1.9c0.4,0.4,0.7,0.9,0.7,1.5c0,0.6,0.2,1.1,0.2,1.7
		c0,1.2,0.5,2.3,1.4,3.1c0.6,0.5,0.8,1.1,0.8,1.8c0,0.4,0,0.7,0,1.1c0,0.7,0.3,1.4,0.8,2c0.5,0.4,0.5,0.9,0.5,1.5
		c0,1.4,0.1,2.8,0.1,4.2c0,0.8,0.2,1.5,0.9,2c0.2,0.1,0.3,0.5,0.3,0.7c0.1,0.4,0,0.9,0,1.3c0,1.2,0.3,2.2,1,3.1
		c0.3,0.4,0.4,0.7,0.3,1.2c-0.1,0.6,0,1.2,0,1.8c0.1,3.1,0,6.1-0.9,9.1c-0.2,0.6-0.3,1.2-0.5,1.7c-0.5,2.5-1.7,4.7-3.3,6.7
		c-0.5,0.6-1,1.3-1.5,1.9c-1.3,1.6-3.2,2.5-4.9,3.6c-2.8,1.7-6,2.4-9.1,3.1c-2.1,0.5-4.3,0.8-6.5,1.2c-1.6,0.3-3.3,0.2-4.9-0.1
		c-1.6-0.3-3.1-0.6-4.7-0.9c-2.4-0.6-4.7-1.2-7-1.9c-1.2-0.4-2.3-1-3.4-1.7c-1.5-0.9-3-1.7-4.2-3c-2.4-2.7-4.4-5.7-5.1-9.3
		c-0.3-1.4-0.8-2.9-1-4.3C12.3,70.7,12.3,69.1,12.3,67.5C12.3,67.5,12.3,67.5,12.3,67.5 M40.1,82.9c2,0,3-0.2,4.3-1.2
		c0.7-0.6,1.3-1.4,1.9-2.1c0.2-0.3,0.2-0.7-0.2-0.9c-0.3-0.2-0.6,0-0.8,0.2c-0.2,0.2-0.4,0.5-0.6,0.8c-0.4,0.4-0.8,0.9-1.3,1.2
		c-1.3,0.9-2.7,1-4.1,0.7c-1.3-0.2-2.4-0.9-3-2.1c-0.1-0.1-0.3-0.3-0.5-0.3c-0.1,0-0.3,0.3-0.3,0.4c0,0.3,0,0.6,0.2,0.9
		c0.3,0.7,0.9,1.2,1.5,1.6C38,82.7,39.1,83.1,40.1,82.9 M41.1,67.9c-0.6,0.1-1.2,0.2-1.8,0.3c-1.3,0.2-2.2,1.1-2.7,2.3
		c-0.1,0.2-0.2,0.5-0.1,0.8c0,0.2,0.2,0.3,0.3,0.4c0.1,0,0.3-0.1,0.4-0.2c0.1-0.1,0.2-0.3,0.3-0.4c0.6-1.3,1.6-1.8,3-1.9
		c1.6-0.1,2.7,0.5,3.3,2c0.1,0.3,0.2,0.5,0.3,0.8c0.2,0.3,0.7,0.3,0.9,0c0.1-0.2,0.2-0.5,0.1-0.8C44.7,69.5,42.7,67.8,41.1,67.9
		 M49,61c-0.1-0.7-0.2-1.5-0.3-2.3c0-0.2-0.1-0.5-0.2-0.7c-0.2-0.6-0.6-0.9-1-0.8c-0.4,0-0.9,0.5-1.1,1c0,0.1,0,0.2,0,0.4
		c0,0.8,0,1.6,0,2.4c0,0.5,0.2,1,0.4,1.5c0.2,0.5,0.6,0.7,1.2,0.6c0.5-0.1,0.8-0.4,0.9-0.9C49,61.8,49,61.4,49,61 M32.8,60.8
		C32.9,60.8,32.9,60.8,32.8,60.8c0.1,0.4,0.1,0.9,0.1,1.3c0.1,0.5,0.3,0.8,0.8,0.9c0.5,0.1,0.9,0,1.1-0.5c0.2-0.3,0.4-0.6,0.4-1
		c0.1-0.9,0.2-1.8,0.2-2.7c0-0.3-0.1-0.7-0.3-1c-0.2-0.4-0.5-0.6-0.9-0.6c-0.5,0-0.7,0.3-0.9,0.7c-0.1,0.3-0.2,0.5-0.3,0.8
		C33,59.4,32.9,60.1,32.8,60.8 M50.6,52.3c0,0,0-0.1,0-0.1c-0.2-1.3-2-3.2-3.3-3.5c0,0-0.1,0-0.1,0c-0.2,0.1-0.4,0.1-0.5,0.2
		c-0.1,0.1-0.1,0.4,0,0.5c0.1,0.2,0.3,0.3,0.6,0.4c0.9,0.5,1.8,1.2,2.4,2.1c0.1,0.2,0.3,0.4,0.5,0.5c0.1,0.1,0.2,0.1,0.3,0
		C50.5,52.5,50.5,52.4,50.6,52.3 M31.2,52.2c0.1,0.1,0.2,0.2,0.2,0.3c0,0,0.2,0,0.2,0c0.1-0.1,0.2-0.2,0.3-0.3
		c0.8-1,1.6-1.8,2.7-2.4c0.1-0.1,0.3-0.2,0.4-0.3c0.1-0.2,0.1-0.4,0.1-0.5c-0.1-0.1-0.3-0.2-0.5-0.3c-0.1,0-0.3,0.1-0.4,0.1
		c-1,0.5-1.8,1.1-2.4,2C31.6,51.2,31.4,51.7,31.2,52.2"/>
	<path class="st7" d="M18.6,84.8C18.1,77,16,69.4,17.2,61.6c1-6.3,3.9-12.4,8.4-16.9c4.9-4.8,11.6-6.9,18.3-7.6
		c5.8-0.6,11.9-0.1,17.7,1.2c-0.3-0.3-0.7-0.6-1-1c-0.9-1-1.7-2-2.2-3.3c-0.1-0.3-0.4-0.5-0.7-0.8c-0.2-0.2-0.5-0.2-0.8-0.4
		c-1.2-0.6-2.4-1.3-3.8-1.2c-0.2,0-0.5-0.1-0.7-0.2c-1-0.3-1.9-0.6-2.9-0.9c-0.8-0.2-1.5-0.5-2.3-0.1c-0.3,0.1-0.7,0.1-1.1,0.1
		c-1.9-0.1-3.8-0.2-5.7-0.2c-1.7,0-3.3,0.1-5,0.2c-0.4,0-0.8,0-1.2-0.1c-0.5-0.3-1-0.1-1.5,0c-1.2,0.4-2.4,0.7-3.6,1.1
		c-0.3,0.1-0.7,0.1-1.1,0.2c-0.5,0.1-1,0.1-1.5,0.3c-0.8,0.3-1.6,0.8-2.4,1.1c-0.5,0.2-0.8,0.6-1,1.1c-0.3,0.7-0.6,1.3-1.1,1.8
		c-0.7,0.9-1.4,1.7-2.3,2.5c-1,0.8-1.4,1.8-1.3,3.1c0,1.6-0.4,2.9-1.6,3.9c-0.4,0.3-0.5,0.8-0.5,1.3c0,0.4,0,0.8,0,1.2
		c-0.1,0.8-0.3,1.6-0.9,2.2c-0.4,0.4-0.6,0.9-0.5,1.5c0,1.3,0,2.6,0,3.8c0,0.9-0.2,1.7-1,2.4c-0.2,0.1-0.2,0.4-0.3,0.6
		c0,0.5,0,1,0,1.6c-0.1,1.1-0.3,2.1-1,3c-0.3,0.3-0.3,0.7-0.3,1.1c0,1.1,0,2.2,0,3.2c0,0-0.1,0-0.1,0c0.1,1.6,0.1,3.2,0.3,4.8
		c0.2,1.5,0.7,2.9,1,4.3c0.7,3.6,2.7,6.5,5,9.2C18.6,85.5,18.6,85.1,18.6,84.8"/>
	<path class="st8" d="M11.5,62.6C10.7,62,9.9,61.5,9.1,61c-0.2-0.1-0.3-0.4-0.3-0.6c0-1.2,0-2.4,0-3.6c0-1-0.1-1.9,0.3-2.9
		c0.2,0.2,0.3,0.4,0.5,0.5c0.5,0.4,0.9,0.2,1-0.4c0-0.4,0-0.8,0-1.2c0-1.4,0-2.8,0-4.2c0-1.1,0.2-2.2,1-3.1c0.6-0.7,0.6-1.7,0.7-2.6
		c0.1-1,0.1-2,0.2-3c0.1-0.9,0.4-1.7,1.2-2.2c0.2-0.2,0.4-0.6,0.5-0.9c0.2-0.9,0.3-1.7,0.4-2.6c0.3-1.7,1.2-3.1,2.6-4.2
		c0.3-0.2,0.6-0.5,0.9-0.6c0.7-0.5,1.2-1,1.3-2c0.1-0.6,0.5-1.2,1-1.8c1.1-1.4,2.5-2.3,4.3-2.7c0.7-0.2,1.3-0.3,1.3-1.3
		c0-0.2,0.3-0.4,0.5-0.4c2.3-1,4.6-1.6,7.1-2.2c2.2-0.5,4.4-0.3,6.5-0.7c0.5-0.1,1.1-0.1,1.7,0c1.4,0.1,2.7,0.2,4.1,0.3
		c2.9,0.4,5.7,1,8.5,2.1c0.4,0.2,0.7,0.3,1.1,0.4c0.4,0.1,0.6,0.3,0.6,0.8c0,0.5,0.3,0.7,0.7,0.8c0.3,0.1,0.5,0.1,0.8,0.2
		c1.8,0.5,3.3,1.6,4.4,3.1c0.4,0.5,0.6,1,0.6,1.7c0,0.5,0.2,0.8,0.6,1.1c0.6,0.4,1.1,0.8,1.6,1.2c1.4,1,2.2,2.4,2.5,4.1
		c0.1,0.7,0.2,1.3,0.3,2c0.1,0.7,0.2,1.3,0.9,1.7c0.8,0.5,0.9,1.5,1,2.3c0.1,1,0.1,2,0.2,3c0.1,1,0.3,1.8,0.9,2.6
		c0.7,0.8,0.7,1.9,0.7,2.9c0,1.6,0,3.1,0,4.7c0,0.4-0.2,0.9,0.3,1.2c0.5,0.2,0.7-0.4,1.1-0.6c0.4,0.4,0.3,0.9,0.3,1.4
		c0,1.7,0,3.4,0,5c0,0.4-0.2,0.5-0.5,0.7c-0.5,0.3-1.1,0.7-1.6,1.1c-0.5,0.4-1,0.4-1.3-0.2c-0.3-0.6-0.4-1.2-0.4-1.8
		c-0.1-0.8,0-1.7,0-2.5c0-0.5-0.1-0.9-0.7-0.9c-0.4,0-0.5-0.3-0.5-0.6c0-0.4-0.1-0.8-0.1-1.2c0-1.3,0-2.6,0-3.8c0-0.5,0-0.9-0.4-1.2
		c-0.8-0.7-0.9-1.6-1-2.6c0-0.3,0-0.6,0-1c0-0.6-0.1-1-0.6-1.4c-1.2-0.9-1.6-2.2-1.6-3.6c0.1-1.5-0.5-2.6-1.6-3.6
		c-1-0.9-1.8-1.9-2.7-2.9c-0.3-0.3-0.5-0.8-0.5-1.2c0-0.7-0.3-0.9-0.8-1.2c-1.2-0.5-2.3-1.1-3.5-1.6c-0.7-0.3-1.4-0.8-2.3-0.4
		c-0.1,0.1-0.4-0.1-0.6-0.1c-1.5-0.5-3-0.9-4.5-1.4c-0.5-0.2-0.9-0.3-1.3,0.3c-0.1,0.2-0.4,0.3-0.6,0.3c-0.6,0-1.1,0.1-1.7,0
		c-2.5-0.3-4.9-0.3-7.4,0c-0.5,0.1-1,0-1.6,0c-0.2,0-0.5-0.1-0.6-0.2c-0.3-0.6-0.8-0.5-1.3-0.3c-1.4,0.5-2.9,0.9-4.3,1.4
		c-0.2,0.1-0.5,0.2-0.7,0.1c-0.7-0.3-1.3,0-1.8,0.3c-1.3,0.6-2.6,1.2-3.9,1.8c-0.5,0.2-0.7,0.5-0.8,1.1c-0.1,0.6-0.4,1.2-0.8,1.7
		c-0.7,0.9-1.5,1.7-2.3,2.5c-1,0.9-1.6,2-1.6,3.3c0,0.2-0.1,0.5-0.1,0.7c0.1,1.3-0.5,2.3-1.5,3.1c-0.4,0.3-0.5,0.7-0.6,1.1
		c0,0.5-0.1,1-0.1,1.6c0,0.9-0.2,1.7-0.9,2.2c-0.4,0.3-0.4,0.8-0.4,1.2c0,1.4,0,2.7,0,4.1c0,0.4-0.1,0.8-0.2,1.2
		c0,0.1-0.2,0.3-0.4,0.4c-0.8,0.3-0.8,0.4-0.8,1.1c0,0.6,0.1,1.2,0.1,1.8c0,0.5-0.1,1-0.2,1.5C12.4,61.8,12.1,62.4,11.5,62.6"/>
	<path class="st3" d="M11,66.8c-0.3-0.4-0.6-0.7-0.9-1.1c-0.9-1-2-1.7-3.5-1.6c-1.5,0.1-2.9,1.9-2.6,3.4c0,0.2,0.2,0.4,0.3,0.4
		c0.1,0,0.4-0.1,0.5-0.3c0.2-0.4,0.4-0.8,0.6-1.1c0.6-1,1.2-1.2,2.2-0.8c1.7,0.6,3.5,3,3.6,4.7c0,1.3,0.2,2.5,0.5,3.8
		c0.2,0.7,0,0.9-0.6,1c-0.6,0.1-1.3,0.2-1.9,0.1c-1.3-0.2-2.6-0.5-3.9-0.8c-2.2-0.6-4.1-3.2-4.1-5.5c0-1.2,0.1-2.5,0.5-3.7
		c0.6-1.9,2.4-3.4,4.4-3.5c0.6,0,1.1,0,1.7,0c1.3,0.1,2.3,0.8,3.2,1.8c0.2,0.2,0.3,0.6,0.3,0.9c0,0.8,0,1.5,0,2.3
		C11.2,66.8,11.1,66.8,11,66.8"/>
	<path class="st3" d="M70.6,66.7c0-0.5,0-1.1-0.1-1.6c-0.1-0.8,0.2-1.4,0.8-2c2.5-2.5,8.1-1.3,8.9,2.8c0.2,1.1,0.4,2.1,0.4,3.2
		c0,2.1-1.9,4.8-3.9,5.4c-1.6,0.5-3.2,0.9-4.9,0.9c-0.2,0-0.4,0-0.6,0c-1-0.1-1.2-0.3-1-1.4c0.2-1.2,0.3-2.4,0.5-3.7
		c0.1-0.7,0.2-1.4,0.7-2c0.6-0.7,1.3-1.4,2-2.1c0.3-0.3,0.7-0.4,1.1-0.5c0.9-0.3,1.4-0.1,1.9,0.7c0.3,0.5,0.5,1,0.8,1.4
		c0.1,0.1,0.3,0.2,0.4,0.2c0.1,0,0.3-0.2,0.3-0.3c0.4-1.7-1-3.8-2.8-3.6c-1,0.1-1.9,0.5-2.7,1.2C71.7,65.8,71.2,66.2,70.6,66.7"/>
	<g>
		<defs>
			<path id="SVGID_1_" d="M50.1,76c0,3.9,3.2,7.1,7.1,7.1c3.9,0,7.1-3.2,7.1-7.1s-3.2-7.1-7.1-7.1C53.3,68.9,50.1,72.1,50.1,76"/>
		</defs>
		<clipPath id="SVGID_2_">
			<use xlink:href="#SVGID_1_"  style="overflow:visible;"/>
		</clipPath>
		<defs>
			<filter id="Adobe_OpacityMaskFilter" filterUnits="userSpaceOnUse" x="50.1" y="68.9" width="14.2" height="14.2">
				<feColorMatrix  type="matrix" values="1 0 0 0 0  0 1 0 0 0  0 0 1 0 0  0 0 0 1 0"/>
			</filter>
		</defs>
		<mask maskUnits="userSpaceOnUse" x="50.1" y="68.9" width="14.2" height="14.2" id="SVGID_3_">
			<g class="st9">
				
					<radialGradient id="SVGID_4_" cx="5.508798e-05" cy="212.2659" r="1" gradientTransform="matrix(7.0979 0 0 -7.0979 57.2231 1582.6378)" gradientUnits="userSpaceOnUse">
					<stop  offset="0" style="stop-color:#FFFFFF"/>
					<stop  offset="0.133" style="stop-color:#FBFBFB"/>
					<stop  offset="0.2596" style="stop-color:#F0F0F0"/>
					<stop  offset="0.3835" style="stop-color:#DDDDDD"/>
					<stop  offset="0.5059" style="stop-color:#C2C2C2"/>
					<stop  offset="0.6273" style="stop-color:#9F9F9F"/>
					<stop  offset="0.7478" style="stop-color:#747474"/>
					<stop  offset="0.8676" style="stop-color:#414141"/>
					<stop  offset="0.9841" style="stop-color:#080808"/>
					<stop  offset="1" style="stop-color:#000000"/>
				</radialGradient>
				<rect x="50.1" y="68.9" class="st10" width="14.2" height="14.2"/>
			</g>
		</mask>
		
			<radialGradient id="SVGID_5_" cx="5.508798e-05" cy="212.2659" r="1" gradientTransform="matrix(7.0979 0 0 -7.0979 57.2231 1582.6378)" gradientUnits="userSpaceOnUse">
			<stop  offset="0" style="stop-color:#D68B73"/>
			<stop  offset="0.3594" style="stop-color:#D68F74"/>
			<stop  offset="0.7004" style="stop-color:#D69A76"/>
			<stop  offset="1" style="stop-color:#D6AB79"/>
		</radialGradient>
		<rect x="50.1" y="68.9" class="st11" width="14.2" height="14.2"/>
	</g>
	<g>
		<defs>
			<path id="SVGID_6_" d="M16.7,76c0,3.9,3.2,7.1,7.1,7.1s7.1-3.2,7.1-7.1s-3.2-7.1-7.1-7.1S16.7,72.1,16.7,76"/>
		</defs>
		<clipPath id="SVGID_7_">
			<use xlink:href="#SVGID_6_"  style="overflow:visible;"/>
		</clipPath>
		<defs>
			<filter id="Adobe_OpacityMaskFilter_1_" filterUnits="userSpaceOnUse" x="16.7" y="68.9" width="14.2" height="14.2">
				<feColorMatrix  type="matrix" values="1 0 0 0 0  0 1 0 0 0  0 0 1 0 0  0 0 0 1 0"/>
			</filter>
		</defs>
		<mask maskUnits="userSpaceOnUse" x="16.7" y="68.9" width="14.2" height="14.2" id="SVGID_8_">
			<g class="st12">
				
					<radialGradient id="SVGID_9_" cx="-9.942708e-06" cy="212.2659" r="1" gradientTransform="matrix(7.0979 0 0 -7.0979 23.8091 1582.6378)" gradientUnits="userSpaceOnUse">
					<stop  offset="0" style="stop-color:#FFFFFF"/>
					<stop  offset="0.133" style="stop-color:#FBFBFB"/>
					<stop  offset="0.2596" style="stop-color:#F0F0F0"/>
					<stop  offset="0.3835" style="stop-color:#DDDDDD"/>
					<stop  offset="0.5059" style="stop-color:#C2C2C2"/>
					<stop  offset="0.6273" style="stop-color:#9F9F9F"/>
					<stop  offset="0.7478" style="stop-color:#747474"/>
					<stop  offset="0.8676" style="stop-color:#414141"/>
					<stop  offset="0.9841" style="stop-color:#080808"/>
					<stop  offset="1" style="stop-color:#000000"/>
				</radialGradient>
				<rect x="16.7" y="68.9" class="st13" width="14.2" height="14.2"/>
			</g>
		</mask>
		
			<radialGradient id="SVGID_10_" cx="-9.942708e-06" cy="212.2659" r="1" gradientTransform="matrix(7.0979 0 0 -7.0979 23.8091 1582.6378)" gradientUnits="userSpaceOnUse">
			<stop  offset="0" style="stop-color:#D68B73"/>
			<stop  offset="0.3594" style="stop-color:#D68F74"/>
			<stop  offset="0.7004" style="stop-color:#D69A76"/>
			<stop  offset="1" style="stop-color:#D6AB79"/>
		</radialGradient>
		<rect x="16.7" y="68.9" class="st14" width="14.2" height="14.2"/>
	</g>
</g>
</svg>
